*
%FSLAX26Y26*%
%MOIN*%
%ADD10C,0.015700*%
%ADD11C,0.051200*%
%ADD12C,0.020100*%
%ADD13C,0.029900*%
%ADD14C,0.024000*%
%ADD15C,0.011700*%
%ADD16C,0.126000*%
%ADD17C,0.041200*%
%IPPOS*%
%LN1g.gbx*%
%LPD*%
G75*
G54D10*
X01480315Y01421260D03*
Y01496063D03*
X00740158Y01375984D03*
X01285433Y00742126D03*
X00740158Y01399606D03*
X01261811Y00742126D03*
X00807087Y01375984D03*
X01332677Y00742126D03*
X01035433Y00732283D03*
X00807087Y01399606D03*
Y01423228D03*
Y01446850D03*
X01261811Y00809055D03*
X00740158Y01446850D03*
X01309055Y00809055D03*
X01285433D03*
X01309055Y00742126D03*
X01332677Y00809055D03*
X00740158Y01423228D03*
G54D11*
X01448851Y01377953D03*
X00771623Y01332678D03*
Y01490158D03*
X01448851Y01539370D03*
X01375985Y00773591D03*
X01218504D03*
G54D12*
X01000000Y00803087D02*
Y00776785D01*
X01070867Y00803087D02*
Y00776785D01*
X01070349Y00775929D02*
X01053394Y00747884D01*
X01017473D02*
X01000518Y00775929D01*
G54D13*
X01057874Y00748032D02*
X01094930D01*
X01012993D02*
X00974877D01*
G54D14*
X01062774Y00801150D02*
X01091024D01*
X01008093D02*
X00979843D01*
G54D15*
X01008093D03*
X01062774D03*
X01091024D03*
X00979843D03*
X01000000Y00776785D03*
X01070867D03*
X00974877Y00748032D03*
X01094930D03*
X01057874D03*
X01012993D03*
G54D10*
X01480315Y03078740D03*
Y03153543D03*
X00740158Y03033464D03*
X01285433Y02399606D03*
X00740158Y03057086D03*
X01261811Y02399606D03*
X00807087Y03033464D03*
X01332677Y02399606D03*
X01035433Y02389763D03*
X00807087Y03057086D03*
Y03080708D03*
Y03104330D03*
X01261811Y02466535D03*
X00740158Y03104330D03*
X01309055Y02466535D03*
X01285433D03*
X01309055Y02399606D03*
X01332677Y02466535D03*
X00740158Y03080708D03*
G54D11*
X01448851Y03035433D03*
X00771623Y02990158D03*
Y03147638D03*
X01448851Y03196851D03*
X01375985Y02431071D03*
X01218504D03*
G54D12*
X01000000Y02460567D02*
Y02434265D01*
X01070867Y02460567D02*
Y02434265D01*
X01070349Y02433409D02*
X01053394Y02405364D01*
X01017473D02*
X01000518Y02433409D01*
G54D13*
X01057874Y02405512D02*
X01094930D01*
X01012993D02*
X00974877D01*
G54D14*
X01062774Y02458630D02*
X01091024D01*
X01008093D02*
X00979843D01*
G54D15*
X01008093D03*
X01062774D03*
X01091024D03*
X00979843D03*
X01000000Y02434265D03*
X01070867D03*
X00974877Y02405512D03*
X01094930D03*
X01057874D03*
X01012993D03*
G54D10*
X01480315Y04736220D03*
Y04811023D03*
X00740158Y04690945D03*
X01285433Y04057086D03*
X00740158Y04714567D03*
X01261811Y04057086D03*
X00807087Y04690945D03*
X01332677Y04057086D03*
X01035433Y04047244D03*
X00807087Y04714567D03*
Y04738189D03*
Y04761811D03*
X01261811Y04124015D03*
X00740158Y04761811D03*
X01309055Y04124015D03*
X01285433D03*
X01309055Y04057086D03*
X01332677Y04124015D03*
X00740158Y04738189D03*
G54D11*
X01448851Y04692914D03*
X00771623Y04647638D03*
Y04805119D03*
X01448851Y04854331D03*
X01375985Y04088552D03*
X01218504D03*
G54D12*
X01000000Y04118048D02*
Y04091746D01*
X01070867Y04118048D02*
Y04091746D01*
X01070349Y04090890D02*
X01053394Y04062845D01*
X01017473D02*
X01000518Y04090890D01*
G54D13*
X01057874Y04062993D02*
X01094930D01*
X01012993D02*
X00974877D01*
G54D14*
X01062774Y04116111D02*
X01091024D01*
X01008093D02*
X00979843D01*
G54D15*
X01008093D03*
X01062774D03*
X01091024D03*
X00979843D03*
X01000000Y04091746D03*
X01070867D03*
X00974877Y04062993D03*
X01094930D03*
X01057874D03*
X01012993D03*
G54D10*
X01480315Y06393700D03*
Y06468504D03*
X00740158Y06348425D03*
X01285433Y05714567D03*
X00740158Y06372047D03*
X01261811Y05714567D03*
X00807087Y06348425D03*
X01332677Y05714567D03*
X01035433Y05704724D03*
X00807087Y06372047D03*
Y06395669D03*
Y06419291D03*
X01261811Y05781496D03*
X00740158Y06419291D03*
X01309055Y05781496D03*
X01285433D03*
X01309055Y05714567D03*
X01332677Y05781496D03*
X00740158Y06395669D03*
G54D11*
X01448851Y06350394D03*
X00771623Y06305119D03*
Y06462599D03*
X01448851Y06511811D03*
X01375985Y05746032D03*
X01218504D03*
G54D12*
X01000000Y05775528D02*
Y05749226D01*
X01070867Y05775528D02*
Y05749226D01*
X01070349Y05748370D02*
X01053394Y05720325D01*
X01017473D02*
X01000518Y05748370D01*
G54D13*
X01057874Y05720473D02*
X01094930D01*
X01012993D02*
X00974877D01*
G54D14*
X01062774Y05773591D02*
X01091024D01*
X01008093D02*
X00979843D01*
G54D15*
X01008093D03*
X01062774D03*
X01091024D03*
X00979843D03*
X01000000Y05749226D03*
X01070867D03*
X00974877Y05720473D03*
X01094930D03*
X01057874D03*
X01012993D03*
G54D10*
X01480315Y08051181D03*
Y08125984D03*
X00740158Y08005905D03*
X01285433Y07372047D03*
X00740158Y08029527D03*
X01261811Y07372047D03*
X00807087Y08005905D03*
X01332677Y07372047D03*
X01035433Y07362204D03*
X00807087Y08029527D03*
Y08053149D03*
Y08076771D03*
X01261811Y07438976D03*
X00740158Y08076771D03*
X01309055Y07438976D03*
X01285433D03*
X01309055Y07372047D03*
X01332677Y07438976D03*
X00740158Y08053149D03*
G54D11*
X01448851Y08007874D03*
X00771623Y07962599D03*
Y08120079D03*
X01448851Y08169292D03*
X01375985Y07403512D03*
X01218504D03*
G54D12*
X01000000Y07433008D02*
Y07406706D01*
X01070867Y07433008D02*
Y07406706D01*
X01070349Y07405850D02*
X01053394Y07377805D01*
X01017473D02*
X01000518Y07405850D01*
G54D13*
X01057874Y07377953D02*
X01094930D01*
X01012993D02*
X00974877D01*
G54D14*
X01062774Y07431071D02*
X01091024D01*
X01008093D02*
X00979843D01*
G54D15*
X01008093D03*
X01062774D03*
X01091024D03*
X00979843D03*
X01000000Y07406706D03*
X01070867D03*
X00974877Y07377953D03*
X01094930D03*
X01057874D03*
X01012993D03*
G54D16*
X00250000Y00250000D03*
G54D16*
Y09037402D03*
G54D16*
X02584646Y00250000D03*
G54D16*
Y09037402D03*
G54D17*
X00250000Y00250000D03*
G54D17*
Y09037402D03*
G54D17*
X02584646Y00250000D03*
G54D17*
Y09037402D03*
G54D10*
X05053144Y01047244D03*
G54D10*
X04990152Y00984252D03*
G54D10*
X05033459Y01023622D03*
G54D10*
X05011805Y01001968D03*
G54D10*
X04519679Y01588189D03*
G54D11*
X05117317Y01070940D03*
G54D11*
X04967298Y00921907D03*
G54D11*
X04386609Y01503862D03*
G54D11*
X04536476Y01653358D03*
G54D10*
X05053144Y02622047D03*
G54D10*
X04990152Y02559055D03*
G54D10*
X05033459Y02598425D03*
G54D10*
X05011805Y02576772D03*
G54D10*
X04519679Y03162992D03*
G54D11*
X05117317Y02645744D03*
G54D11*
X04967298Y02496710D03*
G54D11*
X04386609Y03078665D03*
G54D11*
X04536476Y03228161D03*
G54D10*
X05053144Y04196850D03*
G54D10*
X04990152Y04133858D03*
G54D10*
X05033459Y04173228D03*
G54D10*
X05011805Y04151575D03*
G54D10*
X04519679Y04737795D03*
G54D11*
X05117317Y04220547D03*
G54D11*
X04967298Y04071513D03*
G54D11*
X04386609Y04653468D03*
G54D11*
X04536476Y04802964D03*
G54D10*
X05053144Y05771653D03*
G54D10*
X04990152Y05708661D03*
G54D10*
X05033459Y05748031D03*
G54D10*
X05011805Y05726378D03*
G54D10*
X04519679Y06312598D03*
G54D11*
X05117317Y05795350D03*
G54D11*
X04967298Y05646317D03*
G54D11*
X04386609Y06228271D03*
G54D11*
X04536476Y06377767D03*
G54D10*
X05053144Y07346457D03*
G54D10*
X04990152Y07283464D03*
G54D10*
X05033459Y07322835D03*
G54D10*
X05011805Y07301181D03*
G54D10*
X04519679Y07887401D03*
G54D11*
X05117317Y07370153D03*
G54D11*
X04967298Y07221120D03*
G54D11*
X04386609Y07803074D03*
G54D11*
X04536476Y07952570D03*
G54D16*
X03202750Y00250000D03*
G54D16*
X05710624D03*
G54D16*
X03202750Y08624016D03*
G54D16*
X05710624D03*
G54D17*
X03202750Y00250000D03*
G54D17*
X05710624D03*
G54D17*
X03202750Y08624016D03*
G54D17*
X05710624D03*
G54D10*
X08179114Y01047244D03*
G54D10*
X08116122Y00984252D03*
G54D10*
X08159429Y01023622D03*
G54D10*
X08137775Y01001969D03*
G54D10*
X07645649Y01586614D03*
G54D10*
X07574783Y01515748D03*
G54D11*
X07512579Y01503862D03*
G54D11*
X07662446Y01653358D03*
G54D11*
X08243287Y01070941D03*
G54D11*
X08093268Y00921907D03*
G54D10*
X08179114Y02622047D03*
G54D10*
X08116122Y02559055D03*
G54D10*
X08159429Y02598425D03*
G54D10*
X08137775Y02576772D03*
G54D10*
X07645649Y03161417D03*
G54D10*
X07574783Y03090551D03*
G54D11*
X07512579Y03078665D03*
G54D11*
X07662446Y03228161D03*
G54D11*
X08243287Y02645744D03*
G54D11*
X08093268Y02496710D03*
G54D10*
X08179114Y04196850D03*
G54D10*
X08116122Y04133858D03*
G54D10*
X08159429Y04173228D03*
G54D10*
X08137775Y04151575D03*
G54D10*
X07645649Y04736220D03*
G54D10*
X07574783Y04665354D03*
G54D11*
X07512579Y04653468D03*
G54D11*
X07662446Y04802964D03*
G54D11*
X08243287Y04220547D03*
G54D11*
X08093268Y04071514D03*
G54D10*
X08179114Y05771654D03*
G54D10*
X08116122Y05708661D03*
G54D10*
X08159429Y05748031D03*
G54D10*
X08137775Y05726378D03*
G54D10*
X07645649Y06311024D03*
G54D10*
X07574783Y06240157D03*
G54D11*
X07512579Y06228271D03*
G54D11*
X07662446Y06377767D03*
G54D11*
X08243287Y05795350D03*
G54D11*
X08093268Y05646317D03*
G54D10*
X08179114Y07346457D03*
G54D10*
X08116122Y07283465D03*
G54D10*
X08159429Y07322835D03*
G54D10*
X08137775Y07301181D03*
G54D10*
X07645649Y07885827D03*
G54D10*
X07574783Y07814961D03*
G54D11*
X07512579Y07803074D03*
G54D11*
X07662446Y07952571D03*
G54D11*
X08243287Y07370153D03*
G54D11*
X08093268Y07221120D03*
G54D16*
X06328720Y00250000D03*
G54D16*
X08836594D03*
G54D16*
X06328720Y08624016D03*
G54D16*
X08836594D03*
G54D17*
X06328720Y00250000D03*
G54D17*
X08836594D03*
G54D17*
X06328720Y08624016D03*
G54D17*
X08836594D03*
M02*
