*
%FSLAX26Y26*%
%MOIN*%
%ADD10C,0.010000*%
%IPPOS*%
%LN1o.gbx*%
%LPD*%
G75*
G54D10*
X00500000Y02157480D02*
X02334646D01*
Y00500000D01*
X00500000D01*
Y02157480D01*
X01488189Y01801181D02*
X01487697Y01807389D01*
X01486232Y01813441D01*
X01483831Y01819187D01*
X01480554Y01824482D01*
X01476483Y01829194D01*
X01471721Y01833205D01*
X01466385Y01836416D01*
X01460610Y01838745D01*
X01454540Y01840134D01*
X01448819Y01840552D01*
X01488189Y00773622D02*
Y00816930D01*
X00732284Y00773622D02*
X00732776Y00767415D01*
X00734241Y00761363D01*
X00736642Y00755617D01*
X00739919Y00750322D01*
X00743990Y00745610D01*
X00748753Y00741599D01*
X00754088Y00738388D01*
X00759864Y00736059D01*
X00765934Y00734670D01*
X00771654Y00734252D01*
X00732284Y01490158D02*
Y01801181D01*
X01375985Y00734252D02*
X01448819D01*
X00771654Y01840552D02*
X01448819D01*
Y00734252D02*
X01455027Y00734745D01*
X01461079Y00736210D01*
X01466825Y00738611D01*
X01472120Y00741888D01*
X01476832Y00745958D01*
X01480843Y00750721D01*
X01484054Y00756057D01*
X01486382Y00761832D01*
X01487772Y00767902D01*
X01488189Y00773622D01*
X01053150Y00734252D02*
X01218504D01*
X01017717D02*
X00771654D01*
X01488189Y00816930D02*
Y01377953D01*
Y01539370D02*
Y01722441D01*
Y01801181D02*
Y01722441D01*
X01375985Y00812930D02*
X01369780Y00812437D01*
X01363730Y00810972D01*
X01357987Y00808571D01*
X01352695Y00805294D01*
X01347986Y00801224D01*
X01343978Y00796462D01*
X01340771Y00791127D01*
X01338446Y00785353D01*
X01337060Y00779285D01*
X01336650Y00773074D01*
X01337224Y00766876D01*
X01338768Y00760846D01*
X01341244Y00755135D01*
X01344590Y00749886D01*
X01348722Y00745231D01*
X01353537Y00741286D01*
X01358913Y00738150D01*
X01364717Y00735900D01*
X01370803Y00734595D01*
X01375985Y00734252D01*
X00732284Y01490158D02*
X00732776Y01483953D01*
X00734241Y01477903D01*
X00736642Y01472160D01*
X00739919Y01466868D01*
X00743989Y01462159D01*
X00748752Y01458151D01*
X00754087Y01454944D01*
X00759861Y01452619D01*
X00765929Y01451233D01*
X00772140Y01450823D01*
X00778338Y01451397D01*
X00784368Y01452941D01*
X00790078Y01455417D01*
X00795327Y01458763D01*
X00799982Y01462895D01*
X00803928Y01467710D01*
X00807064Y01473087D01*
X00809313Y01478890D01*
X00810618Y01484977D01*
X00810961Y01490158D01*
X01409512Y01539370D02*
X01410005Y01533165D01*
X01411470Y01527116D01*
X01413871Y01521373D01*
X01417147Y01516081D01*
X01421218Y01511372D01*
X01425980Y01507363D01*
X01431315Y01504157D01*
X01437089Y01501831D01*
X01443157Y01500446D01*
X01449368Y01500035D01*
X01455566Y01500609D01*
X01461596Y01502154D01*
X01467307Y01504630D01*
X01472556Y01507976D01*
X01477211Y01512108D01*
X01481156Y01516923D01*
X01484292Y01522299D01*
X01486541Y01528103D01*
X01487847Y01534189D01*
X01488189Y01539370D01*
X00771654Y01840552D02*
X00765447Y01840059D01*
X00759394Y01838594D01*
X00753649Y01836193D01*
X00748354Y01832916D01*
X00743642Y01828846D01*
X00739630Y01824083D01*
X00736420Y01818747D01*
X00734091Y01812972D01*
X00732702Y01806902D01*
X00732284Y01801181D01*
X01218504Y00734252D02*
X01224709Y00734745D01*
X01230759Y00736210D01*
X01236502Y00738611D01*
X01241794Y00741887D01*
X01246503Y00745958D01*
X01250511Y00750720D01*
X01253718Y00756055D01*
X01256044Y00761829D01*
X01257429Y00767897D01*
X01257840Y00774108D01*
X01257266Y00780306D01*
X01255721Y00786336D01*
X01253245Y00792047D01*
X01249899Y00797296D01*
X01245767Y00801951D01*
X01240952Y00805896D01*
X01235576Y00809032D01*
X01229772Y00811281D01*
X01223686Y00812587D01*
X01218504Y00812930D01*
X01488189Y01377953D02*
X01487697Y01384158D01*
X01486232Y01390208D01*
X01483831Y01395951D01*
X01480554Y01401243D01*
X01476484Y01405952D01*
X01471722Y01409960D01*
X01466387Y01413167D01*
X01460613Y01415492D01*
X01454544Y01416878D01*
X01448334Y01417288D01*
X01442136Y01416714D01*
X01436106Y01415170D01*
X01430395Y01412694D01*
X01425146Y01409348D01*
X01420491Y01405216D01*
X01416546Y01400401D01*
X01413409Y01395025D01*
X01411160Y01389221D01*
X01409855Y01383134D01*
X01409512Y01377953D01*
X00810961Y01332678D02*
X00810469Y01338883D01*
X00809004Y01344932D01*
X00806603Y01350675D01*
X00803326Y01355967D01*
X00799256Y01360676D01*
X00794493Y01364685D01*
X00789158Y01367891D01*
X00783385Y01370217D01*
X00777316Y01371602D01*
X00771105Y01372013D01*
X00764907Y01371439D01*
X00758877Y01369894D01*
X00753167Y01367418D01*
X00747918Y01364072D01*
X00743263Y01359940D01*
X00739318Y01355125D01*
X00736181Y01349749D01*
X00733932Y01343945D01*
X00732627Y01337859D01*
X00732284Y01332678D01*
Y00773622D01*
X00810961Y00812930D02*
X01009843D01*
X01409512D02*
Y01377953D01*
Y01565406D02*
X01373279Y01726441D01*
X00851208D01*
X00810961Y01565454D01*
Y01490158D01*
X01061024Y00812930D02*
X01218504D01*
X01051182Y00799213D02*
Y00803087D01*
X01027560Y00748032D02*
X01027070Y00751097D01*
X01025651Y00753857D01*
X01024677Y00754992D01*
X01043308Y00748032D02*
X01043798Y00744283D01*
X01045237Y00740787D01*
X01047528Y00737778D01*
X01050515Y00735461D01*
X01053150Y00734252D01*
X01017717D02*
X01021104Y00735932D01*
X01023945Y00738428D01*
X01026048Y00741570D01*
X01027271Y00745148D01*
X01027560Y00748032D01*
X01046190Y00754992D02*
X01061024Y00779528D01*
X01046190Y00754992D02*
X01044369Y00752478D01*
X01043421Y00749523D01*
X01043308Y00748032D01*
X01019686Y00803087D02*
X01019196Y00806152D01*
X01017777Y00808912D01*
X01015568Y00811093D01*
X01012791Y00812478D01*
X01009843Y00812930D01*
X01061024D02*
X01057959Y00812440D01*
X01055199Y00811021D01*
X01053018Y00808812D01*
X01051633Y00806035D01*
X01051182Y00803087D01*
X01019686D02*
Y00799213D01*
X01009843Y00789370D02*
X01012908Y00789860D01*
X01015668Y00791279D01*
X01017849Y00793488D01*
X01019234Y00796265D01*
X01019686Y00799213D01*
X01009843Y00789370D02*
Y00779528D01*
X01024677Y00754992D01*
X01051182Y00799213D02*
X01051671Y00796148D01*
X01053090Y00793388D01*
X01055299Y00791207D01*
X01058076Y00789822D01*
X01061024Y00789370D01*
Y00779528D02*
Y00789370D01*
X01375985Y00812930D02*
X01409512D01*
Y01539370D02*
Y01565406D01*
X00810961Y01332678D02*
Y00812930D01*
X00500000Y03814961D02*
X02334646D01*
Y02157480D01*
X00500000D01*
Y03814961D01*
X01488189Y03458662D02*
X01487697Y03464869D01*
X01486232Y03470922D01*
X01483831Y03476667D01*
X01480554Y03481962D01*
X01476483Y03486674D01*
X01471721Y03490686D01*
X01466385Y03493896D01*
X01460610Y03496225D01*
X01454540Y03497614D01*
X01448819Y03498032D01*
X01488189Y02431103D02*
Y02474410D01*
X00732284Y02431103D02*
X00732776Y02424895D01*
X00734241Y02418843D01*
X00736642Y02413098D01*
X00739919Y02407802D01*
X00743990Y02403090D01*
X00748753Y02399079D01*
X00754088Y02395869D01*
X00759864Y02393540D01*
X00765934Y02392150D01*
X00771654Y02391733D01*
X00732284Y03147638D02*
Y03458662D01*
X01375985Y02391733D02*
X01448819D01*
X00771654Y03498032D02*
X01448819D01*
Y02391733D02*
X01455027Y02392225D01*
X01461079Y02393690D01*
X01466825Y02396091D01*
X01472120Y02399368D01*
X01476832Y02403439D01*
X01480843Y02408201D01*
X01484054Y02413537D01*
X01486382Y02419312D01*
X01487772Y02425382D01*
X01488189Y02431103D01*
X01053150Y02391733D02*
X01218504D01*
X01017717D02*
X00771654D01*
X01488189Y02474410D02*
Y03035433D01*
Y03196851D02*
Y03379922D01*
Y03458662D02*
Y03379922D01*
X01375985Y02470410D02*
X01369780Y02469917D01*
X01363730Y02468452D01*
X01357987Y02466051D01*
X01352695Y02462775D01*
X01347986Y02458704D01*
X01343978Y02453942D01*
X01340771Y02448607D01*
X01338446Y02442833D01*
X01337060Y02436765D01*
X01336650Y02430554D01*
X01337224Y02424356D01*
X01338768Y02418326D01*
X01341244Y02412615D01*
X01344590Y02407367D01*
X01348722Y02402711D01*
X01353537Y02398766D01*
X01358913Y02395630D01*
X01364717Y02393381D01*
X01370803Y02392075D01*
X01375985Y02391733D01*
X00732284Y03147638D02*
X00732776Y03141433D01*
X00734241Y03135384D01*
X00736642Y03129641D01*
X00739919Y03124348D01*
X00743989Y03119639D01*
X00748752Y03115631D01*
X00754087Y03112424D01*
X00759861Y03110099D01*
X00765929Y03108714D01*
X00772140Y03108303D01*
X00778338Y03108877D01*
X00784368Y03110421D01*
X00790078Y03112898D01*
X00795327Y03116244D01*
X00799982Y03120376D01*
X00803928Y03125190D01*
X00807064Y03130567D01*
X00809313Y03136371D01*
X00810618Y03142457D01*
X00810961Y03147638D01*
X01409512Y03196851D02*
X01410005Y03190646D01*
X01411470Y03184596D01*
X01413871Y03178853D01*
X01417147Y03173561D01*
X01421218Y03168852D01*
X01425980Y03164844D01*
X01431315Y03161637D01*
X01437089Y03159312D01*
X01443157Y03157926D01*
X01449368Y03157516D01*
X01455566Y03158090D01*
X01461596Y03159634D01*
X01467307Y03162110D01*
X01472556Y03165456D01*
X01477211Y03169588D01*
X01481156Y03174403D01*
X01484292Y03179779D01*
X01486541Y03185583D01*
X01487847Y03191669D01*
X01488189Y03196851D01*
X00771654Y03498032D02*
X00765447Y03497539D01*
X00759394Y03496074D01*
X00753649Y03493673D01*
X00748354Y03490397D01*
X00743642Y03486326D01*
X00739630Y03481563D01*
X00736420Y03476227D01*
X00734091Y03470452D01*
X00732702Y03464382D01*
X00732284Y03458662D01*
X01218504Y02391733D02*
X01224709Y02392225D01*
X01230759Y02393690D01*
X01236502Y02396091D01*
X01241794Y02399368D01*
X01246503Y02403438D01*
X01250511Y02408200D01*
X01253718Y02413535D01*
X01256044Y02419309D01*
X01257429Y02425378D01*
X01257840Y02431589D01*
X01257266Y02437787D01*
X01255721Y02443816D01*
X01253245Y02449527D01*
X01249899Y02454776D01*
X01245767Y02459431D01*
X01240952Y02463376D01*
X01235576Y02466513D01*
X01229772Y02468762D01*
X01223686Y02470067D01*
X01218504Y02470410D01*
X01488189Y03035433D02*
X01487697Y03041638D01*
X01486232Y03047688D01*
X01483831Y03053431D01*
X01480554Y03058723D01*
X01476484Y03063432D01*
X01471722Y03067440D01*
X01466387Y03070647D01*
X01460613Y03072973D01*
X01454544Y03074358D01*
X01448334Y03074769D01*
X01442136Y03074195D01*
X01436106Y03072650D01*
X01430395Y03070174D01*
X01425146Y03066828D01*
X01420491Y03062696D01*
X01416546Y03057881D01*
X01413409Y03052505D01*
X01411160Y03046701D01*
X01409855Y03040615D01*
X01409512Y03035433D01*
X00810961Y02990158D02*
X00810469Y02996363D01*
X00809004Y03002413D01*
X00806603Y03008155D01*
X00803326Y03013448D01*
X00799256Y03018157D01*
X00794493Y03022165D01*
X00789158Y03025372D01*
X00783385Y03027697D01*
X00777316Y03029082D01*
X00771105Y03029493D01*
X00764907Y03028919D01*
X00758877Y03027375D01*
X00753167Y03024898D01*
X00747918Y03021552D01*
X00743263Y03017420D01*
X00739318Y03012606D01*
X00736181Y03007229D01*
X00733932Y03001425D01*
X00732627Y02995339D01*
X00732284Y02990158D01*
Y02431103D01*
X00810961Y02470410D02*
X01009843D01*
X01409512D02*
Y03035434D01*
Y03222886D02*
X01373279Y03383922D01*
X00851208D01*
X00810961Y03222934D01*
Y03147638D01*
X01061024Y02470410D02*
X01218504D01*
X01051182Y02456693D02*
Y02460567D01*
X01027560Y02405512D02*
X01027070Y02408577D01*
X01025651Y02411337D01*
X01024677Y02412472D01*
X01043308Y02405512D02*
X01043798Y02401763D01*
X01045237Y02398267D01*
X01047528Y02395258D01*
X01050515Y02392941D01*
X01053150Y02391733D01*
X01017717D02*
X01021104Y02393413D01*
X01023945Y02395908D01*
X01026048Y02399050D01*
X01027271Y02402628D01*
X01027560Y02405512D01*
X01046190Y02412472D02*
X01061024Y02437008D01*
X01046190Y02412472D02*
X01044369Y02409959D01*
X01043421Y02407003D01*
X01043308Y02405512D01*
X01019686Y02460567D02*
X01019196Y02463632D01*
X01017777Y02466392D01*
X01015568Y02468573D01*
X01012791Y02469958D01*
X01009843Y02470410D01*
X01061024D02*
X01057959Y02469920D01*
X01055199Y02468501D01*
X01053018Y02466293D01*
X01051633Y02463515D01*
X01051182Y02460567D01*
X01019686D02*
Y02456693D01*
X01009843Y02446851D02*
X01012908Y02447340D01*
X01015668Y02448760D01*
X01017849Y02450968D01*
X01019234Y02453746D01*
X01019686Y02456693D01*
X01009843Y02446851D02*
Y02437008D01*
X01024677Y02412472D01*
X01051182Y02456693D02*
X01051671Y02453628D01*
X01053090Y02450868D01*
X01055299Y02448687D01*
X01058076Y02447303D01*
X01061024Y02446851D01*
Y02437008D02*
Y02446851D01*
X01375985Y02470410D02*
X01409512D01*
Y03196851D02*
Y03222886D01*
X00810961Y02990158D02*
Y02470410D01*
X00500000Y05472441D02*
X02334646D01*
Y03814961D01*
X00500000D01*
Y05472441D01*
X01488189Y05116142D02*
X01487697Y05122350D01*
X01486232Y05128402D01*
X01483831Y05134147D01*
X01480554Y05139442D01*
X01476483Y05144155D01*
X01471721Y05148166D01*
X01466385Y05151376D01*
X01460610Y05153705D01*
X01454540Y05155094D01*
X01448819Y05155512D01*
X01488189Y04088583D02*
Y04131890D01*
X00732284Y04088583D02*
X00732776Y04082376D01*
X00734241Y04076323D01*
X00736642Y04070578D01*
X00739919Y04065283D01*
X00743990Y04060571D01*
X00748753Y04056559D01*
X00754088Y04053349D01*
X00759864Y04051020D01*
X00765934Y04049631D01*
X00771654Y04049213D01*
X00732284Y04805119D02*
Y05116142D01*
X01375985Y04049213D02*
X01448819D01*
X00771654Y05155512D02*
X01448819D01*
Y04049213D02*
X01455027Y04049705D01*
X01461079Y04051170D01*
X01466825Y04053571D01*
X01472120Y04056848D01*
X01476832Y04060919D01*
X01480843Y04065682D01*
X01484054Y04071017D01*
X01486382Y04076793D01*
X01487772Y04082863D01*
X01488189Y04088583D01*
X01053150Y04049213D02*
X01218504D01*
X01017717D02*
X00771654D01*
X01488189Y04131890D02*
Y04692914D01*
Y04854331D02*
Y05037402D01*
Y05116142D02*
Y05037402D01*
X01375985Y04127890D02*
X01369780Y04127398D01*
X01363730Y04125933D01*
X01357987Y04123532D01*
X01352695Y04120255D01*
X01347986Y04116185D01*
X01343978Y04111422D01*
X01340771Y04106088D01*
X01338446Y04100314D01*
X01337060Y04094245D01*
X01336650Y04088034D01*
X01337224Y04081836D01*
X01338768Y04075806D01*
X01341244Y04070096D01*
X01344590Y04064847D01*
X01348722Y04060192D01*
X01353537Y04056247D01*
X01358913Y04053110D01*
X01364717Y04050861D01*
X01370803Y04049556D01*
X01375985Y04049213D01*
X00732284Y04805119D02*
X00732776Y04798913D01*
X00734241Y04792864D01*
X00736642Y04787121D01*
X00739919Y04781829D01*
X00743989Y04777120D01*
X00748752Y04773112D01*
X00754087Y04769905D01*
X00759861Y04767579D01*
X00765929Y04766194D01*
X00772140Y04765783D01*
X00778338Y04766357D01*
X00784368Y04767902D01*
X00790078Y04770378D01*
X00795327Y04773724D01*
X00799982Y04777856D01*
X00803928Y04782671D01*
X00807064Y04788047D01*
X00809313Y04793851D01*
X00810618Y04799937D01*
X00810961Y04805119D01*
X01409512Y04854331D02*
X01410005Y04848126D01*
X01411470Y04842076D01*
X01413871Y04836334D01*
X01417147Y04831041D01*
X01421218Y04826332D01*
X01425980Y04822324D01*
X01431315Y04819117D01*
X01437089Y04816792D01*
X01443157Y04815407D01*
X01449368Y04814996D01*
X01455566Y04815570D01*
X01461596Y04817114D01*
X01467307Y04819591D01*
X01472556Y04822937D01*
X01477211Y04827069D01*
X01481156Y04831883D01*
X01484292Y04837260D01*
X01486541Y04843064D01*
X01487847Y04849150D01*
X01488189Y04854331D01*
X00771654Y05155512D02*
X00765447Y05155020D01*
X00759394Y05153555D01*
X00753649Y05151154D01*
X00748354Y05147877D01*
X00743642Y05143806D01*
X00739630Y05139043D01*
X00736420Y05133708D01*
X00734091Y05127933D01*
X00732702Y05121863D01*
X00732284Y05116142D01*
X01218504Y04049213D02*
X01224709Y04049705D01*
X01230759Y04051170D01*
X01236502Y04053571D01*
X01241794Y04056848D01*
X01246503Y04060919D01*
X01250511Y04065681D01*
X01253718Y04071016D01*
X01256044Y04076790D01*
X01257429Y04082858D01*
X01257840Y04089069D01*
X01257266Y04095267D01*
X01255721Y04101297D01*
X01253245Y04107007D01*
X01249899Y04112256D01*
X01245767Y04116911D01*
X01240952Y04120857D01*
X01235576Y04123993D01*
X01229772Y04126242D01*
X01223686Y04127547D01*
X01218504Y04127890D01*
X01488189Y04692914D02*
X01487697Y04699119D01*
X01486232Y04705168D01*
X01483831Y04710911D01*
X01480554Y04716204D01*
X01476484Y04720913D01*
X01471722Y04724921D01*
X01466387Y04728128D01*
X01460613Y04730453D01*
X01454544Y04731838D01*
X01448334Y04732249D01*
X01442136Y04731675D01*
X01436106Y04730131D01*
X01430395Y04727654D01*
X01425146Y04724308D01*
X01420491Y04720176D01*
X01416546Y04715362D01*
X01413409Y04709985D01*
X01411160Y04704181D01*
X01409855Y04698095D01*
X01409512Y04692914D01*
X00810961Y04647638D02*
X00810469Y04653843D01*
X00809004Y04659893D01*
X00806603Y04665636D01*
X00803326Y04670928D01*
X00799256Y04675637D01*
X00794493Y04679645D01*
X00789158Y04682852D01*
X00783385Y04685177D01*
X00777316Y04686563D01*
X00771105Y04686973D01*
X00764907Y04686399D01*
X00758877Y04684855D01*
X00753167Y04682379D01*
X00747918Y04679033D01*
X00743263Y04674901D01*
X00739318Y04670086D01*
X00736181Y04664710D01*
X00733932Y04658906D01*
X00732627Y04652819D01*
X00732284Y04647638D01*
Y04088583D01*
X00810961Y04127890D02*
X01009843D01*
X01409512D02*
Y04692914D01*
Y04880366D02*
X01373279Y05041402D01*
X00851208D01*
X00810961Y04880414D01*
Y04805119D01*
X01061024Y04127890D02*
X01218504D01*
X01051182Y04114174D02*
Y04118048D01*
X01027560Y04062993D02*
X01027070Y04066057D01*
X01025651Y04068818D01*
X01024677Y04069952D01*
X01043308Y04062993D02*
X01043798Y04059244D01*
X01045237Y04055747D01*
X01047528Y04052739D01*
X01050515Y04050421D01*
X01053150Y04049213D01*
X01017717D02*
X01021104Y04050893D01*
X01023945Y04053388D01*
X01026048Y04056531D01*
X01027271Y04060108D01*
X01027560Y04062993D01*
X01046190Y04069952D02*
X01061024Y04094489D01*
X01046190Y04069952D02*
X01044369Y04067439D01*
X01043421Y04064483D01*
X01043308Y04062993D01*
X01019686Y04118048D02*
X01019196Y04121113D01*
X01017777Y04123873D01*
X01015568Y04126054D01*
X01012791Y04127438D01*
X01009843Y04127890D01*
X01061024D02*
X01057959Y04127401D01*
X01055199Y04125981D01*
X01053018Y04123773D01*
X01051633Y04120995D01*
X01051182Y04118048D01*
X01019686D02*
Y04114174D01*
X01009843Y04104331D02*
X01012908Y04104820D01*
X01015668Y04106240D01*
X01017849Y04108448D01*
X01019234Y04111226D01*
X01019686Y04114174D01*
X01009843Y04104331D02*
Y04094489D01*
X01024677Y04069952D01*
X01051182Y04114174D02*
X01051671Y04111109D01*
X01053090Y04108349D01*
X01055299Y04106168D01*
X01058076Y04104783D01*
X01061024Y04104331D01*
Y04094489D02*
Y04104331D01*
X01375985Y04127890D02*
X01409512D01*
Y04854331D02*
Y04880366D01*
X00810961Y04647638D02*
Y04127890D01*
X00500000Y07129921D02*
X02334646D01*
Y05472441D01*
X00500000D01*
Y07129921D01*
X01488189Y06773622D02*
X01487697Y06779830D01*
X01486232Y06785882D01*
X01483831Y06791628D01*
X01480554Y06796923D01*
X01476483Y06801635D01*
X01471721Y06805646D01*
X01466385Y06808857D01*
X01460610Y06811186D01*
X01454540Y06812575D01*
X01448819Y06812993D01*
X01488189Y05746063D02*
Y05789370D01*
X00732284Y05746063D02*
X00732776Y05739856D01*
X00734241Y05733804D01*
X00736642Y05728058D01*
X00739919Y05722763D01*
X00743990Y05718051D01*
X00748753Y05714039D01*
X00754088Y05710829D01*
X00759864Y05708500D01*
X00765934Y05707111D01*
X00771654Y05706693D01*
X00732284Y06462599D02*
Y06773622D01*
X01375985Y05706693D02*
X01448819D01*
X00771654Y06812993D02*
X01448819D01*
Y05706693D02*
X01455027Y05707186D01*
X01461079Y05708651D01*
X01466825Y05711052D01*
X01472120Y05714329D01*
X01476832Y05718399D01*
X01480843Y05723162D01*
X01484054Y05728498D01*
X01486382Y05734273D01*
X01487772Y05740343D01*
X01488189Y05746063D01*
X01053150Y05706693D02*
X01218504D01*
X01017717D02*
X00771654D01*
X01488189Y05789370D02*
Y06350394D01*
Y06511811D02*
Y06694882D01*
Y06773622D02*
Y06694882D01*
X01375985Y05785370D02*
X01369780Y05784878D01*
X01363730Y05783413D01*
X01357987Y05781012D01*
X01352695Y05777735D01*
X01347986Y05773665D01*
X01343978Y05768903D01*
X01340771Y05763568D01*
X01338446Y05757794D01*
X01337060Y05751725D01*
X01336650Y05745515D01*
X01337224Y05739317D01*
X01338768Y05733287D01*
X01341244Y05727576D01*
X01344590Y05722327D01*
X01348722Y05717672D01*
X01353537Y05713727D01*
X01358913Y05710590D01*
X01364717Y05708341D01*
X01370803Y05707036D01*
X01375985Y05706693D01*
X00732284Y06462599D02*
X00732776Y06456394D01*
X00734241Y06450344D01*
X00736642Y06444601D01*
X00739919Y06439309D01*
X00743989Y06434600D01*
X00748752Y06430592D01*
X00754087Y06427385D01*
X00759861Y06425060D01*
X00765929Y06423674D01*
X00772140Y06423264D01*
X00778338Y06423838D01*
X00784368Y06425382D01*
X00790078Y06427858D01*
X00795327Y06431204D01*
X00799982Y06435336D01*
X00803928Y06440151D01*
X00807064Y06445527D01*
X00809313Y06451331D01*
X00810618Y06457418D01*
X00810961Y06462599D01*
X01409512Y06511811D02*
X01410005Y06505606D01*
X01411470Y06499557D01*
X01413871Y06493814D01*
X01417147Y06488522D01*
X01421218Y06483813D01*
X01425980Y06479804D01*
X01431315Y06476598D01*
X01437089Y06474272D01*
X01443157Y06472887D01*
X01449368Y06472476D01*
X01455566Y06473050D01*
X01461596Y06474595D01*
X01467307Y06477071D01*
X01472556Y06480417D01*
X01477211Y06484549D01*
X01481156Y06489363D01*
X01484292Y06494740D01*
X01486541Y06500544D01*
X01487847Y06506630D01*
X01488189Y06511811D01*
X00771654Y06812993D02*
X00765447Y06812500D01*
X00759394Y06811035D01*
X00753649Y06808634D01*
X00748354Y06805357D01*
X00743642Y06801287D01*
X00739630Y06796524D01*
X00736420Y06791188D01*
X00734091Y06785413D01*
X00732702Y06779343D01*
X00732284Y06773622D01*
X01218504Y05706693D02*
X01224709Y05707186D01*
X01230759Y05708651D01*
X01236502Y05711052D01*
X01241794Y05714328D01*
X01246503Y05718399D01*
X01250511Y05723161D01*
X01253718Y05728496D01*
X01256044Y05734270D01*
X01257429Y05740338D01*
X01257840Y05746549D01*
X01257266Y05752747D01*
X01255721Y05758777D01*
X01253245Y05764488D01*
X01249899Y05769737D01*
X01245767Y05774392D01*
X01240952Y05778337D01*
X01235576Y05781473D01*
X01229772Y05783722D01*
X01223686Y05785028D01*
X01218504Y05785370D01*
X01488189Y06350394D02*
X01487697Y06356599D01*
X01486232Y06362649D01*
X01483831Y06368392D01*
X01480554Y06373684D01*
X01476484Y06378393D01*
X01471722Y06382401D01*
X01466387Y06385608D01*
X01460613Y06387933D01*
X01454544Y06389319D01*
X01448334Y06389729D01*
X01442136Y06389155D01*
X01436106Y06387611D01*
X01430395Y06385135D01*
X01425146Y06381789D01*
X01420491Y06377657D01*
X01416546Y06372842D01*
X01413409Y06367465D01*
X01411160Y06361662D01*
X01409855Y06355575D01*
X01409512Y06350394D01*
X00810961Y06305119D02*
X00810469Y06311324D01*
X00809004Y06317373D01*
X00806603Y06323116D01*
X00803326Y06328408D01*
X00799256Y06333117D01*
X00794493Y06337125D01*
X00789158Y06340332D01*
X00783385Y06342658D01*
X00777316Y06344043D01*
X00771105Y06344454D01*
X00764907Y06343880D01*
X00758877Y06342335D01*
X00753167Y06339859D01*
X00747918Y06336513D01*
X00743263Y06332381D01*
X00739318Y06327566D01*
X00736181Y06322190D01*
X00733932Y06316386D01*
X00732627Y06310300D01*
X00732284Y06305119D01*
Y05746063D01*
X00810961Y05785370D02*
X01009843D01*
X01409512D02*
Y06350394D01*
Y06537847D02*
X01373279Y06698882D01*
X00851208D01*
X00810961Y06537895D01*
Y06462599D01*
X01061024Y05785370D02*
X01218504D01*
X01051182Y05771654D02*
Y05775528D01*
X01027560Y05720473D02*
X01027070Y05723538D01*
X01025651Y05726298D01*
X01024677Y05727432D01*
X01043308Y05720473D02*
X01043798Y05716724D01*
X01045237Y05713227D01*
X01047528Y05710219D01*
X01050515Y05707902D01*
X01053150Y05706693D01*
X01017717D02*
X01021104Y05708373D01*
X01023945Y05710869D01*
X01026048Y05714011D01*
X01027271Y05717589D01*
X01027560Y05720473D01*
X01046190Y05727432D02*
X01061024Y05751969D01*
X01046190Y05727432D02*
X01044369Y05724919D01*
X01043421Y05721964D01*
X01043308Y05720473D01*
X01019686Y05775528D02*
X01019196Y05778593D01*
X01017777Y05781353D01*
X01015568Y05783534D01*
X01012791Y05784919D01*
X01009843Y05785370D01*
X01061024D02*
X01057959Y05784881D01*
X01055199Y05783462D01*
X01053018Y05781253D01*
X01051633Y05778476D01*
X01051182Y05775528D01*
X01019686D02*
Y05771654D01*
X01009843Y05761811D02*
X01012908Y05762301D01*
X01015668Y05763720D01*
X01017849Y05765929D01*
X01019234Y05768706D01*
X01019686Y05771654D01*
X01009843Y05761811D02*
Y05751969D01*
X01024677Y05727432D01*
X01051182Y05771654D02*
X01051671Y05768589D01*
X01053090Y05765829D01*
X01055299Y05763648D01*
X01058076Y05762263D01*
X01061024Y05761811D01*
Y05751969D02*
Y05761811D01*
X01375985Y05785370D02*
X01409512D01*
Y06511811D02*
Y06537847D01*
X00810961Y06305119D02*
Y05785370D01*
X00500000Y08787402D02*
X02334646D01*
Y07129921D01*
X00500000D01*
Y08787402D01*
X01488189Y08431103D02*
X01487697Y08437310D01*
X01486232Y08443363D01*
X01483831Y08449108D01*
X01480554Y08454403D01*
X01476483Y08459115D01*
X01471721Y08463127D01*
X01466385Y08466337D01*
X01460610Y08468666D01*
X01454540Y08470055D01*
X01448819Y08470473D01*
X01488189Y07403544D02*
Y07446851D01*
X00732284Y07403544D02*
X00732776Y07397336D01*
X00734241Y07391284D01*
X00736642Y07385538D01*
X00739919Y07380243D01*
X00743990Y07375531D01*
X00748753Y07371520D01*
X00754088Y07368309D01*
X00759864Y07365981D01*
X00765934Y07364591D01*
X00771654Y07364174D01*
X00732284Y08120079D02*
Y08431103D01*
X01375985Y07364174D02*
X01448819D01*
X00771654Y08470473D02*
X01448819D01*
Y07364174D02*
X01455027Y07364666D01*
X01461079Y07366131D01*
X01466825Y07368532D01*
X01472120Y07371809D01*
X01476832Y07375880D01*
X01480843Y07380642D01*
X01484054Y07385978D01*
X01486382Y07391753D01*
X01487772Y07397823D01*
X01488189Y07403544D01*
X01053150Y07364174D02*
X01218504D01*
X01017717D02*
X00771654D01*
X01488189Y07446851D02*
Y08007874D01*
Y08169292D02*
Y08352363D01*
Y08431103D02*
Y08352363D01*
X01375985Y07442851D02*
X01369780Y07442358D01*
X01363730Y07440893D01*
X01357987Y07438492D01*
X01352695Y07435216D01*
X01347986Y07431145D01*
X01343978Y07426383D01*
X01340771Y07421048D01*
X01338446Y07415274D01*
X01337060Y07409206D01*
X01336650Y07402995D01*
X01337224Y07396797D01*
X01338768Y07390767D01*
X01341244Y07385056D01*
X01344590Y07379808D01*
X01348722Y07375152D01*
X01353537Y07371207D01*
X01358913Y07368071D01*
X01364717Y07365822D01*
X01370803Y07364516D01*
X01375985Y07364174D01*
X00732284Y08120079D02*
X00732776Y08113874D01*
X00734241Y08107825D01*
X00736642Y08102082D01*
X00739919Y08096789D01*
X00743989Y08092080D01*
X00748752Y08088072D01*
X00754087Y08084865D01*
X00759861Y08082540D01*
X00765929Y08081155D01*
X00772140Y08080744D01*
X00778338Y08081318D01*
X00784368Y08082862D01*
X00790078Y08085339D01*
X00795327Y08088685D01*
X00799982Y08092817D01*
X00803928Y08097631D01*
X00807064Y08103008D01*
X00809313Y08108812D01*
X00810618Y08114898D01*
X00810961Y08120079D01*
X01409512Y08169292D02*
X01410005Y08163087D01*
X01411470Y08157037D01*
X01413871Y08151294D01*
X01417147Y08146002D01*
X01421218Y08141293D01*
X01425980Y08137285D01*
X01431315Y08134078D01*
X01437089Y08131753D01*
X01443157Y08130367D01*
X01449368Y08129957D01*
X01455566Y08130531D01*
X01461596Y08132075D01*
X01467307Y08134551D01*
X01472556Y08137897D01*
X01477211Y08142029D01*
X01481156Y08146844D01*
X01484292Y08152220D01*
X01486541Y08158024D01*
X01487847Y08164110D01*
X01488189Y08169292D01*
X00771654Y08470473D02*
X00765447Y08469980D01*
X00759394Y08468515D01*
X00753649Y08466114D01*
X00748354Y08462838D01*
X00743642Y08458767D01*
X00739630Y08454004D01*
X00736420Y08448668D01*
X00734091Y08442893D01*
X00732702Y08436823D01*
X00732284Y08431103D01*
X01218504Y07364174D02*
X01224709Y07364666D01*
X01230759Y07366131D01*
X01236502Y07368532D01*
X01241794Y07371809D01*
X01246503Y07375879D01*
X01250511Y07380641D01*
X01253718Y07385976D01*
X01256044Y07391750D01*
X01257429Y07397819D01*
X01257840Y07404030D01*
X01257266Y07410227D01*
X01255721Y07416257D01*
X01253245Y07421968D01*
X01249899Y07427217D01*
X01245767Y07431872D01*
X01240952Y07435817D01*
X01235576Y07438954D01*
X01229772Y07441203D01*
X01223686Y07442508D01*
X01218504Y07442851D01*
X01488189Y08007874D02*
X01487697Y08014079D01*
X01486232Y08020129D01*
X01483831Y08025872D01*
X01480554Y08031164D01*
X01476484Y08035873D01*
X01471722Y08039881D01*
X01466387Y08043088D01*
X01460613Y08045413D01*
X01454544Y08046799D01*
X01448334Y08047210D01*
X01442136Y08046636D01*
X01436106Y08045091D01*
X01430395Y08042615D01*
X01425146Y08039269D01*
X01420491Y08035137D01*
X01416546Y08030322D01*
X01413409Y08024946D01*
X01411160Y08019142D01*
X01409855Y08013056D01*
X01409512Y08007874D01*
X00810961Y07962599D02*
X00810469Y07968804D01*
X00809004Y07974853D01*
X00806603Y07980596D01*
X00803326Y07985889D01*
X00799256Y07990598D01*
X00794493Y07994606D01*
X00789158Y07997813D01*
X00783385Y08000138D01*
X00777316Y08001523D01*
X00771105Y08001934D01*
X00764907Y08001360D01*
X00758877Y07999816D01*
X00753167Y07997339D01*
X00747918Y07993993D01*
X00743263Y07989861D01*
X00739318Y07985047D01*
X00736181Y07979670D01*
X00733932Y07973866D01*
X00732627Y07967780D01*
X00732284Y07962599D01*
Y07403544D01*
X00810961Y07442851D02*
X01009843D01*
X01409512D02*
Y08007875D01*
Y08195327D02*
X01373279Y08356363D01*
X00851208D01*
X00810961Y08195375D01*
Y08120079D01*
X01061024Y07442851D02*
X01218504D01*
X01051182Y07429134D02*
Y07433008D01*
X01027560Y07377953D02*
X01027070Y07381018D01*
X01025651Y07383778D01*
X01024677Y07384913D01*
X01043308Y07377953D02*
X01043798Y07374204D01*
X01045237Y07370708D01*
X01047528Y07367699D01*
X01050515Y07365382D01*
X01053150Y07364174D01*
X01017717D02*
X01021104Y07365854D01*
X01023945Y07368349D01*
X01026048Y07371491D01*
X01027271Y07375069D01*
X01027560Y07377953D01*
X01046190Y07384913D02*
X01061024Y07409449D01*
X01046190Y07384913D02*
X01044369Y07382400D01*
X01043421Y07379444D01*
X01043308Y07377953D01*
X01019686Y07433008D02*
X01019196Y07436073D01*
X01017777Y07438833D01*
X01015568Y07441014D01*
X01012791Y07442399D01*
X01009843Y07442851D01*
X01061024D02*
X01057959Y07442361D01*
X01055199Y07440942D01*
X01053018Y07438734D01*
X01051633Y07435956D01*
X01051182Y07433008D01*
X01019686D02*
Y07429134D01*
X01009843Y07419292D02*
X01012908Y07419781D01*
X01015668Y07421201D01*
X01017849Y07423409D01*
X01019234Y07426187D01*
X01019686Y07429134D01*
X01009843Y07419292D02*
Y07409449D01*
X01024677Y07384913D01*
X01051182Y07429134D02*
X01051671Y07426069D01*
X01053090Y07423309D01*
X01055299Y07421128D01*
X01058076Y07419744D01*
X01061024Y07419292D01*
Y07409449D02*
Y07419292D01*
X01375985Y07442851D02*
X01409512D01*
Y08169292D02*
Y08195327D01*
X00810961Y07962599D02*
Y07442851D01*
X00000000Y09287402D02*
X02834646D01*
Y00000000D01*
X00000000D01*
Y09287402D01*
X02334646D02*
Y00000000D01*
X00500000Y09287402D02*
Y00000000D01*
X02834646Y02157481D02*
X00000000D01*
Y00500000D02*
X02834646D01*
Y03814961D02*
X00000000D01*
X02834646Y05472441D02*
X00000000D01*
X02834646Y07129922D02*
X00000000D01*
Y08787402D02*
X02834646D01*
X05460624Y02074803D02*
Y00500000D01*
X03452750D01*
Y02074803D01*
X05460624D01*
X05078200Y01096319D02*
X05074934Y01090380D01*
X05072563Y01084030D01*
X05071138Y01077404D01*
X05070689Y01070641D01*
X05071225Y01063884D01*
X05072735Y01057277D01*
X05075187Y01050958D01*
X05078529Y01045061D01*
X05082691Y01039712D01*
X05087584Y01035022D01*
X05093105Y01031091D01*
X05099138Y01028001D01*
X05105555Y01025820D01*
X05112221Y01024591D01*
X05118994Y01024342D01*
X05125732Y01025078D01*
X05132292Y01026782D01*
X05138536Y01029420D01*
X05144331Y01032935D01*
X05149555Y01037253D01*
X05154099Y01042282D01*
X05157475Y01047244D01*
X05168040Y01066043D01*
X05177734Y01085306D01*
X05186537Y01104993D01*
X05194430Y01125061D01*
X05201397Y01145469D01*
X05207423Y01166175D01*
X05212495Y01187135D01*
X05216603Y01208305D01*
X05219738Y01229640D01*
X05221894Y01251097D01*
X05223067Y01272630D01*
X05223252Y01294194D01*
X05222452Y01315744D01*
X05220666Y01337235D01*
X05217899Y01358621D01*
X05214156Y01379859D01*
X05209446Y01400903D01*
X05203778Y01421709D01*
X05197164Y01442235D01*
X05189618Y01462436D01*
X05181156Y01482271D01*
X05171795Y01501699D01*
X05161555Y01520677D01*
X05150458Y01539168D01*
X05138526Y01557131D01*
X05125786Y01574530D01*
X05112262Y01591327D01*
X05097985Y01607488D01*
X05082983Y01622980D01*
X05067288Y01637768D01*
X05050932Y01651824D01*
X05033951Y01665116D01*
X05016380Y01677618D01*
X04998255Y01689302D01*
X04979615Y01700145D01*
X04960498Y01710125D01*
X04940945Y01719219D01*
X04920996Y01727409D01*
X04900693Y01734678D01*
X04880079Y01741010D01*
X04859197Y01746393D01*
X04838090Y01750815D01*
X04816803Y01754267D01*
X04795381Y01756741D01*
X04773868Y01758233D01*
X04752309Y01758739D01*
X04730750Y01758258D01*
X04709235Y01756791D01*
X04687809Y01754342D01*
X04666519Y01750915D01*
X04645407Y01746518D01*
X04624519Y01741159D01*
X04603897Y01734851D01*
X04583586Y01727606D01*
X04563627Y01719439D01*
X04544063Y01710367D01*
X04524935Y01700411D01*
X04511806Y01692913D01*
X04425726Y01478484D02*
X04428992Y01484423D01*
X04431363Y01490773D01*
X04432787Y01497399D01*
X04433236Y01504162D01*
X04432700Y01510919D01*
X04431190Y01517526D01*
X04428738Y01523845D01*
X04425396Y01529742D01*
X04421234Y01535091D01*
X04416341Y01539781D01*
X04410819Y01543712D01*
X04404786Y01546801D01*
X04398369Y01548983D01*
X04391703Y01550211D01*
X04384930Y01550460D01*
X04378192Y01549724D01*
X04371632Y01548019D01*
X04365389Y01545382D01*
X04359594Y01541867D01*
X04354369Y01537549D01*
X04349826Y01532519D01*
X04346451Y01527559D01*
X04335896Y01508773D01*
X04326211Y01489523D01*
X04317418Y01469850D01*
X04309535Y01449795D01*
X04302578Y01429401D01*
X04296562Y01408709D01*
X04291500Y01387763D01*
X04287402Y01366608D01*
X04284277Y01345287D01*
X04282131Y01323846D01*
X04280969Y01302328D01*
X04280794Y01280781D01*
X04281605Y01259247D01*
X04283401Y01237774D01*
X04286178Y01216405D01*
X04289931Y01195185D01*
X04294651Y01174160D01*
X04300329Y01153373D01*
X04306953Y01132868D01*
X04314508Y01112687D01*
X04322980Y01092874D01*
X04332349Y01073469D01*
X04342597Y01054513D01*
X04353703Y01036046D01*
X04365642Y01018107D01*
X04378389Y01000734D01*
X04391919Y00983962D01*
X04406203Y00967828D01*
X04421210Y00952364D01*
X04436909Y00937604D01*
X04453268Y00923577D01*
X04470251Y00910315D01*
X04487824Y00897843D01*
X04505950Y00886190D01*
X04524590Y00875378D01*
X04543705Y00865431D01*
X04563256Y00856370D01*
X04583201Y00848213D01*
X04603499Y00840978D01*
X04624107Y00834680D01*
X04644981Y00829332D01*
X04666078Y00824945D01*
X04687354Y00821529D01*
X04708764Y00819090D01*
X04730264Y00817634D01*
X04751807Y00817164D01*
X04773350Y00817680D01*
X04794846Y00819182D01*
X04816251Y00821667D01*
X04837519Y00825129D01*
X04858607Y00829562D01*
X04879470Y00834955D01*
X04900064Y00841297D01*
X04920346Y00848576D01*
X04940274Y00856775D01*
X04959805Y00865879D01*
X04978899Y00875867D01*
X04996057Y00885827D01*
X04511806Y01692913D02*
X04506331Y01688918D01*
X04501494Y01684172D01*
X04497396Y01678774D01*
X04494123Y01672839D01*
X04491746Y01666493D01*
X04490315Y01659869D01*
X04489858Y01653107D01*
X04490387Y01646351D01*
X04491890Y01639742D01*
X04494336Y01633422D01*
X04497671Y01627522D01*
X04501827Y01622169D01*
X04506716Y01617475D01*
X04512233Y01613539D01*
X04518262Y01610445D01*
X04524677Y01608258D01*
X04531340Y01607023D01*
X04538113Y01606769D01*
X04544850Y01607498D01*
X04551411Y01609197D01*
X04557656Y01611829D01*
X04560881Y01613638D01*
X04996057Y00885827D02*
X05001009Y00890403D01*
X05005240Y00895652D01*
X05008661Y00901462D01*
X05011199Y00907708D01*
X05012800Y00914258D01*
X05013429Y00920971D01*
X05013073Y00927703D01*
X05011739Y00934312D01*
X05009457Y00940657D01*
X05006274Y00946600D01*
X05002260Y00952017D01*
X04997498Y00956791D01*
X04992092Y00960819D01*
X04986157Y00964017D01*
X04979818Y00966316D01*
X04973213Y00967667D01*
X04966481Y00968040D01*
X04959767Y00967429D01*
X04953213Y00965845D01*
X04946960Y00963323D01*
X04943241Y00961279D01*
X04427657Y01481743D02*
X04418155Y01464927D01*
X04409525Y01447648D01*
X04401788Y01429950D01*
X04394965Y01411880D01*
X04389073Y01393486D01*
X04384129Y01374814D01*
X04380145Y01355915D01*
X04377131Y01336836D01*
X04375095Y01317629D01*
X04374044Y01298343D01*
X04373978Y01279028D01*
X04374899Y01259735D01*
X04376804Y01240514D01*
X04379688Y01221416D01*
X04383544Y01202490D01*
X04388361Y01183785D01*
X04394127Y01165351D01*
X04400827Y01147235D01*
X04408444Y01129486D01*
X04416957Y01112148D01*
X04426344Y01095268D01*
X04436582Y01078889D01*
X04447642Y01063054D01*
X04459497Y01047805D01*
X04472115Y01033182D01*
X04485463Y01019221D01*
X04499507Y01005961D01*
X04514210Y00993435D01*
X04529533Y00981677D01*
X04545437Y00970716D01*
X04561880Y00960582D01*
X04578818Y00951301D01*
X04596209Y00942897D01*
X04614006Y00935392D01*
X04632164Y00928806D01*
X04650634Y00923155D01*
X04669368Y00918456D01*
X04688318Y00914719D01*
X04707435Y00911955D01*
X04726667Y00910171D01*
X04745965Y00909371D01*
X04765279Y00909558D01*
X04784559Y00910731D01*
X04803753Y00912888D01*
X04822812Y00916021D01*
X04841686Y00920124D01*
X04860326Y00925186D01*
X04878683Y00931192D01*
X04896709Y00938129D01*
X04914358Y00945977D01*
X04931583Y00954716D01*
X04944516Y00962031D01*
X05076268Y01093059D02*
X05085770Y01109875D01*
X05094401Y01127154D01*
X05102138Y01144852D01*
X05108961Y01162922D01*
X05114852Y01181316D01*
X05119797Y01199988D01*
X05123781Y01218887D01*
X05126795Y01237965D01*
X05128830Y01257173D01*
X05129882Y01276459D01*
X05129948Y01295774D01*
X05129027Y01315067D01*
X05127122Y01334288D01*
X05124238Y01353386D01*
X05120383Y01372312D01*
X05115565Y01391017D01*
X05109799Y01409451D01*
X05103099Y01427567D01*
X05095483Y01445316D01*
X05086970Y01462654D01*
X05077582Y01479534D01*
X05067345Y01495913D01*
X05056285Y01511748D01*
X05044430Y01526997D01*
X05031812Y01541621D01*
X05018464Y01555581D01*
X05004420Y01568841D01*
X04989717Y01581367D01*
X04974394Y01593126D01*
X04958490Y01604086D01*
X04942047Y01614221D01*
X04925109Y01623502D01*
X04907718Y01631906D01*
X04889921Y01639411D01*
X04871763Y01645997D01*
X04853293Y01651647D01*
X04834559Y01656347D01*
X04815609Y01660084D01*
X04796493Y01662848D01*
X04777260Y01664632D01*
X04757962Y01665432D01*
X04738648Y01665245D01*
X04719369Y01664072D01*
X04700174Y01661916D01*
X04681115Y01658782D01*
X04662241Y01654679D01*
X04643601Y01649618D01*
X04625244Y01643611D01*
X04607218Y01636674D01*
X04589569Y01628826D01*
X04572344Y01620087D01*
X04559373Y01612751D01*
X05460624Y03649606D02*
Y02074803D01*
X03452750D01*
Y03649606D01*
X05460624D01*
X05078200Y02671122D02*
X05074934Y02665183D01*
X05072563Y02658833D01*
X05071138Y02652207D01*
X05070689Y02645444D01*
X05071225Y02638687D01*
X05072735Y02632080D01*
X05075187Y02625761D01*
X05078529Y02619864D01*
X05082691Y02614515D01*
X05087584Y02609825D01*
X05093105Y02605894D01*
X05099138Y02602805D01*
X05105555Y02600623D01*
X05112221Y02599394D01*
X05118994Y02599145D01*
X05125732Y02599881D01*
X05132292Y02601586D01*
X05138536Y02604223D01*
X05144331Y02607738D01*
X05149555Y02612056D01*
X05154099Y02617086D01*
X05157475Y02622047D01*
X05168040Y02640846D01*
X05177734Y02660109D01*
X05186537Y02679796D01*
X05194430Y02699864D01*
X05201397Y02720273D01*
X05207423Y02740978D01*
X05212495Y02761938D01*
X05216603Y02783108D01*
X05219738Y02804444D01*
X05221894Y02825900D01*
X05223067Y02847433D01*
X05223252Y02868997D01*
X05222452Y02890547D01*
X05220666Y02912038D01*
X05217899Y02933424D01*
X05214156Y02954662D01*
X05209446Y02975706D01*
X05203778Y02996513D01*
X05197164Y03017038D01*
X05189618Y03037240D01*
X05181156Y03057075D01*
X05171795Y03076502D01*
X05161555Y03095480D01*
X05150458Y03113971D01*
X05138526Y03131934D01*
X05125786Y03149333D01*
X05112262Y03166130D01*
X05097985Y03182292D01*
X05082983Y03197783D01*
X05067288Y03212572D01*
X05050932Y03226627D01*
X05033951Y03239919D01*
X05016380Y03252421D01*
X04998255Y03264105D01*
X04979615Y03274949D01*
X04960498Y03284928D01*
X04940945Y03294022D01*
X04920996Y03302212D01*
X04900693Y03309481D01*
X04880079Y03315813D01*
X04859197Y03321196D01*
X04838090Y03325618D01*
X04816803Y03329070D01*
X04795381Y03331544D01*
X04773868Y03333036D01*
X04752309Y03333542D01*
X04730750Y03333061D01*
X04709235Y03331594D01*
X04687809Y03329145D01*
X04666519Y03325718D01*
X04645407Y03321321D01*
X04624519Y03315963D01*
X04603897Y03309654D01*
X04583586Y03302409D01*
X04563627Y03294242D01*
X04544063Y03285171D01*
X04524935Y03275214D01*
X04511806Y03267716D01*
X04425726Y03053287D02*
X04428992Y03059226D01*
X04431363Y03065576D01*
X04432787Y03072202D01*
X04433236Y03078965D01*
X04432700Y03085722D01*
X04431190Y03092330D01*
X04428738Y03098648D01*
X04425396Y03104545D01*
X04421234Y03109894D01*
X04416341Y03114584D01*
X04410819Y03118515D01*
X04404786Y03121604D01*
X04398369Y03123786D01*
X04391703Y03125014D01*
X04384930Y03125263D01*
X04378192Y03124527D01*
X04371632Y03122823D01*
X04365389Y03120185D01*
X04359594Y03116670D01*
X04354369Y03112352D01*
X04349826Y03107322D01*
X04346451Y03102362D01*
X04335896Y03083576D01*
X04326211Y03064326D01*
X04317418Y03044653D01*
X04309535Y03024598D01*
X04302578Y03004204D01*
X04296562Y02983512D01*
X04291500Y02962566D01*
X04287402Y02941411D01*
X04284277Y02920090D01*
X04282131Y02898649D01*
X04280969Y02877131D01*
X04280794Y02855584D01*
X04281605Y02834050D01*
X04283401Y02812577D01*
X04286178Y02791208D01*
X04289931Y02769989D01*
X04294651Y02748963D01*
X04300329Y02728176D01*
X04306953Y02707671D01*
X04314508Y02687490D01*
X04322980Y02667677D01*
X04332349Y02648272D01*
X04342597Y02629316D01*
X04353703Y02610849D01*
X04365642Y02592911D01*
X04378389Y02575537D01*
X04391919Y02558766D01*
X04406203Y02542631D01*
X04421210Y02527167D01*
X04436909Y02512407D01*
X04453268Y02498380D01*
X04470251Y02485118D01*
X04487824Y02472647D01*
X04505950Y02460993D01*
X04524590Y02450181D01*
X04543705Y02440235D01*
X04563256Y02431173D01*
X04583201Y02423017D01*
X04603499Y02415781D01*
X04624107Y02409483D01*
X04644981Y02404135D01*
X04666078Y02399748D01*
X04687354Y02396332D01*
X04708764Y02393893D01*
X04730264Y02392437D01*
X04751807Y02391967D01*
X04773350Y02392483D01*
X04794846Y02393986D01*
X04816251Y02396470D01*
X04837519Y02399933D01*
X04858607Y02404365D01*
X04879470Y02409758D01*
X04900064Y02416100D01*
X04920346Y02423379D01*
X04940274Y02431579D01*
X04959805Y02440682D01*
X04978899Y02450670D01*
X04996057Y02460630D01*
X04511806Y03267716D02*
X04506331Y03263721D01*
X04501494Y03258975D01*
X04497396Y03253577D01*
X04494123Y03247643D01*
X04491746Y03241296D01*
X04490315Y03234672D01*
X04489858Y03227910D01*
X04490387Y03221154D01*
X04491890Y03214545D01*
X04494336Y03208225D01*
X04497671Y03202325D01*
X04501827Y03196972D01*
X04506716Y03192278D01*
X04512233Y03188342D01*
X04518262Y03185248D01*
X04524677Y03183061D01*
X04531340Y03181827D01*
X04538113Y03181572D01*
X04544850Y03182301D01*
X04551411Y03184000D01*
X04557656Y03186632D01*
X04560881Y03188441D01*
X04996057Y02460630D02*
X05001009Y02465206D01*
X05005240Y02470455D01*
X05008661Y02476265D01*
X05011199Y02482511D01*
X05012800Y02489061D01*
X05013429Y02495774D01*
X05013073Y02502506D01*
X05011739Y02509116D01*
X05009457Y02515460D01*
X05006274Y02521404D01*
X05002260Y02526820D01*
X04997498Y02531594D01*
X04992092Y02535623D01*
X04986157Y02538820D01*
X04979818Y02541119D01*
X04973213Y02542470D01*
X04966481Y02542843D01*
X04959767Y02542232D01*
X04953213Y02540648D01*
X04946960Y02538126D01*
X04943241Y02536082D01*
X04427657Y03056546D02*
X04418155Y03039730D01*
X04409525Y03022451D01*
X04401788Y03004753D01*
X04394965Y02986683D01*
X04389073Y02968289D01*
X04384129Y02949618D01*
X04380145Y02930718D01*
X04377131Y02911640D01*
X04375095Y02892432D01*
X04374044Y02873146D01*
X04373978Y02853831D01*
X04374899Y02834538D01*
X04376804Y02815317D01*
X04379688Y02796219D01*
X04383544Y02777293D01*
X04388361Y02758588D01*
X04394127Y02740154D01*
X04400827Y02722039D01*
X04408444Y02704289D01*
X04416957Y02686951D01*
X04426344Y02670071D01*
X04436582Y02653692D01*
X04447642Y02637857D01*
X04459497Y02622608D01*
X04472115Y02607985D01*
X04485463Y02594024D01*
X04499507Y02580764D01*
X04514210Y02568238D01*
X04529533Y02556480D01*
X04545437Y02545519D01*
X04561880Y02535385D01*
X04578818Y02526104D01*
X04596209Y02517700D01*
X04614006Y02510195D01*
X04632164Y02503609D01*
X04650634Y02497958D01*
X04669368Y02493259D01*
X04688318Y02489522D01*
X04707435Y02486758D01*
X04726667Y02484974D01*
X04745965Y02484174D01*
X04765279Y02484361D01*
X04784559Y02485535D01*
X04803753Y02487691D01*
X04822812Y02490824D01*
X04841686Y02494927D01*
X04860326Y02499989D01*
X04878683Y02505996D01*
X04896709Y02512932D01*
X04914358Y02520780D01*
X04931583Y02529519D01*
X04944516Y02536834D01*
X05076268Y02667862D02*
X05085770Y02684678D01*
X05094401Y02701957D01*
X05102138Y02719655D01*
X05108961Y02737725D01*
X05114852Y02756119D01*
X05119797Y02774791D01*
X05123781Y02793690D01*
X05126795Y02812769D01*
X05128830Y02831976D01*
X05129882Y02851262D01*
X05129948Y02870577D01*
X05129027Y02889870D01*
X05127122Y02909091D01*
X05124238Y02928189D01*
X05120383Y02947115D01*
X05115565Y02965820D01*
X05109799Y02984254D01*
X05103099Y03002370D01*
X05095483Y03020119D01*
X05086970Y03037457D01*
X05077582Y03054337D01*
X05067345Y03070716D01*
X05056285Y03086551D01*
X05044430Y03101800D01*
X05031812Y03116424D01*
X05018464Y03130384D01*
X05004420Y03143644D01*
X04989717Y03156170D01*
X04974394Y03167929D01*
X04958490Y03178890D01*
X04942047Y03189024D01*
X04925109Y03198305D01*
X04907718Y03206709D01*
X04889921Y03214214D01*
X04871763Y03220800D01*
X04853293Y03226450D01*
X04834559Y03231150D01*
X04815609Y03234887D01*
X04796493Y03237651D01*
X04777260Y03239435D01*
X04757962Y03240235D01*
X04738648Y03240048D01*
X04719369Y03238875D01*
X04700174Y03236719D01*
X04681115Y03233585D01*
X04662241Y03229482D01*
X04643601Y03224421D01*
X04625244Y03218414D01*
X04607218Y03211478D01*
X04589569Y03203630D01*
X04572344Y03194890D01*
X04559373Y03187554D01*
X05460624Y05224409D02*
Y03649606D01*
X03452750D01*
Y05224409D01*
X05460624D01*
X05078200Y04245925D02*
X05074934Y04239986D01*
X05072563Y04233637D01*
X05071138Y04227010D01*
X05070689Y04220247D01*
X05071225Y04213491D01*
X05072735Y04206883D01*
X05075187Y04200564D01*
X05078529Y04194668D01*
X05082691Y04189318D01*
X05087584Y04184628D01*
X05093105Y04180697D01*
X05099138Y04177608D01*
X05105555Y04175426D01*
X05112221Y04174198D01*
X05118994Y04173949D01*
X05125732Y04174684D01*
X05132292Y04176389D01*
X05138536Y04179026D01*
X05144331Y04182541D01*
X05149555Y04186859D01*
X05154099Y04191889D01*
X05157475Y04196850D01*
X05168040Y04215650D01*
X05177734Y04234913D01*
X05186537Y04254599D01*
X05194430Y04274667D01*
X05201397Y04295076D01*
X05207423Y04315781D01*
X05212495Y04336741D01*
X05216603Y04357911D01*
X05219738Y04379247D01*
X05221894Y04400704D01*
X05223067Y04422236D01*
X05223252Y04443800D01*
X05222452Y04465350D01*
X05220666Y04486841D01*
X05217899Y04508228D01*
X05214156Y04529465D01*
X05209446Y04550509D01*
X05203778Y04571316D01*
X05197164Y04591841D01*
X05189618Y04612043D01*
X05181156Y04631878D01*
X05171795Y04651305D01*
X05161555Y04670284D01*
X05150458Y04688774D01*
X05138526Y04706737D01*
X05125786Y04724136D01*
X05112262Y04740933D01*
X05097985Y04757095D01*
X05082983Y04772586D01*
X05067288Y04787375D01*
X05050932Y04801430D01*
X05033951Y04814722D01*
X05016380Y04827224D01*
X04998255Y04838908D01*
X04979615Y04849752D01*
X04960498Y04859731D01*
X04940945Y04868825D01*
X04920996Y04877015D01*
X04900693Y04884284D01*
X04880079Y04890617D01*
X04859197Y04896000D01*
X04838090Y04900421D01*
X04816803Y04903873D01*
X04795381Y04906347D01*
X04773868Y04907839D01*
X04752309Y04908345D01*
X04730750Y04907864D01*
X04709235Y04906398D01*
X04687809Y04903948D01*
X04666519Y04900521D01*
X04645407Y04896124D01*
X04624519Y04890766D01*
X04603897Y04884457D01*
X04583586Y04877212D01*
X04563627Y04869045D01*
X04544063Y04859974D01*
X04524935Y04850017D01*
X04511806Y04842520D01*
X04425726Y04628090D02*
X04428992Y04634029D01*
X04431363Y04640379D01*
X04432787Y04647006D01*
X04433236Y04653769D01*
X04432700Y04660525D01*
X04431190Y04667133D01*
X04428738Y04673451D01*
X04425396Y04679348D01*
X04421234Y04684698D01*
X04416341Y04689388D01*
X04410819Y04693318D01*
X04404786Y04696407D01*
X04398369Y04698589D01*
X04391703Y04699817D01*
X04384930Y04700066D01*
X04378192Y04699331D01*
X04371632Y04697626D01*
X04365389Y04694988D01*
X04359594Y04691473D01*
X04354369Y04687155D01*
X04349826Y04682125D01*
X04346451Y04677165D01*
X04335896Y04658379D01*
X04326211Y04639129D01*
X04317418Y04619456D01*
X04309535Y04599402D01*
X04302578Y04579007D01*
X04296562Y04558315D01*
X04291500Y04537369D01*
X04287402Y04516214D01*
X04284277Y04494893D01*
X04282131Y04473452D01*
X04280969Y04451935D01*
X04280794Y04430387D01*
X04281605Y04408853D01*
X04283401Y04387380D01*
X04286178Y04366011D01*
X04289931Y04344792D01*
X04294651Y04323766D01*
X04300329Y04302979D01*
X04306953Y04282474D01*
X04314508Y04262293D01*
X04322980Y04242480D01*
X04332349Y04223075D01*
X04342597Y04204119D01*
X04353703Y04185653D01*
X04365642Y04167714D01*
X04378389Y04150340D01*
X04391919Y04133569D01*
X04406203Y04117434D01*
X04421210Y04101970D01*
X04436909Y04087210D01*
X04453268Y04073184D01*
X04470251Y04059921D01*
X04487824Y04047450D01*
X04505950Y04035796D01*
X04524590Y04024985D01*
X04543705Y04015038D01*
X04563256Y04005976D01*
X04583201Y03997820D01*
X04603499Y03990585D01*
X04624107Y03984286D01*
X04644981Y03978938D01*
X04666078Y03974551D01*
X04687354Y03971135D01*
X04708764Y03968696D01*
X04730264Y03967240D01*
X04751807Y03966770D01*
X04773350Y03967287D01*
X04794846Y03968789D01*
X04816251Y03971274D01*
X04837519Y03974736D01*
X04858607Y03979168D01*
X04879470Y03984561D01*
X04900064Y03990903D01*
X04920346Y03998182D01*
X04940274Y04006382D01*
X04959805Y04015485D01*
X04978899Y04025473D01*
X04996057Y04035433D01*
X04511806Y04842520D02*
X04506331Y04838525D01*
X04501494Y04833778D01*
X04497396Y04828381D01*
X04494123Y04822446D01*
X04491746Y04816099D01*
X04490315Y04809475D01*
X04489858Y04802713D01*
X04490387Y04795957D01*
X04491890Y04789349D01*
X04494336Y04783028D01*
X04497671Y04777129D01*
X04501827Y04771775D01*
X04506716Y04767081D01*
X04512233Y04763146D01*
X04518262Y04760051D01*
X04524677Y04757864D01*
X04531340Y04756630D01*
X04538113Y04756375D01*
X04544850Y04757104D01*
X04551411Y04758803D01*
X04557656Y04761435D01*
X04560881Y04763244D01*
X04996057Y04035433D02*
X05001009Y04040009D01*
X05005240Y04045259D01*
X05008661Y04051068D01*
X05011199Y04057315D01*
X05012800Y04063864D01*
X05013429Y04070577D01*
X05013073Y04077310D01*
X05011739Y04083919D01*
X05009457Y04090263D01*
X05006274Y04096207D01*
X05002260Y04101623D01*
X04997498Y04106397D01*
X04992092Y04110426D01*
X04986157Y04113624D01*
X04979818Y04115922D01*
X04973213Y04117273D01*
X04966481Y04117646D01*
X04959767Y04117035D01*
X04953213Y04115451D01*
X04946960Y04112930D01*
X04943241Y04110886D01*
X04427657Y04631349D02*
X04418155Y04614533D01*
X04409525Y04597254D01*
X04401788Y04579556D01*
X04394965Y04561487D01*
X04389073Y04543092D01*
X04384129Y04524421D01*
X04380145Y04505521D01*
X04377131Y04486443D01*
X04375095Y04467235D01*
X04374044Y04447949D01*
X04373978Y04428634D01*
X04374899Y04409341D01*
X04376804Y04390121D01*
X04379688Y04371022D01*
X04383544Y04352096D01*
X04388361Y04333391D01*
X04394127Y04314957D01*
X04400827Y04296842D01*
X04408444Y04279092D01*
X04416957Y04261754D01*
X04426344Y04244874D01*
X04436582Y04228495D01*
X04447642Y04212661D01*
X04459497Y04197412D01*
X04472115Y04182788D01*
X04485463Y04168828D01*
X04499507Y04155567D01*
X04514210Y04143041D01*
X04529533Y04131283D01*
X04545437Y04120322D01*
X04561880Y04110188D01*
X04578818Y04100907D01*
X04596209Y04092503D01*
X04614006Y04084998D01*
X04632164Y04078412D01*
X04650634Y04072762D01*
X04669368Y04068062D01*
X04688318Y04064325D01*
X04707435Y04061561D01*
X04726667Y04059777D01*
X04745965Y04058978D01*
X04765279Y04059165D01*
X04784559Y04060338D01*
X04803753Y04062494D01*
X04822812Y04065628D01*
X04841686Y04069730D01*
X04860326Y04074792D01*
X04878683Y04080799D01*
X04896709Y04087735D01*
X04914358Y04095583D01*
X04931583Y04104322D01*
X04944516Y04111637D01*
X05076268Y04242665D02*
X05085770Y04259481D01*
X05094401Y04276761D01*
X05102138Y04294458D01*
X05108961Y04312528D01*
X05114852Y04330922D01*
X05119797Y04349594D01*
X05123781Y04368493D01*
X05126795Y04387572D01*
X05128830Y04406779D01*
X05129882Y04426065D01*
X05129948Y04445380D01*
X05129027Y04464673D01*
X05127122Y04483894D01*
X05124238Y04502992D01*
X05120383Y04521918D01*
X05115565Y04540623D01*
X05109799Y04559057D01*
X05103099Y04577173D01*
X05095483Y04594923D01*
X05086970Y04612260D01*
X05077582Y04629141D01*
X05067345Y04645519D01*
X05056285Y04661354D01*
X05044430Y04676603D01*
X05031812Y04691227D01*
X05018464Y04705187D01*
X05004420Y04718448D01*
X04989717Y04730973D01*
X04974394Y04742732D01*
X04958490Y04753693D01*
X04942047Y04763827D01*
X04925109Y04773108D01*
X04907718Y04781512D01*
X04889921Y04789017D01*
X04871763Y04795603D01*
X04853293Y04801254D01*
X04834559Y04805953D01*
X04815609Y04809690D01*
X04796493Y04812454D01*
X04777260Y04814238D01*
X04757962Y04815038D01*
X04738648Y04814851D01*
X04719369Y04813678D01*
X04700174Y04811522D01*
X04681115Y04808388D01*
X04662241Y04804285D01*
X04643601Y04799224D01*
X04625244Y04793217D01*
X04607218Y04786281D01*
X04589569Y04778433D01*
X04572344Y04769694D01*
X04559373Y04762357D01*
X05460624Y06799212D02*
Y05224409D01*
X03452750D01*
Y06799212D01*
X05460624D01*
X05078200Y05820729D02*
X05074934Y05814789D01*
X05072563Y05808440D01*
X05071138Y05801813D01*
X05070689Y05795050D01*
X05071225Y05788294D01*
X05072735Y05781686D01*
X05075187Y05775367D01*
X05078529Y05769471D01*
X05082691Y05764121D01*
X05087584Y05759431D01*
X05093105Y05755500D01*
X05099138Y05752411D01*
X05105555Y05750229D01*
X05112221Y05749001D01*
X05118994Y05748752D01*
X05125732Y05749487D01*
X05132292Y05751192D01*
X05138536Y05753829D01*
X05144331Y05757344D01*
X05149555Y05761662D01*
X05154099Y05766692D01*
X05157475Y05771653D01*
X05168040Y05790453D01*
X05177734Y05809716D01*
X05186537Y05829402D01*
X05194430Y05849470D01*
X05201397Y05869879D01*
X05207423Y05890585D01*
X05212495Y05911544D01*
X05216603Y05932714D01*
X05219738Y05954050D01*
X05221894Y05975507D01*
X05223067Y05997040D01*
X05223252Y06018604D01*
X05222452Y06040153D01*
X05220666Y06061644D01*
X05217899Y06083031D01*
X05214156Y06104268D01*
X05209446Y06125312D01*
X05203778Y06146119D01*
X05197164Y06166644D01*
X05189618Y06186846D01*
X05181156Y06206681D01*
X05171795Y06226108D01*
X05161555Y06245087D01*
X05150458Y06263577D01*
X05138526Y06281540D01*
X05125786Y06298939D01*
X05112262Y06315737D01*
X05097985Y06331898D01*
X05082983Y06347389D01*
X05067288Y06362178D01*
X05050932Y06376233D01*
X05033951Y06389525D01*
X05016380Y06402027D01*
X04998255Y06413712D01*
X04979615Y06424555D01*
X04960498Y06434534D01*
X04940945Y06443628D01*
X04920996Y06451818D01*
X04900693Y06459087D01*
X04880079Y06465420D01*
X04859197Y06470803D01*
X04838090Y06475225D01*
X04816803Y06478676D01*
X04795381Y06481151D01*
X04773868Y06482642D01*
X04752309Y06483148D01*
X04730750Y06482667D01*
X04709235Y06481201D01*
X04687809Y06478751D01*
X04666519Y06475325D01*
X04645407Y06470927D01*
X04624519Y06465569D01*
X04603897Y06459260D01*
X04583586Y06452015D01*
X04563627Y06443848D01*
X04544063Y06434777D01*
X04524935Y06424820D01*
X04511806Y06417323D01*
X04425726Y06202893D02*
X04428992Y06208832D01*
X04431363Y06215182D01*
X04432787Y06221809D01*
X04433236Y06228572D01*
X04432700Y06235328D01*
X04431190Y06241936D01*
X04428738Y06248255D01*
X04425396Y06254151D01*
X04421234Y06259501D01*
X04416341Y06264191D01*
X04410819Y06268122D01*
X04404786Y06271210D01*
X04398369Y06273392D01*
X04391703Y06274620D01*
X04384930Y06274869D01*
X04378192Y06274134D01*
X04371632Y06272429D01*
X04365389Y06269791D01*
X04359594Y06266276D01*
X04354369Y06261958D01*
X04349826Y06256928D01*
X04346451Y06251968D01*
X04335896Y06233182D01*
X04326211Y06213932D01*
X04317418Y06194260D01*
X04309535Y06174205D01*
X04302578Y06153810D01*
X04296562Y06133118D01*
X04291500Y06112173D01*
X04287402Y06091017D01*
X04284277Y06069697D01*
X04282131Y06048255D01*
X04280969Y06026738D01*
X04280794Y06005190D01*
X04281605Y05983657D01*
X04283401Y05962183D01*
X04286178Y05940814D01*
X04289931Y05919595D01*
X04294651Y05898570D01*
X04300329Y05877782D01*
X04306953Y05857277D01*
X04314508Y05837097D01*
X04322980Y05817283D01*
X04332349Y05797878D01*
X04342597Y05778922D01*
X04353703Y05760456D01*
X04365642Y05742517D01*
X04378389Y05725144D01*
X04391919Y05708372D01*
X04406203Y05692237D01*
X04421210Y05676774D01*
X04436909Y05662013D01*
X04453268Y05647987D01*
X04470251Y05634724D01*
X04487824Y05622253D01*
X04505950Y05610599D01*
X04524590Y05599788D01*
X04543705Y05589841D01*
X04563256Y05580780D01*
X04583201Y05572623D01*
X04603499Y05565388D01*
X04624107Y05559090D01*
X04644981Y05553741D01*
X04666078Y05549355D01*
X04687354Y05545938D01*
X04708764Y05543499D01*
X04730264Y05542043D01*
X04751807Y05541573D01*
X04773350Y05542090D01*
X04794846Y05543592D01*
X04816251Y05546077D01*
X04837519Y05549539D01*
X04858607Y05553971D01*
X04879470Y05559364D01*
X04900064Y05565707D01*
X04920346Y05572985D01*
X04940274Y05581185D01*
X04959805Y05590288D01*
X04978899Y05600276D01*
X04996057Y05610236D01*
X04511806Y06417323D02*
X04506331Y06413328D01*
X04501494Y06408581D01*
X04497396Y06403184D01*
X04494123Y06397249D01*
X04491746Y06390902D01*
X04490315Y06384278D01*
X04489858Y06377516D01*
X04490387Y06370760D01*
X04491890Y06364152D01*
X04494336Y06357831D01*
X04497671Y06351932D01*
X04501827Y06346579D01*
X04506716Y06341884D01*
X04512233Y06337949D01*
X04518262Y06334854D01*
X04524677Y06332667D01*
X04531340Y06331433D01*
X04538113Y06331178D01*
X04544850Y06331908D01*
X04551411Y06333606D01*
X04557656Y06336238D01*
X04560881Y06338048D01*
X04996057Y05610236D02*
X05001009Y05614813D01*
X05005240Y05620062D01*
X05008661Y05625871D01*
X05011199Y05632118D01*
X05012800Y05638667D01*
X05013429Y05645380D01*
X05013073Y05652113D01*
X05011739Y05658722D01*
X05009457Y05665066D01*
X05006274Y05671010D01*
X05002260Y05676426D01*
X04997498Y05681200D01*
X04992092Y05685229D01*
X04986157Y05688427D01*
X04979818Y05690725D01*
X04973213Y05692076D01*
X04966481Y05692450D01*
X04959767Y05691838D01*
X04953213Y05690254D01*
X04946960Y05687733D01*
X04943241Y05685689D01*
X04427657Y06206152D02*
X04418155Y06189336D01*
X04409525Y06172057D01*
X04401788Y06154359D01*
X04394965Y06136290D01*
X04389073Y06117895D01*
X04384129Y06099224D01*
X04380145Y06080324D01*
X04377131Y06061246D01*
X04375095Y06042038D01*
X04374044Y06022752D01*
X04373978Y06003437D01*
X04374899Y05984144D01*
X04376804Y05964924D01*
X04379688Y05945825D01*
X04383544Y05926899D01*
X04388361Y05908195D01*
X04394127Y05889760D01*
X04400827Y05871645D01*
X04408444Y05853895D01*
X04416957Y05836557D01*
X04426344Y05819677D01*
X04436582Y05803298D01*
X04447642Y05787464D01*
X04459497Y05772215D01*
X04472115Y05757591D01*
X04485463Y05743631D01*
X04499507Y05730370D01*
X04514210Y05717845D01*
X04529533Y05706086D01*
X04545437Y05695125D01*
X04561880Y05684991D01*
X04578818Y05675710D01*
X04596209Y05667306D01*
X04614006Y05659801D01*
X04632164Y05653215D01*
X04650634Y05647565D01*
X04669368Y05642865D01*
X04688318Y05639129D01*
X04707435Y05636364D01*
X04726667Y05634580D01*
X04745965Y05633781D01*
X04765279Y05633968D01*
X04784559Y05635141D01*
X04803753Y05637297D01*
X04822812Y05640431D01*
X04841686Y05644534D01*
X04860326Y05649595D01*
X04878683Y05655602D01*
X04896709Y05662538D01*
X04914358Y05670386D01*
X04931583Y05679126D01*
X04944516Y05686440D01*
X05076268Y05817468D02*
X05085770Y05834284D01*
X05094401Y05851564D01*
X05102138Y05869261D01*
X05108961Y05887331D01*
X05114852Y05905726D01*
X05119797Y05924397D01*
X05123781Y05943296D01*
X05126795Y05962375D01*
X05128830Y05981582D01*
X05129882Y06000869D01*
X05129948Y06020183D01*
X05129027Y06039476D01*
X05127122Y06058697D01*
X05124238Y06077795D01*
X05120383Y06096722D01*
X05115565Y06115426D01*
X05109799Y06133860D01*
X05103099Y06151976D01*
X05095483Y06169726D01*
X05086970Y06187063D01*
X05077582Y06203944D01*
X05067345Y06220322D01*
X05056285Y06236157D01*
X05044430Y06251406D01*
X05031812Y06266030D01*
X05018464Y06279990D01*
X05004420Y06293251D01*
X04989717Y06305776D01*
X04974394Y06317535D01*
X04958490Y06328496D01*
X04942047Y06338630D01*
X04925109Y06347911D01*
X04907718Y06356315D01*
X04889921Y06363820D01*
X04871763Y06370406D01*
X04853293Y06376057D01*
X04834559Y06380756D01*
X04815609Y06384493D01*
X04796493Y06387257D01*
X04777260Y06389041D01*
X04757962Y06389841D01*
X04738648Y06389654D01*
X04719369Y06388481D01*
X04700174Y06386325D01*
X04681115Y06383191D01*
X04662241Y06379088D01*
X04643601Y06374027D01*
X04625244Y06368020D01*
X04607218Y06361084D01*
X04589569Y06353236D01*
X04572344Y06344497D01*
X04559373Y06337160D01*
X05460624Y08374015D02*
Y06799212D01*
X03452750D01*
Y08374015D01*
X05460624D01*
X05078200Y07395532D02*
X05074934Y07389593D01*
X05072563Y07383243D01*
X05071138Y07376616D01*
X05070689Y07369853D01*
X05071225Y07363097D01*
X05072735Y07356489D01*
X05075187Y07350170D01*
X05078529Y07344274D01*
X05082691Y07338924D01*
X05087584Y07334234D01*
X05093105Y07330303D01*
X05099138Y07327214D01*
X05105555Y07325032D01*
X05112221Y07323804D01*
X05118994Y07323555D01*
X05125732Y07324290D01*
X05132292Y07325995D01*
X05138536Y07328632D01*
X05144331Y07332147D01*
X05149555Y07336465D01*
X05154099Y07341495D01*
X05157475Y07346457D01*
X05168040Y07365256D01*
X05177734Y07384519D01*
X05186537Y07404205D01*
X05194430Y07424274D01*
X05201397Y07444682D01*
X05207423Y07465388D01*
X05212495Y07486348D01*
X05216603Y07507517D01*
X05219738Y07528853D01*
X05221894Y07550310D01*
X05223067Y07571843D01*
X05223252Y07593407D01*
X05222452Y07614957D01*
X05220666Y07636447D01*
X05217899Y07657834D01*
X05214156Y07679071D01*
X05209446Y07700115D01*
X05203778Y07720922D01*
X05197164Y07741448D01*
X05189618Y07761649D01*
X05181156Y07781484D01*
X05171795Y07800911D01*
X05161555Y07819890D01*
X05150458Y07838380D01*
X05138526Y07856344D01*
X05125786Y07873742D01*
X05112262Y07890540D01*
X05097985Y07906701D01*
X05082983Y07922192D01*
X05067288Y07936981D01*
X05050932Y07951036D01*
X05033951Y07964329D01*
X05016380Y07976830D01*
X04998255Y07988515D01*
X04979615Y07999358D01*
X04960498Y08009337D01*
X04940945Y08018431D01*
X04920996Y08026621D01*
X04900693Y08033890D01*
X04880079Y08040223D01*
X04859197Y08045606D01*
X04838090Y08050028D01*
X04816803Y08053479D01*
X04795381Y08055954D01*
X04773868Y08057445D01*
X04752309Y08057951D01*
X04730750Y08057471D01*
X04709235Y08056004D01*
X04687809Y08053555D01*
X04666519Y08050128D01*
X04645407Y08045731D01*
X04624519Y08040372D01*
X04603897Y08034063D01*
X04583586Y08026818D01*
X04563627Y08018651D01*
X04544063Y08009580D01*
X04524935Y07999623D01*
X04511806Y07992126D01*
X04425726Y07777696D02*
X04428992Y07783636D01*
X04431363Y07789985D01*
X04432787Y07796612D01*
X04433236Y07803375D01*
X04432700Y07810131D01*
X04431190Y07816739D01*
X04428738Y07823058D01*
X04425396Y07828954D01*
X04421234Y07834304D01*
X04416341Y07838994D01*
X04410819Y07842925D01*
X04404786Y07846014D01*
X04398369Y07848195D01*
X04391703Y07849424D01*
X04384930Y07849672D01*
X04378192Y07848937D01*
X04371632Y07847232D01*
X04365389Y07844594D01*
X04359594Y07841079D01*
X04354369Y07836761D01*
X04349826Y07831732D01*
X04346451Y07826772D01*
X04335896Y07807985D01*
X04326211Y07788736D01*
X04317418Y07769063D01*
X04309535Y07749008D01*
X04302578Y07728613D01*
X04296562Y07707921D01*
X04291500Y07686976D01*
X04287402Y07665820D01*
X04284277Y07644500D01*
X04282131Y07623058D01*
X04280969Y07601541D01*
X04280794Y07579993D01*
X04281605Y07558460D01*
X04283401Y07536986D01*
X04286178Y07515617D01*
X04289931Y07494398D01*
X04294651Y07473373D01*
X04300329Y07452586D01*
X04306953Y07432080D01*
X04314508Y07411900D01*
X04322980Y07392086D01*
X04332349Y07372681D01*
X04342597Y07353725D01*
X04353703Y07335259D01*
X04365642Y07317320D01*
X04378389Y07299947D01*
X04391919Y07283175D01*
X04406203Y07267040D01*
X04421210Y07251577D01*
X04436909Y07236816D01*
X04453268Y07222790D01*
X04470251Y07209527D01*
X04487824Y07197056D01*
X04505950Y07185402D01*
X04524590Y07174591D01*
X04543705Y07164644D01*
X04563256Y07155583D01*
X04583201Y07147426D01*
X04603499Y07140191D01*
X04624107Y07133893D01*
X04644981Y07128545D01*
X04666078Y07124158D01*
X04687354Y07120741D01*
X04708764Y07118302D01*
X04730264Y07116846D01*
X04751807Y07116376D01*
X04773350Y07116893D01*
X04794846Y07118395D01*
X04816251Y07120880D01*
X04837519Y07124342D01*
X04858607Y07128774D01*
X04879470Y07134167D01*
X04900064Y07140510D01*
X04920346Y07147788D01*
X04940274Y07155988D01*
X04959805Y07165091D01*
X04978899Y07175079D01*
X04996057Y07185039D01*
X04511806Y07992126D02*
X04506331Y07988131D01*
X04501494Y07983384D01*
X04497396Y07977987D01*
X04494123Y07972052D01*
X04491746Y07965705D01*
X04490315Y07959081D01*
X04489858Y07952320D01*
X04490387Y07945563D01*
X04491890Y07938955D01*
X04494336Y07932634D01*
X04497671Y07926735D01*
X04501827Y07921382D01*
X04506716Y07916688D01*
X04512233Y07912752D01*
X04518262Y07909658D01*
X04524677Y07907470D01*
X04531340Y07906236D01*
X04538113Y07905981D01*
X04544850Y07906711D01*
X04551411Y07908410D01*
X04557656Y07911042D01*
X04560881Y07912851D01*
X04996057Y07185039D02*
X05001009Y07189616D01*
X05005240Y07194865D01*
X05008661Y07200675D01*
X05011199Y07206921D01*
X05012800Y07213470D01*
X05013429Y07220183D01*
X05013073Y07226916D01*
X05011739Y07233525D01*
X05009457Y07239869D01*
X05006274Y07245813D01*
X05002260Y07251230D01*
X04997498Y07256003D01*
X04992092Y07260032D01*
X04986157Y07263230D01*
X04979818Y07265529D01*
X04973213Y07266879D01*
X04966481Y07267253D01*
X04959767Y07266641D01*
X04953213Y07265058D01*
X04946960Y07262536D01*
X04943241Y07260492D01*
X04427657Y07780956D02*
X04418155Y07764140D01*
X04409525Y07746860D01*
X04401788Y07729163D01*
X04394965Y07711093D01*
X04389073Y07692698D01*
X04384129Y07674027D01*
X04380145Y07655127D01*
X04377131Y07636049D01*
X04375095Y07616842D01*
X04374044Y07597555D01*
X04373978Y07578241D01*
X04374899Y07558948D01*
X04376804Y07539727D01*
X04379688Y07520628D01*
X04383544Y07501702D01*
X04388361Y07482998D01*
X04394127Y07464564D01*
X04400827Y07446448D01*
X04408444Y07428698D01*
X04416957Y07411361D01*
X04426344Y07394480D01*
X04436582Y07378102D01*
X04447642Y07362267D01*
X04459497Y07347018D01*
X04472115Y07332394D01*
X04485463Y07318434D01*
X04499507Y07305174D01*
X04514210Y07292648D01*
X04529533Y07280889D01*
X04545437Y07269929D01*
X04561880Y07259794D01*
X04578818Y07250513D01*
X04596209Y07242109D01*
X04614006Y07234604D01*
X04632164Y07228018D01*
X04650634Y07222368D01*
X04669368Y07217668D01*
X04688318Y07213932D01*
X04707435Y07211168D01*
X04726667Y07209383D01*
X04745965Y07208584D01*
X04765279Y07208771D01*
X04784559Y07209944D01*
X04803753Y07212100D01*
X04822812Y07215234D01*
X04841686Y07219337D01*
X04860326Y07224398D01*
X04878683Y07230405D01*
X04896709Y07237342D01*
X04914358Y07245190D01*
X04931583Y07253929D01*
X04944516Y07261244D01*
X05076268Y07392272D02*
X05085770Y07409088D01*
X05094401Y07426367D01*
X05102138Y07444065D01*
X05108961Y07462134D01*
X05114852Y07480529D01*
X05119797Y07499200D01*
X05123781Y07518100D01*
X05126795Y07537178D01*
X05128830Y07556385D01*
X05129882Y07575672D01*
X05129948Y07594986D01*
X05129027Y07614279D01*
X05127122Y07633500D01*
X05124238Y07652599D01*
X05120383Y07671525D01*
X05115565Y07690229D01*
X05109799Y07708663D01*
X05103099Y07726779D01*
X05095483Y07744529D01*
X05086970Y07761867D01*
X05077582Y07778747D01*
X05067345Y07795126D01*
X05056285Y07810960D01*
X05044430Y07826209D01*
X05031812Y07840833D01*
X05018464Y07854793D01*
X05004420Y07868054D01*
X04989717Y07880580D01*
X04974394Y07892338D01*
X04958490Y07903299D01*
X04942047Y07913433D01*
X04925109Y07922714D01*
X04907718Y07931118D01*
X04889921Y07938623D01*
X04871763Y07945210D01*
X04853293Y07950860D01*
X04834559Y07955560D01*
X04815609Y07959296D01*
X04796493Y07962060D01*
X04777260Y07963845D01*
X04757962Y07964644D01*
X04738648Y07964457D01*
X04719369Y07963284D01*
X04700174Y07961128D01*
X04681115Y07957994D01*
X04662241Y07953892D01*
X04643601Y07948830D01*
X04625244Y07942823D01*
X04607218Y07935887D01*
X04589569Y07928039D01*
X04572344Y07919300D01*
X04559373Y07911963D01*
X02952750Y08874016D02*
X05960624D01*
Y-00000000D01*
X02952750D01*
Y08874016D01*
X05460624D02*
Y-00000000D01*
X03452750Y08874016D02*
Y-00000000D01*
X05960624Y00500000D02*
X02952750D01*
Y02074803D02*
X05960624D01*
X02952750Y03649606D02*
X05960624D01*
X02952750Y05224409D02*
X05960624D01*
X02952750Y06799213D02*
X05960624D01*
X02952750Y08374016D02*
X05960624D01*
X08586594Y02074803D02*
Y00500000D01*
X06578720D01*
Y02074803D01*
X08586594D01*
X08204170Y01096319D02*
X08200904Y01090380D01*
X08198533Y01084030D01*
X08197108Y01077404D01*
X08196659Y01070641D01*
X08197195Y01063884D01*
X08198705Y01057277D01*
X08201157Y01050958D01*
X08204499Y01045061D01*
X08208661Y01039712D01*
X08213554Y01035022D01*
X08219075Y01031091D01*
X08225108Y01028002D01*
X08231525Y01025820D01*
X08238191Y01024591D01*
X08244964Y01024342D01*
X08251702Y01025078D01*
X08258262Y01026782D01*
X08264506Y01029420D01*
X08270301Y01032935D01*
X08275525Y01037253D01*
X08280069Y01042282D01*
X08283445Y01047244D01*
X08294010Y01066043D01*
X08303704Y01085306D01*
X08312507Y01104993D01*
X08320400Y01125061D01*
X08327367Y01145469D01*
X08333393Y01166175D01*
X08338465Y01187135D01*
X08342573Y01208305D01*
X08345708Y01229641D01*
X08347864Y01251097D01*
X08349037Y01272630D01*
X08349222Y01294194D01*
X08348422Y01315744D01*
X08346636Y01337235D01*
X08343869Y01358621D01*
X08340126Y01379859D01*
X08335416Y01400903D01*
X08329748Y01421710D01*
X08323134Y01442235D01*
X08315588Y01462437D01*
X08307126Y01482272D01*
X08297765Y01501699D01*
X08287525Y01520677D01*
X08276428Y01539168D01*
X08264496Y01557131D01*
X08251756Y01574530D01*
X08238232Y01591327D01*
X08223955Y01607488D01*
X08208953Y01622980D01*
X08193257Y01637769D01*
X08176902Y01651824D01*
X08159921Y01665116D01*
X08142350Y01677618D01*
X08124225Y01689302D01*
X08105585Y01700146D01*
X08086468Y01710125D01*
X08066915Y01719219D01*
X08046966Y01727409D01*
X08026663Y01734678D01*
X08006049Y01741010D01*
X07985167Y01746393D01*
X07964060Y01750815D01*
X07942773Y01754267D01*
X07921351Y01756741D01*
X07899838Y01758233D01*
X07878279Y01758739D01*
X07856719Y01758258D01*
X07835205Y01756791D01*
X07813779Y01754342D01*
X07792489Y01750915D01*
X07771377Y01746518D01*
X07750488Y01741159D01*
X07729867Y01734851D01*
X07709556Y01727606D01*
X07689597Y01719439D01*
X07670033Y01710368D01*
X07650905Y01700411D01*
X07637775Y01692913D01*
X07551696Y01478484D02*
X07554962Y01484423D01*
X07557332Y01490773D01*
X07558757Y01497399D01*
X07559206Y01504162D01*
X07558670Y01510919D01*
X07557160Y01517526D01*
X07554708Y01523845D01*
X07551366Y01529742D01*
X07547204Y01535091D01*
X07542311Y01539781D01*
X07536789Y01543712D01*
X07530756Y01546801D01*
X07524339Y01548983D01*
X07517673Y01550211D01*
X07510900Y01550460D01*
X07504162Y01549724D01*
X07497602Y01548020D01*
X07491359Y01545382D01*
X07485564Y01541867D01*
X07480339Y01537549D01*
X07475796Y01532519D01*
X07472421Y01527559D01*
X07461866Y01508773D01*
X07452181Y01489523D01*
X07443388Y01469850D01*
X07435505Y01449795D01*
X07428548Y01429401D01*
X07422532Y01408709D01*
X07417470Y01387763D01*
X07413372Y01366608D01*
X07410247Y01345287D01*
X07408101Y01323846D01*
X07406939Y01302328D01*
X07406764Y01280781D01*
X07407575Y01259247D01*
X07409371Y01237774D01*
X07412148Y01216405D01*
X07415901Y01195186D01*
X07420621Y01174160D01*
X07426299Y01153373D01*
X07432923Y01132868D01*
X07440478Y01112687D01*
X07448950Y01092874D01*
X07458319Y01073469D01*
X07468567Y01054513D01*
X07479673Y01036046D01*
X07491612Y01018108D01*
X07504359Y01000734D01*
X07517889Y00983963D01*
X07532173Y00967828D01*
X07547180Y00952364D01*
X07562879Y00937604D01*
X07579238Y00923577D01*
X07596221Y00910315D01*
X07613794Y00897844D01*
X07631920Y00886190D01*
X07650560Y00875378D01*
X07669675Y00865431D01*
X07689226Y00856370D01*
X07709171Y00848213D01*
X07729469Y00840978D01*
X07750077Y00834680D01*
X07770951Y00829332D01*
X07792048Y00824945D01*
X07813324Y00821529D01*
X07834734Y00819090D01*
X07856234Y00817634D01*
X07877777Y00817164D01*
X07899320Y00817680D01*
X07920816Y00819183D01*
X07942221Y00821667D01*
X07963489Y00825130D01*
X07984577Y00829562D01*
X08005440Y00834955D01*
X08026034Y00841297D01*
X08046316Y00848576D01*
X08066244Y00856776D01*
X08085775Y00865879D01*
X08104869Y00875867D01*
X08122027Y00885827D01*
X07637775Y01692913D02*
X07632301Y01688918D01*
X07627464Y01684172D01*
X07623366Y01678774D01*
X07620093Y01672839D01*
X07617716Y01666493D01*
X07616285Y01659869D01*
X07615828Y01653107D01*
X07616357Y01646351D01*
X07617860Y01639742D01*
X07620306Y01633422D01*
X07623641Y01627522D01*
X07627797Y01622169D01*
X07632686Y01617475D01*
X07638203Y01613539D01*
X07644232Y01610445D01*
X07650647Y01608258D01*
X07657310Y01607024D01*
X07664083Y01606769D01*
X07670820Y01607498D01*
X07677381Y01609197D01*
X07683626Y01611829D01*
X07686851Y01613638D01*
X08122027Y00885827D02*
X08126979Y00890403D01*
X08131210Y00895652D01*
X08134631Y00901462D01*
X08137169Y00907708D01*
X08138770Y00914258D01*
X08139399Y00920971D01*
X08139043Y00927703D01*
X08137709Y00934313D01*
X08135427Y00940657D01*
X08132244Y00946600D01*
X08128230Y00952017D01*
X08123468Y00956791D01*
X08118062Y00960819D01*
X08112127Y00964017D01*
X08105788Y00966316D01*
X08099183Y00967667D01*
X08092451Y00968040D01*
X08085737Y00967429D01*
X08079183Y00965845D01*
X08072930Y00963323D01*
X08069211Y00961279D01*
X07553627Y01481743D02*
X07544125Y01464927D01*
X07535495Y01447648D01*
X07527758Y01429950D01*
X07520935Y01411880D01*
X07515043Y01393486D01*
X07510099Y01374814D01*
X07506115Y01355915D01*
X07503101Y01336837D01*
X07501065Y01317629D01*
X07500013Y01298343D01*
X07499948Y01279028D01*
X07500869Y01259735D01*
X07502774Y01240514D01*
X07505658Y01221416D01*
X07509514Y01202490D01*
X07514331Y01183785D01*
X07520097Y01165351D01*
X07526797Y01147236D01*
X07534414Y01129486D01*
X07542927Y01112148D01*
X07552314Y01095268D01*
X07562552Y01078889D01*
X07573612Y01063054D01*
X07585467Y01047805D01*
X07598085Y01033182D01*
X07611433Y01019221D01*
X07625477Y01005961D01*
X07640180Y00993435D01*
X07655503Y00981677D01*
X07671407Y00970716D01*
X07687850Y00960582D01*
X07704788Y00951301D01*
X07722179Y00942897D01*
X07739976Y00935392D01*
X07758134Y00928806D01*
X07776604Y00923155D01*
X07795338Y00918456D01*
X07814288Y00914719D01*
X07833405Y00911955D01*
X07852637Y00910171D01*
X07871935Y00909371D01*
X07891249Y00909558D01*
X07910529Y00910731D01*
X07929723Y00912888D01*
X07948782Y00916021D01*
X07967656Y00920124D01*
X07986296Y00925186D01*
X08004653Y00931193D01*
X08022679Y00938129D01*
X08040328Y00945977D01*
X08057553Y00954716D01*
X08070486Y00962031D01*
X08202238Y01093059D02*
X08211740Y01109875D01*
X08220371Y01127154D01*
X08228108Y01144852D01*
X08234931Y01162922D01*
X08240822Y01181316D01*
X08245767Y01199988D01*
X08249751Y01218887D01*
X08252765Y01237965D01*
X08254800Y01257173D01*
X08255852Y01276459D01*
X08255918Y01295774D01*
X08254997Y01315067D01*
X08253092Y01334288D01*
X08250208Y01353386D01*
X08246353Y01372312D01*
X08241535Y01391017D01*
X08235769Y01409451D01*
X08229069Y01427567D01*
X08221453Y01445316D01*
X08212940Y01462654D01*
X08203552Y01479534D01*
X08193315Y01495913D01*
X08182255Y01511748D01*
X08170400Y01526997D01*
X08157782Y01541621D01*
X08144434Y01555581D01*
X08130390Y01568841D01*
X08115687Y01581367D01*
X08100364Y01593126D01*
X08084460Y01604087D01*
X08068017Y01614221D01*
X08051079Y01623502D01*
X08033688Y01631906D01*
X08015891Y01639411D01*
X07997733Y01645997D01*
X07979263Y01651647D01*
X07960529Y01656347D01*
X07941579Y01660084D01*
X07922463Y01662848D01*
X07903230Y01664632D01*
X07883932Y01665432D01*
X07864618Y01665245D01*
X07845339Y01664072D01*
X07826144Y01661916D01*
X07807085Y01658782D01*
X07788211Y01654679D01*
X07769571Y01649618D01*
X07751214Y01643611D01*
X07733188Y01636675D01*
X07715539Y01628826D01*
X07698314Y01620087D01*
X07685343Y01612751D01*
X08586594Y03649606D02*
Y02074803D01*
X06578720D01*
Y03649606D01*
X08586594D01*
X08204170Y02671122D02*
X08200904Y02665183D01*
X08198533Y02658833D01*
X08197108Y02652207D01*
X08196659Y02645444D01*
X08197195Y02638688D01*
X08198705Y02632080D01*
X08201157Y02625761D01*
X08204499Y02619865D01*
X08208661Y02614515D01*
X08213554Y02609825D01*
X08219075Y02605894D01*
X08225108Y02602805D01*
X08231525Y02600623D01*
X08238191Y02599395D01*
X08244964Y02599145D01*
X08251702Y02599881D01*
X08258262Y02601586D01*
X08264506Y02604223D01*
X08270301Y02607738D01*
X08275525Y02612056D01*
X08280069Y02617086D01*
X08283445Y02622047D01*
X08294010Y02640847D01*
X08303704Y02660110D01*
X08312507Y02679796D01*
X08320400Y02699864D01*
X08327367Y02720273D01*
X08333393Y02740978D01*
X08338465Y02761938D01*
X08342573Y02783108D01*
X08345708Y02804444D01*
X08347864Y02825900D01*
X08349037Y02847433D01*
X08349222Y02868997D01*
X08348422Y02890547D01*
X08346636Y02912038D01*
X08343869Y02933425D01*
X08340126Y02954662D01*
X08335416Y02975706D01*
X08329748Y02996513D01*
X08323134Y03017038D01*
X08315588Y03037240D01*
X08307126Y03057075D01*
X08297765Y03076502D01*
X08287525Y03095481D01*
X08276428Y03113971D01*
X08264496Y03131934D01*
X08251756Y03149333D01*
X08238232Y03166130D01*
X08223955Y03182292D01*
X08208953Y03197783D01*
X08193257Y03212572D01*
X08176902Y03226627D01*
X08159921Y03239919D01*
X08142350Y03252421D01*
X08124225Y03264105D01*
X08105585Y03274949D01*
X08086468Y03284928D01*
X08066915Y03294022D01*
X08046966Y03302212D01*
X08026663Y03309481D01*
X08006049Y03315814D01*
X07985167Y03321196D01*
X07964060Y03325618D01*
X07942773Y03329070D01*
X07921351Y03331544D01*
X07899838Y03333036D01*
X07878279Y03333542D01*
X07856719Y03333061D01*
X07835205Y03331595D01*
X07813779Y03329145D01*
X07792489Y03325718D01*
X07771377Y03321321D01*
X07750488Y03315963D01*
X07729867Y03309654D01*
X07709556Y03302409D01*
X07689597Y03294242D01*
X07670033Y03285171D01*
X07650905Y03275214D01*
X07637775Y03267717D01*
X07551696Y03053287D02*
X07554962Y03059226D01*
X07557332Y03065576D01*
X07558757Y03072203D01*
X07559206Y03078965D01*
X07558670Y03085722D01*
X07557160Y03092330D01*
X07554708Y03098648D01*
X07551366Y03104545D01*
X07547204Y03109895D01*
X07542311Y03114584D01*
X07536789Y03118515D01*
X07530756Y03121604D01*
X07524339Y03123786D01*
X07517673Y03125014D01*
X07510900Y03125263D01*
X07504162Y03124527D01*
X07497602Y03122823D01*
X07491359Y03120185D01*
X07485564Y03116670D01*
X07480339Y03112352D01*
X07475796Y03107322D01*
X07472421Y03102362D01*
X07461866Y03083576D01*
X07452181Y03064326D01*
X07443388Y03044653D01*
X07435505Y03024599D01*
X07428548Y03004204D01*
X07422532Y02983512D01*
X07417470Y02962566D01*
X07413372Y02941411D01*
X07410247Y02920090D01*
X07408101Y02898649D01*
X07406939Y02877132D01*
X07406764Y02855584D01*
X07407575Y02834050D01*
X07409371Y02812577D01*
X07412148Y02791208D01*
X07415901Y02769989D01*
X07420621Y02748963D01*
X07426299Y02728176D01*
X07432923Y02707671D01*
X07440478Y02687490D01*
X07448950Y02667677D01*
X07458319Y02648272D01*
X07468567Y02629316D01*
X07479673Y02610850D01*
X07491612Y02592911D01*
X07504359Y02575537D01*
X07517889Y02558766D01*
X07532173Y02542631D01*
X07547180Y02527167D01*
X07562879Y02512407D01*
X07579238Y02498381D01*
X07596221Y02485118D01*
X07613794Y02472647D01*
X07631920Y02460993D01*
X07650560Y02450181D01*
X07669675Y02440235D01*
X07689226Y02431173D01*
X07709171Y02423017D01*
X07729469Y02415782D01*
X07750077Y02409483D01*
X07770951Y02404135D01*
X07792048Y02399748D01*
X07813324Y02396332D01*
X07834734Y02393893D01*
X07856234Y02392437D01*
X07877777Y02391967D01*
X07899320Y02392483D01*
X07920816Y02393986D01*
X07942221Y02396470D01*
X07963489Y02399933D01*
X07984577Y02404365D01*
X08005440Y02409758D01*
X08026034Y02416100D01*
X08046316Y02423379D01*
X08066244Y02431579D01*
X08085775Y02440682D01*
X08104869Y02450670D01*
X08122027Y02460630D01*
X07637775Y03267717D02*
X07632301Y03263722D01*
X07627464Y03258975D01*
X07623366Y03253577D01*
X07620093Y03247643D01*
X07617716Y03241296D01*
X07616285Y03234672D01*
X07615828Y03227910D01*
X07616357Y03221154D01*
X07617860Y03214545D01*
X07620306Y03208225D01*
X07623641Y03202326D01*
X07627797Y03196972D01*
X07632686Y03192278D01*
X07638203Y03188343D01*
X07644232Y03185248D01*
X07650647Y03183061D01*
X07657310Y03181827D01*
X07664083Y03181572D01*
X07670820Y03182301D01*
X07677381Y03184000D01*
X07683626Y03186632D01*
X07686851Y03188441D01*
X08122027Y02460630D02*
X08126979Y02465206D01*
X08131210Y02470456D01*
X08134631Y02476265D01*
X08137169Y02482512D01*
X08138770Y02489061D01*
X08139399Y02495774D01*
X08139043Y02502507D01*
X08137709Y02509116D01*
X08135427Y02515460D01*
X08132244Y02521404D01*
X08128230Y02526820D01*
X08123468Y02531594D01*
X08118062Y02535623D01*
X08112127Y02538821D01*
X08105788Y02541119D01*
X08099183Y02542470D01*
X08092451Y02542843D01*
X08085737Y02542232D01*
X08079183Y02540648D01*
X08072930Y02538126D01*
X08069211Y02536082D01*
X07553627Y03056546D02*
X07544125Y03039730D01*
X07535495Y03022451D01*
X07527758Y03004753D01*
X07520935Y02986684D01*
X07515043Y02968289D01*
X07510099Y02949618D01*
X07506115Y02930718D01*
X07503101Y02911640D01*
X07501065Y02892432D01*
X07500013Y02873146D01*
X07499948Y02853831D01*
X07500869Y02834538D01*
X07502774Y02815318D01*
X07505658Y02796219D01*
X07509514Y02777293D01*
X07514331Y02758588D01*
X07520097Y02740154D01*
X07526797Y02722039D01*
X07534414Y02704289D01*
X07542927Y02686951D01*
X07552314Y02670071D01*
X07562552Y02653692D01*
X07573612Y02637858D01*
X07585467Y02622609D01*
X07598085Y02607985D01*
X07611433Y02594025D01*
X07625477Y02580764D01*
X07640180Y02568238D01*
X07655503Y02556480D01*
X07671407Y02545519D01*
X07687850Y02535385D01*
X07704788Y02526104D01*
X07722179Y02517700D01*
X07739976Y02510195D01*
X07758134Y02503609D01*
X07776604Y02497959D01*
X07795338Y02493259D01*
X07814288Y02489522D01*
X07833405Y02486758D01*
X07852637Y02484974D01*
X07871935Y02484175D01*
X07891249Y02484362D01*
X07910529Y02485535D01*
X07929723Y02487691D01*
X07948782Y02490825D01*
X07967656Y02494927D01*
X07986296Y02499989D01*
X08004653Y02505996D01*
X08022679Y02512932D01*
X08040328Y02520780D01*
X08057553Y02529519D01*
X08070486Y02536834D01*
X08202238Y02667862D02*
X08211740Y02684678D01*
X08220371Y02701958D01*
X08228108Y02719655D01*
X08234931Y02737725D01*
X08240822Y02756119D01*
X08245767Y02774791D01*
X08249751Y02793690D01*
X08252765Y02812769D01*
X08254800Y02831976D01*
X08255852Y02851262D01*
X08255918Y02870577D01*
X08254997Y02889870D01*
X08253092Y02909091D01*
X08250208Y02928189D01*
X08246353Y02947115D01*
X08241535Y02965820D01*
X08235769Y02984254D01*
X08229069Y03002370D01*
X08221453Y03020120D01*
X08212940Y03037457D01*
X08203552Y03054338D01*
X08193315Y03070716D01*
X08182255Y03086551D01*
X08170400Y03101800D01*
X08157782Y03116424D01*
X08144434Y03130384D01*
X08130390Y03143644D01*
X08115687Y03156170D01*
X08100364Y03167929D01*
X08084460Y03178890D01*
X08068017Y03189024D01*
X08051079Y03198305D01*
X08033688Y03206709D01*
X08015891Y03214214D01*
X07997733Y03220800D01*
X07979263Y03226450D01*
X07960529Y03231150D01*
X07941579Y03234887D01*
X07922463Y03237651D01*
X07903230Y03239435D01*
X07883932Y03240235D01*
X07864618Y03240048D01*
X07845339Y03238875D01*
X07826144Y03236719D01*
X07807085Y03233585D01*
X07788211Y03229482D01*
X07769571Y03224421D01*
X07751214Y03218414D01*
X07733188Y03211478D01*
X07715539Y03203630D01*
X07698314Y03194891D01*
X07685343Y03187554D01*
X08586594Y05224409D02*
Y03649606D01*
X06578720D01*
Y05224409D01*
X08586594D01*
X08204170Y04245925D02*
X08200904Y04239986D01*
X08198533Y04233637D01*
X08197108Y04227010D01*
X08196659Y04220247D01*
X08197195Y04213491D01*
X08198705Y04206883D01*
X08201157Y04200564D01*
X08204499Y04194668D01*
X08208661Y04189318D01*
X08213554Y04184628D01*
X08219075Y04180697D01*
X08225108Y04177608D01*
X08231525Y04175426D01*
X08238191Y04174198D01*
X08244964Y04173949D01*
X08251702Y04174684D01*
X08258262Y04176389D01*
X08264506Y04179026D01*
X08270301Y04182541D01*
X08275525Y04186859D01*
X08280069Y04191889D01*
X08283445Y04196850D01*
X08294010Y04215650D01*
X08303704Y04234913D01*
X08312507Y04254599D01*
X08320400Y04274667D01*
X08327367Y04295076D01*
X08333393Y04315782D01*
X08338465Y04336741D01*
X08342573Y04357911D01*
X08345708Y04379247D01*
X08347864Y04400704D01*
X08349037Y04422237D01*
X08349222Y04443800D01*
X08348422Y04465350D01*
X08346636Y04486841D01*
X08343869Y04508228D01*
X08340126Y04529465D01*
X08335416Y04550509D01*
X08329748Y04571316D01*
X08323134Y04591841D01*
X08315588Y04612043D01*
X08307126Y04631878D01*
X08297765Y04651305D01*
X08287525Y04670284D01*
X08276428Y04688774D01*
X08264496Y04706737D01*
X08251756Y04724136D01*
X08238232Y04740933D01*
X08223955Y04757095D01*
X08208953Y04772586D01*
X08193257Y04787375D01*
X08176902Y04801430D01*
X08159921Y04814722D01*
X08142350Y04827224D01*
X08124225Y04838909D01*
X08105585Y04849752D01*
X08086468Y04859731D01*
X08066915Y04868825D01*
X08046966Y04877015D01*
X08026663Y04884284D01*
X08006049Y04890617D01*
X07985167Y04896000D01*
X07964060Y04900421D01*
X07942773Y04903873D01*
X07921351Y04906348D01*
X07899838Y04907839D01*
X07878279Y04908345D01*
X07856719Y04907864D01*
X07835205Y04906398D01*
X07813779Y04903948D01*
X07792489Y04900522D01*
X07771377Y04896124D01*
X07750488Y04890766D01*
X07729867Y04884457D01*
X07709556Y04877212D01*
X07689597Y04869045D01*
X07670033Y04859974D01*
X07650905Y04850017D01*
X07637775Y04842520D01*
X07551696Y04628090D02*
X07554962Y04634029D01*
X07557332Y04640379D01*
X07558757Y04647006D01*
X07559206Y04653769D01*
X07558670Y04660525D01*
X07557160Y04667133D01*
X07554708Y04673451D01*
X07551366Y04679348D01*
X07547204Y04684698D01*
X07542311Y04689388D01*
X07536789Y04693319D01*
X07530756Y04696407D01*
X07524339Y04698589D01*
X07517673Y04699817D01*
X07510900Y04700066D01*
X07504162Y04699331D01*
X07497602Y04697626D01*
X07491359Y04694988D01*
X07485564Y04691473D01*
X07480339Y04687155D01*
X07475796Y04682125D01*
X07472421Y04677165D01*
X07461866Y04658379D01*
X07452181Y04639129D01*
X07443388Y04619457D01*
X07435505Y04599402D01*
X07428548Y04579007D01*
X07422532Y04558315D01*
X07417470Y04537370D01*
X07413372Y04516214D01*
X07410247Y04494894D01*
X07408101Y04473452D01*
X07406939Y04451935D01*
X07406764Y04430387D01*
X07407575Y04408854D01*
X07409371Y04387380D01*
X07412148Y04366011D01*
X07415901Y04344792D01*
X07420621Y04323767D01*
X07426299Y04302979D01*
X07432923Y04282474D01*
X07440478Y04262294D01*
X07448950Y04242480D01*
X07458319Y04223075D01*
X07468567Y04204119D01*
X07479673Y04185653D01*
X07491612Y04167714D01*
X07504359Y04150340D01*
X07517889Y04133569D01*
X07532173Y04117434D01*
X07547180Y04101970D01*
X07562879Y04087210D01*
X07579238Y04073184D01*
X07596221Y04059921D01*
X07613794Y04047450D01*
X07631920Y04035796D01*
X07650560Y04024985D01*
X07669675Y04015038D01*
X07689226Y04005976D01*
X07709171Y03997820D01*
X07729469Y03990585D01*
X07750077Y03984287D01*
X07770951Y03978938D01*
X07792048Y03974551D01*
X07813324Y03971135D01*
X07834734Y03968696D01*
X07856234Y03967240D01*
X07877777Y03966770D01*
X07899320Y03967287D01*
X07920816Y03968789D01*
X07942221Y03971274D01*
X07963489Y03974736D01*
X07984577Y03979168D01*
X08005440Y03984561D01*
X08026034Y03990904D01*
X08046316Y03998182D01*
X08066244Y04006382D01*
X08085775Y04015485D01*
X08104869Y04025473D01*
X08122027Y04035433D01*
X07637775Y04842520D02*
X07632301Y04838525D01*
X07627464Y04833778D01*
X07623366Y04828381D01*
X07620093Y04822446D01*
X07617716Y04816099D01*
X07616285Y04809475D01*
X07615828Y04802713D01*
X07616357Y04795957D01*
X07617860Y04789349D01*
X07620306Y04783028D01*
X07623641Y04777129D01*
X07627797Y04771775D01*
X07632686Y04767081D01*
X07638203Y04763146D01*
X07644232Y04760051D01*
X07650647Y04757864D01*
X07657310Y04756630D01*
X07664083Y04756375D01*
X07670820Y04757105D01*
X07677381Y04758803D01*
X07683626Y04761435D01*
X07686851Y04763245D01*
X08122027Y04035433D02*
X08126979Y04040010D01*
X08131210Y04045259D01*
X08134631Y04051068D01*
X08137169Y04057315D01*
X08138770Y04063864D01*
X08139399Y04070577D01*
X08139043Y04077310D01*
X08137709Y04083919D01*
X08135427Y04090263D01*
X08132244Y04096207D01*
X08128230Y04101623D01*
X08123468Y04106397D01*
X08118062Y04110426D01*
X08112127Y04113624D01*
X08105788Y04115922D01*
X08099183Y04117273D01*
X08092451Y04117646D01*
X08085737Y04117035D01*
X08079183Y04115451D01*
X08072930Y04112930D01*
X08069211Y04110886D01*
X07553627Y04631349D02*
X07544125Y04614533D01*
X07535495Y04597254D01*
X07527758Y04579556D01*
X07520935Y04561487D01*
X07515043Y04543092D01*
X07510099Y04524421D01*
X07506115Y04505521D01*
X07503101Y04486443D01*
X07501065Y04467235D01*
X07500013Y04447949D01*
X07499948Y04428634D01*
X07500869Y04409341D01*
X07502774Y04390121D01*
X07505658Y04371022D01*
X07509514Y04352096D01*
X07514331Y04333392D01*
X07520097Y04314957D01*
X07526797Y04296842D01*
X07534414Y04279092D01*
X07542927Y04261754D01*
X07552314Y04244874D01*
X07562552Y04228495D01*
X07573612Y04212661D01*
X07585467Y04197412D01*
X07598085Y04182788D01*
X07611433Y04168828D01*
X07625477Y04155567D01*
X07640180Y04143042D01*
X07655503Y04131283D01*
X07671407Y04120322D01*
X07687850Y04110188D01*
X07704788Y04100907D01*
X07722179Y04092503D01*
X07739976Y04084998D01*
X07758134Y04078412D01*
X07776604Y04072762D01*
X07795338Y04068062D01*
X07814288Y04064325D01*
X07833405Y04061561D01*
X07852637Y04059777D01*
X07871935Y04058978D01*
X07891249Y04059165D01*
X07910529Y04060338D01*
X07929723Y04062494D01*
X07948782Y04065628D01*
X07967656Y04069731D01*
X07986296Y04074792D01*
X08004653Y04080799D01*
X08022679Y04087735D01*
X08040328Y04095583D01*
X08057553Y04104323D01*
X08070486Y04111637D01*
X08202238Y04242665D02*
X08211740Y04259481D01*
X08220371Y04276761D01*
X08228108Y04294458D01*
X08234931Y04312528D01*
X08240822Y04330923D01*
X08245767Y04349594D01*
X08249751Y04368493D01*
X08252765Y04387572D01*
X08254800Y04406779D01*
X08255852Y04426065D01*
X08255918Y04445380D01*
X08254997Y04464673D01*
X08253092Y04483894D01*
X08250208Y04502992D01*
X08246353Y04521919D01*
X08241535Y04540623D01*
X08235769Y04559057D01*
X08229069Y04577173D01*
X08221453Y04594923D01*
X08212940Y04612260D01*
X08203552Y04629141D01*
X08193315Y04645519D01*
X08182255Y04661354D01*
X08170400Y04676603D01*
X08157782Y04691227D01*
X08144434Y04705187D01*
X08130390Y04718448D01*
X08115687Y04730973D01*
X08100364Y04742732D01*
X08084460Y04753693D01*
X08068017Y04763827D01*
X08051079Y04773108D01*
X08033688Y04781512D01*
X08015891Y04789017D01*
X07997733Y04795603D01*
X07979263Y04801254D01*
X07960529Y04805953D01*
X07941579Y04809690D01*
X07922463Y04812454D01*
X07903230Y04814238D01*
X07883932Y04815038D01*
X07864618Y04814851D01*
X07845339Y04813678D01*
X07826144Y04811522D01*
X07807085Y04808388D01*
X07788211Y04804285D01*
X07769571Y04799224D01*
X07751214Y04793217D01*
X07733188Y04786281D01*
X07715539Y04778433D01*
X07698314Y04769694D01*
X07685343Y04762357D01*
X08586594Y06799212D02*
Y05224409D01*
X06578720D01*
Y06799212D01*
X08586594D01*
X08204170Y05820729D02*
X08200904Y05814790D01*
X08198533Y05808440D01*
X08197108Y05801813D01*
X08196659Y05795050D01*
X08197195Y05788294D01*
X08198705Y05781686D01*
X08201157Y05775367D01*
X08204499Y05769471D01*
X08208661Y05764121D01*
X08213554Y05759431D01*
X08219075Y05755500D01*
X08225108Y05752411D01*
X08231525Y05750229D01*
X08238191Y05749001D01*
X08244964Y05748752D01*
X08251702Y05749487D01*
X08258262Y05751192D01*
X08264506Y05753829D01*
X08270301Y05757344D01*
X08275525Y05761662D01*
X08280069Y05766692D01*
X08283445Y05771654D01*
X08294010Y05790453D01*
X08303704Y05809716D01*
X08312507Y05829402D01*
X08320400Y05849470D01*
X08327367Y05869879D01*
X08333393Y05890585D01*
X08338465Y05911544D01*
X08342573Y05932714D01*
X08345708Y05954050D01*
X08347864Y05975507D01*
X08349037Y05997040D01*
X08349222Y06018604D01*
X08348422Y06040154D01*
X08346636Y06061644D01*
X08343869Y06083031D01*
X08340126Y06104268D01*
X08335416Y06125312D01*
X08329748Y06146119D01*
X08323134Y06166644D01*
X08315588Y06186846D01*
X08307126Y06206681D01*
X08297765Y06226108D01*
X08287525Y06245087D01*
X08276428Y06263577D01*
X08264496Y06281540D01*
X08251756Y06298939D01*
X08238232Y06315737D01*
X08223955Y06331898D01*
X08208953Y06347389D01*
X08193257Y06362178D01*
X08176902Y06376233D01*
X08159921Y06389525D01*
X08142350Y06402027D01*
X08124225Y06413712D01*
X08105585Y06424555D01*
X08086468Y06434534D01*
X08066915Y06443628D01*
X08046966Y06451818D01*
X08026663Y06459087D01*
X08006049Y06465420D01*
X07985167Y06470803D01*
X07964060Y06475225D01*
X07942773Y06478676D01*
X07921351Y06481151D01*
X07899838Y06482642D01*
X07878279Y06483148D01*
X07856719Y06482668D01*
X07835205Y06481201D01*
X07813779Y06478752D01*
X07792489Y06475325D01*
X07771377Y06470927D01*
X07750488Y06465569D01*
X07729867Y06459260D01*
X07709556Y06452015D01*
X07689597Y06443848D01*
X07670033Y06434777D01*
X07650905Y06424820D01*
X07637775Y06417323D01*
X07551696Y06202893D02*
X07554962Y06208833D01*
X07557332Y06215182D01*
X07558757Y06221809D01*
X07559206Y06228572D01*
X07558670Y06235328D01*
X07557160Y06241936D01*
X07554708Y06248255D01*
X07551366Y06254151D01*
X07547204Y06259501D01*
X07542311Y06264191D01*
X07536789Y06268122D01*
X07530756Y06271211D01*
X07524339Y06273392D01*
X07517673Y06274620D01*
X07510900Y06274869D01*
X07504162Y06274134D01*
X07497602Y06272429D01*
X07491359Y06269791D01*
X07485564Y06266276D01*
X07480339Y06261958D01*
X07475796Y06256929D01*
X07472421Y06251969D01*
X07461866Y06233182D01*
X07452181Y06213933D01*
X07443388Y06194260D01*
X07435505Y06174205D01*
X07428548Y06153810D01*
X07422532Y06133118D01*
X07417470Y06112173D01*
X07413372Y06091017D01*
X07410247Y06069697D01*
X07408101Y06048255D01*
X07406939Y06026738D01*
X07406764Y06005190D01*
X07407575Y05983657D01*
X07409371Y05962183D01*
X07412148Y05940814D01*
X07415901Y05919595D01*
X07420621Y05898570D01*
X07426299Y05877783D01*
X07432923Y05857277D01*
X07440478Y05837097D01*
X07448950Y05817283D01*
X07458319Y05797878D01*
X07468567Y05778922D01*
X07479673Y05760456D01*
X07491612Y05742517D01*
X07504359Y05725144D01*
X07517889Y05708372D01*
X07532173Y05692237D01*
X07547180Y05676774D01*
X07562879Y05662013D01*
X07579238Y05647987D01*
X07596221Y05634724D01*
X07613794Y05622253D01*
X07631920Y05610599D01*
X07650560Y05599788D01*
X07669675Y05589841D01*
X07689226Y05580780D01*
X07709171Y05572623D01*
X07729469Y05565388D01*
X07750077Y05559090D01*
X07770951Y05553742D01*
X07792048Y05549355D01*
X07813324Y05545938D01*
X07834734Y05543499D01*
X07856234Y05542043D01*
X07877777Y05541573D01*
X07899320Y05542090D01*
X07920816Y05543592D01*
X07942221Y05546077D01*
X07963489Y05549539D01*
X07984577Y05553971D01*
X08005440Y05559364D01*
X08026034Y05565707D01*
X08046316Y05572985D01*
X08066244Y05581185D01*
X08085775Y05590288D01*
X08104869Y05600276D01*
X08122027Y05610236D01*
X07637775Y06417323D02*
X07632301Y06413328D01*
X07627464Y06408581D01*
X07623366Y06403184D01*
X07620093Y06397249D01*
X07617716Y06390902D01*
X07616285Y06384278D01*
X07615828Y06377517D01*
X07616357Y06370760D01*
X07617860Y06364152D01*
X07620306Y06357831D01*
X07623641Y06351932D01*
X07627797Y06346579D01*
X07632686Y06341885D01*
X07638203Y06337949D01*
X07644232Y06334855D01*
X07650647Y06332667D01*
X07657310Y06331433D01*
X07664083Y06331178D01*
X07670820Y06331908D01*
X07677381Y06333606D01*
X07683626Y06336239D01*
X07686851Y06338048D01*
X08122027Y05610236D02*
X08126979Y05614813D01*
X08131210Y05620062D01*
X08134631Y05625872D01*
X08137169Y05632118D01*
X08138770Y05638667D01*
X08139399Y05645380D01*
X08139043Y05652113D01*
X08137709Y05658722D01*
X08135427Y05665066D01*
X08132244Y05671010D01*
X08128230Y05676426D01*
X08123468Y05681200D01*
X08118062Y05685229D01*
X08112127Y05688427D01*
X08105788Y05690726D01*
X08099183Y05692076D01*
X08092451Y05692450D01*
X08085737Y05691838D01*
X08079183Y05690255D01*
X08072930Y05687733D01*
X08069211Y05685689D01*
X07553627Y06206153D02*
X07544125Y06189337D01*
X07535495Y06172057D01*
X07527758Y06154359D01*
X07520935Y06136290D01*
X07515043Y06117895D01*
X07510099Y06099224D01*
X07506115Y06080324D01*
X07503101Y06061246D01*
X07501065Y06042039D01*
X07500013Y06022752D01*
X07499948Y06003438D01*
X07500869Y05984145D01*
X07502774Y05964924D01*
X07505658Y05945825D01*
X07509514Y05926899D01*
X07514331Y05908195D01*
X07520097Y05889761D01*
X07526797Y05871645D01*
X07534414Y05853895D01*
X07542927Y05836558D01*
X07552314Y05819677D01*
X07562552Y05803299D01*
X07573612Y05787464D01*
X07585467Y05772215D01*
X07598085Y05757591D01*
X07611433Y05743631D01*
X07625477Y05730371D01*
X07640180Y05717845D01*
X07655503Y05706086D01*
X07671407Y05695125D01*
X07687850Y05684991D01*
X07704788Y05675710D01*
X07722179Y05667306D01*
X07739976Y05659801D01*
X07758134Y05653215D01*
X07776604Y05647565D01*
X07795338Y05642865D01*
X07814288Y05639129D01*
X07833405Y05636365D01*
X07852637Y05634580D01*
X07871935Y05633781D01*
X07891249Y05633968D01*
X07910529Y05635141D01*
X07929723Y05637297D01*
X07948782Y05640431D01*
X07967656Y05644534D01*
X07986296Y05649595D01*
X08004653Y05655602D01*
X08022679Y05662538D01*
X08040328Y05670387D01*
X08057553Y05679126D01*
X08070486Y05686440D01*
X08202238Y05817469D02*
X08211740Y05834285D01*
X08220371Y05851564D01*
X08228108Y05869262D01*
X08234931Y05887331D01*
X08240822Y05905726D01*
X08245767Y05924397D01*
X08249751Y05943297D01*
X08252765Y05962375D01*
X08254800Y05981582D01*
X08255852Y06000869D01*
X08255918Y06020183D01*
X08254997Y06039476D01*
X08253092Y06058697D01*
X08250208Y06077795D01*
X08246353Y06096722D01*
X08241535Y06115426D01*
X08235769Y06133860D01*
X08229069Y06151976D01*
X08221453Y06169726D01*
X08212940Y06187063D01*
X08203552Y06203944D01*
X08193315Y06220323D01*
X08182255Y06236157D01*
X08170400Y06251406D01*
X08157782Y06266030D01*
X08144434Y06279990D01*
X08130390Y06293251D01*
X08115687Y06305777D01*
X08100364Y06317535D01*
X08084460Y06328496D01*
X08068017Y06338630D01*
X08051079Y06347911D01*
X08033688Y06356315D01*
X08015891Y06363820D01*
X07997733Y06370406D01*
X07979263Y06376057D01*
X07960529Y06380756D01*
X07941579Y06384493D01*
X07922463Y06387257D01*
X07903230Y06389042D01*
X07883932Y06389841D01*
X07864618Y06389654D01*
X07845339Y06388481D01*
X07826144Y06386325D01*
X07807085Y06383191D01*
X07788211Y06379089D01*
X07769571Y06374027D01*
X07751214Y06368020D01*
X07733188Y06361084D01*
X07715539Y06353236D01*
X07698314Y06344497D01*
X07685343Y06337160D01*
X08586594Y08374016D02*
Y06799212D01*
X06578720D01*
Y08374016D01*
X08586594D01*
X08204170Y07395532D02*
X08200904Y07389593D01*
X08198533Y07383243D01*
X08197108Y07376617D01*
X08196659Y07369854D01*
X08197195Y07363097D01*
X08198705Y07356489D01*
X08201157Y07350171D01*
X08204499Y07344274D01*
X08208661Y07338924D01*
X08213554Y07334234D01*
X08219075Y07330303D01*
X08225108Y07327214D01*
X08231525Y07325032D01*
X08238191Y07323804D01*
X08244964Y07323555D01*
X08251702Y07324290D01*
X08258262Y07325995D01*
X08264506Y07328633D01*
X08270301Y07332148D01*
X08275525Y07336465D01*
X08280069Y07341495D01*
X08283445Y07346457D01*
X08294010Y07365256D01*
X08303704Y07384519D01*
X08312507Y07404205D01*
X08320400Y07424274D01*
X08327367Y07444682D01*
X08333393Y07465388D01*
X08338465Y07486348D01*
X08342573Y07507518D01*
X08345708Y07528853D01*
X08347864Y07550310D01*
X08349037Y07571843D01*
X08349222Y07593407D01*
X08348422Y07614957D01*
X08346636Y07636447D01*
X08343869Y07657834D01*
X08340126Y07679071D01*
X08335416Y07700116D01*
X08329748Y07720922D01*
X08323134Y07741448D01*
X08315588Y07761649D01*
X08307126Y07781484D01*
X08297765Y07800911D01*
X08287525Y07819890D01*
X08276428Y07838380D01*
X08264496Y07856344D01*
X08251756Y07873742D01*
X08238232Y07890540D01*
X08223955Y07906701D01*
X08208953Y07922192D01*
X08193257Y07936981D01*
X08176902Y07951036D01*
X08159921Y07964329D01*
X08142350Y07976830D01*
X08124225Y07988515D01*
X08105585Y07999358D01*
X08086468Y08009337D01*
X08066915Y08018431D01*
X08046966Y08026622D01*
X08026663Y08033890D01*
X08006049Y08040223D01*
X07985167Y08045606D01*
X07964060Y08050028D01*
X07942773Y08053480D01*
X07921351Y08055954D01*
X07899838Y08057445D01*
X07878279Y08057951D01*
X07856719Y08057471D01*
X07835205Y08056004D01*
X07813779Y08053555D01*
X07792489Y08050128D01*
X07771377Y08045731D01*
X07750488Y08040372D01*
X07729867Y08034064D01*
X07709556Y08026818D01*
X07689597Y08018651D01*
X07670033Y08009580D01*
X07650905Y07999623D01*
X07637775Y07992126D01*
X07551696Y07777697D02*
X07554962Y07783636D01*
X07557332Y07789986D01*
X07558757Y07796612D01*
X07559206Y07803375D01*
X07558670Y07810131D01*
X07557160Y07816739D01*
X07554708Y07823058D01*
X07551366Y07828954D01*
X07547204Y07834304D01*
X07542311Y07838994D01*
X07536789Y07842925D01*
X07530756Y07846014D01*
X07524339Y07848195D01*
X07517673Y07849424D01*
X07510900Y07849673D01*
X07504162Y07848937D01*
X07497602Y07847232D01*
X07491359Y07844594D01*
X07485564Y07841080D01*
X07480339Y07836762D01*
X07475796Y07831732D01*
X07472421Y07826772D01*
X07461866Y07807986D01*
X07452181Y07788736D01*
X07443388Y07769063D01*
X07435505Y07749008D01*
X07428548Y07728613D01*
X07422532Y07707921D01*
X07417470Y07686976D01*
X07413372Y07665821D01*
X07410247Y07644500D01*
X07408101Y07623058D01*
X07406939Y07601541D01*
X07406764Y07579993D01*
X07407575Y07558460D01*
X07409371Y07536986D01*
X07412148Y07515617D01*
X07415901Y07494398D01*
X07420621Y07473373D01*
X07426299Y07452586D01*
X07432923Y07432080D01*
X07440478Y07411900D01*
X07448950Y07392086D01*
X07458319Y07372681D01*
X07468567Y07353726D01*
X07479673Y07335259D01*
X07491612Y07317320D01*
X07504359Y07299947D01*
X07517889Y07283175D01*
X07532173Y07267041D01*
X07547180Y07251577D01*
X07562879Y07236816D01*
X07579238Y07222790D01*
X07596221Y07209527D01*
X07613794Y07197056D01*
X07631920Y07185403D01*
X07650560Y07174591D01*
X07669675Y07164644D01*
X07689226Y07155583D01*
X07709171Y07147426D01*
X07729469Y07140191D01*
X07750077Y07133893D01*
X07770951Y07128545D01*
X07792048Y07124158D01*
X07813324Y07120741D01*
X07834734Y07118303D01*
X07856234Y07116847D01*
X07877777Y07116376D01*
X07899320Y07116893D01*
X07920816Y07118395D01*
X07942221Y07120880D01*
X07963489Y07124342D01*
X07984577Y07128774D01*
X08005440Y07134167D01*
X08026034Y07140510D01*
X08046316Y07147789D01*
X08066244Y07155988D01*
X08085775Y07165091D01*
X08104869Y07175079D01*
X08122027Y07185039D01*
X07637775Y07992126D02*
X07632301Y07988131D01*
X07627464Y07983385D01*
X07623366Y07977987D01*
X07620093Y07972052D01*
X07617716Y07965706D01*
X07616285Y07959081D01*
X07615828Y07952320D01*
X07616357Y07945563D01*
X07617860Y07938955D01*
X07620306Y07932634D01*
X07623641Y07926735D01*
X07627797Y07921382D01*
X07632686Y07916688D01*
X07638203Y07912752D01*
X07644232Y07909658D01*
X07650647Y07907470D01*
X07657310Y07906236D01*
X07664083Y07905981D01*
X07670820Y07906711D01*
X07677381Y07908410D01*
X07683626Y07911042D01*
X07686851Y07912851D01*
X08122027Y07185039D02*
X08126979Y07189616D01*
X08131210Y07194865D01*
X08134631Y07200675D01*
X08137169Y07206921D01*
X08138770Y07213470D01*
X08139399Y07220183D01*
X08139043Y07226916D01*
X08137709Y07233525D01*
X08135427Y07239869D01*
X08132244Y07245813D01*
X08128230Y07251230D01*
X08123468Y07256003D01*
X08118062Y07260032D01*
X08112127Y07263230D01*
X08105788Y07265529D01*
X08099183Y07266879D01*
X08092451Y07267253D01*
X08085737Y07266641D01*
X08079183Y07265058D01*
X08072930Y07262536D01*
X08069211Y07260492D01*
X07553627Y07780956D02*
X07544125Y07764140D01*
X07535495Y07746860D01*
X07527758Y07729163D01*
X07520935Y07711093D01*
X07515043Y07692698D01*
X07510099Y07674027D01*
X07506115Y07655127D01*
X07503101Y07636049D01*
X07501065Y07616842D01*
X07500013Y07597556D01*
X07499948Y07578241D01*
X07500869Y07558948D01*
X07502774Y07539727D01*
X07505658Y07520629D01*
X07509514Y07501702D01*
X07514331Y07482998D01*
X07520097Y07464564D01*
X07526797Y07446448D01*
X07534414Y07428698D01*
X07542927Y07411361D01*
X07552314Y07394480D01*
X07562552Y07378102D01*
X07573612Y07362267D01*
X07585467Y07347018D01*
X07598085Y07332394D01*
X07611433Y07318434D01*
X07625477Y07305174D01*
X07640180Y07292648D01*
X07655503Y07280889D01*
X07671407Y07269929D01*
X07687850Y07259794D01*
X07704788Y07250513D01*
X07722179Y07242109D01*
X07739976Y07234604D01*
X07758134Y07228018D01*
X07776604Y07222368D01*
X07795338Y07217668D01*
X07814288Y07213932D01*
X07833405Y07211168D01*
X07852637Y07209384D01*
X07871935Y07208584D01*
X07891249Y07208771D01*
X07910529Y07209944D01*
X07929723Y07212100D01*
X07948782Y07215234D01*
X07967656Y07219337D01*
X07986296Y07224398D01*
X08004653Y07230405D01*
X08022679Y07237342D01*
X08040328Y07245190D01*
X08057553Y07253929D01*
X08070486Y07261244D01*
X08202238Y07392272D02*
X08211740Y07409088D01*
X08220371Y07426367D01*
X08228108Y07444065D01*
X08234931Y07462134D01*
X08240822Y07480529D01*
X08245767Y07499200D01*
X08249751Y07518100D01*
X08252765Y07537178D01*
X08254800Y07556385D01*
X08255852Y07575672D01*
X08255918Y07594987D01*
X08254997Y07614280D01*
X08253092Y07633500D01*
X08250208Y07652599D01*
X08246353Y07671525D01*
X08241535Y07690229D01*
X08235769Y07708664D01*
X08229069Y07726779D01*
X08221453Y07744529D01*
X08212940Y07761867D01*
X08203552Y07778747D01*
X08193315Y07795126D01*
X08182255Y07810960D01*
X08170400Y07826209D01*
X08157782Y07840833D01*
X08144434Y07854794D01*
X08130390Y07868054D01*
X08115687Y07880580D01*
X08100364Y07892338D01*
X08084460Y07903299D01*
X08068017Y07913433D01*
X08051079Y07922714D01*
X08033688Y07931119D01*
X08015891Y07938623D01*
X07997733Y07945210D01*
X07979263Y07950860D01*
X07960529Y07955560D01*
X07941579Y07959296D01*
X07922463Y07962061D01*
X07903230Y07963845D01*
X07883932Y07964644D01*
X07864618Y07964457D01*
X07845339Y07963284D01*
X07826144Y07961128D01*
X07807085Y07957995D01*
X07788211Y07953892D01*
X07769571Y07948830D01*
X07751214Y07942824D01*
X07733188Y07935887D01*
X07715539Y07928039D01*
X07698314Y07919300D01*
X07685343Y07911963D01*
X06078720Y08874016D02*
X09086594D01*
Y-00000000D01*
X06078720D01*
Y08874016D01*
X08586594D02*
Y-00000000D01*
X06578720Y08874016D02*
Y-00000000D01*
X09086594Y00500000D02*
X06078720D01*
Y02074803D02*
X09086594D01*
X06078720Y03649606D02*
X09086594D01*
X06078720Y05224409D02*
X09086594D01*
X06078720Y06799213D02*
X09086594D01*
X06078720Y08374016D02*
X09086594D01*
M02*
