*
%FSLAX26Y26*%
%MOIN*%
%ADD10C,0.004900*%
%ADD11C,0.007900*%
%ADD12C,0.011800*%
%ADD13C,0.043300*%
%IPPOS*%
%LN1d.gbx*%
%LPD*%
G75*
G54D10*
X00822047Y01206693D03*
X00822441Y01225591D03*
Y01188976D03*
X00822835Y01131890D03*
X00824409Y01095669D03*
X00827165Y01175197D03*
X00827953Y01534252D03*
X00829134Y01561811D03*
Y00851181D03*
X00830315Y00831102D03*
X00833413Y01132300D03*
X00836703Y01325501D03*
X00841732Y00866929D03*
X00842126Y01620866D03*
X00843253Y01479582D03*
X00844882Y01135039D03*
X00847244Y01171654D03*
X00850394Y00935039D03*
X00850787Y01320866D03*
X00852756Y00866535D03*
X00854724Y00840157D03*
X00857874Y01131890D03*
X00857894Y01480331D03*
X00860630Y01714567D03*
X00862205Y00931102D03*
X00862220Y01092534D03*
X00863780Y00866535D03*
X00866142Y00962598D03*
Y00946850D03*
X00868110Y01134252D03*
X00869685Y01597638D03*
X00870098Y01434036D03*
X00872835Y01122441D03*
X00893701Y01647638D03*
X00901575Y00958661D03*
X00902756Y01137795D03*
X00903524Y01425591D03*
X00903563Y01331102D03*
X00904331Y01463780D03*
Y01443701D03*
X00905512Y01625984D03*
X00912205Y00881496D03*
X00913386Y01119685D03*
Y01105906D03*
Y01092520D03*
X00917323Y01708661D03*
X00918898Y01075197D03*
X00925197Y00946850D03*
Y00923228D03*
Y00899606D03*
X00932677Y00878346D03*
X00933071Y01436988D03*
X00938976Y01667323D03*
X00941732Y00828346D03*
X00944882Y01702756D03*
Y00946850D03*
Y00923228D03*
Y00899606D03*
X00946043Y01208485D03*
X00953937Y01095669D03*
X00955512Y00842520D03*
X00956713Y01525591D03*
X00964567Y00946850D03*
Y00923228D03*
Y00899606D03*
Y00856299D03*
X00966142Y01098425D03*
X00968504Y01207480D03*
Y01049213D03*
Y00826772D03*
X00968968Y01002432D03*
X00970866Y01437008D03*
X00972441Y01667323D03*
Y01064961D03*
X00976378Y01076772D03*
X00980315Y01206693D03*
X00985039Y01437008D03*
X00992126Y01667323D03*
X00996063Y00828740D03*
X01001949Y01437018D03*
X01007874Y01207874D03*
X01011811Y01667323D03*
X01013740Y01436988D03*
X01015748Y01714567D03*
X01019685Y01207087D03*
X01029508Y01082982D03*
X01031496Y01667323D03*
X01043307Y01104331D03*
X01045276Y01436988D03*
X01048819Y01157087D03*
X01049606Y01144094D03*
X01051181Y01667323D03*
X01053937Y00823228D03*
X01057067Y01436988D03*
X01059055Y01108268D03*
Y01096457D03*
X01061811Y01156693D03*
X01070866Y01667323D03*
Y00824803D03*
X01071322Y01033207D03*
X01078740Y00982283D03*
X01084665Y01436988D03*
X01086614Y01714567D03*
X01090551Y01667323D03*
Y00962598D03*
X01091899Y00824463D03*
X01096437Y00860236D03*
X01098031Y00846457D03*
X01101812Y01000037D03*
X01103937Y01208268D03*
X01110236Y01667323D03*
X01116142Y01437008D03*
X01122835Y01208681D03*
X01125591Y01072047D03*
X01129921Y01667323D03*
X01130709Y00824016D03*
X01131870Y01350787D03*
Y01341339D03*
X01131909Y01359862D03*
X01135827Y00968110D03*
X01144882Y00999606D03*
X01149606Y01667323D03*
X01156299Y01189370D03*
X01158661Y00825197D03*
X01159463Y01435266D03*
X01162205Y01072835D03*
X01164567Y00855512D03*
X01167323Y01029940D03*
X01169291Y01667323D03*
X01170866Y01114961D03*
X01175197Y00923228D03*
X01175281Y01365832D03*
X01177953Y01022657D03*
X01178276Y01314382D03*
X01180709Y00889370D03*
X01182363Y01091896D03*
X01183049Y01411205D03*
X01183191Y01251988D03*
X01185020Y01519261D03*
Y01483886D03*
X01185039Y01568898D03*
X01185059Y01507469D03*
Y01495678D03*
X01187008Y01048209D03*
X01188957Y01192126D03*
X01188976Y01712598D03*
Y01665354D03*
Y01206319D03*
X01189567Y01178543D03*
X01196850Y00856299D03*
X01208654Y01100035D03*
X01205188Y00847961D03*
X01205512Y01271673D03*
X01206693Y01296457D03*
X01208661Y01663386D03*
X01212205Y01689370D03*
X01212598Y01232283D03*
X01214587Y01411325D03*
X01214736Y01387852D03*
X01220054Y01091335D03*
X01216535Y01399606D03*
X01217769Y01435186D03*
X01220472Y00849961D03*
X01222441Y01110236D03*
X01224409Y01354724D03*
X01228346Y01631890D03*
X01232283Y01274429D03*
X01235433Y00854331D03*
X01235613Y01565156D03*
X01238321Y00885846D03*
X01241339Y01652756D03*
X01241673Y01110610D03*
X01244094Y01631890D03*
Y01173209D03*
X01248819Y01712992D03*
Y01431102D03*
X01249118Y01278713D03*
X01250000Y01259843D03*
X01250065Y01216250D03*
X01250630Y01242163D03*
X01253937Y01358268D03*
X01257874Y01169291D03*
X01261140Y01566055D03*
X01261811Y00824409D03*
X01262618Y01262904D03*
X01262710Y01199924D03*
X01263780Y01631890D03*
X01264173Y01647638D03*
X01264703Y01246972D03*
X01265413Y01386949D03*
X01265748Y01275591D03*
X01275000Y01090551D03*
X01277160Y01387981D03*
X01278483Y01278657D03*
X01279528Y01324803D03*
X01280484Y01215502D03*
X01280614Y01292154D03*
X01280681Y01247150D03*
X01281496Y01633858D03*
X01281870Y01233670D03*
X01299654Y01482235D03*
X01285454Y01104135D03*
X01291339Y01516122D03*
X01292520Y01711811D03*
X01293990Y01276375D03*
X01294094Y01213386D03*
X01294523Y01170276D03*
X01296429Y01292220D03*
X01296850Y01260236D03*
X01301181Y01455118D03*
X01302362Y01421280D03*
X01305866Y01211575D03*
X01309055Y01228346D03*
X01309573Y01294609D03*
X01309870Y01276472D03*
X01312056Y01337864D03*
X01312550Y01325909D03*
X01313153Y01243758D03*
X01317636Y01170138D03*
X01321569Y01440551D03*
X01325197Y01483858D03*
X01325618Y01247150D03*
X01325783Y01215592D03*
X01326772Y01712598D03*
X01330709Y01637795D03*
X01332697Y00853543D03*
X01342126Y01472835D03*
X01342520Y01529921D03*
X01343459Y01214567D03*
X01344508Y01547638D03*
X01344882Y01386614D03*
X01352362Y01450787D03*
Y01338583D03*
X01358180Y01110824D03*
X01358268Y01088976D03*
X01360616Y01210223D03*
X01361024Y01638189D03*
X01362205Y01385827D03*
X01362598Y01678346D03*
X01364567Y01533071D03*
X01366122Y01352567D03*
X01367717Y01516535D03*
X01368110Y01277559D03*
X01370079Y00862598D03*
X01374016Y01320866D03*
X01374257Y01377937D03*
X01381909Y01231023D03*
X01389370Y01323622D03*
X01390945Y00920866D03*
X01391713Y00901181D03*
X01393307Y00850787D03*
X01395650Y00958661D03*
Y00937008D03*
X01396457Y01125591D03*
X01397244Y01081102D03*
X01397638Y01012992D03*
X01525591Y01448819D03*
X01533465Y01460236D03*
X01553150Y01413386D03*
X01559055Y01490157D03*
X01575591Y01361417D03*
X01582677Y01435039D03*
X02053051Y01096457D03*
G54D11*
X00578740Y01131890D03*
X00598425Y01604331D03*
X00602362Y00580709D03*
X00618110Y02037402D03*
X00854331Y01273622D03*
X00888189Y01194882D03*
X00902579Y00918898D03*
X01070866Y01144094D03*
X01071654Y02055118D03*
X01082677Y01080709D03*
X01124035Y01120079D03*
X01126567Y00887942D03*
X01131642Y01165850D03*
X01145393Y01179411D03*
X01171671Y01083235D03*
X01173228Y01155512D03*
X01208661Y00580709D03*
X01228346Y00946850D03*
X01232283Y00915354D03*
X01259843Y00966535D03*
X01267717Y00935039D03*
X01271498Y01493768D03*
X01271634Y01009769D03*
X01275591Y00907480D03*
X01276772Y00835039D03*
X01299606Y00941732D03*
X01301349Y00969123D03*
X01303150Y01001969D03*
X01310953Y01466465D03*
X01318898Y00910236D03*
X01330689Y00941732D03*
X01338583Y01017717D03*
X01365532Y01050393D03*
X01393701Y01051969D03*
X01562992Y02076772D03*
X01618110Y01807087D03*
X01645669Y00647638D03*
X02194783Y00685039D03*
X02196850Y02061024D03*
X02200787Y01799213D03*
G54D12*
X00885995Y01155286D03*
X00894882Y01103937D03*
X01000000Y01014567D03*
G54D13*
X01856693Y01465748D03*
Y01365748D03*
Y01265748D03*
Y01165748D03*
Y01065748D03*
X01956693Y01465748D03*
Y01365748D03*
Y01265748D03*
Y01165748D03*
Y01065748D03*
G54D10*
X00822047Y02864173D03*
X00822441Y02883071D03*
Y02846457D03*
X00822835Y02789370D03*
X00824409Y02753150D03*
X00827165Y02832677D03*
X00827953Y03191732D03*
X00829134Y03219291D03*
Y02508661D03*
X00830315Y02488583D03*
X00833413Y02789780D03*
X00836703Y02982982D03*
X00841732Y02524409D03*
X00842126Y03278346D03*
X00843253Y03137062D03*
X00844882Y02792520D03*
X00847244Y02829134D03*
X00850394Y02592520D03*
X00850787Y02978346D03*
X00852756Y02524016D03*
X00854724Y02497638D03*
X00857874Y02789370D03*
X00857894Y03137811D03*
X00860630Y03372047D03*
X00862205Y02588583D03*
X00862220Y02750014D03*
X00863780Y02524016D03*
X00866142Y02620079D03*
Y02604331D03*
X00868110Y02791732D03*
X00869685Y03255118D03*
X00870098Y03091516D03*
X00872835Y02779921D03*
X00893701Y03305118D03*
X00901575Y02616142D03*
X00902756Y02795276D03*
X00903524Y03083071D03*
X00903563Y02988583D03*
X00904331Y03121260D03*
Y03101181D03*
X00905512Y03283465D03*
X00912205Y02538976D03*
X00913386Y02777165D03*
Y02763386D03*
Y02750000D03*
X00917323Y03366142D03*
X00918898Y02732677D03*
X00925197Y02604331D03*
Y02580709D03*
Y02557087D03*
X00932677Y02535827D03*
X00933071Y03094469D03*
X00938976Y03324803D03*
X00941732Y02485827D03*
X00944882Y03360236D03*
Y02604331D03*
Y02580709D03*
Y02557087D03*
X00946043Y02865966D03*
X00953937Y02753150D03*
X00955512Y02500000D03*
X00956713Y03183071D03*
X00964567Y02604331D03*
Y02580709D03*
Y02557087D03*
Y02513780D03*
X00966142Y02755906D03*
X00968504Y02864961D03*
Y02706693D03*
Y02484252D03*
X00968968Y02659913D03*
X00970866Y03094488D03*
X00972441Y03324803D03*
Y02722441D03*
X00976378Y02734252D03*
X00980315Y02864173D03*
X00985039Y03094488D03*
X00992126Y03324803D03*
X00996063Y02486220D03*
X01001949Y03094498D03*
X01007874Y02865354D03*
X01011811Y03324803D03*
X01013740Y03094469D03*
X01015748Y03372047D03*
X01019685Y02864567D03*
X01029508Y02740462D03*
X01031496Y03324803D03*
X01043307Y02761811D03*
X01045276Y03094469D03*
X01048819Y02814567D03*
X01049606Y02801575D03*
X01051181Y03324803D03*
X01053937Y02480709D03*
X01057067Y03094469D03*
X01059055Y02765748D03*
Y02753937D03*
X01061811Y02814173D03*
X01070866Y03324803D03*
Y02482283D03*
X01071322Y02690687D03*
X01078740Y02639764D03*
X01084665Y03094469D03*
X01086614Y03372047D03*
X01090551Y03324803D03*
Y02620079D03*
X01091899Y02481943D03*
X01096437Y02517717D03*
X01098031Y02503937D03*
X01101812Y02657517D03*
X01103937Y02865748D03*
X01110236Y03324803D03*
X01116142Y03094488D03*
X01122835Y02866161D03*
X01125591Y02729528D03*
X01129921Y03324803D03*
X01130709Y02481496D03*
X01131870Y03008268D03*
Y02998819D03*
X01131909Y03017343D03*
X01135827Y02625591D03*
X01144882Y02657087D03*
X01149606Y03324803D03*
X01156299Y02846850D03*
X01158661Y02482677D03*
X01159463Y03092747D03*
X01162205Y02730315D03*
X01164567Y02512992D03*
X01167323Y02687420D03*
X01169291Y03324803D03*
X01170866Y02772441D03*
X01175197Y02580709D03*
X01175281Y03023312D03*
X01177953Y02680138D03*
X01178276Y02971862D03*
X01180709Y02546850D03*
X01182363Y02749376D03*
X01183049Y03068685D03*
X01183191Y02909469D03*
X01185020Y03176741D03*
Y03141367D03*
X01185039Y03226378D03*
X01185059Y03164950D03*
Y03153158D03*
X01187008Y02705689D03*
X01188957Y02849606D03*
X01188976Y03370079D03*
Y03322835D03*
Y02863799D03*
X01189567Y02836023D03*
X01196850Y02513780D03*
X01208654Y02757515D03*
X01205188Y02505442D03*
X01205512Y02929154D03*
X01206693Y02953937D03*
X01208661Y03320866D03*
X01212205Y03346850D03*
X01212598Y02889764D03*
X01214587Y03068805D03*
X01214736Y03045332D03*
X01220054Y02748815D03*
X01216535Y03057087D03*
X01217769Y03092666D03*
X01220472Y02507442D03*
X01222441Y02767717D03*
X01224409Y03012205D03*
X01228346Y03289370D03*
X01232283Y02931909D03*
X01235433Y02511811D03*
X01235613Y03222636D03*
X01238321Y02543327D03*
X01241339Y03310236D03*
X01241673Y02768090D03*
X01244094Y03289370D03*
Y02830689D03*
X01248819Y03370472D03*
Y03088583D03*
X01249118Y02936193D03*
X01250000Y02917323D03*
X01250065Y02873731D03*
X01250630Y02899643D03*
X01253937Y03015748D03*
X01257874Y02826772D03*
X01261140Y03223535D03*
X01261811Y02481890D03*
X01262618Y02920384D03*
X01262710Y02857405D03*
X01263780Y03289370D03*
X01264173Y03305118D03*
X01264703Y02904453D03*
X01265413Y03044429D03*
X01265748Y02933071D03*
X01275000Y02748031D03*
X01277160Y03045462D03*
X01278483Y02936137D03*
X01279528Y02982283D03*
X01280484Y02872982D03*
X01280614Y02949634D03*
X01280681Y02904630D03*
X01281496Y03291339D03*
X01281870Y02891150D03*
X01299654Y03139715D03*
X01285454Y02761615D03*
X01291339Y03173602D03*
X01292520Y03369291D03*
X01293990Y02933855D03*
X01294094Y02870866D03*
X01294523Y02827756D03*
X01296429Y02949701D03*
X01296850Y02917717D03*
X01301181Y03112598D03*
X01302362Y03078760D03*
X01305866Y02869055D03*
X01309055Y02885827D03*
X01309573Y02952089D03*
X01309870Y02933953D03*
X01312056Y02995344D03*
X01312550Y02983389D03*
X01313153Y02901238D03*
X01317636Y02827618D03*
X01321569Y03098031D03*
X01325197Y03141339D03*
X01325618Y02904630D03*
X01325783Y02873072D03*
X01326772Y03370079D03*
X01330709Y03295276D03*
X01332697Y02511024D03*
X01342126Y03130315D03*
X01342520Y03187402D03*
X01343459Y02872047D03*
X01344508Y03205118D03*
X01344882Y03044094D03*
X01352362Y03108268D03*
Y02996063D03*
X01358180Y02768304D03*
X01358268Y02746457D03*
X01360616Y02867703D03*
X01361024Y03295669D03*
X01362205Y03043307D03*
X01362598Y03335827D03*
X01364567Y03190551D03*
X01366122Y03010048D03*
X01367717Y03174016D03*
X01368110Y02935039D03*
X01370079Y02520079D03*
X01374016Y02978346D03*
X01374257Y03035417D03*
X01381909Y02888503D03*
X01389370Y02981102D03*
X01390945Y02578346D03*
X01391713Y02558661D03*
X01393307Y02508268D03*
X01395650Y02616142D03*
Y02594488D03*
X01396457Y02783071D03*
X01397244Y02738583D03*
X01397638Y02670472D03*
X01525591Y03106299D03*
X01533465Y03117717D03*
X01553150Y03070866D03*
X01559055Y03147638D03*
X01575591Y03018898D03*
X01582677Y03092520D03*
X02053051Y02753937D03*
G54D11*
X00578740Y02789370D03*
X00598425Y03261811D03*
X00602362Y02238189D03*
X00618110Y03694882D03*
X00854331Y02931102D03*
X00888189Y02852362D03*
X00902579Y02576378D03*
X01070866Y02801575D03*
X01071654Y03712598D03*
X01082677Y02738189D03*
X01124035Y02777559D03*
X01126567Y02545423D03*
X01131642Y02823331D03*
X01145393Y02836891D03*
X01171671Y02740715D03*
X01173228Y02812992D03*
X01208661Y02238189D03*
X01228346Y02604331D03*
X01232283Y02572835D03*
X01259843Y02624016D03*
X01267717Y02592520D03*
X01271498Y03151249D03*
X01271634Y02667249D03*
X01275591Y02564961D03*
X01276772Y02492520D03*
X01299606Y02599213D03*
X01301349Y02626604D03*
X01303150Y02659449D03*
X01310953Y03123945D03*
X01318898Y02567717D03*
X01330689Y02599213D03*
X01338583Y02675197D03*
X01365532Y02707873D03*
X01393701Y02709449D03*
X01562992Y03734252D03*
X01618110Y03464567D03*
X01645669Y02305118D03*
X02194783Y02342520D03*
X02196850Y03718504D03*
X02200787Y03456693D03*
G54D12*
X00885995Y02812767D03*
X00894882Y02761417D03*
X01000000Y02672047D03*
G54D13*
X01856693Y03123228D03*
Y03023228D03*
Y02923228D03*
Y02823228D03*
Y02723228D03*
X01956693Y03123228D03*
Y03023228D03*
Y02923228D03*
Y02823228D03*
Y02723228D03*
G54D10*
X00822047Y04521654D03*
X00822441Y04540551D03*
Y04503937D03*
X00822835Y04446850D03*
X00824409Y04410630D03*
X00827165Y04490157D03*
X00827953Y04849213D03*
X00829134Y04876772D03*
Y04166142D03*
X00830315Y04146063D03*
X00833413Y04447261D03*
X00836703Y04640462D03*
X00841732Y04181890D03*
X00842126Y04935827D03*
X00843253Y04794542D03*
X00844882Y04450000D03*
X00847244Y04486614D03*
X00850394Y04250000D03*
X00850787Y04635827D03*
X00852756Y04181496D03*
X00854724Y04155118D03*
X00857874Y04446850D03*
X00857894Y04795291D03*
X00860630Y05029528D03*
X00862205Y04246063D03*
X00862220Y04407495D03*
X00863780Y04181496D03*
X00866142Y04277559D03*
Y04261811D03*
X00868110Y04449213D03*
X00869685Y04912598D03*
X00870098Y04748996D03*
X00872835Y04437402D03*
X00893701Y04962598D03*
X00901575Y04273622D03*
X00902756Y04452756D03*
X00903524Y04740551D03*
X00903563Y04646063D03*
X00904331Y04778740D03*
Y04758661D03*
X00905512Y04940945D03*
X00912205Y04196457D03*
X00913386Y04434646D03*
Y04420866D03*
Y04407480D03*
X00917323Y05023622D03*
X00918898Y04390157D03*
X00925197Y04261811D03*
Y04238189D03*
Y04214567D03*
X00932677Y04193307D03*
X00933071Y04751949D03*
X00938976Y04982283D03*
X00941732Y04143307D03*
X00944882Y05017717D03*
Y04261811D03*
Y04238189D03*
Y04214567D03*
X00946043Y04523446D03*
X00953937Y04410630D03*
X00955512Y04157480D03*
X00956713Y04840551D03*
X00964567Y04261811D03*
Y04238189D03*
Y04214567D03*
Y04171260D03*
X00966142Y04413386D03*
X00968504Y04522441D03*
Y04364173D03*
Y04141732D03*
X00968968Y04317393D03*
X00970866Y04751969D03*
X00972441Y04982283D03*
Y04379921D03*
X00976378Y04391732D03*
X00980315Y04521654D03*
X00985039Y04751969D03*
X00992126Y04982283D03*
X00996063Y04143701D03*
X01001949Y04751978D03*
X01007874Y04522835D03*
X01011811Y04982283D03*
X01013740Y04751949D03*
X01015748Y05029528D03*
X01019685Y04522047D03*
X01029508Y04397942D03*
X01031496Y04982283D03*
X01043307Y04419291D03*
X01045276Y04751949D03*
X01048819Y04472047D03*
X01049606Y04459055D03*
X01051181Y04982283D03*
X01053937Y04138189D03*
X01057067Y04751949D03*
X01059055Y04423228D03*
Y04411417D03*
X01061811Y04471654D03*
X01070866Y04982283D03*
Y04139764D03*
X01071322Y04348167D03*
X01078740Y04297244D03*
X01084665Y04751949D03*
X01086614Y05029528D03*
X01090551Y04982283D03*
Y04277559D03*
X01091899Y04139423D03*
X01096437Y04175197D03*
X01098031Y04161417D03*
X01101812Y04314998D03*
X01103937Y04523228D03*
X01110236Y04982283D03*
X01116142Y04751969D03*
X01122835Y04523642D03*
X01125591Y04387008D03*
X01129921Y04982283D03*
X01130709Y04138976D03*
X01131870Y04665748D03*
Y04656299D03*
X01131909Y04674823D03*
X01135827Y04283071D03*
X01144882Y04314567D03*
X01149606Y04982283D03*
X01156299Y04504331D03*
X01158661Y04140157D03*
X01159463Y04750227D03*
X01162205Y04387795D03*
X01164567Y04170472D03*
X01167323Y04344901D03*
X01169291Y04982283D03*
X01170866Y04429921D03*
X01175197Y04238189D03*
X01175281Y04680793D03*
X01177953Y04337618D03*
X01178276Y04629343D03*
X01180709Y04204331D03*
X01182363Y04406857D03*
X01183049Y04726166D03*
X01183191Y04566949D03*
X01185020Y04834221D03*
Y04798847D03*
X01185039Y04883858D03*
X01185059Y04822430D03*
Y04810638D03*
X01187008Y04363169D03*
X01188957Y04507087D03*
X01188976Y05027559D03*
Y04980315D03*
Y04521280D03*
X01189567Y04493504D03*
X01196850Y04171260D03*
X01208654Y04414995D03*
X01205188Y04162922D03*
X01205512Y04586634D03*
X01206693Y04611417D03*
X01208661Y04978346D03*
X01212205Y05004331D03*
X01212598Y04547244D03*
X01214587Y04726286D03*
X01214736Y04702813D03*
X01220054Y04406295D03*
X01216535Y04714567D03*
X01217769Y04750146D03*
X01220472Y04164922D03*
X01222441Y04425197D03*
X01224409Y04669685D03*
X01228346Y04946850D03*
X01232283Y04589390D03*
X01235433Y04169291D03*
X01235613Y04880116D03*
X01238321Y04200807D03*
X01241339Y04967717D03*
X01241673Y04425571D03*
X01244094Y04946850D03*
Y04488169D03*
X01248819Y05027953D03*
Y04746063D03*
X01249118Y04593673D03*
X01250000Y04574803D03*
X01250065Y04531211D03*
X01250630Y04557123D03*
X01253937Y04673228D03*
X01257874Y04484252D03*
X01261140Y04881016D03*
X01261811Y04139370D03*
X01262618Y04577864D03*
X01262710Y04514885D03*
X01263780Y04946850D03*
X01264173Y04962598D03*
X01264703Y04561933D03*
X01265413Y04701909D03*
X01265748Y04590551D03*
X01275000Y04405512D03*
X01277160Y04702942D03*
X01278483Y04593617D03*
X01279528Y04639764D03*
X01280484Y04530463D03*
X01280614Y04607114D03*
X01280681Y04562110D03*
X01281496Y04948819D03*
X01281870Y04548631D03*
X01299654Y04797195D03*
X01285454Y04419095D03*
X01291339Y04831083D03*
X01292520Y05026772D03*
X01293990Y04591335D03*
X01294094Y04528346D03*
X01294523Y04485236D03*
X01296429Y04607181D03*
X01296850Y04575197D03*
X01301181Y04770079D03*
X01302362Y04736240D03*
X01305866Y04526535D03*
X01309055Y04543307D03*
X01309573Y04609570D03*
X01309870Y04591433D03*
X01312056Y04652825D03*
X01312550Y04640869D03*
X01313153Y04558718D03*
X01317636Y04485098D03*
X01321569Y04755512D03*
X01325197Y04798819D03*
X01325618Y04562110D03*
X01325783Y04530553D03*
X01326772Y05027559D03*
X01330709Y04952756D03*
X01332697Y04168504D03*
X01342126Y04787795D03*
X01342520Y04844882D03*
X01343459Y04529528D03*
X01344508Y04862598D03*
X01344882Y04701575D03*
X01352362Y04765748D03*
Y04653543D03*
X01358180Y04425784D03*
X01358268Y04403937D03*
X01360616Y04525183D03*
X01361024Y04953150D03*
X01362205Y04700787D03*
X01362598Y04993307D03*
X01364567Y04848031D03*
X01366122Y04667528D03*
X01367717Y04831496D03*
X01368110Y04592520D03*
X01370079Y04177559D03*
X01374016Y04635827D03*
X01374257Y04692898D03*
X01381909Y04545983D03*
X01389370Y04638583D03*
X01390945Y04235827D03*
X01391713Y04216142D03*
X01393307Y04165748D03*
X01395650Y04273622D03*
Y04251969D03*
X01396457Y04440551D03*
X01397244Y04396063D03*
X01397638Y04327953D03*
X01525591Y04763780D03*
X01533465Y04775197D03*
X01553150Y04728346D03*
X01559055Y04805118D03*
X01575591Y04676378D03*
X01582677Y04750000D03*
X02053051Y04411417D03*
G54D11*
X00578740Y04446850D03*
X00598425Y04919291D03*
X00602362Y03895669D03*
X00618110Y05352362D03*
X00854331Y04588583D03*
X00888189Y04509843D03*
X00902579Y04233858D03*
X01070866Y04459055D03*
X01071654Y05370079D03*
X01082677Y04395669D03*
X01124035Y04435039D03*
X01126567Y04202903D03*
X01131642Y04480811D03*
X01145393Y04494371D03*
X01171671Y04398195D03*
X01173228Y04470472D03*
X01208661Y03895669D03*
X01228346Y04261811D03*
X01232283Y04230315D03*
X01259843Y04281496D03*
X01267717Y04250000D03*
X01271498Y04808729D03*
X01271634Y04324730D03*
X01275591Y04222441D03*
X01276772Y04150000D03*
X01299606Y04256693D03*
X01301349Y04284084D03*
X01303150Y04316929D03*
X01310953Y04781425D03*
X01318898Y04225197D03*
X01330689Y04256693D03*
X01338583Y04332677D03*
X01365532Y04365353D03*
X01393701Y04366929D03*
X01562992Y05391732D03*
X01618110Y05122047D03*
X01645669Y03962598D03*
X02194783Y04000000D03*
X02196850Y05375984D03*
X02200787Y05114173D03*
G54D12*
X00885995Y04470247D03*
X00894882Y04418898D03*
X01000000Y04329528D03*
G54D13*
X01856693Y04780709D03*
Y04680709D03*
Y04580709D03*
Y04480709D03*
Y04380709D03*
X01956693Y04780709D03*
Y04680709D03*
Y04580709D03*
Y04480709D03*
Y04380709D03*
G54D10*
X00822047Y06179134D03*
X00822441Y06198031D03*
Y06161417D03*
X00822835Y06104331D03*
X00824409Y06068110D03*
X00827165Y06147638D03*
X00827953Y06506693D03*
X00829134Y06534252D03*
Y05823622D03*
X00830315Y05803543D03*
X00833413Y06104741D03*
X00836703Y06297942D03*
X00841732Y05839370D03*
X00842126Y06593307D03*
X00843253Y06452023D03*
X00844882Y06107480D03*
X00847244Y06144094D03*
X00850394Y05907480D03*
X00850787Y06293307D03*
X00852756Y05838976D03*
X00854724Y05812598D03*
X00857874Y06104331D03*
X00857894Y06452772D03*
X00860630Y06687008D03*
X00862205Y05903543D03*
X00862220Y06064975D03*
X00863780Y05838976D03*
X00866142Y05935039D03*
Y05919291D03*
X00868110Y06106693D03*
X00869685Y06570079D03*
X00870098Y06406476D03*
X00872835Y06094882D03*
X00893701Y06620079D03*
X00901575Y05931102D03*
X00902756Y06110236D03*
X00903524Y06398031D03*
X00903563Y06303543D03*
X00904331Y06436220D03*
Y06416142D03*
X00905512Y06598425D03*
X00912205Y05853937D03*
X00913386Y06092126D03*
Y06078346D03*
Y06064961D03*
X00917323Y06681102D03*
X00918898Y06047638D03*
X00925197Y05919291D03*
Y05895669D03*
Y05872047D03*
X00932677Y05850787D03*
X00933071Y06409429D03*
X00938976Y06639764D03*
X00941732Y05800787D03*
X00944882Y06675197D03*
Y05919291D03*
Y05895669D03*
Y05872047D03*
X00946043Y06180926D03*
X00953937Y06068110D03*
X00955512Y05814961D03*
X00956713Y06498031D03*
X00964567Y05919291D03*
Y05895669D03*
Y05872047D03*
Y05828740D03*
X00966142Y06070866D03*
X00968504Y06179921D03*
Y06021654D03*
Y05799213D03*
X00968968Y05974873D03*
X00970866Y06409449D03*
X00972441Y06639764D03*
Y06037402D03*
X00976378Y06049213D03*
X00980315Y06179134D03*
X00985039Y06409449D03*
X00992126Y06639764D03*
X00996063Y05801181D03*
X01001949Y06409459D03*
X01007874Y06180315D03*
X01011811Y06639764D03*
X01013740Y06409429D03*
X01015748Y06687008D03*
X01019685Y06179528D03*
X01029508Y06055423D03*
X01031496Y06639764D03*
X01043307Y06076772D03*
X01045276Y06409429D03*
X01048819Y06129528D03*
X01049606Y06116535D03*
X01051181Y06639764D03*
X01053937Y05795669D03*
X01057067Y06409429D03*
X01059055Y06080709D03*
Y06068898D03*
X01061811Y06129134D03*
X01070866Y06639764D03*
Y05797244D03*
X01071322Y06005648D03*
X01078740Y05954724D03*
X01084665Y06409429D03*
X01086614Y06687008D03*
X01090551Y06639764D03*
Y05935039D03*
X01091899Y05796904D03*
X01096437Y05832677D03*
X01098031Y05818898D03*
X01101812Y05972478D03*
X01103937Y06180709D03*
X01110236Y06639764D03*
X01116142Y06409449D03*
X01122835Y06181122D03*
X01125591Y06044488D03*
X01129921Y06639764D03*
X01130709Y05796457D03*
X01131870Y06323228D03*
Y06313780D03*
X01131909Y06332303D03*
X01135827Y05940551D03*
X01144882Y05972047D03*
X01149606Y06639764D03*
X01156299Y06161811D03*
X01158661Y05797638D03*
X01159463Y06407707D03*
X01162205Y06045276D03*
X01164567Y05827953D03*
X01167323Y06002381D03*
X01169291Y06639764D03*
X01170866Y06087402D03*
X01175197Y05895669D03*
X01175281Y06338273D03*
X01177953Y05995098D03*
X01178276Y06286823D03*
X01180709Y05861811D03*
X01182363Y06064337D03*
X01183049Y06383646D03*
X01183191Y06224429D03*
X01185020Y06491702D03*
Y06456327D03*
X01185039Y06541339D03*
X01185059Y06479910D03*
Y06468119D03*
X01187008Y06020650D03*
X01188957Y06164567D03*
X01188976Y06685039D03*
Y06637795D03*
Y06178760D03*
X01189567Y06150984D03*
X01196850Y05828740D03*
X01208654Y06072476D03*
X01205188Y05820402D03*
X01205512Y06244114D03*
X01206693Y06268898D03*
X01208661Y06635827D03*
X01212205Y06661811D03*
X01212598Y06204724D03*
X01214587Y06383766D03*
X01214736Y06360293D03*
X01220054Y06063776D03*
X01216535Y06372047D03*
X01217769Y06407627D03*
X01220472Y05822402D03*
X01222441Y06082677D03*
X01224409Y06327165D03*
X01228346Y06604331D03*
X01232283Y06246870D03*
X01235433Y05826772D03*
X01235613Y06537596D03*
X01238321Y05858287D03*
X01241339Y06625197D03*
X01241673Y06083051D03*
X01244094Y06604331D03*
Y06145650D03*
X01248819Y06685433D03*
Y06403543D03*
X01249118Y06251153D03*
X01250000Y06232283D03*
X01250065Y06188691D03*
X01250630Y06214603D03*
X01253937Y06330709D03*
X01257874Y06141732D03*
X01261140Y06538496D03*
X01261811Y05796850D03*
X01262618Y06235344D03*
X01262710Y06172365D03*
X01263780Y06604331D03*
X01264173Y06620079D03*
X01264703Y06219413D03*
X01265413Y06359390D03*
X01265748Y06248031D03*
X01275000Y06062992D03*
X01277160Y06360422D03*
X01278483Y06251098D03*
X01279528Y06297244D03*
X01280484Y06187943D03*
X01280614Y06264595D03*
X01280681Y06219591D03*
X01281496Y06606299D03*
X01281870Y06206111D03*
X01299654Y06454676D03*
X01285454Y06076576D03*
X01291339Y06488563D03*
X01292520Y06684252D03*
X01293990Y06248815D03*
X01294094Y06185827D03*
X01294523Y06142717D03*
X01296429Y06264661D03*
X01296850Y06232677D03*
X01301181Y06427559D03*
X01302362Y06393720D03*
X01305866Y06184015D03*
X01309055Y06200787D03*
X01309573Y06267050D03*
X01309870Y06248913D03*
X01312056Y06310305D03*
X01312550Y06298350D03*
X01313153Y06216199D03*
X01317636Y06142579D03*
X01321569Y06412992D03*
X01325197Y06456299D03*
X01325618Y06219591D03*
X01325783Y06188033D03*
X01326772Y06685039D03*
X01330709Y06610236D03*
X01332697Y05825984D03*
X01342126Y06445276D03*
X01342520Y06502362D03*
X01343459Y06187008D03*
X01344508Y06520079D03*
X01344882Y06359055D03*
X01352362Y06423228D03*
Y06311024D03*
X01358180Y06083265D03*
X01358268Y06061417D03*
X01360616Y06182664D03*
X01361024Y06610630D03*
X01362205Y06358268D03*
X01362598Y06650787D03*
X01364567Y06505512D03*
X01366122Y06325008D03*
X01367717Y06488976D03*
X01368110Y06250000D03*
X01370079Y05835039D03*
X01374016Y06293307D03*
X01374257Y06350378D03*
X01381909Y06203464D03*
X01389370Y06296063D03*
X01390945Y05893307D03*
X01391713Y05873622D03*
X01393307Y05823228D03*
X01395650Y05931102D03*
Y05909449D03*
X01396457Y06098031D03*
X01397244Y06053543D03*
X01397638Y05985433D03*
X01525591Y06421260D03*
X01533465Y06432677D03*
X01553150Y06385827D03*
X01559055Y06462598D03*
X01575591Y06333858D03*
X01582677Y06407480D03*
X02053051Y06068898D03*
G54D11*
X00578740Y06104331D03*
X00598425Y06576772D03*
X00602362Y05553150D03*
X00618110Y07009843D03*
X00854331Y06246063D03*
X00888189Y06167323D03*
X00902579Y05891339D03*
X01070866Y06116535D03*
X01071654Y07027559D03*
X01082677Y06053150D03*
X01124035Y06092520D03*
X01126567Y05860383D03*
X01131642Y06138291D03*
X01145393Y06151852D03*
X01171671Y06055675D03*
X01173228Y06127953D03*
X01208661Y05553150D03*
X01228346Y05919291D03*
X01232283Y05887795D03*
X01259843Y05938976D03*
X01267717Y05907480D03*
X01271498Y06466209D03*
X01271634Y05982210D03*
X01275591Y05879921D03*
X01276772Y05807480D03*
X01299606Y05914173D03*
X01301349Y05941564D03*
X01303150Y05974409D03*
X01310953Y06438906D03*
X01318898Y05882677D03*
X01330689Y05914173D03*
X01338583Y05990157D03*
X01365532Y06022833D03*
X01393701Y06024409D03*
X01562992Y07049213D03*
X01618110Y06779528D03*
X01645669Y05620079D03*
X02194783Y05657480D03*
X02196850Y07033465D03*
X02200787Y06771654D03*
G54D12*
X00885995Y06127727D03*
X00894882Y06076378D03*
X01000000Y05987008D03*
G54D13*
X01856693Y06438189D03*
Y06338189D03*
Y06238189D03*
Y06138189D03*
Y06038189D03*
X01956693Y06438189D03*
Y06338189D03*
Y06238189D03*
Y06138189D03*
Y06038189D03*
G54D10*
X00822047Y07836614D03*
X00822441Y07855512D03*
Y07818898D03*
X00822835Y07761811D03*
X00824409Y07725591D03*
X00827165Y07805118D03*
X00827953Y08164173D03*
X00829134Y08191732D03*
Y07481102D03*
X00830315Y07461024D03*
X00833413Y07762221D03*
X00836703Y07955423D03*
X00841732Y07496850D03*
X00842126Y08250787D03*
X00843253Y08109503D03*
X00844882Y07764961D03*
X00847244Y07801575D03*
X00850394Y07564961D03*
X00850787Y07950787D03*
X00852756Y07496457D03*
X00854724Y07470079D03*
X00857874Y07761811D03*
X00857894Y08110252D03*
X00860630Y08344488D03*
X00862205Y07561024D03*
X00862220Y07722455D03*
X00863780Y07496457D03*
X00866142Y07592520D03*
Y07576772D03*
X00868110Y07764173D03*
X00869685Y08227559D03*
X00870098Y08063957D03*
X00872835Y07752362D03*
X00893701Y08277559D03*
X00901575Y07588583D03*
X00902756Y07767717D03*
X00903524Y08055512D03*
X00903563Y07961024D03*
X00904331Y08093701D03*
Y08073622D03*
X00905512Y08255906D03*
X00912205Y07511417D03*
X00913386Y07749606D03*
Y07735827D03*
Y07722441D03*
X00917323Y08338583D03*
X00918898Y07705118D03*
X00925197Y07576772D03*
Y07553150D03*
Y07529528D03*
X00932677Y07508268D03*
X00933071Y08066910D03*
X00938976Y08297244D03*
X00941732Y07458268D03*
X00944882Y08332677D03*
Y07576772D03*
Y07553150D03*
Y07529528D03*
X00946043Y07838407D03*
X00953937Y07725591D03*
X00955512Y07472441D03*
X00956713Y08155512D03*
X00964567Y07576772D03*
Y07553150D03*
Y07529528D03*
Y07486220D03*
X00966142Y07728346D03*
X00968504Y07837402D03*
Y07679134D03*
Y07456693D03*
X00968968Y07632354D03*
X00970866Y08066929D03*
X00972441Y08297244D03*
Y07694882D03*
X00976378Y07706693D03*
X00980315Y07836614D03*
X00985039Y08066929D03*
X00992126Y08297244D03*
X00996063Y07458661D03*
X01001949Y08066939D03*
X01007874Y07837795D03*
X01011811Y08297244D03*
X01013740Y08066910D03*
X01015748Y08344488D03*
X01019685Y07837008D03*
X01029508Y07712903D03*
X01031496Y08297244D03*
X01043307Y07734252D03*
X01045276Y08066910D03*
X01048819Y07787008D03*
X01049606Y07774016D03*
X01051181Y08297244D03*
X01053937Y07453150D03*
X01057067Y08066910D03*
X01059055Y07738189D03*
Y07726378D03*
X01061811Y07786614D03*
X01070866Y08297244D03*
Y07454724D03*
X01071322Y07663128D03*
X01078740Y07612205D03*
X01084665Y08066910D03*
X01086614Y08344488D03*
X01090551Y08297244D03*
Y07592520D03*
X01091899Y07454384D03*
X01096437Y07490157D03*
X01098031Y07476378D03*
X01101812Y07629958D03*
X01103937Y07838189D03*
X01110236Y08297244D03*
X01116142Y08066929D03*
X01122835Y07838602D03*
X01125591Y07701969D03*
X01129921Y08297244D03*
X01130709Y07453937D03*
X01131870Y07980709D03*
Y07971260D03*
X01131909Y07989783D03*
X01135827Y07598031D03*
X01144882Y07629528D03*
X01149606Y08297244D03*
X01156299Y07819291D03*
X01158661Y07455118D03*
X01159463Y08065188D03*
X01162205Y07702756D03*
X01164567Y07485433D03*
X01167323Y07659861D03*
X01169291Y08297244D03*
X01170866Y07744882D03*
X01175197Y07553150D03*
X01175281Y07995753D03*
X01177953Y07652579D03*
X01178276Y07944303D03*
X01180709Y07519291D03*
X01182363Y07721817D03*
X01183049Y08041126D03*
X01183191Y07881909D03*
X01185020Y08149182D03*
Y08113808D03*
X01185039Y08198819D03*
X01185059Y08137391D03*
Y08125599D03*
X01187008Y07678130D03*
X01188957Y07822047D03*
X01188976Y08342520D03*
Y08295276D03*
Y07836240D03*
X01189567Y07808464D03*
X01196850Y07486220D03*
X01208654Y07729956D03*
X01205188Y07477883D03*
X01205512Y07901594D03*
X01206693Y07926378D03*
X01208661Y08293307D03*
X01212205Y08319291D03*
X01212598Y07862205D03*
X01214587Y08041246D03*
X01214736Y08017773D03*
X01220054Y07721256D03*
X01216535Y08029528D03*
X01217769Y08065107D03*
X01220472Y07479883D03*
X01222441Y07740157D03*
X01224409Y07984646D03*
X01228346Y08261811D03*
X01232283Y07904350D03*
X01235433Y07484252D03*
X01235613Y08195077D03*
X01238321Y07515768D03*
X01241339Y08282677D03*
X01241673Y07740531D03*
X01244094Y08261811D03*
Y07803130D03*
X01248819Y08342913D03*
Y08061024D03*
X01249118Y07908634D03*
X01250000Y07889764D03*
X01250065Y07846172D03*
X01250630Y07872084D03*
X01253937Y07988189D03*
X01257874Y07799213D03*
X01261140Y08195976D03*
X01261811Y07454331D03*
X01262618Y07892825D03*
X01262710Y07829846D03*
X01263780Y08261811D03*
X01264173Y08277559D03*
X01264703Y07876894D03*
X01265413Y08016870D03*
X01265748Y07905512D03*
X01275000Y07720472D03*
X01277160Y08017902D03*
X01278483Y07908578D03*
X01279528Y07954724D03*
X01280484Y07845423D03*
X01280614Y07922075D03*
X01280681Y07877071D03*
X01281496Y08263780D03*
X01281870Y07863591D03*
X01299654Y08112156D03*
X01285454Y07734056D03*
X01291339Y08146043D03*
X01292520Y08341732D03*
X01293990Y07906296D03*
X01294094Y07843307D03*
X01294523Y07800197D03*
X01296429Y07922142D03*
X01296850Y07890157D03*
X01301181Y08085039D03*
X01302362Y08051201D03*
X01305866Y07841496D03*
X01309055Y07858268D03*
X01309573Y07924530D03*
X01309870Y07906394D03*
X01312056Y07967785D03*
X01312550Y07955830D03*
X01313153Y07873679D03*
X01317636Y07800059D03*
X01321569Y08070472D03*
X01325197Y08113780D03*
X01325618Y07877071D03*
X01325783Y07845513D03*
X01326772Y08342520D03*
X01330709Y08267717D03*
X01332697Y07483465D03*
X01342126Y08102756D03*
X01342520Y08159843D03*
X01343459Y07844488D03*
X01344508Y08177559D03*
X01344882Y08016535D03*
X01352362Y08080709D03*
Y07968504D03*
X01358180Y07740745D03*
X01358268Y07718898D03*
X01360616Y07840144D03*
X01361024Y08268110D03*
X01362205Y08015748D03*
X01362598Y08308268D03*
X01364567Y08162992D03*
X01366122Y07982489D03*
X01367717Y08146457D03*
X01368110Y07907480D03*
X01370079Y07492520D03*
X01374016Y07950787D03*
X01374257Y08007858D03*
X01381909Y07860944D03*
X01389370Y07953543D03*
X01390945Y07550787D03*
X01391713Y07531102D03*
X01393307Y07480709D03*
X01395650Y07588583D03*
Y07566929D03*
X01396457Y07755512D03*
X01397244Y07711024D03*
X01397638Y07642913D03*
X01525591Y08078740D03*
X01533465Y08090157D03*
X01553150Y08043307D03*
X01559055Y08120079D03*
X01575591Y07991339D03*
X01582677Y08064961D03*
X02053051Y07726378D03*
G54D11*
X00578740Y07761811D03*
X00598425Y08234252D03*
X00602362Y07210630D03*
X00618110Y08667323D03*
X00854331Y07903543D03*
X00888189Y07824803D03*
X00902579Y07548819D03*
X01070866Y07774016D03*
X01071654Y08685039D03*
X01082677Y07710630D03*
X01124035Y07750000D03*
X01126567Y07517863D03*
X01131642Y07795772D03*
X01145393Y07809332D03*
X01171671Y07713156D03*
X01173228Y07785433D03*
X01208661Y07210630D03*
X01228346Y07576772D03*
X01232283Y07545276D03*
X01259843Y07596457D03*
X01267717Y07564961D03*
X01271498Y08123690D03*
X01271634Y07639690D03*
X01275591Y07537402D03*
X01276772Y07464961D03*
X01299606Y07571654D03*
X01301349Y07599044D03*
X01303150Y07631890D03*
X01310953Y08096386D03*
X01318898Y07540157D03*
X01330689Y07571654D03*
X01338583Y07647638D03*
X01365532Y07680314D03*
X01393701Y07681890D03*
X01562992Y08706693D03*
X01618110Y08437008D03*
X01645669Y07277559D03*
X02194783Y07314961D03*
X02196850Y08690945D03*
X02200787Y08429134D03*
G54D12*
X00885995Y07785207D03*
X00894882Y07733858D03*
X01000000Y07644488D03*
G54D13*
X01856693Y08095669D03*
Y07995669D03*
Y07895669D03*
Y07795669D03*
Y07695669D03*
X01956693Y08095669D03*
Y07995669D03*
Y07895669D03*
Y07795669D03*
Y07695669D03*
G54D10*
X04702356Y00927952D03*
G54D10*
X04831948Y00931397D03*
G54D10*
X04685033Y00933071D03*
G54D10*
X04666530Y00933464D03*
G54D10*
X04842548Y00939897D03*
G54D10*
X04851548Y00948297D03*
G54D10*
X04862248Y00956697D03*
G54D10*
X04585624Y00960630D03*
G54D10*
X04918301Y00961614D03*
G54D10*
X04896188Y00969508D03*
G54D10*
X04859138Y00969825D03*
G54D10*
X04670169Y00971437D03*
G54D10*
X04938970Y00972441D03*
G54D10*
X04611271Y00981355D03*
G54D10*
X04757868Y00998051D03*
G54D10*
X04669824Y00999574D03*
G54D10*
X04606787Y01001382D03*
G54D10*
X04859138Y01003818D03*
G54D10*
X04628931Y01007874D03*
G54D10*
X04949797Y01014763D03*
G54D10*
X04564665Y01015925D03*
G54D10*
X04553148Y01026597D03*
G54D10*
X04997238Y01044882D03*
G54D10*
X04639748Y01050197D03*
G54D10*
X05027553Y01052776D03*
G54D10*
X04946844Y01058071D03*
G54D10*
X04631808Y01062115D03*
G54D10*
X04642748Y01066597D03*
G54D10*
X04510648Y01072797D03*
G54D10*
X05055112Y01078740D03*
G54D10*
X04639748Y01082697D03*
G54D10*
X05000978Y01089567D03*
G54D10*
X04629002Y01090562D03*
G54D10*
X04475585Y01092519D03*
G54D10*
X04520467Y01094094D03*
G54D10*
X04433065Y01102362D03*
G54D10*
X04637748Y01103297D03*
G54D10*
X04492148Y01110397D03*
G54D10*
X04515348Y01111811D03*
G54D10*
X04560420Y01114231D03*
G54D10*
X04594876Y01116535D03*
G54D10*
X05079719Y01126968D03*
G54D10*
X05084640Y01147638D03*
G54D10*
X04956687Y01165354D03*
G54D10*
X04997969Y01171316D03*
G54D10*
X05076248Y01178097D03*
G54D10*
X04546254Y01178973D03*
G54D10*
X04466510Y01179231D03*
G54D10*
X04525633Y01180315D03*
G54D10*
X04453931Y01183464D03*
G54D10*
X04891726Y01184055D03*
G54D10*
X04907474D03*
G54D10*
X04477108Y01184399D03*
G54D10*
X04925191Y01185039D03*
G54D10*
X04970467Y01187008D03*
G54D10*
X04515810Y01187821D03*
G54D10*
X04589959Y01189179D03*
G54D10*
X04999994Y01192913D03*
G54D10*
X04893695Y01200787D03*
G54D10*
X04590152Y01201181D03*
G54D10*
X04507849Y01207416D03*
G54D10*
X04492120Y01207677D03*
G54D10*
X04633852Y01212598D03*
G54D10*
X04933065D03*
G54D10*
X04972435D03*
G54D10*
X05076748Y01215597D03*
G54D10*
X04451845Y01216393D03*
G54D10*
X04905506Y01216535D03*
G54D10*
X04571852Y01224409D03*
G54D10*
X04477398Y01224918D03*
G54D10*
X04553144Y01225197D03*
G54D10*
X04584640Y01225477D03*
G54D10*
X04505900Y01227559D03*
G54D10*
X04429128Y01228346D03*
G54D10*
X04741136Y01232283D03*
G54D10*
X05077750Y01233267D03*
G54D10*
X04637708Y01236177D03*
G54D10*
X04476372Y01239173D03*
G54D10*
X04538391Y01239207D03*
G54D10*
X05078818Y01245010D03*
G54D10*
X04541041Y01253882D03*
G54D10*
X04493043Y01256815D03*
G54D10*
X04555112Y01256889D03*
G54D10*
X04739167D03*
G54D10*
X04509022Y01256992D03*
G54D10*
X04422248Y01257897D03*
G54D10*
X05056096Y01259842D03*
G54D10*
X04529771Y01259862D03*
G54D10*
X04478456Y01261290D03*
G54D10*
X04905506Y01263779D03*
G54D10*
X04870073Y01264763D03*
G54D10*
X04943892Y01265748D03*
G54D10*
X05079648Y01265997D03*
G54D10*
X04430112Y01268700D03*
G54D10*
X05035427Y01276575D03*
G54D10*
X04625585Y01283464D03*
G54D10*
X04460624Y01284271D03*
G54D10*
X04494089Y01285433D03*
G54D10*
X04435033Y01287401D03*
G54D10*
X04538211D03*
G54D10*
X04556096D03*
G54D10*
X04477410Y01290183D03*
G54D10*
X04590948Y01292897D03*
G54D10*
X05087593Y01294291D03*
G54D10*
X04390051Y01296839D03*
G54D10*
X04507857Y01301846D03*
G54D10*
X04435033Y01301869D03*
G54D10*
X04522632Y01302165D03*
G54D10*
X04538380D03*
G54D10*
X04984898Y01302856D03*
G54D10*
X04944876Y01303149D03*
G54D10*
X05003931D03*
G54D10*
X04900426Y01303826D03*
G54D10*
X04637789Y01307086D03*
G54D10*
X04476409Y01317861D03*
G54D10*
X05056048Y01318897D03*
G54D10*
X04462593Y01322067D03*
G54D10*
X04442907Y01323819D03*
G54D10*
X04544048Y01329097D03*
G54D10*
X04583852Y01330315D03*
G54D10*
X04601548Y01330297D03*
G54D10*
X04433852Y01332283D03*
G54D10*
X05035427Y01335630D03*
G54D10*
X04867415Y01336909D03*
G54D10*
X04944820Y01337654D03*
G54D10*
X04893695Y01339567D03*
G54D10*
X04990152Y01340551D03*
G54D10*
X04911411Y01341535D03*
G54D10*
X04932081Y01342519D03*
G54D10*
X04971451D03*
G54D10*
X04546713Y01342558D03*
G54D10*
X05010841Y01342913D03*
G54D10*
X05057081Y01357283D03*
G54D10*
X04446040Y01357351D03*
G54D10*
X04393695Y01358267D03*
G54D10*
X04594448Y01360197D03*
G54D10*
X05083088Y01361054D03*
G54D10*
X04478341Y01367126D03*
G54D10*
X04888774Y01369094D03*
G54D10*
X04592548Y01385797D03*
G54D10*
X04444876Y01392716D03*
G54D10*
X04512789Y01393700D03*
G54D10*
X05100388D03*
G54D10*
X05056876Y01395141D03*
G54D10*
X04475388Y01397638D03*
G54D10*
X04576748Y01399597D03*
G54D10*
X04451948Y01405897D03*
G54D10*
X04527553Y01409449D03*
G54D10*
X05082671D03*
G54D10*
X04503931Y01410433D03*
G54D10*
X04600388Y01413386D03*
G54D10*
X04637789Y01425197D03*
G54D10*
X04528518Y01430094D03*
G54D10*
X05035219Y01435309D03*
G54D10*
X04425191Y01449803D03*
G54D10*
X05027533Y01465551D03*
G54D10*
X04635821Y01466535D03*
G54D10*
X05071844D03*
G54D10*
X04528348Y01479097D03*
G54D10*
X04448813Y01480315D03*
G54D10*
X04633852D03*
G54D10*
X05058262Y01488976D03*
G54D10*
X04459631Y01489857D03*
G54D10*
X04544797Y01492106D03*
G54D10*
X04641748Y01492097D03*
G54D10*
X04578734Y01494094D03*
G54D10*
X04543624Y01504810D03*
G54D10*
X04645448Y01509097D03*
G54D10*
X04628648Y01512097D03*
G54D10*
X04606293Y01513779D03*
G54D10*
X04594731Y01516092D03*
G54D10*
X05034448Y01517697D03*
G54D10*
X04559048Y01521697D03*
G54D10*
X04641648Y01523597D03*
G54D10*
X05025585Y01531496D03*
G54D10*
X04559048Y01533497D03*
G54D10*
X04882868Y01534449D03*
G54D10*
X04921142Y01534581D03*
G54D10*
X04896648Y01537401D03*
G54D10*
X04936018D03*
G54D10*
X04513718Y01537457D03*
G54D10*
X04637748Y01539397D03*
G54D10*
X05012789Y01545275D03*
G54D10*
X05002947Y01554134D03*
G54D10*
X04578734Y01554330D03*
G54D10*
X04638748Y01555097D03*
G54D10*
X04638774Y01570866D03*
G54D10*
X04618104Y01571923D03*
G54D10*
X04559049Y01572834D03*
G54D10*
X04756884Y01575496D03*
G54D10*
X04876348Y01581097D03*
G54D10*
X04864048Y01586297D03*
G54D10*
X04606293Y01598425D03*
G54D10*
X04875148Y01598797D03*
G54D10*
X04862948Y01603497D03*
G54D10*
X04299207Y01637795D03*
G54D10*
X04667055Y01641582D03*
G54D10*
X04834640Y01642519D03*
G54D10*
X04679128Y01645669D03*
G54D10*
X04696844D03*
G54D11*
X03531490Y00578740D03*
G54D11*
X03807081D03*
G54D11*
X04240152D03*
G54D11*
X04633852D03*
G54D11*
X05027553D03*
G54D11*
X05381884D03*
G54D11*
X04437002Y00775590D03*
G54D11*
X05106293Y00814960D03*
G54D11*
X04899600Y00955708D03*
G54D11*
X04561411Y00981889D03*
G54D11*
X04959599Y00990277D03*
G54D11*
X04470448Y01057897D03*
G54D11*
X04991348Y01059497D03*
G54D11*
X04606248Y01061997D03*
G54D11*
X04181096Y01070866D03*
G54D11*
X04588148Y01089397D03*
G54D11*
X05381884Y01090551D03*
G54D11*
X03531490Y01129921D03*
G54D11*
X04438970Y01145669D03*
G54D11*
X04442907Y01173228D03*
G54D11*
X05015748Y01190897D03*
G54D11*
X04406339Y01217567D03*
G54D11*
X04943892Y01283464D03*
G54D11*
X05002967Y01357703D03*
G54D11*
X04634246Y01370866D03*
G54D11*
X04937986Y01397638D03*
G54D11*
X04200986Y01398068D03*
G54D11*
X04889758Y01398622D03*
G54D11*
X03531490Y01405512D03*
G54D11*
X05381884Y01484252D03*
G54D11*
X04937490Y01487204D03*
G54D11*
X04937986Y01516732D03*
G54D11*
X04900585Y01517716D03*
G54D11*
X04529522Y01563976D03*
G54D11*
X04476372Y01799212D03*
G54D11*
X05027553D03*
G54D11*
X03531490Y01996063D03*
G54D11*
X03885821D03*
G54D11*
X04318892D03*
G54D11*
X04791333D03*
G54D11*
X05263774D03*
G54D13*
X03777455Y01087401D03*
G54D13*
X03877455D03*
G54D13*
X03777455Y01187401D03*
G54D13*
X03877455D03*
G54D13*
X03777455Y01287401D03*
G54D13*
X03877455D03*
G54D13*
X03777455Y01387401D03*
G54D13*
X03877455D03*
G54D13*
X03777455Y01487401D03*
G54D13*
X03877455D03*
G54D10*
X04702356Y02502756D03*
G54D10*
X04831948Y02506200D03*
G54D10*
X04685033Y02507874D03*
G54D10*
X04666530Y02508267D03*
G54D10*
X04842548Y02514700D03*
G54D10*
X04851548Y02523100D03*
G54D10*
X04862248Y02531500D03*
G54D10*
X04585624Y02535433D03*
G54D10*
X04918301Y02536417D03*
G54D10*
X04896188Y02544311D03*
G54D10*
X04859138Y02544628D03*
G54D10*
X04670169Y02546240D03*
G54D10*
X04938970Y02547244D03*
G54D10*
X04611271Y02556158D03*
G54D10*
X04757868Y02572854D03*
G54D10*
X04669824Y02574377D03*
G54D10*
X04606787Y02576186D03*
G54D10*
X04859138Y02578621D03*
G54D10*
X04628931Y02582677D03*
G54D10*
X04949797Y02589567D03*
G54D10*
X04564665Y02590729D03*
G54D10*
X04553148Y02601400D03*
G54D10*
X04997238Y02619685D03*
G54D10*
X04639748Y02625000D03*
G54D10*
X05027553Y02627579D03*
G54D10*
X04946844Y02632874D03*
G54D10*
X04631808Y02636918D03*
G54D10*
X04642748Y02641400D03*
G54D10*
X04510648Y02647600D03*
G54D10*
X05055112Y02653543D03*
G54D10*
X04639748Y02657500D03*
G54D10*
X05000978Y02664370D03*
G54D10*
X04629002Y02665365D03*
G54D10*
X04475585Y02667323D03*
G54D10*
X04520467Y02668897D03*
G54D10*
X04433065Y02677165D03*
G54D10*
X04637748Y02678100D03*
G54D10*
X04492148Y02685200D03*
G54D10*
X04515348Y02686614D03*
G54D10*
X04560420Y02689034D03*
G54D10*
X04594876Y02691338D03*
G54D10*
X05079719Y02701771D03*
G54D10*
X05084640Y02722441D03*
G54D10*
X04956687Y02740157D03*
G54D10*
X04997969Y02746119D03*
G54D10*
X05076248Y02752900D03*
G54D10*
X04546254Y02753776D03*
G54D10*
X04466510Y02754035D03*
G54D10*
X04525633Y02755118D03*
G54D10*
X04453931Y02758267D03*
G54D10*
X04891726Y02758858D03*
G54D10*
X04907474D03*
G54D10*
X04477108Y02759202D03*
G54D10*
X04925191Y02759842D03*
G54D10*
X04970467Y02761811D03*
G54D10*
X04515810Y02762625D03*
G54D10*
X04589959Y02763982D03*
G54D10*
X04999994Y02767716D03*
G54D10*
X04893695Y02775590D03*
G54D10*
X04590152Y02775984D03*
G54D10*
X04507849Y02782219D03*
G54D10*
X04492120Y02782480D03*
G54D10*
X04633852Y02787401D03*
G54D10*
X04933065D03*
G54D10*
X04972435D03*
G54D10*
X05076748Y02790400D03*
G54D10*
X04451845Y02791196D03*
G54D10*
X04905506Y02791338D03*
G54D10*
X04571852Y02799212D03*
G54D10*
X04477398Y02799721D03*
G54D10*
X04553144Y02800000D03*
G54D10*
X04584640Y02800280D03*
G54D10*
X04505900Y02802362D03*
G54D10*
X04429128Y02803149D03*
G54D10*
X04741136Y02807086D03*
G54D10*
X05077750Y02808071D03*
G54D10*
X04637708Y02810980D03*
G54D10*
X04476372Y02813976D03*
G54D10*
X04538391Y02814010D03*
G54D10*
X05078818Y02819814D03*
G54D10*
X04541041Y02828686D03*
G54D10*
X04493043Y02831618D03*
G54D10*
X04555112Y02831693D03*
G54D10*
X04739167D03*
G54D10*
X04509022Y02831795D03*
G54D10*
X04422248Y02832700D03*
G54D10*
X05056096Y02834645D03*
G54D10*
X04529771Y02834665D03*
G54D10*
X04478456Y02836093D03*
G54D10*
X04905506Y02838582D03*
G54D10*
X04870073Y02839567D03*
G54D10*
X04943892Y02840551D03*
G54D10*
X05079648Y02840800D03*
G54D10*
X04430112Y02843504D03*
G54D10*
X05035427Y02851378D03*
G54D10*
X04625585Y02858267D03*
G54D10*
X04460624Y02859075D03*
G54D10*
X04494089Y02860236D03*
G54D10*
X04435033Y02862204D03*
G54D10*
X04538211D03*
G54D10*
X04556096D03*
G54D10*
X04477410Y02864986D03*
G54D10*
X04590948Y02867700D03*
G54D10*
X05087593Y02869094D03*
G54D10*
X04390051Y02871642D03*
G54D10*
X04507857Y02876649D03*
G54D10*
X04435033Y02876672D03*
G54D10*
X04522632Y02876968D03*
G54D10*
X04538380D03*
G54D10*
X04984898Y02877659D03*
G54D10*
X04944876Y02877952D03*
G54D10*
X05003931D03*
G54D10*
X04900426Y02878629D03*
G54D10*
X04637789Y02881889D03*
G54D10*
X04476409Y02892665D03*
G54D10*
X05056048Y02893700D03*
G54D10*
X04462593Y02896870D03*
G54D10*
X04442907Y02898622D03*
G54D10*
X04544048Y02903900D03*
G54D10*
X04583852Y02905118D03*
G54D10*
X04601548Y02905100D03*
G54D10*
X04433852Y02907086D03*
G54D10*
X05035427Y02910433D03*
G54D10*
X04867415Y02911712D03*
G54D10*
X04944820Y02912457D03*
G54D10*
X04893695Y02914370D03*
G54D10*
X04990152Y02915354D03*
G54D10*
X04911411Y02916338D03*
G54D10*
X04932081Y02917323D03*
G54D10*
X04971451D03*
G54D10*
X04546713Y02917361D03*
G54D10*
X05010841Y02917716D03*
G54D10*
X05057081Y02932086D03*
G54D10*
X04446040Y02932154D03*
G54D10*
X04393695Y02933071D03*
G54D10*
X04594448Y02935000D03*
G54D10*
X05083088Y02935857D03*
G54D10*
X04478341Y02941929D03*
G54D10*
X04888774Y02943897D03*
G54D10*
X04592548Y02960600D03*
G54D10*
X04444876Y02967519D03*
G54D10*
X04512789Y02968504D03*
G54D10*
X05100388D03*
G54D10*
X05056876Y02969945D03*
G54D10*
X04475388Y02972441D03*
G54D10*
X04576748Y02974400D03*
G54D10*
X04451948Y02980700D03*
G54D10*
X04527553Y02984252D03*
G54D10*
X05082671D03*
G54D10*
X04503931Y02985236D03*
G54D10*
X04600388Y02988189D03*
G54D10*
X04637789Y03000000D03*
G54D10*
X04528518Y03004898D03*
G54D10*
X05035219Y03010113D03*
G54D10*
X04425191Y03024606D03*
G54D10*
X05027533Y03040354D03*
G54D10*
X04635821Y03041338D03*
G54D10*
X05071844D03*
G54D10*
X04528348Y03053900D03*
G54D10*
X04448813Y03055118D03*
G54D10*
X04633852D03*
G54D10*
X05058262Y03063779D03*
G54D10*
X04459631Y03064660D03*
G54D10*
X04544797Y03066909D03*
G54D10*
X04641748Y03066900D03*
G54D10*
X04578734Y03068897D03*
G54D10*
X04543624Y03079613D03*
G54D10*
X04645448Y03083900D03*
G54D10*
X04628648Y03086900D03*
G54D10*
X04606293Y03088582D03*
G54D10*
X04594731Y03090895D03*
G54D10*
X05034448Y03092500D03*
G54D10*
X04559048Y03096500D03*
G54D10*
X04641648Y03098400D03*
G54D10*
X05025585Y03106299D03*
G54D10*
X04559048Y03108300D03*
G54D10*
X04882868Y03109252D03*
G54D10*
X04921142Y03109384D03*
G54D10*
X04896648Y03112204D03*
G54D10*
X04936018D03*
G54D10*
X04513718Y03112261D03*
G54D10*
X04637748Y03114200D03*
G54D10*
X05012789Y03120078D03*
G54D10*
X05002947Y03128937D03*
G54D10*
X04578734Y03129134D03*
G54D10*
X04638748Y03129900D03*
G54D10*
X04638774Y03145669D03*
G54D10*
X04618104Y03146726D03*
G54D10*
X04559049Y03147638D03*
G54D10*
X04756884Y03150299D03*
G54D10*
X04876348Y03155900D03*
G54D10*
X04864048Y03161100D03*
G54D10*
X04606293Y03173228D03*
G54D10*
X04875148Y03173600D03*
G54D10*
X04862948Y03178300D03*
G54D10*
X04299207Y03212598D03*
G54D10*
X04667055Y03216385D03*
G54D10*
X04834640Y03217323D03*
G54D10*
X04679128Y03220472D03*
G54D10*
X04696844D03*
G54D11*
X03531490Y02153543D03*
G54D11*
X03807081D03*
G54D11*
X04240152D03*
G54D11*
X04633852D03*
G54D11*
X05027553D03*
G54D11*
X05381884D03*
G54D11*
X04437002Y02350393D03*
G54D11*
X05106293Y02389763D03*
G54D11*
X04899600Y02530512D03*
G54D11*
X04561411Y02556693D03*
G54D11*
X04959599Y02565080D03*
G54D11*
X04470448Y02632700D03*
G54D11*
X04991348Y02634300D03*
G54D11*
X04606248Y02636800D03*
G54D11*
X04181096Y02645669D03*
G54D11*
X04588148Y02664200D03*
G54D11*
X05381884Y02665354D03*
G54D11*
X03531490Y02704724D03*
G54D11*
X04438970Y02720472D03*
G54D11*
X04442907Y02748031D03*
G54D11*
X05015748Y02765700D03*
G54D11*
X04406339Y02792370D03*
G54D11*
X04943892Y02858267D03*
G54D11*
X05002967Y02932506D03*
G54D11*
X04634246Y02945669D03*
G54D11*
X04937986Y02972441D03*
G54D11*
X04200986Y02972871D03*
G54D11*
X04889758Y02973425D03*
G54D11*
X03531490Y02980315D03*
G54D11*
X05381884Y03059055D03*
G54D11*
X04937490Y03062008D03*
G54D11*
X04937986Y03091535D03*
G54D11*
X04900585Y03092519D03*
G54D11*
X04529522Y03138779D03*
G54D11*
X04476372Y03374015D03*
G54D11*
X05027553D03*
G54D11*
X03531490Y03570866D03*
G54D11*
X03885821D03*
G54D11*
X04318892D03*
G54D11*
X04791333D03*
G54D11*
X05263774D03*
G54D13*
X03777455Y02662204D03*
G54D13*
X03877455D03*
G54D13*
X03777455Y02762204D03*
G54D13*
X03877455D03*
G54D13*
X03777455Y02862204D03*
G54D13*
X03877455D03*
G54D13*
X03777455Y02962204D03*
G54D13*
X03877455D03*
G54D13*
X03777455Y03062204D03*
G54D13*
X03877455D03*
G54D10*
X04702356Y04077559D03*
G54D10*
X04831948Y04081003D03*
G54D10*
X04685033Y04082677D03*
G54D10*
X04666530Y04083071D03*
G54D10*
X04842548Y04089503D03*
G54D10*
X04851548Y04097903D03*
G54D10*
X04862248Y04106303D03*
G54D10*
X04585624Y04110236D03*
G54D10*
X04918301Y04111220D03*
G54D10*
X04896188Y04119114D03*
G54D10*
X04859138Y04119431D03*
G54D10*
X04670169Y04121043D03*
G54D10*
X04938970Y04122047D03*
G54D10*
X04611271Y04130961D03*
G54D10*
X04757868Y04147657D03*
G54D10*
X04669824Y04149180D03*
G54D10*
X04606787Y04150989D03*
G54D10*
X04859138Y04153424D03*
G54D10*
X04628931Y04157480D03*
G54D10*
X04949797Y04164370D03*
G54D10*
X04564665Y04165532D03*
G54D10*
X04553148Y04176203D03*
G54D10*
X04997238Y04194488D03*
G54D10*
X04639748Y04199803D03*
G54D10*
X05027553Y04202382D03*
G54D10*
X04946844Y04207677D03*
G54D10*
X04631808Y04211721D03*
G54D10*
X04642748Y04216203D03*
G54D10*
X04510648Y04222403D03*
G54D10*
X05055112Y04228346D03*
G54D10*
X04639748Y04232303D03*
G54D10*
X05000978Y04239173D03*
G54D10*
X04629002Y04240169D03*
G54D10*
X04475585Y04242126D03*
G54D10*
X04520467Y04243700D03*
G54D10*
X04433065Y04251968D03*
G54D10*
X04637748Y04252903D03*
G54D10*
X04492148Y04260003D03*
G54D10*
X04515348Y04261417D03*
G54D10*
X04560420Y04263837D03*
G54D10*
X04594876Y04266141D03*
G54D10*
X05079719Y04276575D03*
G54D10*
X05084640Y04297244D03*
G54D10*
X04956687Y04314960D03*
G54D10*
X04997969Y04320922D03*
G54D10*
X05076248Y04327703D03*
G54D10*
X04546254Y04328579D03*
G54D10*
X04466510Y04328838D03*
G54D10*
X04525633Y04329921D03*
G54D10*
X04453931Y04333071D03*
G54D10*
X04891726Y04333661D03*
G54D10*
X04907474D03*
G54D10*
X04477108Y04334006D03*
G54D10*
X04925191Y04334645D03*
G54D10*
X04970467Y04336614D03*
G54D10*
X04515810Y04337428D03*
G54D10*
X04589959Y04338785D03*
G54D10*
X04999994Y04342519D03*
G54D10*
X04893695Y04350393D03*
G54D10*
X04590152Y04350787D03*
G54D10*
X04507849Y04357022D03*
G54D10*
X04492120Y04357283D03*
G54D10*
X04633852Y04362204D03*
G54D10*
X04933065D03*
G54D10*
X04972435D03*
G54D10*
X05076748Y04365203D03*
G54D10*
X04451845Y04366000D03*
G54D10*
X04905506Y04366141D03*
G54D10*
X04571852Y04374015D03*
G54D10*
X04477398Y04374524D03*
G54D10*
X04553144Y04374803D03*
G54D10*
X04584640Y04375083D03*
G54D10*
X04505900Y04377165D03*
G54D10*
X04429128Y04377952D03*
G54D10*
X04741136Y04381889D03*
G54D10*
X05077750Y04382874D03*
G54D10*
X04637708Y04385783D03*
G54D10*
X04476372Y04388779D03*
G54D10*
X04538391Y04388814D03*
G54D10*
X05078818Y04394617D03*
G54D10*
X04541041Y04403489D03*
G54D10*
X04493043Y04406421D03*
G54D10*
X04555112Y04406496D03*
G54D10*
X04739167D03*
G54D10*
X04509022Y04406598D03*
G54D10*
X04422248Y04407503D03*
G54D10*
X05056096Y04409449D03*
G54D10*
X04529771Y04409468D03*
G54D10*
X04478456Y04410896D03*
G54D10*
X04905506Y04413386D03*
G54D10*
X04870073Y04414370D03*
G54D10*
X04943892Y04415354D03*
G54D10*
X05079648Y04415603D03*
G54D10*
X04430112Y04418307D03*
G54D10*
X05035427Y04426181D03*
G54D10*
X04625585Y04433071D03*
G54D10*
X04460624Y04433878D03*
G54D10*
X04494089Y04435039D03*
G54D10*
X04435033Y04437008D03*
G54D10*
X04538211D03*
G54D10*
X04556096D03*
G54D10*
X04477410Y04439789D03*
G54D10*
X04590948Y04442503D03*
G54D10*
X05087593Y04443897D03*
G54D10*
X04390051Y04446445D03*
G54D10*
X04507857Y04451452D03*
G54D10*
X04435033Y04451475D03*
G54D10*
X04522632Y04451771D03*
G54D10*
X04538380D03*
G54D10*
X04984898Y04452462D03*
G54D10*
X04944876Y04452756D03*
G54D10*
X05003931D03*
G54D10*
X04900426Y04453432D03*
G54D10*
X04637789Y04456693D03*
G54D10*
X04476409Y04467468D03*
G54D10*
X05056048Y04468503D03*
G54D10*
X04462593Y04471673D03*
G54D10*
X04442907Y04473425D03*
G54D10*
X04544048Y04478703D03*
G54D10*
X04583852Y04479921D03*
G54D10*
X04601548Y04479903D03*
G54D10*
X04433852Y04481889D03*
G54D10*
X05035427Y04485236D03*
G54D10*
X04867415Y04486515D03*
G54D10*
X04944820Y04487261D03*
G54D10*
X04893695Y04489173D03*
G54D10*
X04990152Y04490157D03*
G54D10*
X04911411Y04491141D03*
G54D10*
X04932081Y04492126D03*
G54D10*
X04971451D03*
G54D10*
X04546713Y04492164D03*
G54D10*
X05010841Y04492519D03*
G54D10*
X05057081Y04506889D03*
G54D10*
X04446040Y04506957D03*
G54D10*
X04393695Y04507874D03*
G54D10*
X04594448Y04509803D03*
G54D10*
X05083088Y04510660D03*
G54D10*
X04478341Y04516732D03*
G54D10*
X04888774Y04518700D03*
G54D10*
X04592548Y04535403D03*
G54D10*
X04444876Y04542323D03*
G54D10*
X04512789Y04543307D03*
G54D10*
X05100388D03*
G54D10*
X05056876Y04544748D03*
G54D10*
X04475388Y04547244D03*
G54D10*
X04576748Y04549203D03*
G54D10*
X04451948Y04555503D03*
G54D10*
X04527553Y04559055D03*
G54D10*
X05082671D03*
G54D10*
X04503931Y04560039D03*
G54D10*
X04600388Y04562992D03*
G54D10*
X04637789Y04574803D03*
G54D10*
X04528518Y04579701D03*
G54D10*
X05035219Y04584916D03*
G54D10*
X04425191Y04599409D03*
G54D10*
X05027533Y04615157D03*
G54D10*
X04635821Y04616141D03*
G54D10*
X05071844D03*
G54D10*
X04528348Y04628703D03*
G54D10*
X04448813Y04629921D03*
G54D10*
X04633852D03*
G54D10*
X05058262Y04638582D03*
G54D10*
X04459631Y04639463D03*
G54D10*
X04544797Y04641712D03*
G54D10*
X04641748Y04641703D03*
G54D10*
X04578734Y04643700D03*
G54D10*
X04543624Y04654416D03*
G54D10*
X04645448Y04658703D03*
G54D10*
X04628648Y04661703D03*
G54D10*
X04606293Y04663386D03*
G54D10*
X04594731Y04665698D03*
G54D10*
X05034448Y04667303D03*
G54D10*
X04559048Y04671303D03*
G54D10*
X04641648Y04673203D03*
G54D10*
X05025585Y04681102D03*
G54D10*
X04559048Y04683103D03*
G54D10*
X04882868Y04684055D03*
G54D10*
X04921142Y04684187D03*
G54D10*
X04896648Y04687008D03*
G54D10*
X04936018D03*
G54D10*
X04513718Y04687064D03*
G54D10*
X04637748Y04689003D03*
G54D10*
X05012789Y04694882D03*
G54D10*
X05002947Y04703740D03*
G54D10*
X04578734Y04703937D03*
G54D10*
X04638748Y04704703D03*
G54D10*
X04638774Y04720472D03*
G54D10*
X04618104Y04721529D03*
G54D10*
X04559049Y04722441D03*
G54D10*
X04756884Y04725102D03*
G54D10*
X04876348Y04730703D03*
G54D10*
X04864048Y04735903D03*
G54D10*
X04606293Y04748031D03*
G54D10*
X04875148Y04748403D03*
G54D10*
X04862948Y04753103D03*
G54D10*
X04299207Y04787401D03*
G54D10*
X04667055Y04791188D03*
G54D10*
X04834640Y04792126D03*
G54D10*
X04679128Y04795275D03*
G54D10*
X04696844D03*
G54D11*
X03531490Y03728346D03*
G54D11*
X03807081D03*
G54D11*
X04240152D03*
G54D11*
X04633852D03*
G54D11*
X05027553D03*
G54D11*
X05381884D03*
G54D11*
X04437002Y03925197D03*
G54D11*
X05106293Y03964567D03*
G54D11*
X04899600Y04105315D03*
G54D11*
X04561411Y04131496D03*
G54D11*
X04959599Y04139883D03*
G54D11*
X04470448Y04207503D03*
G54D11*
X04991348Y04209103D03*
G54D11*
X04606248Y04211603D03*
G54D11*
X04181096Y04220472D03*
G54D11*
X04588148Y04239003D03*
G54D11*
X05381884Y04240157D03*
G54D11*
X03531490Y04279527D03*
G54D11*
X04438970Y04295275D03*
G54D11*
X04442907Y04322834D03*
G54D11*
X05015748Y04340503D03*
G54D11*
X04406339Y04367173D03*
G54D11*
X04943892Y04433071D03*
G54D11*
X05002967Y04507309D03*
G54D11*
X04634246Y04520472D03*
G54D11*
X04937986Y04547244D03*
G54D11*
X04200986Y04547674D03*
G54D11*
X04889758Y04548228D03*
G54D11*
X03531490Y04555118D03*
G54D11*
X05381884Y04633858D03*
G54D11*
X04937490Y04636811D03*
G54D11*
X04937986Y04666338D03*
G54D11*
X04900585Y04667323D03*
G54D11*
X04529522Y04713582D03*
G54D11*
X04476372Y04948819D03*
G54D11*
X05027553D03*
G54D11*
X03531490Y05145669D03*
G54D11*
X03885821D03*
G54D11*
X04318892D03*
G54D11*
X04791333D03*
G54D11*
X05263774D03*
G54D13*
X03777455Y04237008D03*
G54D13*
X03877455D03*
G54D13*
X03777455Y04337008D03*
G54D13*
X03877455D03*
G54D13*
X03777455Y04437008D03*
G54D13*
X03877455D03*
G54D13*
X03777455Y04537008D03*
G54D13*
X03877455D03*
G54D13*
X03777455Y04637008D03*
G54D13*
X03877455D03*
G54D10*
X04702356Y05652362D03*
G54D10*
X04831948Y05655806D03*
G54D10*
X04685033Y05657480D03*
G54D10*
X04666530Y05657874D03*
G54D10*
X04842548Y05664306D03*
G54D10*
X04851548Y05672706D03*
G54D10*
X04862248Y05681106D03*
G54D10*
X04585624Y05685039D03*
G54D10*
X04918301Y05686023D03*
G54D10*
X04896188Y05693917D03*
G54D10*
X04859138Y05694234D03*
G54D10*
X04670169Y05695846D03*
G54D10*
X04938970Y05696850D03*
G54D10*
X04611271Y05705764D03*
G54D10*
X04757868Y05722460D03*
G54D10*
X04669824Y05723983D03*
G54D10*
X04606787Y05725792D03*
G54D10*
X04859138Y05728227D03*
G54D10*
X04628931Y05732283D03*
G54D10*
X04949797Y05739173D03*
G54D10*
X04564665Y05740335D03*
G54D10*
X04553148Y05751006D03*
G54D10*
X04997238Y05769291D03*
G54D10*
X04639748Y05774606D03*
G54D10*
X05027553Y05777186D03*
G54D10*
X04946844Y05782480D03*
G54D10*
X04631808Y05786525D03*
G54D10*
X04642748Y05791006D03*
G54D10*
X04510648Y05797206D03*
G54D10*
X05055112Y05803149D03*
G54D10*
X04639748Y05807106D03*
G54D10*
X05000978Y05813976D03*
G54D10*
X04629002Y05814972D03*
G54D10*
X04475585Y05816929D03*
G54D10*
X04520467Y05818504D03*
G54D10*
X04433065Y05826771D03*
G54D10*
X04637748Y05827706D03*
G54D10*
X04492148Y05834806D03*
G54D10*
X04515348Y05836220D03*
G54D10*
X04560420Y05838640D03*
G54D10*
X04594876Y05840945D03*
G54D10*
X05079719Y05851378D03*
G54D10*
X05084640Y05872047D03*
G54D10*
X04956687Y05889763D03*
G54D10*
X04997969Y05895725D03*
G54D10*
X05076248Y05902506D03*
G54D10*
X04546254Y05903382D03*
G54D10*
X04466510Y05903641D03*
G54D10*
X04525633Y05904724D03*
G54D10*
X04453931Y05907874D03*
G54D10*
X04891726Y05908464D03*
G54D10*
X04907474D03*
G54D10*
X04477108Y05908809D03*
G54D10*
X04925191Y05909449D03*
G54D10*
X04970467Y05911417D03*
G54D10*
X04515810Y05912231D03*
G54D10*
X04589959Y05913588D03*
G54D10*
X04999994Y05917323D03*
G54D10*
X04893695Y05925197D03*
G54D10*
X04590152Y05925590D03*
G54D10*
X04507849Y05931826D03*
G54D10*
X04492120Y05932086D03*
G54D10*
X04633852Y05937008D03*
G54D10*
X04933065D03*
G54D10*
X04972435D03*
G54D10*
X05076748Y05940006D03*
G54D10*
X04451845Y05940803D03*
G54D10*
X04905506Y05940945D03*
G54D10*
X04571852Y05948819D03*
G54D10*
X04477398Y05949327D03*
G54D10*
X04553144Y05949606D03*
G54D10*
X04584640Y05949887D03*
G54D10*
X04505900Y05951968D03*
G54D10*
X04429128Y05952756D03*
G54D10*
X04741136Y05956693D03*
G54D10*
X05077750Y05957677D03*
G54D10*
X04637708Y05960586D03*
G54D10*
X04476372Y05963582D03*
G54D10*
X04538391Y05963617D03*
G54D10*
X05078818Y05969420D03*
G54D10*
X04541041Y05978292D03*
G54D10*
X04493043Y05981224D03*
G54D10*
X04555112Y05981299D03*
G54D10*
X04739167D03*
G54D10*
X04509022Y05981401D03*
G54D10*
X04422248Y05982306D03*
G54D10*
X05056096Y05984252D03*
G54D10*
X04529771Y05984271D03*
G54D10*
X04478456Y05985699D03*
G54D10*
X04905506Y05988189D03*
G54D10*
X04870073Y05989173D03*
G54D10*
X04943892Y05990157D03*
G54D10*
X05079648Y05990406D03*
G54D10*
X04430112Y05993110D03*
G54D10*
X05035427Y06000984D03*
G54D10*
X04625585Y06007874D03*
G54D10*
X04460624Y06008681D03*
G54D10*
X04494089Y06009842D03*
G54D10*
X04435033Y06011811D03*
G54D10*
X04538211D03*
G54D10*
X04556096D03*
G54D10*
X04477410Y06014592D03*
G54D10*
X04590948Y06017306D03*
G54D10*
X05087593Y06018700D03*
G54D10*
X04390051Y06021248D03*
G54D10*
X04507857Y06026256D03*
G54D10*
X04435033Y06026279D03*
G54D10*
X04522632Y06026575D03*
G54D10*
X04538380D03*
G54D10*
X04984898Y06027265D03*
G54D10*
X04944876Y06027559D03*
G54D10*
X05003931D03*
G54D10*
X04900426Y06028236D03*
G54D10*
X04637789Y06031496D03*
G54D10*
X04476409Y06042271D03*
G54D10*
X05056048Y06043306D03*
G54D10*
X04462593Y06046476D03*
G54D10*
X04442907Y06048228D03*
G54D10*
X04544048Y06053506D03*
G54D10*
X04583852Y06054724D03*
G54D10*
X04601548Y06054706D03*
G54D10*
X04433852Y06056693D03*
G54D10*
X05035427Y06060039D03*
G54D10*
X04867415Y06061318D03*
G54D10*
X04944820Y06062064D03*
G54D10*
X04893695Y06063976D03*
G54D10*
X04990152Y06064960D03*
G54D10*
X04911411Y06065945D03*
G54D10*
X04932081Y06066929D03*
G54D10*
X04971451D03*
G54D10*
X04546713Y06066967D03*
G54D10*
X05010841Y06067323D03*
G54D10*
X05057081Y06081693D03*
G54D10*
X04446040Y06081761D03*
G54D10*
X04393695Y06082677D03*
G54D10*
X04594448Y06084606D03*
G54D10*
X05083088Y06085463D03*
G54D10*
X04478341Y06091535D03*
G54D10*
X04888774Y06093504D03*
G54D10*
X04592548Y06110206D03*
G54D10*
X04444876Y06117126D03*
G54D10*
X04512789Y06118110D03*
G54D10*
X05100388D03*
G54D10*
X05056876Y06119551D03*
G54D10*
X04475388Y06122047D03*
G54D10*
X04576748Y06124006D03*
G54D10*
X04451948Y06130306D03*
G54D10*
X04527553Y06133858D03*
G54D10*
X05082671D03*
G54D10*
X04503931Y06134842D03*
G54D10*
X04600388Y06137795D03*
G54D10*
X04637789Y06149606D03*
G54D10*
X04528518Y06154504D03*
G54D10*
X05035219Y06159719D03*
G54D10*
X04425191Y06174212D03*
G54D10*
X05027533Y06189960D03*
G54D10*
X04635821Y06190945D03*
G54D10*
X05071844D03*
G54D10*
X04528348Y06203506D03*
G54D10*
X04448813Y06204724D03*
G54D10*
X04633852D03*
G54D10*
X05058262Y06213386D03*
G54D10*
X04459631Y06214266D03*
G54D10*
X04544797Y06216515D03*
G54D10*
X04641748Y06216506D03*
G54D10*
X04578734Y06218504D03*
G54D10*
X04543624Y06229219D03*
G54D10*
X04645448Y06233506D03*
G54D10*
X04628648Y06236506D03*
G54D10*
X04606293Y06238189D03*
G54D10*
X04594731Y06240501D03*
G54D10*
X05034448Y06242106D03*
G54D10*
X04559048Y06246106D03*
G54D10*
X04641648Y06248006D03*
G54D10*
X05025585Y06255905D03*
G54D10*
X04559048Y06257906D03*
G54D10*
X04882868Y06258858D03*
G54D10*
X04921142Y06258990D03*
G54D10*
X04896648Y06261811D03*
G54D10*
X04936018D03*
G54D10*
X04513718Y06261867D03*
G54D10*
X04637748Y06263806D03*
G54D10*
X05012789Y06269685D03*
G54D10*
X05002947Y06278543D03*
G54D10*
X04578734Y06278740D03*
G54D10*
X04638748Y06279506D03*
G54D10*
X04638774Y06295275D03*
G54D10*
X04618104Y06296332D03*
G54D10*
X04559049Y06297244D03*
G54D10*
X04756884Y06299905D03*
G54D10*
X04876348Y06305506D03*
G54D10*
X04864048Y06310706D03*
G54D10*
X04606293Y06322834D03*
G54D10*
X04875148Y06323206D03*
G54D10*
X04862948Y06327906D03*
G54D10*
X04299207Y06362204D03*
G54D10*
X04667055Y06365992D03*
G54D10*
X04834640Y06366929D03*
G54D10*
X04679128Y06370078D03*
G54D10*
X04696844D03*
G54D11*
X03531490Y05303149D03*
G54D11*
X03807081D03*
G54D11*
X04240152D03*
G54D11*
X04633852D03*
G54D11*
X05027553D03*
G54D11*
X05381884D03*
G54D11*
X04437002Y05500000D03*
G54D11*
X05106293Y05539370D03*
G54D11*
X04899600Y05680118D03*
G54D11*
X04561411Y05706299D03*
G54D11*
X04959599Y05714687D03*
G54D11*
X04470448Y05782306D03*
G54D11*
X04991348Y05783906D03*
G54D11*
X04606248Y05786406D03*
G54D11*
X04181096Y05795275D03*
G54D11*
X04588148Y05813806D03*
G54D11*
X05381884Y05814960D03*
G54D11*
X03531490Y05854330D03*
G54D11*
X04438970Y05870078D03*
G54D11*
X04442907Y05897638D03*
G54D11*
X05015748Y05915306D03*
G54D11*
X04406339Y05941977D03*
G54D11*
X04943892Y06007874D03*
G54D11*
X05002967Y06082112D03*
G54D11*
X04634246Y06095275D03*
G54D11*
X04937986Y06122047D03*
G54D11*
X04200986Y06122477D03*
G54D11*
X04889758Y06123031D03*
G54D11*
X03531490Y06129921D03*
G54D11*
X05381884Y06208661D03*
G54D11*
X04937490Y06211614D03*
G54D11*
X04937986Y06241141D03*
G54D11*
X04900585Y06242126D03*
G54D11*
X04529522Y06288386D03*
G54D11*
X04476372Y06523622D03*
G54D11*
X05027553D03*
G54D11*
X03531490Y06720472D03*
G54D11*
X03885821D03*
G54D11*
X04318892D03*
G54D11*
X04791333D03*
G54D11*
X05263774D03*
G54D13*
X03777455Y05811811D03*
G54D13*
X03877455D03*
G54D13*
X03777455Y05911811D03*
G54D13*
X03877455D03*
G54D13*
X03777455Y06011811D03*
G54D13*
X03877455D03*
G54D13*
X03777455Y06111811D03*
G54D13*
X03877455D03*
G54D13*
X03777455Y06211811D03*
G54D13*
X03877455D03*
G54D10*
X04702356Y07227165D03*
G54D10*
X04831948Y07230609D03*
G54D10*
X04685033Y07232283D03*
G54D10*
X04666530Y07232677D03*
G54D10*
X04842548Y07239109D03*
G54D10*
X04851548Y07247509D03*
G54D10*
X04862248Y07255909D03*
G54D10*
X04585624Y07259842D03*
G54D10*
X04918301Y07260826D03*
G54D10*
X04896188Y07268720D03*
G54D10*
X04859138Y07269037D03*
G54D10*
X04670169Y07270649D03*
G54D10*
X04938970Y07271653D03*
G54D10*
X04611271Y07280568D03*
G54D10*
X04757868Y07297263D03*
G54D10*
X04669824Y07298786D03*
G54D10*
X04606787Y07300595D03*
G54D10*
X04859138Y07303030D03*
G54D10*
X04628931Y07307086D03*
G54D10*
X04949797Y07313976D03*
G54D10*
X04564665Y07315138D03*
G54D10*
X04553148Y07325809D03*
G54D10*
X04997238Y07344094D03*
G54D10*
X04639748Y07349409D03*
G54D10*
X05027553Y07351989D03*
G54D10*
X04946844Y07357283D03*
G54D10*
X04631808Y07361328D03*
G54D10*
X04642748Y07365809D03*
G54D10*
X04510648Y07372009D03*
G54D10*
X05055112Y07377952D03*
G54D10*
X04639748Y07381909D03*
G54D10*
X05000978Y07388779D03*
G54D10*
X04629002Y07389775D03*
G54D10*
X04475585Y07391732D03*
G54D10*
X04520467Y07393307D03*
G54D10*
X04433065Y07401575D03*
G54D10*
X04637748Y07402509D03*
G54D10*
X04492148Y07409609D03*
G54D10*
X04515348Y07411023D03*
G54D10*
X04560420Y07413443D03*
G54D10*
X04594876Y07415748D03*
G54D10*
X05079719Y07426181D03*
G54D10*
X05084640Y07446850D03*
G54D10*
X04956687Y07464567D03*
G54D10*
X04997969Y07470528D03*
G54D10*
X05076248Y07477309D03*
G54D10*
X04546254Y07478185D03*
G54D10*
X04466510Y07478444D03*
G54D10*
X04525633Y07479527D03*
G54D10*
X04453931Y07482677D03*
G54D10*
X04891726Y07483267D03*
G54D10*
X04907474D03*
G54D10*
X04477108Y07483612D03*
G54D10*
X04925191Y07484252D03*
G54D10*
X04970467Y07486220D03*
G54D10*
X04515810Y07487034D03*
G54D10*
X04589959Y07488391D03*
G54D10*
X04999994Y07492126D03*
G54D10*
X04893695Y07500000D03*
G54D10*
X04590152Y07500393D03*
G54D10*
X04507849Y07506629D03*
G54D10*
X04492120Y07506889D03*
G54D10*
X04633852Y07511811D03*
G54D10*
X04933065D03*
G54D10*
X04972435D03*
G54D10*
X05076748Y07514809D03*
G54D10*
X04451845Y07515606D03*
G54D10*
X04905506Y07515748D03*
G54D10*
X04571852Y07523622D03*
G54D10*
X04477398Y07524131D03*
G54D10*
X04553144Y07524409D03*
G54D10*
X04584640Y07524690D03*
G54D10*
X04505900Y07526771D03*
G54D10*
X04429128Y07527559D03*
G54D10*
X04741136Y07531496D03*
G54D10*
X05077750Y07532480D03*
G54D10*
X04637708Y07535389D03*
G54D10*
X04476372Y07538386D03*
G54D10*
X04538391Y07538420D03*
G54D10*
X05078818Y07544223D03*
G54D10*
X04541041Y07553095D03*
G54D10*
X04493043Y07556027D03*
G54D10*
X04555112Y07556102D03*
G54D10*
X04739167D03*
G54D10*
X04509022Y07556205D03*
G54D10*
X04422248Y07557109D03*
G54D10*
X05056096Y07559055D03*
G54D10*
X04529771Y07559075D03*
G54D10*
X04478456Y07560502D03*
G54D10*
X04905506Y07562992D03*
G54D10*
X04870073Y07563976D03*
G54D10*
X04943892Y07564960D03*
G54D10*
X05079648Y07565209D03*
G54D10*
X04430112Y07567913D03*
G54D10*
X05035427Y07575787D03*
G54D10*
X04625585Y07582677D03*
G54D10*
X04460624Y07583484D03*
G54D10*
X04494089Y07584645D03*
G54D10*
X04435033Y07586614D03*
G54D10*
X04538211D03*
G54D10*
X04556096D03*
G54D10*
X04477410Y07589396D03*
G54D10*
X04590948Y07592109D03*
G54D10*
X05087593Y07593504D03*
G54D10*
X04390051Y07596051D03*
G54D10*
X04507857Y07601059D03*
G54D10*
X04435033Y07601082D03*
G54D10*
X04522632Y07601378D03*
G54D10*
X04538380D03*
G54D10*
X04984898Y07602068D03*
G54D10*
X04944876Y07602362D03*
G54D10*
X05003931D03*
G54D10*
X04900426Y07603039D03*
G54D10*
X04637789Y07606299D03*
G54D10*
X04476409Y07617074D03*
G54D10*
X05056048Y07618109D03*
G54D10*
X04462593Y07621279D03*
G54D10*
X04442907Y07623031D03*
G54D10*
X04544048Y07628309D03*
G54D10*
X04583852Y07629527D03*
G54D10*
X04601548Y07629509D03*
G54D10*
X04433852Y07631496D03*
G54D10*
X05035427Y07634842D03*
G54D10*
X04867415Y07636122D03*
G54D10*
X04944820Y07636867D03*
G54D10*
X04893695Y07638779D03*
G54D10*
X04990152Y07639763D03*
G54D10*
X04911411Y07640748D03*
G54D10*
X04932081Y07641732D03*
G54D10*
X04971451D03*
G54D10*
X04546713Y07641771D03*
G54D10*
X05010841Y07642126D03*
G54D10*
X05057081Y07656496D03*
G54D10*
X04446040Y07656564D03*
G54D10*
X04393695Y07657480D03*
G54D10*
X04594448Y07659409D03*
G54D10*
X05083088Y07660267D03*
G54D10*
X04478341Y07666338D03*
G54D10*
X04888774Y07668307D03*
G54D10*
X04592548Y07685009D03*
G54D10*
X04444876Y07691929D03*
G54D10*
X04512789Y07692913D03*
G54D10*
X05100388D03*
G54D10*
X05056876Y07694354D03*
G54D10*
X04475388Y07696850D03*
G54D10*
X04576748Y07698809D03*
G54D10*
X04451948Y07705109D03*
G54D10*
X04527553Y07708661D03*
G54D10*
X05082671D03*
G54D10*
X04503931Y07709645D03*
G54D10*
X04600388Y07712598D03*
G54D10*
X04637789Y07724409D03*
G54D10*
X04528518Y07729307D03*
G54D10*
X05035219Y07734522D03*
G54D10*
X04425191Y07749015D03*
G54D10*
X05027533Y07764763D03*
G54D10*
X04635821Y07765748D03*
G54D10*
X05071844D03*
G54D10*
X04528348Y07778309D03*
G54D10*
X04448813Y07779527D03*
G54D10*
X04633852D03*
G54D10*
X05058262Y07788189D03*
G54D10*
X04459631Y07789069D03*
G54D10*
X04544797Y07791319D03*
G54D10*
X04641748Y07791309D03*
G54D10*
X04578734Y07793307D03*
G54D10*
X04543624Y07804022D03*
G54D10*
X04645448Y07808309D03*
G54D10*
X04628648Y07811309D03*
G54D10*
X04606293Y07812992D03*
G54D10*
X04594731Y07815304D03*
G54D10*
X05034448Y07816909D03*
G54D10*
X04559048Y07820909D03*
G54D10*
X04641648Y07822809D03*
G54D10*
X05025585Y07830708D03*
G54D10*
X04559048Y07832709D03*
G54D10*
X04882868Y07833661D03*
G54D10*
X04921142Y07833793D03*
G54D10*
X04896648Y07836614D03*
G54D10*
X04936018D03*
G54D10*
X04513718Y07836670D03*
G54D10*
X04637748Y07838609D03*
G54D10*
X05012789Y07844488D03*
G54D10*
X05002947Y07853346D03*
G54D10*
X04578734Y07853543D03*
G54D10*
X04638748Y07854309D03*
G54D10*
X04638774Y07870078D03*
G54D10*
X04618104Y07871135D03*
G54D10*
X04559049Y07872047D03*
G54D10*
X04756884Y07874708D03*
G54D10*
X04876348Y07880309D03*
G54D10*
X04864048Y07885509D03*
G54D10*
X04606293Y07897638D03*
G54D10*
X04875148Y07898009D03*
G54D10*
X04862948Y07902709D03*
G54D10*
X04299207Y07937008D03*
G54D10*
X04667055Y07940795D03*
G54D10*
X04834640Y07941732D03*
G54D10*
X04679128Y07944882D03*
G54D10*
X04696844D03*
G54D11*
X03531490Y06877952D03*
G54D11*
X03807081D03*
G54D11*
X04240152D03*
G54D11*
X04633852D03*
G54D11*
X05027553D03*
G54D11*
X05381884D03*
G54D11*
X04437002Y07074803D03*
G54D11*
X05106293Y07114173D03*
G54D11*
X04899600Y07254921D03*
G54D11*
X04561411Y07281102D03*
G54D11*
X04959599Y07289490D03*
G54D11*
X04470448Y07357109D03*
G54D11*
X04991348Y07358709D03*
G54D11*
X04606248Y07361209D03*
G54D11*
X04181096Y07370078D03*
G54D11*
X04588148Y07388609D03*
G54D11*
X05381884Y07389763D03*
G54D11*
X03531490Y07429134D03*
G54D11*
X04438970Y07444882D03*
G54D11*
X04442907Y07472441D03*
G54D11*
X05015748Y07490109D03*
G54D11*
X04406339Y07516780D03*
G54D11*
X04943892Y07582677D03*
G54D11*
X05002967Y07656915D03*
G54D11*
X04634246Y07670078D03*
G54D11*
X04937986Y07696850D03*
G54D11*
X04200986Y07697280D03*
G54D11*
X04889758Y07697834D03*
G54D11*
X03531490Y07704724D03*
G54D11*
X05381884Y07783464D03*
G54D11*
X04937490Y07786417D03*
G54D11*
X04937986Y07815945D03*
G54D11*
X04900585Y07816929D03*
G54D11*
X04529522Y07863189D03*
G54D11*
X04476372Y08098425D03*
G54D11*
X05027553D03*
G54D11*
X03531490Y08295275D03*
G54D11*
X03885821D03*
G54D11*
X04318892D03*
G54D11*
X04791333D03*
G54D11*
X05263774D03*
G54D13*
X03777455Y07386614D03*
G54D13*
X03877455D03*
G54D13*
X03777455Y07486614D03*
G54D13*
X03877455D03*
G54D13*
X03777455Y07586614D03*
G54D13*
X03877455D03*
G54D13*
X03777455Y07686614D03*
G54D13*
X03877455D03*
G54D13*
X03777455Y07786614D03*
G54D13*
X03877455D03*
G54D10*
X07792303Y00931102D03*
G54D10*
X07979114Y00950394D03*
G54D10*
X07807418Y00950797D03*
G54D10*
X08004704Y00950787D03*
G54D10*
X07990925Y00963779D03*
G54D10*
X08043287Y00977756D03*
G54D10*
X07691318Y00978346D03*
G54D10*
X07794074Y00979134D03*
G54D10*
X07870059Y00979331D03*
G54D10*
X07837098Y00980819D03*
G54D10*
X07674783Y00982283D03*
G54D10*
X07973997Y00988752D03*
G54D10*
X08037371Y00996114D03*
G54D10*
X07795729Y00999980D03*
G54D10*
X07883764D03*
G54D10*
X07748011Y01003149D03*
G54D10*
X07738142Y01016142D03*
G54D10*
X07633444Y01016535D03*
G54D10*
X08054118Y01017897D03*
G54D10*
X07969465Y01018164D03*
G54D10*
X08127933Y01025984D03*
G54D10*
X08093718Y01031497D03*
G54D10*
X08062185Y01036220D03*
G54D10*
X07827897Y01038700D03*
G54D10*
X07808641Y01041338D03*
G54D10*
X08124980D03*
G54D10*
X08011837Y01042449D03*
G54D10*
X07961718Y01043997D03*
G54D10*
X08074783Y01046456D03*
G54D10*
X07604704Y01048819D03*
G54D10*
X07975218Y01049197D03*
G54D10*
X08007818Y01057097D03*
G54D10*
X07592893Y01060236D03*
G54D10*
X08133843Y01060256D03*
G54D10*
X07743318Y01062997D03*
G54D10*
X07829270Y01064547D03*
G54D10*
X07692118Y01066897D03*
G54D10*
X07728326Y01066929D03*
G54D10*
X07712218Y01068897D03*
G54D10*
X08167318D03*
G54D10*
X07814153Y01076378D03*
G54D10*
X08133444Y01079921D03*
G54D10*
X08170218Y01083197D03*
G54D10*
X08114940Y01092519D03*
G54D10*
X07996830Y01096279D03*
G54D10*
X07974928Y01097696D03*
G54D10*
X07944818Y01097997D03*
G54D10*
X08167696Y01099606D03*
G54D10*
X08101948Y01101968D03*
G54D10*
X07561003Y01104331D03*
G54D10*
X07604154Y01107355D03*
G54D10*
X07836618Y01108697D03*
G54D10*
X07865718Y01113697D03*
G54D10*
X07988218Y01115397D03*
G54D10*
X08200767Y01117126D03*
G54D10*
X08048011Y01119291D03*
G54D10*
X08067303Y01122834D03*
G54D10*
X07944818Y01124797D03*
G54D10*
X07722219Y01126749D03*
G54D10*
X07570059Y01128346D03*
G54D10*
X07973591Y01128475D03*
G54D10*
X07647618Y01131890D03*
G54D10*
X08198799Y01132874D03*
G54D10*
X07813211Y01136572D03*
G54D10*
X07687381Y01138363D03*
G54D10*
X07963643Y01142117D03*
G54D10*
X07724018Y01146397D03*
G54D10*
X07614518Y01149997D03*
G54D10*
X08221618Y01165697D03*
G54D10*
X07855492Y01198031D03*
G54D10*
X07593754Y01203363D03*
G54D10*
X07649192Y01203937D03*
G54D10*
X07522421Y01206693D03*
G54D10*
X07581175Y01207596D03*
G54D10*
X07604352Y01208531D03*
G54D10*
X07719665Y01209449D03*
G54D10*
X08196043Y01212205D03*
G54D10*
X07642422Y01213925D03*
G54D10*
X07963366Y01218897D03*
G54D10*
X07720039Y01222834D03*
G54D10*
X07619227Y01231759D03*
G54D10*
X08242218Y01234697D03*
G54D10*
X07630295Y01235827D03*
G54D10*
X07964547Y01237401D03*
G54D10*
X07579089Y01240525D03*
G54D10*
X07649006Y01245284D03*
G54D10*
X07635112Y01247251D03*
G54D10*
X08196850Y01248425D03*
G54D10*
X08223582D03*
G54D10*
X07699096Y01248541D03*
G54D10*
X07604642Y01249050D03*
G54D10*
X07679901Y01249606D03*
G54D10*
X07711884Y01249634D03*
G54D10*
X07556372Y01252478D03*
G54D10*
X07967696Y01258661D03*
G54D10*
X07516909Y01262992D03*
G54D10*
X07665963Y01263084D03*
G54D10*
X07603616Y01263305D03*
G54D10*
X07940318Y01266997D03*
G54D10*
X07644195Y01272083D03*
G54D10*
X07668285Y01278014D03*
G54D10*
X07683051Y01279527D03*
G54D10*
X07620287Y01280947D03*
G54D10*
X07636079Y01281226D03*
G54D10*
X07968464Y01281890D03*
G54D10*
X07549518Y01281997D03*
G54D10*
X07520846Y01282677D03*
G54D10*
X07658759Y01285303D03*
G54D10*
X07605699Y01285422D03*
G54D10*
X07557356Y01292833D03*
G54D10*
X08197618Y01296063D03*
G54D10*
X08243287Y01298425D03*
G54D10*
X07516909Y01299606D03*
G54D10*
X08220059Y01301181D03*
G54D10*
X07587868Y01308403D03*
G54D10*
X07621333Y01309565D03*
G54D10*
X07562277Y01311533D03*
G54D10*
X07665455D03*
G54D10*
X07683340D03*
G54D10*
X07718218Y01316997D03*
G54D10*
X08244074Y01317716D03*
G54D10*
X07749586Y01320866D03*
G54D10*
X07635101Y01325978D03*
G54D10*
X07562277Y01326001D03*
G54D10*
X07649876Y01326297D03*
G54D10*
X07665624D03*
G54D10*
X07765033Y01331218D03*
G54D10*
X08197031Y01333371D03*
G54D10*
X07968484Y01338582D03*
G54D10*
X08196800Y01346017D03*
G54D10*
X07589837Y01346199D03*
G54D10*
X07570151Y01347951D03*
G54D10*
X07671318Y01353297D03*
G54D10*
X07711096Y01354447D03*
G54D10*
X07728818Y01354497D03*
G54D10*
X07968503Y01358268D03*
G54D10*
X07562972Y01360630D03*
G54D10*
X07673957Y01366690D03*
G54D10*
X07522814Y01379921D03*
G54D10*
X07721718Y01384397D03*
G54D10*
X08224389Y01390157D03*
G54D10*
X07574088Y01390785D03*
G54D10*
X07605585Y01391258D03*
G54D10*
X08222421Y01408268D03*
G54D10*
X07719718Y01409997D03*
G54D10*
X07572120Y01416848D03*
G54D10*
X07602632Y01421770D03*
G54D10*
X07540334Y01423228D03*
G54D10*
X07704018Y01423697D03*
G54D10*
X07640137Y01424409D03*
G54D10*
X07654797Y01433581D03*
G54D10*
X07630314Y01434565D03*
G54D10*
X07727632Y01437518D03*
G54D10*
X08132358Y01447970D03*
G54D10*
X07654779Y01453244D03*
G54D10*
X07761758Y01454804D03*
G54D10*
X07577418Y01463497D03*
G54D10*
X07683035Y01464439D03*
G54D10*
X07564518Y01467697D03*
G54D10*
X08196043Y01469685D03*
G54D10*
X07928018Y01472397D03*
G54D10*
X08184900Y01489726D03*
G54D10*
X07763759Y01494094D03*
G54D10*
X07657418Y01496097D03*
G54D10*
X08171633Y01503937D03*
G54D10*
X07760822Y01505514D03*
G54D10*
X07705978Y01518226D03*
G54D10*
X07729739Y01529748D03*
G54D10*
X07653523Y01531496D03*
G54D10*
X08144468Y01536614D03*
G54D10*
X07757018Y01540897D03*
G54D10*
X07692918Y01545297D03*
G54D10*
X08009822Y01547244D03*
G54D10*
X08068877D03*
G54D10*
X08029507D03*
G54D10*
X08049192D03*
G54D10*
X07679507Y01548031D03*
G54D10*
X07765177Y01549504D03*
G54D10*
X07724014Y01553543D03*
G54D10*
X07677118Y01561797D03*
G54D10*
X07753523Y01567716D03*
G54D10*
X08075177Y01570079D03*
G54D10*
X07792500Y01574409D03*
G54D10*
X08057460Y01574803D03*
G54D10*
X07882854Y01575496D03*
G54D10*
X08017696Y01609252D03*
G54D10*
X07733537Y01611811D03*
G54D10*
X07719271Y01612205D03*
G54D10*
X07993090D03*
G54D10*
X07796437Y01633071D03*
G54D10*
X07968484Y01635827D03*
G54D10*
X07811003Y01641338D03*
G54D11*
X06657460Y00578740D03*
G54D11*
X06933051D03*
G54D11*
X07366122D03*
G54D11*
X07759822D03*
G54D11*
X08153523D03*
G54D11*
X08507854D03*
G54D11*
X08372814Y00795669D03*
G54D11*
X08232263Y00814960D03*
G54D11*
X07484232Y00846456D03*
G54D11*
X07725570Y00956299D03*
G54D11*
X07818118Y00980297D03*
G54D11*
X07928318Y01016097D03*
G54D11*
X08042918Y01028697D03*
G54D11*
X07597711Y01082006D03*
G54D11*
X07740518Y01086197D03*
G54D11*
X08507854Y01090551D03*
G54D11*
X07326751Y01094488D03*
G54D11*
X07715718Y01103497D03*
G54D11*
X06657460Y01129921D03*
G54D11*
X07568118Y01171297D03*
G54D11*
X07570018Y01194097D03*
G54D11*
X07533618Y01241697D03*
G54D11*
X07761791Y01387795D03*
G54D11*
X06657460Y01405512D03*
G54D11*
X07968484Y01406787D03*
G54D11*
X07319422Y01406914D03*
G54D11*
X07980295Y01461023D03*
G54D11*
X08507854Y01484252D03*
G54D11*
X08084625Y01515748D03*
G54D11*
X08036594Y01517323D03*
G54D11*
X07259822Y01552362D03*
G54D11*
X07674192Y01581693D03*
G54D11*
X07541825Y01620191D03*
G54D11*
X08173208Y01803149D03*
G54D11*
X07603616Y01823344D03*
G54D11*
X06657460Y01996063D03*
G54D11*
X07011791D03*
G54D11*
X07444862D03*
G54D11*
X07917303D03*
G54D11*
X08389744D03*
G54D13*
X06903425Y01087401D03*
G54D13*
X07003425D03*
G54D13*
X06903425Y01187401D03*
G54D13*
X07003425D03*
G54D13*
X06903425Y01287401D03*
G54D13*
X07003425D03*
G54D13*
X06903425Y01387401D03*
G54D13*
X07003425D03*
G54D13*
X06903425Y01487401D03*
G54D13*
X07003425D03*
G54D10*
X07792303Y02505905D03*
G54D10*
X07979114Y02525197D03*
G54D10*
X07807418Y02525600D03*
G54D10*
X08004704Y02525590D03*
G54D10*
X07990925Y02538582D03*
G54D10*
X08043287Y02552559D03*
G54D10*
X07691318Y02553149D03*
G54D10*
X07794074Y02553937D03*
G54D10*
X07870059Y02554134D03*
G54D10*
X07837098Y02555622D03*
G54D10*
X07674783Y02557086D03*
G54D10*
X07973997Y02563556D03*
G54D10*
X08037371Y02570917D03*
G54D10*
X07795729Y02574783D03*
G54D10*
X07883764D03*
G54D10*
X07748011Y02577953D03*
G54D10*
X07738142Y02590945D03*
G54D10*
X07633444Y02591338D03*
G54D10*
X08054118Y02592700D03*
G54D10*
X07969465Y02592967D03*
G54D10*
X08127933Y02600787D03*
G54D10*
X08093718Y02606300D03*
G54D10*
X08062185Y02611023D03*
G54D10*
X07827897Y02613503D03*
G54D10*
X07808641Y02616142D03*
G54D10*
X08124980D03*
G54D10*
X08011837Y02617252D03*
G54D10*
X07961718Y02618800D03*
G54D10*
X08074783Y02621260D03*
G54D10*
X07604704Y02623622D03*
G54D10*
X07975218Y02624000D03*
G54D10*
X08007818Y02631900D03*
G54D10*
X07592893Y02635039D03*
G54D10*
X08133843Y02635059D03*
G54D10*
X07743318Y02637800D03*
G54D10*
X07829270Y02639350D03*
G54D10*
X07692118Y02641700D03*
G54D10*
X07728326Y02641732D03*
G54D10*
X07712218Y02643700D03*
G54D10*
X08167318D03*
G54D10*
X07814153Y02651181D03*
G54D10*
X08133444Y02654724D03*
G54D10*
X08170218Y02658000D03*
G54D10*
X08114940Y02667323D03*
G54D10*
X07996830Y02671082D03*
G54D10*
X07974928Y02672500D03*
G54D10*
X07944818Y02672800D03*
G54D10*
X08167696Y02674409D03*
G54D10*
X08101948Y02676771D03*
G54D10*
X07561003Y02679134D03*
G54D10*
X07604154Y02682158D03*
G54D10*
X07836618Y02683500D03*
G54D10*
X07865718Y02688500D03*
G54D10*
X07988218Y02690200D03*
G54D10*
X08200767Y02691929D03*
G54D10*
X08048011Y02694094D03*
G54D10*
X08067303Y02697638D03*
G54D10*
X07944818Y02699600D03*
G54D10*
X07722219Y02701552D03*
G54D10*
X07570059Y02703149D03*
G54D10*
X07973591Y02703278D03*
G54D10*
X07647618Y02706693D03*
G54D10*
X08198799Y02707677D03*
G54D10*
X07813211Y02711375D03*
G54D10*
X07687381Y02713166D03*
G54D10*
X07963643Y02716920D03*
G54D10*
X07724018Y02721200D03*
G54D10*
X07614518Y02724800D03*
G54D10*
X08221618Y02740500D03*
G54D10*
X07855492Y02772834D03*
G54D10*
X07593754Y02778167D03*
G54D10*
X07649192Y02778740D03*
G54D10*
X07522421Y02781496D03*
G54D10*
X07581175Y02782400D03*
G54D10*
X07604352Y02783335D03*
G54D10*
X07719665Y02784252D03*
G54D10*
X08196043Y02787008D03*
G54D10*
X07642422Y02788729D03*
G54D10*
X07963366Y02793701D03*
G54D10*
X07720039Y02797638D03*
G54D10*
X07619227Y02806562D03*
G54D10*
X08242218Y02809500D03*
G54D10*
X07630295Y02810630D03*
G54D10*
X07964547Y02812205D03*
G54D10*
X07579089Y02815328D03*
G54D10*
X07649006Y02820087D03*
G54D10*
X07635112Y02822054D03*
G54D10*
X08196850Y02823228D03*
G54D10*
X08223582D03*
G54D10*
X07699096Y02823344D03*
G54D10*
X07604642Y02823853D03*
G54D10*
X07679901Y02824409D03*
G54D10*
X07711884Y02824437D03*
G54D10*
X07556372Y02827281D03*
G54D10*
X07967696Y02833464D03*
G54D10*
X07516909Y02837795D03*
G54D10*
X07665963Y02837888D03*
G54D10*
X07603616Y02838108D03*
G54D10*
X07940318Y02841800D03*
G54D10*
X07644195Y02846886D03*
G54D10*
X07668285Y02852818D03*
G54D10*
X07683051Y02854331D03*
G54D10*
X07620287Y02855750D03*
G54D10*
X07636079Y02856029D03*
G54D10*
X07968464Y02856693D03*
G54D10*
X07549518Y02856800D03*
G54D10*
X07520846Y02857480D03*
G54D10*
X07658759Y02860106D03*
G54D10*
X07605699Y02860225D03*
G54D10*
X07557356Y02867636D03*
G54D10*
X08197618Y02870866D03*
G54D10*
X08243287Y02873228D03*
G54D10*
X07516909Y02874409D03*
G54D10*
X08220059Y02875984D03*
G54D10*
X07587868Y02883207D03*
G54D10*
X07621333Y02884368D03*
G54D10*
X07562277Y02886337D03*
G54D10*
X07665455D03*
G54D10*
X07683340D03*
G54D10*
X07718218Y02891800D03*
G54D10*
X08244074Y02892519D03*
G54D10*
X07749586Y02895669D03*
G54D10*
X07635101Y02900781D03*
G54D10*
X07562277Y02900804D03*
G54D10*
X07649876Y02901100D03*
G54D10*
X07665624D03*
G54D10*
X07765033Y02906022D03*
G54D10*
X08197031Y02908174D03*
G54D10*
X07968484Y02913386D03*
G54D10*
X08196800Y02920820D03*
G54D10*
X07589837Y02921002D03*
G54D10*
X07570151Y02922754D03*
G54D10*
X07671318Y02928100D03*
G54D10*
X07711096Y02929250D03*
G54D10*
X07728818Y02929300D03*
G54D10*
X07968503Y02933071D03*
G54D10*
X07562972Y02935433D03*
G54D10*
X07673957Y02941493D03*
G54D10*
X07522814Y02954724D03*
G54D10*
X07721718Y02959200D03*
G54D10*
X08224389Y02964960D03*
G54D10*
X07574088Y02965588D03*
G54D10*
X07605585Y02966061D03*
G54D10*
X08222421Y02983071D03*
G54D10*
X07719718Y02984800D03*
G54D10*
X07572120Y02991651D03*
G54D10*
X07602632Y02996573D03*
G54D10*
X07540334Y02998031D03*
G54D10*
X07704018Y02998500D03*
G54D10*
X07640137Y02999212D03*
G54D10*
X07654797Y03008384D03*
G54D10*
X07630314Y03009368D03*
G54D10*
X07727632Y03012321D03*
G54D10*
X08132358Y03022773D03*
G54D10*
X07654779Y03028047D03*
G54D10*
X07761758Y03029607D03*
G54D10*
X07577418Y03038300D03*
G54D10*
X07683035Y03039242D03*
G54D10*
X07564518Y03042500D03*
G54D10*
X08196043Y03044488D03*
G54D10*
X07928018Y03047200D03*
G54D10*
X08184900Y03064530D03*
G54D10*
X07763759Y03068897D03*
G54D10*
X07657418Y03070900D03*
G54D10*
X08171633Y03078740D03*
G54D10*
X07760822Y03080317D03*
G54D10*
X07705978Y03093029D03*
G54D10*
X07729739Y03104551D03*
G54D10*
X07653523Y03106299D03*
G54D10*
X08144468Y03111417D03*
G54D10*
X07757018Y03115700D03*
G54D10*
X07692918Y03120100D03*
G54D10*
X08009822Y03122047D03*
G54D10*
X08068877D03*
G54D10*
X08029507D03*
G54D10*
X08049192D03*
G54D10*
X07679507Y03122834D03*
G54D10*
X07765177Y03124307D03*
G54D10*
X07724014Y03128346D03*
G54D10*
X07677118Y03136600D03*
G54D10*
X07753523Y03142519D03*
G54D10*
X08075177Y03144882D03*
G54D10*
X07792500Y03149212D03*
G54D10*
X08057460Y03149606D03*
G54D10*
X07882854Y03150299D03*
G54D10*
X08017696Y03184055D03*
G54D10*
X07733537Y03186614D03*
G54D10*
X07719271Y03187008D03*
G54D10*
X07993090D03*
G54D10*
X07796437Y03207874D03*
G54D10*
X07968484Y03210630D03*
G54D10*
X07811003Y03216142D03*
G54D11*
X06657460Y02153543D03*
G54D11*
X06933051D03*
G54D11*
X07366122D03*
G54D11*
X07759822D03*
G54D11*
X08153523D03*
G54D11*
X08507854D03*
G54D11*
X08372814Y02370472D03*
G54D11*
X08232263Y02389764D03*
G54D11*
X07484232Y02421260D03*
G54D11*
X07725570Y02531102D03*
G54D11*
X07818118Y02555100D03*
G54D11*
X07928318Y02590900D03*
G54D11*
X08042918Y02603500D03*
G54D11*
X07597711Y02656809D03*
G54D11*
X07740518Y02661000D03*
G54D11*
X08507854Y02665354D03*
G54D11*
X07326751Y02669291D03*
G54D11*
X07715718Y02678300D03*
G54D11*
X06657460Y02704724D03*
G54D11*
X07568118Y02746100D03*
G54D11*
X07570018Y02768900D03*
G54D11*
X07533618Y02816500D03*
G54D11*
X07761791Y02962598D03*
G54D11*
X06657460Y02980315D03*
G54D11*
X07968484Y02981590D03*
G54D11*
X07319422Y02981717D03*
G54D11*
X07980295Y03035827D03*
G54D11*
X08507854Y03059055D03*
G54D11*
X08084625Y03090551D03*
G54D11*
X08036594Y03092126D03*
G54D11*
X07259822Y03127165D03*
G54D11*
X07674192Y03156496D03*
G54D11*
X07541825Y03194994D03*
G54D11*
X08173208Y03377953D03*
G54D11*
X07603616Y03398148D03*
G54D11*
X06657460Y03570866D03*
G54D11*
X07011791D03*
G54D11*
X07444862D03*
G54D11*
X07917303D03*
G54D11*
X08389744D03*
G54D13*
X06903425Y02662205D03*
G54D13*
X07003425D03*
G54D13*
X06903425Y02762205D03*
G54D13*
X07003425D03*
G54D13*
X06903425Y02862205D03*
G54D13*
X07003425D03*
G54D13*
X06903425Y02962205D03*
G54D13*
X07003425D03*
G54D13*
X06903425Y03062205D03*
G54D13*
X07003425D03*
G54D10*
X07792303Y04080708D03*
G54D10*
X07979114Y04100000D03*
G54D10*
X07807418Y04100403D03*
G54D10*
X08004704Y04100394D03*
G54D10*
X07990925Y04113386D03*
G54D10*
X08043287Y04127362D03*
G54D10*
X07691318Y04127953D03*
G54D10*
X07794074Y04128740D03*
G54D10*
X07870059Y04128937D03*
G54D10*
X07837098Y04130425D03*
G54D10*
X07674783Y04131890D03*
G54D10*
X07973997Y04138359D03*
G54D10*
X08037371Y04145721D03*
G54D10*
X07795729Y04149586D03*
G54D10*
X07883764D03*
G54D10*
X07748011Y04152756D03*
G54D10*
X07738142Y04165748D03*
G54D10*
X07633444Y04166142D03*
G54D10*
X08054118Y04167503D03*
G54D10*
X07969465Y04167770D03*
G54D10*
X08127933Y04175590D03*
G54D10*
X08093718Y04181103D03*
G54D10*
X08062185Y04185827D03*
G54D10*
X07827897Y04188306D03*
G54D10*
X07808641Y04190945D03*
G54D10*
X08124980D03*
G54D10*
X08011837Y04192055D03*
G54D10*
X07961718Y04193603D03*
G54D10*
X08074783Y04196063D03*
G54D10*
X07604704Y04198425D03*
G54D10*
X07975218Y04198803D03*
G54D10*
X08007818Y04206703D03*
G54D10*
X07592893Y04209842D03*
G54D10*
X08133843Y04209862D03*
G54D10*
X07743318Y04212603D03*
G54D10*
X07829270Y04214153D03*
G54D10*
X07692118Y04216503D03*
G54D10*
X07728326Y04216535D03*
G54D10*
X07712218Y04218503D03*
G54D10*
X08167318D03*
G54D10*
X07814153Y04225984D03*
G54D10*
X08133444Y04229527D03*
G54D10*
X08170218Y04232803D03*
G54D10*
X08114940Y04242126D03*
G54D10*
X07996830Y04245886D03*
G54D10*
X07974928Y04247303D03*
G54D10*
X07944818Y04247603D03*
G54D10*
X08167696Y04249212D03*
G54D10*
X08101948Y04251575D03*
G54D10*
X07561003Y04253937D03*
G54D10*
X07604154Y04256962D03*
G54D10*
X07836618Y04258303D03*
G54D10*
X07865718Y04263303D03*
G54D10*
X07988218Y04265003D03*
G54D10*
X08200767Y04266732D03*
G54D10*
X08048011Y04268897D03*
G54D10*
X08067303Y04272441D03*
G54D10*
X07944818Y04274403D03*
G54D10*
X07722219Y04276355D03*
G54D10*
X07570059Y04277953D03*
G54D10*
X07973591Y04278081D03*
G54D10*
X07647618Y04281496D03*
G54D10*
X08198799Y04282480D03*
G54D10*
X07813211Y04286178D03*
G54D10*
X07687381Y04287969D03*
G54D10*
X07963643Y04291723D03*
G54D10*
X07724018Y04296003D03*
G54D10*
X07614518Y04299603D03*
G54D10*
X08221618Y04315303D03*
G54D10*
X07855492Y04347638D03*
G54D10*
X07593754Y04352970D03*
G54D10*
X07649192Y04353543D03*
G54D10*
X07522421Y04356299D03*
G54D10*
X07581175Y04357203D03*
G54D10*
X07604352Y04358138D03*
G54D10*
X07719665Y04359055D03*
G54D10*
X08196043Y04361811D03*
G54D10*
X07642422Y04363532D03*
G54D10*
X07963366Y04368504D03*
G54D10*
X07720039Y04372441D03*
G54D10*
X07619227Y04381366D03*
G54D10*
X08242218Y04384303D03*
G54D10*
X07630295Y04385433D03*
G54D10*
X07964547Y04387008D03*
G54D10*
X07579089Y04390132D03*
G54D10*
X07649006Y04394890D03*
G54D10*
X07635112Y04396857D03*
G54D10*
X08196850Y04398031D03*
G54D10*
X08223582D03*
G54D10*
X07699096Y04398148D03*
G54D10*
X07604642Y04398656D03*
G54D10*
X07679901Y04399212D03*
G54D10*
X07711884Y04399240D03*
G54D10*
X07556372Y04402085D03*
G54D10*
X07967696Y04408268D03*
G54D10*
X07516909Y04412598D03*
G54D10*
X07665963Y04412691D03*
G54D10*
X07603616Y04412911D03*
G54D10*
X07940318Y04416603D03*
G54D10*
X07644195Y04421689D03*
G54D10*
X07668285Y04427621D03*
G54D10*
X07683051Y04429134D03*
G54D10*
X07620287Y04430553D03*
G54D10*
X07636079Y04430832D03*
G54D10*
X07968464Y04431496D03*
G54D10*
X07549518Y04431603D03*
G54D10*
X07520846Y04432283D03*
G54D10*
X07658759Y04434909D03*
G54D10*
X07605699Y04435028D03*
G54D10*
X07557356Y04442439D03*
G54D10*
X08197618Y04445669D03*
G54D10*
X08243287Y04448031D03*
G54D10*
X07516909Y04449212D03*
G54D10*
X08220059Y04450787D03*
G54D10*
X07587868Y04458010D03*
G54D10*
X07621333Y04459171D03*
G54D10*
X07562277Y04461140D03*
G54D10*
X07665455D03*
G54D10*
X07683340D03*
G54D10*
X07718218Y04466603D03*
G54D10*
X08244074Y04467323D03*
G54D10*
X07749586Y04470472D03*
G54D10*
X07635101Y04475584D03*
G54D10*
X07562277Y04475608D03*
G54D10*
X07649876Y04475903D03*
G54D10*
X07665624D03*
G54D10*
X07765033Y04480825D03*
G54D10*
X08197031Y04482977D03*
G54D10*
X07968484Y04488189D03*
G54D10*
X08196800Y04495623D03*
G54D10*
X07589837Y04495805D03*
G54D10*
X07570151Y04497557D03*
G54D10*
X07671318Y04502903D03*
G54D10*
X07711096Y04504053D03*
G54D10*
X07728818Y04504103D03*
G54D10*
X07968503Y04507874D03*
G54D10*
X07562972Y04510236D03*
G54D10*
X07673957Y04516296D03*
G54D10*
X07522814Y04529527D03*
G54D10*
X07721718Y04534003D03*
G54D10*
X08224389Y04539764D03*
G54D10*
X07574088Y04540392D03*
G54D10*
X07605585Y04540864D03*
G54D10*
X08222421Y04557874D03*
G54D10*
X07719718Y04559603D03*
G54D10*
X07572120Y04566455D03*
G54D10*
X07602632Y04571376D03*
G54D10*
X07540334Y04572834D03*
G54D10*
X07704018Y04573303D03*
G54D10*
X07640137Y04574016D03*
G54D10*
X07654797Y04583187D03*
G54D10*
X07630314Y04584171D03*
G54D10*
X07727632Y04587124D03*
G54D10*
X08132358Y04597576D03*
G54D10*
X07654779Y04602850D03*
G54D10*
X07761758Y04604410D03*
G54D10*
X07577418Y04613103D03*
G54D10*
X07683035Y04614045D03*
G54D10*
X07564518Y04617303D03*
G54D10*
X08196043Y04619291D03*
G54D10*
X07928018Y04622003D03*
G54D10*
X08184900Y04639333D03*
G54D10*
X07763759Y04643701D03*
G54D10*
X07657418Y04645703D03*
G54D10*
X08171633Y04653543D03*
G54D10*
X07760822Y04655120D03*
G54D10*
X07705978Y04667833D03*
G54D10*
X07729739Y04679355D03*
G54D10*
X07653523Y04681102D03*
G54D10*
X08144468Y04686220D03*
G54D10*
X07757018Y04690503D03*
G54D10*
X07692918Y04694903D03*
G54D10*
X08009822Y04696850D03*
G54D10*
X08068877D03*
G54D10*
X08029507D03*
G54D10*
X08049192D03*
G54D10*
X07679507Y04697638D03*
G54D10*
X07765177Y04699110D03*
G54D10*
X07724014Y04703149D03*
G54D10*
X07677118Y04711403D03*
G54D10*
X07753523Y04717323D03*
G54D10*
X08075177Y04719685D03*
G54D10*
X07792500Y04724016D03*
G54D10*
X08057460Y04724409D03*
G54D10*
X07882854Y04725102D03*
G54D10*
X08017696Y04758858D03*
G54D10*
X07733537Y04761417D03*
G54D10*
X07719271Y04761811D03*
G54D10*
X07993090D03*
G54D10*
X07796437Y04782677D03*
G54D10*
X07968484Y04785433D03*
G54D10*
X07811003Y04790945D03*
G54D11*
X06657460Y03728346D03*
G54D11*
X06933051D03*
G54D11*
X07366122D03*
G54D11*
X07759822D03*
G54D11*
X08153523D03*
G54D11*
X08507854D03*
G54D11*
X08372814Y03945275D03*
G54D11*
X08232263Y03964567D03*
G54D11*
X07484232Y03996063D03*
G54D11*
X07725570Y04105905D03*
G54D11*
X07818118Y04129903D03*
G54D11*
X07928318Y04165703D03*
G54D11*
X08042918Y04178303D03*
G54D11*
X07597711Y04231612D03*
G54D11*
X07740518Y04235803D03*
G54D11*
X08507854Y04240157D03*
G54D11*
X07326751Y04244094D03*
G54D11*
X07715718Y04253103D03*
G54D11*
X06657460Y04279527D03*
G54D11*
X07568118Y04320903D03*
G54D11*
X07570018Y04343703D03*
G54D11*
X07533618Y04391303D03*
G54D11*
X07761791Y04537401D03*
G54D11*
X06657460Y04555118D03*
G54D11*
X07968484Y04556394D03*
G54D11*
X07319422Y04556520D03*
G54D11*
X07980295Y04610630D03*
G54D11*
X08507854Y04633858D03*
G54D11*
X08084625Y04665354D03*
G54D11*
X08036594Y04666929D03*
G54D11*
X07259822Y04701968D03*
G54D11*
X07674192Y04731299D03*
G54D11*
X07541825Y04769797D03*
G54D11*
X08173208Y04952756D03*
G54D11*
X07603616Y04972951D03*
G54D11*
X06657460Y05145669D03*
G54D11*
X07011791D03*
G54D11*
X07444862D03*
G54D11*
X07917303D03*
G54D11*
X08389744D03*
G54D13*
X06903425Y04237008D03*
G54D13*
X07003425D03*
G54D13*
X06903425Y04337008D03*
G54D13*
X07003425D03*
G54D13*
X06903425Y04437008D03*
G54D13*
X07003425D03*
G54D13*
X06903425Y04537008D03*
G54D13*
X07003425D03*
G54D13*
X06903425Y04637008D03*
G54D13*
X07003425D03*
G54D10*
X07792303Y05655512D03*
G54D10*
X07979114Y05674803D03*
G54D10*
X07807418Y05675206D03*
G54D10*
X08004704Y05675197D03*
G54D10*
X07990925Y05688189D03*
G54D10*
X08043287Y05702165D03*
G54D10*
X07691318Y05702756D03*
G54D10*
X07794074Y05703543D03*
G54D10*
X07870059Y05703740D03*
G54D10*
X07837098Y05705228D03*
G54D10*
X07674783Y05706693D03*
G54D10*
X07973997Y05713162D03*
G54D10*
X08037371Y05720524D03*
G54D10*
X07795729Y05724390D03*
G54D10*
X07883764D03*
G54D10*
X07748011Y05727559D03*
G54D10*
X07738142Y05740551D03*
G54D10*
X07633444Y05740945D03*
G54D10*
X08054118Y05742306D03*
G54D10*
X07969465Y05742574D03*
G54D10*
X08127933Y05750394D03*
G54D10*
X08093718Y05755906D03*
G54D10*
X08062185Y05760630D03*
G54D10*
X07827897Y05763109D03*
G54D10*
X07808641Y05765748D03*
G54D10*
X08124980D03*
G54D10*
X08011837Y05766858D03*
G54D10*
X07961718Y05768406D03*
G54D10*
X08074783Y05770866D03*
G54D10*
X07604704Y05773228D03*
G54D10*
X07975218Y05773606D03*
G54D10*
X08007818Y05781506D03*
G54D10*
X07592893Y05784645D03*
G54D10*
X08133843Y05784665D03*
G54D10*
X07743318Y05787406D03*
G54D10*
X07829270Y05788956D03*
G54D10*
X07692118Y05791306D03*
G54D10*
X07728326Y05791338D03*
G54D10*
X07712218Y05793306D03*
G54D10*
X08167318D03*
G54D10*
X07814153Y05800787D03*
G54D10*
X08133444Y05804331D03*
G54D10*
X08170218Y05807606D03*
G54D10*
X08114940Y05816929D03*
G54D10*
X07996830Y05820689D03*
G54D10*
X07974928Y05822106D03*
G54D10*
X07944818Y05822406D03*
G54D10*
X08167696Y05824016D03*
G54D10*
X08101948Y05826378D03*
G54D10*
X07561003Y05828740D03*
G54D10*
X07604154Y05831765D03*
G54D10*
X07836618Y05833106D03*
G54D10*
X07865718Y05838106D03*
G54D10*
X07988218Y05839806D03*
G54D10*
X08200767Y05841535D03*
G54D10*
X08048011Y05843701D03*
G54D10*
X08067303Y05847244D03*
G54D10*
X07944818Y05849206D03*
G54D10*
X07722219Y05851158D03*
G54D10*
X07570059Y05852756D03*
G54D10*
X07973591Y05852884D03*
G54D10*
X07647618Y05856299D03*
G54D10*
X08198799Y05857283D03*
G54D10*
X07813211Y05860981D03*
G54D10*
X07687381Y05862772D03*
G54D10*
X07963643Y05866526D03*
G54D10*
X07724018Y05870806D03*
G54D10*
X07614518Y05874406D03*
G54D10*
X08221618Y05890106D03*
G54D10*
X07855492Y05922441D03*
G54D10*
X07593754Y05927773D03*
G54D10*
X07649192Y05928346D03*
G54D10*
X07522421Y05931102D03*
G54D10*
X07581175Y05932006D03*
G54D10*
X07604352Y05932941D03*
G54D10*
X07719665Y05933858D03*
G54D10*
X08196043Y05936614D03*
G54D10*
X07642422Y05938335D03*
G54D10*
X07963366Y05943307D03*
G54D10*
X07720039Y05947244D03*
G54D10*
X07619227Y05956169D03*
G54D10*
X08242218Y05959106D03*
G54D10*
X07630295Y05960236D03*
G54D10*
X07964547Y05961811D03*
G54D10*
X07579089Y05964935D03*
G54D10*
X07649006Y05969693D03*
G54D10*
X07635112Y05971660D03*
G54D10*
X08196850Y05972834D03*
G54D10*
X08223582D03*
G54D10*
X07699096Y05972951D03*
G54D10*
X07604642Y05973460D03*
G54D10*
X07679901Y05974016D03*
G54D10*
X07711884Y05974043D03*
G54D10*
X07556372Y05976888D03*
G54D10*
X07967696Y05983071D03*
G54D10*
X07516909Y05987401D03*
G54D10*
X07665963Y05987494D03*
G54D10*
X07603616Y05987714D03*
G54D10*
X07940318Y05991406D03*
G54D10*
X07644195Y05996492D03*
G54D10*
X07668285Y06002424D03*
G54D10*
X07683051Y06003937D03*
G54D10*
X07620287Y06005356D03*
G54D10*
X07636079Y06005635D03*
G54D10*
X07968464Y06006299D03*
G54D10*
X07549518Y06006406D03*
G54D10*
X07520846Y06007086D03*
G54D10*
X07658759Y06009712D03*
G54D10*
X07605699Y06009831D03*
G54D10*
X07557356Y06017242D03*
G54D10*
X08197618Y06020472D03*
G54D10*
X08243287Y06022834D03*
G54D10*
X07516909Y06024016D03*
G54D10*
X08220059Y06025590D03*
G54D10*
X07587868Y06032813D03*
G54D10*
X07621333Y06033974D03*
G54D10*
X07562277Y06035943D03*
G54D10*
X07665455D03*
G54D10*
X07683340D03*
G54D10*
X07718218Y06041406D03*
G54D10*
X08244074Y06042126D03*
G54D10*
X07749586Y06045275D03*
G54D10*
X07635101Y06050388D03*
G54D10*
X07562277Y06050411D03*
G54D10*
X07649876Y06050707D03*
G54D10*
X07665624D03*
G54D10*
X07765033Y06055628D03*
G54D10*
X08197031Y06057781D03*
G54D10*
X07968484Y06062992D03*
G54D10*
X08196800Y06070427D03*
G54D10*
X07589837Y06070608D03*
G54D10*
X07570151Y06072360D03*
G54D10*
X07671318Y06077706D03*
G54D10*
X07711096Y06078856D03*
G54D10*
X07728818Y06078906D03*
G54D10*
X07968503Y06082677D03*
G54D10*
X07562972Y06085039D03*
G54D10*
X07673957Y06091100D03*
G54D10*
X07522814Y06104331D03*
G54D10*
X07721718Y06108806D03*
G54D10*
X08224389Y06114567D03*
G54D10*
X07574088Y06115195D03*
G54D10*
X07605585Y06115667D03*
G54D10*
X08222421Y06132677D03*
G54D10*
X07719718Y06134406D03*
G54D10*
X07572120Y06141258D03*
G54D10*
X07602632Y06146179D03*
G54D10*
X07540334Y06147638D03*
G54D10*
X07704018Y06148106D03*
G54D10*
X07640137Y06148819D03*
G54D10*
X07654797Y06157990D03*
G54D10*
X07630314Y06158974D03*
G54D10*
X07727632Y06161927D03*
G54D10*
X08132358Y06172379D03*
G54D10*
X07654779Y06177653D03*
G54D10*
X07761758Y06179213D03*
G54D10*
X07577418Y06187906D03*
G54D10*
X07683035Y06188848D03*
G54D10*
X07564518Y06192106D03*
G54D10*
X08196043Y06194094D03*
G54D10*
X07928018Y06196806D03*
G54D10*
X08184900Y06214136D03*
G54D10*
X07763759Y06218504D03*
G54D10*
X07657418Y06220506D03*
G54D10*
X08171633Y06228346D03*
G54D10*
X07760822Y06229923D03*
G54D10*
X07705978Y06242636D03*
G54D10*
X07729739Y06254158D03*
G54D10*
X07653523Y06255905D03*
G54D10*
X08144468Y06261023D03*
G54D10*
X07757018Y06265306D03*
G54D10*
X07692918Y06269706D03*
G54D10*
X08009822Y06271653D03*
G54D10*
X08068877D03*
G54D10*
X08029507D03*
G54D10*
X08049192D03*
G54D10*
X07679507Y06272441D03*
G54D10*
X07765177Y06273913D03*
G54D10*
X07724014Y06277953D03*
G54D10*
X07677118Y06286206D03*
G54D10*
X07753523Y06292126D03*
G54D10*
X08075177Y06294488D03*
G54D10*
X07792500Y06298819D03*
G54D10*
X08057460Y06299212D03*
G54D10*
X07882854Y06299905D03*
G54D10*
X08017696Y06333661D03*
G54D10*
X07733537Y06336220D03*
G54D10*
X07719271Y06336614D03*
G54D10*
X07993090D03*
G54D10*
X07796437Y06357480D03*
G54D10*
X07968484Y06360236D03*
G54D10*
X07811003Y06365748D03*
G54D11*
X06657460Y05303149D03*
G54D11*
X06933051D03*
G54D11*
X07366122D03*
G54D11*
X07759822D03*
G54D11*
X08153523D03*
G54D11*
X08507854D03*
G54D11*
X08372814Y05520079D03*
G54D11*
X08232263Y05539370D03*
G54D11*
X07484232Y05570866D03*
G54D11*
X07725570Y05680708D03*
G54D11*
X07818118Y05704706D03*
G54D11*
X07928318Y05740506D03*
G54D11*
X08042918Y05753106D03*
G54D11*
X07597711Y05806415D03*
G54D11*
X07740518Y05810606D03*
G54D11*
X08507854Y05814960D03*
G54D11*
X07326751Y05818897D03*
G54D11*
X07715718Y05827906D03*
G54D11*
X06657460Y05854331D03*
G54D11*
X07568118Y05895706D03*
G54D11*
X07570018Y05918506D03*
G54D11*
X07533618Y05966106D03*
G54D11*
X07761791Y06112205D03*
G54D11*
X06657460Y06129921D03*
G54D11*
X07968484Y06131197D03*
G54D11*
X07319422Y06131323D03*
G54D11*
X07980295Y06185433D03*
G54D11*
X08507854Y06208661D03*
G54D11*
X08084625Y06240157D03*
G54D11*
X08036594Y06241732D03*
G54D11*
X07259822Y06276771D03*
G54D11*
X07674192Y06306102D03*
G54D11*
X07541825Y06344600D03*
G54D11*
X08173208Y06527559D03*
G54D11*
X07603616Y06547754D03*
G54D11*
X06657460Y06720472D03*
G54D11*
X07011791D03*
G54D11*
X07444862D03*
G54D11*
X07917303D03*
G54D11*
X08389744D03*
G54D13*
X06903425Y05811811D03*
G54D13*
X07003425D03*
G54D13*
X06903425Y05911811D03*
G54D13*
X07003425D03*
G54D13*
X06903425Y06011811D03*
G54D13*
X07003425D03*
G54D13*
X06903425Y06111811D03*
G54D13*
X07003425D03*
G54D13*
X06903425Y06211811D03*
G54D13*
X07003425D03*
G54D10*
X07792303Y07230315D03*
G54D10*
X07979114Y07249606D03*
G54D10*
X07807418Y07250009D03*
G54D10*
X08004704Y07250000D03*
G54D10*
X07990925Y07262992D03*
G54D10*
X08043287Y07276968D03*
G54D10*
X07691318Y07277559D03*
G54D10*
X07794074Y07278346D03*
G54D10*
X07870059Y07278543D03*
G54D10*
X07837098Y07280031D03*
G54D10*
X07674783Y07281496D03*
G54D10*
X07973997Y07287965D03*
G54D10*
X08037371Y07295327D03*
G54D10*
X07795729Y07299193D03*
G54D10*
X07883764D03*
G54D10*
X07748011Y07302362D03*
G54D10*
X07738142Y07315354D03*
G54D10*
X07633444Y07315748D03*
G54D10*
X08054118Y07317109D03*
G54D10*
X07969465Y07317377D03*
G54D10*
X08127933Y07325197D03*
G54D10*
X08093718Y07330709D03*
G54D10*
X08062185Y07335433D03*
G54D10*
X07827897Y07337913D03*
G54D10*
X07808641Y07340551D03*
G54D10*
X08124980D03*
G54D10*
X08011837Y07341661D03*
G54D10*
X07961718Y07343209D03*
G54D10*
X08074783Y07345669D03*
G54D10*
X07604704Y07348031D03*
G54D10*
X07975218Y07348409D03*
G54D10*
X08007818Y07356309D03*
G54D10*
X07592893Y07359449D03*
G54D10*
X08133843Y07359468D03*
G54D10*
X07743318Y07362209D03*
G54D10*
X07829270Y07363760D03*
G54D10*
X07692118Y07366109D03*
G54D10*
X07728326Y07366142D03*
G54D10*
X07712218Y07368109D03*
G54D10*
X08167318D03*
G54D10*
X07814153Y07375590D03*
G54D10*
X08133444Y07379134D03*
G54D10*
X08170218Y07382409D03*
G54D10*
X08114940Y07391732D03*
G54D10*
X07996830Y07395492D03*
G54D10*
X07974928Y07396909D03*
G54D10*
X07944818Y07397209D03*
G54D10*
X08167696Y07398819D03*
G54D10*
X08101948Y07401181D03*
G54D10*
X07561003Y07403543D03*
G54D10*
X07604154Y07406568D03*
G54D10*
X07836618Y07407909D03*
G54D10*
X07865718Y07412909D03*
G54D10*
X07988218Y07414609D03*
G54D10*
X08200767Y07416338D03*
G54D10*
X08048011Y07418504D03*
G54D10*
X08067303Y07422047D03*
G54D10*
X07944818Y07424009D03*
G54D10*
X07722219Y07425961D03*
G54D10*
X07570059Y07427559D03*
G54D10*
X07973591Y07427688D03*
G54D10*
X07647618Y07431102D03*
G54D10*
X08198799Y07432086D03*
G54D10*
X07813211Y07435784D03*
G54D10*
X07687381Y07437575D03*
G54D10*
X07963643Y07441329D03*
G54D10*
X07724018Y07445609D03*
G54D10*
X07614518Y07449209D03*
G54D10*
X08221618Y07464909D03*
G54D10*
X07855492Y07497244D03*
G54D10*
X07593754Y07502576D03*
G54D10*
X07649192Y07503149D03*
G54D10*
X07522421Y07505905D03*
G54D10*
X07581175Y07506809D03*
G54D10*
X07604352Y07507744D03*
G54D10*
X07719665Y07508661D03*
G54D10*
X08196043Y07511417D03*
G54D10*
X07642422Y07513138D03*
G54D10*
X07963366Y07518110D03*
G54D10*
X07720039Y07522047D03*
G54D10*
X07619227Y07530972D03*
G54D10*
X08242218Y07533909D03*
G54D10*
X07630295Y07535039D03*
G54D10*
X07964547Y07536614D03*
G54D10*
X07579089Y07539738D03*
G54D10*
X07649006Y07544497D03*
G54D10*
X07635112Y07546464D03*
G54D10*
X08196850Y07547638D03*
G54D10*
X08223582D03*
G54D10*
X07699096Y07547754D03*
G54D10*
X07604642Y07548263D03*
G54D10*
X07679901Y07548819D03*
G54D10*
X07711884Y07548846D03*
G54D10*
X07556372Y07551691D03*
G54D10*
X07967696Y07557874D03*
G54D10*
X07516909Y07562205D03*
G54D10*
X07665963Y07562297D03*
G54D10*
X07603616Y07562518D03*
G54D10*
X07940318Y07566209D03*
G54D10*
X07644195Y07571296D03*
G54D10*
X07668285Y07577227D03*
G54D10*
X07683051Y07578740D03*
G54D10*
X07620287Y07580159D03*
G54D10*
X07636079Y07580438D03*
G54D10*
X07968464Y07581102D03*
G54D10*
X07549518Y07581209D03*
G54D10*
X07520846Y07581890D03*
G54D10*
X07658759Y07584515D03*
G54D10*
X07605699Y07584635D03*
G54D10*
X07557356Y07592045D03*
G54D10*
X08197618Y07595275D03*
G54D10*
X08243287Y07597638D03*
G54D10*
X07516909Y07598819D03*
G54D10*
X08220059Y07600394D03*
G54D10*
X07587868Y07607616D03*
G54D10*
X07621333Y07608777D03*
G54D10*
X07562277Y07610746D03*
G54D10*
X07665455D03*
G54D10*
X07683340D03*
G54D10*
X07718218Y07616209D03*
G54D10*
X08244074Y07616929D03*
G54D10*
X07749586Y07620079D03*
G54D10*
X07635101Y07625191D03*
G54D10*
X07562277Y07625214D03*
G54D10*
X07649876Y07625510D03*
G54D10*
X07665624D03*
G54D10*
X07765033Y07630431D03*
G54D10*
X08197031Y07632584D03*
G54D10*
X07968484Y07637795D03*
G54D10*
X08196800Y07645230D03*
G54D10*
X07589837Y07645411D03*
G54D10*
X07570151Y07647163D03*
G54D10*
X07671318Y07652509D03*
G54D10*
X07711096Y07653659D03*
G54D10*
X07728818Y07653709D03*
G54D10*
X07968503Y07657480D03*
G54D10*
X07562972Y07659842D03*
G54D10*
X07673957Y07665903D03*
G54D10*
X07522814Y07679134D03*
G54D10*
X07721718Y07683609D03*
G54D10*
X08224389Y07689370D03*
G54D10*
X07574088Y07689998D03*
G54D10*
X07605585Y07690470D03*
G54D10*
X08222421Y07707480D03*
G54D10*
X07719718Y07709209D03*
G54D10*
X07572120Y07716061D03*
G54D10*
X07602632Y07720982D03*
G54D10*
X07540334Y07722441D03*
G54D10*
X07704018Y07722909D03*
G54D10*
X07640137Y07723622D03*
G54D10*
X07654797Y07732793D03*
G54D10*
X07630314Y07733777D03*
G54D10*
X07727632Y07736730D03*
G54D10*
X08132358Y07747182D03*
G54D10*
X07654779Y07752457D03*
G54D10*
X07761758Y07754016D03*
G54D10*
X07577418Y07762709D03*
G54D10*
X07683035Y07763651D03*
G54D10*
X07564518Y07766909D03*
G54D10*
X08196043Y07768897D03*
G54D10*
X07928018Y07771609D03*
G54D10*
X08184900Y07788939D03*
G54D10*
X07763759Y07793307D03*
G54D10*
X07657418Y07795309D03*
G54D10*
X08171633Y07803149D03*
G54D10*
X07760822Y07804727D03*
G54D10*
X07705978Y07817439D03*
G54D10*
X07729739Y07828961D03*
G54D10*
X07653523Y07830708D03*
G54D10*
X08144468Y07835827D03*
G54D10*
X07757018Y07840109D03*
G54D10*
X07692918Y07844509D03*
G54D10*
X08009822Y07846456D03*
G54D10*
X08068877D03*
G54D10*
X08029507D03*
G54D10*
X08049192D03*
G54D10*
X07679507Y07847244D03*
G54D10*
X07765177Y07848716D03*
G54D10*
X07724014Y07852756D03*
G54D10*
X07677118Y07861009D03*
G54D10*
X07753523Y07866929D03*
G54D10*
X08075177Y07869291D03*
G54D10*
X07792500Y07873622D03*
G54D10*
X08057460Y07874016D03*
G54D10*
X07882854Y07874708D03*
G54D10*
X08017696Y07908464D03*
G54D10*
X07733537Y07911023D03*
G54D10*
X07719271Y07911417D03*
G54D10*
X07993090D03*
G54D10*
X07796437Y07932283D03*
G54D10*
X07968484Y07935039D03*
G54D10*
X07811003Y07940551D03*
G54D11*
X06657460Y06877953D03*
G54D11*
X06933051D03*
G54D11*
X07366122D03*
G54D11*
X07759822D03*
G54D11*
X08153523D03*
G54D11*
X08507854D03*
G54D11*
X08372814Y07094882D03*
G54D11*
X08232263Y07114173D03*
G54D11*
X07484232Y07145669D03*
G54D11*
X07725570Y07255512D03*
G54D11*
X07818118Y07279509D03*
G54D11*
X07928318Y07315309D03*
G54D11*
X08042918Y07327909D03*
G54D11*
X07597711Y07381218D03*
G54D11*
X07740518Y07385409D03*
G54D11*
X08507854Y07389764D03*
G54D11*
X07326751Y07393701D03*
G54D11*
X07715718Y07402709D03*
G54D11*
X06657460Y07429134D03*
G54D11*
X07568118Y07470509D03*
G54D11*
X07570018Y07493309D03*
G54D11*
X07533618Y07540909D03*
G54D11*
X07761791Y07687008D03*
G54D11*
X06657460Y07704724D03*
G54D11*
X07968484Y07706000D03*
G54D11*
X07319422Y07706126D03*
G54D11*
X07980295Y07760236D03*
G54D11*
X08507854Y07783464D03*
G54D11*
X08084625Y07814960D03*
G54D11*
X08036594Y07816535D03*
G54D11*
X07259822Y07851575D03*
G54D11*
X07674192Y07880905D03*
G54D11*
X07541825Y07919404D03*
G54D11*
X08173208Y08102362D03*
G54D11*
X07603616Y08122557D03*
G54D11*
X06657460Y08295275D03*
G54D11*
X07011791D03*
G54D11*
X07444862D03*
G54D11*
X07917303D03*
G54D11*
X08389744D03*
G54D13*
X06903425Y07386614D03*
G54D13*
X07003425D03*
G54D13*
X06903425Y07486614D03*
G54D13*
X07003425D03*
G54D13*
X06903425Y07586614D03*
G54D13*
X07003425D03*
G54D13*
X06903425Y07686614D03*
G54D13*
X07003425D03*
G54D13*
X06903425Y07786614D03*
G54D13*
X07003425D03*
M02*
