%TF.GenerationSoftware,KiCad,Pcbnew,8.0.3*%
%TF.CreationDate,2024-10-01T18:17:42-04:00*%
%TF.ProjectId,headstage-16stim,68656164-7374-4616-9765-2d3136737469,B*%
%TF.SameCoordinates,Original*%
%TF.FileFunction,Copper,L3,Inr*%
%TF.FilePolarity,Positive*%
%FSLAX46Y46*%
G04 Gerber Fmt 4.6, Leading zero omitted, Abs format (unit mm)*
G04 Created by KiCad (PCBNEW 8.0.3) date 2024-10-01 18:17:42*
%MOMM*%
%LPD*%
G01*
G04 APERTURE LIST*
G04 Aperture macros list*
%AMRoundRect*
0 Rectangle with rounded corners*
0 $1 Rounding radius*
0 $2 $3 $4 $5 $6 $7 $8 $9 X,Y pos of 4 corners*
0 Add a 4 corners polygon primitive as box body*
4,1,4,$2,$3,$4,$5,$6,$7,$8,$9,$2,$3,0*
0 Add four circle primitives for the rounded corners*
1,1,$1+$1,$2,$3*
1,1,$1+$1,$4,$5*
1,1,$1+$1,$6,$7*
1,1,$1+$1,$8,$9*
0 Add four rect primitives between the rounded corners*
20,1,$1+$1,$2,$3,$4,$5,0*
20,1,$1+$1,$4,$5,$6,$7,0*
20,1,$1+$1,$6,$7,$8,$9,0*
20,1,$1+$1,$8,$9,$2,$3,0*%
G04 Aperture macros list end*
%TA.AperFunction,ComponentPad*%
%ADD10RoundRect,0.250000X-0.600000X0.600000X-0.600000X-0.600000X0.600000X-0.600000X0.600000X0.600000X0*%
%TD*%
%TA.AperFunction,ComponentPad*%
%ADD11C,1.700000*%
%TD*%
%TA.AperFunction,ViaPad*%
%ADD12C,0.300000*%
%TD*%
%TA.AperFunction,ViaPad*%
%ADD13C,0.200000*%
%TD*%
%TA.AperFunction,Conductor*%
%ADD14C,0.100000*%
%TD*%
%TA.AperFunction,Conductor*%
%ADD15C,0.076200*%
%TD*%
%TA.AperFunction,Conductor*%
%ADD16C,0.095250*%
%TD*%
%TA.AperFunction,Conductor*%
%ADD17C,0.200000*%
%TD*%
%TA.AperFunction,Conductor*%
%ADD18C,0.150000*%
%TD*%
%TA.AperFunction,Conductor*%
%ADD19C,0.300000*%
%TD*%
G04 APERTURE END LIST*
D10*
%TO.N,/FPGA/DO_{Flash}{slash}TCK*%
%TO.C,J3*%
X128580000Y-38247500D03*
D11*
%TO.N,GND*%
X128580000Y-40787500D03*
%TO.N,/FPGA/SCLK_{Flash}{slash}TDO*%
X126040000Y-38247500D03*
%TO.N,+1V8*%
X126040000Y-40787500D03*
%TO.N,/FPGA/DI_{Flash}{slash}TMS*%
X123500000Y-38247500D03*
%TO.N,/FPGA/~{CS}_{Flash}*%
X123500000Y-40787500D03*
%TO.N,unconnected-(J3-Pin_7-Pad7)*%
X120960000Y-38247500D03*
%TO.N,/FPGA/CRESET_{B}*%
X120960000Y-40787500D03*
%TO.N,/FPGA/TDI*%
X118420000Y-38247500D03*
%TO.N,GND*%
X118420000Y-40787500D03*
%TD*%
D12*
%TO.N,GND*%
X105000000Y-84000000D03*
X141000000Y-84000000D03*
X135000000Y-83000000D03*
X127000000Y-81000000D03*
D13*
%TO.N,/FPGA/GPIO2_{Ser}*%
X124920000Y-54919776D03*
%TO.N,GND*%
X125890000Y-55920000D03*
X125040000Y-56410000D03*
X119410000Y-62740000D03*
X121500000Y-64430000D03*
X132500000Y-65120000D03*
%TO.N,/FPGA/GPIO2_{Ser}*%
X131972589Y-65606203D03*
%TO.N,GND*%
X130800000Y-67580000D03*
%TO.N,/DC Tap & Regulation/3v3_{EN}*%
X131627887Y-66857044D03*
%TO.N,/FPGA/GPIO2_{Ser}*%
X128860000Y-70330000D03*
X124920000Y-56050000D03*
%TO.N,/FPGA/CRESET_{B}*%
X124100000Y-58040000D03*
%TO.N,/FPGA/TDI*%
X125253665Y-58834675D03*
X124102922Y-56811631D03*
%TO.N,+7V*%
X130681465Y-68053796D03*
%TO.N,/Ephys/~{CS}*%
X118686948Y-70302623D03*
%TO.N,/DC Tap & Regulation/3v3_{EN}*%
X115700000Y-63300000D03*
%TO.N,/FPGA/CRESET_{B}*%
X127003550Y-56994920D03*
D12*
%TO.N,GND*%
X119500000Y-32000000D03*
D13*
X131675000Y-66550000D03*
X128130000Y-71080000D03*
D12*
X128500000Y-79000000D03*
X136600000Y-70500000D03*
D13*
X126110000Y-71800000D03*
X129040060Y-60025386D03*
X132490000Y-61300000D03*
X115650000Y-58260000D03*
D12*
X118500000Y-79000000D03*
D13*
X114940000Y-65570000D03*
X127752015Y-60049168D03*
X118850000Y-54950000D03*
X119550000Y-57150000D03*
X119463269Y-65429723D03*
X118140000Y-61380000D03*
X117380000Y-68000000D03*
D12*
X137112953Y-56032359D03*
D13*
X126570000Y-71750000D03*
X126787953Y-55232359D03*
X117730000Y-55760000D03*
X118550000Y-69020000D03*
X119320000Y-67810000D03*
X119714422Y-58160000D03*
X118926830Y-56046017D03*
X116199500Y-60912032D03*
X117250000Y-61240000D03*
X122612953Y-54832359D03*
X121760000Y-65170000D03*
D12*
X127910000Y-65600000D03*
D13*
X117250000Y-69275000D03*
X127996750Y-58049597D03*
X115150000Y-65880000D03*
D12*
X126532400Y-65300000D03*
X126535611Y-48813830D03*
D13*
X117900000Y-59200000D03*
D12*
X105500000Y-79000000D03*
D13*
X115675000Y-62800000D03*
X129970000Y-69680000D03*
X123780000Y-72280000D03*
D12*
X126500000Y-32000000D03*
D13*
X131750000Y-58970000D03*
D12*
X105500000Y-50000000D03*
D13*
X119175000Y-71200000D03*
X126912953Y-56007359D03*
D12*
X112300000Y-53000000D03*
X118600000Y-49000000D03*
D13*
X119419424Y-59044884D03*
X129220000Y-70310000D03*
D12*
X105500000Y-32000000D03*
D13*
X130790000Y-60830000D03*
D12*
X129340000Y-67030000D03*
D13*
X132280000Y-60930000D03*
D12*
X111010000Y-75570000D03*
D13*
X115670000Y-60870000D03*
X124270000Y-72300000D03*
X117839500Y-61763971D03*
X125850000Y-53980000D03*
X130817600Y-63125000D03*
D12*
X129300000Y-68250000D03*
D13*
X130120000Y-57960000D03*
X127312953Y-59182359D03*
X114450000Y-60825000D03*
D12*
X105500000Y-39000000D03*
D13*
X121450000Y-53970000D03*
D12*
X141500000Y-32000000D03*
D13*
X115712799Y-61962799D03*
X125360000Y-55000000D03*
X127212953Y-57332359D03*
X117182983Y-61729099D03*
X130157403Y-60136004D03*
X126125953Y-55282359D03*
X118700000Y-70814300D03*
X117440000Y-56060000D03*
D12*
X105500000Y-60000000D03*
D13*
X123310000Y-53830000D03*
X131636861Y-65866861D03*
X116199500Y-63148112D03*
X128639058Y-70796960D03*
D12*
X105500000Y-70000000D03*
X141500000Y-76000000D03*
D13*
X122540000Y-57970000D03*
X123110913Y-57063069D03*
X122880000Y-53830000D03*
D12*
X141500000Y-64000000D03*
D13*
X118790000Y-68690000D03*
X124612953Y-60132359D03*
X116620000Y-56790000D03*
X121365438Y-55781859D03*
X117120000Y-67680000D03*
X119199089Y-67327201D03*
X114950000Y-66220000D03*
X122510000Y-71779500D03*
X123429143Y-57417583D03*
X115750000Y-57840000D03*
D12*
X141500000Y-41000000D03*
X141500000Y-52000000D03*
D13*
X123680000Y-53720000D03*
X122230000Y-65200000D03*
D12*
X111500000Y-72000000D03*
D13*
X126950000Y-54425000D03*
%TO.N,+2V5*%
X118960000Y-61950000D03*
X119086883Y-62690000D03*
%TO.N,/FPGA/D0+*%
X122540701Y-58782359D03*
X130100000Y-67850000D03*
%TO.N,/FPGA/CLK+*%
X130100002Y-66850001D03*
X121860000Y-58989500D03*
%TO.N,/FPGA/CLK-*%
X121520000Y-58980000D03*
X130100000Y-66350000D03*
%TO.N,/FPGA/D0-*%
X122512953Y-58457560D03*
X129970000Y-67350000D03*
D12*
%TO.N,+1V2*%
X115699500Y-61481830D03*
X116930000Y-67190000D03*
D13*
%TO.N,/FPGA/SDA_{Ser}*%
X124667633Y-71105107D03*
X124480437Y-54982348D03*
%TO.N,/FPGA/SCL_{Ser}*%
X124988841Y-71099245D03*
X122887953Y-56032359D03*
X123362953Y-54657359D03*
%TO.N,/FPGA/GPIO0_{Ser}*%
X125300000Y-65323798D03*
X124487953Y-57607359D03*
D12*
%TO.N,/FPGA/TDI*%
X130230000Y-47300000D03*
D13*
%TO.N,/FPGA/CLK*%
X120010000Y-56310000D03*
X122540000Y-56040000D03*
%TO.N,/FPGA/PDB_{Ser}*%
X125037953Y-55182359D03*
X128750000Y-60100000D03*
%TO.N,/FPGA/GPIO3_{Ser}*%
X127578439Y-69462400D03*
X124993453Y-55682359D03*
%TO.N,/FPGA/CLK_{Ser}*%
X124800000Y-65300000D03*
X124033453Y-55632359D03*
%TO.N,/FPGA/DI_{Flash}{slash}TMS*%
X127140000Y-56708576D03*
X124479851Y-56832082D03*
%TO.N,/FPGA/DO_{Flash}{slash}TCK*%
X129290000Y-58633576D03*
D12*
X131952855Y-54462855D03*
D13*
X125513933Y-57819029D03*
%TO.N,/FPGA/~{CS}_{Flash}*%
X124112953Y-57603061D03*
X126612953Y-58982359D03*
X129940000Y-59930000D03*
%TO.N,+4V*%
X117650500Y-66298415D03*
X119809767Y-65177042D03*
%TO.N,/Ephys/~{CS}*%
X122309348Y-55409365D03*
%TO.N,/Ephys/SCLK*%
X121472953Y-55462359D03*
X120408553Y-71729136D03*
%TO.N,/Ephys/MISO*%
X117450500Y-65470990D03*
X121450000Y-56051065D03*
%TO.N,/Ephys/MOSI*%
X119370000Y-64700000D03*
X121633713Y-57018024D03*
%TO.N,/3D Pose/SCL*%
X122430218Y-57185272D03*
X119668924Y-61356076D03*
%TO.N,/3D Pose/Data_{0}*%
X117900000Y-58280000D03*
X122086690Y-56428879D03*
%TO.N,/3D Pose/Env_{0}*%
X117950000Y-58790000D03*
X122190000Y-56710000D03*
%TO.N,/3D Pose/Data_{1}*%
X124112953Y-54982359D03*
X130050000Y-58299500D03*
%TO.N,/3D Pose/Env_{1}*%
X130470000Y-57900000D03*
X123637953Y-54857359D03*
%TO.N,Net-(U4-VIN-)*%
X117278199Y-66401179D03*
X122770000Y-65280000D03*
%TO.N,+7V*%
X122510000Y-71100498D03*
X118576751Y-65486992D03*
%TO.N,/FPGA/CRESET_{B}*%
X124487953Y-57207359D03*
%TO.N,/Ephys/StimEn*%
X122160493Y-72253864D03*
X121380000Y-57190000D03*
%TD*%
D14*
%TO.N,/FPGA/DI_{Flash}{slash}TMS*%
X126613576Y-56708576D02*
X127140000Y-56708576D01*
X126488853Y-56833299D02*
X126613576Y-56708576D01*
X124480474Y-56833299D02*
X126488853Y-56833299D01*
%TO.N,/FPGA/GPIO2_{Ser}*%
X131972589Y-62182589D02*
X131972589Y-65606203D01*
X130545000Y-59435000D02*
X131760000Y-60650000D01*
X131760000Y-61970000D02*
X131972589Y-62182589D01*
X130295000Y-59435000D02*
X130545000Y-59435000D01*
X130083801Y-59223801D02*
X130295000Y-59435000D01*
X129267644Y-58360000D02*
X129336320Y-58360000D01*
X131760000Y-60650000D02*
X131760000Y-61970000D01*
X125683800Y-56050000D02*
X126043800Y-56410000D01*
X127317644Y-56410000D02*
X129267644Y-58360000D01*
X129336320Y-58360000D02*
X130083801Y-59107481D01*
X126043800Y-56410000D02*
X127317644Y-56410000D01*
X124920000Y-56050000D02*
X125683800Y-56050000D01*
X130083801Y-59107481D02*
X130083801Y-59223801D01*
%TO.N,/FPGA/GPIO3_{Ser}*%
X126976424Y-55683576D02*
X124994076Y-55683576D01*
X128613800Y-57320952D02*
X126976424Y-55683576D01*
X128613800Y-57352985D02*
X128613800Y-57320952D01*
X129281891Y-58021076D02*
X128613800Y-57352985D01*
X129361076Y-58021076D02*
X129281891Y-58021076D01*
X130010000Y-58670000D02*
X129361076Y-58021076D01*
X130440000Y-58670000D02*
X130010000Y-58670000D01*
X132053800Y-60283800D02*
X130440000Y-58670000D01*
X132053800Y-61703800D02*
X132053800Y-60283800D01*
X132230000Y-61880000D02*
X132053800Y-61703800D01*
X132230000Y-65519266D02*
X132230000Y-61880000D01*
X131140000Y-68320000D02*
X131490000Y-67780000D01*
X132080000Y-66080000D02*
X132230000Y-65519266D01*
X130850000Y-68720000D02*
X131140000Y-68320000D01*
X130550000Y-69080000D02*
X130850000Y-68720000D01*
X131820000Y-67010000D02*
X132080000Y-66080000D01*
X131490000Y-67780000D02*
X131820000Y-67010000D01*
X130290000Y-69350000D02*
X130550000Y-69080000D01*
X129807600Y-69462400D02*
X130290000Y-69350000D01*
X127578439Y-69462400D02*
X129807600Y-69462400D01*
%TO.N,/Ephys/~{CS}*%
X121489390Y-54590000D02*
X122309971Y-55410582D01*
X119731424Y-54868576D02*
X120010000Y-54590000D01*
X118940000Y-55220000D02*
X119291424Y-54868576D01*
X118520000Y-55220000D02*
X118940000Y-55220000D01*
X117979501Y-55760499D02*
X118520000Y-55220000D01*
X117979501Y-56347651D02*
X117979501Y-55760499D01*
X115820000Y-58507152D02*
X117979501Y-56347651D01*
X115820000Y-59810000D02*
X115820000Y-58507152D01*
X116470000Y-60460000D02*
X115820000Y-59810000D01*
X116470000Y-63600000D02*
X116470000Y-60460000D01*
X116300000Y-63770000D02*
X116470000Y-63600000D01*
X116300000Y-65520000D02*
X116300000Y-63770000D01*
X116756779Y-66593221D02*
X116756779Y-65976779D01*
X119016200Y-68516200D02*
X117500000Y-67000000D01*
X119291424Y-54868576D02*
X119731424Y-54868576D01*
X119016200Y-69973371D02*
X119016200Y-68516200D01*
X118686948Y-70302623D02*
X119016200Y-69973371D01*
X117163558Y-67000000D02*
X116756779Y-66593221D01*
X117500000Y-67000000D02*
X117163558Y-67000000D01*
X120010000Y-54590000D02*
X121489390Y-54590000D01*
X116756779Y-65976779D02*
X116300000Y-65520000D01*
D15*
%TO.N,/FPGA/CLK_{Ser}*%
X121040000Y-59053980D02*
X121040000Y-59132152D01*
X123060000Y-57753066D02*
X122623066Y-58190000D01*
X121903980Y-58190000D02*
X121040000Y-59053980D01*
X123060000Y-57417048D02*
X123060000Y-57753066D01*
X123580000Y-56897048D02*
X123060000Y-57417048D01*
X123580000Y-56410000D02*
X123580000Y-56897048D01*
X122623066Y-58190000D02*
X121903980Y-58190000D01*
X124033453Y-55956547D02*
X123580000Y-56410000D01*
X124033453Y-55632359D02*
X124033453Y-55956547D01*
%TO.N,/FPGA/SDA_{Ser}*%
X120760000Y-58980000D02*
X120760000Y-59180000D01*
X122020000Y-57720000D02*
X120760000Y-58980000D01*
X122480000Y-57720000D02*
X122020000Y-57720000D01*
X122822400Y-56514752D02*
X122822400Y-57377600D01*
X123213576Y-56123576D02*
X122822400Y-56514752D01*
X123213576Y-55926424D02*
X123213576Y-56123576D01*
X123906913Y-55233087D02*
X123213576Y-55926424D01*
X124231538Y-55233087D02*
X123906913Y-55233087D01*
X122822400Y-57377600D02*
X122480000Y-57720000D01*
%TO.N,/FPGA/SCL_{Ser}*%
X120510000Y-58860000D02*
X120510000Y-59025001D01*
X122670000Y-57281508D02*
X122383908Y-57567600D01*
X122670000Y-56252152D02*
X122670000Y-57281508D01*
X122383908Y-57567600D02*
X121802400Y-57567600D01*
X121802400Y-57567600D02*
X120510000Y-58860000D01*
X122888576Y-56033576D02*
X122670000Y-56252152D01*
D14*
%TO.N,/FPGA/GPIO0_{Ser}*%
X127066425Y-58183576D02*
X125063576Y-58183576D01*
X127815001Y-58932151D02*
X127066425Y-58183576D01*
X128947849Y-58932151D02*
X127815001Y-58932151D01*
X129595698Y-59580000D02*
X128947849Y-58932151D01*
X131230000Y-60855752D02*
X129954248Y-59580000D01*
X131230000Y-62040000D02*
X131230000Y-60855752D01*
X131400000Y-62210000D02*
X131230000Y-62040000D01*
X131330000Y-67500000D02*
X131400000Y-67300000D01*
X131400000Y-67300000D02*
X131400000Y-62210000D01*
X130633800Y-68526200D02*
X130800000Y-68360000D01*
X131230000Y-67720000D02*
X131330000Y-67500000D01*
X125323300Y-65323798D02*
X128525702Y-68526200D01*
X129954248Y-59580000D02*
X129595698Y-59580000D01*
X128525702Y-68526200D02*
X130633800Y-68526200D01*
X130800000Y-68360000D02*
X131230000Y-67720000D01*
X125063576Y-58183576D02*
X124488576Y-57608576D01*
X125300000Y-65323798D02*
X125323300Y-65323798D01*
%TO.N,/3D Pose/Data_{1}*%
X125816424Y-54693576D02*
X124403576Y-54693576D01*
X127075000Y-54975000D02*
X126097848Y-54975000D01*
X128650000Y-56890000D02*
X127425000Y-55665000D01*
X126097848Y-54975000D02*
X125816424Y-54693576D01*
X127425000Y-55665000D02*
X127425000Y-55325000D01*
X128890000Y-56890000D02*
X128650000Y-56890000D01*
X127425000Y-55325000D02*
X127075000Y-54975000D01*
X129350000Y-57350000D02*
X128890000Y-56890000D01*
X130050000Y-58299500D02*
X129350000Y-57599500D01*
X124403576Y-54693576D02*
X124113576Y-54983576D01*
X129350000Y-57599500D02*
X129350000Y-57350000D01*
%TO.N,/3D Pose/Env_{1}*%
X129060000Y-56310000D02*
X130470000Y-57720000D01*
X127661424Y-55431424D02*
X128540000Y-56310000D01*
X127661424Y-55108576D02*
X127661424Y-55431424D01*
X130470000Y-57720000D02*
X130470000Y-57900000D01*
X127277848Y-54725000D02*
X127661424Y-55108576D01*
X126347848Y-54725000D02*
X127277848Y-54725000D01*
X128540000Y-56310000D02*
X129060000Y-56310000D01*
X126081424Y-54458576D02*
X126347848Y-54725000D01*
X124038576Y-54458576D02*
X126081424Y-54458576D01*
X123638576Y-54858576D02*
X124038576Y-54458576D01*
%TO.N,/FPGA/DO_{Flash}{slash}TCK*%
X127400246Y-57820246D02*
X125514556Y-57820246D01*
X128213576Y-58633576D02*
X127400246Y-57820246D01*
X129290000Y-58633576D02*
X128213576Y-58633576D01*
D15*
%TO.N,/FPGA/PDB_{Ser}*%
X128333576Y-59753576D02*
X128663576Y-60083576D01*
X126473576Y-59533576D02*
X126693576Y-59753576D01*
X123480000Y-58680000D02*
X124333576Y-59533576D01*
X123480000Y-57702744D02*
X123480000Y-58680000D01*
X126693576Y-59753576D02*
X128333576Y-59753576D01*
X123660989Y-57521755D02*
X123480000Y-57702744D01*
X123660989Y-57059011D02*
X123660989Y-57521755D01*
X124635000Y-55677956D02*
X123780000Y-56532956D01*
X124635000Y-55475000D02*
X124635000Y-55677956D01*
X123780000Y-56940000D02*
X123660989Y-57059011D01*
X124927641Y-55182359D02*
X124635000Y-55475000D01*
X124333576Y-59533576D02*
X126473576Y-59533576D01*
X125037953Y-55182359D02*
X124927641Y-55182359D01*
X123780000Y-56532956D02*
X123780000Y-56940000D01*
D16*
%TO.N,/FPGA/D0-*%
X126161924Y-62828076D02*
X126161924Y-62828075D01*
X129231324Y-63597476D02*
X127055588Y-63597476D01*
X130683475Y-65049627D02*
X129231324Y-63597476D01*
X130683475Y-66880373D02*
X130683475Y-65049627D01*
X126161924Y-62828075D02*
G75*
G02*
X126161956Y-62303893I262076J262075D01*
G01*
X126843456Y-63509608D02*
X126161924Y-62828076D01*
X129970000Y-67350000D02*
X130213848Y-67350000D01*
X130213848Y-67350000D02*
X130683475Y-66880373D01*
X127055588Y-63597476D02*
G75*
G02*
X126843467Y-63509597I12J299976D01*
G01*
D15*
%TO.N,/FPGA/TDI*%
X125218990Y-58800000D02*
X125253665Y-58834675D01*
X123813389Y-57584881D02*
X123660000Y-57738270D01*
X123660000Y-58120000D02*
X124340000Y-58800000D01*
X124340000Y-58800000D02*
X125218990Y-58800000D01*
X123813389Y-57146611D02*
X123813389Y-57584881D01*
X124102922Y-56857078D02*
X123813389Y-57146611D01*
X124102922Y-56811631D02*
X124102922Y-56857078D01*
X123660000Y-57738270D02*
X123660000Y-58120000D01*
%TO.N,+4V*%
X119794687Y-65192122D02*
X118507878Y-65192122D01*
X119809767Y-65177042D02*
X119794687Y-65192122D01*
X118507878Y-65192122D02*
X117650500Y-66049500D01*
X117650500Y-66049500D02*
X117650500Y-66298415D01*
D14*
%TO.N,+7V*%
X122510000Y-70190000D02*
X122510000Y-71100498D01*
X118576751Y-65576751D02*
X118910000Y-65910000D01*
X118576751Y-65486992D02*
X118576751Y-65576751D01*
X118910000Y-65910000D02*
X118910000Y-66590000D01*
X118910000Y-66590000D02*
X122510000Y-70190000D01*
%TO.N,/Ephys/StimEn*%
X122264357Y-72150000D02*
X122160493Y-72253864D01*
X122600000Y-72150000D02*
X122264357Y-72150000D01*
X119169923Y-58330077D02*
X119169923Y-61209923D01*
X119626904Y-57873096D02*
X119169923Y-58330077D01*
X123030000Y-71720000D02*
X122600000Y-72150000D01*
X119169923Y-61209923D02*
X123030000Y-65070000D01*
X119974056Y-57873096D02*
X119626904Y-57873096D01*
X120657152Y-57190000D02*
X119974056Y-57873096D01*
X123030000Y-65070000D02*
X123030000Y-71720000D01*
X121380000Y-57190000D02*
X120657152Y-57190000D01*
%TO.N,/Ephys/SCLK*%
X117862021Y-66762021D02*
X120408553Y-69308553D01*
X117286192Y-66762021D02*
X117862021Y-66762021D01*
X116920000Y-63820000D02*
X117028698Y-63928698D01*
X116920000Y-58030000D02*
X116920000Y-63820000D01*
X117028698Y-63928698D02*
X117028698Y-66504527D01*
X118620000Y-55740000D02*
X118620000Y-56330000D01*
X118620000Y-56330000D02*
X116920000Y-58030000D01*
X118896424Y-55463576D02*
X118620000Y-55740000D01*
X117028698Y-66504527D02*
X117286192Y-66762021D01*
X120408553Y-69308553D02*
X120408553Y-71729136D01*
X121473576Y-55463576D02*
X118896424Y-55463576D01*
%TO.N,/FPGA/CRESET_{B}*%
X126980000Y-56971370D02*
X127003550Y-56994920D01*
X126980000Y-56960000D02*
X126980000Y-56971370D01*
%TO.N,GND*%
X130225000Y-56925000D02*
X132500000Y-54650000D01*
X130825000Y-57525000D02*
X130225000Y-56925000D01*
X132500000Y-54650000D02*
X133300000Y-54650000D01*
D17*
%TO.N,+2V5*%
X118960000Y-61950000D02*
X119086883Y-62076883D01*
X119086883Y-62076883D02*
X119086883Y-62690000D01*
D16*
%TO.N,/FPGA/D0+*%
X122540701Y-58817625D02*
X122540701Y-58783576D01*
X130956525Y-64936525D02*
X129344426Y-63324426D01*
X130100000Y-67850000D02*
X130956525Y-66993475D01*
X129344426Y-63324426D02*
X127168690Y-63324426D01*
X126023498Y-61780010D02*
X126023497Y-61780011D01*
X126547710Y-61780011D02*
X126547711Y-61780011D01*
X122540000Y-58820000D02*
X125692722Y-61972723D01*
X126355000Y-62635000D02*
X126354999Y-62635000D01*
X130956525Y-66993475D02*
X130956525Y-64936525D01*
X126354999Y-62496937D02*
X126547711Y-62304224D01*
X126956558Y-63236558D02*
X126355000Y-62635000D01*
X126023497Y-61780011D02*
X125830784Y-61972723D01*
X125830784Y-61972723D02*
G75*
G02*
X125692768Y-61972675I-68984J69023D01*
G01*
X126354999Y-62635000D02*
G75*
G02*
X126355031Y-62496968I69001J69000D01*
G01*
X127168690Y-63324426D02*
G75*
G02*
X126956558Y-63236558I10J300026D01*
G01*
X126547711Y-61780011D02*
G75*
G03*
X126023494Y-61780006I-262111J-262089D01*
G01*
X126547711Y-62304224D02*
G75*
G03*
X126547728Y-61779993I-262111J262124D01*
G01*
%TO.N,/FPGA/CLK+*%
X121830000Y-60280000D02*
X122010000Y-60460001D01*
X130217333Y-65347333D02*
X130217333Y-66117333D01*
X130217333Y-66117333D02*
X130360000Y-66260000D01*
X122148062Y-60460000D02*
X122148064Y-60460001D01*
X122920211Y-61012403D02*
X122810337Y-61122276D01*
X130360000Y-66260000D02*
X130360000Y-66590003D01*
X122810337Y-61122276D02*
X122810339Y-61122277D01*
X121830000Y-59019500D02*
X121860000Y-58989500D01*
X123334548Y-61784552D02*
X123334550Y-61784551D01*
X123334550Y-61784551D02*
X126041016Y-64491016D01*
X123444424Y-61536615D02*
X123334549Y-61646489D01*
X130360000Y-66590003D02*
X130100002Y-66850001D01*
X123444425Y-61012403D02*
X123444424Y-61012402D01*
X122257936Y-60350127D02*
X122148062Y-60460000D01*
X121830000Y-60280000D02*
X121830000Y-59019500D01*
X122782150Y-60350127D02*
X122782149Y-60350126D01*
X122672274Y-60984213D02*
X122782149Y-60874339D01*
X122672275Y-61122277D02*
X122672275Y-61122275D01*
X122672275Y-61122275D02*
X122672273Y-61122276D01*
X126253148Y-64578884D02*
X129448884Y-64578884D01*
X129448884Y-64578884D02*
X130217333Y-65347333D01*
X122810339Y-61122277D02*
G75*
G02*
X122672275Y-61122277I-69032J69032D01*
G01*
X122148064Y-60460001D02*
G75*
G02*
X122010000Y-60460001I-69032J69032D01*
G01*
X122782149Y-60350126D02*
G75*
G03*
X122257893Y-60350084I-262149J-262074D01*
G01*
X122782147Y-60874340D02*
G75*
G03*
X122782182Y-60350095I-262147J262140D01*
G01*
X123444422Y-61536616D02*
G75*
G03*
X123444433Y-61012395I-262122J262116D01*
G01*
X123334549Y-61646489D02*
G75*
G03*
X123334569Y-61784531I69051J-69011D01*
G01*
X123444424Y-61012402D02*
G75*
G03*
X122920193Y-61012385I-262124J-262098D01*
G01*
X126041016Y-64491016D02*
G75*
G03*
X126253148Y-64578855I212084J212116D01*
G01*
X122672273Y-61122276D02*
G75*
G02*
X122672229Y-60984168I69027J69076D01*
G01*
%TO.N,/FPGA/CLK-*%
X122479198Y-60791137D02*
X122589073Y-60681263D01*
X129917333Y-66167333D02*
X130100000Y-66350000D01*
X121626950Y-60463102D02*
X121816923Y-60653074D01*
X123141474Y-61977628D02*
X123587976Y-62424128D01*
X123003412Y-61315351D02*
X123113286Y-61205478D01*
X128098858Y-64851934D02*
X129335782Y-64851934D01*
X129917333Y-65433485D02*
X129917333Y-66167333D01*
X123251349Y-61205477D02*
X123251348Y-61205477D01*
X121623193Y-59083193D02*
X121520000Y-58980000D01*
X123141473Y-61977627D02*
X123141474Y-61977628D01*
X123003412Y-61315352D02*
X123003412Y-61315351D01*
X126140046Y-64851934D02*
X127306114Y-64851934D01*
X123141473Y-61453413D02*
X123251348Y-61343539D01*
X123587976Y-62424128D02*
X125927914Y-64764066D01*
X127698858Y-65244678D02*
X127706114Y-65244678D01*
X122341137Y-60653076D02*
X122341137Y-60653075D01*
X122479198Y-61315350D02*
X122479199Y-61315352D01*
X121623193Y-60456269D02*
X121623193Y-59083193D01*
X122341137Y-60653075D02*
X122451011Y-60543202D01*
X129335782Y-64851934D02*
X129917333Y-65433485D01*
X122589074Y-60543201D02*
X122589073Y-60543201D01*
X123113286Y-61205478D02*
G75*
G02*
X123251331Y-61205495I69014J-69022D01*
G01*
X121816923Y-60653074D02*
G75*
G03*
X122341106Y-60653045I262077J262074D01*
G01*
X123141473Y-61453413D02*
G75*
G03*
X123141493Y-61977607I262127J-262087D01*
G01*
X122479198Y-60791137D02*
G75*
G03*
X122479242Y-61315307I262102J-262063D01*
G01*
X123251348Y-61205477D02*
G75*
G02*
X123251339Y-61343532I-69048J-69023D01*
G01*
X127306114Y-64851934D02*
G75*
G02*
X127502466Y-65048306I-14J-196366D01*
G01*
X125927914Y-64764066D02*
G75*
G03*
X126140046Y-64851891I212086J212166D01*
G01*
X127502486Y-65048306D02*
G75*
G03*
X127698858Y-65244714I196414J6D01*
G01*
X127706114Y-65244678D02*
G75*
G03*
X127902478Y-65048306I-14J196378D01*
G01*
X122479198Y-61315350D02*
G75*
G03*
X123003406Y-61315346I262102J262150D01*
G01*
X122589073Y-60543201D02*
G75*
G02*
X122589040Y-60681232I-69073J-68999D01*
G01*
X122451011Y-60543202D02*
G75*
G02*
X122589031Y-60543244I68989J-68998D01*
G01*
X127902486Y-65048306D02*
G75*
G02*
X128098858Y-64851886I196414J6D01*
G01*
%TO.N,/FPGA/D0-*%
X122513576Y-58458777D02*
X122481223Y-58458777D01*
X122293576Y-58646424D02*
X122293576Y-58956652D01*
X126216573Y-61973087D02*
X126023860Y-62165799D01*
X122292875Y-58959027D02*
X125499648Y-62165799D01*
X126354635Y-61973086D02*
X126354636Y-61973087D01*
X122481223Y-58458777D02*
X122293576Y-58646424D01*
X126161924Y-62303862D02*
X126354636Y-62111149D01*
X126216573Y-61973086D02*
X126216573Y-61973087D01*
X126023860Y-62165799D02*
G75*
G02*
X125499693Y-62165752I-262060J262099D01*
G01*
X126354636Y-62111149D02*
G75*
G03*
X126354653Y-61973068I-69036J69049D01*
G01*
X126354636Y-61973087D02*
G75*
G03*
X126216569Y-61973082I-69036J-69013D01*
G01*
D14*
%TO.N,/FPGA/SDA_{Ser}*%
X124830000Y-71390000D02*
X125220000Y-71390000D01*
X121955000Y-62455000D02*
X121955000Y-62035000D01*
X125410000Y-71200000D02*
X125410000Y-70860000D01*
X125410000Y-70860000D02*
X124310000Y-69760000D01*
X124310000Y-69760000D02*
X124310000Y-64810000D01*
X124310000Y-64810000D02*
X121955000Y-62455000D01*
X124667633Y-71105107D02*
X124667633Y-71227633D01*
X121955000Y-62035000D02*
X120760000Y-60840000D01*
X124667633Y-71227633D02*
X124830000Y-71390000D01*
X120760000Y-60840000D02*
X120760000Y-59180000D01*
X125220000Y-71390000D02*
X125410000Y-71200000D01*
X124231538Y-55233087D02*
X124481060Y-54983565D01*
%TO.N,/FPGA/SCL_{Ser}*%
X120510000Y-60995000D02*
X121720000Y-62205000D01*
X120510000Y-59025001D02*
X120510000Y-60995000D01*
X124988841Y-71057653D02*
X124988841Y-71099245D01*
X123860000Y-69928812D02*
X124988841Y-71057653D01*
X121720000Y-62800000D02*
X123860000Y-64940000D01*
X122888576Y-55133576D02*
X122888576Y-56033576D01*
X123363576Y-54658576D02*
X122888576Y-55133576D01*
X123860000Y-64940000D02*
X123860000Y-69928812D01*
X121720000Y-62205000D02*
X121720000Y-62800000D01*
D17*
%TO.N,/FPGA/TDI*%
X116720000Y-39947500D02*
X118420000Y-38247500D01*
X130230000Y-47300000D02*
X121720000Y-47300000D01*
X121720000Y-47300000D02*
X116720000Y-42300000D01*
X116720000Y-42300000D02*
X116720000Y-39947500D01*
D14*
%TO.N,/FPGA/CLK*%
X120018217Y-56301783D02*
X120010000Y-56310000D01*
D15*
X120018217Y-56301783D02*
X121705369Y-56301783D01*
X121947519Y-56059633D02*
X122526501Y-56059633D01*
X121705369Y-56301783D02*
X121947519Y-56059633D01*
D14*
%TO.N,/FPGA/CLK_{Ser}*%
X122355000Y-62265000D02*
X124800000Y-64710000D01*
X121040000Y-59132152D02*
X121040000Y-60680000D01*
X122355000Y-61995000D02*
X122355000Y-62265000D01*
X121040000Y-60680000D02*
X122355000Y-61995000D01*
X124800000Y-64710000D02*
X124800000Y-65300000D01*
D17*
%TO.N,/FPGA/DO_{Flash}{slash}TCK*%
X132690000Y-42357500D02*
X132690000Y-53725710D01*
X132690000Y-53725710D02*
X131952855Y-54462855D01*
X128580000Y-38247500D02*
X132690000Y-42357500D01*
D14*
%TO.N,/FPGA/~{CS}_{Flash}*%
X129911776Y-59901776D02*
X129940000Y-59930000D01*
X129444624Y-59901776D02*
X129911776Y-59901776D01*
X127063576Y-59433576D02*
X128976424Y-59433576D01*
X128976424Y-59433576D02*
X129444624Y-59901776D01*
X126113576Y-58483576D02*
X127063576Y-59433576D01*
X124992874Y-58483576D02*
X126113576Y-58483576D01*
X124113576Y-57604278D02*
X124992874Y-58483576D01*
%TO.N,/Ephys/MISO*%
X117550000Y-65320000D02*
X117550000Y-58017152D01*
X117450500Y-65419500D02*
X117550000Y-65320000D01*
X117550000Y-58017152D02*
X119514870Y-56052282D01*
X119514870Y-56052282D02*
X121497325Y-56052282D01*
X117450500Y-65470990D02*
X117450500Y-65419500D01*
%TO.N,/Ephys/MOSI*%
X119743576Y-57653576D02*
X119476424Y-57653576D01*
X118800000Y-59800000D02*
X118650000Y-59950000D01*
X118510000Y-59110000D02*
X118800000Y-59400000D01*
X118650000Y-59950000D02*
X118650000Y-63980000D01*
X118510000Y-58620000D02*
X118510000Y-59110000D01*
X118650000Y-63980000D02*
X119370000Y-64700000D01*
X118800000Y-59400000D02*
X118800000Y-59800000D01*
X119476424Y-57653576D02*
X118510000Y-58620000D01*
D15*
X120446653Y-56950499D02*
X120514753Y-56882399D01*
X121498088Y-56882399D02*
X121633713Y-57018024D01*
D14*
X120446653Y-56950499D02*
X119743576Y-57653576D01*
D15*
X120514753Y-56882399D02*
X121498088Y-56882399D01*
%TO.N,/3D Pose/SCL*%
X120890000Y-57660000D02*
X120990000Y-57560000D01*
X121894728Y-57185272D02*
X122430218Y-57185272D01*
X121520000Y-57560000D02*
X121894728Y-57185272D01*
X120990000Y-57560000D02*
X121520000Y-57560000D01*
D14*
X119668924Y-61356076D02*
X119668924Y-58811076D01*
X120890000Y-57938431D02*
X120890000Y-57660000D01*
X119668924Y-58811076D02*
X120155784Y-58324216D01*
X120504216Y-58324216D02*
X120890000Y-57938431D01*
X120155784Y-58324216D02*
X120504216Y-58324216D01*
%TO.N,/3D Pose/Data_{0}*%
X119981076Y-56696076D02*
X119483924Y-56696076D01*
X119483924Y-56696076D02*
X117900000Y-58280000D01*
D15*
X122086690Y-56435462D02*
X122086690Y-56428879D01*
X122020858Y-56501294D02*
X122086690Y-56435462D01*
X122020858Y-56501294D02*
X120175858Y-56501294D01*
D14*
X120175858Y-56501294D02*
X119981076Y-56696076D01*
%TO.N,/3D Pose/Env_{0}*%
X119673576Y-57423576D02*
X120396153Y-56700999D01*
D15*
X121475511Y-56700999D02*
X122180999Y-56700999D01*
D14*
X119226424Y-57423576D02*
X119673576Y-57423576D01*
X117950000Y-58700000D02*
X119226424Y-57423576D01*
X122180999Y-56700999D02*
X122190000Y-56710000D01*
X117950000Y-58790000D02*
X117950000Y-58700000D01*
D15*
X120396153Y-56700999D02*
X120410463Y-56686689D01*
X121461201Y-56686689D02*
X121475511Y-56700999D01*
X120410463Y-56686689D02*
X121461201Y-56686689D01*
D14*
%TO.N,/FPGA/CRESET_{B}*%
X126731424Y-57208576D02*
X126980000Y-56960000D01*
X124488576Y-57208576D02*
X126731424Y-57208576D01*
D18*
%TO.N,Net-(U4-VIN-)*%
X122297821Y-64807821D02*
X122770000Y-65280000D01*
X119666822Y-64807821D02*
X122297821Y-64807821D01*
X118383703Y-64976297D02*
X119498346Y-64976297D01*
X119498346Y-64976297D02*
X119666822Y-64807821D01*
X117278199Y-66081801D02*
X118383703Y-64976297D01*
X117278199Y-66401179D02*
X117278199Y-66081801D01*
D19*
%TO.N,+1V2*%
X115040000Y-62141330D02*
X115699500Y-61481830D01*
X115740000Y-66000000D02*
X115740000Y-65760000D01*
X116930000Y-67190000D02*
X115740000Y-66000000D01*
X115040000Y-65060000D02*
X115040000Y-62141330D01*
X115740000Y-65760000D02*
X115040000Y-65060000D01*
%TD*%
%TA.AperFunction,Conductor*%
%TO.N,GND*%
G36*
X128807634Y-54989979D02*
G01*
X129025936Y-54999641D01*
X129068800Y-54993925D01*
X129097643Y-55001602D01*
X129112611Y-55027428D01*
X129112935Y-55032316D01*
X129112953Y-55032360D01*
X129173446Y-55092852D01*
X129184869Y-55120429D01*
X129173446Y-55148006D01*
X129170185Y-55150920D01*
X129141623Y-55173697D01*
X129120557Y-55217442D01*
X129102507Y-55254924D01*
X129102507Y-55345076D01*
X129120302Y-55382028D01*
X129141623Y-55426302D01*
X129212104Y-55482509D01*
X129212106Y-55482509D01*
X129212108Y-55482511D01*
X129300000Y-55502572D01*
X129387892Y-55482511D01*
X129392345Y-55478960D01*
X129458121Y-55426506D01*
X129486804Y-55418242D01*
X129510014Y-55429420D01*
X130973446Y-56892852D01*
X130984869Y-56920429D01*
X130973446Y-56948006D01*
X130970185Y-56950920D01*
X130941623Y-56973697D01*
X130910372Y-57038592D01*
X130902507Y-57054924D01*
X130902507Y-57145076D01*
X130917120Y-57175420D01*
X130941623Y-57226302D01*
X131012104Y-57282509D01*
X131012106Y-57282509D01*
X131012108Y-57282511D01*
X131100000Y-57302572D01*
X131187892Y-57282511D01*
X131191042Y-57279999D01*
X131258121Y-57226506D01*
X131286804Y-57218242D01*
X131310014Y-57229420D01*
X131508580Y-57427986D01*
X131520003Y-57455563D01*
X131520003Y-57455648D01*
X131519545Y-57664654D01*
X131519546Y-57664662D01*
X131560848Y-57888792D01*
X131642550Y-58101549D01*
X131699915Y-58199856D01*
X131699994Y-58199994D01*
X128700000Y-55200000D01*
X128700000Y-54965794D01*
X128807634Y-54989979D01*
G37*
%TD.AperFunction*%
%TA.AperFunction,Conductor*%
G36*
X143488577Y-30011423D02*
G01*
X143500000Y-30039000D01*
X143500000Y-85961000D01*
X143488577Y-85988577D01*
X143461000Y-86000000D01*
X103539000Y-86000000D01*
X103511423Y-85988577D01*
X103500000Y-85961000D01*
X103500000Y-62973487D01*
X111553359Y-62973487D01*
X111553359Y-62973496D01*
X111553359Y-62973506D01*
X111560259Y-63219669D01*
X111572672Y-63662523D01*
X111630840Y-64339705D01*
X111631663Y-64349279D01*
X111661115Y-64553321D01*
X111730135Y-65031485D01*
X111753046Y-65143920D01*
X111867766Y-65706901D01*
X111867768Y-65706910D01*
X111867769Y-65706913D01*
X112044088Y-66373238D01*
X112044092Y-66373251D01*
X112258530Y-67028332D01*
X112279519Y-67081808D01*
X112510367Y-67669968D01*
X112510370Y-67669975D01*
X112510375Y-67669987D01*
X112770330Y-68234295D01*
X112798765Y-68296021D01*
X113011615Y-68695701D01*
X113122762Y-68904406D01*
X113122775Y-68904430D01*
X113300000Y-69200000D01*
X113369427Y-69283760D01*
X113369428Y-69283760D01*
X113369433Y-69283766D01*
X113480916Y-69382069D01*
X113489755Y-69389863D01*
X113491538Y-69391538D01*
X116966120Y-72866120D01*
X116972647Y-72874778D01*
X117003502Y-72930399D01*
X117141468Y-73099877D01*
X117307090Y-73242449D01*
X117400000Y-73300000D01*
X117400014Y-73300008D01*
X117696849Y-73473046D01*
X117929556Y-73593454D01*
X118307169Y-73788841D01*
X118934605Y-74069102D01*
X119577087Y-74312904D01*
X120232499Y-74519443D01*
X120232506Y-74519444D01*
X120232510Y-74519446D01*
X120380121Y-74556803D01*
X120898680Y-74688040D01*
X121573437Y-74818138D01*
X121573447Y-74818139D01*
X121573451Y-74818140D01*
X121693201Y-74834169D01*
X122254546Y-74909310D01*
X122750507Y-74946907D01*
X122939737Y-74961252D01*
X122939741Y-74961252D01*
X122939765Y-74961254D01*
X123131505Y-74964755D01*
X123626803Y-74973801D01*
X123626815Y-74973800D01*
X123626834Y-74973801D01*
X124313492Y-74946907D01*
X124997476Y-74880663D01*
X125676533Y-74775286D01*
X125676540Y-74775284D01*
X125676543Y-74775284D01*
X125846777Y-74738757D01*
X126348426Y-74631123D01*
X127010940Y-74448650D01*
X127661895Y-74228467D01*
X128299145Y-73971299D01*
X128920591Y-73677995D01*
X129524185Y-73349520D01*
X130107940Y-72986956D01*
X130669933Y-72591498D01*
X131208311Y-72164448D01*
X131721301Y-71707214D01*
X132207214Y-71221301D01*
X132664448Y-70708311D01*
X133091498Y-70169933D01*
X133486956Y-69607940D01*
X133849520Y-69024185D01*
X134177995Y-68420591D01*
X134471299Y-67799145D01*
X134728467Y-67161895D01*
X134948650Y-66510940D01*
X135131123Y-65848426D01*
X135248795Y-65300000D01*
X135275284Y-65176543D01*
X135277169Y-65164398D01*
X135380663Y-64497476D01*
X135446907Y-63813492D01*
X135473801Y-63126834D01*
X135473800Y-63126815D01*
X135473801Y-63126803D01*
X135463559Y-62565967D01*
X135461254Y-62439765D01*
X135409310Y-61754546D01*
X135323182Y-61111116D01*
X135318140Y-61073451D01*
X135318136Y-61073427D01*
X135290917Y-60932254D01*
X135188040Y-60398680D01*
X135054299Y-59870228D01*
X135019446Y-59732510D01*
X135018589Y-59729791D01*
X134812904Y-59077087D01*
X134569102Y-58434605D01*
X134325300Y-57888792D01*
X134288847Y-57807182D01*
X134288845Y-57807179D01*
X134288841Y-57807169D01*
X134080537Y-57404592D01*
X133973046Y-57196849D01*
X133799993Y-56899988D01*
X133737494Y-56804692D01*
X133737493Y-56804691D01*
X133737490Y-56804686D01*
X133583485Y-56636686D01*
X133564146Y-56622154D01*
X133478692Y-56557940D01*
X133463508Y-56532242D01*
X133464404Y-56516842D01*
X133512953Y-56332359D01*
X133174687Y-55981565D01*
X131988974Y-54751936D01*
X131978054Y-54724156D01*
X131989977Y-54696791D01*
X132009436Y-54686616D01*
X132042792Y-54679981D01*
X132119036Y-54629036D01*
X132169981Y-54552792D01*
X132180534Y-54499734D01*
X132191206Y-54479768D01*
X132843020Y-53827955D01*
X132870500Y-53761614D01*
X132870500Y-42321596D01*
X132846683Y-42264097D01*
X132843021Y-42255255D01*
X132843017Y-42255250D01*
X129519851Y-38932085D01*
X129508428Y-38904508D01*
X129508760Y-38899432D01*
X129510500Y-38886224D01*
X129510500Y-37608776D01*
X129504163Y-37560641D01*
X129454906Y-37455009D01*
X129372491Y-37372594D01*
X129340482Y-37357668D01*
X129266860Y-37323337D01*
X129266854Y-37323335D01*
X129218738Y-37317001D01*
X129218728Y-37317000D01*
X129218724Y-37317000D01*
X127941276Y-37317000D01*
X127941272Y-37317000D01*
X127941261Y-37317001D01*
X127893145Y-37323335D01*
X127893139Y-37323337D01*
X127787508Y-37372594D01*
X127705094Y-37455008D01*
X127655837Y-37560639D01*
X127655835Y-37560645D01*
X127649501Y-37608761D01*
X127649500Y-37608783D01*
X127649500Y-38886216D01*
X127649501Y-38886238D01*
X127655835Y-38934354D01*
X127655837Y-38934359D01*
X127705094Y-39039991D01*
X127787509Y-39122406D01*
X127893141Y-39171663D01*
X127893142Y-39171663D01*
X127893145Y-39171664D01*
X127928074Y-39176262D01*
X127941276Y-39178000D01*
X127941284Y-39178000D01*
X129218716Y-39178000D01*
X129218724Y-39178000D01*
X129231917Y-39176262D01*
X129260747Y-39183985D01*
X129264585Y-39187351D01*
X132498077Y-42420843D01*
X132509500Y-42448420D01*
X132509500Y-53634789D01*
X132498077Y-53662366D01*
X131935941Y-54224501D01*
X131915973Y-54235174D01*
X131862917Y-54245728D01*
X131786674Y-54296673D01*
X131786673Y-54296674D01*
X131735728Y-54372917D01*
X131731086Y-54396255D01*
X131714502Y-54421074D01*
X131685227Y-54426896D01*
X131664762Y-54415717D01*
X131640099Y-54390141D01*
X131430906Y-54173199D01*
X130812954Y-53532359D01*
X130145550Y-53336063D01*
X130122317Y-53317323D01*
X130119655Y-53311272D01*
X130102377Y-53260770D01*
X130091931Y-53241938D01*
X129996388Y-53069683D01*
X129858444Y-52900212D01*
X129692845Y-52757643D01*
X129600000Y-52700000D01*
X129302240Y-52526438D01*
X128689944Y-52209880D01*
X128689934Y-52209875D01*
X128689927Y-52209872D01*
X128060423Y-51929138D01*
X127415769Y-51685145D01*
X127415770Y-51685145D01*
X127415764Y-51685143D01*
X127039759Y-51567116D01*
X126758121Y-51478710D01*
X126758098Y-51478704D01*
X126306309Y-51365030D01*
X126089664Y-51310520D01*
X126089663Y-51310519D01*
X126089660Y-51310519D01*
X125412635Y-51181138D01*
X125412630Y-51181137D01*
X125046934Y-51132895D01*
X124729283Y-51090991D01*
X124729274Y-51090990D01*
X124729264Y-51090989D01*
X124041838Y-51040376D01*
X123949944Y-51038921D01*
X123352664Y-51029466D01*
X123352632Y-51029466D01*
X122663953Y-51058296D01*
X122663933Y-51058297D01*
X121978090Y-51126767D01*
X121978061Y-51126771D01*
X121297301Y-51234655D01*
X121297271Y-51234661D01*
X120623882Y-51381596D01*
X120623849Y-51381604D01*
X119960007Y-51567116D01*
X119959996Y-51567119D01*
X119959995Y-51567120D01*
X119307939Y-51790588D01*
X119307931Y-51790591D01*
X119307920Y-51790595D01*
X118669867Y-52051254D01*
X118669820Y-52051275D01*
X118047835Y-52348283D01*
X117443977Y-52680659D01*
X116860281Y-53047283D01*
X116298678Y-53446944D01*
X115761062Y-53878293D01*
X115761055Y-53878299D01*
X115249185Y-54339922D01*
X115249158Y-54339947D01*
X114764776Y-54830274D01*
X114764744Y-54830309D01*
X114309427Y-55347733D01*
X114309413Y-55347750D01*
X114309412Y-55347752D01*
X114261201Y-55409365D01*
X113884635Y-55890608D01*
X113491862Y-56457030D01*
X113132377Y-57045160D01*
X112807395Y-57653018D01*
X112517988Y-58278590D01*
X112517984Y-58278598D01*
X112517983Y-58278602D01*
X112320955Y-58778209D01*
X112265106Y-58919826D01*
X112049612Y-59574537D01*
X112049605Y-59574562D01*
X111872201Y-60240614D01*
X111872196Y-60240636D01*
X111733475Y-60915803D01*
X111733471Y-60915826D01*
X111633897Y-61597840D01*
X111633891Y-61597888D01*
X111573790Y-62284505D01*
X111573789Y-62284522D01*
X111569998Y-62412368D01*
X111553359Y-62973487D01*
X103500000Y-62973487D01*
X103500000Y-39911596D01*
X116539500Y-39911596D01*
X116539500Y-42264097D01*
X116539500Y-42335903D01*
X116566979Y-42402245D01*
X121617755Y-47453021D01*
X121664665Y-47472451D01*
X121684096Y-47480500D01*
X121684097Y-47480500D01*
X121755903Y-47480500D01*
X130073419Y-47480500D01*
X130095085Y-47487072D01*
X130140063Y-47517126D01*
X130230000Y-47535016D01*
X130319937Y-47517126D01*
X130396181Y-47466181D01*
X130447126Y-47389937D01*
X130465016Y-47300000D01*
X130447126Y-47210063D01*
X130396181Y-47133819D01*
X130396180Y-47133818D01*
X130319939Y-47082875D01*
X130319938Y-47082874D01*
X130319937Y-47082874D01*
X130230000Y-47064984D01*
X130140062Y-47082874D01*
X130116793Y-47098422D01*
X130095085Y-47112927D01*
X130073419Y-47119500D01*
X121810920Y-47119500D01*
X121783343Y-47108077D01*
X116911923Y-42236657D01*
X116900500Y-42209080D01*
X116900500Y-40787498D01*
X117465403Y-40787498D01*
X117465403Y-40787501D01*
X117483745Y-40973733D01*
X117483745Y-40973734D01*
X117538068Y-41152809D01*
X117626283Y-41317848D01*
X117697187Y-41404244D01*
X117697187Y-41404245D01*
X118015151Y-41086280D01*
X118019901Y-41094507D01*
X118112993Y-41187599D01*
X118121217Y-41192347D01*
X117803253Y-41510311D01*
X117889651Y-41581216D01*
X118054690Y-41669431D01*
X118233765Y-41723754D01*
X118419998Y-41742097D01*
X118420002Y-41742097D01*
X118606233Y-41723754D01*
X118606234Y-41723754D01*
X118785309Y-41669431D01*
X118950345Y-41581217D01*
X119036744Y-41510310D01*
X118718781Y-41192347D01*
X118727007Y-41187599D01*
X118820099Y-41094507D01*
X118824847Y-41086281D01*
X119142810Y-41404244D01*
X119213717Y-41317845D01*
X119301931Y-41152809D01*
X119356254Y-40973734D01*
X119356254Y-40973733D01*
X119374597Y-40787501D01*
X119374597Y-40787498D01*
X119374597Y-40787496D01*
X120024375Y-40787496D01*
X120024375Y-40787503D01*
X120044819Y-40982022D01*
X120044821Y-40982029D01*
X120105263Y-41168052D01*
X120203061Y-41337445D01*
X120203063Y-41337447D01*
X120333945Y-41482805D01*
X120492187Y-41597775D01*
X120670876Y-41677332D01*
X120862201Y-41718000D01*
X120862203Y-41718000D01*
X121057797Y-41718000D01*
X121057799Y-41718000D01*
X121249124Y-41677332D01*
X121427813Y-41597775D01*
X121586055Y-41482805D01*
X121716937Y-41337447D01*
X121814736Y-41168053D01*
X121875179Y-40982027D01*
X121875341Y-40980493D01*
X121895625Y-40787503D01*
X121895625Y-40787496D01*
X122564375Y-40787496D01*
X122564375Y-40787503D01*
X122584819Y-40982022D01*
X122584821Y-40982029D01*
X122645263Y-41168052D01*
X122743061Y-41337445D01*
X122743063Y-41337447D01*
X122873945Y-41482805D01*
X123032187Y-41597775D01*
X123210876Y-41677332D01*
X123402201Y-41718000D01*
X123402203Y-41718000D01*
X123597797Y-41718000D01*
X123597799Y-41718000D01*
X123789124Y-41677332D01*
X123967813Y-41597775D01*
X124126055Y-41482805D01*
X124256937Y-41337447D01*
X124354736Y-41168053D01*
X124415179Y-40982027D01*
X124415341Y-40980493D01*
X124435625Y-40787503D01*
X124435625Y-40787496D01*
X125104375Y-40787496D01*
X125104375Y-40787503D01*
X125124819Y-40982022D01*
X125124821Y-40982029D01*
X125185263Y-41168052D01*
X125283061Y-41337445D01*
X125283063Y-41337447D01*
X125413945Y-41482805D01*
X125572187Y-41597775D01*
X125750876Y-41677332D01*
X125942201Y-41718000D01*
X125942203Y-41718000D01*
X126137797Y-41718000D01*
X126137799Y-41718000D01*
X126329124Y-41677332D01*
X126507813Y-41597775D01*
X126666055Y-41482805D01*
X126796937Y-41337447D01*
X126894736Y-41168053D01*
X126955179Y-40982027D01*
X126955341Y-40980493D01*
X126975625Y-40787503D01*
X126975625Y-40787498D01*
X127625403Y-40787498D01*
X127625403Y-40787501D01*
X127643745Y-40973733D01*
X127643745Y-40973734D01*
X127698068Y-41152809D01*
X127786283Y-41317848D01*
X127857187Y-41404244D01*
X127857187Y-41404245D01*
X128175151Y-41086280D01*
X128179901Y-41094507D01*
X128272993Y-41187599D01*
X128281217Y-41192347D01*
X127963253Y-41510311D01*
X128049651Y-41581216D01*
X128214690Y-41669431D01*
X128393765Y-41723754D01*
X128579998Y-41742097D01*
X128580002Y-41742097D01*
X128766233Y-41723754D01*
X128766234Y-41723754D01*
X128945309Y-41669431D01*
X129110345Y-41581217D01*
X129196744Y-41510310D01*
X128878781Y-41192347D01*
X128887007Y-41187599D01*
X128980099Y-41094507D01*
X128984847Y-41086281D01*
X129302810Y-41404244D01*
X129373717Y-41317845D01*
X129461931Y-41152809D01*
X129516254Y-40973734D01*
X129516254Y-40973733D01*
X129534597Y-40787501D01*
X129534597Y-40787498D01*
X129516254Y-40601266D01*
X129516254Y-40601265D01*
X129461931Y-40422190D01*
X129373716Y-40257151D01*
X129302811Y-40170754D01*
X129302811Y-40170753D01*
X128984847Y-40488717D01*
X128980099Y-40480493D01*
X128887007Y-40387401D01*
X128878780Y-40382651D01*
X129196745Y-40064687D01*
X129110348Y-39993783D01*
X128945309Y-39905568D01*
X128766234Y-39851245D01*
X128580002Y-39832903D01*
X128579998Y-39832903D01*
X128393766Y-39851245D01*
X128393765Y-39851245D01*
X128214690Y-39905568D01*
X128049651Y-39993783D01*
X127963253Y-40064687D01*
X128281218Y-40382652D01*
X128272993Y-40387401D01*
X128179901Y-40480493D01*
X128175152Y-40488718D01*
X127857187Y-40170753D01*
X127786283Y-40257151D01*
X127698068Y-40422190D01*
X127643745Y-40601265D01*
X127643745Y-40601266D01*
X127625403Y-40787498D01*
X126975625Y-40787498D01*
X126975625Y-40787496D01*
X126955180Y-40592977D01*
X126955178Y-40592970D01*
X126894736Y-40406947D01*
X126796938Y-40237554D01*
X126736790Y-40170754D01*
X126666055Y-40092195D01*
X126507813Y-39977225D01*
X126507809Y-39977223D01*
X126329125Y-39897668D01*
X126137800Y-39857000D01*
X126137799Y-39857000D01*
X125942201Y-39857000D01*
X125942199Y-39857000D01*
X125750872Y-39897668D01*
X125572191Y-39977223D01*
X125572188Y-39977224D01*
X125572188Y-39977225D01*
X125413945Y-40092195D01*
X125413943Y-40092196D01*
X125413943Y-40092197D01*
X125283061Y-40237554D01*
X125185263Y-40406947D01*
X125124821Y-40592970D01*
X125124819Y-40592977D01*
X125104375Y-40787496D01*
X124435625Y-40787496D01*
X124415180Y-40592977D01*
X124415178Y-40592970D01*
X124354736Y-40406947D01*
X124256938Y-40237554D01*
X124196790Y-40170754D01*
X124126055Y-40092195D01*
X123967813Y-39977225D01*
X123967809Y-39977223D01*
X123789125Y-39897668D01*
X123597800Y-39857000D01*
X123597799Y-39857000D01*
X123402201Y-39857000D01*
X123402199Y-39857000D01*
X123210872Y-39897668D01*
X123032191Y-39977223D01*
X123032188Y-39977224D01*
X123032188Y-39977225D01*
X122873945Y-40092195D01*
X122873943Y-40092196D01*
X122873943Y-40092197D01*
X122743061Y-40237554D01*
X122645263Y-40406947D01*
X122584821Y-40592970D01*
X122584819Y-40592977D01*
X122564375Y-40787496D01*
X121895625Y-40787496D01*
X121875180Y-40592977D01*
X121875178Y-40592970D01*
X121814736Y-40406947D01*
X121716938Y-40237554D01*
X121656790Y-40170754D01*
X121586055Y-40092195D01*
X121427813Y-39977225D01*
X121427809Y-39977223D01*
X121249125Y-39897668D01*
X121057800Y-39857000D01*
X121057799Y-39857000D01*
X120862201Y-39857000D01*
X120862199Y-39857000D01*
X120670872Y-39897668D01*
X120492191Y-39977223D01*
X120492188Y-39977224D01*
X120492188Y-39977225D01*
X120333945Y-40092195D01*
X120333943Y-40092196D01*
X120333943Y-40092197D01*
X120203061Y-40237554D01*
X120105263Y-40406947D01*
X120044821Y-40592970D01*
X120044819Y-40592977D01*
X120024375Y-40787496D01*
X119374597Y-40787496D01*
X119356254Y-40601266D01*
X119356254Y-40601265D01*
X119301931Y-40422190D01*
X119213716Y-40257151D01*
X119142811Y-40170754D01*
X119142811Y-40170753D01*
X118824847Y-40488717D01*
X118820099Y-40480493D01*
X118727007Y-40387401D01*
X118718780Y-40382651D01*
X119036745Y-40064687D01*
X118950348Y-39993783D01*
X118785309Y-39905568D01*
X118606234Y-39851245D01*
X118420002Y-39832903D01*
X118419998Y-39832903D01*
X118233766Y-39851245D01*
X118233765Y-39851245D01*
X118054690Y-39905568D01*
X117889651Y-39993783D01*
X117803253Y-40064687D01*
X118121218Y-40382652D01*
X118112993Y-40387401D01*
X118019901Y-40480493D01*
X118015152Y-40488718D01*
X117697187Y-40170753D01*
X117626283Y-40257151D01*
X117538068Y-40422190D01*
X117483745Y-40601265D01*
X117483745Y-40601266D01*
X117465403Y-40787498D01*
X116900500Y-40787498D01*
X116900500Y-40038419D01*
X116911922Y-40010843D01*
X117878130Y-39044634D01*
X117905706Y-39033212D01*
X117928629Y-39040660D01*
X117952187Y-39057775D01*
X118130876Y-39137332D01*
X118322201Y-39178000D01*
X118322203Y-39178000D01*
X118517797Y-39178000D01*
X118517799Y-39178000D01*
X118709124Y-39137332D01*
X118887813Y-39057775D01*
X119046055Y-38942805D01*
X119176937Y-38797447D01*
X119274736Y-38628053D01*
X119335179Y-38442027D01*
X119355625Y-38247500D01*
X119355625Y-38247496D01*
X120024375Y-38247496D01*
X120024375Y-38247503D01*
X120044819Y-38442022D01*
X120044821Y-38442029D01*
X120105263Y-38628052D01*
X120203061Y-38797445D01*
X120203063Y-38797447D01*
X120333945Y-38942805D01*
X120492187Y-39057775D01*
X120670876Y-39137332D01*
X120862201Y-39178000D01*
X120862203Y-39178000D01*
X121057797Y-39178000D01*
X121057799Y-39178000D01*
X121249124Y-39137332D01*
X121427813Y-39057775D01*
X121586055Y-38942805D01*
X121716937Y-38797447D01*
X121814736Y-38628053D01*
X121875179Y-38442027D01*
X121895625Y-38247500D01*
X121895625Y-38247496D01*
X122564375Y-38247496D01*
X122564375Y-38247503D01*
X122584819Y-38442022D01*
X122584821Y-38442029D01*
X122645263Y-38628052D01*
X122743061Y-38797445D01*
X122743063Y-38797447D01*
X122873945Y-38942805D01*
X123032187Y-39057775D01*
X123210876Y-39137332D01*
X123402201Y-39178000D01*
X123402203Y-39178000D01*
X123597797Y-39178000D01*
X123597799Y-39178000D01*
X123789124Y-39137332D01*
X123967813Y-39057775D01*
X124126055Y-38942805D01*
X124256937Y-38797447D01*
X124354736Y-38628053D01*
X124415179Y-38442027D01*
X124435625Y-38247500D01*
X124435625Y-38247496D01*
X125104375Y-38247496D01*
X125104375Y-38247503D01*
X125124819Y-38442022D01*
X125124821Y-38442029D01*
X125185263Y-38628052D01*
X125283061Y-38797445D01*
X125283063Y-38797447D01*
X125413945Y-38942805D01*
X125572187Y-39057775D01*
X125750876Y-39137332D01*
X125942201Y-39178000D01*
X125942203Y-39178000D01*
X126137797Y-39178000D01*
X126137799Y-39178000D01*
X126329124Y-39137332D01*
X126507813Y-39057775D01*
X126666055Y-38942805D01*
X126796937Y-38797447D01*
X126894736Y-38628053D01*
X126955179Y-38442027D01*
X126975625Y-38247500D01*
X126975625Y-38247496D01*
X126955180Y-38052977D01*
X126955178Y-38052970D01*
X126894736Y-37866947D01*
X126796938Y-37697554D01*
X126717001Y-37608776D01*
X126666055Y-37552195D01*
X126507813Y-37437225D01*
X126362649Y-37372594D01*
X126329125Y-37357668D01*
X126137800Y-37317000D01*
X126137799Y-37317000D01*
X125942201Y-37317000D01*
X125942199Y-37317000D01*
X125750872Y-37357668D01*
X125572191Y-37437223D01*
X125572188Y-37437224D01*
X125572188Y-37437225D01*
X125413945Y-37552195D01*
X125413943Y-37552196D01*
X125413943Y-37552197D01*
X125283061Y-37697554D01*
X125185263Y-37866947D01*
X125124821Y-38052970D01*
X125124819Y-38052977D01*
X125104375Y-38247496D01*
X124435625Y-38247496D01*
X124415180Y-38052977D01*
X124415178Y-38052970D01*
X124354736Y-37866947D01*
X124256938Y-37697554D01*
X124177001Y-37608776D01*
X124126055Y-37552195D01*
X123967813Y-37437225D01*
X123822649Y-37372594D01*
X123789125Y-37357668D01*
X123597800Y-37317000D01*
X123597799Y-37317000D01*
X123402201Y-37317000D01*
X123402199Y-37317000D01*
X123210872Y-37357668D01*
X123032191Y-37437223D01*
X123032188Y-37437224D01*
X123032188Y-37437225D01*
X122873945Y-37552195D01*
X122873943Y-37552196D01*
X122873943Y-37552197D01*
X122743061Y-37697554D01*
X122645263Y-37866947D01*
X122584821Y-38052970D01*
X122584819Y-38052977D01*
X122564375Y-38247496D01*
X121895625Y-38247496D01*
X121875180Y-38052977D01*
X121875178Y-38052970D01*
X121814736Y-37866947D01*
X121716938Y-37697554D01*
X121637001Y-37608776D01*
X121586055Y-37552195D01*
X121427813Y-37437225D01*
X121282649Y-37372594D01*
X121249125Y-37357668D01*
X121057800Y-37317000D01*
X121057799Y-37317000D01*
X120862201Y-37317000D01*
X120862199Y-37317000D01*
X120670872Y-37357668D01*
X120492191Y-37437223D01*
X120492188Y-37437224D01*
X120492188Y-37437225D01*
X120333945Y-37552195D01*
X120333943Y-37552196D01*
X120333943Y-37552197D01*
X120203061Y-37697554D01*
X120105263Y-37866947D01*
X120044821Y-38052970D01*
X120044819Y-38052977D01*
X120024375Y-38247496D01*
X119355625Y-38247496D01*
X119335180Y-38052977D01*
X119335178Y-38052970D01*
X119274736Y-37866947D01*
X119176938Y-37697554D01*
X119097001Y-37608776D01*
X119046055Y-37552195D01*
X118887813Y-37437225D01*
X118742649Y-37372594D01*
X118709125Y-37357668D01*
X118517800Y-37317000D01*
X118517799Y-37317000D01*
X118322201Y-37317000D01*
X118322199Y-37317000D01*
X118130872Y-37357668D01*
X117952191Y-37437223D01*
X117952188Y-37437224D01*
X117952188Y-37437225D01*
X117793945Y-37552195D01*
X117793943Y-37552196D01*
X117793943Y-37552197D01*
X117663061Y-37697554D01*
X117565263Y-37866947D01*
X117504821Y-38052970D01*
X117504819Y-38052977D01*
X117484375Y-38247496D01*
X117484375Y-38247503D01*
X117504819Y-38442022D01*
X117504821Y-38442029D01*
X117565263Y-38628052D01*
X117630429Y-38740924D01*
X117634325Y-38770518D01*
X117624231Y-38788001D01*
X116566980Y-39845253D01*
X116566978Y-39845256D01*
X116547548Y-39892164D01*
X116547548Y-39892165D01*
X116539500Y-39911596D01*
X103500000Y-39911596D01*
X103500000Y-30039000D01*
X103511423Y-30011423D01*
X103539000Y-30000000D01*
X143461000Y-30000000D01*
X143488577Y-30011423D01*
G37*
%TD.AperFunction*%
%TD*%
%TA.AperFunction,Conductor*%
%TO.N,GND*%
G36*
X121457098Y-57690023D02*
G01*
X121468521Y-57717600D01*
X121457098Y-57745176D01*
X120692907Y-58509366D01*
X120442819Y-58759454D01*
X120409456Y-58792816D01*
X120409454Y-58792819D01*
X120400650Y-58814076D01*
X120400649Y-58814076D01*
X120391399Y-58836408D01*
X120391399Y-58888127D01*
X120391400Y-58888136D01*
X120391400Y-58962554D01*
X120388432Y-58977477D01*
X120379500Y-58999043D01*
X120379500Y-60965891D01*
X120379499Y-60965905D01*
X120379499Y-61020957D01*
X120390487Y-61047484D01*
X120390488Y-61047486D01*
X120399365Y-61068919D01*
X120399368Y-61068924D01*
X120441559Y-61111116D01*
X120441565Y-61111120D01*
X121578077Y-62247632D01*
X121589500Y-62275209D01*
X121589500Y-62770891D01*
X121589499Y-62770905D01*
X121589499Y-62774042D01*
X121589499Y-62825958D01*
X121594496Y-62838022D01*
X121595682Y-62840885D01*
X121596567Y-62843020D01*
X121606466Y-62866920D01*
X121609366Y-62873921D01*
X121609368Y-62873924D01*
X121651559Y-62916116D01*
X121651565Y-62916120D01*
X122686350Y-63950905D01*
X123718077Y-64982631D01*
X123729500Y-65010208D01*
X123729500Y-69899703D01*
X123729499Y-69899717D01*
X123729499Y-69954771D01*
X123743547Y-69988686D01*
X123749365Y-70002732D01*
X123749367Y-70002735D01*
X123791559Y-70044928D01*
X123791565Y-70044932D01*
X124617810Y-70871177D01*
X124629233Y-70898754D01*
X124617810Y-70926331D01*
X124607154Y-70933892D01*
X124552198Y-70960357D01*
X124500826Y-71024776D01*
X124488222Y-71079999D01*
X124482491Y-71105107D01*
X124500826Y-71185437D01*
X124528623Y-71220293D01*
X124537132Y-71244609D01*
X124537132Y-71253591D01*
X124547809Y-71279367D01*
X124557000Y-71301556D01*
X124557001Y-71301557D01*
X124599192Y-71343749D01*
X124599198Y-71343753D01*
X124717141Y-71461696D01*
X124717144Y-71461700D01*
X124719367Y-71463923D01*
X124756077Y-71500633D01*
X124770125Y-71506452D01*
X124804042Y-71520501D01*
X124860495Y-71520501D01*
X124860503Y-71520500D01*
X125189497Y-71520500D01*
X125189505Y-71520501D01*
X125194042Y-71520501D01*
X125245957Y-71520501D01*
X125245958Y-71520501D01*
X125279874Y-71506452D01*
X125293923Y-71500633D01*
X125330633Y-71463923D01*
X125330633Y-71463922D01*
X125336114Y-71458442D01*
X125336118Y-71458435D01*
X125478435Y-71316118D01*
X125478442Y-71316114D01*
X125483923Y-71310633D01*
X125520633Y-71273923D01*
X125528428Y-71255104D01*
X125540501Y-71225958D01*
X125540501Y-71174042D01*
X125540501Y-71170905D01*
X125540500Y-71170891D01*
X125540500Y-70890503D01*
X125540501Y-70890494D01*
X125540501Y-70834042D01*
X125523602Y-70793245D01*
X125523601Y-70793242D01*
X125523601Y-70793243D01*
X125520632Y-70786075D01*
X125481703Y-70747147D01*
X125481696Y-70747141D01*
X125064555Y-70330000D01*
X128674858Y-70330000D01*
X128693193Y-70410330D01*
X128744566Y-70474750D01*
X128818802Y-70510500D01*
X128818804Y-70510500D01*
X128901196Y-70510500D01*
X128901198Y-70510500D01*
X128975434Y-70474750D01*
X129026807Y-70410330D01*
X129045142Y-70330000D01*
X129026807Y-70249670D01*
X128975434Y-70185250D01*
X128901198Y-70149500D01*
X128818802Y-70149500D01*
X128744565Y-70185250D01*
X128693193Y-70249669D01*
X128690374Y-70262020D01*
X128674858Y-70330000D01*
X125064555Y-70330000D01*
X124451923Y-69717368D01*
X124440500Y-69689791D01*
X124440500Y-64840503D01*
X124440501Y-64840494D01*
X124440501Y-64784042D01*
X124423602Y-64743245D01*
X124423601Y-64743242D01*
X124423601Y-64743243D01*
X124420632Y-64736075D01*
X124381703Y-64697147D01*
X124381696Y-64697141D01*
X122096923Y-62412368D01*
X122085500Y-62384791D01*
X122085500Y-62065503D01*
X122085501Y-62065494D01*
X122085501Y-62005201D01*
X122087276Y-62005201D01*
X122091814Y-61982315D01*
X122116623Y-61965717D01*
X122145902Y-61971523D01*
X122151831Y-61976386D01*
X122213077Y-62037632D01*
X122224500Y-62065209D01*
X122224500Y-62235891D01*
X122224499Y-62235905D01*
X122224499Y-62239042D01*
X122224499Y-62290958D01*
X122224499Y-62290960D01*
X122224500Y-62290961D01*
X122233665Y-62313087D01*
X122233666Y-62313089D01*
X122233667Y-62313090D01*
X122241942Y-62333068D01*
X122244366Y-62338921D01*
X122244368Y-62338924D01*
X122286559Y-62381116D01*
X122286565Y-62381120D01*
X124658077Y-64752631D01*
X124669500Y-64780208D01*
X124669500Y-65160495D01*
X124660992Y-65184810D01*
X124633193Y-65219669D01*
X124633193Y-65219670D01*
X124614858Y-65300000D01*
X124633193Y-65380330D01*
X124683354Y-65443231D01*
X124684566Y-65444750D01*
X124758802Y-65480500D01*
X124758804Y-65480500D01*
X124841196Y-65480500D01*
X124841198Y-65480500D01*
X124915434Y-65444750D01*
X124966807Y-65380330D01*
X124985142Y-65300000D01*
X124966807Y-65219670D01*
X124943600Y-65190569D01*
X124939008Y-65184810D01*
X124930500Y-65160495D01*
X124930500Y-64740503D01*
X124930501Y-64740494D01*
X124930501Y-64684042D01*
X124920254Y-64659306D01*
X124920253Y-64659304D01*
X124917950Y-64653744D01*
X124910633Y-64636077D01*
X124873923Y-64599367D01*
X124871707Y-64597151D01*
X124871692Y-64597138D01*
X122496923Y-62222368D01*
X122485500Y-62194791D01*
X122485500Y-62025503D01*
X122485501Y-62025494D01*
X122485501Y-61969044D01*
X122485500Y-61969040D01*
X122471148Y-61934393D01*
X122465633Y-61921077D01*
X122465630Y-61921073D01*
X122426703Y-61882147D01*
X122426696Y-61882141D01*
X121181923Y-60637368D01*
X121170500Y-60609791D01*
X121170500Y-59107359D01*
X121181923Y-59079782D01*
X121218923Y-59042782D01*
X121258382Y-59003322D01*
X121285958Y-58991900D01*
X121313535Y-59003323D01*
X121323980Y-59022221D01*
X121332575Y-59059877D01*
X121334710Y-59069231D01*
X121391776Y-59140788D01*
X121452991Y-59170268D01*
X121472880Y-59192524D01*
X121475068Y-59205405D01*
X121475068Y-60485733D01*
X121475162Y-60485960D01*
X121497618Y-60540173D01*
X121497922Y-60540628D01*
X121501159Y-60546685D01*
X121501375Y-60547008D01*
X121688275Y-60733906D01*
X121688275Y-60733907D01*
X121700729Y-60746361D01*
X121700770Y-60746461D01*
X121712152Y-60757843D01*
X121712152Y-60757844D01*
X121753488Y-60799181D01*
X121852487Y-60861384D01*
X121962845Y-60899997D01*
X122079029Y-60913082D01*
X122079029Y-60913081D01*
X122079031Y-60913082D01*
X122079035Y-60913082D01*
X122173584Y-60902422D01*
X122188380Y-60900754D01*
X122217063Y-60909015D01*
X122231503Y-60935139D01*
X122231504Y-60943871D01*
X122219190Y-61053243D01*
X122219190Y-61053248D01*
X122232289Y-61169420D01*
X122232291Y-61169430D01*
X122270913Y-61279775D01*
X122270916Y-61279781D01*
X122333126Y-61378766D01*
X122333128Y-61378769D01*
X122350552Y-61396190D01*
X122350553Y-61396190D01*
X122350558Y-61396195D01*
X122350559Y-61396196D01*
X122352986Y-61398623D01*
X122357529Y-61404924D01*
X122357537Y-61404918D01*
X122359888Y-61407948D01*
X122359889Y-61407949D01*
X122377073Y-61422852D01*
X122379069Y-61424711D01*
X122390340Y-61435980D01*
X122415794Y-61461432D01*
X122514787Y-61523625D01*
X122541941Y-61533125D01*
X122625134Y-61562231D01*
X122741304Y-61575318D01*
X122850690Y-61562993D01*
X122879372Y-61571257D01*
X122893811Y-61597381D01*
X122893811Y-61606113D01*
X122883425Y-61698330D01*
X122881489Y-61715520D01*
X122894583Y-61831694D01*
X122894583Y-61831696D01*
X122894584Y-61831698D01*
X122933197Y-61942041D01*
X122933197Y-61942042D01*
X122995397Y-62041031D01*
X122995398Y-62041032D01*
X122995399Y-62041033D01*
X123015900Y-62061534D01*
X123509552Y-62555186D01*
X123509558Y-62555190D01*
X125796206Y-64841838D01*
X125796243Y-64841884D01*
X125799282Y-64844922D01*
X125799283Y-64844924D01*
X125811604Y-64857241D01*
X125811647Y-64857344D01*
X125823163Y-64868855D01*
X125823163Y-64868856D01*
X125854380Y-64900060D01*
X125927787Y-64949090D01*
X126009349Y-64982858D01*
X126095931Y-65000066D01*
X126140069Y-65000059D01*
X127300967Y-65000059D01*
X127311061Y-65001388D01*
X127320126Y-65003817D01*
X127337609Y-65013911D01*
X127340489Y-65016791D01*
X127350584Y-65034277D01*
X127353032Y-65043416D01*
X127354360Y-65053507D01*
X127354360Y-65086381D01*
X127354397Y-65086706D01*
X127354397Y-65093662D01*
X127377869Y-65181262D01*
X127377870Y-65181264D01*
X127423213Y-65259808D01*
X127423215Y-65259812D01*
X127487336Y-65323946D01*
X127487341Y-65323950D01*
X127565872Y-65369303D01*
X127565874Y-65369304D01*
X127565878Y-65369306D01*
X127653479Y-65392795D01*
X127665139Y-65392796D01*
X127665196Y-65392803D01*
X127667769Y-65392803D01*
X127667785Y-65392804D01*
X127672313Y-65392803D01*
X127672316Y-65392805D01*
X127689961Y-65392803D01*
X127689981Y-65392811D01*
X127706125Y-65392810D01*
X127706125Y-65392811D01*
X127729876Y-65392809D01*
X127732635Y-65392810D01*
X127732635Y-65392809D01*
X127740370Y-65392812D01*
X127740388Y-65392808D01*
X127751477Y-65392808D01*
X127839091Y-65369327D01*
X127917643Y-65323971D01*
X127981780Y-65259832D01*
X128027133Y-65181278D01*
X128050610Y-65093663D01*
X128050610Y-65087890D01*
X128050611Y-65087877D01*
X128050611Y-65082111D01*
X128050612Y-65082110D01*
X128050611Y-65053432D01*
X128051939Y-65043343D01*
X128054151Y-65035086D01*
X128054374Y-65034250D01*
X128064462Y-65016773D01*
X128067362Y-65013871D01*
X128084841Y-65003777D01*
X128093751Y-65001389D01*
X128103847Y-65000059D01*
X129258273Y-65000059D01*
X129285850Y-65011482D01*
X129757785Y-65483417D01*
X129769208Y-65510994D01*
X129769208Y-66137869D01*
X129769208Y-66196797D01*
X129783183Y-66230536D01*
X129791758Y-66251237D01*
X129791760Y-66251240D01*
X129887529Y-66347009D01*
X129897973Y-66365906D01*
X129914710Y-66439231D01*
X129971776Y-66510788D01*
X130054237Y-66550500D01*
X130054238Y-66550500D01*
X130095869Y-66550500D01*
X130123446Y-66561923D01*
X130134869Y-66589500D01*
X130123446Y-66617077D01*
X130102445Y-66638078D01*
X130074868Y-66649501D01*
X130054239Y-66649501D01*
X129998085Y-66676544D01*
X129971778Y-66689213D01*
X129914712Y-66760769D01*
X129914712Y-66760770D01*
X129895029Y-66847010D01*
X129894346Y-66850001D01*
X129914712Y-66939232D01*
X129971778Y-67010789D01*
X130054239Y-67050501D01*
X130054240Y-67050501D01*
X130145763Y-67050501D01*
X130145765Y-67050501D01*
X130228226Y-67010789D01*
X130285292Y-66939232D01*
X130286637Y-66933342D01*
X130302026Y-66865910D01*
X130312469Y-66847012D01*
X130468774Y-66690709D01*
X130496350Y-66679287D01*
X130523927Y-66690710D01*
X130535350Y-66718287D01*
X130535350Y-66802864D01*
X130523927Y-66830441D01*
X130163916Y-67190452D01*
X130136339Y-67201875D01*
X130127104Y-67201875D01*
X130102029Y-67191488D01*
X130101660Y-67191952D01*
X130100051Y-67190669D01*
X130099527Y-67190452D01*
X130098901Y-67189752D01*
X130098226Y-67189214D01*
X130098225Y-67189213D01*
X130098224Y-67189212D01*
X130015763Y-67149500D01*
X129924237Y-67149500D01*
X129850836Y-67184849D01*
X129841776Y-67189212D01*
X129784710Y-67260768D01*
X129784710Y-67260769D01*
X129767947Y-67334216D01*
X129764344Y-67350000D01*
X129784710Y-67439231D01*
X129841776Y-67510788D01*
X129924237Y-67550500D01*
X129924238Y-67550500D01*
X130015761Y-67550500D01*
X130015763Y-67550500D01*
X130098224Y-67510788D01*
X130098227Y-67510784D01*
X130101660Y-67508048D01*
X130102749Y-67509414D01*
X130122747Y-67498369D01*
X130127104Y-67498125D01*
X130148241Y-67498125D01*
X130175818Y-67509548D01*
X130187241Y-67537125D01*
X130175818Y-67564702D01*
X130102443Y-67638077D01*
X130074866Y-67649500D01*
X130054237Y-67649500D01*
X129971776Y-67689212D01*
X129914710Y-67760768D01*
X129914710Y-67760769D01*
X129895027Y-67847009D01*
X129894344Y-67850000D01*
X129914710Y-67939231D01*
X129971776Y-68010788D01*
X130054237Y-68050500D01*
X130054238Y-68050500D01*
X130145761Y-68050500D01*
X130145763Y-68050500D01*
X130228224Y-68010788D01*
X130285290Y-67939231D01*
X130302025Y-67865905D01*
X130312467Y-67847011D01*
X131082099Y-67077381D01*
X131104650Y-67022939D01*
X131104650Y-66964011D01*
X131104650Y-64907061D01*
X131082099Y-64852619D01*
X131040431Y-64810951D01*
X129428332Y-63198852D01*
X129373890Y-63176301D01*
X127171249Y-63176301D01*
X127166158Y-63175967D01*
X127134474Y-63171795D01*
X127124640Y-63169160D01*
X127097493Y-63157915D01*
X127088677Y-63152825D01*
X127063322Y-63133370D01*
X127059486Y-63130006D01*
X126523024Y-62593544D01*
X126511601Y-62565967D01*
X126523024Y-62538390D01*
X126563863Y-62497551D01*
X126642086Y-62419328D01*
X126652449Y-62408967D01*
X126652448Y-62408966D01*
X126663868Y-62397549D01*
X126663871Y-62397544D01*
X126675933Y-62385482D01*
X126676100Y-62385279D01*
X126676588Y-62384791D01*
X126693764Y-62367617D01*
X126755964Y-62268632D01*
X126794579Y-62158287D01*
X126807672Y-62042117D01*
X126794587Y-61925946D01*
X126755980Y-61815602D01*
X126755981Y-61815602D01*
X126693784Y-61716607D01*
X126680598Y-61703421D01*
X126675510Y-61698330D01*
X126656988Y-61679808D01*
X126646978Y-61669795D01*
X126646968Y-61669788D01*
X126636154Y-61658974D01*
X126625868Y-61648686D01*
X126625824Y-61648650D01*
X126625184Y-61648010D01*
X126611119Y-61633944D01*
X126611118Y-61633943D01*
X126512129Y-61571739D01*
X126401784Y-61533125D01*
X126401782Y-61533124D01*
X126401780Y-61533124D01*
X126285605Y-61520033D01*
X126285604Y-61520033D01*
X126169429Y-61533121D01*
X126169424Y-61533122D01*
X126059083Y-61571733D01*
X125960093Y-61633935D01*
X125960085Y-61633941D01*
X125908393Y-61685634D01*
X125789330Y-61804696D01*
X125761753Y-61816119D01*
X125734176Y-61804696D01*
X123979480Y-60050000D01*
X125864858Y-60050000D01*
X125883193Y-60130330D01*
X125922073Y-60179085D01*
X125934566Y-60194750D01*
X126008802Y-60230500D01*
X126008804Y-60230500D01*
X126091196Y-60230500D01*
X126091198Y-60230500D01*
X126165434Y-60194750D01*
X126216807Y-60130330D01*
X126235142Y-60050000D01*
X126216807Y-59969670D01*
X126165434Y-59905250D01*
X126091198Y-59869500D01*
X126008802Y-59869500D01*
X125934565Y-59905250D01*
X125883193Y-59969669D01*
X125864858Y-60050000D01*
X123979480Y-60050000D01*
X122755183Y-58825703D01*
X122743760Y-58798126D01*
X122744738Y-58789451D01*
X122746357Y-58782359D01*
X122725991Y-58693128D01*
X122725989Y-58693126D01*
X122725989Y-58693124D01*
X122673158Y-58626877D01*
X122664894Y-58598194D01*
X122673156Y-58578246D01*
X122698243Y-58546791D01*
X122718609Y-58457560D01*
X122698243Y-58368329D01*
X122681448Y-58347269D01*
X122673185Y-58318590D01*
X122687623Y-58292464D01*
X122690242Y-58290550D01*
X122690246Y-58290545D01*
X122690248Y-58290545D01*
X122723611Y-58257182D01*
X122723611Y-58257181D01*
X122729092Y-58251701D01*
X122729096Y-58251694D01*
X123121694Y-57859096D01*
X123121701Y-57859092D01*
X123160541Y-57820252D01*
X123160545Y-57820248D01*
X123161345Y-57818315D01*
X123182446Y-57797206D01*
X123207471Y-57795563D01*
X123225377Y-57800361D01*
X123261572Y-57810060D01*
X123261572Y-57810059D01*
X123261573Y-57810060D01*
X123312307Y-57796465D01*
X123341899Y-57800361D01*
X123360071Y-57824041D01*
X123361400Y-57834136D01*
X123361400Y-57880522D01*
X123349977Y-57908099D01*
X123322400Y-57919522D01*
X123312307Y-57918193D01*
X123300001Y-57914896D01*
X123299999Y-57914896D01*
X123232448Y-57932996D01*
X123232445Y-57932998D01*
X123182998Y-57982445D01*
X123182996Y-57982448D01*
X123164896Y-58049999D01*
X123164896Y-58050000D01*
X123182996Y-58117551D01*
X123182998Y-58117554D01*
X123232445Y-58167001D01*
X123232448Y-58167003D01*
X123300000Y-58185104D01*
X123312306Y-58181806D01*
X123341898Y-58185701D01*
X123360071Y-58209381D01*
X123361400Y-58219477D01*
X123361400Y-58653258D01*
X123361399Y-58653272D01*
X123361399Y-58656409D01*
X123361399Y-58703591D01*
X123361399Y-58703593D01*
X123361400Y-58703594D01*
X123367230Y-58717669D01*
X123367231Y-58717671D01*
X123367232Y-58717672D01*
X123374440Y-58735074D01*
X123379454Y-58747180D01*
X123379456Y-58747183D01*
X123418300Y-58786028D01*
X123418306Y-58786032D01*
X124230802Y-59598527D01*
X124230815Y-59598542D01*
X124241281Y-59609008D01*
X124252704Y-59636585D01*
X124241283Y-59664160D01*
X124232999Y-59672444D01*
X124232996Y-59672449D01*
X124214896Y-59739999D01*
X124214896Y-59740000D01*
X124232996Y-59807551D01*
X124232998Y-59807554D01*
X124282445Y-59857001D01*
X124282448Y-59857003D01*
X124349999Y-59875104D01*
X124350000Y-59875104D01*
X124350001Y-59875104D01*
X124390820Y-59864166D01*
X124417552Y-59857003D01*
X124467003Y-59807552D01*
X124485104Y-59740000D01*
X124482368Y-59729791D01*
X124474726Y-59701270D01*
X124478622Y-59671676D01*
X124502303Y-59653505D01*
X124512397Y-59652176D01*
X126408296Y-59652176D01*
X126435873Y-59663599D01*
X126590802Y-59818527D01*
X126590815Y-59818542D01*
X126593031Y-59820758D01*
X126626394Y-59854121D01*
X126640912Y-59860134D01*
X126651929Y-59864697D01*
X126651931Y-59864698D01*
X126663523Y-59869500D01*
X126669985Y-59872177D01*
X126721704Y-59872177D01*
X126721712Y-59872176D01*
X128268296Y-59872176D01*
X128295873Y-59883599D01*
X128572464Y-60160190D01*
X128582908Y-60179085D01*
X128583191Y-60180328D01*
X128623201Y-60230499D01*
X128634566Y-60244750D01*
X128708802Y-60280500D01*
X128708804Y-60280500D01*
X128791196Y-60280500D01*
X128791198Y-60280500D01*
X128865434Y-60244750D01*
X128916807Y-60180330D01*
X128935142Y-60100000D01*
X128916807Y-60019670D01*
X128865434Y-59955250D01*
X128791198Y-59919500D01*
X128708802Y-59919500D01*
X128708801Y-59919500D01*
X128708796Y-59919501D01*
X128705665Y-59921009D01*
X128675863Y-59922678D01*
X128661172Y-59913446D01*
X128439608Y-59691882D01*
X128439604Y-59691876D01*
X128400759Y-59653032D01*
X128400758Y-59653031D01*
X128378962Y-59644003D01*
X128367141Y-59639106D01*
X128346036Y-59618001D01*
X128346036Y-59588151D01*
X128367142Y-59567045D01*
X128382067Y-59564076D01*
X128906215Y-59564076D01*
X128933792Y-59575499D01*
X129331765Y-59973472D01*
X129331768Y-59973476D01*
X129333991Y-59975699D01*
X129370701Y-60012409D01*
X129380320Y-60016393D01*
X129380321Y-60016394D01*
X129380322Y-60016394D01*
X129418666Y-60032277D01*
X129475119Y-60032277D01*
X129475127Y-60032276D01*
X129771913Y-60032276D01*
X129799490Y-60043699D01*
X129802397Y-60046951D01*
X129824565Y-60074749D01*
X129824566Y-60074750D01*
X129898802Y-60110500D01*
X129898804Y-60110500D01*
X129981196Y-60110500D01*
X129981198Y-60110500D01*
X130055434Y-60074750D01*
X130106807Y-60010330D01*
X130108427Y-60003230D01*
X130125696Y-59978889D01*
X130155123Y-59973886D01*
X130174025Y-59984332D01*
X131088077Y-60898384D01*
X131099500Y-60925961D01*
X131099500Y-62010891D01*
X131099499Y-62010905D01*
X131099499Y-62065957D01*
X131113337Y-62099365D01*
X131113337Y-62099367D01*
X131113338Y-62099367D01*
X131119366Y-62113921D01*
X131119368Y-62113924D01*
X131161559Y-62156116D01*
X131161565Y-62156120D01*
X131258077Y-62252632D01*
X131269500Y-62280209D01*
X131269500Y-67271195D01*
X131267310Y-67284079D01*
X131209344Y-67449692D01*
X131208038Y-67452946D01*
X131116997Y-67653236D01*
X131113865Y-67658848D01*
X130907374Y-67966184D01*
X130882513Y-67982704D01*
X130853252Y-67976806D01*
X130844514Y-67968753D01*
X130796899Y-67909046D01*
X130722663Y-67873296D01*
X130640267Y-67873296D01*
X130566030Y-67909046D01*
X130514658Y-67973465D01*
X130512549Y-67982704D01*
X130496323Y-68053796D01*
X130514658Y-68134126D01*
X130566031Y-68198546D01*
X130640267Y-68234296D01*
X130640269Y-68234296D01*
X130646994Y-68234296D01*
X130674571Y-68245719D01*
X130685994Y-68273296D01*
X130674571Y-68300873D01*
X130591168Y-68384277D01*
X130563591Y-68395700D01*
X128595911Y-68395700D01*
X128568334Y-68384277D01*
X125486368Y-65302311D01*
X125475924Y-65283414D01*
X125466807Y-65243468D01*
X125415434Y-65179048D01*
X125341198Y-65143298D01*
X125258802Y-65143298D01*
X125184565Y-65179048D01*
X125133193Y-65243467D01*
X125114858Y-65323798D01*
X125133193Y-65404128D01*
X125183090Y-65466698D01*
X125184566Y-65468548D01*
X125258802Y-65504298D01*
X125303091Y-65504298D01*
X125330668Y-65515721D01*
X128412843Y-68597896D01*
X128412846Y-68597900D01*
X128415069Y-68600123D01*
X128451779Y-68636833D01*
X128475603Y-68646701D01*
X128499744Y-68656701D01*
X128556197Y-68656701D01*
X128556205Y-68656700D01*
X130603297Y-68656700D01*
X130603305Y-68656701D01*
X130649608Y-68656701D01*
X130677185Y-68668124D01*
X130688608Y-68695701D01*
X130679569Y-68720667D01*
X130627123Y-68783603D01*
X130453631Y-68991793D01*
X130451762Y-68993878D01*
X130230785Y-69223353D01*
X130211543Y-69234284D01*
X129796963Y-69330883D01*
X129788113Y-69331900D01*
X127724019Y-69331900D01*
X127696442Y-69320477D01*
X127694019Y-69317766D01*
X127693874Y-69317650D01*
X127656755Y-69299775D01*
X127619637Y-69281900D01*
X127537241Y-69281900D01*
X127463004Y-69317650D01*
X127411632Y-69382069D01*
X127393297Y-69462400D01*
X127411632Y-69542730D01*
X127453623Y-69595386D01*
X127463005Y-69607150D01*
X127537241Y-69642900D01*
X127537243Y-69642900D01*
X127619635Y-69642900D01*
X127619637Y-69642900D01*
X127693873Y-69607150D01*
X127693874Y-69607149D01*
X127697312Y-69604408D01*
X127697911Y-69605160D01*
X127719652Y-69593145D01*
X127724019Y-69592900D01*
X129793689Y-69592900D01*
X129800046Y-69593422D01*
X129802150Y-69593769D01*
X129811933Y-69595386D01*
X129817604Y-69594064D01*
X129818238Y-69593917D01*
X129827087Y-69592900D01*
X129833556Y-69592900D01*
X129833558Y-69592900D01*
X129844687Y-69588289D01*
X129850757Y-69586338D01*
X130302215Y-69481149D01*
X130310322Y-69480140D01*
X130318415Y-69479988D01*
X130327982Y-69475811D01*
X130334728Y-69473573D01*
X130344895Y-69471205D01*
X130351471Y-69466493D01*
X130358577Y-69462456D01*
X130358705Y-69462400D01*
X130360478Y-69461625D01*
X130390322Y-69461060D01*
X130411825Y-69481763D01*
X130412391Y-69511607D01*
X130404530Y-69524047D01*
X130221248Y-69719479D01*
X130219480Y-69721247D01*
X129776693Y-70136505D01*
X129774814Y-70138157D01*
X129306328Y-70524170D01*
X129304348Y-70525698D01*
X128812074Y-70880891D01*
X128810000Y-70882289D01*
X128295952Y-71205208D01*
X128293792Y-71206469D01*
X127760135Y-71495753D01*
X127757899Y-71496874D01*
X127206790Y-71751359D01*
X127204487Y-71752335D01*
X126638170Y-71970980D01*
X126635809Y-71971805D01*
X126056672Y-72153688D01*
X126054262Y-72154361D01*
X125464632Y-72298752D01*
X125462185Y-72299268D01*
X124864539Y-72405563D01*
X124862064Y-72405922D01*
X124258825Y-72473688D01*
X124256331Y-72473888D01*
X123649972Y-72502846D01*
X123647472Y-72502885D01*
X123040506Y-72492916D01*
X123038007Y-72492794D01*
X122432951Y-72443939D01*
X122430466Y-72443658D01*
X122327058Y-72428588D01*
X122301416Y-72413308D01*
X122294090Y-72384372D01*
X122302188Y-72365682D01*
X122327300Y-72334194D01*
X122332634Y-72310821D01*
X122349906Y-72286478D01*
X122370656Y-72280500D01*
X122569497Y-72280500D01*
X122569505Y-72280501D01*
X122574042Y-72280501D01*
X122625957Y-72280501D01*
X122625958Y-72280501D01*
X122659874Y-72266452D01*
X122673923Y-72260633D01*
X122710633Y-72223923D01*
X122710633Y-72223922D01*
X122716114Y-72218442D01*
X122716118Y-72218435D01*
X122934554Y-71999999D01*
X123714896Y-71999999D01*
X123714896Y-72000000D01*
X123732996Y-72067551D01*
X123732998Y-72067554D01*
X123782445Y-72117001D01*
X123782448Y-72117003D01*
X123849999Y-72135104D01*
X123850000Y-72135104D01*
X123850001Y-72135104D01*
X123883776Y-72126053D01*
X123917552Y-72117003D01*
X123967003Y-72067552D01*
X123985104Y-72000000D01*
X123967003Y-71932448D01*
X123967001Y-71932445D01*
X123917554Y-71882998D01*
X123917551Y-71882996D01*
X123850001Y-71864896D01*
X123849999Y-71864896D01*
X123782448Y-71882996D01*
X123782445Y-71882998D01*
X123732998Y-71932445D01*
X123732996Y-71932448D01*
X123714896Y-71999999D01*
X122934554Y-71999999D01*
X123098435Y-71836118D01*
X123098442Y-71836114D01*
X123103923Y-71830633D01*
X123140633Y-71793923D01*
X123146452Y-71779874D01*
X123160501Y-71745958D01*
X123160501Y-71694042D01*
X123160501Y-71690905D01*
X123160500Y-71690891D01*
X123160500Y-71119999D01*
X123584896Y-71119999D01*
X123584896Y-71120000D01*
X123602996Y-71187551D01*
X123602998Y-71187554D01*
X123652445Y-71237001D01*
X123652448Y-71237003D01*
X123719999Y-71255104D01*
X123720000Y-71255104D01*
X123720001Y-71255104D01*
X123761458Y-71243995D01*
X123787552Y-71237003D01*
X123837003Y-71187552D01*
X123855104Y-71120000D01*
X123851113Y-71105107D01*
X123837003Y-71052448D01*
X123837001Y-71052445D01*
X123787554Y-71002998D01*
X123787551Y-71002996D01*
X123720001Y-70984896D01*
X123719999Y-70984896D01*
X123652448Y-71002996D01*
X123652445Y-71002998D01*
X123602998Y-71052445D01*
X123602996Y-71052448D01*
X123584896Y-71119999D01*
X123160500Y-71119999D01*
X123160500Y-65355406D01*
X123171923Y-65327829D01*
X123199500Y-65316406D01*
X123227077Y-65327829D01*
X123237171Y-65345312D01*
X123242996Y-65367053D01*
X123242998Y-65367056D01*
X123292445Y-65416503D01*
X123292448Y-65416505D01*
X123359999Y-65434606D01*
X123360000Y-65434606D01*
X123360001Y-65434606D01*
X123397133Y-65424656D01*
X123427552Y-65416505D01*
X123477003Y-65367054D01*
X123495104Y-65299502D01*
X123492800Y-65290905D01*
X123477003Y-65231950D01*
X123477001Y-65231947D01*
X123427554Y-65182500D01*
X123427551Y-65182498D01*
X123360001Y-65164398D01*
X123359999Y-65164398D01*
X123292448Y-65182498D01*
X123292445Y-65182500D01*
X123242998Y-65231947D01*
X123242997Y-65231949D01*
X123237171Y-65253692D01*
X123218999Y-65277372D01*
X123189405Y-65281268D01*
X123165725Y-65263096D01*
X123160500Y-65243597D01*
X123160500Y-65100503D01*
X123160501Y-65100494D01*
X123160501Y-65044044D01*
X123160500Y-65044040D01*
X123155633Y-65032292D01*
X123150566Y-65020059D01*
X123140633Y-64996077D01*
X123103923Y-64959367D01*
X123101703Y-64957147D01*
X123101696Y-64957141D01*
X122922703Y-64778148D01*
X122911280Y-64750571D01*
X122922703Y-64722994D01*
X122950280Y-64711571D01*
X122960374Y-64712900D01*
X122982601Y-64718856D01*
X122982602Y-64718856D01*
X122982603Y-64718856D01*
X123016378Y-64709805D01*
X123050154Y-64700755D01*
X123099605Y-64651304D01*
X123117706Y-64583752D01*
X123117503Y-64582996D01*
X123099605Y-64516200D01*
X123099603Y-64516197D01*
X123050156Y-64466750D01*
X123050153Y-64466748D01*
X122982603Y-64448648D01*
X122982601Y-64448648D01*
X122915050Y-64466748D01*
X122915047Y-64466750D01*
X122865600Y-64516197D01*
X122865598Y-64516200D01*
X122847498Y-64583751D01*
X122847498Y-64583754D01*
X122853453Y-64605980D01*
X122849557Y-64635574D01*
X122825875Y-64653744D01*
X122796281Y-64649848D01*
X122788205Y-64643650D01*
X120574554Y-62429999D01*
X121094896Y-62429999D01*
X121094896Y-62430000D01*
X121112996Y-62497551D01*
X121112998Y-62497554D01*
X121162445Y-62547001D01*
X121162448Y-62547003D01*
X121229999Y-62565104D01*
X121230000Y-62565104D01*
X121230001Y-62565104D01*
X121263776Y-62556053D01*
X121297552Y-62547003D01*
X121347003Y-62497552D01*
X121365104Y-62430000D01*
X121363963Y-62425743D01*
X121347003Y-62362448D01*
X121347001Y-62362445D01*
X121297554Y-62312998D01*
X121297551Y-62312996D01*
X121230001Y-62294896D01*
X121229999Y-62294896D01*
X121162448Y-62312996D01*
X121162445Y-62312998D01*
X121112998Y-62362445D01*
X121112996Y-62362448D01*
X121094896Y-62429999D01*
X120574554Y-62429999D01*
X119729420Y-61584865D01*
X119717997Y-61557288D01*
X119729420Y-61529711D01*
X119740071Y-61522153D01*
X119784358Y-61500826D01*
X119835731Y-61436406D01*
X119854066Y-61356076D01*
X119835731Y-61275746D01*
X119822882Y-61259634D01*
X119807932Y-61240886D01*
X119799424Y-61216571D01*
X119799424Y-59244788D01*
X119810847Y-59217211D01*
X119838424Y-59205788D01*
X119848518Y-59207117D01*
X119850871Y-59207747D01*
X119850872Y-59207748D01*
X119868080Y-59212359D01*
X119918423Y-59225849D01*
X119918424Y-59225849D01*
X119918425Y-59225849D01*
X119955568Y-59215896D01*
X119985976Y-59207748D01*
X120035427Y-59158297D01*
X120053528Y-59090745D01*
X120050891Y-59080905D01*
X120035427Y-59023193D01*
X120035425Y-59023190D01*
X119985978Y-58973743D01*
X119985975Y-58973741D01*
X119918425Y-58955641D01*
X119918423Y-58955641D01*
X119848518Y-58974372D01*
X119818924Y-58970476D01*
X119800753Y-58946795D01*
X119799424Y-58936701D01*
X119799424Y-58881285D01*
X119810847Y-58853708D01*
X120198416Y-58466139D01*
X120225993Y-58454716D01*
X120473713Y-58454716D01*
X120473721Y-58454717D01*
X120478258Y-58454717D01*
X120530171Y-58454717D01*
X120530174Y-58454717D01*
X120555442Y-58444250D01*
X120578139Y-58434849D01*
X120614849Y-58398139D01*
X120614849Y-58398138D01*
X120620330Y-58392658D01*
X120620334Y-58392651D01*
X120958435Y-58054549D01*
X120958442Y-58054545D01*
X120963923Y-58049064D01*
X121000633Y-58012354D01*
X121009397Y-57991194D01*
X121020501Y-57964388D01*
X121020501Y-57912473D01*
X121020501Y-57909336D01*
X121020500Y-57909322D01*
X121020500Y-57717600D01*
X121031923Y-57690023D01*
X121059500Y-57678600D01*
X121429521Y-57678600D01*
X121457098Y-57690023D01*
G37*
%TD.AperFunction*%
%TA.AperFunction,Conductor*%
G36*
X122244833Y-64974744D02*
G01*
X122587195Y-65317106D01*
X122597640Y-65336003D01*
X122603193Y-65360330D01*
X122649547Y-65418457D01*
X122654566Y-65424750D01*
X122728802Y-65460500D01*
X122728804Y-65460500D01*
X122811195Y-65460500D01*
X122811198Y-65460500D01*
X122843581Y-65444904D01*
X122873380Y-65443231D01*
X122895638Y-65463121D01*
X122899500Y-65480043D01*
X122899500Y-71649791D01*
X122888077Y-71677368D01*
X122557368Y-72008077D01*
X122529791Y-72019500D01*
X122294860Y-72019500D01*
X122294852Y-72019499D01*
X122290315Y-72019499D01*
X122238399Y-72019499D01*
X122204482Y-72033547D01*
X122204480Y-72033547D01*
X122190433Y-72039367D01*
X122179147Y-72050654D01*
X122167859Y-72061941D01*
X122140284Y-72073364D01*
X122119295Y-72073364D01*
X122045058Y-72109114D01*
X121993686Y-72173533D01*
X121975351Y-72253864D01*
X121991839Y-72326104D01*
X121986839Y-72355531D01*
X121962495Y-72372804D01*
X121948193Y-72373374D01*
X121829768Y-72356116D01*
X121827306Y-72355676D01*
X121233478Y-72229813D01*
X121231048Y-72229217D01*
X120646463Y-72065534D01*
X120644078Y-72064782D01*
X120417732Y-71985440D01*
X120395486Y-71965538D01*
X120393829Y-71935735D01*
X120413731Y-71913489D01*
X120430633Y-71909636D01*
X120449749Y-71909636D01*
X120449751Y-71909636D01*
X120523987Y-71873886D01*
X120575360Y-71809466D01*
X120593695Y-71729136D01*
X120575360Y-71648806D01*
X120568678Y-71640427D01*
X120547561Y-71613946D01*
X120539053Y-71589631D01*
X120539053Y-71079999D01*
X121454896Y-71079999D01*
X121454896Y-71080000D01*
X121472996Y-71147551D01*
X121472998Y-71147554D01*
X121522445Y-71197001D01*
X121522448Y-71197003D01*
X121589999Y-71215104D01*
X121590000Y-71215104D01*
X121590001Y-71215104D01*
X121643542Y-71200757D01*
X121657552Y-71197003D01*
X121707003Y-71147552D01*
X121725104Y-71080000D01*
X121723736Y-71074896D01*
X121707003Y-71012448D01*
X121707001Y-71012445D01*
X121657554Y-70962998D01*
X121657551Y-70962996D01*
X121590001Y-70944896D01*
X121589999Y-70944896D01*
X121522448Y-70962996D01*
X121522445Y-70962998D01*
X121472998Y-71012445D01*
X121472996Y-71012448D01*
X121454896Y-71079999D01*
X120539053Y-71079999D01*
X120539053Y-69339056D01*
X120539054Y-69339047D01*
X120539054Y-69282597D01*
X120539054Y-69282595D01*
X120526753Y-69252900D01*
X120519186Y-69234630D01*
X120482476Y-69197920D01*
X120480260Y-69195704D01*
X120480245Y-69195691D01*
X117978141Y-66693586D01*
X117978137Y-66693580D01*
X117935944Y-66651388D01*
X117935941Y-66651386D01*
X117921895Y-66645568D01*
X117921895Y-66645567D01*
X117887980Y-66631520D01*
X117887979Y-66631520D01*
X117836063Y-66631520D01*
X117831526Y-66631520D01*
X117831518Y-66631521D01*
X117386769Y-66631521D01*
X117359192Y-66620098D01*
X117347769Y-66592521D01*
X117359192Y-66564944D01*
X117369848Y-66557383D01*
X117393633Y-66545929D01*
X117445006Y-66481509D01*
X117453830Y-66442846D01*
X117471101Y-66418505D01*
X117500529Y-66413505D01*
X117522342Y-66427211D01*
X117535064Y-66443164D01*
X117535065Y-66443164D01*
X117535066Y-66443165D01*
X117609302Y-66478915D01*
X117609304Y-66478915D01*
X117691696Y-66478915D01*
X117691698Y-66478915D01*
X117765934Y-66443165D01*
X117817307Y-66378745D01*
X117835642Y-66298415D01*
X117817307Y-66218085D01*
X117777607Y-66168302D01*
X117769100Y-66143989D01*
X117769100Y-66114779D01*
X117780522Y-66087203D01*
X118339692Y-65528032D01*
X118367268Y-65516610D01*
X118394845Y-65528033D01*
X118405289Y-65546930D01*
X118409944Y-65567322D01*
X118451559Y-65619506D01*
X118457099Y-65628899D01*
X118457514Y-65629902D01*
X118457515Y-65629903D01*
X118466116Y-65650670D01*
X118466119Y-65650675D01*
X118508310Y-65692867D01*
X118508316Y-65692871D01*
X118640986Y-65825541D01*
X118652409Y-65853118D01*
X118640986Y-65880695D01*
X118623504Y-65890789D01*
X118577948Y-65902997D01*
X118577945Y-65902998D01*
X118528498Y-65952445D01*
X118528496Y-65952448D01*
X118510396Y-66019999D01*
X118510396Y-66020000D01*
X118528496Y-66087551D01*
X118528498Y-66087554D01*
X118577945Y-66137001D01*
X118577948Y-66137003D01*
X118645499Y-66155104D01*
X118645500Y-66155104D01*
X118645501Y-66155104D01*
X118679276Y-66146053D01*
X118713052Y-66137003D01*
X118713053Y-66137001D01*
X118717500Y-66134435D01*
X118717873Y-66135082D01*
X118740500Y-66125710D01*
X118768077Y-66137133D01*
X118779500Y-66164710D01*
X118779500Y-66560891D01*
X118779499Y-66560905D01*
X118779499Y-66615959D01*
X118785946Y-66631521D01*
X118799367Y-66663923D01*
X118799368Y-66663924D01*
X118841559Y-66706116D01*
X118841565Y-66706120D01*
X122368077Y-70232632D01*
X122379500Y-70260209D01*
X122379500Y-70960993D01*
X122370992Y-70985308D01*
X122343193Y-71020167D01*
X122343193Y-71020168D01*
X122324858Y-71100498D01*
X122343193Y-71180828D01*
X122394566Y-71245248D01*
X122468802Y-71280998D01*
X122468804Y-71280998D01*
X122551196Y-71280998D01*
X122551198Y-71280998D01*
X122625434Y-71245248D01*
X122676807Y-71180828D01*
X122695142Y-71100498D01*
X122676807Y-71020168D01*
X122660722Y-70999998D01*
X122649008Y-70985308D01*
X122640500Y-70960993D01*
X122640500Y-70220503D01*
X122640501Y-70220494D01*
X122640501Y-70164042D01*
X122623602Y-70123245D01*
X122623601Y-70123242D01*
X122623601Y-70123243D01*
X122620632Y-70116075D01*
X122581703Y-70077147D01*
X122581696Y-70077141D01*
X119051923Y-66547368D01*
X119040500Y-66519791D01*
X119040500Y-65961948D01*
X119051923Y-65934371D01*
X119079500Y-65922948D01*
X119089594Y-65924277D01*
X119129999Y-65935104D01*
X119130000Y-65935104D01*
X119130001Y-65935104D01*
X119170406Y-65924277D01*
X119197552Y-65917003D01*
X119247003Y-65867552D01*
X119265104Y-65800000D01*
X119264934Y-65799367D01*
X119247003Y-65732448D01*
X119247001Y-65732445D01*
X119197554Y-65682998D01*
X119197551Y-65682996D01*
X119130001Y-65664896D01*
X119129999Y-65664896D01*
X119062448Y-65682996D01*
X119062445Y-65682998D01*
X119012998Y-65732445D01*
X119012996Y-65732448D01*
X119010194Y-65742908D01*
X118992023Y-65766589D01*
X118962429Y-65770485D01*
X118944946Y-65760391D01*
X118760344Y-65575789D01*
X118748921Y-65548212D01*
X118749897Y-65539541D01*
X118761893Y-65486992D01*
X118743558Y-65406662D01*
X118743556Y-65406660D01*
X118743556Y-65406658D01*
X118717542Y-65374038D01*
X118709278Y-65345355D01*
X118723717Y-65319231D01*
X118748033Y-65310722D01*
X119666804Y-65310722D01*
X119691118Y-65319229D01*
X119694331Y-65321791D01*
X119694332Y-65321791D01*
X119694333Y-65321792D01*
X119768569Y-65357542D01*
X119768571Y-65357542D01*
X119850963Y-65357542D01*
X119850965Y-65357542D01*
X119925201Y-65321792D01*
X119976574Y-65257372D01*
X119994909Y-65177042D01*
X119976574Y-65096712D01*
X119925201Y-65032292D01*
X119922461Y-65028856D01*
X119923298Y-65028187D01*
X119911416Y-65006691D01*
X119919677Y-64978007D01*
X119945800Y-64963567D01*
X119950170Y-64963321D01*
X122217256Y-64963321D01*
X122244833Y-64974744D01*
G37*
%TD.AperFunction*%
%TA.AperFunction,Conductor*%
G36*
X123959513Y-53507081D02*
G01*
X123961973Y-53507202D01*
X124567053Y-53556058D01*
X124569530Y-53556338D01*
X125170258Y-53643885D01*
X125172668Y-53644316D01*
X125745967Y-53765827D01*
X125766522Y-53770184D01*
X125768954Y-53770780D01*
X126353543Y-53934465D01*
X126355916Y-53935213D01*
X126928762Y-54136016D01*
X126931090Y-54136916D01*
X127489940Y-54374049D01*
X127492182Y-54375087D01*
X128034797Y-54647614D01*
X128036714Y-54648646D01*
X128299456Y-54799686D01*
X128300426Y-54800264D01*
X128392982Y-54857421D01*
X128594434Y-54942074D01*
X128700000Y-54965794D01*
X128700000Y-55200000D01*
X131699994Y-58199994D01*
X131700041Y-58200075D01*
X131851347Y-58463278D01*
X131852387Y-58465211D01*
X132124903Y-59007804D01*
X132125954Y-59010074D01*
X132363079Y-59568905D01*
X132363981Y-59571238D01*
X132564783Y-60144081D01*
X132565535Y-60146466D01*
X132660529Y-60485732D01*
X132718460Y-60692632D01*
X132729215Y-60731041D01*
X132729811Y-60733471D01*
X132855676Y-61327308D01*
X132856116Y-61329770D01*
X132943658Y-61930465D01*
X132943939Y-61932950D01*
X132992794Y-62538007D01*
X132992916Y-62540506D01*
X133002885Y-63147472D01*
X133002846Y-63149972D01*
X132973888Y-63756330D01*
X132973688Y-63758824D01*
X132905922Y-64362063D01*
X132905563Y-64364538D01*
X132799269Y-64962184D01*
X132798753Y-64964631D01*
X132654361Y-65554261D01*
X132653688Y-65556671D01*
X132471805Y-66135808D01*
X132470980Y-66138169D01*
X132252335Y-66704487D01*
X132251359Y-66706790D01*
X131996874Y-67257898D01*
X131995753Y-67260134D01*
X131726915Y-67756074D01*
X131703731Y-67774874D01*
X131674043Y-67771774D01*
X131655243Y-67748590D01*
X131656782Y-67722125D01*
X131657635Y-67720135D01*
X131931207Y-67081800D01*
X131936370Y-67073094D01*
X131938692Y-67070136D01*
X131942659Y-67055942D01*
X131944371Y-67051087D01*
X131944947Y-67049744D01*
X131950174Y-67037547D01*
X131950219Y-67033783D01*
X131951655Y-67023766D01*
X132197706Y-66143660D01*
X132198877Y-66140601D01*
X132199359Y-66138800D01*
X132205838Y-66114574D01*
X132205897Y-66114359D01*
X132212670Y-66090138D01*
X132212669Y-66090137D01*
X132213171Y-66088345D01*
X132213722Y-66085103D01*
X132353184Y-65563762D01*
X132354827Y-65558918D01*
X132356756Y-65554261D01*
X132360500Y-65545224D01*
X132360500Y-65541544D01*
X132361825Y-65531464D01*
X132362775Y-65527914D01*
X132360836Y-65513230D01*
X132360500Y-65508124D01*
X132360500Y-61854044D01*
X132360500Y-61854042D01*
X132340633Y-61806077D01*
X132303923Y-61769367D01*
X132301703Y-61767147D01*
X132301696Y-61767141D01*
X132195723Y-61661168D01*
X132184300Y-61633591D01*
X132184300Y-60314303D01*
X132184301Y-60314294D01*
X132184301Y-60257842D01*
X132169244Y-60221493D01*
X132169243Y-60221491D01*
X132169224Y-60221446D01*
X132164433Y-60209877D01*
X132164430Y-60209873D01*
X132125503Y-60170947D01*
X132125496Y-60170941D01*
X131286913Y-59332358D01*
X131604896Y-59332358D01*
X131604896Y-59332359D01*
X131622996Y-59399910D01*
X131622998Y-59399913D01*
X131672445Y-59449360D01*
X131672448Y-59449362D01*
X131739999Y-59467463D01*
X131740000Y-59467463D01*
X131740001Y-59467463D01*
X131773776Y-59458412D01*
X131807552Y-59449362D01*
X131857003Y-59399911D01*
X131875104Y-59332359D01*
X131875093Y-59332319D01*
X131857003Y-59264807D01*
X131857001Y-59264804D01*
X131807554Y-59215357D01*
X131807551Y-59215355D01*
X131740001Y-59197255D01*
X131739999Y-59197255D01*
X131672448Y-59215355D01*
X131672445Y-59215357D01*
X131622998Y-59264804D01*
X131622996Y-59264807D01*
X131604896Y-59332358D01*
X131286913Y-59332358D01*
X130556120Y-58601565D01*
X130556116Y-58601559D01*
X130513924Y-58559368D01*
X130513923Y-58559367D01*
X130509408Y-58557497D01*
X130499145Y-58553246D01*
X130499145Y-58553245D01*
X130499143Y-58553245D01*
X130465958Y-58539499D01*
X130414042Y-58539499D01*
X130409505Y-58539499D01*
X130409497Y-58539500D01*
X130138515Y-58539500D01*
X130110938Y-58528077D01*
X130099515Y-58500500D01*
X130110938Y-58472923D01*
X130121594Y-58465362D01*
X130165434Y-58444250D01*
X130216807Y-58379830D01*
X130235142Y-58299500D01*
X130216807Y-58219170D01*
X130165434Y-58154750D01*
X130091198Y-58119000D01*
X130091197Y-58119000D01*
X130070209Y-58119000D01*
X130042632Y-58107577D01*
X129491923Y-57556868D01*
X129480500Y-57529291D01*
X129480500Y-57380503D01*
X129480501Y-57380494D01*
X129480501Y-57324042D01*
X129467674Y-57293076D01*
X129467673Y-57293074D01*
X129463292Y-57282497D01*
X129460633Y-57276077D01*
X129423923Y-57239367D01*
X129421703Y-57237147D01*
X129421696Y-57237141D01*
X129006120Y-56821565D01*
X129006116Y-56821559D01*
X128963924Y-56779368D01*
X128963923Y-56779367D01*
X128963920Y-56779366D01*
X128963919Y-56779365D01*
X128955565Y-56775905D01*
X128941306Y-56769999D01*
X128915958Y-56759499D01*
X128864042Y-56759499D01*
X128859505Y-56759499D01*
X128859497Y-56759500D01*
X128720209Y-56759500D01*
X128692632Y-56748077D01*
X128432487Y-56487932D01*
X128421064Y-56460355D01*
X128432487Y-56432778D01*
X128460064Y-56421355D01*
X128474984Y-56424322D01*
X128494174Y-56432270D01*
X128514042Y-56440501D01*
X128514044Y-56440501D01*
X128570495Y-56440501D01*
X128570503Y-56440500D01*
X128989791Y-56440500D01*
X129017368Y-56451923D01*
X129676164Y-57110719D01*
X129687587Y-57138296D01*
X129676164Y-57165873D01*
X129658682Y-57175967D01*
X129632448Y-57182997D01*
X129632445Y-57182998D01*
X129582998Y-57232445D01*
X129582996Y-57232448D01*
X129564896Y-57299999D01*
X129564896Y-57300000D01*
X129582996Y-57367551D01*
X129582998Y-57367554D01*
X129632445Y-57417001D01*
X129632448Y-57417003D01*
X129699999Y-57435104D01*
X129700000Y-57435104D01*
X129700001Y-57435104D01*
X129733776Y-57426053D01*
X129767552Y-57417003D01*
X129817003Y-57367552D01*
X129824032Y-57341318D01*
X129842203Y-57317637D01*
X129871796Y-57313741D01*
X129889280Y-57323835D01*
X130314894Y-57749448D01*
X130326317Y-57777025D01*
X130317810Y-57801339D01*
X130303193Y-57819669D01*
X130303193Y-57819670D01*
X130284858Y-57900000D01*
X130303193Y-57980330D01*
X130328729Y-58012352D01*
X130354566Y-58044750D01*
X130428802Y-58080500D01*
X130428804Y-58080500D01*
X130511196Y-58080500D01*
X130511198Y-58080500D01*
X130585434Y-58044750D01*
X130636807Y-57980330D01*
X130655142Y-57900000D01*
X130638024Y-57825000D01*
X130789858Y-57825000D01*
X130808193Y-57905330D01*
X130854803Y-57963778D01*
X130859566Y-57969750D01*
X130933802Y-58005500D01*
X130933804Y-58005500D01*
X131016196Y-58005500D01*
X131016198Y-58005500D01*
X131090434Y-57969750D01*
X131141807Y-57905330D01*
X131160142Y-57825000D01*
X131141807Y-57744670D01*
X131090434Y-57680250D01*
X131016198Y-57644500D01*
X130933802Y-57644500D01*
X130859565Y-57680250D01*
X130808193Y-57744669D01*
X130789858Y-57825000D01*
X130638024Y-57825000D01*
X130636807Y-57819670D01*
X130620462Y-57799174D01*
X130609008Y-57784810D01*
X130600500Y-57760495D01*
X130600500Y-57750503D01*
X130600501Y-57750494D01*
X130600501Y-57694042D01*
X130591959Y-57673422D01*
X130591958Y-57673420D01*
X130580633Y-57646077D01*
X130543923Y-57609367D01*
X130541707Y-57607151D01*
X130541692Y-57607138D01*
X129176120Y-56241565D01*
X129176116Y-56241559D01*
X129133923Y-56199367D01*
X129133920Y-56199365D01*
X129119874Y-56193547D01*
X129119874Y-56193546D01*
X129085959Y-56179499D01*
X129085958Y-56179499D01*
X129034042Y-56179499D01*
X129029505Y-56179499D01*
X129029497Y-56179500D01*
X128746206Y-56179500D01*
X128718629Y-56168077D01*
X128707206Y-56140500D01*
X128718629Y-56112923D01*
X128770196Y-56061355D01*
X128770198Y-56061353D01*
X128788299Y-55993801D01*
X128785020Y-55981565D01*
X128770198Y-55926249D01*
X128770196Y-55926246D01*
X128720749Y-55876799D01*
X128720746Y-55876797D01*
X128653196Y-55858697D01*
X128653194Y-55858697D01*
X128585643Y-55876797D01*
X128585640Y-55876799D01*
X128536193Y-55926246D01*
X128536191Y-55926249D01*
X128518091Y-55993800D01*
X128520586Y-56003114D01*
X128516688Y-56032707D01*
X128493006Y-56050878D01*
X128463413Y-56046980D01*
X128455337Y-56040783D01*
X128190659Y-55776105D01*
X127803347Y-55388792D01*
X127791924Y-55361215D01*
X127791924Y-55139079D01*
X127791925Y-55139070D01*
X127791925Y-55130635D01*
X127803348Y-55103058D01*
X127830925Y-55091635D01*
X127858502Y-55103058D01*
X127892445Y-55137001D01*
X127892448Y-55137003D01*
X127959999Y-55155104D01*
X127960000Y-55155104D01*
X127960001Y-55155104D01*
X128019804Y-55139079D01*
X128027552Y-55137003D01*
X128077003Y-55087552D01*
X128095104Y-55020000D01*
X128094702Y-55018501D01*
X128077003Y-54952448D01*
X128077001Y-54952445D01*
X128027554Y-54902998D01*
X128027551Y-54902996D01*
X127960001Y-54884896D01*
X127959999Y-54884896D01*
X127892448Y-54902996D01*
X127892445Y-54902998D01*
X127842998Y-54952445D01*
X127842996Y-54952448D01*
X127828116Y-55007981D01*
X127809945Y-55031662D01*
X127780351Y-55035558D01*
X127762868Y-55025464D01*
X127733127Y-54995723D01*
X127733120Y-54995717D01*
X127393968Y-54656565D01*
X127393964Y-54656559D01*
X127351771Y-54614367D01*
X127351768Y-54614365D01*
X127337722Y-54608547D01*
X127337722Y-54608546D01*
X127303807Y-54594499D01*
X127303806Y-54594499D01*
X127251890Y-54594499D01*
X127247353Y-54594499D01*
X127247345Y-54594500D01*
X126418057Y-54594500D01*
X126390480Y-54583077D01*
X126197544Y-54390141D01*
X126197540Y-54390135D01*
X126155347Y-54347943D01*
X126155344Y-54347941D01*
X126141298Y-54342123D01*
X126141298Y-54342122D01*
X126107383Y-54328075D01*
X126107382Y-54328075D01*
X126055466Y-54328075D01*
X126050929Y-54328075D01*
X126050921Y-54328076D01*
X124012618Y-54328076D01*
X123984522Y-54339712D01*
X123964654Y-54347942D01*
X123964651Y-54347944D01*
X123927942Y-54384654D01*
X123647161Y-54665436D01*
X123619584Y-54676859D01*
X123596755Y-54676859D01*
X123592754Y-54677772D01*
X123563327Y-54672770D01*
X123546056Y-54648427D01*
X123529760Y-54577029D01*
X123478387Y-54512609D01*
X123404151Y-54476859D01*
X123321755Y-54476859D01*
X123247518Y-54512609D01*
X123196146Y-54577028D01*
X123179593Y-54649549D01*
X123169148Y-54668447D01*
X122814654Y-55022942D01*
X122777942Y-55059653D01*
X122775924Y-55064527D01*
X122775923Y-55064529D01*
X122758075Y-55107618D01*
X122758075Y-55164070D01*
X122758076Y-55164079D01*
X122758076Y-55880427D01*
X122746653Y-55908004D01*
X122719076Y-55919427D01*
X122691499Y-55908004D01*
X122688585Y-55904743D01*
X122668224Y-55879212D01*
X122658612Y-55874583D01*
X122585763Y-55839500D01*
X122494237Y-55839500D01*
X122411776Y-55879212D01*
X122390163Y-55906314D01*
X122390134Y-55906350D01*
X122364009Y-55920788D01*
X122359643Y-55921033D01*
X121919950Y-55921033D01*
X121890984Y-55933031D01*
X121890983Y-55933031D01*
X121869013Y-55942130D01*
X121869006Y-55942135D01*
X121693914Y-56117227D01*
X121666337Y-56128650D01*
X121638760Y-56117227D01*
X121627337Y-56089650D01*
X121628313Y-56080981D01*
X121635142Y-56051065D01*
X121616807Y-55970735D01*
X121565434Y-55906315D01*
X121491198Y-55870565D01*
X121408802Y-55870565D01*
X121334566Y-55906314D01*
X121333941Y-55907099D01*
X121332776Y-55907742D01*
X121331132Y-55909054D01*
X121330909Y-55908774D01*
X121307815Y-55921537D01*
X121303450Y-55921782D01*
X119545373Y-55921782D01*
X119545365Y-55921781D01*
X119540828Y-55921781D01*
X119488912Y-55921781D01*
X119461751Y-55933032D01*
X119461749Y-55933033D01*
X119440950Y-55941647D01*
X119440945Y-55941650D01*
X118458131Y-56924465D01*
X117476078Y-57906518D01*
X117476077Y-57906519D01*
X117464403Y-57918193D01*
X117439367Y-57943228D01*
X117439366Y-57943229D01*
X117434852Y-57954131D01*
X117434851Y-57954133D01*
X117419499Y-57991194D01*
X117419499Y-58047646D01*
X117419500Y-58047655D01*
X117419500Y-64968264D01*
X117408077Y-64995841D01*
X117380500Y-65007264D01*
X117370406Y-65005935D01*
X117318332Y-64991982D01*
X117318330Y-64991982D01*
X117250779Y-65010082D01*
X117250776Y-65010084D01*
X117225775Y-65035086D01*
X117198198Y-65046509D01*
X117170621Y-65035086D01*
X117159198Y-65007509D01*
X117159198Y-63959201D01*
X117159199Y-63959192D01*
X117159199Y-63902740D01*
X117150041Y-63880633D01*
X117150040Y-63880631D01*
X117139331Y-63854776D01*
X117139331Y-63854775D01*
X117102621Y-63818065D01*
X117101264Y-63816708D01*
X117101253Y-63816698D01*
X117061923Y-63777368D01*
X117050500Y-63749791D01*
X117050500Y-58100207D01*
X117061922Y-58072631D01*
X118690169Y-56444383D01*
X118690182Y-56444374D01*
X118710233Y-56424323D01*
X118730633Y-56403923D01*
X118743189Y-56373609D01*
X118750501Y-56355958D01*
X118750501Y-56304042D01*
X118750501Y-56300905D01*
X118750500Y-56300891D01*
X118750500Y-55810209D01*
X118761923Y-55782632D01*
X118939056Y-55605499D01*
X118966633Y-55594076D01*
X121328344Y-55594076D01*
X121353864Y-55604646D01*
X121354085Y-55604370D01*
X121355046Y-55605136D01*
X121355921Y-55605499D01*
X121356964Y-55606666D01*
X121357518Y-55607108D01*
X121357519Y-55607109D01*
X121431755Y-55642859D01*
X121431757Y-55642859D01*
X121514149Y-55642859D01*
X121514151Y-55642859D01*
X121588387Y-55607109D01*
X121639760Y-55542689D01*
X121658095Y-55462359D01*
X121639760Y-55382029D01*
X121588387Y-55317609D01*
X121514151Y-55281859D01*
X121431755Y-55281859D01*
X121357519Y-55317608D01*
X121356894Y-55318393D01*
X121355729Y-55319036D01*
X121354085Y-55320348D01*
X121353862Y-55320068D01*
X121330768Y-55332831D01*
X121326403Y-55333076D01*
X121319779Y-55333076D01*
X121292202Y-55321653D01*
X121280779Y-55294076D01*
X121289287Y-55269761D01*
X121296805Y-55260332D01*
X121296807Y-55260330D01*
X121315142Y-55180000D01*
X121296807Y-55099670D01*
X121245434Y-55035250D01*
X121171198Y-54999500D01*
X121088802Y-54999500D01*
X121014565Y-55035250D01*
X120963193Y-55099669D01*
X120944858Y-55180000D01*
X120963193Y-55260330D01*
X120963194Y-55260332D01*
X120970713Y-55269761D01*
X120978976Y-55298444D01*
X120964536Y-55324568D01*
X120940221Y-55333076D01*
X120699905Y-55333076D01*
X120672328Y-55321653D01*
X120660905Y-55294076D01*
X120669414Y-55269760D01*
X120716805Y-55210333D01*
X120716805Y-55210332D01*
X120716807Y-55210330D01*
X120735142Y-55130000D01*
X120716807Y-55049670D01*
X120665434Y-54985250D01*
X120591198Y-54949500D01*
X120508802Y-54949500D01*
X120434565Y-54985250D01*
X120383193Y-55049669D01*
X120364858Y-55130000D01*
X120383193Y-55210330D01*
X120383194Y-55210333D01*
X120430586Y-55269760D01*
X120438850Y-55298443D01*
X120424411Y-55324567D01*
X120400095Y-55333076D01*
X119585634Y-55333076D01*
X119558057Y-55321653D01*
X119546634Y-55294076D01*
X119558057Y-55266499D01*
X119577001Y-55247554D01*
X119577003Y-55247552D01*
X119595104Y-55180000D01*
X119591327Y-55165906D01*
X119577003Y-55112448D01*
X119577001Y-55112445D01*
X119530209Y-55065653D01*
X119518786Y-55038076D01*
X119530209Y-55010499D01*
X119557786Y-54999076D01*
X119700921Y-54999076D01*
X119700929Y-54999077D01*
X119705466Y-54999077D01*
X119757381Y-54999077D01*
X119757382Y-54999077D01*
X119791298Y-54985028D01*
X119805347Y-54979209D01*
X119842057Y-54942499D01*
X119842057Y-54942498D01*
X119847538Y-54937018D01*
X119847542Y-54937011D01*
X120052632Y-54731923D01*
X120080209Y-54720500D01*
X121419181Y-54720500D01*
X121446758Y-54731923D01*
X122116263Y-55401428D01*
X122126707Y-55420325D01*
X122142541Y-55489695D01*
X122183976Y-55541653D01*
X122193084Y-55553075D01*
X122193914Y-55554115D01*
X122268150Y-55589865D01*
X122268152Y-55589865D01*
X122350544Y-55589865D01*
X122350546Y-55589865D01*
X122424782Y-55554115D01*
X122476155Y-55489695D01*
X122494490Y-55409365D01*
X122476155Y-55329035D01*
X122424782Y-55264615D01*
X122350546Y-55228865D01*
X122350545Y-55228865D01*
X122328963Y-55228865D01*
X122301386Y-55217442D01*
X121603237Y-54519293D01*
X121603229Y-54519283D01*
X121563314Y-54479368D01*
X121563313Y-54479367D01*
X121547489Y-54472813D01*
X121535215Y-54467729D01*
X121535214Y-54467728D01*
X121515349Y-54459499D01*
X121515348Y-54459499D01*
X121463432Y-54459499D01*
X121458895Y-54459499D01*
X121458887Y-54459500D01*
X120040503Y-54459500D01*
X120040495Y-54459499D01*
X120035958Y-54459499D01*
X119984042Y-54459499D01*
X119950125Y-54473547D01*
X119950123Y-54473547D01*
X119936076Y-54479367D01*
X119917722Y-54497722D01*
X119899367Y-54516077D01*
X119899366Y-54516078D01*
X119688792Y-54726653D01*
X119661215Y-54738076D01*
X119321927Y-54738076D01*
X119321919Y-54738075D01*
X119317382Y-54738075D01*
X119265466Y-54738075D01*
X119234366Y-54750957D01*
X119234365Y-54750958D01*
X119217502Y-54757942D01*
X119217499Y-54757944D01*
X119197521Y-54777923D01*
X119180791Y-54794653D01*
X119180790Y-54794654D01*
X119033371Y-54942074D01*
X118897368Y-55078077D01*
X118869791Y-55089500D01*
X118550503Y-55089500D01*
X118550495Y-55089499D01*
X118545958Y-55089499D01*
X118494042Y-55089499D01*
X118468025Y-55100276D01*
X118446076Y-55109367D01*
X118446076Y-55109368D01*
X117905578Y-55649866D01*
X117868868Y-55686574D01*
X117865900Y-55693742D01*
X117865899Y-55693741D01*
X117865899Y-55693744D01*
X117849000Y-55734541D01*
X117849000Y-55790993D01*
X117849001Y-55791002D01*
X117849001Y-56277441D01*
X117837578Y-56305018D01*
X115709367Y-58433229D01*
X115704802Y-58444250D01*
X115689499Y-58481194D01*
X115689499Y-58537646D01*
X115689500Y-58537655D01*
X115689500Y-59780891D01*
X115689499Y-59780905D01*
X115689499Y-59784042D01*
X115689499Y-59835958D01*
X115700225Y-59861852D01*
X115700472Y-59862448D01*
X115709367Y-59883923D01*
X115709368Y-59883924D01*
X115751559Y-59926116D01*
X115751565Y-59926120D01*
X116328077Y-60502632D01*
X116339500Y-60530209D01*
X116339500Y-63529790D01*
X116328077Y-63557367D01*
X116226077Y-63659367D01*
X116189367Y-63696075D01*
X116186399Y-63703243D01*
X116186398Y-63703242D01*
X116186398Y-63703245D01*
X116169499Y-63744042D01*
X116169499Y-63800494D01*
X116169500Y-63800503D01*
X116169500Y-65490891D01*
X116169499Y-65490905D01*
X116169499Y-65545959D01*
X116178348Y-65567319D01*
X116178349Y-65567322D01*
X116189366Y-65593921D01*
X116189368Y-65593924D01*
X116231559Y-65636116D01*
X116231565Y-65636120D01*
X116614856Y-66019410D01*
X116626279Y-66046987D01*
X116626279Y-66466149D01*
X116614856Y-66493726D01*
X116587279Y-66505149D01*
X116559702Y-66493726D01*
X115981923Y-65915947D01*
X115970500Y-65888370D01*
X115970500Y-65714151D01*
X115957595Y-65682996D01*
X115935409Y-65629432D01*
X115935408Y-65629431D01*
X115933274Y-65626237D01*
X115934137Y-65625659D01*
X115924483Y-65602352D01*
X115935906Y-65574775D01*
X115953387Y-65564682D01*
X115981868Y-65557051D01*
X116031319Y-65507600D01*
X116049420Y-65440048D01*
X116046339Y-65428551D01*
X116031319Y-65372496D01*
X116031317Y-65372493D01*
X115981870Y-65323046D01*
X115981867Y-65323044D01*
X115914317Y-65304944D01*
X115914315Y-65304944D01*
X115846764Y-65323044D01*
X115846761Y-65323046D01*
X115797314Y-65372493D01*
X115797312Y-65372496D01*
X115789681Y-65400975D01*
X115771509Y-65424656D01*
X115741915Y-65428551D01*
X115724433Y-65418457D01*
X115281923Y-64975947D01*
X115270500Y-64948370D01*
X115270500Y-63300000D01*
X115514858Y-63300000D01*
X115533193Y-63380330D01*
X115584566Y-63444750D01*
X115658802Y-63480500D01*
X115658804Y-63480500D01*
X115741196Y-63480500D01*
X115741198Y-63480500D01*
X115815434Y-63444750D01*
X115866807Y-63380330D01*
X115885142Y-63300000D01*
X115866807Y-63219670D01*
X115815434Y-63155250D01*
X115741198Y-63119500D01*
X115658802Y-63119500D01*
X115584565Y-63155250D01*
X115533193Y-63219669D01*
X115533193Y-63219670D01*
X115514858Y-63300000D01*
X115270500Y-63300000D01*
X115270500Y-62252959D01*
X115281922Y-62225383D01*
X115843722Y-61663582D01*
X115849622Y-61658740D01*
X115865681Y-61648011D01*
X115876407Y-61631956D01*
X115881248Y-61626057D01*
X115894908Y-61612398D01*
X115902299Y-61594552D01*
X115905898Y-61587820D01*
X115916626Y-61571767D01*
X115920392Y-61552829D01*
X115922609Y-61545522D01*
X115930001Y-61527679D01*
X115930001Y-61508370D01*
X115930750Y-61500762D01*
X115930893Y-61500040D01*
X115934516Y-61481830D01*
X115930750Y-61462896D01*
X115930001Y-61455288D01*
X115930001Y-61435980D01*
X115922612Y-61418142D01*
X115920393Y-61410827D01*
X115916626Y-61391892D01*
X115905899Y-61375838D01*
X115902295Y-61369096D01*
X115894908Y-61351262D01*
X115881255Y-61337609D01*
X115876410Y-61331706D01*
X115865681Y-61315649D01*
X115849626Y-61304921D01*
X115843717Y-61300071D01*
X115830069Y-61286423D01*
X115830068Y-61286422D01*
X115830065Y-61286421D01*
X115830064Y-61286420D01*
X115812226Y-61279030D01*
X115805486Y-61275427D01*
X115789439Y-61264705D01*
X115789433Y-61264702D01*
X115770504Y-61260937D01*
X115763191Y-61258719D01*
X115745350Y-61251329D01*
X115726041Y-61251329D01*
X115718433Y-61250580D01*
X115699500Y-61246814D01*
X115680567Y-61250580D01*
X115672959Y-61251329D01*
X115653651Y-61251329D01*
X115648261Y-61253561D01*
X115635804Y-61258720D01*
X115628494Y-61260937D01*
X115609564Y-61264703D01*
X115609560Y-61264705D01*
X115593510Y-61275429D01*
X115586771Y-61279031D01*
X115568933Y-61286420D01*
X115568928Y-61286423D01*
X115555280Y-61300072D01*
X115549373Y-61304920D01*
X115533318Y-61315648D01*
X115522590Y-61331703D01*
X115517741Y-61337611D01*
X114909433Y-61945920D01*
X114844592Y-62010761D01*
X114844591Y-62010761D01*
X114836497Y-62030303D01*
X114809499Y-62095480D01*
X114809499Y-62191716D01*
X114809500Y-62191725D01*
X114809500Y-65010999D01*
X114809499Y-65011013D01*
X114809499Y-65014150D01*
X114809499Y-65105850D01*
X114809499Y-65105852D01*
X114809500Y-65105853D01*
X114825268Y-65143920D01*
X114825270Y-65143922D01*
X114844591Y-65190568D01*
X114844592Y-65190569D01*
X114914914Y-65260892D01*
X114914920Y-65260896D01*
X115498077Y-65844053D01*
X115509500Y-65871630D01*
X115509500Y-65950999D01*
X115509499Y-65951013D01*
X115509499Y-65954150D01*
X115509499Y-66045850D01*
X115509499Y-66045852D01*
X115509500Y-66045853D01*
X115526903Y-66087866D01*
X115526904Y-66087868D01*
X115526905Y-66087869D01*
X115527845Y-66090138D01*
X115544590Y-66130566D01*
X115544592Y-66130569D01*
X115614914Y-66200892D01*
X115614920Y-66200896D01*
X116686475Y-67272451D01*
X116697898Y-67300028D01*
X116686475Y-67327605D01*
X116658898Y-67339028D01*
X116655288Y-67339028D01*
X116587737Y-67357128D01*
X116587734Y-67357130D01*
X116538287Y-67406577D01*
X116538285Y-67406580D01*
X116520185Y-67474131D01*
X116520185Y-67474132D01*
X116538285Y-67541683D01*
X116538287Y-67541686D01*
X116587734Y-67591133D01*
X116587737Y-67591135D01*
X116655288Y-67609236D01*
X116655289Y-67609236D01*
X116655290Y-67609236D01*
X116689065Y-67600185D01*
X116722841Y-67591135D01*
X116772292Y-67541684D01*
X116790393Y-67474132D01*
X116784464Y-67452006D01*
X116788359Y-67422415D01*
X116812040Y-67404243D01*
X116837053Y-67405880D01*
X116840058Y-67407124D01*
X116840060Y-67407124D01*
X116840063Y-67407126D01*
X116858998Y-67410892D01*
X116866311Y-67413110D01*
X116884150Y-67420500D01*
X116903454Y-67420500D01*
X116911062Y-67421249D01*
X116930000Y-67425016D01*
X116948938Y-67421249D01*
X116956546Y-67420500D01*
X116975846Y-67420500D01*
X116975849Y-67420500D01*
X116993696Y-67413107D01*
X117000990Y-67410894D01*
X117019937Y-67407126D01*
X117035988Y-67396399D01*
X117042731Y-67392795D01*
X117060568Y-67385408D01*
X117074222Y-67371752D01*
X117080126Y-67366907D01*
X117096181Y-67356181D01*
X117106907Y-67340126D01*
X117111752Y-67334222D01*
X117125408Y-67320568D01*
X117132795Y-67302731D01*
X117136401Y-67295986D01*
X117144358Y-67284079D01*
X117147126Y-67279937D01*
X117150894Y-67260990D01*
X117153107Y-67253696D01*
X117160500Y-67235849D01*
X117160500Y-67216545D01*
X117161249Y-67208937D01*
X117161389Y-67208228D01*
X117165016Y-67190000D01*
X117163579Y-67182780D01*
X117162452Y-67177107D01*
X117168277Y-67147831D01*
X117193096Y-67131249D01*
X117200703Y-67130500D01*
X117429791Y-67130500D01*
X117457368Y-67141923D01*
X118874277Y-68558832D01*
X118885700Y-68586409D01*
X118885700Y-69903162D01*
X118874277Y-69930739D01*
X118694316Y-70110700D01*
X118666739Y-70122123D01*
X118645750Y-70122123D01*
X118571513Y-70157873D01*
X118520141Y-70222292D01*
X118511073Y-70262020D01*
X118493800Y-70286364D01*
X118464372Y-70291363D01*
X118445474Y-70280918D01*
X118417554Y-70252998D01*
X118417551Y-70252996D01*
X118350001Y-70234896D01*
X118349999Y-70234896D01*
X118282448Y-70252996D01*
X118282445Y-70252998D01*
X118232998Y-70302445D01*
X118232996Y-70302448D01*
X118214896Y-70369999D01*
X118214896Y-70370000D01*
X118232996Y-70437551D01*
X118232998Y-70437554D01*
X118282445Y-70487001D01*
X118282448Y-70487003D01*
X118349999Y-70505104D01*
X118350000Y-70505104D01*
X118350001Y-70505104D01*
X118383776Y-70496053D01*
X118417552Y-70487003D01*
X118467003Y-70437552D01*
X118471322Y-70421432D01*
X118489492Y-70397751D01*
X118519086Y-70393855D01*
X118539484Y-70407210D01*
X118571512Y-70447372D01*
X118571513Y-70447372D01*
X118571514Y-70447373D01*
X118645750Y-70483123D01*
X118645752Y-70483123D01*
X118728144Y-70483123D01*
X118728146Y-70483123D01*
X118802382Y-70447373D01*
X118853755Y-70382953D01*
X118869764Y-70312812D01*
X118880206Y-70293918D01*
X119084635Y-70089489D01*
X119084642Y-70089485D01*
X119090123Y-70084004D01*
X119126833Y-70047294D01*
X119132652Y-70033245D01*
X119146701Y-69999329D01*
X119146701Y-69947413D01*
X119146701Y-69944276D01*
X119146700Y-69944262D01*
X119146700Y-68546703D01*
X119146701Y-68546694D01*
X119146701Y-68490242D01*
X119130975Y-68452277D01*
X119130974Y-68452275D01*
X119126834Y-68442280D01*
X119126833Y-68442277D01*
X119090123Y-68405567D01*
X119087903Y-68403347D01*
X119087896Y-68403341D01*
X117643653Y-66959098D01*
X117632230Y-66931521D01*
X117643653Y-66903944D01*
X117671230Y-66892521D01*
X117791812Y-66892521D01*
X117819389Y-66903944D01*
X120266630Y-69351184D01*
X120278053Y-69378761D01*
X120278053Y-71589631D01*
X120269545Y-71613946D01*
X120241746Y-71648805D01*
X120241746Y-71648806D01*
X120223411Y-71729136D01*
X120241746Y-71809466D01*
X120283756Y-71862145D01*
X120292019Y-71890828D01*
X120277580Y-71916953D01*
X120248897Y-71925216D01*
X120240363Y-71923265D01*
X120071239Y-71863981D01*
X120068906Y-71863079D01*
X119510075Y-71625954D01*
X119507805Y-71624903D01*
X118965212Y-71352387D01*
X118963279Y-71351347D01*
X118717399Y-71209999D01*
X119454896Y-71209999D01*
X119454896Y-71210000D01*
X119472996Y-71277551D01*
X119472998Y-71277554D01*
X119522445Y-71327001D01*
X119522448Y-71327003D01*
X119589999Y-71345104D01*
X119590000Y-71345104D01*
X119590001Y-71345104D01*
X119623776Y-71336053D01*
X119657552Y-71327003D01*
X119707003Y-71277552D01*
X119725104Y-71210000D01*
X119722627Y-71200757D01*
X119707003Y-71142448D01*
X119707001Y-71142445D01*
X119657554Y-71092998D01*
X119657551Y-71092996D01*
X119590001Y-71074896D01*
X119589999Y-71074896D01*
X119522448Y-71092996D01*
X119522445Y-71092998D01*
X119472998Y-71142445D01*
X119472996Y-71142448D01*
X119454896Y-71209999D01*
X118717399Y-71209999D01*
X118700470Y-71200267D01*
X118699413Y-71199637D01*
X118607019Y-71142571D01*
X118607018Y-71142570D01*
X118607014Y-71142568D01*
X118405550Y-71057896D01*
X118405548Y-71057895D01*
X118405547Y-71057895D01*
X118330448Y-71041016D01*
X118306047Y-71023824D01*
X118300000Y-71002965D01*
X118300000Y-71000000D01*
X118299999Y-70999998D01*
X116848697Y-69548696D01*
X116837274Y-69521119D01*
X116845974Y-69500116D01*
X117595396Y-69500116D01*
X117595396Y-69500117D01*
X117613496Y-69567668D01*
X117613498Y-69567671D01*
X117662945Y-69617118D01*
X117662948Y-69617120D01*
X117730499Y-69635221D01*
X117730500Y-69635221D01*
X117730501Y-69635221D01*
X117768256Y-69625104D01*
X117798052Y-69617120D01*
X117847503Y-69567669D01*
X117865604Y-69500117D01*
X117862893Y-69489999D01*
X118094896Y-69489999D01*
X118094896Y-69490000D01*
X118112996Y-69557551D01*
X118112998Y-69557554D01*
X118162445Y-69607001D01*
X118162448Y-69607003D01*
X118229999Y-69625104D01*
X118230000Y-69625104D01*
X118230001Y-69625104D01*
X118263776Y-69616053D01*
X118297552Y-69607003D01*
X118347003Y-69557552D01*
X118365104Y-69490000D01*
X118363348Y-69483448D01*
X118347003Y-69422448D01*
X118347001Y-69422445D01*
X118297554Y-69372998D01*
X118297551Y-69372996D01*
X118230001Y-69354896D01*
X118229999Y-69354896D01*
X118162448Y-69372996D01*
X118162445Y-69372998D01*
X118112998Y-69422445D01*
X118112996Y-69422448D01*
X118094896Y-69489999D01*
X117862893Y-69489999D01*
X117861137Y-69483448D01*
X117847503Y-69432565D01*
X117847501Y-69432562D01*
X117798054Y-69383115D01*
X117798051Y-69383113D01*
X117730501Y-69365013D01*
X117730499Y-69365013D01*
X117662948Y-69383113D01*
X117662945Y-69383115D01*
X117613498Y-69432562D01*
X117613496Y-69432565D01*
X117595396Y-69500116D01*
X116845974Y-69500116D01*
X116848697Y-69493542D01*
X116866180Y-69483448D01*
X116878525Y-69480140D01*
X116927552Y-69467003D01*
X116977003Y-69417552D01*
X116995104Y-69350000D01*
X116992171Y-69339056D01*
X116977003Y-69282448D01*
X116977001Y-69282445D01*
X116927554Y-69232998D01*
X116927551Y-69232996D01*
X116860001Y-69214896D01*
X116859999Y-69214896D01*
X116792448Y-69232996D01*
X116792445Y-69232998D01*
X116742998Y-69282445D01*
X116742997Y-69282448D01*
X116726551Y-69343820D01*
X116708379Y-69367500D01*
X116678785Y-69371396D01*
X116661303Y-69361302D01*
X115780000Y-68479999D01*
X116865396Y-68479999D01*
X116865396Y-68480000D01*
X116883496Y-68547551D01*
X116883498Y-68547554D01*
X116932945Y-68597001D01*
X116932948Y-68597003D01*
X117000499Y-68615104D01*
X117000500Y-68615104D01*
X117000501Y-68615104D01*
X117056408Y-68600123D01*
X117068052Y-68597003D01*
X117117503Y-68547552D01*
X117135604Y-68480000D01*
X117128175Y-68452277D01*
X117117503Y-68412448D01*
X117117501Y-68412445D01*
X117068054Y-68362998D01*
X117068051Y-68362996D01*
X117000501Y-68344896D01*
X117000499Y-68344896D01*
X116932948Y-68362996D01*
X116932945Y-68362998D01*
X116883498Y-68412445D01*
X116883496Y-68412448D01*
X116865396Y-68479999D01*
X115780000Y-68479999D01*
X115600001Y-68300000D01*
X115600000Y-68300000D01*
X115506607Y-68300000D01*
X115479030Y-68288577D01*
X115468350Y-68268577D01*
X115463823Y-68245719D01*
X115434267Y-68096487D01*
X115354927Y-67893920D01*
X115300056Y-67800098D01*
X115299920Y-67799862D01*
X115213482Y-67649500D01*
X115148646Y-67536714D01*
X115147610Y-67534789D01*
X115134933Y-67509548D01*
X114903997Y-67049744D01*
X115966203Y-67049744D01*
X115966203Y-67049745D01*
X115984303Y-67117296D01*
X115984305Y-67117299D01*
X116033752Y-67166746D01*
X116033755Y-67166748D01*
X116101306Y-67184849D01*
X116101307Y-67184849D01*
X116101308Y-67184849D01*
X116135083Y-67175798D01*
X116168859Y-67166748D01*
X116218310Y-67117297D01*
X116236411Y-67049745D01*
X116233142Y-67037547D01*
X116218310Y-66982193D01*
X116218308Y-66982190D01*
X116168861Y-66932743D01*
X116168858Y-66932741D01*
X116101308Y-66914641D01*
X116101306Y-66914641D01*
X116033755Y-66932741D01*
X116033752Y-66932743D01*
X115984305Y-66982190D01*
X115984303Y-66982193D01*
X115966203Y-67049744D01*
X114903997Y-67049744D01*
X114875087Y-66992182D01*
X114874049Y-66989940D01*
X114800386Y-66816338D01*
X115657034Y-66816338D01*
X115657034Y-66816339D01*
X115675134Y-66883890D01*
X115675136Y-66883893D01*
X115724583Y-66933340D01*
X115724586Y-66933342D01*
X115792137Y-66951443D01*
X115792138Y-66951443D01*
X115792139Y-66951443D01*
X115825914Y-66942392D01*
X115859690Y-66933342D01*
X115909141Y-66883891D01*
X115927242Y-66816339D01*
X115923631Y-66802864D01*
X115909141Y-66748787D01*
X115909139Y-66748784D01*
X115859692Y-66699337D01*
X115859689Y-66699335D01*
X115792139Y-66681235D01*
X115792137Y-66681235D01*
X115724586Y-66699335D01*
X115724583Y-66699337D01*
X115675136Y-66748784D01*
X115675134Y-66748787D01*
X115657034Y-66816338D01*
X114800386Y-66816338D01*
X114636916Y-66431090D01*
X114636016Y-66428762D01*
X114573787Y-66251237D01*
X114435213Y-65855916D01*
X114434463Y-65853537D01*
X114431807Y-65844053D01*
X114305460Y-65392809D01*
X114270780Y-65268952D01*
X114270184Y-65266522D01*
X114244198Y-65143920D01*
X114144316Y-64672668D01*
X114143885Y-64670258D01*
X114056338Y-64069530D01*
X114056058Y-64067049D01*
X114053820Y-64039326D01*
X114007202Y-63461973D01*
X114007081Y-63459513D01*
X113997111Y-62852509D01*
X113997149Y-62850045D01*
X114026110Y-62243646D01*
X114026307Y-62241198D01*
X114094078Y-61637911D01*
X114094430Y-61635486D01*
X114170104Y-61209999D01*
X114814896Y-61209999D01*
X114814896Y-61210000D01*
X114832996Y-61277551D01*
X114832998Y-61277554D01*
X114882445Y-61327001D01*
X114882448Y-61327003D01*
X114949999Y-61345104D01*
X114950000Y-61345104D01*
X114950001Y-61345104D01*
X114988103Y-61334894D01*
X115017552Y-61327003D01*
X115067003Y-61277552D01*
X115085104Y-61210000D01*
X115077283Y-61180814D01*
X115067003Y-61142448D01*
X115067001Y-61142445D01*
X115017554Y-61092998D01*
X115017551Y-61092996D01*
X114950001Y-61074896D01*
X114949999Y-61074896D01*
X114882448Y-61092996D01*
X114882445Y-61092998D01*
X114832998Y-61142445D01*
X114832996Y-61142448D01*
X114814896Y-61209999D01*
X114170104Y-61209999D01*
X114200729Y-61037805D01*
X114201244Y-61035367D01*
X114218255Y-60965905D01*
X114345637Y-60445731D01*
X114346309Y-60443327D01*
X114362038Y-60393245D01*
X114528200Y-59864166D01*
X114529008Y-59861852D01*
X114747674Y-59295482D01*
X114748625Y-59293237D01*
X114830451Y-59116036D01*
X114852383Y-59095789D01*
X114882208Y-59096980D01*
X114902456Y-59118912D01*
X114903676Y-59125761D01*
X114903880Y-59125715D01*
X114904858Y-59129999D01*
X114904858Y-59130000D01*
X114910599Y-59155151D01*
X114923193Y-59210330D01*
X114958545Y-59254661D01*
X114974566Y-59274750D01*
X115048802Y-59310500D01*
X115048804Y-59310500D01*
X115131196Y-59310500D01*
X115131198Y-59310500D01*
X115205434Y-59274750D01*
X115256807Y-59210330D01*
X115275142Y-59130000D01*
X115256807Y-59049670D01*
X115205434Y-58985250D01*
X115131198Y-58949500D01*
X115048802Y-58949500D01*
X114974563Y-58985251D01*
X114971129Y-58987990D01*
X114969786Y-58986306D01*
X114950667Y-58996846D01*
X114921994Y-58988550D01*
X114907584Y-58962409D01*
X114910936Y-58941738D01*
X115003127Y-58742091D01*
X115004244Y-58739864D01*
X115005656Y-58737260D01*
X115293537Y-58206191D01*
X115294779Y-58204063D01*
X115617721Y-57689979D01*
X115619092Y-57687945D01*
X115974313Y-57195630D01*
X115975811Y-57193690D01*
X116361859Y-56725161D01*
X116363472Y-56723327D01*
X116778761Y-56280506D01*
X116780506Y-56278761D01*
X117223327Y-55863472D01*
X117225161Y-55861859D01*
X117693690Y-55475811D01*
X117695630Y-55474313D01*
X118187945Y-55119092D01*
X118189979Y-55117721D01*
X118704063Y-54794779D01*
X118706191Y-54793537D01*
X119239873Y-54504239D01*
X119242091Y-54503127D01*
X119782615Y-54253530D01*
X122154024Y-54253530D01*
X122172359Y-54333860D01*
X122217236Y-54390135D01*
X122223732Y-54398280D01*
X122297968Y-54434030D01*
X122297970Y-54434030D01*
X122380362Y-54434030D01*
X122380364Y-54434030D01*
X122454600Y-54398280D01*
X122505973Y-54333860D01*
X122524308Y-54253530D01*
X122505973Y-54173200D01*
X122454600Y-54108780D01*
X122380364Y-54073030D01*
X122297968Y-54073030D01*
X122223731Y-54108780D01*
X122172359Y-54173199D01*
X122154024Y-54253530D01*
X119782615Y-54253530D01*
X119793237Y-54248625D01*
X119795482Y-54247674D01*
X120361852Y-54029008D01*
X120364166Y-54028200D01*
X120943333Y-53846307D01*
X120945731Y-53845637D01*
X121535376Y-53701241D01*
X121537805Y-53700729D01*
X122135486Y-53594430D01*
X122137911Y-53594078D01*
X122741198Y-53526307D01*
X122743646Y-53526110D01*
X123350045Y-53497149D01*
X123352509Y-53497111D01*
X123959513Y-53507081D01*
G37*
%TD.AperFunction*%
%TA.AperFunction,Conductor*%
G36*
X130805053Y-59879608D02*
G01*
X131618077Y-60692632D01*
X131629500Y-60720209D01*
X131629500Y-61940891D01*
X131629499Y-61940905D01*
X131629499Y-61944042D01*
X131629499Y-61995958D01*
X131638662Y-62018079D01*
X131642457Y-62027240D01*
X131642457Y-62027242D01*
X131642458Y-62027242D01*
X131649366Y-62043921D01*
X131649368Y-62043924D01*
X131691559Y-62086116D01*
X131691565Y-62086120D01*
X131830666Y-62225221D01*
X131842089Y-62252798D01*
X131842089Y-65466698D01*
X131833581Y-65491013D01*
X131805782Y-65525872D01*
X131805782Y-65525873D01*
X131787447Y-65606203D01*
X131805782Y-65686533D01*
X131827806Y-65714151D01*
X131857155Y-65750953D01*
X131931391Y-65786703D01*
X131931393Y-65786703D01*
X131972566Y-65786703D01*
X132000143Y-65798126D01*
X132011566Y-65825703D01*
X132010241Y-65835781D01*
X131954204Y-66045259D01*
X131954089Y-66045682D01*
X131777363Y-66677814D01*
X131758937Y-66701297D01*
X131729302Y-66704873D01*
X131722882Y-66702451D01*
X131698501Y-66690710D01*
X131669085Y-66676544D01*
X131586689Y-66676544D01*
X131586687Y-66676544D01*
X131586417Y-66676675D01*
X131586019Y-66676697D01*
X131582407Y-66677522D01*
X131582266Y-66676907D01*
X131556615Y-66678345D01*
X131534360Y-66658452D01*
X131530500Y-66641535D01*
X131530500Y-62240503D01*
X131530501Y-62240494D01*
X131530501Y-62184043D01*
X131523774Y-62167803D01*
X131518926Y-62156099D01*
X131510633Y-62136077D01*
X131473923Y-62099367D01*
X131471703Y-62097147D01*
X131471696Y-62097141D01*
X131371923Y-61997368D01*
X131360500Y-61969791D01*
X131360500Y-60886255D01*
X131360501Y-60886246D01*
X131360501Y-60829794D01*
X131345470Y-60793508D01*
X131345469Y-60793506D01*
X131340633Y-60781829D01*
X131340630Y-60781825D01*
X131301703Y-60742899D01*
X131301696Y-60742893D01*
X130599865Y-60041062D01*
X130588442Y-60013485D01*
X130599865Y-59985908D01*
X130617348Y-59975814D01*
X130619998Y-59975103D01*
X130620000Y-59975104D01*
X130687552Y-59957003D01*
X130737003Y-59907552D01*
X130739806Y-59897089D01*
X130757974Y-59873411D01*
X130787568Y-59869513D01*
X130805053Y-59879608D01*
G37*
%TD.AperFunction*%
%TA.AperFunction,Conductor*%
G36*
X119324791Y-57565499D02*
G01*
X119336214Y-57593076D01*
X119324791Y-57620653D01*
X118399368Y-58546075D01*
X118399365Y-58546080D01*
X118394637Y-58557497D01*
X118394636Y-58557499D01*
X118379499Y-58594042D01*
X118379499Y-58650494D01*
X118379500Y-58650503D01*
X118379500Y-59080891D01*
X118379499Y-59080905D01*
X118379499Y-59084042D01*
X118379499Y-59135958D01*
X118392549Y-59167463D01*
X118399367Y-59183923D01*
X118399368Y-59183924D01*
X118441559Y-59226116D01*
X118441565Y-59226120D01*
X118488300Y-59272855D01*
X118499723Y-59300432D01*
X118488300Y-59328009D01*
X118460723Y-59339432D01*
X118443803Y-59335570D01*
X118431198Y-59329500D01*
X118348802Y-59329500D01*
X118274565Y-59365250D01*
X118223193Y-59429669D01*
X118204858Y-59510000D01*
X118223193Y-59590330D01*
X118265995Y-59644003D01*
X118274566Y-59654750D01*
X118348802Y-59690500D01*
X118348804Y-59690500D01*
X118431196Y-59690500D01*
X118431198Y-59690500D01*
X118505434Y-59654750D01*
X118556807Y-59590330D01*
X118575142Y-59510000D01*
X118560813Y-59447221D01*
X118565813Y-59417795D01*
X118590156Y-59400522D01*
X118619584Y-59405522D01*
X118626412Y-59410967D01*
X118658077Y-59442632D01*
X118669500Y-59470209D01*
X118669500Y-59729791D01*
X118658077Y-59757368D01*
X118578303Y-59837141D01*
X118578300Y-59837144D01*
X118539367Y-59876075D01*
X118536399Y-59883243D01*
X118536398Y-59883242D01*
X118536398Y-59883245D01*
X118519499Y-59924042D01*
X118519499Y-59980494D01*
X118519500Y-59980503D01*
X118519500Y-63950891D01*
X118519499Y-63950905D01*
X118519499Y-63954042D01*
X118519499Y-64005958D01*
X118533323Y-64039330D01*
X118539367Y-64053924D01*
X118581559Y-64096116D01*
X118581565Y-64096120D01*
X119176738Y-64691293D01*
X119187183Y-64710191D01*
X119201547Y-64773118D01*
X119196548Y-64802546D01*
X119172204Y-64819819D01*
X119163525Y-64820797D01*
X118843562Y-64820797D01*
X118815985Y-64809374D01*
X118804562Y-64781797D01*
X118805891Y-64771703D01*
X118825104Y-64700000D01*
X118825104Y-64699999D01*
X118807003Y-64632448D01*
X118807001Y-64632445D01*
X118757554Y-64582998D01*
X118757551Y-64582996D01*
X118690001Y-64564896D01*
X118689999Y-64564896D01*
X118622448Y-64582996D01*
X118622445Y-64582998D01*
X118572998Y-64632445D01*
X118572996Y-64632448D01*
X118554896Y-64699999D01*
X118554896Y-64700000D01*
X118574109Y-64771703D01*
X118570213Y-64801297D01*
X118546532Y-64819468D01*
X118536438Y-64820797D01*
X118352771Y-64820797D01*
X118324196Y-64832633D01*
X118324196Y-64832634D01*
X118295621Y-64844469D01*
X118295618Y-64844471D01*
X117738791Y-65401296D01*
X117711214Y-65412719D01*
X117683637Y-65401296D01*
X117672214Y-65373719D01*
X117675183Y-65358795D01*
X117680501Y-65345958D01*
X117680501Y-65294042D01*
X117680501Y-65290905D01*
X117680500Y-65290891D01*
X117680500Y-59733909D01*
X117691923Y-59706332D01*
X117719500Y-59694909D01*
X117729594Y-59696238D01*
X117732447Y-59697002D01*
X117732448Y-59697003D01*
X117761904Y-59704896D01*
X117799999Y-59715104D01*
X117800000Y-59715104D01*
X117800001Y-59715104D01*
X117838096Y-59704896D01*
X117867552Y-59697003D01*
X117917003Y-59647552D01*
X117935104Y-59580000D01*
X117934279Y-59576923D01*
X117917003Y-59512448D01*
X117917001Y-59512445D01*
X117867554Y-59462998D01*
X117867551Y-59462996D01*
X117800001Y-59444896D01*
X117799999Y-59444896D01*
X117729594Y-59463761D01*
X117700000Y-59459865D01*
X117681829Y-59436184D01*
X117680500Y-59426090D01*
X117680500Y-58405711D01*
X117691923Y-58378134D01*
X117719500Y-58366711D01*
X117747077Y-58378134D01*
X117749989Y-58381391D01*
X117769383Y-58405711D01*
X117776901Y-58415139D01*
X117784566Y-58424750D01*
X117858802Y-58460500D01*
X117858804Y-58460500D01*
X117910790Y-58460500D01*
X117938367Y-58471923D01*
X117949790Y-58499500D01*
X117938367Y-58527077D01*
X117876077Y-58589367D01*
X117839366Y-58626076D01*
X117837700Y-58630100D01*
X117837700Y-58630102D01*
X117830137Y-58648358D01*
X117824598Y-58657746D01*
X117783194Y-58709668D01*
X117783193Y-58709670D01*
X117764858Y-58790000D01*
X117783193Y-58870330D01*
X117830429Y-58929563D01*
X117834566Y-58934750D01*
X117908802Y-58970500D01*
X117908804Y-58970500D01*
X117991196Y-58970500D01*
X117991198Y-58970500D01*
X118065434Y-58934750D01*
X118116807Y-58870330D01*
X118135142Y-58790000D01*
X118123104Y-58737259D01*
X118128104Y-58707832D01*
X118133545Y-58701008D01*
X119269055Y-57565499D01*
X119296632Y-57554076D01*
X119297214Y-57554076D01*
X119324791Y-57565499D01*
G37*
%TD.AperFunction*%
%TA.AperFunction,Conductor*%
G36*
X119024739Y-58987855D02*
G01*
X119039178Y-59013980D01*
X119039423Y-59018347D01*
X119039423Y-61180814D01*
X119039422Y-61180828D01*
X119039422Y-61183965D01*
X119039422Y-61235881D01*
X119049261Y-61259634D01*
X119059290Y-61283846D01*
X119059291Y-61283847D01*
X119101482Y-61326039D01*
X119101488Y-61326043D01*
X122361442Y-64585997D01*
X122372865Y-64613574D01*
X122361442Y-64641151D01*
X122333865Y-64652574D01*
X122331295Y-64652321D01*
X122328752Y-64652321D01*
X119635891Y-64652321D01*
X119612217Y-64662127D01*
X119594841Y-64669323D01*
X119564992Y-64669323D01*
X119543886Y-64648216D01*
X119541896Y-64641969D01*
X119541709Y-64641151D01*
X119536807Y-64619670D01*
X119485434Y-64555250D01*
X119411198Y-64519500D01*
X119411197Y-64519500D01*
X119390209Y-64519500D01*
X119362632Y-64508077D01*
X118791923Y-63937368D01*
X118780500Y-63909791D01*
X118780500Y-62124643D01*
X118791923Y-62097066D01*
X118819500Y-62085643D01*
X118840529Y-62093001D01*
X118840606Y-62092843D01*
X118842012Y-62093520D01*
X118843815Y-62094151D01*
X118844563Y-62094747D01*
X118844566Y-62094750D01*
X118848080Y-62096442D01*
X118858737Y-62104003D01*
X118894960Y-62140226D01*
X118906383Y-62167803D01*
X118906383Y-62665268D01*
X118905405Y-62673946D01*
X118901741Y-62689999D01*
X118901741Y-62690000D01*
X118905405Y-62706052D01*
X118906383Y-62714731D01*
X118906383Y-62725904D01*
X118913036Y-62741967D01*
X118915027Y-62748211D01*
X118920076Y-62770330D01*
X118926439Y-62778308D01*
X118926443Y-62778313D01*
X118931980Y-62787699D01*
X118933863Y-62792245D01*
X118933864Y-62792246D01*
X118950532Y-62808914D01*
X118953447Y-62812176D01*
X118971446Y-62834748D01*
X118971448Y-62834749D01*
X118971449Y-62834750D01*
X118974968Y-62836444D01*
X118981373Y-62840989D01*
X118981443Y-62840885D01*
X118984635Y-62843017D01*
X118984638Y-62843020D01*
X119012145Y-62854413D01*
X119014076Y-62855277D01*
X119045685Y-62870500D01*
X119045686Y-62870500D01*
X119128080Y-62870500D01*
X119128081Y-62870500D01*
X119159684Y-62855279D01*
X119161619Y-62854413D01*
X119189128Y-62843020D01*
X119189133Y-62843014D01*
X119192324Y-62840884D01*
X119192394Y-62840989D01*
X119198799Y-62836443D01*
X119202317Y-62834750D01*
X119220328Y-62812163D01*
X119223216Y-62808930D01*
X119239903Y-62792245D01*
X119241783Y-62787703D01*
X119247323Y-62778311D01*
X119253690Y-62770330D01*
X119258740Y-62748201D01*
X119260725Y-62741975D01*
X119267383Y-62725904D01*
X119267383Y-62714731D01*
X119268361Y-62706052D01*
X119272025Y-62690000D01*
X119272025Y-62689999D01*
X119268361Y-62673946D01*
X119267383Y-62665268D01*
X119267383Y-62040979D01*
X119260972Y-62025503D01*
X119256225Y-62014042D01*
X119239904Y-61974638D01*
X119096350Y-61831084D01*
X119093436Y-61827823D01*
X119075435Y-61805251D01*
X119075431Y-61805247D01*
X119071916Y-61803555D01*
X119065509Y-61799009D01*
X119065440Y-61799114D01*
X119062245Y-61796979D01*
X119049338Y-61791633D01*
X119034759Y-61785594D01*
X119032774Y-61784706D01*
X119013358Y-61775356D01*
X119001198Y-61769500D01*
X118918802Y-61769500D01*
X118918799Y-61769500D01*
X118887230Y-61784703D01*
X118885234Y-61785596D01*
X118857757Y-61796977D01*
X118854561Y-61799113D01*
X118854492Y-61799010D01*
X118848091Y-61803551D01*
X118844565Y-61805249D01*
X118843813Y-61805850D01*
X118842588Y-61806202D01*
X118840614Y-61807154D01*
X118840452Y-61806817D01*
X118815130Y-61814110D01*
X118789006Y-61799669D01*
X118780500Y-61775356D01*
X118780500Y-60020207D01*
X118791922Y-59992631D01*
X118870169Y-59914383D01*
X118870182Y-59914374D01*
X118887463Y-59897093D01*
X118910633Y-59873923D01*
X118910634Y-59873918D01*
X118910636Y-59873917D01*
X118924946Y-59839370D01*
X118924946Y-59839369D01*
X118930501Y-59825958D01*
X118930501Y-59770905D01*
X118930500Y-59770891D01*
X118930500Y-59430503D01*
X118930501Y-59430494D01*
X118930501Y-59374042D01*
X118913219Y-59332320D01*
X118910633Y-59326078D01*
X118910633Y-59326077D01*
X118873923Y-59289367D01*
X118871703Y-59287147D01*
X118871696Y-59287141D01*
X118673833Y-59089278D01*
X118662410Y-59061701D01*
X118673833Y-59034124D01*
X118701410Y-59022701D01*
X118718330Y-59026562D01*
X118788802Y-59060500D01*
X118788804Y-59060500D01*
X118871196Y-59060500D01*
X118871198Y-59060500D01*
X118945434Y-59024750D01*
X118969931Y-58994030D01*
X118996056Y-58979592D01*
X119024739Y-58987855D01*
G37*
%TD.AperFunction*%
%TA.AperFunction,Conductor*%
G36*
X121261997Y-57331923D02*
G01*
X121264419Y-57334633D01*
X121264564Y-57334749D01*
X121264565Y-57334749D01*
X121264566Y-57334750D01*
X121332079Y-57367262D01*
X121351969Y-57389519D01*
X121350296Y-57419321D01*
X121328039Y-57439211D01*
X121315158Y-57441400D01*
X121018136Y-57441400D01*
X121018128Y-57441399D01*
X121013591Y-57441399D01*
X120966409Y-57441399D01*
X120966408Y-57441399D01*
X120944612Y-57450426D01*
X120944613Y-57450427D01*
X120922819Y-57459454D01*
X120922816Y-57459456D01*
X120904128Y-57478145D01*
X120889455Y-57492818D01*
X120889454Y-57492819D01*
X120869681Y-57512592D01*
X120850291Y-57531982D01*
X120837640Y-57540435D01*
X120826540Y-57545033D01*
X120817135Y-57548929D01*
X120816075Y-57549368D01*
X120779368Y-57586075D01*
X120779366Y-57586078D01*
X120776468Y-57593076D01*
X120759500Y-57634042D01*
X120759500Y-57634044D01*
X120759500Y-57868222D01*
X120748077Y-57895799D01*
X120461584Y-58182293D01*
X120434007Y-58193716D01*
X120186287Y-58193716D01*
X120186279Y-58193715D01*
X120181742Y-58193715D01*
X120129826Y-58193715D01*
X120099980Y-58206078D01*
X120081861Y-58213583D01*
X120081860Y-58213584D01*
X119558292Y-58737151D01*
X119558289Y-58737155D01*
X119554138Y-58747180D01*
X119554137Y-58747182D01*
X119538423Y-58785118D01*
X119538423Y-58841570D01*
X119538424Y-58841579D01*
X119538424Y-61216571D01*
X119529916Y-61240886D01*
X119502117Y-61275745D01*
X119500211Y-61279705D01*
X119498756Y-61279004D01*
X119485332Y-61297913D01*
X119455903Y-61302903D01*
X119437016Y-61292461D01*
X119311846Y-61167291D01*
X119300423Y-61139714D01*
X119300423Y-58400286D01*
X119311846Y-58372709D01*
X119669536Y-58015019D01*
X119697113Y-58003596D01*
X119943553Y-58003596D01*
X119943561Y-58003597D01*
X119948098Y-58003597D01*
X120000013Y-58003597D01*
X120000014Y-58003597D01*
X120033930Y-57989548D01*
X120047979Y-57983729D01*
X120084689Y-57947019D01*
X120084689Y-57947018D01*
X120090170Y-57941538D01*
X120090174Y-57941531D01*
X120699784Y-57331923D01*
X120727361Y-57320500D01*
X121234420Y-57320500D01*
X121261997Y-57331923D01*
G37*
%TD.AperFunction*%
%TA.AperFunction,Conductor*%
G36*
X127023794Y-58325499D02*
G01*
X127702142Y-59003847D01*
X127702145Y-59003851D01*
X127704368Y-59006074D01*
X127741078Y-59042784D01*
X127751696Y-59047182D01*
X127789043Y-59062652D01*
X127845496Y-59062652D01*
X127845504Y-59062651D01*
X128877640Y-59062651D01*
X128905217Y-59074074D01*
X129088802Y-59257659D01*
X129100225Y-59285236D01*
X129088802Y-59312813D01*
X129061225Y-59324236D01*
X129046301Y-59321267D01*
X129029285Y-59314219D01*
X129002382Y-59303075D01*
X128950466Y-59303075D01*
X128945929Y-59303075D01*
X128945921Y-59303076D01*
X127133785Y-59303076D01*
X127106208Y-59291653D01*
X126806388Y-58991833D01*
X126795944Y-58972936D01*
X126779760Y-58902029D01*
X126728387Y-58837609D01*
X126654151Y-58801859D01*
X126654150Y-58801859D01*
X126632568Y-58801859D01*
X126604991Y-58790436D01*
X126396913Y-58582358D01*
X126827849Y-58582358D01*
X126827849Y-58582359D01*
X126845949Y-58649910D01*
X126845951Y-58649913D01*
X126895398Y-58699360D01*
X126895401Y-58699362D01*
X126962952Y-58717463D01*
X126962953Y-58717463D01*
X126962954Y-58717463D01*
X127000138Y-58707499D01*
X127030505Y-58699362D01*
X127079956Y-58649911D01*
X127098057Y-58582359D01*
X127096954Y-58578244D01*
X127079956Y-58514807D01*
X127079954Y-58514804D01*
X127030507Y-58465357D01*
X127030504Y-58465355D01*
X126962954Y-58447255D01*
X126962952Y-58447255D01*
X126895401Y-58465355D01*
X126895398Y-58465357D01*
X126845951Y-58514804D01*
X126845949Y-58514807D01*
X126827849Y-58582358D01*
X126396913Y-58582358D01*
X126229696Y-58415141D01*
X126229695Y-58415139D01*
X126212693Y-58398137D01*
X126195208Y-58380652D01*
X126183786Y-58353077D01*
X126195208Y-58325499D01*
X126222785Y-58314076D01*
X126996217Y-58314076D01*
X127023794Y-58325499D01*
G37*
%TD.AperFunction*%
%TA.AperFunction,Conductor*%
G36*
X127382531Y-56660825D02*
G01*
X127389360Y-56666271D01*
X129154785Y-58431696D01*
X129154788Y-58431700D01*
X129159587Y-58436499D01*
X129171010Y-58464076D01*
X129159587Y-58491653D01*
X129132010Y-58503076D01*
X128283785Y-58503076D01*
X128256208Y-58491653D01*
X127516366Y-57751811D01*
X127516362Y-57751805D01*
X127474169Y-57709613D01*
X127474166Y-57709611D01*
X127460120Y-57703793D01*
X127460120Y-57703792D01*
X127426205Y-57689745D01*
X127426204Y-57689745D01*
X127374288Y-57689745D01*
X127369751Y-57689745D01*
X127369743Y-57689746D01*
X125660483Y-57689746D01*
X125632906Y-57678323D01*
X125629992Y-57675063D01*
X125629366Y-57674278D01*
X125583235Y-57652063D01*
X125555131Y-57638529D01*
X125472735Y-57638529D01*
X125398497Y-57674279D01*
X125363309Y-57718404D01*
X125337184Y-57732843D01*
X125308502Y-57724579D01*
X125295147Y-57704181D01*
X125293283Y-57697226D01*
X125289956Y-57684807D01*
X125289955Y-57684806D01*
X125289954Y-57684804D01*
X125240507Y-57635357D01*
X125240504Y-57635355D01*
X125172954Y-57617255D01*
X125172952Y-57617255D01*
X125105401Y-57635355D01*
X125105398Y-57635357D01*
X125055951Y-57684804D01*
X125055949Y-57684807D01*
X125037849Y-57752358D01*
X125037849Y-57752359D01*
X125055949Y-57819910D01*
X125055951Y-57819913D01*
X125105398Y-57869360D01*
X125105401Y-57869362D01*
X125172952Y-57887463D01*
X125172953Y-57887463D01*
X125172954Y-57887463D01*
X125206729Y-57878412D01*
X125240505Y-57869362D01*
X125271841Y-57838025D01*
X125299417Y-57826603D01*
X125326995Y-57838025D01*
X125337440Y-57856924D01*
X125347126Y-57899359D01*
X125398071Y-57963243D01*
X125398499Y-57963779D01*
X125429978Y-57978938D01*
X125449868Y-58001195D01*
X125448195Y-58030997D01*
X125425938Y-58050887D01*
X125413057Y-58053076D01*
X125133785Y-58053076D01*
X125106208Y-58041653D01*
X124681388Y-57616833D01*
X124670944Y-57597936D01*
X124654760Y-57527029D01*
X124603387Y-57462609D01*
X124561622Y-57442496D01*
X124541733Y-57420240D01*
X124543406Y-57390438D01*
X124561622Y-57372221D01*
X124603387Y-57352109D01*
X124603388Y-57352106D01*
X124606821Y-57349370D01*
X124607797Y-57350594D01*
X124628199Y-57339321D01*
X124632562Y-57339076D01*
X126700921Y-57339076D01*
X126700929Y-57339077D01*
X126705466Y-57339077D01*
X126757381Y-57339077D01*
X126757382Y-57339077D01*
X126774706Y-57331901D01*
X127577298Y-57331901D01*
X127577298Y-57331902D01*
X127595398Y-57399453D01*
X127595400Y-57399456D01*
X127644847Y-57448903D01*
X127644850Y-57448905D01*
X127712401Y-57467006D01*
X127712402Y-57467006D01*
X127712403Y-57467006D01*
X127761324Y-57453897D01*
X127779954Y-57448905D01*
X127829405Y-57399454D01*
X127847506Y-57331902D01*
X127847002Y-57330022D01*
X127829405Y-57264350D01*
X127829403Y-57264347D01*
X127779956Y-57214900D01*
X127779953Y-57214898D01*
X127712403Y-57196798D01*
X127712401Y-57196798D01*
X127644850Y-57214898D01*
X127644847Y-57214900D01*
X127595400Y-57264347D01*
X127595398Y-57264350D01*
X127577298Y-57331901D01*
X126774706Y-57331901D01*
X126792906Y-57324362D01*
X126805347Y-57319209D01*
X126842057Y-57282499D01*
X126842057Y-57282498D01*
X126847538Y-57277018D01*
X126847542Y-57277011D01*
X126937711Y-57186843D01*
X126965288Y-57175420D01*
X127044746Y-57175420D01*
X127044748Y-57175420D01*
X127118984Y-57139670D01*
X127170357Y-57075250D01*
X127188692Y-56994920D01*
X127173104Y-56926626D01*
X127178104Y-56897200D01*
X127194202Y-56882813D01*
X127255434Y-56853326D01*
X127306807Y-56788906D01*
X127325142Y-56708576D01*
X127323761Y-56702526D01*
X127328760Y-56673100D01*
X127353104Y-56655826D01*
X127382531Y-56660825D01*
G37*
%TD.AperFunction*%
%TA.AperFunction,Conductor*%
G36*
X122755587Y-57667290D02*
G01*
X122762487Y-57679239D01*
X122762779Y-57679071D01*
X122765346Y-57683518D01*
X122814793Y-57732965D01*
X122814796Y-57732967D01*
X122826503Y-57736104D01*
X122850184Y-57754275D01*
X122854080Y-57783869D01*
X122843986Y-57801352D01*
X122585363Y-58059977D01*
X122557786Y-58071400D01*
X121932116Y-58071400D01*
X121932108Y-58071399D01*
X121930481Y-58071399D01*
X121929793Y-58071114D01*
X121922657Y-58070236D01*
X121922653Y-58070235D01*
X121923123Y-58068351D01*
X121902904Y-58059976D01*
X121891481Y-58032399D01*
X121902904Y-58004822D01*
X122057703Y-57850023D01*
X122085280Y-57838600D01*
X122451864Y-57838600D01*
X122451872Y-57838601D01*
X122456409Y-57838601D01*
X122503590Y-57838601D01*
X122503591Y-57838601D01*
X122525386Y-57829572D01*
X122547182Y-57820545D01*
X122580545Y-57787182D01*
X122586026Y-57781701D01*
X122586030Y-57781694D01*
X122700435Y-57667289D01*
X122728010Y-57655867D01*
X122755587Y-57667290D01*
G37*
%TD.AperFunction*%
%TA.AperFunction,Conductor*%
G36*
X123530966Y-57168962D02*
G01*
X123542389Y-57196539D01*
X123542389Y-57456474D01*
X123530966Y-57484051D01*
X123420672Y-57594345D01*
X123393095Y-57605768D01*
X123365518Y-57594345D01*
X123329127Y-57557954D01*
X123329124Y-57557952D01*
X123261574Y-57539852D01*
X123261571Y-57539852D01*
X123227693Y-57548929D01*
X123198100Y-57545033D01*
X123179929Y-57521351D01*
X123178600Y-57511258D01*
X123178600Y-57482328D01*
X123190023Y-57454751D01*
X123475812Y-57168962D01*
X123503389Y-57157539D01*
X123530966Y-57168962D01*
G37*
%TD.AperFunction*%
%TA.AperFunction,Conductor*%
G36*
X123208776Y-56351254D02*
G01*
X123220199Y-56378831D01*
X123218870Y-56388925D01*
X123200948Y-56455811D01*
X123200948Y-56455812D01*
X123219048Y-56523363D01*
X123219050Y-56523366D01*
X123268497Y-56572813D01*
X123268500Y-56572815D01*
X123336051Y-56590916D01*
X123336052Y-56590916D01*
X123336053Y-56590916D01*
X123408564Y-56571486D01*
X123408820Y-56572442D01*
X123432490Y-56569324D01*
X123456173Y-56587492D01*
X123461400Y-56606996D01*
X123461400Y-56702673D01*
X123449977Y-56730250D01*
X123422400Y-56741673D01*
X123412306Y-56740344D01*
X123343136Y-56721810D01*
X123343134Y-56721810D01*
X123275583Y-56739910D01*
X123275580Y-56739912D01*
X123226133Y-56789359D01*
X123226131Y-56789362D01*
X123208031Y-56856913D01*
X123208031Y-56856914D01*
X123226131Y-56924465D01*
X123226133Y-56924468D01*
X123277916Y-56976251D01*
X123289339Y-57003828D01*
X123277916Y-57031405D01*
X123007577Y-57301744D01*
X122980000Y-57313167D01*
X122952423Y-57301744D01*
X122941000Y-57274167D01*
X122941000Y-56580031D01*
X122952422Y-56552455D01*
X123153624Y-56351253D01*
X123181199Y-56339831D01*
X123208776Y-56351254D01*
G37*
%TD.AperFunction*%
%TA.AperFunction,Conductor*%
G36*
X119950581Y-56826577D02*
G01*
X119991867Y-56826577D01*
X120019444Y-56838000D01*
X120030867Y-56865577D01*
X120019444Y-56893153D01*
X119814243Y-57098354D01*
X119630944Y-57281653D01*
X119603367Y-57293076D01*
X119256927Y-57293076D01*
X119256919Y-57293075D01*
X119252382Y-57293075D01*
X119200466Y-57293075D01*
X119187496Y-57298448D01*
X119187495Y-57298448D01*
X119161412Y-57309252D01*
X119131562Y-57309252D01*
X119110456Y-57288146D01*
X119110456Y-57258296D01*
X119118908Y-57245646D01*
X119526556Y-56837999D01*
X119554133Y-56826576D01*
X119950573Y-56826576D01*
X119950581Y-56826577D01*
G37*
%TD.AperFunction*%
%TA.AperFunction,Conductor*%
G36*
X124816933Y-55722615D02*
G01*
X124818925Y-55728863D01*
X124826646Y-55762689D01*
X124872170Y-55819775D01*
X124880433Y-55848458D01*
X124865994Y-55874583D01*
X124858599Y-55879229D01*
X124804565Y-55905250D01*
X124753193Y-55969669D01*
X124734858Y-56050000D01*
X124753193Y-56130330D01*
X124803606Y-56193547D01*
X124804566Y-56194750D01*
X124878802Y-56230500D01*
X124878804Y-56230500D01*
X124961196Y-56230500D01*
X124961198Y-56230500D01*
X125035434Y-56194750D01*
X125035435Y-56194749D01*
X125038873Y-56192008D01*
X125039472Y-56192760D01*
X125061213Y-56180745D01*
X125065580Y-56180500D01*
X125613591Y-56180500D01*
X125641168Y-56191923D01*
X125930941Y-56481696D01*
X125930944Y-56481700D01*
X125933167Y-56483923D01*
X125969877Y-56520633D01*
X125980143Y-56524885D01*
X126017842Y-56540501D01*
X126074295Y-56540501D01*
X126074303Y-56540500D01*
X126502942Y-56540500D01*
X126530519Y-56551923D01*
X126541942Y-56579500D01*
X126530519Y-56607077D01*
X126502943Y-56634653D01*
X126502942Y-56634654D01*
X126470716Y-56666881D01*
X126446221Y-56691376D01*
X126418644Y-56702799D01*
X124626401Y-56702799D01*
X124598824Y-56691376D01*
X124595910Y-56688116D01*
X124595284Y-56687331D01*
X124540242Y-56660825D01*
X124521049Y-56651582D01*
X124438653Y-56651582D01*
X124364416Y-56687332D01*
X124330031Y-56730449D01*
X124303906Y-56744887D01*
X124275223Y-56736623D01*
X124269051Y-56730451D01*
X124218356Y-56666881D01*
X124163009Y-56640227D01*
X124143120Y-56617971D01*
X124144793Y-56588169D01*
X124152351Y-56577515D01*
X124179956Y-56549911D01*
X124198057Y-56482359D01*
X124197880Y-56481700D01*
X124179956Y-56414807D01*
X124179954Y-56414804D01*
X124150492Y-56385342D01*
X124139069Y-56357765D01*
X124150491Y-56330189D01*
X124696694Y-55783986D01*
X124696701Y-55783982D01*
X124702182Y-55778501D01*
X124735545Y-55745138D01*
X124744872Y-55722618D01*
X124765976Y-55701512D01*
X124795825Y-55701510D01*
X124816933Y-55722615D01*
G37*
%TD.AperFunction*%
%TA.AperFunction,Conductor*%
G36*
X126933792Y-55825499D02*
G01*
X127321215Y-56212922D01*
X127332638Y-56240499D01*
X127321215Y-56268076D01*
X127296589Y-56278276D01*
X127296604Y-56278335D01*
X127296600Y-56278336D01*
X127296380Y-56278363D01*
X127293638Y-56279499D01*
X127287149Y-56279499D01*
X127287141Y-56279500D01*
X126202661Y-56279500D01*
X126175084Y-56268077D01*
X126163661Y-56240500D01*
X126175084Y-56212923D01*
X126192567Y-56202829D01*
X126201549Y-56200422D01*
X126205505Y-56199362D01*
X126254956Y-56149911D01*
X126273057Y-56082359D01*
X126264621Y-56050878D01*
X126254956Y-56014807D01*
X126254954Y-56014804D01*
X126205507Y-55965357D01*
X126205504Y-55965355D01*
X126137954Y-55947255D01*
X126137952Y-55947255D01*
X126070401Y-55965355D01*
X126070398Y-55965357D01*
X126020951Y-56014804D01*
X126020949Y-56014807D01*
X126002849Y-56082358D01*
X126002849Y-56087494D01*
X126001745Y-56087494D01*
X125998663Y-56110885D01*
X125974979Y-56129053D01*
X125945386Y-56125154D01*
X125937313Y-56118958D01*
X125799920Y-55981565D01*
X125799916Y-55981559D01*
X125757724Y-55939368D01*
X125757720Y-55939365D01*
X125748994Y-55935751D01*
X125742245Y-55932956D01*
X125709758Y-55919499D01*
X125657842Y-55919499D01*
X125653305Y-55919499D01*
X125653297Y-55919500D01*
X125087905Y-55919500D01*
X125060328Y-55908077D01*
X125048905Y-55880500D01*
X125060328Y-55852923D01*
X125070984Y-55845362D01*
X125108887Y-55827109D01*
X125108888Y-55827106D01*
X125112321Y-55824370D01*
X125113297Y-55825594D01*
X125133699Y-55814321D01*
X125138062Y-55814076D01*
X126906215Y-55814076D01*
X126933792Y-55825499D01*
G37*
%TD.AperFunction*%
%TA.AperFunction,Conductor*%
G36*
X125773792Y-54835499D02*
G01*
X125984989Y-55046696D01*
X125984992Y-55046700D01*
X125987215Y-55048923D01*
X126023925Y-55085633D01*
X126033259Y-55089499D01*
X126071890Y-55105501D01*
X126128343Y-55105501D01*
X126128351Y-55105500D01*
X127004791Y-55105500D01*
X127032368Y-55116923D01*
X127283077Y-55367632D01*
X127294500Y-55395209D01*
X127294500Y-55635891D01*
X127294499Y-55635905D01*
X127294499Y-55639042D01*
X127294499Y-55690958D01*
X127294499Y-55690960D01*
X127294500Y-55690961D01*
X127302192Y-55709532D01*
X127302194Y-55709534D01*
X127308662Y-55725149D01*
X127308662Y-55754999D01*
X127287556Y-55776105D01*
X127257706Y-55776105D01*
X127245054Y-55767651D01*
X127092544Y-55615141D01*
X127092540Y-55615135D01*
X127050348Y-55572944D01*
X127050347Y-55572943D01*
X127031598Y-55565177D01*
X127002382Y-55553075D01*
X126950466Y-55553075D01*
X126945929Y-55553075D01*
X126945921Y-55553076D01*
X125140003Y-55553076D01*
X125112426Y-55541653D01*
X125109512Y-55538393D01*
X125108886Y-55537608D01*
X125070400Y-55519074D01*
X125034651Y-55501859D01*
X124952255Y-55501859D01*
X124878018Y-55537609D01*
X124823907Y-55605464D01*
X124822559Y-55604389D01*
X124805478Y-55619653D01*
X124775676Y-55617976D01*
X124755787Y-55595718D01*
X124753600Y-55582840D01*
X124753600Y-55540278D01*
X124765022Y-55512702D01*
X124921916Y-55355807D01*
X124949492Y-55344385D01*
X124966413Y-55348247D01*
X124996755Y-55362859D01*
X124996756Y-55362859D01*
X125079149Y-55362859D01*
X125079151Y-55362859D01*
X125153387Y-55327109D01*
X125204760Y-55262689D01*
X125223095Y-55182359D01*
X125204760Y-55102029D01*
X125153387Y-55037609D01*
X125149128Y-55035558D01*
X125113709Y-55018501D01*
X125093819Y-54996244D01*
X125092609Y-54974684D01*
X125105142Y-54919776D01*
X125094181Y-54871753D01*
X125099181Y-54842327D01*
X125123524Y-54825054D01*
X125132203Y-54824076D01*
X125746215Y-54824076D01*
X125773792Y-54835499D01*
G37*
%TD.AperFunction*%
%TD*%
M02*
