%TF.GenerationSoftware,KiCad,Pcbnew,8.0.3*%
%TF.CreationDate,2024-10-01T18:17:42-04:00*%
%TF.ProjectId,headstage-16stim,68656164-7374-4616-9765-2d3136737469,B*%
%TF.SameCoordinates,Original*%
%TF.FileFunction,Soldermask,Top*%
%TF.FilePolarity,Negative*%
%FSLAX46Y46*%
G04 Gerber Fmt 4.6, Leading zero omitted, Abs format (unit mm)*
G04 Created by KiCad (PCBNEW 8.0.3) date 2024-10-01 18:17:42*
%MOMM*%
%LPD*%
G01*
G04 APERTURE LIST*
G04 Aperture macros list*
%AMRoundRect*
0 Rectangle with rounded corners*
0 $1 Rounding radius*
0 $2 $3 $4 $5 $6 $7 $8 $9 X,Y pos of 4 corners*
0 Add a 4 corners polygon primitive as box body*
4,1,4,$2,$3,$4,$5,$6,$7,$8,$9,$2,$3,0*
0 Add four circle primitives for the rounded corners*
1,1,$1+$1,$2,$3*
1,1,$1+$1,$4,$5*
1,1,$1+$1,$6,$7*
1,1,$1+$1,$8,$9*
0 Add four rect primitives between the rounded corners*
20,1,$1+$1,$2,$3,$4,$5,0*
20,1,$1+$1,$4,$5,$6,$7,0*
20,1,$1+$1,$6,$7,$8,$9,0*
20,1,$1+$1,$8,$9,$2,$3,0*%
%AMFreePoly0*
4,1,18,-0.825000,1.870000,-0.495000,2.200000,0.577500,2.200000,0.672214,2.181160,0.752509,2.127509,0.806160,2.047214,0.825000,1.952500,0.825000,-1.952500,0.806160,-2.047214,0.752509,-2.127509,0.672214,-2.181160,0.577500,-2.200000,-0.577500,-2.200000,-0.672214,-2.181160,-0.752509,-2.127509,-0.806160,-2.047214,-0.825000,-1.952500,-0.825000,1.870000,-0.825000,1.870000,$1*%
G04 Aperture macros list end*
%ADD10C,0.125000*%
%ADD11C,0.000000*%
%ADD12C,0.600000*%
%ADD13RoundRect,0.100000X-0.100000X0.130000X-0.100000X-0.130000X0.100000X-0.130000X0.100000X0.130000X0*%
%ADD14RoundRect,0.147500X0.172500X-0.147500X0.172500X0.147500X-0.172500X0.147500X-0.172500X-0.147500X0*%
%ADD15RoundRect,0.147500X0.147500X0.172500X-0.147500X0.172500X-0.147500X-0.172500X0.147500X-0.172500X0*%
%ADD16RoundRect,0.100000X-0.130000X-0.100000X0.130000X-0.100000X0.130000X0.100000X-0.130000X0.100000X0*%
%ADD17C,0.185000*%
%ADD18RoundRect,0.100000X0.100000X-0.130000X0.100000X0.130000X-0.100000X0.130000X-0.100000X-0.130000X0*%
%ADD19RoundRect,0.050000X-0.250000X0.200000X-0.250000X-0.200000X0.250000X-0.200000X0.250000X0.200000X0*%
%ADD20RoundRect,0.050000X-0.250000X0.075000X-0.250000X-0.075000X0.250000X-0.075000X0.250000X0.075000X0*%
%ADD21RoundRect,0.050000X0.075000X0.250000X-0.075000X0.250000X-0.075000X-0.250000X0.075000X-0.250000X0*%
%ADD22RoundRect,0.059200X1.790800X1.790800X-1.790800X1.790800X-1.790800X-1.790800X1.790800X-1.790800X0*%
%ADD23RoundRect,0.250000X-0.600000X0.600000X-0.600000X-0.600000X0.600000X-0.600000X0.600000X0.600000X0*%
%ADD24C,1.700000*%
%ADD25RoundRect,0.140000X-0.140000X-0.170000X0.140000X-0.170000X0.140000X0.170000X-0.140000X0.170000X0*%
%ADD26RoundRect,0.140000X-0.170000X0.140000X-0.170000X-0.140000X0.170000X-0.140000X0.170000X0.140000X0*%
%ADD27RoundRect,0.110000X-0.490000X-0.440000X0.490000X-0.440000X0.490000X0.440000X-0.490000X0.440000X0*%
%ADD28RoundRect,0.085000X-0.340000X-0.465000X0.340000X-0.465000X0.340000X0.465000X-0.340000X0.465000X0*%
%ADD29RoundRect,0.100000X0.130000X0.100000X-0.130000X0.100000X-0.130000X-0.100000X0.130000X-0.100000X0*%
%ADD30RoundRect,0.140000X0.170000X-0.140000X0.170000X0.140000X-0.170000X0.140000X-0.170000X-0.140000X0*%
%ADD31RoundRect,0.140000X0.140000X0.170000X-0.140000X0.170000X-0.140000X-0.170000X0.140000X-0.170000X0*%
%ADD32R,0.250000X0.650000*%
%ADD33FreePoly0,90.000000*%
%ADD34R,0.675000X0.254000*%
%ADD35R,0.254000X0.675000*%
%ADD36RoundRect,0.218750X-0.381250X0.218750X-0.381250X-0.218750X0.381250X-0.218750X0.381250X0.218750X0*%
%ADD37RoundRect,0.250000X-0.375000X-1.075000X0.375000X-1.075000X0.375000X1.075000X-0.375000X1.075000X0*%
%ADD38RoundRect,0.325000X0.325000X0.675000X-0.325000X0.675000X-0.325000X-0.675000X0.325000X-0.675000X0*%
%ADD39RoundRect,0.150000X0.150000X0.200000X-0.150000X0.200000X-0.150000X-0.200000X0.150000X-0.200000X0*%
G04 APERTURE END LIST*
D10*
X128114285Y-58524809D02*
X128114285Y-58191476D01*
X128114285Y-58286714D02*
X128138095Y-58239095D01*
X128138095Y-58239095D02*
X128161904Y-58215285D01*
X128161904Y-58215285D02*
X128209523Y-58191476D01*
X128209523Y-58191476D02*
X128257142Y-58191476D01*
X128590476Y-58262904D02*
X128661904Y-58286714D01*
X128661904Y-58286714D02*
X128685714Y-58310523D01*
X128685714Y-58310523D02*
X128709523Y-58358142D01*
X128709523Y-58358142D02*
X128709523Y-58429571D01*
X128709523Y-58429571D02*
X128685714Y-58477190D01*
X128685714Y-58477190D02*
X128661904Y-58501000D01*
X128661904Y-58501000D02*
X128614285Y-58524809D01*
X128614285Y-58524809D02*
X128423809Y-58524809D01*
X128423809Y-58524809D02*
X128423809Y-58024809D01*
X128423809Y-58024809D02*
X128590476Y-58024809D01*
X128590476Y-58024809D02*
X128638095Y-58048619D01*
X128638095Y-58048619D02*
X128661904Y-58072428D01*
X128661904Y-58072428D02*
X128685714Y-58120047D01*
X128685714Y-58120047D02*
X128685714Y-58167666D01*
X128685714Y-58167666D02*
X128661904Y-58215285D01*
X128661904Y-58215285D02*
X128638095Y-58239095D01*
X128638095Y-58239095D02*
X128590476Y-58262904D01*
X128590476Y-58262904D02*
X128423809Y-58262904D01*
D11*
%TO.C,G\u002A\u002A\u002A*%
G36*
X128176344Y-54825700D02*
G01*
X128191585Y-54834274D01*
X128202906Y-54847096D01*
X128204191Y-54849447D01*
X128206359Y-54854378D01*
X128211119Y-54865669D01*
X128218297Y-54882903D01*
X128227724Y-54905662D01*
X128239228Y-54933530D01*
X128252637Y-54966089D01*
X128267780Y-55002923D01*
X128284486Y-55043615D01*
X128302583Y-55087748D01*
X128321900Y-55134905D01*
X128342265Y-55184669D01*
X128363508Y-55236623D01*
X128385456Y-55290350D01*
X128387694Y-55295831D01*
X128409732Y-55349790D01*
X128431097Y-55402068D01*
X128451615Y-55452245D01*
X128471115Y-55499897D01*
X128489422Y-55544605D01*
X128506365Y-55585946D01*
X128521770Y-55623499D01*
X128535464Y-55656842D01*
X128547274Y-55685555D01*
X128557028Y-55709215D01*
X128564552Y-55727400D01*
X128569674Y-55739691D01*
X128572221Y-55745664D01*
X128572317Y-55745874D01*
X128578980Y-55766852D01*
X128578735Y-55786416D01*
X128575168Y-55798131D01*
X128573223Y-55803790D01*
X128569410Y-55815782D01*
X128563938Y-55833424D01*
X128557015Y-55856031D01*
X128548850Y-55882920D01*
X128539649Y-55913405D01*
X128529622Y-55946804D01*
X128518976Y-55982432D01*
X128512607Y-56003826D01*
X128501727Y-56040372D01*
X128491379Y-56075039D01*
X128481769Y-56107151D01*
X128473098Y-56136031D01*
X128465572Y-56161001D01*
X128459394Y-56181384D01*
X128454769Y-56196503D01*
X128451899Y-56205682D01*
X128451114Y-56208031D01*
X128442204Y-56222225D01*
X128428504Y-56232227D01*
X128411495Y-56237616D01*
X128392658Y-56237973D01*
X128373474Y-56232876D01*
X128369685Y-56231146D01*
X128364357Y-56228766D01*
X128352700Y-56223737D01*
X128335128Y-56216233D01*
X128312059Y-56206428D01*
X128283909Y-56194498D01*
X128251092Y-56180618D01*
X128214026Y-56164961D01*
X128173125Y-56147703D01*
X128128807Y-56129018D01*
X128081486Y-56109081D01*
X128031579Y-56088067D01*
X127979502Y-56066151D01*
X127925671Y-56043506D01*
X127870501Y-56020308D01*
X127814408Y-55996732D01*
X127757809Y-55972952D01*
X127701119Y-55949143D01*
X127644754Y-55925480D01*
X127589131Y-55902136D01*
X127534664Y-55879288D01*
X127481771Y-55857110D01*
X127430866Y-55835776D01*
X127382366Y-55815461D01*
X127336687Y-55796340D01*
X127294245Y-55778588D01*
X127255455Y-55762378D01*
X127220733Y-55747887D01*
X127202525Y-55740300D01*
X127494061Y-55740300D01*
X127494227Y-55740499D01*
X127497943Y-55742324D01*
X127507854Y-55746725D01*
X127523433Y-55753480D01*
X127544154Y-55762370D01*
X127569490Y-55773173D01*
X127598914Y-55785669D01*
X127631900Y-55799637D01*
X127667921Y-55814855D01*
X127706451Y-55831104D01*
X127746963Y-55848162D01*
X127788930Y-55865808D01*
X127831826Y-55883823D01*
X127875125Y-55901984D01*
X127918299Y-55920071D01*
X127960822Y-55937864D01*
X128002168Y-55955141D01*
X128041810Y-55971682D01*
X128079220Y-55987266D01*
X128113874Y-56001673D01*
X128145244Y-56014680D01*
X128172803Y-56026068D01*
X128196025Y-56035616D01*
X128214383Y-56043102D01*
X128227351Y-56048307D01*
X128234403Y-56051009D01*
X128235571Y-56051346D01*
X128233793Y-56048188D01*
X128228154Y-56039713D01*
X128219083Y-56026530D01*
X128207007Y-56009252D01*
X128192356Y-55988489D01*
X128175558Y-55964852D01*
X128157041Y-55938953D01*
X128144374Y-55921315D01*
X128124689Y-55894122D01*
X128106088Y-55868750D01*
X128089048Y-55845826D01*
X128074046Y-55825976D01*
X128061559Y-55809829D01*
X128055499Y-55802287D01*
X128196875Y-55802287D01*
X128198676Y-55805337D01*
X128204186Y-55813488D01*
X128212824Y-55825909D01*
X128224012Y-55841771D01*
X128237168Y-55860244D01*
X128246270Y-55872938D01*
X128260456Y-55892541D01*
X128273205Y-55909908D01*
X128283911Y-55924234D01*
X128291969Y-55934716D01*
X128296775Y-55940551D01*
X128297864Y-55941477D01*
X128297662Y-55937625D01*
X128296264Y-55927766D01*
X128293861Y-55913080D01*
X128290645Y-55894744D01*
X128287356Y-55876848D01*
X128283377Y-55856171D01*
X128279693Y-55838023D01*
X128276564Y-55823616D01*
X128275759Y-55820325D01*
X128390976Y-55820325D01*
X128391018Y-55824320D01*
X128392268Y-55834161D01*
X128394524Y-55848511D01*
X128397588Y-55866035D01*
X128398810Y-55872654D01*
X128403376Y-55897001D01*
X128406798Y-55915061D01*
X128409272Y-55927739D01*
X128410994Y-55935942D01*
X128412161Y-55940577D01*
X128412969Y-55942550D01*
X128413614Y-55942767D01*
X128413936Y-55942500D01*
X128415445Y-55938665D01*
X128418641Y-55929048D01*
X128423131Y-55914883D01*
X128428520Y-55897404D01*
X128431840Y-55886440D01*
X128437500Y-55867394D01*
X128442322Y-55850705D01*
X128445939Y-55837681D01*
X128447986Y-55829627D01*
X128448309Y-55827789D01*
X128445029Y-55825848D01*
X128436566Y-55823768D01*
X128425045Y-55821825D01*
X128412589Y-55820296D01*
X128401323Y-55819457D01*
X128393370Y-55819585D01*
X128390976Y-55820325D01*
X128275759Y-55820325D01*
X128274253Y-55814166D01*
X128273129Y-55810938D01*
X128268994Y-55809748D01*
X128259523Y-55808169D01*
X128246617Y-55806420D01*
X128232178Y-55804714D01*
X128218106Y-55803269D01*
X128206304Y-55802299D01*
X128198674Y-55802021D01*
X128196875Y-55802287D01*
X128055499Y-55802287D01*
X128052064Y-55798011D01*
X128046038Y-55791150D01*
X128044268Y-55789665D01*
X128039453Y-55788867D01*
X128027945Y-55787515D01*
X128010341Y-55785666D01*
X127987242Y-55783376D01*
X127959244Y-55780702D01*
X127926948Y-55777701D01*
X127890951Y-55774428D01*
X127851852Y-55770940D01*
X127810251Y-55767294D01*
X127775116Y-55764263D01*
X127731818Y-55760537D01*
X127690455Y-55756949D01*
X127651637Y-55753551D01*
X127615972Y-55750399D01*
X127584070Y-55747548D01*
X127556539Y-55745052D01*
X127533988Y-55742966D01*
X127517026Y-55741345D01*
X127506262Y-55740244D01*
X127502529Y-55739775D01*
X127495770Y-55739117D01*
X127494061Y-55740300D01*
X127202525Y-55740300D01*
X127190496Y-55735288D01*
X127165159Y-55724757D01*
X127145139Y-55716467D01*
X127130850Y-55710594D01*
X127122710Y-55707313D01*
X127121200Y-55706741D01*
X127105276Y-55698075D01*
X127092000Y-55685061D01*
X127083290Y-55669799D01*
X127081464Y-55663274D01*
X127080535Y-55658535D01*
X127079838Y-55654206D01*
X127079665Y-55649980D01*
X127080310Y-55645548D01*
X127082069Y-55640603D01*
X127085234Y-55634834D01*
X127090099Y-55627935D01*
X127096957Y-55619596D01*
X127106103Y-55609510D01*
X127108707Y-55606813D01*
X127270190Y-55606813D01*
X127273657Y-55607750D01*
X127283335Y-55609138D01*
X127298142Y-55610852D01*
X127316994Y-55612769D01*
X127338807Y-55614768D01*
X127344282Y-55615239D01*
X127362561Y-55616795D01*
X127380140Y-55618300D01*
X127397654Y-55619810D01*
X127415740Y-55621382D01*
X127435030Y-55623071D01*
X127456160Y-55624934D01*
X127479766Y-55627027D01*
X127506481Y-55629408D01*
X127536940Y-55632132D01*
X127571780Y-55635255D01*
X127611633Y-55638835D01*
X127657136Y-55642927D01*
X127708923Y-55647588D01*
X127742186Y-55650583D01*
X127787766Y-55654685D01*
X127826591Y-55658167D01*
X127859194Y-55661064D01*
X127886106Y-55663413D01*
X127907862Y-55665250D01*
X127924993Y-55666612D01*
X127938034Y-55667535D01*
X127947516Y-55668056D01*
X127953972Y-55668210D01*
X127957936Y-55668035D01*
X127959940Y-55667566D01*
X127960517Y-55666841D01*
X127960200Y-55665895D01*
X127959934Y-55665449D01*
X127955709Y-55659122D01*
X127947814Y-55647802D01*
X127936670Y-55632068D01*
X127922696Y-55612500D01*
X127906315Y-55589675D01*
X127887946Y-55564173D01*
X127868011Y-55536573D01*
X127846931Y-55507452D01*
X127825127Y-55477391D01*
X127803019Y-55446967D01*
X127781028Y-55416760D01*
X127774867Y-55408313D01*
X127913346Y-55408313D01*
X127916210Y-55413524D01*
X127922035Y-55422063D01*
X127927066Y-55429054D01*
X127935822Y-55441233D01*
X127947760Y-55457843D01*
X127962335Y-55478125D01*
X127979004Y-55501325D01*
X127997224Y-55526685D01*
X128016450Y-55553449D01*
X128021946Y-55561100D01*
X128108676Y-55681844D01*
X128167832Y-55687764D01*
X128188951Y-55689826D01*
X128208489Y-55691639D01*
X128224848Y-55693061D01*
X128236430Y-55693952D01*
X128240263Y-55694167D01*
X128253537Y-55694650D01*
X128248372Y-55669952D01*
X128244852Y-55656527D01*
X128240677Y-55645470D01*
X128236927Y-55639396D01*
X128232801Y-55636189D01*
X128223294Y-55629163D01*
X128208988Y-55618739D01*
X128190467Y-55605338D01*
X128168313Y-55589380D01*
X128143111Y-55571285D01*
X128115442Y-55551474D01*
X128085891Y-55530369D01*
X128075145Y-55522707D01*
X128045116Y-55501301D01*
X128016792Y-55481102D01*
X127990750Y-55462524D01*
X127967569Y-55445979D01*
X127947827Y-55431879D01*
X127932102Y-55420639D01*
X127920972Y-55412669D01*
X127915015Y-55408384D01*
X127914248Y-55407823D01*
X127913346Y-55408313D01*
X127774867Y-55408313D01*
X127759576Y-55387348D01*
X127739084Y-55359310D01*
X127719971Y-55333225D01*
X127702660Y-55309671D01*
X127687571Y-55289228D01*
X127675124Y-55272474D01*
X127665742Y-55259988D01*
X127659844Y-55252349D01*
X127657869Y-55250095D01*
X127654716Y-55252504D01*
X127646730Y-55259410D01*
X127634431Y-55270335D01*
X127618343Y-55284797D01*
X127598986Y-55302316D01*
X127576883Y-55322413D01*
X127552555Y-55344606D01*
X127526524Y-55368417D01*
X127499311Y-55393365D01*
X127471440Y-55418970D01*
X127443430Y-55444752D01*
X127415805Y-55470230D01*
X127389086Y-55494925D01*
X127363795Y-55518356D01*
X127340453Y-55540044D01*
X127319582Y-55559508D01*
X127301705Y-55576268D01*
X127287342Y-55589843D01*
X127277016Y-55599755D01*
X127271248Y-55605523D01*
X127270190Y-55606813D01*
X127108707Y-55606813D01*
X127117829Y-55597367D01*
X127132431Y-55582860D01*
X127150200Y-55565679D01*
X127171432Y-55545517D01*
X127196420Y-55522065D01*
X127225457Y-55495015D01*
X127258837Y-55464058D01*
X127296855Y-55428885D01*
X127339802Y-55389189D01*
X127361961Y-55368709D01*
X127400098Y-55333503D01*
X127436853Y-55299657D01*
X127471855Y-55267511D01*
X127504732Y-55237401D01*
X127535112Y-55209665D01*
X127562624Y-55184640D01*
X127586896Y-55162665D01*
X127607556Y-55144075D01*
X127624233Y-55129210D01*
X127636555Y-55118407D01*
X127644151Y-55112002D01*
X127646477Y-55110307D01*
X127664389Y-55106019D01*
X127682566Y-55108693D01*
X127690044Y-55111977D01*
X127694772Y-55115047D01*
X127704984Y-55122065D01*
X127720223Y-55132707D01*
X127740032Y-55146650D01*
X127763954Y-55163570D01*
X127791533Y-55183142D01*
X127822311Y-55205043D01*
X127855832Y-55228948D01*
X127891638Y-55254533D01*
X127929274Y-55281474D01*
X127956354Y-55300888D01*
X127994694Y-55328366D01*
X128031306Y-55354556D01*
X128065761Y-55379154D01*
X128097624Y-55401852D01*
X128126463Y-55422343D01*
X128151847Y-55440323D01*
X128173343Y-55455483D01*
X128190519Y-55467519D01*
X128202942Y-55476123D01*
X128210181Y-55480990D01*
X128211946Y-55482003D01*
X128211465Y-55478278D01*
X128209722Y-55467895D01*
X128206814Y-55451385D01*
X128202839Y-55429280D01*
X128200041Y-55413907D01*
X128314420Y-55413907D01*
X128314735Y-55417676D01*
X128316257Y-55427602D01*
X128318810Y-55442657D01*
X128322216Y-55461810D01*
X128326298Y-55484033D01*
X128328664Y-55496643D01*
X128344073Y-55578214D01*
X128367856Y-55595951D01*
X128382407Y-55606454D01*
X128391790Y-55612355D01*
X128396367Y-55613844D01*
X128396517Y-55611162D01*
X128378871Y-55567892D01*
X128363792Y-55530983D01*
X128351104Y-55500012D01*
X128340632Y-55474554D01*
X128332198Y-55454187D01*
X128325627Y-55438487D01*
X128320743Y-55427031D01*
X128317368Y-55419395D01*
X128315328Y-55415157D01*
X128314446Y-55413892D01*
X128314420Y-55413907D01*
X128200041Y-55413907D01*
X128197894Y-55402112D01*
X128192076Y-55370413D01*
X128185484Y-55334714D01*
X128178214Y-55295548D01*
X128170364Y-55253445D01*
X128162031Y-55208939D01*
X128157048Y-55182405D01*
X128148435Y-55136472D01*
X128140224Y-55092430D01*
X128132514Y-55050834D01*
X128125408Y-55012240D01*
X128119004Y-54977204D01*
X128113406Y-54946281D01*
X128108712Y-54920027D01*
X128105025Y-54898998D01*
X128102444Y-54883749D01*
X128101072Y-54874835D01*
X128100868Y-54872856D01*
X128103708Y-54860013D01*
X128111446Y-54846116D01*
X128122577Y-54833646D01*
X128126686Y-54830306D01*
X128141936Y-54823233D01*
X128159142Y-54821859D01*
X128176344Y-54825700D01*
G37*
%TD*%
D12*
%TO.C,TP5*%
X124040000Y-54190000D03*
%TD*%
D13*
%TO.C,R6*%
X131300000Y-65580000D03*
X131300000Y-66220000D03*
%TD*%
%TO.C,R5*%
X131300000Y-66980000D03*
X131300000Y-67620000D03*
%TD*%
D14*
%TO.C,L7*%
X127150000Y-61710000D03*
X127150000Y-60740000D03*
%TD*%
%TO.C,L2*%
X123450000Y-66135000D03*
X123450000Y-65165000D03*
%TD*%
D15*
%TO.C,L1*%
X125355000Y-71700000D03*
X124385000Y-71700000D03*
%TD*%
D16*
%TO.C,C41*%
X118730000Y-70680000D03*
X119370000Y-70680000D03*
%TD*%
D13*
%TO.C,C36*%
X118800000Y-65480000D03*
X118800000Y-66120000D03*
%TD*%
D17*
%TO.C,U8*%
X124712953Y-58632359D03*
X124312953Y-58632359D03*
X123912953Y-58632359D03*
X123512953Y-58632359D03*
X123112953Y-58632359D03*
X122712953Y-58632359D03*
X122312953Y-58632359D03*
X121912953Y-58632359D03*
X124712953Y-58232359D03*
X124312953Y-58232359D03*
X123912953Y-58232359D03*
X123512953Y-58232359D03*
X123112953Y-58232359D03*
X122712953Y-58232359D03*
X122312953Y-58232359D03*
X121912953Y-58232359D03*
X124712953Y-57832359D03*
X124312953Y-57832359D03*
X123912953Y-57832359D03*
X123512953Y-57832359D03*
X123112953Y-57832359D03*
X122712953Y-57832359D03*
X122312953Y-57832359D03*
X121912953Y-57832359D03*
X124712953Y-57432359D03*
X124312953Y-57432359D03*
X123912953Y-57432359D03*
X123512953Y-57432359D03*
X123112953Y-57432359D03*
X122712953Y-57432359D03*
X122312953Y-57432359D03*
X121912953Y-57432359D03*
X124712953Y-57032359D03*
X124312953Y-57032359D03*
X123912953Y-57032359D03*
X123512953Y-57032359D03*
X123112953Y-57032359D03*
X122712953Y-57032359D03*
X122312953Y-57032359D03*
X121912953Y-57032359D03*
X124712953Y-56632359D03*
X124312953Y-56632359D03*
X123912953Y-56632359D03*
X123512953Y-56632359D03*
X123112953Y-56632359D03*
X122712953Y-56632359D03*
X122312953Y-56632359D03*
X121912953Y-56632359D03*
X124712953Y-56232359D03*
X124312953Y-56232359D03*
X123912953Y-56232359D03*
X123512953Y-56232359D03*
X123112953Y-56232359D03*
X122712953Y-56232359D03*
X122312953Y-56232359D03*
X121912953Y-56232359D03*
X124712953Y-55832359D03*
X124312953Y-55832359D03*
X123912953Y-55832359D03*
X123512953Y-55832359D03*
X123112953Y-55832359D03*
X122712953Y-55832359D03*
X122312953Y-55832359D03*
X121912953Y-55832359D03*
%TD*%
D18*
%TO.C,R15*%
X126070000Y-61770000D03*
X126070000Y-61130000D03*
%TD*%
D19*
%TO.C,D2*%
X126212953Y-57682359D03*
X126212953Y-58582359D03*
%TD*%
D20*
%TO.C,U7*%
X130100000Y-68849999D03*
X130100000Y-68350000D03*
X130100000Y-67850001D03*
X130100000Y-67350000D03*
X130100000Y-66850000D03*
X130100000Y-66350002D03*
X130100000Y-65850000D03*
X130100000Y-65350001D03*
D21*
X129449999Y-64700000D03*
X128950000Y-64700000D03*
X128450001Y-64700000D03*
X127950000Y-64700000D03*
X127450000Y-64700000D03*
X126950002Y-64700000D03*
X126450000Y-64700000D03*
X125950001Y-64700000D03*
D20*
X125300000Y-65350001D03*
X125300000Y-65850000D03*
X125300000Y-66350002D03*
X125300000Y-66850000D03*
X125300000Y-67350000D03*
X125300000Y-67850001D03*
X125300000Y-68350000D03*
X125300000Y-68849999D03*
D21*
X125950001Y-69500000D03*
X126450000Y-69500000D03*
X126950002Y-69500000D03*
X127450000Y-69500000D03*
X127950000Y-69500000D03*
X128450001Y-69500000D03*
X128950000Y-69500000D03*
X129449999Y-69500000D03*
D22*
X127700000Y-67100000D03*
%TD*%
D23*
%TO.C,J3*%
X128580000Y-38247500D03*
D24*
X128580000Y-40787500D03*
X126040000Y-38247500D03*
X126040000Y-40787500D03*
X123500000Y-38247500D03*
X123500000Y-40787500D03*
X120960000Y-38247500D03*
X120960000Y-40787500D03*
X118420000Y-38247500D03*
X118420000Y-40787500D03*
%TD*%
D25*
%TO.C,C29*%
X115090000Y-66350000D03*
X116050000Y-66350000D03*
%TD*%
D18*
%TO.C,C40*%
X119470000Y-66140000D03*
X119470000Y-65500000D03*
%TD*%
%TO.C,R14*%
X120930000Y-66100000D03*
X120930000Y-65460000D03*
%TD*%
D13*
%TO.C,C20*%
X120000000Y-54980000D03*
X120000000Y-55620000D03*
%TD*%
D18*
%TO.C,R25*%
X125712953Y-56652359D03*
X125712953Y-56012359D03*
%TD*%
D26*
%TO.C,C34*%
X124400000Y-66220000D03*
X124400000Y-67180000D03*
%TD*%
D16*
%TO.C,R7*%
X120810000Y-54570000D03*
X121450000Y-54570000D03*
%TD*%
D27*
%TO.C,D3*%
X131700000Y-60050000D03*
D28*
X131050000Y-64200000D03*
X132350000Y-64200000D03*
%TD*%
D13*
%TO.C,R8*%
X120160000Y-65480000D03*
X120160000Y-66120000D03*
%TD*%
%TO.C,R20*%
X126512953Y-56012359D03*
X126512953Y-56652359D03*
%TD*%
D18*
%TO.C,C8*%
X124300000Y-63920000D03*
X124300000Y-63280000D03*
%TD*%
D29*
%TO.C,C14*%
X124530000Y-69480000D03*
X123890000Y-69480000D03*
%TD*%
D13*
%TO.C,R11*%
X121490000Y-60590000D03*
X121490000Y-61230000D03*
%TD*%
D30*
%TO.C,C12*%
X125830000Y-63600000D03*
X125830000Y-62640000D03*
%TD*%
D18*
%TO.C,C16*%
X128275000Y-63820000D03*
X128275000Y-63180000D03*
%TD*%
D31*
%TO.C,C17*%
X125240000Y-70320000D03*
X124280000Y-70320000D03*
%TD*%
D30*
%TO.C,C63*%
X121800000Y-71830000D03*
X121800000Y-70870000D03*
%TD*%
D16*
%TO.C,C4*%
X127470000Y-70320000D03*
X128110000Y-70320000D03*
%TD*%
D29*
%TO.C,C7*%
X126670000Y-70275000D03*
X126030000Y-70275000D03*
%TD*%
D16*
%TO.C,C26*%
X130760000Y-58270000D03*
X131400000Y-58270000D03*
%TD*%
D13*
%TO.C,C19*%
X122590000Y-71350000D03*
X122590000Y-71990000D03*
%TD*%
D30*
%TO.C,C2*%
X123450000Y-64280000D03*
X123450000Y-63320000D03*
%TD*%
D31*
%TO.C,C1*%
X127200000Y-71130000D03*
X126240000Y-71130000D03*
%TD*%
D32*
%TO.C,U4*%
X117400000Y-69825000D03*
X117900000Y-69825000D03*
X118400000Y-69825000D03*
X118900000Y-69825000D03*
X119400000Y-69825000D03*
X119900000Y-69825000D03*
X120400000Y-69825000D03*
X120900000Y-69825000D03*
X121400000Y-69825000D03*
X121399857Y-66975000D03*
X120900000Y-66975000D03*
X120400000Y-66975000D03*
X119900000Y-66975000D03*
X119400000Y-66975000D03*
X118900000Y-66975000D03*
X118400000Y-66975000D03*
X117900000Y-66975000D03*
X117400000Y-66975000D03*
D33*
X119400000Y-68400000D03*
%TD*%
D13*
%TO.C,C18*%
X123300000Y-71350000D03*
X123300000Y-71990000D03*
%TD*%
D18*
%TO.C,R24*%
X120950000Y-71375000D03*
X120950000Y-70735000D03*
%TD*%
%TO.C,R19*%
X116300000Y-68575000D03*
X116300000Y-67935000D03*
%TD*%
D34*
%TO.C,U3*%
X120562500Y-56737500D03*
D35*
X119650000Y-56600000D03*
X119150000Y-56600000D03*
X118650000Y-56600000D03*
X118150000Y-56600000D03*
D34*
X117237500Y-56737500D03*
X117237500Y-57237500D03*
X117237500Y-57737500D03*
X117237500Y-58237500D03*
X117237500Y-58737500D03*
X117237500Y-59237500D03*
X117237500Y-59737500D03*
X117237500Y-60237500D03*
X117237500Y-60737500D03*
X117237500Y-61237500D03*
D35*
X118150000Y-61375000D03*
X118650000Y-61375000D03*
X119150000Y-61375000D03*
X119650000Y-61375000D03*
D34*
X120562500Y-61237500D03*
X120562500Y-60737500D03*
X120562500Y-60237500D03*
X120562500Y-59737500D03*
X120562500Y-59237500D03*
X120562500Y-58737500D03*
X120562500Y-58237500D03*
X120562500Y-57737500D03*
X120562500Y-57237500D03*
%TD*%
D36*
%TO.C,L9*%
X122100000Y-63737500D03*
X122100000Y-65862500D03*
%TD*%
D18*
%TO.C,R12*%
X121510000Y-62670000D03*
X121510000Y-62030000D03*
%TD*%
D13*
%TO.C,C21*%
X116250000Y-57630000D03*
X116250000Y-58270000D03*
%TD*%
D29*
%TO.C,C9*%
X129695000Y-62975000D03*
X129055000Y-62975000D03*
%TD*%
D18*
%TO.C,C6*%
X129975000Y-62170000D03*
X129975000Y-61530000D03*
%TD*%
%TO.C,C15*%
X124300000Y-65360000D03*
X124300000Y-64720000D03*
%TD*%
D37*
%TO.C,L8*%
X117500000Y-63460000D03*
X120300000Y-63460000D03*
%TD*%
D18*
%TO.C,R4*%
X123510000Y-67660000D03*
X123510000Y-67020000D03*
%TD*%
%TO.C,C5*%
X125000000Y-63920000D03*
X125000000Y-63280000D03*
%TD*%
D30*
%TO.C,C25*%
X129950000Y-58780000D03*
X129950000Y-57820000D03*
%TD*%
D12*
%TO.C,J5*%
X121800000Y-59700000D03*
X123070000Y-59700000D03*
X124340000Y-59700000D03*
X125610000Y-59700000D03*
X126880000Y-59700000D03*
X128150000Y-59700000D03*
X129420000Y-59700000D03*
%TD*%
D30*
%TO.C,C35*%
X128125000Y-62280000D03*
X128125000Y-61320000D03*
%TD*%
D16*
%TO.C,R3*%
X123810000Y-68370000D03*
X124450000Y-68370000D03*
%TD*%
D29*
%TO.C,R17*%
X131460000Y-58970000D03*
X130820000Y-58970000D03*
%TD*%
D18*
%TO.C,C60*%
X120200000Y-71320000D03*
X120200000Y-70680000D03*
%TD*%
D12*
%TO.C,TP9*%
X130120000Y-56970000D03*
%TD*%
D38*
%TO.C,J1*%
X124570000Y-61500000D03*
X122770000Y-61500000D03*
%TD*%
D30*
%TO.C,C13*%
X126750000Y-63600000D03*
X126750000Y-62640000D03*
%TD*%
D12*
%TO.C,TP2*%
X126300000Y-54600000D03*
%TD*%
D16*
%TO.C,R10*%
X118380000Y-55600000D03*
X119020000Y-55600000D03*
%TD*%
D29*
%TO.C,R18*%
X116275000Y-67200000D03*
X115635000Y-67200000D03*
%TD*%
D18*
%TO.C,C11*%
X127575000Y-63820000D03*
X127575000Y-63180000D03*
%TD*%
D30*
%TO.C,C3*%
X129100000Y-62130000D03*
X129100000Y-61170000D03*
%TD*%
D16*
%TO.C,R9*%
X115590000Y-59000000D03*
X116230000Y-59000000D03*
%TD*%
D25*
%TO.C,C10*%
X129020000Y-63750000D03*
X129980000Y-63750000D03*
%TD*%
D26*
%TO.C,C64*%
X122600000Y-68890000D03*
X122600000Y-69850000D03*
%TD*%
D25*
%TO.C,C33*%
X114940000Y-65400000D03*
X115900000Y-65400000D03*
%TD*%
D39*
%TO.C,F1*%
X117950000Y-65600000D03*
X116950000Y-65600000D03*
%TD*%
D27*
%TO.C,D1*%
X115300000Y-60050000D03*
D28*
X114650000Y-64200000D03*
X115950000Y-64200000D03*
%TD*%
D30*
%TO.C,C59*%
X122600000Y-68030000D03*
X122600000Y-67070000D03*
%TD*%
M02*
