%TF.GenerationSoftware,KiCad,Pcbnew,8.0.3*%
%TF.CreationDate,2024-10-01T18:17:42-04:00*%
%TF.ProjectId,headstage-16stim,68656164-7374-4616-9765-2d3136737469,B*%
%TF.SameCoordinates,Original*%
%TF.FileFunction,Copper,L5,Inr*%
%TF.FilePolarity,Positive*%
%FSLAX46Y46*%
G04 Gerber Fmt 4.6, Leading zero omitted, Abs format (unit mm)*
G04 Created by KiCad (PCBNEW 8.0.3) date 2024-10-01 18:17:42*
%MOMM*%
%LPD*%
G01*
G04 APERTURE LIST*
G04 Aperture macros list*
%AMRoundRect*
0 Rectangle with rounded corners*
0 $1 Rounding radius*
0 $2 $3 $4 $5 $6 $7 $8 $9 X,Y pos of 4 corners*
0 Add a 4 corners polygon primitive as box body*
4,1,4,$2,$3,$4,$5,$6,$7,$8,$9,$2,$3,0*
0 Add four circle primitives for the rounded corners*
1,1,$1+$1,$2,$3*
1,1,$1+$1,$4,$5*
1,1,$1+$1,$6,$7*
1,1,$1+$1,$8,$9*
0 Add four rect primitives between the rounded corners*
20,1,$1+$1,$2,$3,$4,$5,0*
20,1,$1+$1,$4,$5,$6,$7,0*
20,1,$1+$1,$6,$7,$8,$9,0*
20,1,$1+$1,$8,$9,$2,$3,0*%
G04 Aperture macros list end*
%TA.AperFunction,ComponentPad*%
%ADD10RoundRect,0.250000X-0.600000X0.600000X-0.600000X-0.600000X0.600000X-0.600000X0.600000X0.600000X0*%
%TD*%
%TA.AperFunction,ComponentPad*%
%ADD11C,1.700000*%
%TD*%
%TA.AperFunction,ViaPad*%
%ADD12C,0.300000*%
%TD*%
%TA.AperFunction,ViaPad*%
%ADD13C,0.200000*%
%TD*%
%TA.AperFunction,Conductor*%
%ADD14C,0.076200*%
%TD*%
%TA.AperFunction,Conductor*%
%ADD15C,0.300000*%
%TD*%
%TA.AperFunction,Conductor*%
%ADD16C,0.150000*%
%TD*%
%TA.AperFunction,Conductor*%
%ADD17C,0.200000*%
%TD*%
%TA.AperFunction,Conductor*%
%ADD18C,0.100000*%
%TD*%
G04 APERTURE END LIST*
D10*
%TO.N,/FPGA/DO_{Flash}{slash}TCK*%
%TO.C,J3*%
X128580000Y-38247500D03*
D11*
%TO.N,GND*%
X128580000Y-40787500D03*
%TO.N,/FPGA/SCLK_{Flash}{slash}TDO*%
X126040000Y-38247500D03*
%TO.N,+1V8*%
X126040000Y-40787500D03*
%TO.N,/FPGA/DI_{Flash}{slash}TMS*%
X123500000Y-38247500D03*
%TO.N,/FPGA/~{CS}_{Flash}*%
X123500000Y-40787500D03*
%TO.N,unconnected-(J3-Pin_7-Pad7)*%
X120960000Y-38247500D03*
%TO.N,/FPGA/CRESET_{B}*%
X120960000Y-40787500D03*
%TO.N,/FPGA/TDI*%
X118420000Y-38247500D03*
%TO.N,GND*%
X118420000Y-40787500D03*
%TD*%
D12*
%TO.N,GND*%
X105000000Y-84000000D03*
X141000000Y-84000000D03*
X135000000Y-83000000D03*
X127000000Y-81000000D03*
D13*
%TO.N,/FPGA/GPIO2_{Ser}*%
X124920000Y-54919776D03*
%TO.N,GND*%
X125890000Y-55920000D03*
X125040000Y-56410000D03*
X119410000Y-62740000D03*
X121500000Y-64430000D03*
X132500000Y-65120000D03*
%TO.N,/FPGA/GPIO2_{Ser}*%
X131972589Y-65606203D03*
%TO.N,GND*%
X130800000Y-67580000D03*
%TO.N,/DC Tap & Regulation/3v3_{EN}*%
X131627887Y-66857044D03*
%TO.N,/FPGA/GPIO2_{Ser}*%
X128860000Y-70330000D03*
X124920000Y-56050000D03*
%TO.N,/FPGA/CRESET_{B}*%
X124100000Y-58040000D03*
%TO.N,/FPGA/TDI*%
X125253665Y-58834675D03*
X124102922Y-56811631D03*
%TO.N,+7V*%
X130681465Y-68053796D03*
%TO.N,+1V8*%
X118350000Y-70370000D03*
%TO.N,/DC Tap & Regulation/3v3_{EN}*%
X115700000Y-63300000D03*
%TO.N,/FPGA/CRESET_{B}*%
X127003550Y-56994920D03*
D12*
%TO.N,GND*%
X119500000Y-32000000D03*
D13*
X131675000Y-66550000D03*
X128130000Y-71080000D03*
D12*
X128500000Y-79000000D03*
X136600000Y-70500000D03*
D13*
X126110000Y-71800000D03*
X129040060Y-60025386D03*
X132490000Y-61300000D03*
X115650000Y-58260000D03*
D12*
X118500000Y-79000000D03*
D13*
X114940000Y-65570000D03*
X127752015Y-60049168D03*
X118850000Y-54950000D03*
X119550000Y-57150000D03*
X119463269Y-65429723D03*
X118140000Y-61380000D03*
X117380000Y-68000000D03*
D12*
X137112953Y-56032359D03*
D13*
X126570000Y-71750000D03*
X126787953Y-55232359D03*
X117730000Y-55760000D03*
X118550000Y-69020000D03*
X119320000Y-67810000D03*
X119714422Y-58160000D03*
X118926830Y-56046017D03*
X116199500Y-60912032D03*
X117250000Y-61240000D03*
X122612953Y-54832359D03*
X121760000Y-65170000D03*
D12*
X127910000Y-65600000D03*
D13*
X117250000Y-69275000D03*
X127996750Y-58049597D03*
X115150000Y-65880000D03*
D12*
X126532400Y-65300000D03*
X126535611Y-48813830D03*
D13*
X117900000Y-59200000D03*
D12*
X105500000Y-79000000D03*
D13*
X115675000Y-62800000D03*
X129970000Y-69680000D03*
X123780000Y-72280000D03*
D12*
X126500000Y-32000000D03*
D13*
X131750000Y-58970000D03*
D12*
X105500000Y-50000000D03*
D13*
X119175000Y-71200000D03*
X126912953Y-56007359D03*
D12*
X112300000Y-53000000D03*
X118600000Y-49000000D03*
D13*
X119419424Y-59044884D03*
X129220000Y-70310000D03*
D12*
X105500000Y-32000000D03*
D13*
X130790000Y-60830000D03*
D12*
X129340000Y-67030000D03*
D13*
X132280000Y-60930000D03*
D12*
X111010000Y-75570000D03*
D13*
X115670000Y-60870000D03*
X124270000Y-72300000D03*
X117839500Y-61763971D03*
X125850000Y-53980000D03*
X130817600Y-63125000D03*
D12*
X129300000Y-68250000D03*
D13*
X130120000Y-57960000D03*
X127312953Y-59182359D03*
X114450000Y-60825000D03*
D12*
X105500000Y-39000000D03*
D13*
X121450000Y-53970000D03*
D12*
X141500000Y-32000000D03*
D13*
X115712799Y-61962799D03*
X125360000Y-55000000D03*
X127212953Y-57332359D03*
X117182983Y-61729099D03*
X130157403Y-60136004D03*
X126125953Y-55282359D03*
X118700000Y-70814300D03*
X117440000Y-56060000D03*
D12*
X105500000Y-60000000D03*
D13*
X123310000Y-53830000D03*
X131636861Y-65866861D03*
X116199500Y-63148112D03*
X128639058Y-70796960D03*
D12*
X105500000Y-70000000D03*
X141500000Y-76000000D03*
D13*
X122540000Y-57970000D03*
X123110913Y-57063069D03*
X122880000Y-53830000D03*
D12*
X141500000Y-64000000D03*
D13*
X118790000Y-68690000D03*
X124612953Y-60132359D03*
X116620000Y-56790000D03*
X121365438Y-55781859D03*
X117120000Y-67680000D03*
X119199089Y-67327201D03*
X114950000Y-66220000D03*
X122510000Y-71779500D03*
X123429143Y-57417583D03*
X115750000Y-57840000D03*
D12*
X141500000Y-41000000D03*
X141500000Y-52000000D03*
D13*
X123680000Y-53720000D03*
X122230000Y-65200000D03*
D12*
X111500000Y-72000000D03*
D13*
X126950000Y-54425000D03*
%TO.N,+3V3*%
X118690000Y-64700000D03*
X127960000Y-55020000D03*
X122982602Y-64583752D03*
D12*
X115090000Y-59130000D03*
D13*
X128199986Y-64272151D03*
X117800000Y-59580000D03*
X121230000Y-62430000D03*
D12*
X118282953Y-55882359D03*
X116610000Y-64280000D03*
D13*
X119460000Y-55180000D03*
D12*
X130975000Y-57825000D03*
%TO.N,+1V8*%
X126050000Y-60050000D03*
X121130000Y-55180000D03*
D13*
X128653195Y-55993801D03*
X124350000Y-59740000D03*
X123360000Y-65299502D03*
X126962953Y-58582359D03*
X128790000Y-57280000D03*
D12*
X118830000Y-58880000D03*
D13*
X123720000Y-71120000D03*
%TO.N,+2V5*%
X118960000Y-61950000D03*
X119130000Y-65800000D03*
X119086883Y-62690000D03*
X119918424Y-59090745D03*
X114950000Y-61210000D03*
X117318331Y-65127086D03*
D12*
%TO.N,+1V2*%
X118390000Y-59510000D03*
D13*
X125962953Y-59032359D03*
D12*
X122339166Y-54253530D03*
X120550000Y-55130000D03*
X115699500Y-61481830D03*
D13*
X125172953Y-57752359D03*
X123343135Y-56856914D03*
%TO.N,Net-(U8E-VCCPLL_DPHYx_)*%
X124251876Y-58943436D03*
X125202953Y-59212359D03*
%TO.N,+4V*%
X117000500Y-68480000D03*
X117650500Y-66298415D03*
X118230000Y-69490000D03*
%TO.N,Net-(U4-CBST+)*%
X117730500Y-69500117D03*
X116655289Y-67474132D03*
%TO.N,+7V*%
X115914316Y-65440048D03*
X122510000Y-71100498D03*
X115792138Y-66816339D03*
X118576751Y-65486992D03*
%TO.N,Net-(U4-ADJ+)*%
X116101307Y-67049745D03*
X118645500Y-66020000D03*
%TO.N,-7V*%
X123850000Y-72000000D03*
X121590000Y-71080000D03*
%TO.N,/FPGA/CRESET_{B}*%
X124487953Y-57207359D03*
%TD*%
D14*
%TO.N,/FPGA/GPIO2_{Ser}*%
X124889776Y-54919776D02*
X124920000Y-54919776D01*
X124860000Y-54890000D02*
X124889776Y-54919776D01*
X124829153Y-54920847D02*
X124860000Y-54890000D01*
X124829153Y-55959153D02*
X124829153Y-54920847D01*
X124920000Y-56050000D02*
X124829153Y-55959153D01*
X128860000Y-70153066D02*
X128860000Y-70330000D01*
X130250000Y-69240000D02*
X129773066Y-69240000D01*
X129773066Y-69240000D02*
X128860000Y-70153066D01*
X131800000Y-67170000D02*
X131070000Y-68090000D01*
X131972589Y-66216089D02*
X131968678Y-66220000D01*
X131070000Y-68420000D02*
X130250000Y-69240000D01*
X131972589Y-65606203D02*
X131972589Y-66216089D01*
X131968678Y-66220000D02*
X131800000Y-67170000D01*
X131070000Y-68090000D02*
X131070000Y-68420000D01*
%TO.N,/DC Tap & Regulation/3v3_{EN}*%
X130950000Y-67800000D02*
X131540000Y-67170000D01*
X131540000Y-67170000D02*
X131627887Y-66857044D01*
X130632195Y-67800000D02*
X130950000Y-67800000D01*
X130430000Y-68470000D02*
X130430000Y-68002195D01*
X130430000Y-68002195D02*
X130632195Y-67800000D01*
X129270000Y-68740000D02*
X130160000Y-68740000D01*
X123234300Y-71334300D02*
X126675700Y-71334300D01*
X122500000Y-70600000D02*
X123234300Y-71334300D01*
X126675700Y-71334300D02*
X129270000Y-68740000D01*
X117035700Y-69395176D02*
X118240523Y-70600000D01*
X117035700Y-69248766D02*
X117035700Y-69395176D01*
X130160000Y-68740000D02*
X130430000Y-68470000D01*
X118240523Y-70600000D02*
X122500000Y-70600000D01*
%TO.N,+7V*%
X122945202Y-71535700D02*
X122510000Y-71100498D01*
X126871234Y-71535700D02*
X122945202Y-71535700D01*
X129401934Y-69005000D02*
X126871234Y-71535700D01*
X130215000Y-69005000D02*
X129401934Y-69005000D01*
X130681465Y-68538535D02*
X130215000Y-69005000D01*
X130681465Y-68053796D02*
X130681465Y-68538535D01*
D15*
%TO.N,+1V8*%
X128166424Y-58783576D02*
X127213576Y-58783576D01*
X128790000Y-58160000D02*
X128166424Y-58783576D01*
X128790000Y-57280000D02*
X128790000Y-58160000D01*
D16*
X128653195Y-56323195D02*
X128653195Y-55993801D01*
X128790000Y-56460000D02*
X128653195Y-56323195D01*
X128790000Y-57280000D02*
X128790000Y-56460000D01*
D17*
%TO.N,+3V3*%
X130875000Y-57825000D02*
X130975000Y-57825000D01*
X128070000Y-55020000D02*
X130875000Y-57825000D01*
X127960000Y-55020000D02*
X128070000Y-55020000D01*
X119058087Y-55714065D02*
X118453087Y-55714065D01*
X118453087Y-55714065D02*
X118283576Y-55883576D01*
X120452152Y-54320000D02*
X119058087Y-55714065D01*
X121660000Y-54320000D02*
X120452152Y-54320000D01*
X122110000Y-53870000D02*
X121660000Y-54320000D01*
X122466441Y-53870000D02*
X122110000Y-53870000D01*
X122846441Y-54250000D02*
X122466441Y-53870000D01*
X125350000Y-54250000D02*
X122846441Y-54250000D01*
X125883576Y-54783576D02*
X125350000Y-54250000D01*
X127723576Y-54783576D02*
X125883576Y-54783576D01*
X127960000Y-55020000D02*
X127723576Y-54783576D01*
D14*
%TO.N,/FPGA/CRESET_{B}*%
X124277253Y-57862747D02*
X124277253Y-57418059D01*
X124100000Y-58040000D02*
X124277253Y-57862747D01*
X124277253Y-57418059D02*
X124487953Y-57207359D01*
D15*
%TO.N,+1V8*%
X128680000Y-63942389D02*
X128400000Y-63662389D01*
X128120000Y-65100000D02*
X128680000Y-64540000D01*
X128680000Y-64540000D02*
X128680000Y-63942389D01*
X127680000Y-65100000D02*
X128120000Y-65100000D01*
X123730000Y-69050000D02*
X127680000Y-65100000D01*
X123730000Y-69860000D02*
X123730000Y-69050000D01*
X128400000Y-63662389D02*
X122362389Y-63662389D01*
D14*
%TO.N,/DC Tap & Regulation/3v3_{EN}*%
X115550000Y-63450000D02*
X115700000Y-63300000D01*
X115550000Y-67763066D02*
X115550000Y-63450000D01*
X117035700Y-69248766D02*
X115550000Y-67763066D01*
D15*
%TO.N,+1V8*%
X118690000Y-69860000D02*
X118350000Y-70200000D01*
X118350000Y-70200000D02*
X118350000Y-70335700D01*
X123730000Y-69860000D02*
X118690000Y-69860000D01*
D17*
%TO.N,Net-(U4-CBST+)*%
X116952389Y-68862389D02*
X116655289Y-68565289D01*
X117402389Y-68862389D02*
X116952389Y-68862389D01*
X116655289Y-68565289D02*
X116655289Y-67474132D01*
X117730500Y-69190500D02*
X117402389Y-68862389D01*
X117730500Y-69500117D02*
X117730500Y-69190500D01*
%TO.N,+4V*%
X117515303Y-68335303D02*
X117435303Y-68335303D01*
X118230000Y-69050000D02*
X117515303Y-68335303D01*
X118230000Y-69490000D02*
X118230000Y-69050000D01*
X117435303Y-68335303D02*
X117290606Y-68480000D01*
X117800000Y-67970606D02*
X117435303Y-68335303D01*
X117290606Y-68480000D02*
X117000500Y-68480000D01*
X117800000Y-66447915D02*
X117800000Y-67970606D01*
X117650500Y-66298415D02*
X117800000Y-66447915D01*
%TO.N,+7V*%
X118293253Y-65770490D02*
X116244758Y-65770490D01*
X118576751Y-65486992D02*
X118293253Y-65770490D01*
D18*
X115792138Y-66223110D02*
X116244758Y-65770490D01*
X115792138Y-66816339D02*
X115792138Y-66223110D01*
D17*
%TO.N,+2V5*%
X117011245Y-64820000D02*
X117318331Y-65127086D01*
X116150000Y-64650000D02*
X116320000Y-64820000D01*
X116380000Y-63550000D02*
X116150000Y-63780000D01*
X116500000Y-63550000D02*
X118226883Y-63550000D01*
X118226883Y-63550000D02*
X119086883Y-62690000D01*
D18*
X114890000Y-61210000D02*
X114950000Y-61210000D01*
D17*
X116320000Y-64820000D02*
X117011245Y-64820000D01*
D18*
X114650000Y-62875000D02*
X114650000Y-61450000D01*
X114650000Y-61450000D02*
X114890000Y-61210000D01*
X115773800Y-63026200D02*
X114801200Y-63026200D01*
D17*
X116500000Y-63550000D02*
X116380000Y-63550000D01*
D18*
X116300000Y-62900000D02*
X115900000Y-62900000D01*
X116500000Y-63100000D02*
X116300000Y-62900000D01*
X114801200Y-63026200D02*
X114650000Y-62875000D01*
X115900000Y-62900000D02*
X115773800Y-63026200D01*
D17*
X116150000Y-63780000D02*
X116150000Y-64650000D01*
D18*
X116500000Y-63550000D02*
X116500000Y-63100000D01*
D14*
%TO.N,-7V*%
X121590000Y-70900000D02*
X121590000Y-71080000D01*
X120120000Y-70760000D02*
X121450000Y-70760000D01*
X120320000Y-71470000D02*
X120050000Y-71470000D01*
X120760500Y-71058100D02*
X120760500Y-71520000D01*
X121112900Y-71058100D02*
X121112900Y-71881900D01*
X119900000Y-71320000D02*
X119900000Y-70980000D01*
X121864480Y-71470000D02*
X121377200Y-71470000D01*
X123850000Y-72000000D02*
X123832899Y-72017101D01*
X120584300Y-71058100D02*
G75*
G03*
X120496200Y-70970000I-88100J0D01*
G01*
X120496200Y-70970000D02*
G75*
G03*
X120408100Y-71058100I0J-88100D01*
G01*
X122411581Y-72017101D02*
X121864480Y-71470000D01*
X121289100Y-71381900D02*
X121289100Y-71058100D01*
X120634300Y-71570000D02*
G75*
G02*
X120584300Y-71520000I0J50000D01*
G01*
X120760500Y-71520000D02*
G75*
G02*
X120710500Y-71570000I-50000J0D01*
G01*
X120848600Y-70970000D02*
G75*
G03*
X120760500Y-71058100I0J-88100D01*
G01*
X120936700Y-71058100D02*
G75*
G03*
X120848600Y-70970000I-88100J0D01*
G01*
X121024800Y-71970000D02*
G75*
G02*
X120936700Y-71881900I0J88100D01*
G01*
X121112900Y-71881900D02*
G75*
G02*
X121024800Y-71970000I-88100J0D01*
G01*
X120050000Y-71470000D02*
X119900000Y-71320000D01*
X121201000Y-70970000D02*
G75*
G03*
X121112900Y-71058100I0J-88100D01*
G01*
X120408100Y-71381900D02*
G75*
G02*
X120320000Y-71470000I-88100J0D01*
G01*
X121289100Y-71058100D02*
G75*
G03*
X121201000Y-70970000I-88100J0D01*
G01*
X119900000Y-70980000D02*
X120120000Y-70760000D01*
X121377200Y-71470000D02*
G75*
G02*
X121289100Y-71381900I0J88100D01*
G01*
X120584300Y-71520000D02*
X120584300Y-71058100D01*
X123832899Y-72017101D02*
X122411581Y-72017101D01*
X120710500Y-71570000D02*
X120634300Y-71570000D01*
X121450000Y-70760000D02*
X121590000Y-70900000D01*
X120936700Y-71881900D02*
X120936700Y-71058100D01*
X120408100Y-71058100D02*
X120408100Y-71381900D01*
D15*
%TO.N,+3V3*%
X116353576Y-58526424D02*
X115750000Y-59130000D01*
X123810000Y-64590000D02*
X123810000Y-65390000D01*
X115300000Y-59340000D02*
X115090000Y-59130000D01*
X118283576Y-55883576D02*
X118283576Y-55988576D01*
X118690000Y-64700000D02*
X118690000Y-64340000D01*
X119870000Y-64290000D02*
X119870000Y-62400000D01*
X118740000Y-64290000D02*
X116620000Y-64290000D01*
X127888385Y-64583752D02*
X128199986Y-64272151D01*
X115050000Y-62020000D02*
X115050000Y-61610000D01*
X123810000Y-65390000D02*
X123425000Y-65775000D01*
D17*
X118690000Y-64340000D02*
X118740000Y-64290000D01*
D15*
X115300000Y-61360000D02*
X115300000Y-59340000D01*
D16*
X117340000Y-60040000D02*
X116000000Y-60040000D01*
D15*
X118283576Y-55988576D02*
X116353576Y-57918576D01*
X118740000Y-64290000D02*
X119870000Y-64290000D01*
X123425000Y-65775000D02*
X121545000Y-65775000D01*
D16*
X117800000Y-59580000D02*
X117340000Y-60040000D01*
D15*
X115370000Y-62340000D02*
X115050000Y-62020000D01*
D14*
X119900000Y-62430000D02*
X119870000Y-62400000D01*
D15*
X116353576Y-57918576D02*
X116353576Y-58526424D01*
D16*
X116000000Y-60040000D02*
X115300000Y-59340000D01*
D15*
X120060000Y-64290000D02*
X119870000Y-64290000D01*
D17*
X119870000Y-62400000D02*
X119810000Y-62340000D01*
D14*
X121230000Y-62430000D02*
X119900000Y-62430000D01*
D15*
X121545000Y-65775000D02*
X120060000Y-64290000D01*
X122982602Y-64583752D02*
X127888385Y-64583752D01*
X115050000Y-61610000D02*
X115300000Y-61360000D01*
X115750000Y-59130000D02*
X115090000Y-59130000D01*
X116620000Y-64290000D02*
X116610000Y-64280000D01*
X119810000Y-62340000D02*
X115370000Y-62340000D01*
D16*
%TO.N,+1V8*%
X123720000Y-71120000D02*
X123720000Y-69870000D01*
D15*
X120359501Y-55950499D02*
X121130000Y-55180000D01*
X122362389Y-63662389D02*
X122362389Y-59711821D01*
D18*
X124373576Y-59716424D02*
X124350000Y-59740000D01*
D15*
X120213576Y-58333576D02*
X120037152Y-58510000D01*
X125613576Y-59613576D02*
X124373576Y-59613576D01*
X119200000Y-58510000D02*
X118830000Y-58880000D01*
X124373576Y-59613576D02*
X124033576Y-59613576D01*
X126963576Y-59156424D02*
X126070000Y-60050000D01*
X126070000Y-60050000D02*
X126050000Y-60050000D01*
X120037152Y-58510000D02*
X119200000Y-58510000D01*
X120359501Y-58329501D02*
X120359501Y-55950499D01*
X124024716Y-59604716D02*
X122255284Y-59604716D01*
X127213576Y-58783576D02*
X126963576Y-59033576D01*
X121634716Y-59604716D02*
X120359501Y-58329501D01*
X122362389Y-59711821D02*
X122255284Y-59604716D01*
D17*
X127163576Y-58783576D02*
X127213576Y-58783576D01*
X126963576Y-58583576D02*
X127163576Y-58783576D01*
D15*
X126050000Y-60050000D02*
X125613576Y-59613576D01*
X122255284Y-59604716D02*
X121634716Y-59604716D01*
D16*
X123720000Y-69870000D02*
X123730000Y-69860000D01*
D18*
X124373576Y-59613576D02*
X124373576Y-59716424D01*
D15*
X126963576Y-59033576D02*
X126963576Y-59156424D01*
X124033576Y-59613576D02*
X124024716Y-59604716D01*
D17*
%TO.N,+2V5*%
X119040000Y-61870000D02*
X119040000Y-61160000D01*
X117318331Y-65127086D02*
X118837086Y-65127086D01*
X118837086Y-65127086D02*
X119130000Y-65420000D01*
X119130000Y-65420000D02*
X119130000Y-65800000D01*
X119040000Y-61160000D02*
X119918424Y-60281576D01*
X118960000Y-61950000D02*
X119040000Y-61870000D01*
X119918424Y-60281576D02*
X119918424Y-59090745D01*
%TO.N,+1V2*%
X125963576Y-59023576D02*
X125173576Y-58233576D01*
D15*
X120546424Y-55083576D02*
X120849501Y-54780499D01*
D17*
X123753431Y-57563181D02*
X123759565Y-57557047D01*
D15*
X120849501Y-54780499D02*
X121504794Y-54780499D01*
D17*
X122944797Y-56458576D02*
X123343135Y-56856914D01*
D15*
X118390000Y-59520000D02*
X116428170Y-61481830D01*
D17*
X125963576Y-59033576D02*
X125963576Y-59023576D01*
D15*
X122339789Y-54254747D02*
X122339789Y-54301658D01*
X123728431Y-57718721D02*
X123728431Y-58218721D01*
D17*
X125173576Y-58233576D02*
X125173576Y-57753576D01*
D15*
X124963576Y-58383576D02*
X125113576Y-58233576D01*
X123728431Y-58218721D02*
X123893286Y-58383576D01*
X121913576Y-55858576D02*
X121913576Y-55189281D01*
D17*
X121913576Y-55858576D02*
X122513576Y-56458576D01*
X123759565Y-57557047D02*
X123759565Y-57281261D01*
D15*
X116428170Y-61481830D02*
X115699500Y-61481830D01*
X118390000Y-57205312D02*
X120465312Y-55130000D01*
X123893286Y-58383576D02*
X124913576Y-58383576D01*
D17*
X123728431Y-57718721D02*
X123753431Y-57693721D01*
X123753431Y-57693721D02*
X123753431Y-57563181D01*
D15*
X120513576Y-55083576D02*
X120546424Y-55083576D01*
X124913576Y-58383576D02*
X124963576Y-58383576D01*
X118390000Y-59510000D02*
X118390000Y-57205312D01*
X122339789Y-54301658D02*
X121682871Y-54958576D01*
X121504794Y-54780499D02*
X121682871Y-54958576D01*
X120465312Y-55130000D02*
X120550000Y-55130000D01*
D17*
X122513576Y-56458576D02*
X122944797Y-56458576D01*
X123759565Y-57281261D02*
X123341178Y-56862874D01*
D15*
X118390000Y-59510000D02*
X118390000Y-59520000D01*
X121913576Y-55189281D02*
X121682871Y-54958576D01*
D17*
%TO.N,Net-(U8E-VCCPLL_DPHYx_)*%
X125203576Y-59213576D02*
X124934653Y-58944653D01*
X124934653Y-58944653D02*
X124252499Y-58944653D01*
%TO.N,+7V*%
X116244758Y-65770490D02*
X115914316Y-65440048D01*
D18*
%TO.N,Net-(U4-ADJ+)*%
X116780000Y-66020000D02*
X118645500Y-66020000D01*
X116101307Y-67049745D02*
X116101307Y-66698693D01*
X116101307Y-66698693D02*
X116780000Y-66020000D01*
D15*
%TO.N,+1V8*%
X122362389Y-64652389D02*
X122362389Y-63662389D01*
D17*
X122985000Y-64945000D02*
X123339502Y-65299502D01*
X123339502Y-65299502D02*
X123360000Y-65299502D01*
X122362389Y-64652389D02*
X122655000Y-64945000D01*
X122655000Y-64945000D02*
X122985000Y-64945000D01*
%TD*%
%TA.AperFunction,Conductor*%
%TO.N,GND*%
G36*
X128807634Y-54989979D02*
G01*
X129025936Y-54999641D01*
X129068800Y-54993925D01*
X129097643Y-55001602D01*
X129112611Y-55027428D01*
X129112935Y-55032316D01*
X129112953Y-55032360D01*
X129173446Y-55092852D01*
X129184869Y-55120429D01*
X129173446Y-55148006D01*
X129170185Y-55150920D01*
X129141623Y-55173697D01*
X129107920Y-55243684D01*
X129102507Y-55254924D01*
X129102507Y-55345076D01*
X129103787Y-55347733D01*
X129141623Y-55426302D01*
X129212104Y-55482509D01*
X129212106Y-55482509D01*
X129212108Y-55482511D01*
X129300000Y-55502572D01*
X129387892Y-55482511D01*
X129392774Y-55478618D01*
X129458121Y-55426506D01*
X129486804Y-55418242D01*
X129510014Y-55429420D01*
X130973446Y-56892852D01*
X130984869Y-56920429D01*
X130973446Y-56948006D01*
X130970185Y-56950920D01*
X130941623Y-56973697D01*
X130915268Y-57028425D01*
X130902507Y-57054924D01*
X130902507Y-57145076D01*
X130917120Y-57175420D01*
X130941623Y-57226302D01*
X131012104Y-57282509D01*
X131012106Y-57282509D01*
X131012108Y-57282511D01*
X131100000Y-57302572D01*
X131187892Y-57282511D01*
X131187895Y-57282509D01*
X131258121Y-57226506D01*
X131286804Y-57218242D01*
X131310014Y-57229420D01*
X131508580Y-57427986D01*
X131520003Y-57455563D01*
X131520003Y-57455648D01*
X131519545Y-57664654D01*
X131519546Y-57664662D01*
X131560848Y-57888792D01*
X131642550Y-58101549D01*
X131699915Y-58199856D01*
X131699994Y-58199994D01*
X128700000Y-55200000D01*
X128700000Y-54965794D01*
X128807634Y-54989979D01*
G37*
%TD.AperFunction*%
%TA.AperFunction,Conductor*%
G36*
X143488577Y-30011423D02*
G01*
X143500000Y-30039000D01*
X143500000Y-85961000D01*
X143488577Y-85988577D01*
X143461000Y-86000000D01*
X103539000Y-86000000D01*
X103511423Y-85988577D01*
X103500000Y-85961000D01*
X103500000Y-62973487D01*
X111553359Y-62973487D01*
X111553359Y-62973496D01*
X111553359Y-62973506D01*
X111567504Y-63478136D01*
X111572672Y-63662523D01*
X111617747Y-64187280D01*
X111631663Y-64349279D01*
X111653056Y-64497485D01*
X111730135Y-65031485D01*
X111735953Y-65060038D01*
X111867766Y-65706901D01*
X111867768Y-65706910D01*
X111867769Y-65706913D01*
X112044088Y-66373238D01*
X112044092Y-66373251D01*
X112258530Y-67028332D01*
X112287010Y-67100893D01*
X112510367Y-67669968D01*
X112510370Y-67669975D01*
X112510375Y-67669987D01*
X112798764Y-68296019D01*
X112798765Y-68296021D01*
X113004227Y-68681828D01*
X113122762Y-68904406D01*
X113122775Y-68904430D01*
X113300000Y-69200000D01*
X113369427Y-69283760D01*
X113369428Y-69283760D01*
X113369433Y-69283766D01*
X113457365Y-69361302D01*
X113489755Y-69389863D01*
X113491538Y-69391538D01*
X116966120Y-72866120D01*
X116972647Y-72874778D01*
X117003502Y-72930399D01*
X117141468Y-73099877D01*
X117307090Y-73242449D01*
X117400000Y-73300000D01*
X117400014Y-73300008D01*
X117696849Y-73473046D01*
X117929556Y-73593454D01*
X118307169Y-73788841D01*
X118934605Y-74069102D01*
X119577087Y-74312904D01*
X120232499Y-74519443D01*
X120232506Y-74519444D01*
X120232510Y-74519446D01*
X120380121Y-74556803D01*
X120898680Y-74688040D01*
X121573437Y-74818138D01*
X121573447Y-74818139D01*
X121573451Y-74818140D01*
X121693201Y-74834169D01*
X122254546Y-74909310D01*
X122750507Y-74946907D01*
X122939737Y-74961252D01*
X122939741Y-74961252D01*
X122939765Y-74961254D01*
X123131505Y-74964755D01*
X123626803Y-74973801D01*
X123626815Y-74973800D01*
X123626834Y-74973801D01*
X124313492Y-74946907D01*
X124997476Y-74880663D01*
X125676533Y-74775286D01*
X125676540Y-74775284D01*
X125676543Y-74775284D01*
X125846777Y-74738757D01*
X126348426Y-74631123D01*
X127010940Y-74448650D01*
X127661895Y-74228467D01*
X128299145Y-73971299D01*
X128920591Y-73677995D01*
X129524185Y-73349520D01*
X130107940Y-72986956D01*
X130669933Y-72591498D01*
X131208311Y-72164448D01*
X131721301Y-71707214D01*
X132207214Y-71221301D01*
X132664448Y-70708311D01*
X133091498Y-70169933D01*
X133486956Y-69607940D01*
X133849520Y-69024185D01*
X134177995Y-68420591D01*
X134471299Y-67799145D01*
X134728467Y-67161895D01*
X134948650Y-66510940D01*
X135131123Y-65848426D01*
X135244985Y-65317756D01*
X135275284Y-65176543D01*
X135275286Y-65176533D01*
X135380663Y-64497476D01*
X135446907Y-63813492D01*
X135473801Y-63126834D01*
X135473800Y-63126815D01*
X135473801Y-63126803D01*
X135463356Y-62554894D01*
X135461254Y-62439765D01*
X135409310Y-61754546D01*
X135318138Y-61073437D01*
X135188040Y-60398680D01*
X135052467Y-59862989D01*
X135019446Y-59732510D01*
X135016448Y-59722998D01*
X134812904Y-59077087D01*
X134569102Y-58434605D01*
X134324312Y-57886580D01*
X134288847Y-57807182D01*
X134288845Y-57807179D01*
X134288841Y-57807169D01*
X134049498Y-57344604D01*
X133973046Y-57196849D01*
X133799993Y-56899988D01*
X133737494Y-56804692D01*
X133737493Y-56804691D01*
X133737490Y-56804686D01*
X133583485Y-56636686D01*
X133568511Y-56625434D01*
X133478692Y-56557940D01*
X133463508Y-56532242D01*
X133464404Y-56516842D01*
X133512953Y-56332359D01*
X132674024Y-55462359D01*
X131947982Y-54709426D01*
X131937062Y-54681646D01*
X131948985Y-54654281D01*
X131976056Y-54643355D01*
X131994051Y-54643355D01*
X131994053Y-54643355D01*
X132068289Y-54607605D01*
X132119662Y-54543185D01*
X132137997Y-54462855D01*
X132119662Y-54382525D01*
X132068289Y-54318105D01*
X131994053Y-54282355D01*
X131911657Y-54282355D01*
X131837420Y-54318105D01*
X131786048Y-54382524D01*
X131772753Y-54440771D01*
X131755480Y-54465115D01*
X131726052Y-54470114D01*
X131706657Y-54459163D01*
X130812954Y-53532359D01*
X130145550Y-53336063D01*
X130122317Y-53317323D01*
X130119655Y-53311272D01*
X130102377Y-53260770D01*
X130091931Y-53241938D01*
X129996388Y-53069683D01*
X129858444Y-52900212D01*
X129692845Y-52757643D01*
X129600000Y-52700000D01*
X129302240Y-52526438D01*
X128689944Y-52209880D01*
X128689934Y-52209875D01*
X128689927Y-52209872D01*
X128060423Y-51929138D01*
X127415769Y-51685145D01*
X127415770Y-51685145D01*
X127415764Y-51685143D01*
X127039759Y-51567116D01*
X126758121Y-51478710D01*
X126758098Y-51478704D01*
X126306309Y-51365030D01*
X126089664Y-51310520D01*
X126089663Y-51310519D01*
X126089660Y-51310519D01*
X125412635Y-51181138D01*
X125412630Y-51181137D01*
X125046934Y-51132895D01*
X124729283Y-51090991D01*
X124729274Y-51090990D01*
X124729264Y-51090989D01*
X124041838Y-51040376D01*
X123949944Y-51038921D01*
X123352664Y-51029466D01*
X123352632Y-51029466D01*
X122663953Y-51058296D01*
X122663933Y-51058297D01*
X121978090Y-51126767D01*
X121978061Y-51126771D01*
X121297301Y-51234655D01*
X121297271Y-51234661D01*
X120623882Y-51381596D01*
X120623849Y-51381604D01*
X119960007Y-51567116D01*
X119959996Y-51567119D01*
X119959995Y-51567120D01*
X119307939Y-51790588D01*
X119307931Y-51790591D01*
X119307920Y-51790595D01*
X118669867Y-52051254D01*
X118669820Y-52051275D01*
X118047835Y-52348283D01*
X117443977Y-52680659D01*
X116860281Y-53047283D01*
X116298678Y-53446944D01*
X115761062Y-53878293D01*
X115761055Y-53878299D01*
X115249185Y-54339922D01*
X115249158Y-54339947D01*
X114764776Y-54830274D01*
X114764744Y-54830309D01*
X114309427Y-55347733D01*
X113884635Y-55890608D01*
X113491862Y-56457030D01*
X113132377Y-57045160D01*
X112807395Y-57653018D01*
X112517988Y-58278590D01*
X112517984Y-58278598D01*
X112517983Y-58278602D01*
X112340658Y-58728248D01*
X112265106Y-58919826D01*
X112049612Y-59574537D01*
X112049605Y-59574562D01*
X111872201Y-60240614D01*
X111872196Y-60240636D01*
X111733475Y-60915803D01*
X111733471Y-60915826D01*
X111633897Y-61597840D01*
X111633891Y-61597888D01*
X111575110Y-62269430D01*
X111573789Y-62284522D01*
X111573331Y-62299977D01*
X111553359Y-62973487D01*
X103500000Y-62973487D01*
X103500000Y-47300000D01*
X130044858Y-47300000D01*
X130063193Y-47380330D01*
X130114566Y-47444750D01*
X130188802Y-47480500D01*
X130188804Y-47480500D01*
X130271196Y-47480500D01*
X130271198Y-47480500D01*
X130345434Y-47444750D01*
X130396807Y-47380330D01*
X130415142Y-47300000D01*
X130396807Y-47219670D01*
X130345434Y-47155250D01*
X130271198Y-47119500D01*
X130188802Y-47119500D01*
X130114565Y-47155250D01*
X130063193Y-47219669D01*
X130063193Y-47219670D01*
X130044858Y-47300000D01*
X103500000Y-47300000D01*
X103500000Y-40787498D01*
X117465403Y-40787498D01*
X117465403Y-40787501D01*
X117483745Y-40973733D01*
X117483745Y-40973734D01*
X117538068Y-41152809D01*
X117626283Y-41317848D01*
X117697187Y-41404244D01*
X117697187Y-41404245D01*
X118015151Y-41086280D01*
X118019901Y-41094507D01*
X118112993Y-41187599D01*
X118121217Y-41192347D01*
X117803253Y-41510311D01*
X117889651Y-41581216D01*
X118054690Y-41669431D01*
X118233765Y-41723754D01*
X118419998Y-41742097D01*
X118420002Y-41742097D01*
X118606233Y-41723754D01*
X118606234Y-41723754D01*
X118785309Y-41669431D01*
X118950345Y-41581217D01*
X119036744Y-41510310D01*
X118718781Y-41192347D01*
X118727007Y-41187599D01*
X118820099Y-41094507D01*
X118824847Y-41086281D01*
X119142810Y-41404244D01*
X119213717Y-41317845D01*
X119301931Y-41152809D01*
X119356254Y-40973734D01*
X119356254Y-40973733D01*
X119374597Y-40787501D01*
X119374597Y-40787498D01*
X119374597Y-40787496D01*
X120024375Y-40787496D01*
X120024375Y-40787503D01*
X120044819Y-40982022D01*
X120044821Y-40982029D01*
X120105263Y-41168052D01*
X120203061Y-41337445D01*
X120203063Y-41337447D01*
X120333945Y-41482805D01*
X120492187Y-41597775D01*
X120670876Y-41677332D01*
X120862201Y-41718000D01*
X120862203Y-41718000D01*
X121057797Y-41718000D01*
X121057799Y-41718000D01*
X121249124Y-41677332D01*
X121427813Y-41597775D01*
X121586055Y-41482805D01*
X121716937Y-41337447D01*
X121814736Y-41168053D01*
X121875179Y-40982027D01*
X121875341Y-40980493D01*
X121895625Y-40787503D01*
X121895625Y-40787496D01*
X122564375Y-40787496D01*
X122564375Y-40787503D01*
X122584819Y-40982022D01*
X122584821Y-40982029D01*
X122645263Y-41168052D01*
X122743061Y-41337445D01*
X122743063Y-41337447D01*
X122873945Y-41482805D01*
X123032187Y-41597775D01*
X123210876Y-41677332D01*
X123402201Y-41718000D01*
X123402203Y-41718000D01*
X123597797Y-41718000D01*
X123597799Y-41718000D01*
X123789124Y-41677332D01*
X123967813Y-41597775D01*
X124126055Y-41482805D01*
X124256937Y-41337447D01*
X124354736Y-41168053D01*
X124415179Y-40982027D01*
X124415341Y-40980493D01*
X124435625Y-40787503D01*
X124435625Y-40787496D01*
X125104375Y-40787496D01*
X125104375Y-40787503D01*
X125124819Y-40982022D01*
X125124821Y-40982029D01*
X125185263Y-41168052D01*
X125283061Y-41337445D01*
X125283063Y-41337447D01*
X125413945Y-41482805D01*
X125572187Y-41597775D01*
X125750876Y-41677332D01*
X125942201Y-41718000D01*
X125942203Y-41718000D01*
X126137797Y-41718000D01*
X126137799Y-41718000D01*
X126329124Y-41677332D01*
X126507813Y-41597775D01*
X126666055Y-41482805D01*
X126796937Y-41337447D01*
X126894736Y-41168053D01*
X126955179Y-40982027D01*
X126955341Y-40980493D01*
X126975625Y-40787503D01*
X126975625Y-40787498D01*
X127625403Y-40787498D01*
X127625403Y-40787501D01*
X127643745Y-40973733D01*
X127643745Y-40973734D01*
X127698068Y-41152809D01*
X127786283Y-41317848D01*
X127857187Y-41404244D01*
X127857187Y-41404245D01*
X128175151Y-41086280D01*
X128179901Y-41094507D01*
X128272993Y-41187599D01*
X128281217Y-41192347D01*
X127963253Y-41510311D01*
X128049651Y-41581216D01*
X128214690Y-41669431D01*
X128393765Y-41723754D01*
X128579998Y-41742097D01*
X128580002Y-41742097D01*
X128766233Y-41723754D01*
X128766234Y-41723754D01*
X128945309Y-41669431D01*
X129110345Y-41581217D01*
X129196744Y-41510310D01*
X128878781Y-41192347D01*
X128887007Y-41187599D01*
X128980099Y-41094507D01*
X128984847Y-41086281D01*
X129302810Y-41404244D01*
X129373717Y-41317845D01*
X129461931Y-41152809D01*
X129516254Y-40973734D01*
X129516254Y-40973733D01*
X129534597Y-40787501D01*
X129534597Y-40787498D01*
X129516254Y-40601266D01*
X129516254Y-40601265D01*
X129461931Y-40422190D01*
X129373716Y-40257151D01*
X129302811Y-40170754D01*
X129302811Y-40170753D01*
X128984847Y-40488717D01*
X128980099Y-40480493D01*
X128887007Y-40387401D01*
X128878780Y-40382651D01*
X129196745Y-40064687D01*
X129110348Y-39993783D01*
X128945309Y-39905568D01*
X128766234Y-39851245D01*
X128580002Y-39832903D01*
X128579998Y-39832903D01*
X128393766Y-39851245D01*
X128393765Y-39851245D01*
X128214690Y-39905568D01*
X128049651Y-39993783D01*
X127963253Y-40064687D01*
X128281218Y-40382652D01*
X128272993Y-40387401D01*
X128179901Y-40480493D01*
X128175152Y-40488718D01*
X127857187Y-40170753D01*
X127786283Y-40257151D01*
X127698068Y-40422190D01*
X127643745Y-40601265D01*
X127643745Y-40601266D01*
X127625403Y-40787498D01*
X126975625Y-40787498D01*
X126975625Y-40787496D01*
X126955180Y-40592977D01*
X126955178Y-40592970D01*
X126894736Y-40406947D01*
X126796938Y-40237554D01*
X126736790Y-40170754D01*
X126666055Y-40092195D01*
X126507813Y-39977225D01*
X126507809Y-39977223D01*
X126329125Y-39897668D01*
X126137800Y-39857000D01*
X126137799Y-39857000D01*
X125942201Y-39857000D01*
X125942199Y-39857000D01*
X125750872Y-39897668D01*
X125572191Y-39977223D01*
X125572188Y-39977224D01*
X125572188Y-39977225D01*
X125413945Y-40092195D01*
X125413943Y-40092196D01*
X125413943Y-40092197D01*
X125283061Y-40237554D01*
X125185263Y-40406947D01*
X125124821Y-40592970D01*
X125124819Y-40592977D01*
X125104375Y-40787496D01*
X124435625Y-40787496D01*
X124415180Y-40592977D01*
X124415178Y-40592970D01*
X124354736Y-40406947D01*
X124256938Y-40237554D01*
X124196790Y-40170754D01*
X124126055Y-40092195D01*
X123967813Y-39977225D01*
X123967809Y-39977223D01*
X123789125Y-39897668D01*
X123597800Y-39857000D01*
X123597799Y-39857000D01*
X123402201Y-39857000D01*
X123402199Y-39857000D01*
X123210872Y-39897668D01*
X123032191Y-39977223D01*
X123032188Y-39977224D01*
X123032188Y-39977225D01*
X122873945Y-40092195D01*
X122873943Y-40092196D01*
X122873943Y-40092197D01*
X122743061Y-40237554D01*
X122645263Y-40406947D01*
X122584821Y-40592970D01*
X122584819Y-40592977D01*
X122564375Y-40787496D01*
X121895625Y-40787496D01*
X121875180Y-40592977D01*
X121875178Y-40592970D01*
X121814736Y-40406947D01*
X121716938Y-40237554D01*
X121656790Y-40170754D01*
X121586055Y-40092195D01*
X121427813Y-39977225D01*
X121427809Y-39977223D01*
X121249125Y-39897668D01*
X121057800Y-39857000D01*
X121057799Y-39857000D01*
X120862201Y-39857000D01*
X120862199Y-39857000D01*
X120670872Y-39897668D01*
X120492191Y-39977223D01*
X120492188Y-39977224D01*
X120492188Y-39977225D01*
X120333945Y-40092195D01*
X120333943Y-40092196D01*
X120333943Y-40092197D01*
X120203061Y-40237554D01*
X120105263Y-40406947D01*
X120044821Y-40592970D01*
X120044819Y-40592977D01*
X120024375Y-40787496D01*
X119374597Y-40787496D01*
X119356254Y-40601266D01*
X119356254Y-40601265D01*
X119301931Y-40422190D01*
X119213716Y-40257151D01*
X119142811Y-40170754D01*
X119142811Y-40170753D01*
X118824847Y-40488717D01*
X118820099Y-40480493D01*
X118727007Y-40387401D01*
X118718780Y-40382651D01*
X119036745Y-40064687D01*
X118950348Y-39993783D01*
X118785309Y-39905568D01*
X118606234Y-39851245D01*
X118420002Y-39832903D01*
X118419998Y-39832903D01*
X118233766Y-39851245D01*
X118233765Y-39851245D01*
X118054690Y-39905568D01*
X117889651Y-39993783D01*
X117803253Y-40064687D01*
X118121218Y-40382652D01*
X118112993Y-40387401D01*
X118019901Y-40480493D01*
X118015152Y-40488718D01*
X117697187Y-40170753D01*
X117626283Y-40257151D01*
X117538068Y-40422190D01*
X117483745Y-40601265D01*
X117483745Y-40601266D01*
X117465403Y-40787498D01*
X103500000Y-40787498D01*
X103500000Y-38247496D01*
X117484375Y-38247496D01*
X117484375Y-38247503D01*
X117504819Y-38442022D01*
X117504821Y-38442029D01*
X117565263Y-38628052D01*
X117663061Y-38797445D01*
X117663063Y-38797447D01*
X117793945Y-38942805D01*
X117952187Y-39057775D01*
X118130876Y-39137332D01*
X118322201Y-39178000D01*
X118322203Y-39178000D01*
X118517797Y-39178000D01*
X118517799Y-39178000D01*
X118709124Y-39137332D01*
X118887813Y-39057775D01*
X119046055Y-38942805D01*
X119176937Y-38797447D01*
X119274736Y-38628053D01*
X119335179Y-38442027D01*
X119355625Y-38247500D01*
X119355625Y-38247496D01*
X120024375Y-38247496D01*
X120024375Y-38247503D01*
X120044819Y-38442022D01*
X120044821Y-38442029D01*
X120105263Y-38628052D01*
X120203061Y-38797445D01*
X120203063Y-38797447D01*
X120333945Y-38942805D01*
X120492187Y-39057775D01*
X120670876Y-39137332D01*
X120862201Y-39178000D01*
X120862203Y-39178000D01*
X121057797Y-39178000D01*
X121057799Y-39178000D01*
X121249124Y-39137332D01*
X121427813Y-39057775D01*
X121586055Y-38942805D01*
X121716937Y-38797447D01*
X121814736Y-38628053D01*
X121875179Y-38442027D01*
X121895625Y-38247500D01*
X121895625Y-38247496D01*
X122564375Y-38247496D01*
X122564375Y-38247503D01*
X122584819Y-38442022D01*
X122584821Y-38442029D01*
X122645263Y-38628052D01*
X122743061Y-38797445D01*
X122743063Y-38797447D01*
X122873945Y-38942805D01*
X123032187Y-39057775D01*
X123210876Y-39137332D01*
X123402201Y-39178000D01*
X123402203Y-39178000D01*
X123597797Y-39178000D01*
X123597799Y-39178000D01*
X123789124Y-39137332D01*
X123967813Y-39057775D01*
X124126055Y-38942805D01*
X124256937Y-38797447D01*
X124354736Y-38628053D01*
X124415179Y-38442027D01*
X124435625Y-38247500D01*
X124435625Y-38247496D01*
X125104375Y-38247496D01*
X125104375Y-38247503D01*
X125124819Y-38442022D01*
X125124821Y-38442029D01*
X125185263Y-38628052D01*
X125283061Y-38797445D01*
X125283063Y-38797447D01*
X125413945Y-38942805D01*
X125572187Y-39057775D01*
X125750876Y-39137332D01*
X125942201Y-39178000D01*
X125942203Y-39178000D01*
X126137797Y-39178000D01*
X126137799Y-39178000D01*
X126329124Y-39137332D01*
X126507813Y-39057775D01*
X126666055Y-38942805D01*
X126796937Y-38797447D01*
X126894736Y-38628053D01*
X126955179Y-38442027D01*
X126975625Y-38247500D01*
X126975625Y-38247496D01*
X126955180Y-38052977D01*
X126955178Y-38052970D01*
X126894736Y-37866947D01*
X126796938Y-37697554D01*
X126717007Y-37608783D01*
X127649500Y-37608783D01*
X127649500Y-38886216D01*
X127649501Y-38886238D01*
X127655835Y-38934354D01*
X127655837Y-38934359D01*
X127705094Y-39039991D01*
X127787509Y-39122406D01*
X127893141Y-39171663D01*
X127893142Y-39171663D01*
X127893145Y-39171664D01*
X127938825Y-39177677D01*
X127941276Y-39178000D01*
X127941284Y-39178000D01*
X129218716Y-39178000D01*
X129218724Y-39178000D01*
X129233877Y-39176005D01*
X129266854Y-39171664D01*
X129266855Y-39171663D01*
X129266859Y-39171663D01*
X129372491Y-39122406D01*
X129454906Y-39039991D01*
X129504163Y-38934359D01*
X129510500Y-38886224D01*
X129510500Y-37608776D01*
X129504163Y-37560641D01*
X129454906Y-37455009D01*
X129372491Y-37372594D01*
X129340482Y-37357668D01*
X129266860Y-37323337D01*
X129266854Y-37323335D01*
X129218738Y-37317001D01*
X129218728Y-37317000D01*
X129218724Y-37317000D01*
X127941276Y-37317000D01*
X127941272Y-37317000D01*
X127941261Y-37317001D01*
X127893145Y-37323335D01*
X127893139Y-37323337D01*
X127787508Y-37372594D01*
X127705094Y-37455008D01*
X127655837Y-37560639D01*
X127655835Y-37560645D01*
X127649501Y-37608761D01*
X127649500Y-37608783D01*
X126717007Y-37608783D01*
X126717001Y-37608776D01*
X126666055Y-37552195D01*
X126507813Y-37437225D01*
X126362649Y-37372594D01*
X126329125Y-37357668D01*
X126137800Y-37317000D01*
X126137799Y-37317000D01*
X125942201Y-37317000D01*
X125942199Y-37317000D01*
X125750872Y-37357668D01*
X125572191Y-37437223D01*
X125572188Y-37437224D01*
X125572188Y-37437225D01*
X125413945Y-37552195D01*
X125413943Y-37552196D01*
X125413943Y-37552197D01*
X125283061Y-37697554D01*
X125185263Y-37866947D01*
X125124821Y-38052970D01*
X125124819Y-38052977D01*
X125104375Y-38247496D01*
X124435625Y-38247496D01*
X124415180Y-38052977D01*
X124415178Y-38052970D01*
X124354736Y-37866947D01*
X124256938Y-37697554D01*
X124177001Y-37608776D01*
X124126055Y-37552195D01*
X123967813Y-37437225D01*
X123822649Y-37372594D01*
X123789125Y-37357668D01*
X123597800Y-37317000D01*
X123597799Y-37317000D01*
X123402201Y-37317000D01*
X123402199Y-37317000D01*
X123210872Y-37357668D01*
X123032191Y-37437223D01*
X123032188Y-37437224D01*
X123032188Y-37437225D01*
X122873945Y-37552195D01*
X122873943Y-37552196D01*
X122873943Y-37552197D01*
X122743061Y-37697554D01*
X122645263Y-37866947D01*
X122584821Y-38052970D01*
X122584819Y-38052977D01*
X122564375Y-38247496D01*
X121895625Y-38247496D01*
X121875180Y-38052977D01*
X121875178Y-38052970D01*
X121814736Y-37866947D01*
X121716938Y-37697554D01*
X121637001Y-37608776D01*
X121586055Y-37552195D01*
X121427813Y-37437225D01*
X121282649Y-37372594D01*
X121249125Y-37357668D01*
X121057800Y-37317000D01*
X121057799Y-37317000D01*
X120862201Y-37317000D01*
X120862199Y-37317000D01*
X120670872Y-37357668D01*
X120492191Y-37437223D01*
X120492188Y-37437224D01*
X120492188Y-37437225D01*
X120333945Y-37552195D01*
X120333943Y-37552196D01*
X120333943Y-37552197D01*
X120203061Y-37697554D01*
X120105263Y-37866947D01*
X120044821Y-38052970D01*
X120044819Y-38052977D01*
X120024375Y-38247496D01*
X119355625Y-38247496D01*
X119335180Y-38052977D01*
X119335178Y-38052970D01*
X119274736Y-37866947D01*
X119176938Y-37697554D01*
X119097001Y-37608776D01*
X119046055Y-37552195D01*
X118887813Y-37437225D01*
X118742649Y-37372594D01*
X118709125Y-37357668D01*
X118517800Y-37317000D01*
X118517799Y-37317000D01*
X118322201Y-37317000D01*
X118322199Y-37317000D01*
X118130872Y-37357668D01*
X117952191Y-37437223D01*
X117952188Y-37437224D01*
X117952188Y-37437225D01*
X117793945Y-37552195D01*
X117793943Y-37552196D01*
X117793943Y-37552197D01*
X117663061Y-37697554D01*
X117565263Y-37866947D01*
X117504821Y-38052970D01*
X117504819Y-38052977D01*
X117484375Y-38247496D01*
X103500000Y-38247496D01*
X103500000Y-30039000D01*
X103511423Y-30011423D01*
X103539000Y-30000000D01*
X143461000Y-30000000D01*
X143488577Y-30011423D01*
G37*
%TD.AperFunction*%
%TD*%
%TA.AperFunction,Conductor*%
%TO.N,GND*%
G36*
X131184164Y-68528714D02*
G01*
X131195587Y-68556291D01*
X131188214Y-68579111D01*
X131025698Y-68804347D01*
X131024170Y-68806327D01*
X130638157Y-69274814D01*
X130636505Y-69276693D01*
X130221248Y-69719479D01*
X130219480Y-69721247D01*
X129776693Y-70136505D01*
X129774814Y-70138157D01*
X129306328Y-70524170D01*
X129304348Y-70525698D01*
X128812074Y-70880891D01*
X128810000Y-70882289D01*
X128295952Y-71205208D01*
X128293792Y-71206469D01*
X127760135Y-71495753D01*
X127757899Y-71496874D01*
X127206790Y-71751359D01*
X127204487Y-71752335D01*
X126638170Y-71970980D01*
X126635809Y-71971805D01*
X126056672Y-72153688D01*
X126054262Y-72154361D01*
X125464632Y-72298752D01*
X125462185Y-72299268D01*
X124864539Y-72405563D01*
X124862064Y-72405922D01*
X124258825Y-72473688D01*
X124256331Y-72473888D01*
X123649972Y-72502846D01*
X123647472Y-72502885D01*
X123040506Y-72492916D01*
X123038007Y-72492794D01*
X122432951Y-72443939D01*
X122430466Y-72443658D01*
X122267173Y-72419861D01*
X122241531Y-72404581D01*
X122234205Y-72375645D01*
X122245218Y-72353693D01*
X122277496Y-72321416D01*
X122295597Y-72253864D01*
X122289152Y-72229813D01*
X122277496Y-72186312D01*
X122277494Y-72186309D01*
X122228047Y-72136862D01*
X122228044Y-72136860D01*
X122160494Y-72118760D01*
X122160492Y-72118760D01*
X122092941Y-72136860D01*
X122092938Y-72136862D01*
X122043491Y-72186309D01*
X122043489Y-72186312D01*
X122025389Y-72253863D01*
X122025389Y-72253864D01*
X122043489Y-72321415D01*
X122044759Y-72323614D01*
X122048654Y-72353208D01*
X122030482Y-72376889D01*
X122005359Y-72381705D01*
X121829768Y-72356116D01*
X121827306Y-72355676D01*
X121233478Y-72229813D01*
X121231049Y-72229217D01*
X121002256Y-72165156D01*
X120978780Y-72146720D01*
X120975215Y-72117085D01*
X120993651Y-72093609D01*
X121012771Y-72088600D01*
X121057540Y-72088600D01*
X121057540Y-72088599D01*
X121082991Y-72080330D01*
X121119806Y-72068369D01*
X121119808Y-72068367D01*
X121119810Y-72068367D01*
X121172781Y-72029881D01*
X121211267Y-71976910D01*
X121211267Y-71976908D01*
X121211269Y-71976906D01*
X121231499Y-71914640D01*
X121231500Y-71914639D01*
X121231500Y-71605576D01*
X121242923Y-71577999D01*
X121270500Y-71566576D01*
X121282551Y-71568485D01*
X121344459Y-71588599D01*
X121344460Y-71588600D01*
X121344462Y-71588600D01*
X121353609Y-71588600D01*
X121799200Y-71588600D01*
X121826777Y-71600023D01*
X122308807Y-72082052D01*
X122308820Y-72082067D01*
X122311036Y-72084283D01*
X122344399Y-72117646D01*
X122369934Y-72128222D01*
X122387990Y-72135702D01*
X122439709Y-72135702D01*
X122439717Y-72135701D01*
X123709572Y-72135701D01*
X123730515Y-72143030D01*
X123730606Y-72142843D01*
X123732266Y-72143642D01*
X123733888Y-72144210D01*
X123734563Y-72144748D01*
X123734565Y-72144749D01*
X123734566Y-72144750D01*
X123808802Y-72180500D01*
X123808804Y-72180500D01*
X123891196Y-72180500D01*
X123891198Y-72180500D01*
X123965434Y-72144750D01*
X124016807Y-72080330D01*
X124035142Y-72000000D01*
X124016807Y-71919670D01*
X123965434Y-71855250D01*
X123891198Y-71819500D01*
X123808802Y-71819500D01*
X123734565Y-71855250D01*
X123711785Y-71883817D01*
X123685660Y-71898256D01*
X123681293Y-71898501D01*
X122476860Y-71898501D01*
X122449283Y-71887078D01*
X121970512Y-71408306D01*
X121970508Y-71408300D01*
X121931663Y-71369456D01*
X121931662Y-71369455D01*
X121903743Y-71357891D01*
X121903742Y-71357890D01*
X121888074Y-71351400D01*
X121888073Y-71351399D01*
X121888071Y-71351399D01*
X121840889Y-71351399D01*
X121836352Y-71351399D01*
X121836344Y-71351400D01*
X121446700Y-71351400D01*
X121419123Y-71339977D01*
X121407700Y-71312400D01*
X121407700Y-71252359D01*
X121419123Y-71224782D01*
X121446700Y-71213359D01*
X121470249Y-71223113D01*
X121471129Y-71222010D01*
X121474563Y-71224748D01*
X121474565Y-71224749D01*
X121474566Y-71224750D01*
X121548802Y-71260500D01*
X121548804Y-71260500D01*
X121631196Y-71260500D01*
X121631198Y-71260500D01*
X121705434Y-71224750D01*
X121756807Y-71160330D01*
X121775142Y-71080000D01*
X121756807Y-70999670D01*
X121717108Y-70949889D01*
X121708601Y-70925575D01*
X121708601Y-70876411D01*
X121708600Y-70876407D01*
X121698241Y-70851400D01*
X121698240Y-70851398D01*
X121690545Y-70832818D01*
X121657182Y-70799455D01*
X121657180Y-70799454D01*
X121654959Y-70797233D01*
X121654959Y-70797232D01*
X121654951Y-70797226D01*
X121642902Y-70785177D01*
X121631479Y-70757600D01*
X121642902Y-70730023D01*
X121670479Y-70718600D01*
X122434720Y-70718600D01*
X122462297Y-70730023D01*
X122586442Y-70854168D01*
X122597865Y-70881745D01*
X122586442Y-70909322D01*
X122558865Y-70920745D01*
X122552237Y-70919998D01*
X122551198Y-70919998D01*
X122468802Y-70919998D01*
X122394565Y-70955748D01*
X122343193Y-71020167D01*
X122324858Y-71100498D01*
X122343193Y-71180828D01*
X122369942Y-71214371D01*
X122394566Y-71245248D01*
X122468802Y-71280998D01*
X122506620Y-71280998D01*
X122534197Y-71292421D01*
X122842431Y-71600655D01*
X122842434Y-71600659D01*
X122842435Y-71600659D01*
X122844656Y-71602880D01*
X122844657Y-71602882D01*
X122866678Y-71624903D01*
X122878021Y-71636246D01*
X122883705Y-71638600D01*
X122883710Y-71638601D01*
X122921611Y-71654301D01*
X122973331Y-71654301D01*
X122973339Y-71654300D01*
X126843098Y-71654300D01*
X126843106Y-71654301D01*
X126847643Y-71654301D01*
X126894824Y-71654301D01*
X126894825Y-71654301D01*
X126916620Y-71645272D01*
X126938416Y-71636245D01*
X126971779Y-71602882D01*
X126977260Y-71597401D01*
X126977264Y-71597394D01*
X129439637Y-69135023D01*
X129467214Y-69123600D01*
X129627585Y-69123600D01*
X129655162Y-69135023D01*
X129666585Y-69162600D01*
X129655162Y-69190177D01*
X128759456Y-70085882D01*
X128759455Y-70085884D01*
X128741399Y-70129474D01*
X128741399Y-70175575D01*
X128732891Y-70199889D01*
X128693193Y-70249670D01*
X128693193Y-70249671D01*
X128674858Y-70330000D01*
X128693193Y-70410330D01*
X128740759Y-70469977D01*
X128744566Y-70474750D01*
X128818802Y-70510500D01*
X128818804Y-70510500D01*
X128901196Y-70510500D01*
X128901198Y-70510500D01*
X128975434Y-70474750D01*
X129026807Y-70410330D01*
X129045142Y-70330000D01*
X129026807Y-70249670D01*
X129026806Y-70249668D01*
X129006084Y-70223683D01*
X128997821Y-70195000D01*
X129008998Y-70171792D01*
X129810769Y-69370023D01*
X129838346Y-69358600D01*
X130221864Y-69358600D01*
X130221872Y-69358601D01*
X130226409Y-69358601D01*
X130273588Y-69358601D01*
X130273591Y-69358601D01*
X130296020Y-69349310D01*
X130317182Y-69340545D01*
X130350545Y-69307182D01*
X130350545Y-69307181D01*
X130356026Y-69301701D01*
X130356030Y-69301694D01*
X131129011Y-68528713D01*
X131156587Y-68517291D01*
X131184164Y-68528714D01*
G37*
%TD.AperFunction*%
%TA.AperFunction,Conductor*%
G36*
X116945055Y-69474138D02*
G01*
X116953133Y-69480336D01*
X116971724Y-69498927D01*
X116971734Y-69498935D01*
X118137749Y-70664951D01*
X118137762Y-70664966D01*
X118139978Y-70667182D01*
X118173341Y-70700545D01*
X118198876Y-70711121D01*
X118216932Y-70718601D01*
X118268651Y-70718601D01*
X118268659Y-70718600D01*
X119899520Y-70718600D01*
X119927097Y-70730023D01*
X119938520Y-70757600D01*
X119927097Y-70785177D01*
X119832819Y-70879454D01*
X119799456Y-70912816D01*
X119799454Y-70912819D01*
X119794993Y-70923591D01*
X119794992Y-70923591D01*
X119781399Y-70956408D01*
X119781399Y-71008127D01*
X119781400Y-71008136D01*
X119781400Y-71125757D01*
X119769977Y-71153334D01*
X119742400Y-71164757D01*
X119714823Y-71153334D01*
X119708624Y-71145256D01*
X119707001Y-71142445D01*
X119657554Y-71092998D01*
X119657551Y-71092996D01*
X119590001Y-71074896D01*
X119589999Y-71074896D01*
X119522448Y-71092996D01*
X119522445Y-71092998D01*
X119472998Y-71142445D01*
X119472996Y-71142448D01*
X119454896Y-71209999D01*
X119454896Y-71210000D01*
X119472996Y-71277551D01*
X119472998Y-71277554D01*
X119522445Y-71327001D01*
X119522448Y-71327003D01*
X119589999Y-71345104D01*
X119590000Y-71345104D01*
X119590001Y-71345104D01*
X119623776Y-71336053D01*
X119657552Y-71327003D01*
X119707003Y-71277552D01*
X119707003Y-71277550D01*
X119708623Y-71274746D01*
X119732302Y-71256574D01*
X119761897Y-71260468D01*
X119780069Y-71284147D01*
X119781399Y-71294244D01*
X119781399Y-71343590D01*
X119784634Y-71351400D01*
X119799455Y-71387182D01*
X119799456Y-71387183D01*
X119838300Y-71426028D01*
X119838306Y-71426032D01*
X119947229Y-71534955D01*
X119947232Y-71534959D01*
X119949455Y-71537182D01*
X119982818Y-71570545D01*
X120000815Y-71577999D01*
X120004613Y-71579572D01*
X120004614Y-71579573D01*
X120018357Y-71585265D01*
X120026409Y-71588601D01*
X120026412Y-71588601D01*
X120078128Y-71588601D01*
X120078136Y-71588600D01*
X120270379Y-71588600D01*
X120297956Y-71600023D01*
X120309379Y-71627600D01*
X120297956Y-71655177D01*
X120291551Y-71661581D01*
X120291549Y-71661584D01*
X120273449Y-71729135D01*
X120273449Y-71729136D01*
X120291549Y-71796687D01*
X120291551Y-71796690D01*
X120340998Y-71846137D01*
X120341001Y-71846139D01*
X120408552Y-71864240D01*
X120408553Y-71864240D01*
X120408554Y-71864240D01*
X120461244Y-71850121D01*
X120476105Y-71846139D01*
X120525556Y-71796688D01*
X120543657Y-71729136D01*
X120543657Y-71729135D01*
X120543657Y-71724001D01*
X120546009Y-71724001D01*
X120548660Y-71703752D01*
X120572327Y-71685563D01*
X120597373Y-71687195D01*
X120600763Y-71688600D01*
X120744037Y-71688600D01*
X120764176Y-71680257D01*
X120794024Y-71680257D01*
X120815131Y-71701364D01*
X120818100Y-71716289D01*
X120818100Y-71914640D01*
X120838330Y-71976906D01*
X120838335Y-71976914D01*
X120855109Y-72000000D01*
X120876819Y-72029881D01*
X120925373Y-72065158D01*
X120940969Y-72090608D01*
X120934001Y-72119633D01*
X120908550Y-72135229D01*
X120891934Y-72134265D01*
X120646464Y-72065534D01*
X120644078Y-72064782D01*
X120071239Y-71863981D01*
X120068906Y-71863079D01*
X119510075Y-71625954D01*
X119507805Y-71624903D01*
X118965212Y-71352387D01*
X118963279Y-71351347D01*
X118700470Y-71200267D01*
X118699413Y-71199637D01*
X118607019Y-71142571D01*
X118607018Y-71142570D01*
X118607014Y-71142568D01*
X118405550Y-71057896D01*
X118405548Y-71057895D01*
X118405547Y-71057895D01*
X118330448Y-71041016D01*
X118306047Y-71023824D01*
X118300000Y-71002965D01*
X118300000Y-71000000D01*
X118299999Y-70999998D01*
X116848697Y-69548696D01*
X116837274Y-69521119D01*
X116848697Y-69493542D01*
X116866178Y-69483448D01*
X116915463Y-69470242D01*
X116945055Y-69474138D01*
G37*
%TD.AperFunction*%
%TA.AperFunction,Conductor*%
G36*
X123959513Y-53507081D02*
G01*
X123961973Y-53507202D01*
X124567053Y-53556058D01*
X124569530Y-53556338D01*
X125170258Y-53643885D01*
X125172668Y-53644316D01*
X125745967Y-53765827D01*
X125766522Y-53770184D01*
X125768954Y-53770780D01*
X126353543Y-53934465D01*
X126355916Y-53935213D01*
X126928762Y-54136016D01*
X126931090Y-54136916D01*
X127489940Y-54374049D01*
X127492182Y-54375087D01*
X128034797Y-54647614D01*
X128036714Y-54648646D01*
X128299456Y-54799686D01*
X128300426Y-54800264D01*
X128392982Y-54857421D01*
X128594434Y-54942074D01*
X128700000Y-54965794D01*
X128700000Y-55200000D01*
X131699994Y-58199994D01*
X131700041Y-58200075D01*
X131851347Y-58463278D01*
X131852387Y-58465211D01*
X132124903Y-59007804D01*
X132125954Y-59010074D01*
X132363079Y-59568905D01*
X132363981Y-59571238D01*
X132564783Y-60144081D01*
X132565535Y-60146466D01*
X132729215Y-60731041D01*
X132729811Y-60733471D01*
X132855676Y-61327308D01*
X132856116Y-61329770D01*
X132943658Y-61930465D01*
X132943939Y-61932950D01*
X132992794Y-62538007D01*
X132992916Y-62540506D01*
X133002885Y-63147472D01*
X133002846Y-63149972D01*
X132973888Y-63756330D01*
X132973688Y-63758824D01*
X132905922Y-64362063D01*
X132905563Y-64364538D01*
X132799269Y-64962184D01*
X132798753Y-64964631D01*
X132654361Y-65554261D01*
X132653688Y-65556671D01*
X132471805Y-66135808D01*
X132470980Y-66138169D01*
X132252335Y-66704487D01*
X132251359Y-66706790D01*
X131996874Y-67257898D01*
X131995753Y-67260134D01*
X131706469Y-67793791D01*
X131705208Y-67795951D01*
X131382290Y-68309999D01*
X131380892Y-68312073D01*
X131252883Y-68489484D01*
X131227483Y-68505164D01*
X131198436Y-68498291D01*
X131182756Y-68472891D01*
X131185225Y-68451739D01*
X131188601Y-68443591D01*
X131188601Y-68396409D01*
X131188601Y-68393272D01*
X131188600Y-68393258D01*
X131188600Y-68144928D01*
X131197048Y-68120688D01*
X131878584Y-67261767D01*
X131886799Y-67254040D01*
X131887252Y-67253725D01*
X131895621Y-67240620D01*
X131897915Y-67237404D01*
X131907569Y-67225239D01*
X131907717Y-67224718D01*
X131912358Y-67214417D01*
X131912649Y-67213962D01*
X131915362Y-67198676D01*
X131916258Y-67194799D01*
X131916345Y-67194495D01*
X131920521Y-67179869D01*
X131920457Y-67179314D01*
X131920802Y-67168038D01*
X132080732Y-66267310D01*
X132083098Y-66259213D01*
X132087301Y-66249068D01*
X132091190Y-66239680D01*
X132091190Y-66192498D01*
X132091190Y-66189361D01*
X132091189Y-66189347D01*
X132091189Y-65760628D01*
X132099697Y-65736313D01*
X132139396Y-65686533D01*
X132157731Y-65606203D01*
X132139396Y-65525873D01*
X132088023Y-65461453D01*
X132013787Y-65425703D01*
X131931391Y-65425703D01*
X131857154Y-65461453D01*
X131805782Y-65525872D01*
X131787447Y-65606203D01*
X131805781Y-65686532D01*
X131805782Y-65686533D01*
X131845480Y-65736313D01*
X131853989Y-65760628D01*
X131853989Y-66179207D01*
X131851021Y-66194131D01*
X131850077Y-66196410D01*
X131850077Y-66206125D01*
X131849476Y-66212943D01*
X131768424Y-66669422D01*
X131752356Y-66694578D01*
X131723207Y-66701003D01*
X131713104Y-66697742D01*
X131695194Y-66689117D01*
X131669085Y-66676544D01*
X131586689Y-66676544D01*
X131512452Y-66712294D01*
X131461080Y-66776713D01*
X131442745Y-66857044D01*
X131460436Y-66934555D01*
X131461080Y-66937374D01*
X131464195Y-66941281D01*
X131472460Y-66969961D01*
X131471253Y-66976136D01*
X131436217Y-67100895D01*
X131427137Y-67117008D01*
X130910138Y-67669059D01*
X130882950Y-67681379D01*
X130881672Y-67681400D01*
X130660331Y-67681400D01*
X130660323Y-67681399D01*
X130655786Y-67681399D01*
X130608604Y-67681399D01*
X130590548Y-67688878D01*
X130565013Y-67699455D01*
X130565012Y-67699456D01*
X130329456Y-67935011D01*
X130329454Y-67935014D01*
X130321901Y-67953251D01*
X130321900Y-67953251D01*
X130311399Y-67978603D01*
X130311399Y-68030322D01*
X130311400Y-68030331D01*
X130311400Y-68404720D01*
X130299977Y-68432297D01*
X130122297Y-68609977D01*
X130094720Y-68621400D01*
X129298136Y-68621400D01*
X129298128Y-68621399D01*
X129293591Y-68621399D01*
X129246409Y-68621399D01*
X129246408Y-68621399D01*
X129224612Y-68630426D01*
X129224613Y-68630427D01*
X129202819Y-68639454D01*
X129202816Y-68639456D01*
X129169454Y-68672819D01*
X126637997Y-71204277D01*
X126610420Y-71215700D01*
X125143566Y-71215700D01*
X125115989Y-71204277D01*
X125104566Y-71176700D01*
X125105895Y-71166606D01*
X125106391Y-71164757D01*
X125123945Y-71099245D01*
X125115079Y-71066159D01*
X125105844Y-71031693D01*
X125105842Y-71031690D01*
X125056395Y-70982243D01*
X125056392Y-70982241D01*
X124988842Y-70964141D01*
X124988840Y-70964141D01*
X124921289Y-70982241D01*
X124921286Y-70982243D01*
X124871839Y-71031690D01*
X124871838Y-71031693D01*
X124865122Y-71056755D01*
X124846950Y-71080436D01*
X124817356Y-71084331D01*
X124793675Y-71066159D01*
X124789780Y-71056753D01*
X124784636Y-71037555D01*
X124784635Y-71037554D01*
X124784634Y-71037552D01*
X124735187Y-70988105D01*
X124735184Y-70988103D01*
X124667634Y-70970003D01*
X124667632Y-70970003D01*
X124600081Y-70988103D01*
X124600078Y-70988105D01*
X124550631Y-71037552D01*
X124550629Y-71037555D01*
X124532529Y-71105106D01*
X124532529Y-71105107D01*
X124549008Y-71166606D01*
X124545112Y-71196200D01*
X124521431Y-71214371D01*
X124511337Y-71215700D01*
X123932203Y-71215700D01*
X123904626Y-71204277D01*
X123893203Y-71176700D01*
X123894181Y-71168021D01*
X123905142Y-71120000D01*
X123886807Y-71039670D01*
X123884006Y-71036157D01*
X123875500Y-71011844D01*
X123875500Y-70056631D01*
X123886923Y-70029054D01*
X123925408Y-69990569D01*
X123925409Y-69990568D01*
X123960500Y-69905849D01*
X123960500Y-69462399D01*
X127443335Y-69462399D01*
X127443335Y-69462400D01*
X127461435Y-69529951D01*
X127461437Y-69529954D01*
X127510884Y-69579401D01*
X127510887Y-69579403D01*
X127578438Y-69597504D01*
X127578439Y-69597504D01*
X127578440Y-69597504D01*
X127615005Y-69587706D01*
X127645991Y-69579403D01*
X127695442Y-69529952D01*
X127713543Y-69462400D01*
X127695442Y-69394848D01*
X127695440Y-69394845D01*
X127645993Y-69345398D01*
X127645990Y-69345396D01*
X127578440Y-69327296D01*
X127578438Y-69327296D01*
X127510887Y-69345396D01*
X127510884Y-69345398D01*
X127461437Y-69394845D01*
X127461435Y-69394848D01*
X127443335Y-69462399D01*
X123960500Y-69462399D01*
X123960500Y-69161630D01*
X123971923Y-69134053D01*
X125255976Y-67850000D01*
X129944191Y-67850000D01*
X129962711Y-67919121D01*
X129965065Y-67927904D01*
X129965067Y-67927908D01*
X130022092Y-67984933D01*
X130022093Y-67984933D01*
X130022095Y-67984935D01*
X130100000Y-68005809D01*
X130177905Y-67984935D01*
X130177906Y-67984933D01*
X130177908Y-67984933D01*
X130234933Y-67927908D01*
X130234933Y-67927906D01*
X130234935Y-67927905D01*
X130255809Y-67850000D01*
X130234935Y-67772096D01*
X130177905Y-67715065D01*
X130100000Y-67694191D01*
X130022096Y-67715065D01*
X130022093Y-67715067D01*
X129965067Y-67772093D01*
X129965065Y-67772096D01*
X129944191Y-67850000D01*
X125255976Y-67850000D01*
X125755976Y-67350000D01*
X129814191Y-67350000D01*
X129831852Y-67415915D01*
X129835065Y-67427904D01*
X129835067Y-67427908D01*
X129892092Y-67484933D01*
X129892093Y-67484933D01*
X129892095Y-67484935D01*
X129970000Y-67505809D01*
X130047905Y-67484935D01*
X130047906Y-67484933D01*
X130047908Y-67484933D01*
X130104933Y-67427908D01*
X130104933Y-67427906D01*
X130104935Y-67427905D01*
X130125809Y-67350000D01*
X130104935Y-67272096D01*
X130047905Y-67215065D01*
X129970000Y-67194191D01*
X129892096Y-67215065D01*
X129892093Y-67215067D01*
X129835067Y-67272093D01*
X129835065Y-67272096D01*
X129814191Y-67350000D01*
X125755976Y-67350000D01*
X126255975Y-66850001D01*
X129944193Y-66850001D01*
X129965067Y-66927905D01*
X129965069Y-66927909D01*
X130022094Y-66984934D01*
X130022095Y-66984934D01*
X130022097Y-66984936D01*
X130100002Y-67005810D01*
X130177907Y-66984936D01*
X130177908Y-66984934D01*
X130177910Y-66984934D01*
X130234935Y-66927909D01*
X130234935Y-66927907D01*
X130234937Y-66927906D01*
X130255811Y-66850001D01*
X130234937Y-66772097D01*
X130177907Y-66715066D01*
X130100002Y-66694192D01*
X130022098Y-66715066D01*
X130022095Y-66715068D01*
X129965069Y-66772094D01*
X129965067Y-66772097D01*
X129944193Y-66850001D01*
X126255975Y-66850001D01*
X126755976Y-66350000D01*
X129944191Y-66350000D01*
X129963106Y-66420595D01*
X129965065Y-66427904D01*
X129965067Y-66427908D01*
X130022092Y-66484933D01*
X130022093Y-66484933D01*
X130022095Y-66484935D01*
X130100000Y-66505809D01*
X130177905Y-66484935D01*
X130177906Y-66484933D01*
X130177908Y-66484933D01*
X130234933Y-66427908D01*
X130234933Y-66427906D01*
X130234935Y-66427905D01*
X130255809Y-66350000D01*
X130234935Y-66272096D01*
X130177905Y-66215065D01*
X130100000Y-66194191D01*
X130022096Y-66215065D01*
X130022093Y-66215067D01*
X129965067Y-66272093D01*
X129965065Y-66272096D01*
X129944191Y-66350000D01*
X126755976Y-66350000D01*
X127764054Y-65341923D01*
X127791631Y-65330500D01*
X128069605Y-65330500D01*
X128069613Y-65330501D01*
X128074150Y-65330501D01*
X128165850Y-65330501D01*
X128221172Y-65307585D01*
X128250568Y-65295409D01*
X128315409Y-65230568D01*
X128315409Y-65230567D01*
X128320890Y-65225087D01*
X128320894Y-65225080D01*
X128875409Y-64670568D01*
X128910501Y-64585849D01*
X128910501Y-64494150D01*
X128910501Y-64491013D01*
X128910500Y-64490999D01*
X128910500Y-63992784D01*
X128910501Y-63992775D01*
X128910501Y-63896541D01*
X128910501Y-63896540D01*
X128892954Y-63854180D01*
X128875409Y-63811821D01*
X128810568Y-63746980D01*
X128808348Y-63744760D01*
X128808341Y-63744754D01*
X128600896Y-63537309D01*
X128600892Y-63537303D01*
X128530569Y-63466981D01*
X128530568Y-63466980D01*
X128518480Y-63461973D01*
X128495476Y-63452444D01*
X128445850Y-63431888D01*
X128354150Y-63431888D01*
X128349613Y-63431888D01*
X128349605Y-63431889D01*
X122631889Y-63431889D01*
X122604312Y-63420466D01*
X122592889Y-63392889D01*
X122592889Y-59874216D01*
X122604312Y-59846639D01*
X122631889Y-59835216D01*
X123958578Y-59835216D01*
X123973502Y-59838184D01*
X123987727Y-59844077D01*
X124083963Y-59844077D01*
X124083971Y-59844076D01*
X124183348Y-59844076D01*
X124210925Y-59855499D01*
X124213840Y-59858760D01*
X124234417Y-59884564D01*
X124234566Y-59884750D01*
X124308802Y-59920500D01*
X124308804Y-59920500D01*
X124391196Y-59920500D01*
X124391198Y-59920500D01*
X124465434Y-59884750D01*
X124486160Y-59858759D01*
X124512285Y-59844321D01*
X124516652Y-59844076D01*
X125501946Y-59844076D01*
X125529523Y-59855499D01*
X125852365Y-60178341D01*
X125852368Y-60178345D01*
X125868243Y-60194220D01*
X125873093Y-60200129D01*
X125883819Y-60216181D01*
X125899873Y-60226908D01*
X125905776Y-60231753D01*
X125919432Y-60245409D01*
X125937270Y-60252797D01*
X125944014Y-60256402D01*
X125960063Y-60267126D01*
X125979001Y-60270893D01*
X125986304Y-60273108D01*
X126004151Y-60280501D01*
X126023459Y-60280501D01*
X126031067Y-60281250D01*
X126050000Y-60285016D01*
X126068933Y-60281250D01*
X126076541Y-60280501D01*
X126115849Y-60280501D01*
X126115850Y-60280501D01*
X126165476Y-60259944D01*
X126200568Y-60245409D01*
X126265409Y-60180568D01*
X126265409Y-60180567D01*
X126270890Y-60175087D01*
X126270894Y-60175080D01*
X126345975Y-60099999D01*
X128614896Y-60099999D01*
X128614896Y-60100000D01*
X128632996Y-60167551D01*
X128632998Y-60167554D01*
X128682445Y-60217001D01*
X128682448Y-60217003D01*
X128749999Y-60235104D01*
X128750000Y-60235104D01*
X128750001Y-60235104D01*
X128783776Y-60226053D01*
X128817552Y-60217003D01*
X128867003Y-60167552D01*
X128885104Y-60100000D01*
X128875753Y-60065104D01*
X128867003Y-60032448D01*
X128867001Y-60032445D01*
X128817554Y-59982998D01*
X128817551Y-59982996D01*
X128750001Y-59964896D01*
X128749999Y-59964896D01*
X128682448Y-59982996D01*
X128682445Y-59982998D01*
X128632998Y-60032445D01*
X128632996Y-60032448D01*
X128614896Y-60099999D01*
X126345975Y-60099999D01*
X126515975Y-59929999D01*
X129804896Y-59929999D01*
X129804896Y-59930000D01*
X129822996Y-59997551D01*
X129822998Y-59997554D01*
X129872445Y-60047001D01*
X129872448Y-60047003D01*
X129939999Y-60065104D01*
X129940000Y-60065104D01*
X129940001Y-60065104D01*
X129973776Y-60056053D01*
X130007552Y-60047003D01*
X130057003Y-59997552D01*
X130075104Y-59930000D01*
X130072558Y-59920500D01*
X130057003Y-59862448D01*
X130057001Y-59862445D01*
X130034555Y-59839999D01*
X130484896Y-59839999D01*
X130484896Y-59840000D01*
X130502996Y-59907551D01*
X130502998Y-59907554D01*
X130552445Y-59957001D01*
X130552448Y-59957003D01*
X130619999Y-59975104D01*
X130620000Y-59975104D01*
X130620001Y-59975104D01*
X130658096Y-59964896D01*
X130687552Y-59957003D01*
X130737003Y-59907552D01*
X130755104Y-59840000D01*
X130749188Y-59817923D01*
X130737003Y-59772448D01*
X130737001Y-59772445D01*
X130687554Y-59722998D01*
X130687551Y-59722996D01*
X130620001Y-59704896D01*
X130619999Y-59704896D01*
X130552448Y-59722996D01*
X130552445Y-59722998D01*
X130502998Y-59772445D01*
X130502996Y-59772448D01*
X130484896Y-59839999D01*
X130034555Y-59839999D01*
X130007554Y-59812998D01*
X130007551Y-59812996D01*
X129940001Y-59794896D01*
X129939999Y-59794896D01*
X129872448Y-59812996D01*
X129872445Y-59812998D01*
X129822998Y-59862445D01*
X129822996Y-59862448D01*
X129804896Y-59929999D01*
X126515975Y-59929999D01*
X127088656Y-59357318D01*
X127088663Y-59357314D01*
X127094144Y-59351833D01*
X127158985Y-59286992D01*
X127180151Y-59235891D01*
X129520507Y-59235891D01*
X129520507Y-59235892D01*
X129538607Y-59303443D01*
X129538609Y-59303446D01*
X129588056Y-59352893D01*
X129588059Y-59352895D01*
X129655610Y-59370996D01*
X129655611Y-59370996D01*
X129655612Y-59370996D01*
X129694778Y-59360501D01*
X129723163Y-59352895D01*
X129743700Y-59332358D01*
X131604896Y-59332358D01*
X131604896Y-59332359D01*
X131622996Y-59399910D01*
X131622998Y-59399913D01*
X131672445Y-59449360D01*
X131672448Y-59449362D01*
X131739999Y-59467463D01*
X131740000Y-59467463D01*
X131740001Y-59467463D01*
X131773776Y-59458412D01*
X131807552Y-59449362D01*
X131857003Y-59399911D01*
X131875104Y-59332359D01*
X131875093Y-59332319D01*
X131857003Y-59264807D01*
X131857001Y-59264804D01*
X131807554Y-59215357D01*
X131807551Y-59215355D01*
X131740001Y-59197255D01*
X131739999Y-59197255D01*
X131672448Y-59215355D01*
X131672445Y-59215357D01*
X131622998Y-59264804D01*
X131622996Y-59264807D01*
X131604896Y-59332358D01*
X129743700Y-59332358D01*
X129772614Y-59303444D01*
X129790715Y-59235892D01*
X129790304Y-59234360D01*
X129772614Y-59168340D01*
X129772612Y-59168337D01*
X129723165Y-59118890D01*
X129723162Y-59118888D01*
X129655612Y-59100788D01*
X129655610Y-59100788D01*
X129588059Y-59118888D01*
X129588056Y-59118890D01*
X129538609Y-59168337D01*
X129538607Y-59168340D01*
X129520507Y-59235891D01*
X127180151Y-59235891D01*
X127184428Y-59225565D01*
X127194076Y-59202274D01*
X127194076Y-59145206D01*
X127205499Y-59117629D01*
X127232668Y-59090460D01*
X130124897Y-59090460D01*
X130124897Y-59090461D01*
X130142997Y-59158012D01*
X130142999Y-59158015D01*
X130192446Y-59207462D01*
X130192449Y-59207464D01*
X130260000Y-59225565D01*
X130260001Y-59225565D01*
X130260002Y-59225565D01*
X130304620Y-59213609D01*
X130327553Y-59207464D01*
X130377004Y-59158013D01*
X130395105Y-59090461D01*
X130394495Y-59088186D01*
X130377004Y-59022909D01*
X130377002Y-59022906D01*
X130327555Y-58973459D01*
X130327552Y-58973457D01*
X130260002Y-58955357D01*
X130260000Y-58955357D01*
X130192449Y-58973457D01*
X130192446Y-58973459D01*
X130142999Y-59022906D01*
X130142997Y-59022909D01*
X130124897Y-59090460D01*
X127232668Y-59090460D01*
X127297629Y-59025499D01*
X127325206Y-59014076D01*
X128116029Y-59014076D01*
X128116037Y-59014077D01*
X128120574Y-59014077D01*
X128212273Y-59014077D01*
X128212274Y-59014077D01*
X128261900Y-58993520D01*
X128296992Y-58978985D01*
X128361833Y-58914144D01*
X128361833Y-58914143D01*
X128367314Y-58908663D01*
X128367318Y-58908656D01*
X128642400Y-58633575D01*
X129154896Y-58633575D01*
X129154896Y-58633576D01*
X129172996Y-58701127D01*
X129172998Y-58701130D01*
X129222445Y-58750577D01*
X129222448Y-58750579D01*
X129289999Y-58768680D01*
X129290000Y-58768680D01*
X129290001Y-58768680D01*
X129343497Y-58754345D01*
X129357552Y-58750579D01*
X129407003Y-58701128D01*
X129425104Y-58633576D01*
X129423221Y-58626550D01*
X129407003Y-58566024D01*
X129407001Y-58566021D01*
X129357554Y-58516574D01*
X129357551Y-58516572D01*
X129290001Y-58498472D01*
X129289999Y-58498472D01*
X129222448Y-58516572D01*
X129222445Y-58516574D01*
X129172998Y-58566021D01*
X129172996Y-58566024D01*
X129154896Y-58633575D01*
X128642400Y-58633575D01*
X128976478Y-58299499D01*
X129914896Y-58299499D01*
X129914896Y-58299500D01*
X129932996Y-58367051D01*
X129932998Y-58367054D01*
X129982445Y-58416501D01*
X129982448Y-58416503D01*
X130049999Y-58434604D01*
X130050000Y-58434604D01*
X130050001Y-58434604D01*
X130089887Y-58423916D01*
X130117552Y-58416503D01*
X130167003Y-58367052D01*
X130185104Y-58299500D01*
X130167003Y-58231948D01*
X130167001Y-58231945D01*
X130117554Y-58182498D01*
X130117551Y-58182496D01*
X130050001Y-58164396D01*
X130049999Y-58164396D01*
X129982448Y-58182496D01*
X129982445Y-58182498D01*
X129932998Y-58231945D01*
X129932996Y-58231948D01*
X129914896Y-58299499D01*
X128976478Y-58299499D01*
X128985409Y-58290568D01*
X129020501Y-58205849D01*
X129020501Y-58114150D01*
X129020501Y-58111013D01*
X129020500Y-58110999D01*
X129020500Y-57299999D01*
X129564896Y-57299999D01*
X129564896Y-57300000D01*
X129582996Y-57367551D01*
X129582998Y-57367554D01*
X129632445Y-57417001D01*
X129632448Y-57417003D01*
X129699999Y-57435104D01*
X129700000Y-57435104D01*
X129700001Y-57435104D01*
X129733776Y-57426053D01*
X129767552Y-57417003D01*
X129817003Y-57367552D01*
X129835104Y-57300000D01*
X129817003Y-57232448D01*
X129817001Y-57232445D01*
X129767554Y-57182998D01*
X129767551Y-57182996D01*
X129700001Y-57164896D01*
X129699999Y-57164896D01*
X129632448Y-57182996D01*
X129632445Y-57182998D01*
X129582998Y-57232445D01*
X129582996Y-57232448D01*
X129564896Y-57299999D01*
X129020500Y-57299999D01*
X129020500Y-57234151D01*
X129009925Y-57208620D01*
X128985409Y-57149432D01*
X128956923Y-57120946D01*
X128945500Y-57093369D01*
X128945500Y-56429069D01*
X128924795Y-56379084D01*
X128924794Y-56379081D01*
X128924794Y-56379082D01*
X128921825Y-56371914D01*
X128820118Y-56270207D01*
X128808695Y-56242630D01*
X128808695Y-56108115D01*
X128820118Y-56080538D01*
X128847695Y-56069115D01*
X128875272Y-56080538D01*
X130493053Y-57698319D01*
X130504476Y-57725896D01*
X130493053Y-57753473D01*
X130474332Y-57761227D01*
X130474959Y-57763567D01*
X130402448Y-57782996D01*
X130402445Y-57782998D01*
X130352998Y-57832445D01*
X130352996Y-57832448D01*
X130334896Y-57899999D01*
X130334896Y-57900000D01*
X130352996Y-57967551D01*
X130352998Y-57967554D01*
X130402445Y-58017001D01*
X130402448Y-58017003D01*
X130469999Y-58035104D01*
X130470000Y-58035104D01*
X130470001Y-58035104D01*
X130504647Y-58025820D01*
X130537552Y-58017003D01*
X130587003Y-57967552D01*
X130605104Y-57900000D01*
X130605104Y-57899999D01*
X130606433Y-57895041D01*
X130608772Y-57895667D01*
X130616527Y-57876947D01*
X130644104Y-57865524D01*
X130671681Y-57876947D01*
X130772755Y-57978021D01*
X130812280Y-57994392D01*
X130819007Y-57997989D01*
X130885063Y-58042126D01*
X130975000Y-58060016D01*
X131064937Y-58042126D01*
X131141181Y-57991181D01*
X131192126Y-57914937D01*
X131210016Y-57825000D01*
X131192126Y-57735063D01*
X131141181Y-57658819D01*
X131141180Y-57658818D01*
X131064939Y-57607875D01*
X131064938Y-57607874D01*
X131064937Y-57607874D01*
X130975000Y-57589984D01*
X130974999Y-57589984D01*
X130928925Y-57599148D01*
X130899649Y-57593324D01*
X130893740Y-57588474D01*
X128172246Y-54866980D01*
X128172245Y-54866979D01*
X128168302Y-54865346D01*
X128154077Y-54859454D01*
X128124599Y-54847244D01*
X128105904Y-54839500D01*
X128050920Y-54839500D01*
X128023343Y-54828077D01*
X127825821Y-54630555D01*
X127797277Y-54618732D01*
X127778910Y-54611124D01*
X127759480Y-54603076D01*
X125974495Y-54603076D01*
X125946918Y-54591653D01*
X125702776Y-54347511D01*
X125452245Y-54096979D01*
X125405334Y-54077548D01*
X125385904Y-54069500D01*
X122937361Y-54069500D01*
X122909784Y-54058077D01*
X122568686Y-53716979D01*
X122568684Y-53716978D01*
X122521775Y-53697548D01*
X122502345Y-53689500D01*
X122074096Y-53689500D01*
X122054665Y-53697548D01*
X122054664Y-53697548D01*
X122007756Y-53716978D01*
X122007753Y-53716980D01*
X121596657Y-54128077D01*
X121569080Y-54139500D01*
X120416248Y-54139500D01*
X120396817Y-54147548D01*
X120396816Y-54147548D01*
X120349908Y-54166978D01*
X120349905Y-54166980D01*
X119528808Y-54988077D01*
X119501231Y-54999500D01*
X119418802Y-54999500D01*
X119344565Y-55035250D01*
X119293193Y-55099669D01*
X119274858Y-55180000D01*
X119274858Y-55180002D01*
X119281587Y-55209488D01*
X119276587Y-55238915D01*
X119271142Y-55245742D01*
X118994744Y-55522142D01*
X118967167Y-55533565D01*
X118417183Y-55533565D01*
X118397752Y-55541613D01*
X118397751Y-55541613D01*
X118350841Y-55561044D01*
X118270232Y-55641653D01*
X118242655Y-55653076D01*
X118237723Y-55653076D01*
X118226112Y-55657885D01*
X118218800Y-55660103D01*
X118193019Y-55665232D01*
X118193011Y-55665235D01*
X118171155Y-55679838D01*
X118164416Y-55683440D01*
X118153012Y-55688164D01*
X118153009Y-55688166D01*
X118144274Y-55696900D01*
X118138368Y-55701746D01*
X118116772Y-55716177D01*
X118116771Y-55716178D01*
X118102340Y-55737774D01*
X118097493Y-55743680D01*
X118088166Y-55753007D01*
X118083117Y-55765196D01*
X118079516Y-55771933D01*
X118065826Y-55792423D01*
X118065825Y-55792425D01*
X118061018Y-55816592D01*
X118058800Y-55823904D01*
X118053076Y-55837724D01*
X118053076Y-55852680D01*
X118052327Y-55860288D01*
X118047188Y-55886125D01*
X118046333Y-55885955D01*
X118036514Y-55909661D01*
X116158168Y-57788007D01*
X116158167Y-57788007D01*
X116149033Y-57810060D01*
X116123075Y-57872726D01*
X116123075Y-57968962D01*
X116123076Y-57968971D01*
X116123076Y-58414794D01*
X116111653Y-58442371D01*
X115665947Y-58888077D01*
X115638370Y-58899500D01*
X115140395Y-58899500D01*
X115140387Y-58899499D01*
X115135850Y-58899499D01*
X115116541Y-58899499D01*
X115108933Y-58898750D01*
X115090000Y-58894984D01*
X115071067Y-58898750D01*
X115063459Y-58899499D01*
X115044150Y-58899499D01*
X115038760Y-58901731D01*
X115026303Y-58906890D01*
X115018993Y-58909107D01*
X115000064Y-58912873D01*
X114998479Y-58913530D01*
X114996765Y-58913529D01*
X114996297Y-58913623D01*
X114996278Y-58913529D01*
X114968629Y-58913527D01*
X114947524Y-58892419D01*
X114947527Y-58862569D01*
X114948127Y-58861198D01*
X115003127Y-58742091D01*
X115004244Y-58739864D01*
X115010541Y-58728248D01*
X115293537Y-58206191D01*
X115294779Y-58204063D01*
X115617721Y-57689979D01*
X115619092Y-57687945D01*
X115974313Y-57195630D01*
X115975811Y-57193690D01*
X116361859Y-56725161D01*
X116363472Y-56723327D01*
X116778761Y-56280506D01*
X116780506Y-56278761D01*
X117223327Y-55863472D01*
X117225161Y-55861859D01*
X117693690Y-55475811D01*
X117695630Y-55474313D01*
X118187945Y-55119092D01*
X118189979Y-55117721D01*
X118704063Y-54794779D01*
X118706191Y-54793537D01*
X119239873Y-54504239D01*
X119242091Y-54503127D01*
X119793237Y-54248625D01*
X119795482Y-54247674D01*
X120361852Y-54029008D01*
X120364166Y-54028200D01*
X120943333Y-53846307D01*
X120945731Y-53845637D01*
X121535376Y-53701241D01*
X121537805Y-53700729D01*
X122135486Y-53594430D01*
X122137911Y-53594078D01*
X122741198Y-53526307D01*
X122743646Y-53526110D01*
X123350045Y-53497149D01*
X123352509Y-53497111D01*
X123959513Y-53507081D01*
G37*
%TD.AperFunction*%
%TA.AperFunction,Conductor*%
G36*
X119298367Y-64531923D02*
G01*
X119309790Y-64559500D01*
X119298367Y-64587077D01*
X119252998Y-64632445D01*
X119252996Y-64632448D01*
X119234896Y-64699999D01*
X119234896Y-64700000D01*
X119252996Y-64767551D01*
X119252998Y-64767554D01*
X119302445Y-64817001D01*
X119302448Y-64817003D01*
X119369999Y-64835104D01*
X119370000Y-64835104D01*
X119370001Y-64835104D01*
X119405189Y-64825675D01*
X119437552Y-64817003D01*
X119487003Y-64767552D01*
X119505104Y-64700000D01*
X119497134Y-64670258D01*
X119487003Y-64632448D01*
X119487001Y-64632445D01*
X119441633Y-64587077D01*
X119430210Y-64559500D01*
X119441633Y-64531923D01*
X119469210Y-64520500D01*
X119824151Y-64520500D01*
X119948370Y-64520500D01*
X119975947Y-64531923D01*
X121347365Y-65903341D01*
X121347368Y-65903345D01*
X121349591Y-65905568D01*
X121414432Y-65970409D01*
X121471488Y-65994042D01*
X121499150Y-66005500D01*
X121499151Y-66005500D01*
X123374605Y-66005500D01*
X123374613Y-66005501D01*
X123379150Y-66005501D01*
X123470849Y-66005501D01*
X123470850Y-66005501D01*
X123520476Y-65984944D01*
X123555568Y-65970409D01*
X123620409Y-65905568D01*
X123620409Y-65905567D01*
X123625890Y-65900087D01*
X123625894Y-65900080D01*
X123935080Y-65590894D01*
X123935087Y-65590890D01*
X123940568Y-65585409D01*
X124005409Y-65520568D01*
X124034188Y-65451088D01*
X124040500Y-65435850D01*
X124040500Y-65344151D01*
X124040500Y-65299999D01*
X124664896Y-65299999D01*
X124664896Y-65300000D01*
X124682996Y-65367551D01*
X124682998Y-65367554D01*
X124732445Y-65417001D01*
X124732448Y-65417003D01*
X124799999Y-65435104D01*
X124800000Y-65435104D01*
X124800001Y-65435104D01*
X124835084Y-65425703D01*
X124867552Y-65417003D01*
X124917003Y-65367552D01*
X124928727Y-65323797D01*
X125164896Y-65323797D01*
X125164896Y-65323798D01*
X125182996Y-65391349D01*
X125182998Y-65391352D01*
X125232445Y-65440799D01*
X125232448Y-65440801D01*
X125299999Y-65458902D01*
X125300000Y-65458902D01*
X125300001Y-65458902D01*
X125333776Y-65449851D01*
X125367552Y-65440801D01*
X125417003Y-65391350D01*
X125435104Y-65323798D01*
X125434667Y-65322169D01*
X125417003Y-65256246D01*
X125417001Y-65256243D01*
X125367554Y-65206796D01*
X125367551Y-65206794D01*
X125300001Y-65188694D01*
X125299999Y-65188694D01*
X125232448Y-65206794D01*
X125232445Y-65206796D01*
X125182998Y-65256243D01*
X125182996Y-65256246D01*
X125164896Y-65323797D01*
X124928727Y-65323797D01*
X124935104Y-65300000D01*
X124933873Y-65295407D01*
X124917003Y-65232448D01*
X124917001Y-65232445D01*
X124867554Y-65182998D01*
X124867551Y-65182996D01*
X124800001Y-65164896D01*
X124799999Y-65164896D01*
X124732448Y-65182996D01*
X124732445Y-65182998D01*
X124682998Y-65232445D01*
X124682996Y-65232448D01*
X124664896Y-65299999D01*
X124040500Y-65299999D01*
X124040500Y-64853252D01*
X124051923Y-64825675D01*
X124079500Y-64814252D01*
X127571464Y-64814252D01*
X127599041Y-64825675D01*
X127610464Y-64853252D01*
X127599041Y-64880829D01*
X127586389Y-64889283D01*
X127549431Y-64904591D01*
X127549431Y-64904592D01*
X123534592Y-68919430D01*
X123534590Y-68919433D01*
X123520055Y-68954523D01*
X123499499Y-69004150D01*
X123499499Y-69100386D01*
X123499500Y-69100395D01*
X123499500Y-69590500D01*
X123488077Y-69618077D01*
X123460500Y-69629500D01*
X118740395Y-69629500D01*
X118740387Y-69629499D01*
X118735850Y-69629499D01*
X118644151Y-69629499D01*
X118559431Y-69664591D01*
X118559431Y-69664592D01*
X118219432Y-70004591D01*
X118154591Y-70069430D01*
X118147778Y-70085882D01*
X118147777Y-70085884D01*
X118119499Y-70154150D01*
X118119499Y-70217095D01*
X118108076Y-70244672D01*
X118080499Y-70256095D01*
X118052922Y-70244672D01*
X117165723Y-69357473D01*
X117154300Y-69329896D01*
X117154300Y-69276902D01*
X117154301Y-69276893D01*
X117154301Y-69225176D01*
X117154301Y-69225175D01*
X117145124Y-69203021D01*
X117136245Y-69181584D01*
X117102882Y-69148221D01*
X117100662Y-69146001D01*
X117100655Y-69145995D01*
X117064126Y-69109466D01*
X117052703Y-69081889D01*
X117064126Y-69054312D01*
X117091703Y-69042889D01*
X117311469Y-69042889D01*
X117339046Y-69054312D01*
X117538577Y-69253843D01*
X117550000Y-69281420D01*
X117550000Y-69475385D01*
X117549022Y-69484063D01*
X117545358Y-69500116D01*
X117545358Y-69500117D01*
X117549022Y-69516169D01*
X117550000Y-69524848D01*
X117550000Y-69536021D01*
X117556653Y-69552084D01*
X117558644Y-69558328D01*
X117563693Y-69580447D01*
X117569484Y-69587708D01*
X117570060Y-69588430D01*
X117575597Y-69597816D01*
X117577480Y-69602362D01*
X117577481Y-69602363D01*
X117594149Y-69619031D01*
X117597064Y-69622293D01*
X117615063Y-69644865D01*
X117615065Y-69644866D01*
X117615066Y-69644867D01*
X117618585Y-69646561D01*
X117624990Y-69651106D01*
X117625060Y-69651002D01*
X117628252Y-69653134D01*
X117628255Y-69653137D01*
X117655762Y-69664530D01*
X117657693Y-69665394D01*
X117689302Y-69680617D01*
X117689303Y-69680617D01*
X117771697Y-69680617D01*
X117771698Y-69680617D01*
X117803301Y-69665396D01*
X117805236Y-69664530D01*
X117832745Y-69653137D01*
X117832750Y-69653131D01*
X117835941Y-69651001D01*
X117836011Y-69651106D01*
X117842416Y-69646560D01*
X117845934Y-69644867D01*
X117863945Y-69622280D01*
X117866833Y-69619047D01*
X117883520Y-69602362D01*
X117885400Y-69597820D01*
X117890940Y-69588428D01*
X117897307Y-69580447D01*
X117902357Y-69558318D01*
X117904342Y-69552092D01*
X117911000Y-69536021D01*
X117911000Y-69524848D01*
X117911978Y-69516169D01*
X117915642Y-69500117D01*
X117915642Y-69500116D01*
X117911978Y-69484063D01*
X117911000Y-69475385D01*
X117911000Y-69154596D01*
X117898161Y-69123600D01*
X117883521Y-69088255D01*
X117504634Y-68709368D01*
X117457723Y-68689937D01*
X117438293Y-68681889D01*
X117438137Y-68681889D01*
X117437990Y-68681828D01*
X117434525Y-68681139D01*
X117434662Y-68680449D01*
X117410560Y-68670466D01*
X117399137Y-68642889D01*
X117410559Y-68615313D01*
X117425091Y-68600779D01*
X117447725Y-68578145D01*
X117475301Y-68566722D01*
X117502878Y-68578144D01*
X118038077Y-69113343D01*
X118049500Y-69140920D01*
X118049500Y-69465268D01*
X118048522Y-69473946D01*
X118044858Y-69489999D01*
X118044858Y-69490000D01*
X118048522Y-69506052D01*
X118049500Y-69514731D01*
X118049500Y-69525904D01*
X118056153Y-69541967D01*
X118058144Y-69548211D01*
X118063193Y-69570330D01*
X118069556Y-69578308D01*
X118069560Y-69578313D01*
X118075097Y-69587699D01*
X118076980Y-69592245D01*
X118076981Y-69592246D01*
X118093649Y-69608914D01*
X118096564Y-69612176D01*
X118114563Y-69634748D01*
X118114565Y-69634749D01*
X118114566Y-69634750D01*
X118118085Y-69636444D01*
X118124490Y-69640989D01*
X118124560Y-69640885D01*
X118127752Y-69643017D01*
X118127755Y-69643020D01*
X118155262Y-69654413D01*
X118157193Y-69655277D01*
X118188802Y-69670500D01*
X118188803Y-69670500D01*
X118271197Y-69670500D01*
X118271198Y-69670500D01*
X118302801Y-69655279D01*
X118304736Y-69654413D01*
X118332245Y-69643020D01*
X118332250Y-69643014D01*
X118335441Y-69640884D01*
X118335511Y-69640989D01*
X118341916Y-69636443D01*
X118345434Y-69634750D01*
X118363445Y-69612163D01*
X118366333Y-69608930D01*
X118383020Y-69592245D01*
X118384900Y-69587703D01*
X118390440Y-69578311D01*
X118396807Y-69570330D01*
X118401857Y-69548201D01*
X118403842Y-69541975D01*
X118410500Y-69525904D01*
X118410500Y-69514731D01*
X118411478Y-69506052D01*
X118415142Y-69490000D01*
X118415142Y-69489999D01*
X118411478Y-69473946D01*
X118410500Y-69465268D01*
X118410500Y-69014096D01*
X118390012Y-68964635D01*
X118390012Y-68964634D01*
X118383021Y-68947756D01*
X118383021Y-68947755D01*
X117758145Y-68322879D01*
X117746722Y-68295302D01*
X117758145Y-68267725D01*
X117831295Y-68194575D01*
X117953020Y-68072851D01*
X117960913Y-68053796D01*
X117980500Y-68006510D01*
X117980500Y-66412011D01*
X117972451Y-66392580D01*
X117953021Y-66345670D01*
X117824428Y-66217077D01*
X117813005Y-66189500D01*
X117824428Y-66161923D01*
X117852005Y-66150500D01*
X118499920Y-66150500D01*
X118527497Y-66161923D01*
X118529919Y-66164633D01*
X118530064Y-66164749D01*
X118530065Y-66164749D01*
X118530066Y-66164750D01*
X118604302Y-66200500D01*
X118604304Y-66200500D01*
X118686696Y-66200500D01*
X118686698Y-66200500D01*
X118760934Y-66164750D01*
X118812307Y-66100330D01*
X118830642Y-66020000D01*
X118812307Y-65939670D01*
X118760934Y-65875250D01*
X118686698Y-65839500D01*
X118604302Y-65839500D01*
X118570390Y-65855831D01*
X118540588Y-65857504D01*
X118518331Y-65837614D01*
X118516658Y-65807812D01*
X118525890Y-65793117D01*
X118678014Y-65640993D01*
X118688666Y-65633436D01*
X118692185Y-65631742D01*
X118710192Y-65609160D01*
X118713080Y-65605927D01*
X118729772Y-65589237D01*
X118731652Y-65584696D01*
X118737190Y-65575306D01*
X118743558Y-65567322D01*
X118748605Y-65545205D01*
X118750592Y-65538970D01*
X118757251Y-65522895D01*
X118757251Y-65511723D01*
X118758229Y-65503044D01*
X118761893Y-65486992D01*
X118761893Y-65486991D01*
X118758229Y-65470938D01*
X118757251Y-65462260D01*
X118757251Y-65451088D01*
X118750939Y-65435850D01*
X118750593Y-65435015D01*
X118748606Y-65428779D01*
X118743558Y-65406662D01*
X118743556Y-65406660D01*
X118743556Y-65406658D01*
X118737194Y-65398681D01*
X118731654Y-65389290D01*
X118729771Y-65384745D01*
X118728844Y-65383357D01*
X118728518Y-65381720D01*
X118728303Y-65381200D01*
X118728406Y-65381157D01*
X118723023Y-65354081D01*
X118739609Y-65329264D01*
X118768885Y-65323443D01*
X118788850Y-65334116D01*
X118938077Y-65483343D01*
X118949500Y-65510920D01*
X118949500Y-65775268D01*
X118948522Y-65783946D01*
X118944858Y-65799999D01*
X118944858Y-65800000D01*
X118948522Y-65816052D01*
X118949500Y-65824731D01*
X118949500Y-65835904D01*
X118956153Y-65851967D01*
X118958144Y-65858211D01*
X118963193Y-65880330D01*
X118969556Y-65888308D01*
X118969560Y-65888313D01*
X118975097Y-65897699D01*
X118976980Y-65902245D01*
X118976981Y-65902246D01*
X118993649Y-65918914D01*
X118996564Y-65922176D01*
X119014563Y-65944748D01*
X119014565Y-65944749D01*
X119014566Y-65944750D01*
X119018085Y-65946444D01*
X119024490Y-65950989D01*
X119024560Y-65950885D01*
X119027752Y-65953017D01*
X119027755Y-65953020D01*
X119055262Y-65964413D01*
X119057193Y-65965277D01*
X119088802Y-65980500D01*
X119088803Y-65980500D01*
X119171197Y-65980500D01*
X119171198Y-65980500D01*
X119202801Y-65965279D01*
X119204736Y-65964413D01*
X119232245Y-65953020D01*
X119232250Y-65953014D01*
X119235441Y-65950884D01*
X119235511Y-65950989D01*
X119241916Y-65946443D01*
X119245434Y-65944750D01*
X119263445Y-65922163D01*
X119266333Y-65918930D01*
X119283020Y-65902245D01*
X119284900Y-65897703D01*
X119290440Y-65888311D01*
X119296807Y-65880330D01*
X119301857Y-65858201D01*
X119303842Y-65851975D01*
X119310500Y-65835904D01*
X119310500Y-65824731D01*
X119311478Y-65816052D01*
X119315142Y-65800000D01*
X119315142Y-65799999D01*
X119311478Y-65783946D01*
X119310500Y-65775268D01*
X119310500Y-65384096D01*
X119308825Y-65380053D01*
X119293954Y-65344151D01*
X119283021Y-65317755D01*
X119142307Y-65177041D01*
X119674663Y-65177041D01*
X119674663Y-65177042D01*
X119692763Y-65244593D01*
X119692765Y-65244596D01*
X119742212Y-65294043D01*
X119742215Y-65294045D01*
X119809766Y-65312146D01*
X119809767Y-65312146D01*
X119809768Y-65312146D01*
X119855099Y-65299999D01*
X119877319Y-65294045D01*
X119926770Y-65244594D01*
X119944871Y-65177042D01*
X119941616Y-65164896D01*
X119926770Y-65109490D01*
X119926768Y-65109487D01*
X119877321Y-65060040D01*
X119877318Y-65060038D01*
X119809768Y-65041938D01*
X119809766Y-65041938D01*
X119742215Y-65060038D01*
X119742212Y-65060040D01*
X119692765Y-65109487D01*
X119692763Y-65109490D01*
X119674663Y-65177041D01*
X119142307Y-65177041D01*
X118939331Y-64974065D01*
X118892420Y-64954634D01*
X118872990Y-64946586D01*
X118863545Y-64946586D01*
X118835968Y-64935163D01*
X118824545Y-64907586D01*
X118835968Y-64880009D01*
X118885408Y-64830569D01*
X118885409Y-64830568D01*
X118920500Y-64745849D01*
X118920500Y-64559500D01*
X118931923Y-64531923D01*
X118959500Y-64520500D01*
X119270790Y-64520500D01*
X119298367Y-64531923D01*
G37*
%TD.AperFunction*%
%TA.AperFunction,Conductor*%
G36*
X114847113Y-59172980D02*
G01*
X114866772Y-59193410D01*
X114866866Y-59193636D01*
X114869107Y-59201004D01*
X114872872Y-59219933D01*
X114872875Y-59219939D01*
X114883599Y-59235989D01*
X114887203Y-59242731D01*
X114894591Y-59260568D01*
X114908243Y-59274220D01*
X114913093Y-59280129D01*
X114923819Y-59296181D01*
X114939873Y-59306908D01*
X114945777Y-59311754D01*
X114964914Y-59330892D01*
X114964920Y-59330896D01*
X115058077Y-59424053D01*
X115069500Y-59451630D01*
X115069500Y-61005140D01*
X115058077Y-61032717D01*
X115030500Y-61044140D01*
X115013579Y-61040278D01*
X114991198Y-61029500D01*
X114908802Y-61029500D01*
X114834565Y-61065250D01*
X114781146Y-61132237D01*
X114776109Y-61139334D01*
X114675537Y-61239907D01*
X114576078Y-61339366D01*
X114576077Y-61339367D01*
X114559369Y-61356075D01*
X114539367Y-61376076D01*
X114533547Y-61390123D01*
X114533547Y-61390125D01*
X114519499Y-61424042D01*
X114519499Y-61424044D01*
X114519499Y-61480494D01*
X114519500Y-61480503D01*
X114519500Y-62845891D01*
X114519499Y-62845905D01*
X114519499Y-62900959D01*
X114529854Y-62925955D01*
X114529855Y-62925958D01*
X114539366Y-62948921D01*
X114539368Y-62948924D01*
X114581558Y-62991115D01*
X114581567Y-62991121D01*
X114688338Y-63097892D01*
X114688351Y-63097907D01*
X114727275Y-63136832D01*
X114727276Y-63136832D01*
X114727277Y-63136833D01*
X114755374Y-63148470D01*
X114775242Y-63156701D01*
X114775244Y-63156701D01*
X114831695Y-63156701D01*
X114831703Y-63156700D01*
X115502425Y-63156700D01*
X115530002Y-63168123D01*
X115541425Y-63195700D01*
X115534522Y-63215429D01*
X115535101Y-63215708D01*
X115533193Y-63219669D01*
X115514858Y-63300000D01*
X115514858Y-63301261D01*
X115514217Y-63302808D01*
X115513880Y-63304285D01*
X115513629Y-63304227D01*
X115503435Y-63328838D01*
X115449456Y-63382816D01*
X115449454Y-63382819D01*
X115440427Y-63404613D01*
X115431399Y-63426408D01*
X115431399Y-63478127D01*
X115431400Y-63478136D01*
X115431400Y-67736324D01*
X115431399Y-67736338D01*
X115431399Y-67786656D01*
X115449455Y-67830248D01*
X115449456Y-67830249D01*
X115488300Y-67869094D01*
X115488306Y-67869098D01*
X116794749Y-69175541D01*
X116806172Y-69203118D01*
X116794749Y-69230695D01*
X116742998Y-69282445D01*
X116742997Y-69282448D01*
X116726551Y-69343820D01*
X116708379Y-69367500D01*
X116678785Y-69371396D01*
X116661303Y-69361302D01*
X115600001Y-68300000D01*
X115600000Y-68300000D01*
X115506607Y-68300000D01*
X115479030Y-68288577D01*
X115468350Y-68268577D01*
X115434267Y-68096487D01*
X115354927Y-67893920D01*
X115300056Y-67800098D01*
X115299920Y-67799862D01*
X115241240Y-67697786D01*
X115148646Y-67536714D01*
X115147610Y-67534789D01*
X114875087Y-66992182D01*
X114874049Y-66989940D01*
X114636916Y-66431090D01*
X114636016Y-66428762D01*
X114626165Y-66400658D01*
X114435213Y-65855916D01*
X114434463Y-65853537D01*
X114434023Y-65851967D01*
X114296194Y-65359716D01*
X114270780Y-65268952D01*
X114270184Y-65266522D01*
X114226420Y-65060040D01*
X114144316Y-64672668D01*
X114143885Y-64670258D01*
X114056338Y-64069530D01*
X114056058Y-64067049D01*
X114055721Y-64062873D01*
X114007202Y-63461973D01*
X114007081Y-63459513D01*
X113997111Y-62852509D01*
X113997149Y-62850045D01*
X114026110Y-62243646D01*
X114026307Y-62241198D01*
X114094078Y-61637911D01*
X114094430Y-61635486D01*
X114200729Y-61037805D01*
X114201244Y-61035367D01*
X114345636Y-60445737D01*
X114346309Y-60443327D01*
X114385833Y-60317479D01*
X114528200Y-59864166D01*
X114529008Y-59861852D01*
X114747674Y-59295482D01*
X114748625Y-59293237D01*
X114795357Y-59192035D01*
X114817288Y-59171789D01*
X114847113Y-59172980D01*
G37*
%TD.AperFunction*%
%TA.AperFunction,Conductor*%
G36*
X117484182Y-66161923D02*
G01*
X117495605Y-66189500D01*
X117487097Y-66213815D01*
X117483693Y-66218082D01*
X117483693Y-66218083D01*
X117478645Y-66240199D01*
X117476655Y-66246444D01*
X117470000Y-66262511D01*
X117470000Y-66273683D01*
X117469022Y-66282361D01*
X117465358Y-66298414D01*
X117465358Y-66298418D01*
X117466939Y-66305346D01*
X117461939Y-66334773D01*
X117437594Y-66352045D01*
X117408167Y-66347045D01*
X117396315Y-66334739D01*
X117345753Y-66284177D01*
X117345750Y-66284175D01*
X117278200Y-66266075D01*
X117278198Y-66266075D01*
X117210647Y-66284175D01*
X117210644Y-66284177D01*
X117161197Y-66333624D01*
X117161195Y-66333627D01*
X117143095Y-66401178D01*
X117143095Y-66401179D01*
X117161195Y-66468730D01*
X117161197Y-66468733D01*
X117210644Y-66518180D01*
X117210647Y-66518182D01*
X117278198Y-66536283D01*
X117278199Y-66536283D01*
X117278200Y-66536283D01*
X117311975Y-66527232D01*
X117345751Y-66518182D01*
X117395202Y-66468731D01*
X117410400Y-66412012D01*
X117414632Y-66396220D01*
X117415566Y-66396470D01*
X117424726Y-66374357D01*
X117452303Y-66362934D01*
X117479880Y-66374357D01*
X117482795Y-66377619D01*
X117490057Y-66386726D01*
X117495595Y-66396113D01*
X117497478Y-66400658D01*
X117497480Y-66400661D01*
X117514152Y-66417333D01*
X117517067Y-66420595D01*
X117535063Y-66443162D01*
X117535065Y-66443164D01*
X117535066Y-66443165D01*
X117538580Y-66444857D01*
X117549237Y-66452418D01*
X117608077Y-66511258D01*
X117619500Y-66538835D01*
X117619500Y-67879686D01*
X117608077Y-67907263D01*
X117227263Y-68288077D01*
X117199686Y-68299500D01*
X116959299Y-68299500D01*
X116927723Y-68314706D01*
X116925728Y-68315599D01*
X116898254Y-68326979D01*
X116896451Y-68328184D01*
X116867174Y-68334002D01*
X116842358Y-68317415D01*
X116835789Y-68295753D01*
X116835789Y-67498863D01*
X116836767Y-67490184D01*
X116840431Y-67474132D01*
X116840431Y-67474131D01*
X116836767Y-67458078D01*
X116835789Y-67449400D01*
X116835789Y-67438229D01*
X116835789Y-67438228D01*
X116829130Y-67422152D01*
X116827145Y-67415924D01*
X116825902Y-67410479D01*
X116830904Y-67381055D01*
X116855249Y-67363783D01*
X116880844Y-67366667D01*
X116888802Y-67370500D01*
X116888804Y-67370500D01*
X116971196Y-67370500D01*
X116971198Y-67370500D01*
X117045434Y-67334750D01*
X117096807Y-67270330D01*
X117115142Y-67190000D01*
X117096807Y-67109670D01*
X117045434Y-67045250D01*
X116971198Y-67009500D01*
X116888802Y-67009500D01*
X116814565Y-67045250D01*
X116763193Y-67109669D01*
X116744858Y-67190000D01*
X116759385Y-67253647D01*
X116754385Y-67283074D01*
X116730041Y-67300347D01*
X116704443Y-67297463D01*
X116696489Y-67293632D01*
X116696487Y-67293632D01*
X116614091Y-67293632D01*
X116614088Y-67293632D01*
X116582512Y-67308838D01*
X116580517Y-67309731D01*
X116553044Y-67321111D01*
X116549852Y-67323244D01*
X116549783Y-67323141D01*
X116543382Y-67327682D01*
X116539855Y-67329381D01*
X116539854Y-67329382D01*
X116521848Y-67351960D01*
X116518935Y-67355219D01*
X116502270Y-67371884D01*
X116502267Y-67371888D01*
X116500385Y-67376432D01*
X116494850Y-67385815D01*
X116488482Y-67393801D01*
X116483434Y-67415915D01*
X116481445Y-67422156D01*
X116474789Y-67438229D01*
X116474789Y-67449400D01*
X116473811Y-67458078D01*
X116470147Y-67474131D01*
X116470147Y-67474132D01*
X116473811Y-67490184D01*
X116474789Y-67498863D01*
X116474789Y-68425975D01*
X116463366Y-68453552D01*
X116435789Y-68464975D01*
X116408212Y-68453552D01*
X115680023Y-67725363D01*
X115668600Y-67697786D01*
X115668600Y-67019254D01*
X115680023Y-66991677D01*
X115707600Y-66980254D01*
X115724519Y-66984115D01*
X115750940Y-66996839D01*
X115750942Y-66996839D01*
X115833333Y-66996839D01*
X115833336Y-66996839D01*
X115866999Y-66980627D01*
X115896797Y-66978954D01*
X115919055Y-66998844D01*
X115921939Y-67024444D01*
X115916165Y-67049743D01*
X115916165Y-67049744D01*
X115934500Y-67130075D01*
X115985630Y-67194191D01*
X115985873Y-67194495D01*
X116060109Y-67230245D01*
X116060111Y-67230245D01*
X116142503Y-67230245D01*
X116142505Y-67230245D01*
X116216741Y-67194495D01*
X116268114Y-67130075D01*
X116286449Y-67049745D01*
X116268114Y-66969415D01*
X116245676Y-66941278D01*
X116240315Y-66934555D01*
X116231807Y-66910240D01*
X116231807Y-66768902D01*
X116243230Y-66741325D01*
X116822632Y-66161923D01*
X116850209Y-66150500D01*
X117456605Y-66150500D01*
X117484182Y-66161923D01*
G37*
%TD.AperFunction*%
%TA.AperFunction,Conductor*%
G36*
X116257368Y-63041923D02*
G01*
X116358077Y-63142632D01*
X116369500Y-63170209D01*
X116369500Y-63332918D01*
X116358077Y-63360495D01*
X116345425Y-63368949D01*
X116333582Y-63373854D01*
X116324665Y-63377548D01*
X116311940Y-63382819D01*
X116277756Y-63396978D01*
X116277753Y-63396980D01*
X115996980Y-63677753D01*
X115996978Y-63677756D01*
X115982841Y-63711889D01*
X115982840Y-63711889D01*
X115970400Y-63741923D01*
X115969500Y-63744096D01*
X115969500Y-64685904D01*
X115974609Y-64698238D01*
X115996979Y-64752245D01*
X116217755Y-64973021D01*
X116217756Y-64973021D01*
X116217757Y-64973022D01*
X116221994Y-64974776D01*
X116250925Y-64986760D01*
X116284096Y-65000500D01*
X116920325Y-65000500D01*
X116947902Y-65011923D01*
X117181983Y-65246004D01*
X117184898Y-65249266D01*
X117202894Y-65271833D01*
X117202897Y-65271836D01*
X117206412Y-65273529D01*
X117212819Y-65278075D01*
X117212889Y-65277971D01*
X117216084Y-65280105D01*
X117216086Y-65280107D01*
X117243563Y-65291487D01*
X117245531Y-65292366D01*
X117277133Y-65307586D01*
X117282427Y-65307586D01*
X117335194Y-65307586D01*
X117362771Y-65319009D01*
X117374194Y-65346586D01*
X117362771Y-65374163D01*
X117333498Y-65403435D01*
X117333496Y-65403438D01*
X117317735Y-65462260D01*
X117315396Y-65470990D01*
X117326414Y-65512110D01*
X117334128Y-65540896D01*
X117330232Y-65570490D01*
X117306551Y-65588661D01*
X117296457Y-65589990D01*
X116335677Y-65589990D01*
X116308100Y-65578567D01*
X116182056Y-65452523D01*
X116054466Y-65324932D01*
X116526271Y-65324932D01*
X116526271Y-65324933D01*
X116544371Y-65392484D01*
X116544373Y-65392487D01*
X116593820Y-65441934D01*
X116593823Y-65441936D01*
X116661374Y-65460037D01*
X116661375Y-65460037D01*
X116661376Y-65460037D01*
X116695151Y-65450986D01*
X116728927Y-65441936D01*
X116778378Y-65392485D01*
X116796479Y-65324933D01*
X116795738Y-65322169D01*
X116778378Y-65257381D01*
X116778376Y-65257378D01*
X116728929Y-65207931D01*
X116728926Y-65207929D01*
X116661376Y-65189829D01*
X116661374Y-65189829D01*
X116593823Y-65207929D01*
X116593820Y-65207931D01*
X116544373Y-65257378D01*
X116544371Y-65257381D01*
X116526271Y-65324932D01*
X116054466Y-65324932D01*
X116050662Y-65321128D01*
X116047751Y-65317871D01*
X116029750Y-65295298D01*
X116029749Y-65295297D01*
X116029748Y-65295296D01*
X116029747Y-65295295D01*
X116026232Y-65293603D01*
X116019825Y-65289057D01*
X116019756Y-65289162D01*
X116016561Y-65287027D01*
X116016556Y-65287025D01*
X115989075Y-65275642D01*
X115987090Y-65274754D01*
X115984546Y-65273529D01*
X115955514Y-65259548D01*
X115873118Y-65259548D01*
X115873115Y-65259548D01*
X115841546Y-65274751D01*
X115839550Y-65275644D01*
X115812073Y-65287025D01*
X115808877Y-65289161D01*
X115808808Y-65289058D01*
X115802407Y-65293599D01*
X115798881Y-65295297D01*
X115798881Y-65295298D01*
X115780879Y-65317871D01*
X115777967Y-65321130D01*
X115761294Y-65337804D01*
X115761292Y-65337807D01*
X115759410Y-65342350D01*
X115753873Y-65351736D01*
X115747509Y-65359715D01*
X115747509Y-65359716D01*
X115745622Y-65367985D01*
X115728348Y-65392328D01*
X115698920Y-65397327D01*
X115674577Y-65380053D01*
X115668600Y-65359305D01*
X115668600Y-63519500D01*
X115680023Y-63491923D01*
X115707600Y-63480500D01*
X115741196Y-63480500D01*
X115741198Y-63480500D01*
X115815434Y-63444750D01*
X115866807Y-63380330D01*
X115885142Y-63300000D01*
X115866807Y-63219670D01*
X115843317Y-63190214D01*
X115835054Y-63161534D01*
X115846232Y-63138322D01*
X115847719Y-63136834D01*
X115847723Y-63136833D01*
X115884433Y-63100123D01*
X115884433Y-63100121D01*
X115889917Y-63094638D01*
X115889921Y-63094633D01*
X115942632Y-63041923D01*
X115970209Y-63030500D01*
X116229791Y-63030500D01*
X116257368Y-63041923D01*
G37*
%TD.AperFunction*%
%TA.AperFunction,Conductor*%
G36*
X120316150Y-58612126D02*
G01*
X120316152Y-58612128D01*
X121437081Y-59733057D01*
X121437084Y-59733061D01*
X121439307Y-59735284D01*
X121504148Y-59800125D01*
X121564053Y-59824937D01*
X121588866Y-59835216D01*
X121588867Y-59835216D01*
X122092889Y-59835216D01*
X122120466Y-59846639D01*
X122131889Y-59874216D01*
X122131889Y-63616539D01*
X122131889Y-63616540D01*
X122131889Y-64698238D01*
X122166980Y-64782957D01*
X122231821Y-64847798D01*
X122316540Y-64882889D01*
X122321469Y-64882889D01*
X122349046Y-64894312D01*
X122501980Y-65047245D01*
X122552755Y-65098020D01*
X122619096Y-65125500D01*
X122645790Y-65125500D01*
X122673367Y-65136923D01*
X122684790Y-65164500D01*
X122673367Y-65192077D01*
X122652998Y-65212445D01*
X122652996Y-65212448D01*
X122634896Y-65279999D01*
X122634896Y-65280000D01*
X122652996Y-65347551D01*
X122652998Y-65347554D01*
X122702445Y-65397001D01*
X122702448Y-65397003D01*
X122769999Y-65415104D01*
X122770000Y-65415104D01*
X122770001Y-65415104D01*
X122813548Y-65403435D01*
X122837552Y-65397003D01*
X122887003Y-65347552D01*
X122905104Y-65280000D01*
X122904560Y-65277971D01*
X122898738Y-65256243D01*
X122887003Y-65212448D01*
X122887002Y-65212447D01*
X122884613Y-65208308D01*
X122880717Y-65178714D01*
X122898888Y-65155033D01*
X122928482Y-65151137D01*
X122945965Y-65161231D01*
X123092318Y-65307583D01*
X123237258Y-65452523D01*
X123276119Y-65468619D01*
X123276118Y-65468619D01*
X123278168Y-65469468D01*
X123299275Y-65490573D01*
X123299277Y-65520423D01*
X123278172Y-65541530D01*
X123263245Y-65544500D01*
X121656630Y-65544500D01*
X121629053Y-65533077D01*
X120260896Y-64164920D01*
X120260892Y-64164914D01*
X120190569Y-64094592D01*
X120190568Y-64094591D01*
X120166431Y-64084593D01*
X120155476Y-64080055D01*
X120124575Y-64067255D01*
X120103469Y-64046148D01*
X120100500Y-64031224D01*
X120100500Y-62587600D01*
X120111923Y-62560023D01*
X120139500Y-62548600D01*
X121074931Y-62548600D01*
X121102508Y-62560023D01*
X121105423Y-62563285D01*
X121114563Y-62574748D01*
X121114564Y-62574749D01*
X121114565Y-62574749D01*
X121114566Y-62574750D01*
X121188802Y-62610500D01*
X121188804Y-62610500D01*
X121271196Y-62610500D01*
X121271198Y-62610500D01*
X121345434Y-62574750D01*
X121396807Y-62510330D01*
X121415142Y-62430000D01*
X121396807Y-62349670D01*
X121345434Y-62285250D01*
X121271198Y-62249500D01*
X121188802Y-62249500D01*
X121114564Y-62285250D01*
X121114563Y-62285251D01*
X121105423Y-62296715D01*
X121079299Y-62311155D01*
X121074931Y-62311400D01*
X120108852Y-62311400D01*
X120081275Y-62299977D01*
X120072821Y-62287324D01*
X120065412Y-62269437D01*
X120065409Y-62269433D01*
X120065409Y-62269432D01*
X120000568Y-62204591D01*
X119940568Y-62144591D01*
X119855849Y-62109500D01*
X119149919Y-62109500D01*
X119122342Y-62098077D01*
X119110919Y-62070500D01*
X119122342Y-62042923D01*
X119134936Y-62030329D01*
X119193021Y-61972245D01*
X119220500Y-61905903D01*
X119220500Y-61834097D01*
X119220500Y-61356075D01*
X119533820Y-61356075D01*
X119533820Y-61356076D01*
X119551920Y-61423627D01*
X119551922Y-61423630D01*
X119601369Y-61473077D01*
X119601372Y-61473079D01*
X119668923Y-61491180D01*
X119668924Y-61491180D01*
X119668925Y-61491180D01*
X119708770Y-61480503D01*
X119736476Y-61473079D01*
X119785927Y-61423628D01*
X119804028Y-61356076D01*
X119799550Y-61339366D01*
X119785927Y-61288524D01*
X119785925Y-61288521D01*
X119736478Y-61239074D01*
X119736475Y-61239072D01*
X119668925Y-61220972D01*
X119668923Y-61220972D01*
X119601372Y-61239072D01*
X119601369Y-61239074D01*
X119551922Y-61288521D01*
X119551920Y-61288524D01*
X119533820Y-61356075D01*
X119220500Y-61356075D01*
X119220500Y-61250920D01*
X119231923Y-61223343D01*
X120071444Y-60383822D01*
X120071445Y-60383821D01*
X120098924Y-60317479D01*
X120098924Y-60245673D01*
X120098924Y-59115476D01*
X120099902Y-59106797D01*
X120102110Y-59097126D01*
X120103566Y-59090745D01*
X120101751Y-59082795D01*
X120099902Y-59074691D01*
X120098924Y-59066013D01*
X120098924Y-59054842D01*
X120098924Y-59054841D01*
X120092265Y-59038765D01*
X120090277Y-59032526D01*
X120090239Y-59032358D01*
X120085231Y-59010415D01*
X120078863Y-59002430D01*
X120073323Y-58993037D01*
X120071444Y-58988501D01*
X120071444Y-58988500D01*
X120071442Y-58988498D01*
X120071441Y-58988496D01*
X120054779Y-58971835D01*
X120051864Y-58968573D01*
X120033859Y-58945996D01*
X120033858Y-58945995D01*
X120033397Y-58945773D01*
X120030337Y-58944299D01*
X120023932Y-58939754D01*
X120023862Y-58939859D01*
X120020670Y-58937726D01*
X120020669Y-58937725D01*
X120018931Y-58937005D01*
X119993192Y-58926343D01*
X119991196Y-58925450D01*
X119984330Y-58922144D01*
X119959622Y-58910245D01*
X119877226Y-58910245D01*
X119877223Y-58910245D01*
X119845650Y-58925450D01*
X119843655Y-58926343D01*
X119816179Y-58937724D01*
X119812987Y-58939857D01*
X119812918Y-58939754D01*
X119806517Y-58944295D01*
X119802990Y-58945994D01*
X119802989Y-58945995D01*
X119784983Y-58968573D01*
X119782070Y-58971832D01*
X119765405Y-58988497D01*
X119765402Y-58988501D01*
X119763520Y-58993045D01*
X119757985Y-59002428D01*
X119751617Y-59010414D01*
X119746569Y-59032528D01*
X119744580Y-59038769D01*
X119741214Y-59046898D01*
X119738124Y-59054360D01*
X119737924Y-59054842D01*
X119737924Y-59066013D01*
X119736946Y-59074691D01*
X119735097Y-59082795D01*
X119733282Y-59090745D01*
X119734738Y-59097126D01*
X119736946Y-59106797D01*
X119737924Y-59115476D01*
X119737924Y-60190656D01*
X119726501Y-60218233D01*
X118886980Y-61057753D01*
X118886978Y-61057756D01*
X118872382Y-61092997D01*
X118872381Y-61092997D01*
X118859500Y-61124095D01*
X118859500Y-61774558D01*
X118848077Y-61802135D01*
X118844819Y-61805047D01*
X118844567Y-61805247D01*
X118826563Y-61827823D01*
X118823651Y-61831082D01*
X118806978Y-61847756D01*
X118806976Y-61847759D01*
X118805094Y-61852302D01*
X118799557Y-61861688D01*
X118793193Y-61869667D01*
X118793193Y-61869668D01*
X118788145Y-61891784D01*
X118786155Y-61898029D01*
X118779500Y-61914096D01*
X118779500Y-61925268D01*
X118778522Y-61933946D01*
X118774858Y-61949999D01*
X118774858Y-61950000D01*
X118778522Y-61966052D01*
X118779500Y-61974731D01*
X118779500Y-61985903D01*
X118786155Y-62001973D01*
X118788145Y-62008216D01*
X118793192Y-62030329D01*
X118799557Y-62038310D01*
X118805096Y-62047699D01*
X118808358Y-62055573D01*
X118808359Y-62085423D01*
X118787254Y-62106531D01*
X118772327Y-62109500D01*
X115481630Y-62109500D01*
X115454053Y-62098077D01*
X115291923Y-61935947D01*
X115280500Y-61908370D01*
X115280500Y-61721629D01*
X115291922Y-61694053D01*
X115421468Y-61564506D01*
X115449044Y-61553084D01*
X115476621Y-61564507D01*
X115481471Y-61570416D01*
X115493099Y-61587818D01*
X115496703Y-61594561D01*
X115504091Y-61612398D01*
X115517743Y-61626050D01*
X115522593Y-61631959D01*
X115533319Y-61648011D01*
X115549373Y-61658738D01*
X115555276Y-61663583D01*
X115568932Y-61677239D01*
X115586770Y-61684627D01*
X115593514Y-61688232D01*
X115609563Y-61698956D01*
X115628504Y-61702723D01*
X115635806Y-61704938D01*
X115653651Y-61712330D01*
X115672954Y-61712330D01*
X115680562Y-61713079D01*
X115699500Y-61716846D01*
X115718438Y-61713079D01*
X115726046Y-61712330D01*
X116377775Y-61712330D01*
X116377783Y-61712331D01*
X116382320Y-61712331D01*
X116474019Y-61712331D01*
X116474020Y-61712331D01*
X116523646Y-61691774D01*
X116558738Y-61677239D01*
X116623579Y-61612398D01*
X116623579Y-61612397D01*
X116629060Y-61606917D01*
X116629064Y-61606910D01*
X118585409Y-59650568D01*
X118603698Y-59606411D01*
X118607004Y-59600228D01*
X118607122Y-59599942D01*
X118607126Y-59599937D01*
X118607127Y-59599930D01*
X118607244Y-59599649D01*
X118609281Y-59592934D01*
X118620501Y-59565849D01*
X118620501Y-59536540D01*
X118621250Y-59528932D01*
X118622232Y-59523996D01*
X118625016Y-59510000D01*
X118621250Y-59491066D01*
X118620501Y-59483458D01*
X118620501Y-59471013D01*
X118620500Y-59470999D01*
X118620500Y-59090630D01*
X118631923Y-59063053D01*
X118659500Y-59051630D01*
X118687077Y-59063053D01*
X118699432Y-59075408D01*
X118717266Y-59082795D01*
X118724008Y-59086399D01*
X118740062Y-59097126D01*
X118758997Y-59100893D01*
X118766312Y-59103112D01*
X118784150Y-59110501D01*
X118803459Y-59110501D01*
X118811067Y-59111250D01*
X118812477Y-59111530D01*
X118830000Y-59115016D01*
X118847522Y-59111530D01*
X118848933Y-59111250D01*
X118856541Y-59110501D01*
X118875847Y-59110501D01*
X118875850Y-59110501D01*
X118893693Y-59103109D01*
X118901001Y-59100892D01*
X118919937Y-59097126D01*
X118935990Y-59086398D01*
X118942722Y-59082799D01*
X118960568Y-59075408D01*
X118974227Y-59061748D01*
X118980126Y-59056907D01*
X118996181Y-59046181D01*
X119006910Y-59030122D01*
X119011752Y-59024222D01*
X119284053Y-58751923D01*
X119311630Y-58740500D01*
X119986757Y-58740500D01*
X119986765Y-58740501D01*
X119991302Y-58740501D01*
X120083001Y-58740501D01*
X120083002Y-58740501D01*
X120132628Y-58719944D01*
X120167720Y-58705409D01*
X120232561Y-58640568D01*
X120232561Y-58640567D01*
X120238040Y-58635089D01*
X120238045Y-58635082D01*
X120261001Y-58612126D01*
X120288574Y-58600705D01*
X120316150Y-58612126D01*
G37*
%TD.AperFunction*%
%TA.AperFunction,Conductor*%
G36*
X119628077Y-62581923D02*
G01*
X119639500Y-62609500D01*
X119639500Y-64020500D01*
X119628077Y-64048077D01*
X119600500Y-64059500D01*
X116687751Y-64059500D01*
X116672828Y-64056531D01*
X116655850Y-64049499D01*
X116636541Y-64049499D01*
X116628933Y-64048750D01*
X116610000Y-64044984D01*
X116591067Y-64048750D01*
X116583459Y-64049499D01*
X116564150Y-64049499D01*
X116558760Y-64051731D01*
X116546303Y-64056890D01*
X116538993Y-64059107D01*
X116520065Y-64062873D01*
X116520063Y-64062873D01*
X116504010Y-64073599D01*
X116497273Y-64077200D01*
X116479431Y-64084591D01*
X116479428Y-64084593D01*
X116465780Y-64098242D01*
X116459873Y-64103090D01*
X116443818Y-64113818D01*
X116433090Y-64129873D01*
X116428242Y-64135780D01*
X116414593Y-64149428D01*
X116414591Y-64149431D01*
X116407200Y-64167273D01*
X116403604Y-64174002D01*
X116401934Y-64176503D01*
X116377120Y-64193094D01*
X116347843Y-64187280D01*
X116331252Y-64162466D01*
X116330500Y-64154846D01*
X116330500Y-63870920D01*
X116341923Y-63843343D01*
X116443343Y-63741923D01*
X116470920Y-63730500D01*
X118262788Y-63730500D01*
X118282216Y-63722452D01*
X118282217Y-63722451D01*
X118329128Y-63703021D01*
X119188146Y-62844001D01*
X119198798Y-62836444D01*
X119202317Y-62834750D01*
X119220324Y-62812168D01*
X119223212Y-62808935D01*
X119239904Y-62792245D01*
X119241784Y-62787704D01*
X119247322Y-62778314D01*
X119253690Y-62770330D01*
X119258737Y-62748213D01*
X119260724Y-62741978D01*
X119267383Y-62725903D01*
X119267383Y-62714731D01*
X119268361Y-62706052D01*
X119272025Y-62690000D01*
X119272025Y-62689999D01*
X119268361Y-62673946D01*
X119267383Y-62665268D01*
X119267383Y-62654096D01*
X119260727Y-62638028D01*
X119258738Y-62631791D01*
X119255631Y-62618175D01*
X119260633Y-62588749D01*
X119284978Y-62571477D01*
X119293654Y-62570500D01*
X119600500Y-62570500D01*
X119628077Y-62581923D01*
G37*
%TD.AperFunction*%
%TA.AperFunction,Conductor*%
G36*
X114847077Y-62140184D02*
G01*
X114852059Y-62147641D01*
X114852458Y-62147375D01*
X114854592Y-62150569D01*
X114924914Y-62220892D01*
X114924920Y-62220896D01*
X115172365Y-62468341D01*
X115172368Y-62468345D01*
X115174591Y-62470568D01*
X115239432Y-62535409D01*
X115286479Y-62554896D01*
X115324150Y-62570500D01*
X115324151Y-62570500D01*
X118856963Y-62570500D01*
X118884540Y-62581923D01*
X118895963Y-62609500D01*
X118884540Y-62637077D01*
X118163540Y-63358077D01*
X118135963Y-63369500D01*
X116669500Y-63369500D01*
X116641923Y-63358077D01*
X116630500Y-63330500D01*
X116630500Y-63130503D01*
X116630501Y-63130494D01*
X116630501Y-63074042D01*
X116613602Y-63033245D01*
X116613601Y-63033242D01*
X116613601Y-63033243D01*
X116610632Y-63026075D01*
X116571703Y-62987147D01*
X116571696Y-62987141D01*
X116416120Y-62831565D01*
X116416116Y-62831559D01*
X116373923Y-62789367D01*
X116373920Y-62789365D01*
X116359874Y-62783547D01*
X116359874Y-62783546D01*
X116325959Y-62769499D01*
X116325958Y-62769499D01*
X116274042Y-62769499D01*
X116269505Y-62769499D01*
X116269497Y-62769500D01*
X115930503Y-62769500D01*
X115930495Y-62769499D01*
X115925958Y-62769499D01*
X115874042Y-62769499D01*
X115840125Y-62783547D01*
X115840123Y-62783547D01*
X115826076Y-62789367D01*
X115810653Y-62804791D01*
X115789367Y-62826077D01*
X115789366Y-62826078D01*
X115731168Y-62884277D01*
X115703591Y-62895700D01*
X114871408Y-62895700D01*
X114843831Y-62884277D01*
X114791923Y-62832368D01*
X114780500Y-62804791D01*
X114780500Y-62167761D01*
X114791923Y-62140184D01*
X114819500Y-62128761D01*
X114847077Y-62140184D01*
G37*
%TD.AperFunction*%
%TA.AperFunction,Conductor*%
G36*
X115597077Y-59856987D02*
G01*
X115911912Y-60171823D01*
X115911914Y-60171824D01*
X115911916Y-60171826D01*
X115928652Y-60178757D01*
X115928655Y-60178760D01*
X115928656Y-60178759D01*
X115969069Y-60195500D01*
X115969072Y-60195500D01*
X117294368Y-60195500D01*
X117321945Y-60206923D01*
X117333368Y-60234500D01*
X117321945Y-60262077D01*
X116344117Y-61239907D01*
X116316540Y-61251330D01*
X115726046Y-61251330D01*
X115718438Y-61250581D01*
X115699500Y-61246814D01*
X115680562Y-61250581D01*
X115672954Y-61251330D01*
X115653651Y-61251330D01*
X115649577Y-61253017D01*
X115635805Y-61258720D01*
X115628495Y-61260937D01*
X115609566Y-61264703D01*
X115609564Y-61264703D01*
X115609563Y-61264704D01*
X115609561Y-61264704D01*
X115609559Y-61264706D01*
X115593507Y-61275430D01*
X115586774Y-61279030D01*
X115584431Y-61280001D01*
X115554582Y-61280006D01*
X115533471Y-61258903D01*
X115530500Y-61243972D01*
X115530500Y-59884564D01*
X115541923Y-59856987D01*
X115569500Y-59845564D01*
X115597077Y-59856987D01*
G37*
%TD.AperFunction*%
%TA.AperFunction,Conductor*%
G36*
X120754663Y-54511923D02*
G01*
X120766086Y-54539500D01*
X120754663Y-54567077D01*
X120742012Y-54575530D01*
X120732578Y-54579437D01*
X120718932Y-54585090D01*
X120444568Y-54859454D01*
X120431916Y-54867908D01*
X120383008Y-54888166D01*
X120343005Y-54928169D01*
X120337106Y-54933011D01*
X120334745Y-54934589D01*
X118194592Y-57074743D01*
X118194591Y-57074743D01*
X118184337Y-57099500D01*
X118159499Y-57159462D01*
X118159499Y-57255698D01*
X118159500Y-57255707D01*
X118159500Y-58771415D01*
X118152686Y-58787864D01*
X118154275Y-58789084D01*
X118159500Y-58808584D01*
X118159500Y-59408368D01*
X118148077Y-59435945D01*
X118038547Y-59545475D01*
X118010970Y-59556898D01*
X117983393Y-59545475D01*
X117972948Y-59526576D01*
X117970734Y-59516877D01*
X117966807Y-59499670D01*
X117915434Y-59435250D01*
X117841198Y-59399500D01*
X117758802Y-59399500D01*
X117684565Y-59435250D01*
X117633193Y-59499670D01*
X117627640Y-59523996D01*
X117617195Y-59542893D01*
X117287012Y-59873077D01*
X117259435Y-59884500D01*
X116374210Y-59884500D01*
X116346633Y-59873077D01*
X116335210Y-59845500D01*
X116346633Y-59817923D01*
X116397001Y-59767554D01*
X116397003Y-59767552D01*
X116415104Y-59700000D01*
X116397003Y-59632448D01*
X116397001Y-59632445D01*
X116347554Y-59582998D01*
X116347551Y-59582996D01*
X116280001Y-59564896D01*
X116279999Y-59564896D01*
X116212448Y-59582996D01*
X116212445Y-59582998D01*
X116162998Y-59632445D01*
X116162996Y-59632448D01*
X116144896Y-59699999D01*
X116144896Y-59700000D01*
X116162996Y-59767551D01*
X116162998Y-59767554D01*
X116213367Y-59817923D01*
X116224790Y-59845500D01*
X116213367Y-59873077D01*
X116185790Y-59884500D01*
X116080564Y-59884500D01*
X116052987Y-59873077D01*
X115629233Y-59449322D01*
X116474896Y-59449322D01*
X116474896Y-59449323D01*
X116492996Y-59516874D01*
X116492998Y-59516877D01*
X116542445Y-59566324D01*
X116542448Y-59566326D01*
X116609999Y-59584427D01*
X116610000Y-59584427D01*
X116610001Y-59584427D01*
X116643776Y-59575376D01*
X116677552Y-59566326D01*
X116727003Y-59516875D01*
X116745104Y-59449323D01*
X116731863Y-59399910D01*
X116727003Y-59381771D01*
X116727001Y-59381768D01*
X116677554Y-59332321D01*
X116677551Y-59332319D01*
X116610001Y-59314219D01*
X116609999Y-59314219D01*
X116542448Y-59332319D01*
X116542445Y-59332321D01*
X116492998Y-59381768D01*
X116492996Y-59381771D01*
X116474896Y-59449322D01*
X115629233Y-59449322D01*
X115606988Y-59427077D01*
X115595565Y-59399500D01*
X115606988Y-59371923D01*
X115634565Y-59360500D01*
X115699605Y-59360500D01*
X115699613Y-59360501D01*
X115704150Y-59360501D01*
X115795849Y-59360501D01*
X115795850Y-59360501D01*
X115845476Y-59339944D01*
X115880568Y-59325409D01*
X115945409Y-59260568D01*
X115945409Y-59260567D01*
X115950890Y-59255087D01*
X115950894Y-59255080D01*
X116415975Y-58789999D01*
X117814896Y-58789999D01*
X117814896Y-58790000D01*
X117832996Y-58857551D01*
X117832998Y-58857554D01*
X117882445Y-58907001D01*
X117882448Y-58907003D01*
X117949999Y-58925104D01*
X117950000Y-58925104D01*
X117950001Y-58925104D01*
X117990902Y-58914144D01*
X118017552Y-58907003D01*
X118067003Y-58857552D01*
X118082829Y-58798489D01*
X118088423Y-58791198D01*
X118082829Y-58781509D01*
X118067003Y-58722448D01*
X118067001Y-58722445D01*
X118017554Y-58672998D01*
X118017551Y-58672996D01*
X117950001Y-58654896D01*
X117949999Y-58654896D01*
X117882448Y-58672996D01*
X117882445Y-58672998D01*
X117832998Y-58722445D01*
X117832996Y-58722448D01*
X117814896Y-58789999D01*
X116415975Y-58789999D01*
X116478656Y-58727318D01*
X116478663Y-58727314D01*
X116484144Y-58721833D01*
X116548985Y-58656992D01*
X116577493Y-58588167D01*
X116584076Y-58572274D01*
X116584076Y-58480575D01*
X116584076Y-58279999D01*
X117764896Y-58279999D01*
X117764896Y-58280000D01*
X117782996Y-58347551D01*
X117782998Y-58347554D01*
X117832445Y-58397001D01*
X117832448Y-58397003D01*
X117899999Y-58415104D01*
X117900000Y-58415104D01*
X117900001Y-58415104D01*
X117933776Y-58406053D01*
X117967552Y-58397003D01*
X118017003Y-58347552D01*
X118035104Y-58280000D01*
X118030969Y-58264570D01*
X118017003Y-58212448D01*
X118017001Y-58212445D01*
X117967554Y-58162998D01*
X117967551Y-58162996D01*
X117900001Y-58144896D01*
X117899999Y-58144896D01*
X117832448Y-58162996D01*
X117832445Y-58162998D01*
X117782998Y-58212445D01*
X117782996Y-58212448D01*
X117764896Y-58279999D01*
X116584076Y-58279999D01*
X116584076Y-58030205D01*
X116595498Y-58002629D01*
X118408656Y-56189470D01*
X118408663Y-56189466D01*
X118414144Y-56183985D01*
X118478985Y-56119144D01*
X118511767Y-56040000D01*
X118514076Y-56034426D01*
X118514076Y-55942727D01*
X118514076Y-55933565D01*
X118525499Y-55905988D01*
X118553076Y-55894565D01*
X119093992Y-55894565D01*
X119113420Y-55886517D01*
X119113421Y-55886516D01*
X119123457Y-55882359D01*
X119160332Y-55867086D01*
X120515495Y-54511923D01*
X120543072Y-54500500D01*
X120727086Y-54500500D01*
X120754663Y-54511923D01*
G37*
%TD.AperFunction*%
%TA.AperFunction,Conductor*%
G36*
X122636866Y-54295691D02*
G01*
X122744196Y-54403021D01*
X122790608Y-54422245D01*
X122810537Y-54430500D01*
X122810538Y-54430500D01*
X122882344Y-54430500D01*
X125259080Y-54430500D01*
X125286657Y-54441923D01*
X125730556Y-54885821D01*
X125781331Y-54936596D01*
X125847672Y-54964076D01*
X127632656Y-54964076D01*
X127660233Y-54975499D01*
X127823652Y-55138918D01*
X127826567Y-55142180D01*
X127844563Y-55164747D01*
X127844565Y-55164749D01*
X127844566Y-55164750D01*
X127848080Y-55166442D01*
X127854494Y-55170992D01*
X127854564Y-55170888D01*
X127857751Y-55173017D01*
X127857755Y-55173021D01*
X127885246Y-55184407D01*
X127887208Y-55185285D01*
X127918802Y-55200500D01*
X127924096Y-55200500D01*
X127924097Y-55200500D01*
X127979080Y-55200500D01*
X128006657Y-55211923D01*
X128570456Y-55775722D01*
X128581879Y-55803299D01*
X128570456Y-55830876D01*
X128559801Y-55838436D01*
X128537761Y-55849050D01*
X128486388Y-55913470D01*
X128468053Y-55993801D01*
X128486387Y-56074130D01*
X128489186Y-56077639D01*
X128497695Y-56101956D01*
X128497695Y-56354127D01*
X128502346Y-56365353D01*
X128502347Y-56365356D01*
X128505064Y-56371917D01*
X128521368Y-56411279D01*
X128575898Y-56465809D01*
X128623077Y-56512987D01*
X128634500Y-56540564D01*
X128634500Y-57093369D01*
X128623077Y-57120946D01*
X128594592Y-57149431D01*
X128594591Y-57149431D01*
X128559500Y-57234151D01*
X128559500Y-58048369D01*
X128548077Y-58075946D01*
X128082371Y-58541653D01*
X128054794Y-58553076D01*
X127204496Y-58553076D01*
X127176919Y-58541653D01*
X127101642Y-58466376D01*
X127098728Y-58463115D01*
X127078388Y-58437610D01*
X127078384Y-58437607D01*
X127073655Y-58435329D01*
X127068913Y-58432621D01*
X127065821Y-58430555D01*
X127051942Y-58424806D01*
X127049953Y-58423916D01*
X127031654Y-58415104D01*
X127004151Y-58401859D01*
X126921755Y-58401859D01*
X126921752Y-58401859D01*
X126868284Y-58427607D01*
X126866294Y-58428498D01*
X126861259Y-58430584D01*
X126856710Y-58433182D01*
X126847517Y-58437609D01*
X126822274Y-58469263D01*
X126819363Y-58472522D01*
X126810555Y-58481331D01*
X126810551Y-58481336D01*
X126810392Y-58481722D01*
X126804859Y-58491100D01*
X126796146Y-58502026D01*
X126789713Y-58530207D01*
X126787725Y-58536445D01*
X126783076Y-58547673D01*
X126783076Y-58554897D01*
X126782098Y-58563575D01*
X126778582Y-58578983D01*
X126777811Y-58582359D01*
X126781998Y-58600705D01*
X126782098Y-58601140D01*
X126783076Y-58609819D01*
X126783076Y-58619479D01*
X126788962Y-58633692D01*
X126790952Y-58639935D01*
X126796145Y-58662688D01*
X126796146Y-58662689D01*
X126802759Y-58670981D01*
X126808298Y-58680372D01*
X126810553Y-58685817D01*
X126810556Y-58685822D01*
X126828945Y-58704211D01*
X126831859Y-58707472D01*
X126843799Y-58722445D01*
X126847519Y-58727109D01*
X126849886Y-58728248D01*
X126860545Y-58735811D01*
X126870377Y-58745643D01*
X126881800Y-58773220D01*
X126870378Y-58800797D01*
X126862672Y-58808503D01*
X126833009Y-58838166D01*
X126833008Y-58838167D01*
X126770739Y-58900435D01*
X126743162Y-58911858D01*
X126715585Y-58900435D01*
X126680507Y-58865357D01*
X126680504Y-58865355D01*
X126612954Y-58847255D01*
X126612952Y-58847255D01*
X126545401Y-58865355D01*
X126545398Y-58865357D01*
X126495951Y-58914804D01*
X126495949Y-58914807D01*
X126477849Y-58982358D01*
X126477849Y-58982359D01*
X126495949Y-59049910D01*
X126495951Y-59049913D01*
X126545398Y-59099360D01*
X126545401Y-59099362D01*
X126597872Y-59113422D01*
X126621552Y-59131592D01*
X126625448Y-59161186D01*
X126615354Y-59178669D01*
X126087577Y-59706447D01*
X126060000Y-59717870D01*
X126032423Y-59706447D01*
X125814472Y-59488496D01*
X125814468Y-59488490D01*
X125744145Y-59418168D01*
X125744144Y-59418167D01*
X125709052Y-59403631D01*
X125659426Y-59383075D01*
X125567726Y-59383075D01*
X125563189Y-59383075D01*
X125563181Y-59383076D01*
X125383496Y-59383076D01*
X125355919Y-59371653D01*
X125344496Y-59344076D01*
X125354787Y-59319231D01*
X125354463Y-59319015D01*
X125355551Y-59317385D01*
X125355919Y-59316499D01*
X125355936Y-59316481D01*
X125356597Y-59315821D01*
X125360202Y-59307115D01*
X125365739Y-59297729D01*
X125369760Y-59292689D01*
X125373424Y-59276629D01*
X125375413Y-59270392D01*
X125384076Y-59249480D01*
X125384076Y-59234360D01*
X125385054Y-59225681D01*
X125385081Y-59225566D01*
X125388095Y-59212359D01*
X125386977Y-59207462D01*
X125385054Y-59199034D01*
X125384076Y-59190356D01*
X125384076Y-59177675D01*
X125384075Y-59177671D01*
X125383841Y-59177107D01*
X125376650Y-59159748D01*
X125374661Y-59153507D01*
X125369760Y-59132029D01*
X125369759Y-59132028D01*
X125369759Y-59132027D01*
X125369759Y-59132026D01*
X125363641Y-59124355D01*
X125358102Y-59114965D01*
X125356597Y-59111332D01*
X125341646Y-59096381D01*
X125338731Y-59093120D01*
X125335705Y-59089326D01*
X125318387Y-59067609D01*
X125317067Y-59066557D01*
X125315978Y-59064589D01*
X125315647Y-59064173D01*
X125315717Y-59064116D01*
X125302623Y-59040435D01*
X125310881Y-59011751D01*
X125324453Y-59000925D01*
X125369099Y-58979425D01*
X125420472Y-58915005D01*
X125438083Y-58837846D01*
X125455356Y-58813503D01*
X125484783Y-58808503D01*
X125503682Y-58818948D01*
X125790273Y-59105539D01*
X125793089Y-59109506D01*
X125793406Y-59109254D01*
X125802759Y-59120982D01*
X125808299Y-59130374D01*
X125810553Y-59135817D01*
X125810556Y-59135821D01*
X125828940Y-59154205D01*
X125831855Y-59157467D01*
X125840523Y-59168337D01*
X125847519Y-59177109D01*
X125849891Y-59178251D01*
X125860547Y-59185812D01*
X125861331Y-59186596D01*
X125902432Y-59203620D01*
X125904393Y-59204497D01*
X125921755Y-59212859D01*
X125921759Y-59212859D01*
X125924826Y-59213559D01*
X125925324Y-59213609D01*
X125927671Y-59214076D01*
X125927672Y-59214076D01*
X125999482Y-59214076D01*
X126001250Y-59213724D01*
X126003499Y-59213007D01*
X126004143Y-59212859D01*
X126004151Y-59212859D01*
X126013849Y-59208188D01*
X126015805Y-59207313D01*
X126065821Y-59186596D01*
X126067758Y-59184658D01*
X126078289Y-59177185D01*
X126078380Y-59177112D01*
X126078387Y-59177109D01*
X126089148Y-59163613D01*
X126092046Y-59160369D01*
X126116596Y-59135821D01*
X126120199Y-59127120D01*
X126125743Y-59117725D01*
X126127537Y-59115476D01*
X126129760Y-59112689D01*
X126133423Y-59096635D01*
X126135414Y-59090389D01*
X126144076Y-59069480D01*
X126144076Y-59054360D01*
X126145054Y-59045681D01*
X126146252Y-59040435D01*
X126148095Y-59032359D01*
X126148026Y-59032058D01*
X126145054Y-59019034D01*
X126144076Y-59010356D01*
X126144076Y-58987673D01*
X126141128Y-58980556D01*
X126134196Y-58963819D01*
X126131568Y-58957476D01*
X126129974Y-58952473D01*
X126127854Y-58948068D01*
X126128025Y-58947985D01*
X126126721Y-58945773D01*
X126124271Y-58939859D01*
X126116597Y-58921331D01*
X125365499Y-58170233D01*
X125354076Y-58142656D01*
X125354076Y-57937882D01*
X125365499Y-57910305D01*
X125393076Y-57898882D01*
X125420653Y-57910305D01*
X125446378Y-57936030D01*
X125446381Y-57936032D01*
X125513932Y-57954133D01*
X125513933Y-57954133D01*
X125513934Y-57954133D01*
X125547709Y-57945082D01*
X125581485Y-57936032D01*
X125630936Y-57886581D01*
X125649037Y-57819029D01*
X125643259Y-57797467D01*
X125630936Y-57751477D01*
X125630934Y-57751474D01*
X125581487Y-57702027D01*
X125581484Y-57702025D01*
X125513934Y-57683925D01*
X125513932Y-57683925D01*
X125446381Y-57702025D01*
X125417800Y-57730606D01*
X125390222Y-57742028D01*
X125362645Y-57730605D01*
X125354192Y-57717953D01*
X125346651Y-57699748D01*
X125344662Y-57693509D01*
X125339760Y-57672029D01*
X125333639Y-57664353D01*
X125328101Y-57654964D01*
X125326596Y-57651331D01*
X125311646Y-57636381D01*
X125308732Y-57633120D01*
X125288388Y-57607610D01*
X125288384Y-57607607D01*
X125283652Y-57605328D01*
X125278903Y-57602616D01*
X125275821Y-57600556D01*
X125261953Y-57594811D01*
X125259959Y-57593918D01*
X125214151Y-57571859D01*
X125131755Y-57571859D01*
X125131752Y-57571859D01*
X125078269Y-57597615D01*
X125076289Y-57598501D01*
X125074729Y-57599148D01*
X125071252Y-57600588D01*
X125066715Y-57603179D01*
X125057520Y-57607607D01*
X125057516Y-57607610D01*
X125032267Y-57639272D01*
X125029354Y-57642532D01*
X125020557Y-57651328D01*
X125020553Y-57651336D01*
X125020394Y-57651720D01*
X125014858Y-57661103D01*
X125006147Y-57672026D01*
X125006146Y-57672027D01*
X124999714Y-57700207D01*
X124997724Y-57706451D01*
X124993076Y-57717673D01*
X124993076Y-57724897D01*
X124992098Y-57733575D01*
X124988106Y-57751068D01*
X124987811Y-57752359D01*
X124991520Y-57768610D01*
X124992098Y-57771140D01*
X124993076Y-57779819D01*
X124993076Y-58011946D01*
X124981653Y-58039523D01*
X124879523Y-58141653D01*
X124851946Y-58153076D01*
X124308237Y-58153076D01*
X124280660Y-58141653D01*
X124269237Y-58114076D01*
X124270215Y-58105397D01*
X124277362Y-58074088D01*
X124285142Y-58040000D01*
X124285142Y-58039999D01*
X124285142Y-58038737D01*
X124285783Y-58037187D01*
X124286120Y-58035715D01*
X124286370Y-58035772D01*
X124296565Y-58011160D01*
X124316545Y-57991180D01*
X124338947Y-57968777D01*
X124338954Y-57968773D01*
X124344435Y-57963292D01*
X124377798Y-57929929D01*
X124387987Y-57905330D01*
X124395854Y-57886338D01*
X124395854Y-57839156D01*
X124395854Y-57836019D01*
X124395853Y-57836005D01*
X124395853Y-57768610D01*
X124407276Y-57741033D01*
X124434853Y-57729610D01*
X124444944Y-57730938D01*
X124487953Y-57742463D01*
X124487954Y-57742463D01*
X124530960Y-57730939D01*
X124555505Y-57724362D01*
X124604956Y-57674911D01*
X124623057Y-57607359D01*
X124621905Y-57603061D01*
X124604956Y-57539807D01*
X124604954Y-57539804D01*
X124555507Y-57490357D01*
X124555504Y-57490355D01*
X124487954Y-57472255D01*
X124484936Y-57472255D01*
X124457359Y-57460832D01*
X124445936Y-57433255D01*
X124457359Y-57405678D01*
X124463755Y-57399282D01*
X124491332Y-57387859D01*
X124529149Y-57387859D01*
X124529151Y-57387859D01*
X124603387Y-57352109D01*
X124619502Y-57331901D01*
X127577298Y-57331901D01*
X127577298Y-57331902D01*
X127595398Y-57399453D01*
X127595400Y-57399456D01*
X127644847Y-57448903D01*
X127644850Y-57448905D01*
X127712401Y-57467006D01*
X127712402Y-57467006D01*
X127712403Y-57467006D01*
X127749919Y-57456953D01*
X127779954Y-57448905D01*
X127829405Y-57399454D01*
X127847506Y-57331902D01*
X127845684Y-57325104D01*
X127829405Y-57264350D01*
X127829403Y-57264347D01*
X127779956Y-57214900D01*
X127779953Y-57214898D01*
X127712403Y-57196798D01*
X127712401Y-57196798D01*
X127644850Y-57214898D01*
X127644847Y-57214900D01*
X127595400Y-57264347D01*
X127595398Y-57264350D01*
X127577298Y-57331901D01*
X124619502Y-57331901D01*
X124654760Y-57287689D01*
X124673095Y-57207359D01*
X124654760Y-57127029D01*
X124603387Y-57062609D01*
X124529151Y-57026859D01*
X124529150Y-57026859D01*
X124526610Y-57025636D01*
X124506720Y-57003379D01*
X124507195Y-56994920D01*
X126818408Y-56994920D01*
X126836743Y-57075250D01*
X126883353Y-57133698D01*
X126888116Y-57139670D01*
X126962352Y-57175420D01*
X126962354Y-57175420D01*
X127044746Y-57175420D01*
X127044748Y-57175420D01*
X127118984Y-57139670D01*
X127170357Y-57075250D01*
X127188692Y-56994920D01*
X127170357Y-56914590D01*
X127170355Y-56914588D01*
X127170355Y-56914586D01*
X127155558Y-56896032D01*
X127147294Y-56867350D01*
X127161733Y-56841225D01*
X127175952Y-56834046D01*
X127207552Y-56825579D01*
X127257003Y-56776128D01*
X127275104Y-56708576D01*
X127273585Y-56702909D01*
X127257003Y-56641024D01*
X127257001Y-56641021D01*
X127207554Y-56591574D01*
X127207551Y-56591572D01*
X127140001Y-56573472D01*
X127139999Y-56573472D01*
X127072448Y-56591572D01*
X127072445Y-56591574D01*
X127022998Y-56641021D01*
X127022996Y-56641024D01*
X127004896Y-56708575D01*
X127004896Y-56708576D01*
X127020102Y-56765326D01*
X127016206Y-56794920D01*
X126992525Y-56813091D01*
X126982431Y-56814420D01*
X126962352Y-56814420D01*
X126888115Y-56850170D01*
X126836743Y-56914589D01*
X126818408Y-56994920D01*
X124507195Y-56994920D01*
X124508393Y-56973577D01*
X124530650Y-56953687D01*
X124533430Y-56952829D01*
X124547403Y-56949085D01*
X124596854Y-56899634D01*
X124614955Y-56832082D01*
X124613212Y-56825579D01*
X124596854Y-56764530D01*
X124596852Y-56764527D01*
X124547405Y-56715080D01*
X124547402Y-56715078D01*
X124479852Y-56696978D01*
X124479850Y-56696978D01*
X124412299Y-56715078D01*
X124412296Y-56715080D01*
X124362849Y-56764527D01*
X124362848Y-56764529D01*
X124357358Y-56785016D01*
X124339185Y-56808696D01*
X124309591Y-56812591D01*
X124285911Y-56794418D01*
X124281666Y-56783601D01*
X124269729Y-56731301D01*
X124218356Y-56666881D01*
X124163009Y-56640227D01*
X124143120Y-56617971D01*
X124144793Y-56588169D01*
X124152351Y-56577515D01*
X124179956Y-56549911D01*
X124198057Y-56482359D01*
X124195992Y-56474654D01*
X124179956Y-56414807D01*
X124179954Y-56414804D01*
X124130507Y-56365357D01*
X124130504Y-56365355D01*
X124062954Y-56347255D01*
X124062952Y-56347255D01*
X123995401Y-56365355D01*
X123995398Y-56365357D01*
X123945951Y-56414804D01*
X123945949Y-56414807D01*
X123927849Y-56482358D01*
X123927849Y-56482359D01*
X123945949Y-56549910D01*
X123945951Y-56549913D01*
X123999031Y-56602993D01*
X123997371Y-56604652D01*
X124009824Y-56620864D01*
X124005942Y-56650460D01*
X123989083Y-56666112D01*
X123987488Y-56666879D01*
X123936115Y-56731300D01*
X123917780Y-56811631D01*
X123936115Y-56891961D01*
X123985339Y-56953687D01*
X123987488Y-56956381D01*
X124061724Y-56992131D01*
X124061726Y-56992131D01*
X124144118Y-56992131D01*
X124144120Y-56992131D01*
X124218356Y-56956381D01*
X124269729Y-56891961D01*
X124276624Y-56861748D01*
X124293897Y-56837406D01*
X124323324Y-56832406D01*
X124347668Y-56849679D01*
X124352317Y-56860334D01*
X124362847Y-56899633D01*
X124362849Y-56899636D01*
X124412296Y-56949083D01*
X124412298Y-56949084D01*
X124412299Y-56949085D01*
X124436674Y-56955616D01*
X124460356Y-56973786D01*
X124464252Y-57003380D01*
X124446082Y-57027062D01*
X124443503Y-57028425D01*
X124372518Y-57062609D01*
X124321146Y-57127028D01*
X124302811Y-57207358D01*
X124302811Y-57208620D01*
X124302169Y-57210168D01*
X124301833Y-57211643D01*
X124301582Y-57211585D01*
X124291388Y-57236197D01*
X124176709Y-57350875D01*
X124176707Y-57350878D01*
X124167680Y-57372672D01*
X124158652Y-57394467D01*
X124158652Y-57429376D01*
X124147229Y-57456953D01*
X124119652Y-57468376D01*
X124116467Y-57467957D01*
X124112952Y-57467957D01*
X124045401Y-57486057D01*
X124045398Y-57486059D01*
X124006642Y-57524816D01*
X123979065Y-57536239D01*
X123951488Y-57524816D01*
X123940065Y-57497239D01*
X123940065Y-57245357D01*
X123927449Y-57214899D01*
X123919951Y-57196798D01*
X123912586Y-57179016D01*
X123510654Y-56777084D01*
X123507740Y-56773823D01*
X123503578Y-56768604D01*
X123498037Y-56759211D01*
X123496156Y-56754669D01*
X123496153Y-56754665D01*
X123479485Y-56737998D01*
X123476570Y-56734736D01*
X123458570Y-56712165D01*
X123458566Y-56712161D01*
X123455051Y-56710469D01*
X123444396Y-56702909D01*
X123380938Y-56639451D01*
X123369515Y-56611874D01*
X123380938Y-56584297D01*
X123398420Y-56574203D01*
X123403604Y-56572815D01*
X123453055Y-56523364D01*
X123471156Y-56455812D01*
X123469859Y-56450973D01*
X123453055Y-56388260D01*
X123453053Y-56388257D01*
X123403606Y-56338810D01*
X123403603Y-56338808D01*
X123336053Y-56320708D01*
X123336051Y-56320708D01*
X123268500Y-56338808D01*
X123268497Y-56338810D01*
X123219050Y-56388257D01*
X123219049Y-56388259D01*
X123217660Y-56393444D01*
X123199488Y-56417124D01*
X123169893Y-56421019D01*
X123152412Y-56410925D01*
X123047042Y-56305555D01*
X123018602Y-56293775D01*
X123000131Y-56286124D01*
X122980701Y-56278076D01*
X122604496Y-56278076D01*
X122576919Y-56266653D01*
X122561009Y-56250743D01*
X122549586Y-56223166D01*
X122561009Y-56195589D01*
X122578490Y-56185495D01*
X122617905Y-56174935D01*
X122617906Y-56174933D01*
X122617908Y-56174933D01*
X122674933Y-56117908D01*
X122674935Y-56117904D01*
X122679208Y-56101956D01*
X122687682Y-56070330D01*
X122705851Y-56046650D01*
X122735445Y-56042754D01*
X122759127Y-56060924D01*
X122763023Y-56070330D01*
X122770950Y-56099910D01*
X122770951Y-56099913D01*
X122820398Y-56149360D01*
X122820401Y-56149362D01*
X122887952Y-56167463D01*
X122887953Y-56167463D01*
X122887954Y-56167463D01*
X122942555Y-56152832D01*
X122955505Y-56149362D01*
X123004956Y-56099911D01*
X123008877Y-56085277D01*
X123314619Y-56085277D01*
X123314619Y-56085278D01*
X123332719Y-56152829D01*
X123332721Y-56152832D01*
X123382168Y-56202279D01*
X123382171Y-56202281D01*
X123449722Y-56220382D01*
X123449723Y-56220382D01*
X123449724Y-56220382D01*
X123483499Y-56211331D01*
X123517275Y-56202281D01*
X123566726Y-56152830D01*
X123584827Y-56085278D01*
X123575659Y-56051065D01*
X123566726Y-56017726D01*
X123566724Y-56017723D01*
X123517277Y-55968276D01*
X123517274Y-55968274D01*
X123449724Y-55950174D01*
X123449722Y-55950174D01*
X123382171Y-55968274D01*
X123382168Y-55968276D01*
X123332721Y-56017723D01*
X123332719Y-56017726D01*
X123314619Y-56085277D01*
X123008877Y-56085277D01*
X123023057Y-56032359D01*
X123022179Y-56029084D01*
X123004956Y-55964807D01*
X123004954Y-55964804D01*
X122955507Y-55915357D01*
X122955504Y-55915355D01*
X122887954Y-55897255D01*
X122887952Y-55897255D01*
X122820401Y-55915355D01*
X122820398Y-55915357D01*
X122770951Y-55964804D01*
X122770950Y-55964807D01*
X122760976Y-56002028D01*
X122742804Y-56025708D01*
X122713210Y-56029604D01*
X122689530Y-56011432D01*
X122685634Y-56002029D01*
X122674935Y-55962096D01*
X122617905Y-55905065D01*
X122540000Y-55884191D01*
X122462096Y-55905065D01*
X122462093Y-55905067D01*
X122405065Y-55962095D01*
X122394504Y-56001508D01*
X122376332Y-56025188D01*
X122346738Y-56029084D01*
X122329256Y-56018990D01*
X122155499Y-55845233D01*
X122144076Y-55817656D01*
X122144076Y-55632358D01*
X123898349Y-55632358D01*
X123898349Y-55632359D01*
X123916449Y-55699910D01*
X123916451Y-55699913D01*
X123965898Y-55749360D01*
X123965901Y-55749362D01*
X124033452Y-55767463D01*
X124033453Y-55767463D01*
X124033454Y-55767463D01*
X124087398Y-55753008D01*
X124101005Y-55749362D01*
X124150456Y-55699911D01*
X124168557Y-55632359D01*
X124159206Y-55597463D01*
X124150456Y-55564807D01*
X124150454Y-55564804D01*
X124101007Y-55515357D01*
X124101004Y-55515355D01*
X124033454Y-55497255D01*
X124033452Y-55497255D01*
X123965901Y-55515355D01*
X123965898Y-55515357D01*
X123916451Y-55564804D01*
X123916449Y-55564807D01*
X123898349Y-55632358D01*
X122144076Y-55632358D01*
X122144076Y-55522803D01*
X122155499Y-55495226D01*
X122183076Y-55483803D01*
X122210653Y-55495226D01*
X122241793Y-55526366D01*
X122241796Y-55526368D01*
X122309347Y-55544469D01*
X122309348Y-55544469D01*
X122309349Y-55544469D01*
X122363670Y-55529913D01*
X122376900Y-55526368D01*
X122426351Y-55476917D01*
X122444452Y-55409365D01*
X122440026Y-55392849D01*
X122426351Y-55341813D01*
X122426349Y-55341810D01*
X122376902Y-55292363D01*
X122376899Y-55292361D01*
X122309349Y-55274261D01*
X122309347Y-55274261D01*
X122241796Y-55292361D01*
X122241793Y-55292363D01*
X122210653Y-55323504D01*
X122183076Y-55334927D01*
X122155499Y-55323504D01*
X122144076Y-55295927D01*
X122144076Y-55143433D01*
X122143557Y-55142180D01*
X122138512Y-55130000D01*
X122126223Y-55100330D01*
X122125949Y-55099669D01*
X122121173Y-55088140D01*
X122108985Y-55058713D01*
X122044144Y-54993872D01*
X122041924Y-54991652D01*
X122041917Y-54991646D01*
X122036423Y-54986152D01*
X122025000Y-54958575D01*
X122036421Y-54931001D01*
X122110064Y-54857358D01*
X123502849Y-54857358D01*
X123502849Y-54857359D01*
X123520949Y-54924910D01*
X123520951Y-54924913D01*
X123570398Y-54974360D01*
X123570401Y-54974362D01*
X123637952Y-54992463D01*
X123637953Y-54992463D01*
X123637954Y-54992463D01*
X123671729Y-54983412D01*
X123675663Y-54982358D01*
X123977849Y-54982358D01*
X123977849Y-54982359D01*
X123995949Y-55049910D01*
X123995951Y-55049913D01*
X124045398Y-55099360D01*
X124045401Y-55099362D01*
X124112952Y-55117463D01*
X124112953Y-55117463D01*
X124112954Y-55117463D01*
X124176892Y-55100330D01*
X124180505Y-55099362D01*
X124229956Y-55049911D01*
X124248057Y-54982359D01*
X124248054Y-54982347D01*
X124345333Y-54982347D01*
X124345333Y-54982348D01*
X124363433Y-55049899D01*
X124363435Y-55049902D01*
X124412882Y-55099349D01*
X124412885Y-55099351D01*
X124480436Y-55117452D01*
X124480437Y-55117452D01*
X124480438Y-55117452D01*
X124544335Y-55100330D01*
X124547989Y-55099351D01*
X124597440Y-55049900D01*
X124615541Y-54982348D01*
X124603281Y-54936596D01*
X124597440Y-54914796D01*
X124597438Y-54914793D01*
X124579900Y-54897255D01*
X124710552Y-54897255D01*
X124710552Y-54948974D01*
X124710553Y-54948983D01*
X124710553Y-55932411D01*
X124710552Y-55932425D01*
X124710552Y-55935562D01*
X124710552Y-55982744D01*
X124716187Y-55996346D01*
X124716188Y-55996349D01*
X124730078Y-56029884D01*
X124729570Y-56030094D01*
X124734858Y-56047519D01*
X124734858Y-56049999D01*
X124734858Y-56050000D01*
X124746384Y-56100499D01*
X124753193Y-56130330D01*
X124788762Y-56174933D01*
X124804566Y-56194750D01*
X124878802Y-56230500D01*
X124878804Y-56230500D01*
X124961196Y-56230500D01*
X124961198Y-56230500D01*
X125035434Y-56194750D01*
X125086807Y-56130330D01*
X125097756Y-56082358D01*
X126002849Y-56082358D01*
X126002849Y-56082359D01*
X126020949Y-56149910D01*
X126020951Y-56149913D01*
X126070398Y-56199360D01*
X126070401Y-56199362D01*
X126137952Y-56217463D01*
X126137953Y-56217463D01*
X126137954Y-56217463D01*
X126194611Y-56202281D01*
X126205505Y-56199362D01*
X126254956Y-56149911D01*
X126273057Y-56082359D01*
X126269834Y-56070332D01*
X126254956Y-56014807D01*
X126254954Y-56014804D01*
X126205507Y-55965357D01*
X126205504Y-55965355D01*
X126137954Y-55947255D01*
X126137952Y-55947255D01*
X126070401Y-55965355D01*
X126070398Y-55965357D01*
X126020951Y-56014804D01*
X126020949Y-56014807D01*
X126002849Y-56082358D01*
X125097756Y-56082358D01*
X125105142Y-56050000D01*
X125086807Y-55969670D01*
X125035434Y-55905250D01*
X124997999Y-55887222D01*
X124978111Y-55864966D01*
X124979784Y-55835163D01*
X125002041Y-55815274D01*
X125004803Y-55814421D01*
X125061005Y-55799362D01*
X125110456Y-55749911D01*
X125128557Y-55682359D01*
X125127881Y-55679838D01*
X125110456Y-55614807D01*
X125110454Y-55614804D01*
X125061007Y-55565357D01*
X125061004Y-55565355D01*
X124993454Y-55547255D01*
X124988319Y-55547255D01*
X124988319Y-55545224D01*
X124967241Y-55542442D01*
X124949078Y-55518754D01*
X124947753Y-55508674D01*
X124947753Y-55344119D01*
X124959176Y-55316542D01*
X124986753Y-55305119D01*
X124996843Y-55306447D01*
X125037953Y-55317463D01*
X125037954Y-55317463D01*
X125084020Y-55305119D01*
X125105505Y-55299362D01*
X125154956Y-55249911D01*
X125173057Y-55182359D01*
X125172425Y-55180002D01*
X125154956Y-55114807D01*
X125154954Y-55114804D01*
X125105507Y-55065357D01*
X125105502Y-55065354D01*
X125104757Y-55065155D01*
X125103543Y-55064223D01*
X125101060Y-55062790D01*
X125101248Y-55062462D01*
X125081078Y-55046982D01*
X125077185Y-55017387D01*
X125084364Y-55003168D01*
X125086807Y-55000106D01*
X125105142Y-54919776D01*
X125086807Y-54839446D01*
X125035434Y-54775026D01*
X124961198Y-54739276D01*
X124878802Y-54739276D01*
X124804564Y-54775027D01*
X124795373Y-54786552D01*
X124792461Y-54789812D01*
X124777305Y-54804968D01*
X124761972Y-54820301D01*
X124728609Y-54853663D01*
X124728607Y-54853666D01*
X124723093Y-54866980D01*
X124723092Y-54866980D01*
X124710552Y-54897255D01*
X124579900Y-54897255D01*
X124547991Y-54865346D01*
X124547988Y-54865344D01*
X124480438Y-54847244D01*
X124480436Y-54847244D01*
X124412885Y-54865344D01*
X124412882Y-54865346D01*
X124363435Y-54914793D01*
X124363433Y-54914796D01*
X124345333Y-54982347D01*
X124248054Y-54982347D01*
X124243618Y-54965794D01*
X124229956Y-54914807D01*
X124229954Y-54914804D01*
X124180507Y-54865357D01*
X124180504Y-54865355D01*
X124112954Y-54847255D01*
X124112952Y-54847255D01*
X124045401Y-54865355D01*
X124045398Y-54865357D01*
X123995951Y-54914804D01*
X123995949Y-54914807D01*
X123977849Y-54982358D01*
X123675663Y-54982358D01*
X123705505Y-54974362D01*
X123754956Y-54924911D01*
X123773057Y-54857359D01*
X123772067Y-54853666D01*
X123754956Y-54789807D01*
X123754954Y-54789804D01*
X123705507Y-54740357D01*
X123705504Y-54740355D01*
X123637954Y-54722255D01*
X123637952Y-54722255D01*
X123570401Y-54740355D01*
X123544116Y-54766640D01*
X123523217Y-54775295D01*
X123523366Y-54775654D01*
X123522037Y-54785749D01*
X123502849Y-54857358D01*
X122110064Y-54857358D01*
X122310063Y-54657358D01*
X123227849Y-54657358D01*
X123227849Y-54657359D01*
X123245949Y-54724910D01*
X123245951Y-54724913D01*
X123295398Y-54774360D01*
X123295401Y-54774362D01*
X123362952Y-54792463D01*
X123362953Y-54792463D01*
X123362954Y-54792463D01*
X123396729Y-54783412D01*
X123430505Y-54774362D01*
X123456789Y-54748077D01*
X123477688Y-54739420D01*
X123477539Y-54739061D01*
X123478868Y-54728967D01*
X123479954Y-54724912D01*
X123479956Y-54724911D01*
X123498057Y-54657359D01*
X123495722Y-54648646D01*
X123479956Y-54589807D01*
X123479954Y-54589804D01*
X123430507Y-54540357D01*
X123430504Y-54540355D01*
X123362954Y-54522255D01*
X123362952Y-54522255D01*
X123295401Y-54540355D01*
X123295398Y-54540357D01*
X123245951Y-54589804D01*
X123245949Y-54589807D01*
X123227849Y-54657358D01*
X122310063Y-54657358D01*
X122464869Y-54502552D01*
X122464876Y-54502548D01*
X122470357Y-54497067D01*
X122535198Y-54432226D01*
X122566811Y-54355904D01*
X122570289Y-54347508D01*
X122570289Y-54323268D01*
X122581712Y-54295691D01*
X122609289Y-54284268D01*
X122636866Y-54295691D01*
G37*
%TD.AperFunction*%
%TA.AperFunction,Conductor*%
G36*
X121420741Y-55022422D02*
G01*
X121671653Y-55273334D01*
X121683076Y-55300911D01*
X121683076Y-55446099D01*
X121677723Y-55459020D01*
X121677851Y-55459118D01*
X121683076Y-55478618D01*
X121683076Y-55904425D01*
X121718167Y-55989144D01*
X121783008Y-56053985D01*
X121867727Y-56089076D01*
X121872656Y-56089076D01*
X121900233Y-56100499D01*
X122044303Y-56244569D01*
X122055726Y-56272146D01*
X122044303Y-56299723D01*
X122026822Y-56309817D01*
X122019137Y-56311876D01*
X122019135Y-56311877D01*
X121969688Y-56361324D01*
X121969686Y-56361327D01*
X121951586Y-56428878D01*
X121951586Y-56428879D01*
X121969686Y-56496430D01*
X121969688Y-56496433D01*
X122019135Y-56545880D01*
X122019138Y-56545882D01*
X122072525Y-56560187D01*
X122096206Y-56578358D01*
X122100102Y-56607952D01*
X122090009Y-56625434D01*
X122072998Y-56642444D01*
X122072996Y-56642448D01*
X122054896Y-56709999D01*
X122054896Y-56710000D01*
X122072996Y-56777551D01*
X122072998Y-56777554D01*
X122122445Y-56827001D01*
X122122448Y-56827003D01*
X122189999Y-56845104D01*
X122190000Y-56845104D01*
X122190001Y-56845104D01*
X122223776Y-56836053D01*
X122257552Y-56827003D01*
X122258978Y-56825577D01*
X122278500Y-56806056D01*
X122306077Y-56794633D01*
X122333654Y-56806056D01*
X122342619Y-56827701D01*
X122343748Y-56827399D01*
X122363177Y-56899909D01*
X122363179Y-56899912D01*
X122412626Y-56949359D01*
X122412629Y-56949361D01*
X122480180Y-56967462D01*
X122480181Y-56967462D01*
X122480182Y-56967462D01*
X122513957Y-56958411D01*
X122547733Y-56949361D01*
X122597184Y-56899910D01*
X122615285Y-56832358D01*
X122610478Y-56814420D01*
X122597184Y-56764806D01*
X122597182Y-56764803D01*
X122547735Y-56715356D01*
X122543288Y-56712789D01*
X122543918Y-56711697D01*
X122525515Y-56697576D01*
X122521619Y-56667982D01*
X122539790Y-56644301D01*
X122559290Y-56639076D01*
X122853877Y-56639076D01*
X122881454Y-56650499D01*
X123177074Y-56946119D01*
X123185528Y-56958772D01*
X123188156Y-56965117D01*
X123188158Y-56965120D01*
X123567642Y-57344604D01*
X123579065Y-57372181D01*
X123579065Y-57504711D01*
X123576096Y-57519636D01*
X123572931Y-57527277D01*
X123572931Y-57532090D01*
X123561508Y-57559667D01*
X123533023Y-57588152D01*
X123533022Y-57588152D01*
X123497931Y-57672872D01*
X123497931Y-57988240D01*
X123486508Y-58015817D01*
X123458931Y-58027240D01*
X123431354Y-58015817D01*
X123421260Y-57998335D01*
X123419343Y-57991181D01*
X123417003Y-57982448D01*
X123417002Y-57982447D01*
X123417001Y-57982445D01*
X123367554Y-57932998D01*
X123367551Y-57932996D01*
X123300001Y-57914896D01*
X123299999Y-57914896D01*
X123232448Y-57932996D01*
X123232445Y-57932998D01*
X123182998Y-57982445D01*
X123182996Y-57982448D01*
X123164896Y-58049999D01*
X123164896Y-58050000D01*
X123182996Y-58117551D01*
X123182998Y-58117554D01*
X123232445Y-58167001D01*
X123232448Y-58167003D01*
X123299999Y-58185104D01*
X123300000Y-58185104D01*
X123300001Y-58185104D01*
X123345664Y-58172868D01*
X123367552Y-58167003D01*
X123417003Y-58117552D01*
X123421260Y-58101664D01*
X123439431Y-58077984D01*
X123469025Y-58074088D01*
X123492706Y-58092259D01*
X123497931Y-58111759D01*
X123497931Y-58169720D01*
X123497930Y-58169734D01*
X123497930Y-58172871D01*
X123497930Y-58264571D01*
X123512398Y-58299499D01*
X123518486Y-58314197D01*
X123533021Y-58349287D01*
X123533023Y-58349290D01*
X123603345Y-58419613D01*
X123603351Y-58419617D01*
X123695651Y-58511917D01*
X123695654Y-58511921D01*
X123697877Y-58514144D01*
X123762718Y-58578985D01*
X123820880Y-58603076D01*
X123847436Y-58614076D01*
X123847437Y-58614076D01*
X124867727Y-58614076D01*
X124913181Y-58614076D01*
X124913189Y-58614077D01*
X124917726Y-58614077D01*
X125009426Y-58614077D01*
X125061527Y-58592495D01*
X125094144Y-58578985D01*
X125151355Y-58521773D01*
X125178931Y-58510351D01*
X125206508Y-58521774D01*
X125272332Y-58587598D01*
X125283755Y-58615175D01*
X125272332Y-58642752D01*
X125244755Y-58654175D01*
X125212467Y-58654175D01*
X125138230Y-58689925D01*
X125086858Y-58754345D01*
X125085044Y-58762292D01*
X125067770Y-58786635D01*
X125038342Y-58791634D01*
X125032100Y-58789644D01*
X124989987Y-58772201D01*
X124970557Y-58764153D01*
X124302800Y-58764153D01*
X124294122Y-58763175D01*
X124293075Y-58762936D01*
X124293074Y-58762936D01*
X124210678Y-58762936D01*
X124210675Y-58762936D01*
X124157192Y-58788692D01*
X124155212Y-58789578D01*
X124154195Y-58790000D01*
X124150175Y-58791665D01*
X124145638Y-58794256D01*
X124136443Y-58798684D01*
X124136439Y-58798687D01*
X124111190Y-58830349D01*
X124108277Y-58833609D01*
X124099480Y-58842405D01*
X124099476Y-58842413D01*
X124099317Y-58842797D01*
X124093781Y-58852180D01*
X124085070Y-58863103D01*
X124085069Y-58863104D01*
X124078637Y-58891284D01*
X124076647Y-58897526D01*
X124072723Y-58907003D01*
X124071999Y-58908750D01*
X124071999Y-58915974D01*
X124071021Y-58924652D01*
X124067937Y-58938167D01*
X124066734Y-58943436D01*
X124069256Y-58954487D01*
X124071021Y-58962217D01*
X124071999Y-58970896D01*
X124071999Y-58980557D01*
X124073036Y-58983061D01*
X124077884Y-58994766D01*
X124079874Y-59001009D01*
X124083989Y-59019034D01*
X124085069Y-59023766D01*
X124091684Y-59032061D01*
X124097222Y-59041451D01*
X124099476Y-59046894D01*
X124099479Y-59046898D01*
X124117862Y-59065281D01*
X124120772Y-59068536D01*
X124126251Y-59075407D01*
X124135018Y-59086401D01*
X124136442Y-59088186D01*
X124138814Y-59089328D01*
X124149470Y-59096889D01*
X124150254Y-59097673D01*
X124191355Y-59114697D01*
X124193316Y-59115574D01*
X124210678Y-59123936D01*
X124210682Y-59123936D01*
X124213749Y-59124636D01*
X124214247Y-59124686D01*
X124216594Y-59125153D01*
X124216595Y-59125153D01*
X124843733Y-59125153D01*
X124871310Y-59136576D01*
X124964701Y-59229967D01*
X125051234Y-59316499D01*
X125062657Y-59344076D01*
X125051234Y-59371653D01*
X125023657Y-59383076D01*
X124099715Y-59383076D01*
X124084790Y-59380107D01*
X124079180Y-59377783D01*
X124070567Y-59374215D01*
X124070566Y-59374215D01*
X123978866Y-59374215D01*
X123974329Y-59374215D01*
X123974321Y-59374216D01*
X122305679Y-59374216D01*
X122305671Y-59374215D01*
X122301134Y-59374215D01*
X122209434Y-59374215D01*
X122204897Y-59374215D01*
X122204889Y-59374216D01*
X121746346Y-59374216D01*
X121718769Y-59362793D01*
X121545512Y-59189536D01*
X121534089Y-59161959D01*
X121545512Y-59134382D01*
X121562994Y-59124289D01*
X121597905Y-59114935D01*
X121597906Y-59114934D01*
X121597908Y-59114933D01*
X121658566Y-59054275D01*
X121659544Y-59055253D01*
X121677692Y-59041322D01*
X121707287Y-59045212D01*
X121721399Y-59063596D01*
X121722500Y-59062961D01*
X121725067Y-59067408D01*
X121782092Y-59124433D01*
X121782093Y-59124433D01*
X121782095Y-59124435D01*
X121860000Y-59145309D01*
X121937905Y-59124435D01*
X121937906Y-59124433D01*
X121937908Y-59124433D01*
X121994933Y-59067408D01*
X121994933Y-59067406D01*
X121994935Y-59067405D01*
X122015809Y-58989500D01*
X121994935Y-58911596D01*
X121937905Y-58854565D01*
X121860000Y-58833691D01*
X121782096Y-58854565D01*
X121782093Y-58854567D01*
X121721434Y-58915226D01*
X121720456Y-58914248D01*
X121702291Y-58928182D01*
X121672698Y-58924280D01*
X121658604Y-58905905D01*
X121657501Y-58906542D01*
X121654935Y-58902099D01*
X121654935Y-58902096D01*
X121597905Y-58845065D01*
X121520000Y-58824191D01*
X121442096Y-58845065D01*
X121442093Y-58845067D01*
X121385065Y-58902095D01*
X121375711Y-58937005D01*
X121357539Y-58960685D01*
X121327945Y-58964581D01*
X121310463Y-58954487D01*
X120813536Y-58457560D01*
X122357144Y-58457560D01*
X122372956Y-58516574D01*
X122378018Y-58535464D01*
X122378020Y-58535468D01*
X122435045Y-58592493D01*
X122439492Y-58595060D01*
X122439145Y-58595660D01*
X122458685Y-58610652D01*
X122462583Y-58640246D01*
X122452488Y-58657731D01*
X122405768Y-58704451D01*
X122405766Y-58704455D01*
X122384892Y-58782359D01*
X122405039Y-58857552D01*
X122405766Y-58860263D01*
X122405768Y-58860267D01*
X122462793Y-58917292D01*
X122462794Y-58917292D01*
X122462796Y-58917294D01*
X122540701Y-58938168D01*
X122618606Y-58917294D01*
X122618607Y-58917292D01*
X122618609Y-58917292D01*
X122675634Y-58860267D01*
X122675634Y-58860265D01*
X122675636Y-58860264D01*
X122696510Y-58782359D01*
X122675636Y-58704455D01*
X122618606Y-58647424D01*
X122614162Y-58644859D01*
X122614508Y-58644259D01*
X122594965Y-58629259D01*
X122591073Y-58599665D01*
X122601166Y-58582187D01*
X122647886Y-58535467D01*
X122647888Y-58535465D01*
X122668762Y-58457560D01*
X122647888Y-58379656D01*
X122590858Y-58322625D01*
X122512953Y-58301751D01*
X122435049Y-58322625D01*
X122435046Y-58322627D01*
X122378020Y-58379653D01*
X122378018Y-58379656D01*
X122357144Y-58457560D01*
X120813536Y-58457560D01*
X120601424Y-58245448D01*
X120590001Y-58217871D01*
X120590001Y-57615963D01*
X122747244Y-57615963D01*
X122747244Y-57615964D01*
X122765344Y-57683515D01*
X122765346Y-57683518D01*
X122814793Y-57732965D01*
X122814796Y-57732967D01*
X122882347Y-57751068D01*
X122882348Y-57751068D01*
X122882349Y-57751068D01*
X122919798Y-57741033D01*
X122949900Y-57732967D01*
X122999351Y-57683516D01*
X123001645Y-57674955D01*
X123126469Y-57674955D01*
X123126469Y-57674956D01*
X123144569Y-57742507D01*
X123144571Y-57742510D01*
X123194018Y-57791957D01*
X123194021Y-57791959D01*
X123261572Y-57810060D01*
X123261573Y-57810060D01*
X123261574Y-57810060D01*
X123308569Y-57797467D01*
X123329125Y-57791959D01*
X123378576Y-57742508D01*
X123396677Y-57674956D01*
X123396665Y-57674913D01*
X123378576Y-57607404D01*
X123378574Y-57607401D01*
X123329127Y-57557954D01*
X123329124Y-57557952D01*
X123261574Y-57539852D01*
X123261572Y-57539852D01*
X123194021Y-57557952D01*
X123194018Y-57557954D01*
X123144571Y-57607401D01*
X123144569Y-57607404D01*
X123126469Y-57674955D01*
X123001645Y-57674955D01*
X123017452Y-57615964D01*
X123015284Y-57607875D01*
X122999351Y-57548412D01*
X122999349Y-57548409D01*
X122949902Y-57498962D01*
X122949899Y-57498960D01*
X122882349Y-57480860D01*
X122882347Y-57480860D01*
X122814796Y-57498960D01*
X122814793Y-57498962D01*
X122765346Y-57548409D01*
X122765344Y-57548412D01*
X122747244Y-57615963D01*
X120590001Y-57615963D01*
X120590001Y-57189999D01*
X121244896Y-57189999D01*
X121244896Y-57190000D01*
X121262996Y-57257551D01*
X121262998Y-57257554D01*
X121312445Y-57307001D01*
X121312448Y-57307003D01*
X121379999Y-57325104D01*
X121380000Y-57325104D01*
X121380001Y-57325104D01*
X121413776Y-57316053D01*
X121447552Y-57307003D01*
X121497003Y-57257552D01*
X121515104Y-57190000D01*
X121513837Y-57185271D01*
X122295114Y-57185271D01*
X122295114Y-57185272D01*
X122313214Y-57252823D01*
X122313216Y-57252826D01*
X122362663Y-57302273D01*
X122362666Y-57302275D01*
X122430217Y-57320376D01*
X122430218Y-57320376D01*
X122430219Y-57320376D01*
X122480125Y-57307003D01*
X122497770Y-57302275D01*
X122547221Y-57252824D01*
X122565322Y-57185272D01*
X122564712Y-57182997D01*
X122547221Y-57117720D01*
X122547219Y-57117717D01*
X122497772Y-57068270D01*
X122497769Y-57068268D01*
X122430219Y-57050168D01*
X122430217Y-57050168D01*
X122362666Y-57068268D01*
X122362663Y-57068270D01*
X122313216Y-57117717D01*
X122313214Y-57117720D01*
X122295114Y-57185271D01*
X121513837Y-57185271D01*
X121512703Y-57181039D01*
X121516599Y-57151445D01*
X121540280Y-57133274D01*
X121560597Y-57135948D01*
X121561201Y-57133698D01*
X121633712Y-57153128D01*
X121633713Y-57153128D01*
X121633714Y-57153128D01*
X121667489Y-57144077D01*
X121701265Y-57135027D01*
X121750716Y-57085576D01*
X121768817Y-57018024D01*
X121750716Y-56950472D01*
X121750714Y-56950469D01*
X121701267Y-56901022D01*
X121701264Y-56901020D01*
X121633714Y-56882920D01*
X121633712Y-56882920D01*
X121566161Y-56901020D01*
X121566158Y-56901022D01*
X121516711Y-56950469D01*
X121516709Y-56950472D01*
X121498609Y-57018023D01*
X121501010Y-57026986D01*
X121497112Y-57056579D01*
X121473430Y-57074750D01*
X121453115Y-57072074D01*
X121452512Y-57074326D01*
X121380001Y-57054896D01*
X121379999Y-57054896D01*
X121312448Y-57072996D01*
X121312445Y-57072998D01*
X121262998Y-57122445D01*
X121262996Y-57122448D01*
X121244896Y-57189999D01*
X120590001Y-57189999D01*
X120590001Y-56062128D01*
X120594584Y-56051064D01*
X121314896Y-56051064D01*
X121314896Y-56051065D01*
X121332996Y-56118616D01*
X121332998Y-56118619D01*
X121382445Y-56168066D01*
X121382448Y-56168068D01*
X121449999Y-56186169D01*
X121450000Y-56186169D01*
X121450001Y-56186169D01*
X121491432Y-56175067D01*
X121517552Y-56168068D01*
X121567003Y-56118617D01*
X121585104Y-56051065D01*
X121584818Y-56049999D01*
X121567003Y-55983513D01*
X121567001Y-55983510D01*
X121517554Y-55934063D01*
X121517551Y-55934061D01*
X121450001Y-55915961D01*
X121449999Y-55915961D01*
X121382448Y-55934061D01*
X121382445Y-55934063D01*
X121332998Y-55983510D01*
X121332996Y-55983513D01*
X121314896Y-56051064D01*
X120594584Y-56051064D01*
X120601423Y-56034552D01*
X121173616Y-55462358D01*
X121337849Y-55462358D01*
X121337849Y-55462359D01*
X121355949Y-55529910D01*
X121355951Y-55529913D01*
X121405398Y-55579360D01*
X121405401Y-55579362D01*
X121472952Y-55597463D01*
X121472953Y-55597463D01*
X121472954Y-55597463D01*
X121506729Y-55588412D01*
X121540505Y-55579362D01*
X121589956Y-55529911D01*
X121606405Y-55468523D01*
X121610467Y-55463229D01*
X121606405Y-55456193D01*
X121589956Y-55394807D01*
X121589954Y-55394804D01*
X121540507Y-55345357D01*
X121540504Y-55345355D01*
X121472954Y-55327255D01*
X121472952Y-55327255D01*
X121405401Y-55345355D01*
X121405398Y-55345357D01*
X121357906Y-55392849D01*
X121356295Y-55393515D01*
X121337849Y-55462358D01*
X121173616Y-55462358D01*
X121274222Y-55361752D01*
X121280122Y-55356910D01*
X121296181Y-55346181D01*
X121296181Y-55346179D01*
X121297358Y-55345394D01*
X121297901Y-55343606D01*
X121299101Y-55341810D01*
X121306910Y-55330122D01*
X121311748Y-55324227D01*
X121325408Y-55310568D01*
X121332798Y-55292724D01*
X121336394Y-55285997D01*
X121347126Y-55269937D01*
X121350891Y-55251002D01*
X121353112Y-55243684D01*
X121360500Y-55225850D01*
X121360500Y-55206545D01*
X121361249Y-55198937D01*
X121361389Y-55198228D01*
X121365016Y-55180000D01*
X121361249Y-55161061D01*
X121360500Y-55153453D01*
X121360500Y-55134150D01*
X121353113Y-55116316D01*
X121350894Y-55109002D01*
X121347126Y-55090063D01*
X121336400Y-55074011D01*
X121332796Y-55067269D01*
X121331825Y-55064925D01*
X121331824Y-55035075D01*
X121352930Y-55013968D01*
X121367856Y-55010999D01*
X121393164Y-55010999D01*
X121420741Y-55022422D01*
G37*
%TD.AperFunction*%
%TA.AperFunction,Conductor*%
G36*
X120124966Y-55851474D02*
G01*
X120136389Y-55879051D01*
X120133421Y-55893974D01*
X120129000Y-55904648D01*
X120129000Y-56000885D01*
X120129001Y-56000894D01*
X120129001Y-56135251D01*
X120117578Y-56162828D01*
X120090001Y-56174251D01*
X120079907Y-56172922D01*
X120010000Y-56154191D01*
X119932096Y-56175065D01*
X119932093Y-56175067D01*
X119875067Y-56232093D01*
X119875065Y-56232096D01*
X119854191Y-56310000D01*
X119872701Y-56379084D01*
X119875065Y-56387904D01*
X119875067Y-56387908D01*
X119932092Y-56444933D01*
X119932093Y-56444933D01*
X119932095Y-56444935D01*
X120010000Y-56465809D01*
X120079909Y-56447077D01*
X120109501Y-56450973D01*
X120127672Y-56474654D01*
X120129001Y-56484748D01*
X120129001Y-58093057D01*
X120117578Y-58120634D01*
X120104927Y-58129088D01*
X120083008Y-58138167D01*
X120083006Y-58138169D01*
X119953099Y-58268077D01*
X119925522Y-58279500D01*
X119250394Y-58279500D01*
X119250386Y-58279499D01*
X119245849Y-58279499D01*
X119154150Y-58279499D01*
X119105866Y-58299500D01*
X119087649Y-58307045D01*
X119069433Y-58314590D01*
X119069430Y-58314592D01*
X118687077Y-58696946D01*
X118659500Y-58708369D01*
X118631923Y-58696946D01*
X118620500Y-58669369D01*
X118620500Y-57316941D01*
X118631922Y-57289365D01*
X120069814Y-55851473D01*
X120097389Y-55840051D01*
X120124966Y-55851474D01*
G37*
%TD.AperFunction*%
%TD*%
M02*
