%TF.GenerationSoftware,KiCad,Pcbnew,8.0.3*%
%TF.CreationDate,2024-10-01T18:17:42-04:00*%
%TF.ProjectId,headstage-16stim,68656164-7374-4616-9765-2d3136737469,B*%
%TF.SameCoordinates,Original*%
%TF.FileFunction,Legend,Bot*%
%TF.FilePolarity,Positive*%
%FSLAX46Y46*%
G04 Gerber Fmt 4.6, Leading zero omitted, Abs format (unit mm)*
G04 Created by KiCad (PCBNEW 8.0.3) date 2024-10-01 18:17:42*
%MOMM*%
%LPD*%
G01*
G04 APERTURE LIST*
%ADD10C,0.150000*%
%ADD11C,0.125000*%
%ADD12C,0.120000*%
%ADD13C,0.100000*%
G04 APERTURE END LIST*
D10*
X118935000Y-54960000D02*
X119245000Y-54780000D01*
D11*
X129751380Y-69180952D02*
X129775190Y-69228571D01*
X129775190Y-69228571D02*
X129775190Y-69300000D01*
X129775190Y-69300000D02*
X129751380Y-69371428D01*
X129751380Y-69371428D02*
X129703761Y-69419047D01*
X129703761Y-69419047D02*
X129656142Y-69442857D01*
X129656142Y-69442857D02*
X129560904Y-69466666D01*
X129560904Y-69466666D02*
X129489476Y-69466666D01*
X129489476Y-69466666D02*
X129394238Y-69442857D01*
X129394238Y-69442857D02*
X129346619Y-69419047D01*
X129346619Y-69419047D02*
X129299000Y-69371428D01*
X129299000Y-69371428D02*
X129275190Y-69300000D01*
X129275190Y-69300000D02*
X129275190Y-69252381D01*
X129275190Y-69252381D02*
X129299000Y-69180952D01*
X129299000Y-69180952D02*
X129322809Y-69157143D01*
X129322809Y-69157143D02*
X129489476Y-69157143D01*
X129489476Y-69157143D02*
X129489476Y-69252381D01*
X129275190Y-68942857D02*
X129775190Y-68942857D01*
X129775190Y-68942857D02*
X129275190Y-68657143D01*
X129275190Y-68657143D02*
X129775190Y-68657143D01*
X129275190Y-68419047D02*
X129775190Y-68419047D01*
X129775190Y-68419047D02*
X129775190Y-68299999D01*
X129775190Y-68299999D02*
X129751380Y-68228571D01*
X129751380Y-68228571D02*
X129703761Y-68180952D01*
X129703761Y-68180952D02*
X129656142Y-68157142D01*
X129656142Y-68157142D02*
X129560904Y-68133333D01*
X129560904Y-68133333D02*
X129489476Y-68133333D01*
X129489476Y-68133333D02*
X129394238Y-68157142D01*
X129394238Y-68157142D02*
X129346619Y-68180952D01*
X129346619Y-68180952D02*
X129299000Y-68228571D01*
X129299000Y-68228571D02*
X129275190Y-68299999D01*
X129275190Y-68299999D02*
X129275190Y-68419047D01*
X118711271Y-55626284D02*
X118958707Y-55483427D01*
X118834989Y-55554856D02*
X118584989Y-55121843D01*
X118584989Y-55121843D02*
X118661943Y-55159893D01*
X118661943Y-55159893D02*
X118726992Y-55177322D01*
X118726992Y-55177322D02*
X118780136Y-55174133D01*
X118400268Y-55420942D02*
X118463836Y-55769141D01*
X118463836Y-55769141D02*
X118194071Y-55539990D01*
X117990210Y-55520225D02*
X117957686Y-55511510D01*
X117957686Y-55511510D02*
X117904541Y-55514700D01*
X117904541Y-55514700D02*
X117801443Y-55574224D01*
X117801443Y-55574224D02*
X117772109Y-55618653D01*
X117772109Y-55618653D02*
X117763394Y-55651177D01*
X117763394Y-55651177D02*
X117766584Y-55704321D01*
X117766584Y-55704321D02*
X117790393Y-55745561D01*
X117790393Y-55745561D02*
X117846727Y-55795515D01*
X117846727Y-55795515D02*
X118237020Y-55900094D01*
X118237020Y-55900094D02*
X117968965Y-56054855D01*
X128175190Y-69102380D02*
X128413285Y-69269046D01*
X128175190Y-69388094D02*
X128675190Y-69388094D01*
X128675190Y-69388094D02*
X128675190Y-69197618D01*
X128675190Y-69197618D02*
X128651380Y-69149999D01*
X128651380Y-69149999D02*
X128627571Y-69126189D01*
X128627571Y-69126189D02*
X128579952Y-69102380D01*
X128579952Y-69102380D02*
X128508523Y-69102380D01*
X128508523Y-69102380D02*
X128460904Y-69126189D01*
X128460904Y-69126189D02*
X128437095Y-69149999D01*
X128437095Y-69149999D02*
X128413285Y-69197618D01*
X128413285Y-69197618D02*
X128413285Y-69388094D01*
X128199000Y-68697618D02*
X128175190Y-68745237D01*
X128175190Y-68745237D02*
X128175190Y-68840475D01*
X128175190Y-68840475D02*
X128199000Y-68888094D01*
X128199000Y-68888094D02*
X128246619Y-68911903D01*
X128246619Y-68911903D02*
X128437095Y-68911903D01*
X128437095Y-68911903D02*
X128484714Y-68888094D01*
X128484714Y-68888094D02*
X128508523Y-68840475D01*
X128508523Y-68840475D02*
X128508523Y-68745237D01*
X128508523Y-68745237D02*
X128484714Y-68697618D01*
X128484714Y-68697618D02*
X128437095Y-68673808D01*
X128437095Y-68673808D02*
X128389476Y-68673808D01*
X128389476Y-68673808D02*
X128341857Y-68911903D01*
X128508523Y-68530951D02*
X128508523Y-68340475D01*
X128175190Y-68459523D02*
X128603761Y-68459523D01*
X128603761Y-68459523D02*
X128651380Y-68435713D01*
X128651380Y-68435713D02*
X128675190Y-68388094D01*
X128675190Y-68388094D02*
X128675190Y-68340475D01*
X127246335Y-55474809D02*
X126936811Y-55474809D01*
X126936811Y-55474809D02*
X127103478Y-55665285D01*
X127103478Y-55665285D02*
X127032049Y-55665285D01*
X127032049Y-55665285D02*
X126984430Y-55689095D01*
X126984430Y-55689095D02*
X126960621Y-55712904D01*
X126960621Y-55712904D02*
X126936811Y-55760523D01*
X126936811Y-55760523D02*
X126936811Y-55879571D01*
X126936811Y-55879571D02*
X126960621Y-55927190D01*
X126960621Y-55927190D02*
X126984430Y-55951000D01*
X126984430Y-55951000D02*
X127032049Y-55974809D01*
X127032049Y-55974809D02*
X127174906Y-55974809D01*
X127174906Y-55974809D02*
X127222525Y-55951000D01*
X127222525Y-55951000D02*
X127246335Y-55927190D01*
X126770145Y-55641476D02*
X126651097Y-55974809D01*
X126651097Y-55974809D02*
X126532050Y-55641476D01*
X126389193Y-55474809D02*
X126079669Y-55474809D01*
X126079669Y-55474809D02*
X126246336Y-55665285D01*
X126246336Y-55665285D02*
X126174907Y-55665285D01*
X126174907Y-55665285D02*
X126127288Y-55689095D01*
X126127288Y-55689095D02*
X126103479Y-55712904D01*
X126103479Y-55712904D02*
X126079669Y-55760523D01*
X126079669Y-55760523D02*
X126079669Y-55879571D01*
X126079669Y-55879571D02*
X126103479Y-55927190D01*
X126103479Y-55927190D02*
X126127288Y-55951000D01*
X126127288Y-55951000D02*
X126174907Y-55974809D01*
X126174907Y-55974809D02*
X126317764Y-55974809D01*
X126317764Y-55974809D02*
X126365383Y-55951000D01*
X126365383Y-55951000D02*
X126389193Y-55927190D01*
X131899999Y-66322323D02*
X131899999Y-65822323D01*
X131899999Y-66060418D02*
X131614285Y-66060418D01*
X131614285Y-66322323D02*
X131614285Y-65822323D01*
X131399998Y-66298514D02*
X131328570Y-66322323D01*
X131328570Y-66322323D02*
X131209522Y-66322323D01*
X131209522Y-66322323D02*
X131161903Y-66298514D01*
X131161903Y-66298514D02*
X131138094Y-66274704D01*
X131138094Y-66274704D02*
X131114284Y-66227085D01*
X131114284Y-66227085D02*
X131114284Y-66179466D01*
X131114284Y-66179466D02*
X131138094Y-66131847D01*
X131138094Y-66131847D02*
X131161903Y-66108037D01*
X131161903Y-66108037D02*
X131209522Y-66084228D01*
X131209522Y-66084228D02*
X131304760Y-66060418D01*
X131304760Y-66060418D02*
X131352379Y-66036609D01*
X131352379Y-66036609D02*
X131376189Y-66012799D01*
X131376189Y-66012799D02*
X131399998Y-65965180D01*
X131399998Y-65965180D02*
X131399998Y-65917561D01*
X131399998Y-65917561D02*
X131376189Y-65869942D01*
X131376189Y-65869942D02*
X131352379Y-65846133D01*
X131352379Y-65846133D02*
X131304760Y-65822323D01*
X131304760Y-65822323D02*
X131185713Y-65822323D01*
X131185713Y-65822323D02*
X131114284Y-65846133D01*
X130899999Y-66131847D02*
X130519047Y-66131847D01*
X130019046Y-66322323D02*
X130304760Y-66322323D01*
X130161903Y-66322323D02*
X130161903Y-65822323D01*
X130161903Y-65822323D02*
X130209522Y-65893752D01*
X130209522Y-65893752D02*
X130257141Y-65941371D01*
X130257141Y-65941371D02*
X130304760Y-65965180D01*
X129590475Y-65822323D02*
X129685713Y-65822323D01*
X129685713Y-65822323D02*
X129733332Y-65846133D01*
X129733332Y-65846133D02*
X129757142Y-65869942D01*
X129757142Y-65869942D02*
X129804761Y-65941371D01*
X129804761Y-65941371D02*
X129828570Y-66036609D01*
X129828570Y-66036609D02*
X129828570Y-66227085D01*
X129828570Y-66227085D02*
X129804761Y-66274704D01*
X129804761Y-66274704D02*
X129780951Y-66298514D01*
X129780951Y-66298514D02*
X129733332Y-66322323D01*
X129733332Y-66322323D02*
X129638094Y-66322323D01*
X129638094Y-66322323D02*
X129590475Y-66298514D01*
X129590475Y-66298514D02*
X129566666Y-66274704D01*
X129566666Y-66274704D02*
X129542856Y-66227085D01*
X129542856Y-66227085D02*
X129542856Y-66108037D01*
X129542856Y-66108037D02*
X129566666Y-66060418D01*
X129566666Y-66060418D02*
X129590475Y-66036609D01*
X129590475Y-66036609D02*
X129638094Y-66012799D01*
X129638094Y-66012799D02*
X129733332Y-66012799D01*
X129733332Y-66012799D02*
X129780951Y-66036609D01*
X129780951Y-66036609D02*
X129804761Y-66060418D01*
X129804761Y-66060418D02*
X129828570Y-66108037D01*
X129352380Y-66298514D02*
X129280952Y-66322323D01*
X129280952Y-66322323D02*
X129161904Y-66322323D01*
X129161904Y-66322323D02*
X129114285Y-66298514D01*
X129114285Y-66298514D02*
X129090476Y-66274704D01*
X129090476Y-66274704D02*
X129066666Y-66227085D01*
X129066666Y-66227085D02*
X129066666Y-66179466D01*
X129066666Y-66179466D02*
X129090476Y-66131847D01*
X129090476Y-66131847D02*
X129114285Y-66108037D01*
X129114285Y-66108037D02*
X129161904Y-66084228D01*
X129161904Y-66084228D02*
X129257142Y-66060418D01*
X129257142Y-66060418D02*
X129304761Y-66036609D01*
X129304761Y-66036609D02*
X129328571Y-66012799D01*
X129328571Y-66012799D02*
X129352380Y-65965180D01*
X129352380Y-65965180D02*
X129352380Y-65917561D01*
X129352380Y-65917561D02*
X129328571Y-65869942D01*
X129328571Y-65869942D02*
X129304761Y-65846133D01*
X129304761Y-65846133D02*
X129257142Y-65822323D01*
X129257142Y-65822323D02*
X129138095Y-65822323D01*
X129138095Y-65822323D02*
X129066666Y-65846133D01*
X128923809Y-65988990D02*
X128733333Y-65988990D01*
X128852381Y-65822323D02*
X128852381Y-66250894D01*
X128852381Y-66250894D02*
X128828571Y-66298514D01*
X128828571Y-66298514D02*
X128780952Y-66322323D01*
X128780952Y-66322323D02*
X128733333Y-66322323D01*
X128566667Y-66322323D02*
X128566667Y-65988990D01*
X128566667Y-65822323D02*
X128590476Y-65846133D01*
X128590476Y-65846133D02*
X128566667Y-65869942D01*
X128566667Y-65869942D02*
X128542857Y-65846133D01*
X128542857Y-65846133D02*
X128566667Y-65822323D01*
X128566667Y-65822323D02*
X128566667Y-65869942D01*
X128328572Y-66322323D02*
X128328572Y-65988990D01*
X128328572Y-66036609D02*
X128304762Y-66012799D01*
X128304762Y-66012799D02*
X128257143Y-65988990D01*
X128257143Y-65988990D02*
X128185715Y-65988990D01*
X128185715Y-65988990D02*
X128138096Y-66012799D01*
X128138096Y-66012799D02*
X128114286Y-66060418D01*
X128114286Y-66060418D02*
X128114286Y-66322323D01*
X128114286Y-66060418D02*
X128090477Y-66012799D01*
X128090477Y-66012799D02*
X128042858Y-65988990D01*
X128042858Y-65988990D02*
X127971429Y-65988990D01*
X127971429Y-65988990D02*
X127923810Y-66012799D01*
X127923810Y-66012799D02*
X127900000Y-66060418D01*
X127900000Y-66060418D02*
X127900000Y-66322323D01*
X131304760Y-67127295D02*
X131471426Y-66889200D01*
X131590474Y-67127295D02*
X131590474Y-66627295D01*
X131590474Y-66627295D02*
X131399998Y-66627295D01*
X131399998Y-66627295D02*
X131352379Y-66651105D01*
X131352379Y-66651105D02*
X131328569Y-66674914D01*
X131328569Y-66674914D02*
X131304760Y-66722533D01*
X131304760Y-66722533D02*
X131304760Y-66793962D01*
X131304760Y-66793962D02*
X131328569Y-66841581D01*
X131328569Y-66841581D02*
X131352379Y-66865390D01*
X131352379Y-66865390D02*
X131399998Y-66889200D01*
X131399998Y-66889200D02*
X131590474Y-66889200D01*
X130899998Y-67103486D02*
X130947617Y-67127295D01*
X130947617Y-67127295D02*
X131042855Y-67127295D01*
X131042855Y-67127295D02*
X131090474Y-67103486D01*
X131090474Y-67103486D02*
X131114283Y-67055866D01*
X131114283Y-67055866D02*
X131114283Y-66865390D01*
X131114283Y-66865390D02*
X131090474Y-66817771D01*
X131090474Y-66817771D02*
X131042855Y-66793962D01*
X131042855Y-66793962D02*
X130947617Y-66793962D01*
X130947617Y-66793962D02*
X130899998Y-66817771D01*
X130899998Y-66817771D02*
X130876188Y-66865390D01*
X130876188Y-66865390D02*
X130876188Y-66913009D01*
X130876188Y-66913009D02*
X131114283Y-66960628D01*
X130709522Y-66793962D02*
X130590474Y-67127295D01*
X130590474Y-67127295D02*
X130471427Y-66793962D01*
X130280951Y-67079676D02*
X130257141Y-67103486D01*
X130257141Y-67103486D02*
X130280951Y-67127295D01*
X130280951Y-67127295D02*
X130304760Y-67103486D01*
X130304760Y-67103486D02*
X130280951Y-67079676D01*
X130280951Y-67079676D02*
X130280951Y-67127295D01*
X129876189Y-66865390D02*
X129804761Y-66889200D01*
X129804761Y-66889200D02*
X129780951Y-66913009D01*
X129780951Y-66913009D02*
X129757142Y-66960628D01*
X129757142Y-66960628D02*
X129757142Y-67032057D01*
X129757142Y-67032057D02*
X129780951Y-67079676D01*
X129780951Y-67079676D02*
X129804761Y-67103486D01*
X129804761Y-67103486D02*
X129852380Y-67127295D01*
X129852380Y-67127295D02*
X130042856Y-67127295D01*
X130042856Y-67127295D02*
X130042856Y-66627295D01*
X130042856Y-66627295D02*
X129876189Y-66627295D01*
X129876189Y-66627295D02*
X129828570Y-66651105D01*
X129828570Y-66651105D02*
X129804761Y-66674914D01*
X129804761Y-66674914D02*
X129780951Y-66722533D01*
X129780951Y-66722533D02*
X129780951Y-66770152D01*
X129780951Y-66770152D02*
X129804761Y-66817771D01*
X129804761Y-66817771D02*
X129828570Y-66841581D01*
X129828570Y-66841581D02*
X129876189Y-66865390D01*
X129876189Y-66865390D02*
X130042856Y-66865390D01*
X129138094Y-66627295D02*
X129185713Y-66722533D01*
X128947618Y-66674914D02*
X128923809Y-66651105D01*
X128923809Y-66651105D02*
X128876190Y-66627295D01*
X128876190Y-66627295D02*
X128757142Y-66627295D01*
X128757142Y-66627295D02*
X128709523Y-66651105D01*
X128709523Y-66651105D02*
X128685714Y-66674914D01*
X128685714Y-66674914D02*
X128661904Y-66722533D01*
X128661904Y-66722533D02*
X128661904Y-66770152D01*
X128661904Y-66770152D02*
X128685714Y-66841581D01*
X128685714Y-66841581D02*
X128971428Y-67127295D01*
X128971428Y-67127295D02*
X128661904Y-67127295D01*
X128233333Y-66793962D02*
X128233333Y-67127295D01*
X128352381Y-66603486D02*
X128471428Y-66960628D01*
X128471428Y-66960628D02*
X128161905Y-66960628D01*
D12*
%TO.C,TP3*%
X120230000Y-54670000D02*
G75*
G02*
X119430000Y-54670000I-400000J0D01*
G01*
X119430000Y-54670000D02*
G75*
G02*
X120230000Y-54670000I400000J0D01*
G01*
%TO.C,C52*%
X122478576Y-54975740D02*
X122478576Y-55191412D01*
X123198576Y-54975740D02*
X123198576Y-55191412D01*
%TO.C,C54*%
X121502164Y-59850000D02*
X121717836Y-59850000D01*
X121502164Y-59130000D02*
X121717836Y-59130000D01*
%TO.C,U2*%
X117658576Y-59920000D02*
X118083576Y-59920000D01*
X116568576Y-59920000D02*
X116143576Y-59920000D01*
X116568576Y-59920000D02*
X116143576Y-59920000D01*
X116568576Y-59920000D02*
X116143576Y-59920000D01*
X118083576Y-59920000D02*
X118083576Y-59495000D01*
X116143576Y-59920000D02*
X116143576Y-59495000D01*
X116143576Y-59920000D02*
X116143576Y-59495000D01*
X116143576Y-59920000D02*
X116143576Y-59495000D01*
X118083576Y-57980000D02*
X118083576Y-58405000D01*
X116143576Y-58950000D02*
X116143576Y-58050000D01*
X116143576Y-58475000D02*
X116143576Y-58050000D01*
X117658576Y-57980000D02*
X118083576Y-57980000D01*
X116143576Y-57980000D02*
X117138576Y-57980000D01*
X116143576Y-58475000D02*
X116143576Y-57980000D01*
%TO.C,U11*%
D13*
X129413576Y-59733576D02*
G75*
G02*
X129313576Y-59733576I-50000J0D01*
G01*
X129313576Y-59733576D02*
G75*
G02*
X129413576Y-59733576I50000J0D01*
G01*
D12*
%TO.C,C55*%
X125101412Y-55173576D02*
X124885740Y-55173576D01*
X125101412Y-55893576D02*
X124885740Y-55893576D01*
%TO.C,C23*%
X117072164Y-57680000D02*
X117287836Y-57680000D01*
X117072164Y-56960000D02*
X117287836Y-56960000D01*
%TO.C,C57*%
X121273576Y-58147836D02*
X121273576Y-57932164D01*
X120553576Y-58147836D02*
X120553576Y-57932164D01*
%TO.C,C37*%
X117690000Y-68407836D02*
X117690000Y-68192164D01*
X116970000Y-68407836D02*
X116970000Y-68192164D01*
%TO.C,C51*%
X122223576Y-58137836D02*
X122223576Y-57922164D01*
X121503576Y-58137836D02*
X121503576Y-57922164D01*
%TO.C,C56*%
X121355740Y-56193576D02*
X121571412Y-56193576D01*
X121355740Y-55473576D02*
X121571412Y-55473576D01*
%TO.C,U10*%
X117902500Y-66792500D02*
X117902500Y-66792500D01*
%TO.C,U1*%
X127150000Y-71850000D02*
X127150000Y-71100000D01*
X119850000Y-64550000D02*
X119850000Y-65000000D01*
X120300000Y-64550000D02*
X119850000Y-64550000D01*
X120300000Y-71850000D02*
X119850000Y-71850000D01*
X126400000Y-71850000D02*
X127150000Y-71850000D01*
X126700000Y-64550000D02*
X127150000Y-64550000D01*
X119850000Y-71850000D02*
X119850000Y-71400000D01*
X127150000Y-64550000D02*
X127150000Y-65000000D01*
%TO.C,TP1*%
X127600000Y-54860000D02*
G75*
G02*
X126800000Y-54860000I-400000J0D01*
G01*
X126800000Y-54860000D02*
G75*
G02*
X127600000Y-54860000I400000J0D01*
G01*
%TO.C,U5*%
X118650000Y-66790000D02*
X118650000Y-66790000D01*
%TO.C,C32*%
X115000000Y-61347836D02*
X115000000Y-61132164D01*
X114280000Y-61347836D02*
X114280000Y-61132164D01*
%TO.C,TP4*%
X115350000Y-59930000D02*
G75*
G02*
X114550000Y-59930000I-400000J0D01*
G01*
X114550000Y-59930000D02*
G75*
G02*
X115350000Y-59930000I400000J0D01*
G01*
%TO.C,U13*%
X114774999Y-66974999D02*
X114774999Y-67174999D01*
X114774999Y-64725001D02*
X114774999Y-64925001D01*
X114774999Y-67174999D02*
X114974999Y-67174999D01*
X114774999Y-64725001D02*
X114974999Y-64725001D01*
X117625001Y-67174999D02*
X117825001Y-67174999D01*
X117825001Y-66974999D02*
X117825001Y-67174999D01*
X117825001Y-64725001D02*
X117825001Y-65275000D01*
X117275002Y-64725001D02*
X117825001Y-64725001D01*
%TO.C,C30*%
X116505687Y-68093389D02*
X116397851Y-67906611D01*
X115882149Y-68453389D02*
X115774313Y-68266611D01*
%TO.C,U6*%
X131480000Y-58338576D02*
X131480000Y-57913576D01*
X131480000Y-59428576D02*
X131480000Y-59853576D01*
X131480000Y-59428576D02*
X131480000Y-59853576D01*
X131480000Y-59428576D02*
X131480000Y-59853576D01*
X131480000Y-57913576D02*
X131055000Y-57913576D01*
X131480000Y-59853576D02*
X131055000Y-59853576D01*
X131480000Y-59853576D02*
X131055000Y-59853576D01*
X131480000Y-59853576D02*
X131055000Y-59853576D01*
X129540000Y-57913576D02*
X129965000Y-57913576D01*
X130510000Y-59853576D02*
X129610000Y-59853576D01*
X130035000Y-59853576D02*
X129610000Y-59853576D01*
X129540000Y-58338576D02*
X129540000Y-57913576D01*
X129540000Y-59853576D02*
X129540000Y-58858576D01*
X130035000Y-59853576D02*
X129540000Y-59853576D01*
%TO.C,C53*%
X124321412Y-58923576D02*
X124105740Y-58923576D01*
X124321412Y-59643576D02*
X124105740Y-59643576D01*
%TO.C,C50*%
X125563576Y-57901412D02*
X125563576Y-57685740D01*
X124843576Y-57901412D02*
X124843576Y-57685740D01*
D13*
%TO.C,J2*%
X131300000Y-61200000D02*
X131300000Y-62800000D01*
X115700000Y-61200000D02*
X115700000Y-62800000D01*
D12*
%TO.C,C31*%
X115000000Y-63157836D02*
X115000000Y-62942164D01*
X114280000Y-63157836D02*
X114280000Y-62942164D01*
%TO.C,U9*%
X115740000Y-64660000D02*
X115740000Y-64660000D01*
%TD*%
M02*
