%TF.GenerationSoftware,KiCad,Pcbnew,(6.0.0)*%
%TF.CreationDate,2022-12-05T09:44:38-05:00*%
%TF.ProjectId,headstage-16stim,68656164-7374-4616-9765-2d3136737469,A*%
%TF.SameCoordinates,Original*%
%TF.FileFunction,AssemblyDrawing,Top*%
%FSLAX46Y46*%
G04 Gerber Fmt 4.6, Leading zero omitted, Abs format (unit mm)*
G04 Created by KiCad (PCBNEW (6.0.0)) date 2022-12-05 09:44:38*
%MOMM*%
%LPD*%
G01*
G04 APERTURE LIST*
%ADD10C,0.075000*%
%ADD11C,0.100000*%
%ADD12C,0.050000*%
%ADD13C,0.150000*%
G04 APERTURE END LIST*
D10*
X123324285Y-61945714D02*
X123324285Y-61645714D01*
X123395714Y-61645714D01*
X123438571Y-61660000D01*
X123467142Y-61688571D01*
X123481428Y-61717142D01*
X123495714Y-61774285D01*
X123495714Y-61817142D01*
X123481428Y-61874285D01*
X123467142Y-61902857D01*
X123438571Y-61931428D01*
X123395714Y-61945714D01*
X123324285Y-61945714D01*
X123624285Y-61945714D02*
X123624285Y-61645714D01*
X123795714Y-61945714D01*
X123795714Y-61645714D01*
X123938571Y-61945714D02*
X123938571Y-61645714D01*
X124052857Y-61645714D01*
X124081428Y-61660000D01*
X124095714Y-61674285D01*
X124110000Y-61702857D01*
X124110000Y-61745714D01*
X124095714Y-61774285D01*
X124081428Y-61788571D01*
X124052857Y-61802857D01*
X123938571Y-61802857D01*
D11*
X122335000Y-60750000D02*
X124985000Y-60750000D01*
X124985000Y-60750000D02*
X124985000Y-62280000D01*
X124985000Y-62280000D02*
X122335000Y-62280000D01*
X122335000Y-62280000D02*
X122335000Y-60750000D01*
X121460000Y-59290000D02*
X129760000Y-59290000D01*
X129760000Y-59290000D02*
X129760000Y-60110000D01*
X129760000Y-60110000D02*
X121460000Y-60110000D01*
X121460000Y-60110000D02*
X121460000Y-59290000D01*
X116900000Y-65850000D02*
X118000000Y-65850000D01*
X118000000Y-65850000D02*
X118000000Y-65350000D01*
X118000000Y-65350000D02*
X116900000Y-65350000D01*
X116900000Y-65350000D02*
X116900000Y-65850000D01*
X126200000Y-57900000D02*
X126000000Y-58300000D01*
X126400000Y-58300000D02*
X126200000Y-57900000D01*
X126000000Y-58300000D02*
X126400000Y-58300000D01*
D12*
X133000000Y-63000000D02*
G75*
G03*
X133000000Y-63000000I-9500000J0D01*
G01*
D13*
X122142857Y-81852380D02*
X122476190Y-82852380D01*
X122809523Y-81852380D01*
X123142857Y-82471428D02*
X123904761Y-82471428D01*
X124952380Y-82757142D02*
X124904761Y-82804761D01*
X124761904Y-82852380D01*
X124666666Y-82852380D01*
X124523809Y-82804761D01*
X124428571Y-82709523D01*
X124380952Y-82614285D01*
X124333333Y-82423809D01*
X124333333Y-82280952D01*
X124380952Y-82090476D01*
X124428571Y-81995238D01*
X124523809Y-81900000D01*
X124666666Y-81852380D01*
X124761904Y-81852380D01*
X124904761Y-81900000D01*
X124952380Y-81947619D01*
X125380952Y-81852380D02*
X125380952Y-82661904D01*
X125428571Y-82757142D01*
X125476190Y-82804761D01*
X125571428Y-82852380D01*
X125761904Y-82852380D01*
X125857142Y-82804761D01*
X125904761Y-82757142D01*
X125952380Y-82661904D01*
X125952380Y-81852380D01*
X126285714Y-81852380D02*
X126857142Y-81852380D01*
X126571428Y-82852380D02*
X126571428Y-81852380D01*
X119542857Y-28452380D02*
X119876190Y-29452380D01*
X120209523Y-28452380D01*
X120542857Y-29071428D02*
X121304761Y-29071428D01*
X122352380Y-29357142D02*
X122304761Y-29404761D01*
X122161904Y-29452380D01*
X122066666Y-29452380D01*
X121923809Y-29404761D01*
X121828571Y-29309523D01*
X121780952Y-29214285D01*
X121733333Y-29023809D01*
X121733333Y-28880952D01*
X121780952Y-28690476D01*
X121828571Y-28595238D01*
X121923809Y-28500000D01*
X122066666Y-28452380D01*
X122161904Y-28452380D01*
X122304761Y-28500000D01*
X122352380Y-28547619D01*
X122780952Y-28452380D02*
X122780952Y-29261904D01*
X122828571Y-29357142D01*
X122876190Y-29404761D01*
X122971428Y-29452380D01*
X123161904Y-29452380D01*
X123257142Y-29404761D01*
X123304761Y-29357142D01*
X123352380Y-29261904D01*
X123352380Y-28452380D01*
X123685714Y-28452380D02*
X124257142Y-28452380D01*
X123971428Y-29452380D02*
X123971428Y-28452380D01*
X144252380Y-59657142D02*
X145252380Y-59323809D01*
X144252380Y-58990476D01*
X144871428Y-58657142D02*
X144871428Y-57895238D01*
X145157142Y-56847619D02*
X145204761Y-56895238D01*
X145252380Y-57038095D01*
X145252380Y-57133333D01*
X145204761Y-57276190D01*
X145109523Y-57371428D01*
X145014285Y-57419047D01*
X144823809Y-57466666D01*
X144680952Y-57466666D01*
X144490476Y-57419047D01*
X144395238Y-57371428D01*
X144300000Y-57276190D01*
X144252380Y-57133333D01*
X144252380Y-57038095D01*
X144300000Y-56895238D01*
X144347619Y-56847619D01*
X144252380Y-56419047D02*
X145061904Y-56419047D01*
X145157142Y-56371428D01*
X145204761Y-56323809D01*
X145252380Y-56228571D01*
X145252380Y-56038095D01*
X145204761Y-55942857D01*
X145157142Y-55895238D01*
X145061904Y-55847619D01*
X144252380Y-55847619D01*
X144252380Y-55514285D02*
X144252380Y-54942857D01*
X145252380Y-55228571D02*
X144252380Y-55228571D01*
X101752380Y-60557142D02*
X102752380Y-60223809D01*
X101752380Y-59890476D01*
X102371428Y-59557142D02*
X102371428Y-58795238D01*
X102657142Y-57747619D02*
X102704761Y-57795238D01*
X102752380Y-57938095D01*
X102752380Y-58033333D01*
X102704761Y-58176190D01*
X102609523Y-58271428D01*
X102514285Y-58319047D01*
X102323809Y-58366666D01*
X102180952Y-58366666D01*
X101990476Y-58319047D01*
X101895238Y-58271428D01*
X101800000Y-58176190D01*
X101752380Y-58033333D01*
X101752380Y-57938095D01*
X101800000Y-57795238D01*
X101847619Y-57747619D01*
X101752380Y-57319047D02*
X102561904Y-57319047D01*
X102657142Y-57271428D01*
X102704761Y-57223809D01*
X102752380Y-57128571D01*
X102752380Y-56938095D01*
X102704761Y-56842857D01*
X102657142Y-56795238D01*
X102561904Y-56747619D01*
X101752380Y-56747619D01*
X101752380Y-56414285D02*
X101752380Y-55842857D01*
X102752380Y-56128571D02*
X101752380Y-56128571D01*
D12*
%TO.C,J1*%
X123570000Y-61045714D02*
X123570000Y-61260000D01*
X123555714Y-61302857D01*
X123527142Y-61331428D01*
X123484285Y-61345714D01*
X123455714Y-61345714D01*
X123870000Y-61345714D02*
X123698571Y-61345714D01*
X123784285Y-61345714D02*
X123784285Y-61045714D01*
X123755714Y-61088571D01*
X123727142Y-61117142D01*
X123698571Y-61131428D01*
%TO.C,L7*%
X127335714Y-61250000D02*
X127335714Y-61392857D01*
X127035714Y-61392857D01*
X127035714Y-61178571D02*
X127035714Y-60978571D01*
X127335714Y-61107142D01*
%TO.C,L2*%
X123635714Y-65700000D02*
X123635714Y-65842857D01*
X123335714Y-65842857D01*
X123364285Y-65614285D02*
X123350000Y-65600000D01*
X123335714Y-65571428D01*
X123335714Y-65500000D01*
X123350000Y-65471428D01*
X123364285Y-65457142D01*
X123392857Y-65442857D01*
X123421428Y-65442857D01*
X123464285Y-65457142D01*
X123635714Y-65628571D01*
X123635714Y-65442857D01*
%TO.C,L1*%
X124820000Y-71835714D02*
X124677142Y-71835714D01*
X124677142Y-71535714D01*
X125077142Y-71835714D02*
X124905714Y-71835714D01*
X124991428Y-71835714D02*
X124991428Y-71535714D01*
X124962857Y-71578571D01*
X124934285Y-71607142D01*
X124905714Y-71621428D01*
%TO.C,C41*%
X118857142Y-70307142D02*
X118842857Y-70321428D01*
X118800000Y-70335714D01*
X118771428Y-70335714D01*
X118728571Y-70321428D01*
X118700000Y-70292857D01*
X118685714Y-70264285D01*
X118671428Y-70207142D01*
X118671428Y-70164285D01*
X118685714Y-70107142D01*
X118700000Y-70078571D01*
X118728571Y-70050000D01*
X118771428Y-70035714D01*
X118800000Y-70035714D01*
X118842857Y-70050000D01*
X118857142Y-70064285D01*
X119114285Y-70135714D02*
X119114285Y-70335714D01*
X119042857Y-70021428D02*
X118971428Y-70235714D01*
X119157142Y-70235714D01*
X119428571Y-70335714D02*
X119257142Y-70335714D01*
X119342857Y-70335714D02*
X119342857Y-70035714D01*
X119314285Y-70078571D01*
X119285714Y-70107142D01*
X119257142Y-70121428D01*
%TO.C,SW1*%
X128121428Y-57632359D02*
X128135714Y-57589501D01*
X128135714Y-57518073D01*
X128121428Y-57489501D01*
X128107142Y-57475216D01*
X128078571Y-57460930D01*
X128050000Y-57460930D01*
X128021428Y-57475216D01*
X128007142Y-57489501D01*
X127992857Y-57518073D01*
X127978571Y-57575216D01*
X127964285Y-57603787D01*
X127950000Y-57618073D01*
X127921428Y-57632359D01*
X127892857Y-57632359D01*
X127864285Y-57618073D01*
X127850000Y-57603787D01*
X127835714Y-57575216D01*
X127835714Y-57503787D01*
X127850000Y-57460930D01*
X127835714Y-57360930D02*
X128135714Y-57289501D01*
X127921428Y-57232359D01*
X128135714Y-57175216D01*
X127835714Y-57103787D01*
X128135714Y-56832359D02*
X128135714Y-57003787D01*
X128135714Y-56918073D02*
X127835714Y-56918073D01*
X127878571Y-56946644D01*
X127907142Y-56975216D01*
X127921428Y-57003787D01*
%TO.C,C36*%
X118607142Y-66507142D02*
X118592857Y-66521428D01*
X118550000Y-66535714D01*
X118521428Y-66535714D01*
X118478571Y-66521428D01*
X118450000Y-66492857D01*
X118435714Y-66464285D01*
X118421428Y-66407142D01*
X118421428Y-66364285D01*
X118435714Y-66307142D01*
X118450000Y-66278571D01*
X118478571Y-66250000D01*
X118521428Y-66235714D01*
X118550000Y-66235714D01*
X118592857Y-66250000D01*
X118607142Y-66264285D01*
X118707142Y-66235714D02*
X118892857Y-66235714D01*
X118792857Y-66350000D01*
X118835714Y-66350000D01*
X118864285Y-66364285D01*
X118878571Y-66378571D01*
X118892857Y-66407142D01*
X118892857Y-66478571D01*
X118878571Y-66507142D01*
X118864285Y-66521428D01*
X118835714Y-66535714D01*
X118750000Y-66535714D01*
X118721428Y-66521428D01*
X118707142Y-66507142D01*
X119150000Y-66235714D02*
X119092857Y-66235714D01*
X119064285Y-66250000D01*
X119050000Y-66264285D01*
X119021428Y-66307142D01*
X119007142Y-66364285D01*
X119007142Y-66478571D01*
X119021428Y-66507142D01*
X119035714Y-66521428D01*
X119064285Y-66535714D01*
X119121428Y-66535714D01*
X119150000Y-66521428D01*
X119164285Y-66507142D01*
X119178571Y-66478571D01*
X119178571Y-66407142D01*
X119164285Y-66378571D01*
X119150000Y-66364285D01*
X119121428Y-66350000D01*
X119064285Y-66350000D01*
X119035714Y-66364285D01*
X119021428Y-66378571D01*
X119007142Y-66407142D01*
%TO.C,U8*%
X123071428Y-57135714D02*
X123071428Y-57378571D01*
X123085714Y-57407142D01*
X123100000Y-57421428D01*
X123128571Y-57435714D01*
X123185714Y-57435714D01*
X123214285Y-57421428D01*
X123228571Y-57407142D01*
X123242857Y-57378571D01*
X123242857Y-57135714D01*
X123428571Y-57264285D02*
X123400000Y-57250000D01*
X123385714Y-57235714D01*
X123371428Y-57207142D01*
X123371428Y-57192857D01*
X123385714Y-57164285D01*
X123400000Y-57150000D01*
X123428571Y-57135714D01*
X123485714Y-57135714D01*
X123514285Y-57150000D01*
X123528571Y-57164285D01*
X123542857Y-57192857D01*
X123542857Y-57207142D01*
X123528571Y-57235714D01*
X123514285Y-57250000D01*
X123485714Y-57264285D01*
X123428571Y-57264285D01*
X123400000Y-57278571D01*
X123385714Y-57292857D01*
X123371428Y-57321428D01*
X123371428Y-57378571D01*
X123385714Y-57407142D01*
X123400000Y-57421428D01*
X123428571Y-57435714D01*
X123485714Y-57435714D01*
X123514285Y-57421428D01*
X123528571Y-57407142D01*
X123542857Y-57378571D01*
X123542857Y-57321428D01*
X123528571Y-57292857D01*
X123514285Y-57278571D01*
X123485714Y-57264285D01*
%TO.C,R15*%
X126235714Y-60792857D02*
X126092857Y-60892857D01*
X126235714Y-60964285D02*
X125935714Y-60964285D01*
X125935714Y-60850000D01*
X125950000Y-60821428D01*
X125964285Y-60807142D01*
X125992857Y-60792857D01*
X126035714Y-60792857D01*
X126064285Y-60807142D01*
X126078571Y-60821428D01*
X126092857Y-60850000D01*
X126092857Y-60964285D01*
X126235714Y-60507142D02*
X126235714Y-60678571D01*
X126235714Y-60592857D02*
X125935714Y-60592857D01*
X125978571Y-60621428D01*
X126007142Y-60650000D01*
X126021428Y-60678571D01*
X125935714Y-60235714D02*
X125935714Y-60378571D01*
X126078571Y-60392857D01*
X126064285Y-60378571D01*
X126050000Y-60350000D01*
X126050000Y-60278571D01*
X126064285Y-60250000D01*
X126078571Y-60235714D01*
X126107142Y-60221428D01*
X126178571Y-60221428D01*
X126207142Y-60235714D01*
X126221428Y-60250000D01*
X126235714Y-60278571D01*
X126235714Y-60350000D01*
X126221428Y-60378571D01*
X126207142Y-60392857D01*
%TO.C,D2*%
X125978571Y-57735714D02*
X125978571Y-57435714D01*
X126050000Y-57435714D01*
X126092857Y-57450000D01*
X126121428Y-57478571D01*
X126135714Y-57507142D01*
X126150000Y-57564285D01*
X126150000Y-57607142D01*
X126135714Y-57664285D01*
X126121428Y-57692857D01*
X126092857Y-57721428D01*
X126050000Y-57735714D01*
X125978571Y-57735714D01*
X126264285Y-57464285D02*
X126278571Y-57450000D01*
X126307142Y-57435714D01*
X126378571Y-57435714D01*
X126407142Y-57450000D01*
X126421428Y-57464285D01*
X126435714Y-57492857D01*
X126435714Y-57521428D01*
X126421428Y-57564285D01*
X126250000Y-57735714D01*
X126435714Y-57735714D01*
%TO.C,U7*%
X127471428Y-66935714D02*
X127471428Y-67178571D01*
X127485714Y-67207142D01*
X127500000Y-67221428D01*
X127528571Y-67235714D01*
X127585714Y-67235714D01*
X127614285Y-67221428D01*
X127628571Y-67207142D01*
X127642857Y-67178571D01*
X127642857Y-66935714D01*
X127757142Y-66935714D02*
X127957142Y-66935714D01*
X127828571Y-67235714D01*
%TO.C,J3*%
X123400000Y-39353214D02*
X123400000Y-39567500D01*
X123385714Y-39610357D01*
X123357142Y-39638928D01*
X123314285Y-39653214D01*
X123285714Y-39653214D01*
X123514285Y-39353214D02*
X123700000Y-39353214D01*
X123600000Y-39467500D01*
X123642857Y-39467500D01*
X123671428Y-39481785D01*
X123685714Y-39496071D01*
X123700000Y-39524642D01*
X123700000Y-39596071D01*
X123685714Y-39624642D01*
X123671428Y-39638928D01*
X123642857Y-39653214D01*
X123557142Y-39653214D01*
X123528571Y-39638928D01*
X123514285Y-39624642D01*
%TO.C,C29*%
X115407142Y-66457142D02*
X115392857Y-66471428D01*
X115350000Y-66485714D01*
X115321428Y-66485714D01*
X115278571Y-66471428D01*
X115250000Y-66442857D01*
X115235714Y-66414285D01*
X115221428Y-66357142D01*
X115221428Y-66314285D01*
X115235714Y-66257142D01*
X115250000Y-66228571D01*
X115278571Y-66200000D01*
X115321428Y-66185714D01*
X115350000Y-66185714D01*
X115392857Y-66200000D01*
X115407142Y-66214285D01*
X115521428Y-66214285D02*
X115535714Y-66200000D01*
X115564285Y-66185714D01*
X115635714Y-66185714D01*
X115664285Y-66200000D01*
X115678571Y-66214285D01*
X115692857Y-66242857D01*
X115692857Y-66271428D01*
X115678571Y-66314285D01*
X115507142Y-66485714D01*
X115692857Y-66485714D01*
X115835714Y-66485714D02*
X115892857Y-66485714D01*
X115921428Y-66471428D01*
X115935714Y-66457142D01*
X115964285Y-66414285D01*
X115978571Y-66357142D01*
X115978571Y-66242857D01*
X115964285Y-66214285D01*
X115950000Y-66200000D01*
X115921428Y-66185714D01*
X115864285Y-66185714D01*
X115835714Y-66200000D01*
X115821428Y-66214285D01*
X115807142Y-66242857D01*
X115807142Y-66314285D01*
X115821428Y-66342857D01*
X115835714Y-66357142D01*
X115864285Y-66371428D01*
X115921428Y-66371428D01*
X115950000Y-66357142D01*
X115964285Y-66342857D01*
X115978571Y-66314285D01*
%TO.C,C40*%
X119277142Y-65307142D02*
X119262857Y-65321428D01*
X119220000Y-65335714D01*
X119191428Y-65335714D01*
X119148571Y-65321428D01*
X119120000Y-65292857D01*
X119105714Y-65264285D01*
X119091428Y-65207142D01*
X119091428Y-65164285D01*
X119105714Y-65107142D01*
X119120000Y-65078571D01*
X119148571Y-65050000D01*
X119191428Y-65035714D01*
X119220000Y-65035714D01*
X119262857Y-65050000D01*
X119277142Y-65064285D01*
X119534285Y-65135714D02*
X119534285Y-65335714D01*
X119462857Y-65021428D02*
X119391428Y-65235714D01*
X119577142Y-65235714D01*
X119748571Y-65035714D02*
X119777142Y-65035714D01*
X119805714Y-65050000D01*
X119820000Y-65064285D01*
X119834285Y-65092857D01*
X119848571Y-65150000D01*
X119848571Y-65221428D01*
X119834285Y-65278571D01*
X119820000Y-65307142D01*
X119805714Y-65321428D01*
X119777142Y-65335714D01*
X119748571Y-65335714D01*
X119720000Y-65321428D01*
X119705714Y-65307142D01*
X119691428Y-65278571D01*
X119677142Y-65221428D01*
X119677142Y-65150000D01*
X119691428Y-65092857D01*
X119705714Y-65064285D01*
X119720000Y-65050000D01*
X119748571Y-65035714D01*
%TO.C,R14*%
X120707142Y-65335714D02*
X120607142Y-65192857D01*
X120535714Y-65335714D02*
X120535714Y-65035714D01*
X120650000Y-65035714D01*
X120678571Y-65050000D01*
X120692857Y-65064285D01*
X120707142Y-65092857D01*
X120707142Y-65135714D01*
X120692857Y-65164285D01*
X120678571Y-65178571D01*
X120650000Y-65192857D01*
X120535714Y-65192857D01*
X120992857Y-65335714D02*
X120821428Y-65335714D01*
X120907142Y-65335714D02*
X120907142Y-65035714D01*
X120878571Y-65078571D01*
X120850000Y-65107142D01*
X120821428Y-65121428D01*
X121250000Y-65135714D02*
X121250000Y-65335714D01*
X121178571Y-65021428D02*
X121107142Y-65235714D01*
X121292857Y-65235714D01*
%TO.C,C20*%
X120607142Y-55492857D02*
X120621428Y-55507142D01*
X120635714Y-55550000D01*
X120635714Y-55578571D01*
X120621428Y-55621428D01*
X120592857Y-55650000D01*
X120564285Y-55664285D01*
X120507142Y-55678571D01*
X120464285Y-55678571D01*
X120407142Y-55664285D01*
X120378571Y-55650000D01*
X120350000Y-55621428D01*
X120335714Y-55578571D01*
X120335714Y-55550000D01*
X120350000Y-55507142D01*
X120364285Y-55492857D01*
X120364285Y-55378571D02*
X120350000Y-55364285D01*
X120335714Y-55335714D01*
X120335714Y-55264285D01*
X120350000Y-55235714D01*
X120364285Y-55221428D01*
X120392857Y-55207142D01*
X120421428Y-55207142D01*
X120464285Y-55221428D01*
X120635714Y-55392857D01*
X120635714Y-55207142D01*
X120335714Y-55021428D02*
X120335714Y-54992857D01*
X120350000Y-54964285D01*
X120364285Y-54950000D01*
X120392857Y-54935714D01*
X120450000Y-54921428D01*
X120521428Y-54921428D01*
X120578571Y-54935714D01*
X120607142Y-54950000D01*
X120621428Y-54964285D01*
X120635714Y-54992857D01*
X120635714Y-55021428D01*
X120621428Y-55050000D01*
X120607142Y-55064285D01*
X120578571Y-55078571D01*
X120521428Y-55092857D01*
X120450000Y-55092857D01*
X120392857Y-55078571D01*
X120364285Y-55064285D01*
X120350000Y-55050000D01*
X120335714Y-55021428D01*
%TO.C,R25*%
X125835714Y-55592857D02*
X125692857Y-55692857D01*
X125835714Y-55764285D02*
X125535714Y-55764285D01*
X125535714Y-55650000D01*
X125550000Y-55621428D01*
X125564285Y-55607142D01*
X125592857Y-55592857D01*
X125635714Y-55592857D01*
X125664285Y-55607142D01*
X125678571Y-55621428D01*
X125692857Y-55650000D01*
X125692857Y-55764285D01*
X125564285Y-55478571D02*
X125550000Y-55464285D01*
X125535714Y-55435714D01*
X125535714Y-55364285D01*
X125550000Y-55335714D01*
X125564285Y-55321428D01*
X125592857Y-55307142D01*
X125621428Y-55307142D01*
X125664285Y-55321428D01*
X125835714Y-55492857D01*
X125835714Y-55307142D01*
X125535714Y-55035714D02*
X125535714Y-55178571D01*
X125678571Y-55192857D01*
X125664285Y-55178571D01*
X125650000Y-55150000D01*
X125650000Y-55078571D01*
X125664285Y-55050000D01*
X125678571Y-55035714D01*
X125707142Y-55021428D01*
X125778571Y-55021428D01*
X125807142Y-55035714D01*
X125821428Y-55050000D01*
X125835714Y-55078571D01*
X125835714Y-55150000D01*
X125821428Y-55178571D01*
X125807142Y-55192857D01*
%TO.C,C34*%
X124507142Y-66892857D02*
X124521428Y-66907142D01*
X124535714Y-66950000D01*
X124535714Y-66978571D01*
X124521428Y-67021428D01*
X124492857Y-67050000D01*
X124464285Y-67064285D01*
X124407142Y-67078571D01*
X124364285Y-67078571D01*
X124307142Y-67064285D01*
X124278571Y-67050000D01*
X124250000Y-67021428D01*
X124235714Y-66978571D01*
X124235714Y-66950000D01*
X124250000Y-66907142D01*
X124264285Y-66892857D01*
X124235714Y-66792857D02*
X124235714Y-66607142D01*
X124350000Y-66707142D01*
X124350000Y-66664285D01*
X124364285Y-66635714D01*
X124378571Y-66621428D01*
X124407142Y-66607142D01*
X124478571Y-66607142D01*
X124507142Y-66621428D01*
X124521428Y-66635714D01*
X124535714Y-66664285D01*
X124535714Y-66750000D01*
X124521428Y-66778571D01*
X124507142Y-66792857D01*
X124335714Y-66350000D02*
X124535714Y-66350000D01*
X124221428Y-66421428D02*
X124435714Y-66492857D01*
X124435714Y-66307142D01*
%TO.C,R7*%
X121850000Y-54735714D02*
X121750000Y-54592857D01*
X121678571Y-54735714D02*
X121678571Y-54435714D01*
X121792857Y-54435714D01*
X121821428Y-54450000D01*
X121835714Y-54464285D01*
X121850000Y-54492857D01*
X121850000Y-54535714D01*
X121835714Y-54564285D01*
X121821428Y-54578571D01*
X121792857Y-54592857D01*
X121678571Y-54592857D01*
X121950000Y-54435714D02*
X122150000Y-54435714D01*
X122021428Y-54735714D01*
%TO.C,D3*%
X131478571Y-62235714D02*
X131478571Y-61935714D01*
X131550000Y-61935714D01*
X131592857Y-61950000D01*
X131621428Y-61978571D01*
X131635714Y-62007142D01*
X131650000Y-62064285D01*
X131650000Y-62107142D01*
X131635714Y-62164285D01*
X131621428Y-62192857D01*
X131592857Y-62221428D01*
X131550000Y-62235714D01*
X131478571Y-62235714D01*
X131750000Y-61935714D02*
X131935714Y-61935714D01*
X131835714Y-62050000D01*
X131878571Y-62050000D01*
X131907142Y-62064285D01*
X131921428Y-62078571D01*
X131935714Y-62107142D01*
X131935714Y-62178571D01*
X131921428Y-62207142D01*
X131907142Y-62221428D01*
X131878571Y-62235714D01*
X131792857Y-62235714D01*
X131764285Y-62221428D01*
X131750000Y-62207142D01*
%TO.C,R8*%
X120150000Y-66635714D02*
X120050000Y-66492857D01*
X119978571Y-66635714D02*
X119978571Y-66335714D01*
X120092857Y-66335714D01*
X120121428Y-66350000D01*
X120135714Y-66364285D01*
X120150000Y-66392857D01*
X120150000Y-66435714D01*
X120135714Y-66464285D01*
X120121428Y-66478571D01*
X120092857Y-66492857D01*
X119978571Y-66492857D01*
X120321428Y-66464285D02*
X120292857Y-66450000D01*
X120278571Y-66435714D01*
X120264285Y-66407142D01*
X120264285Y-66392857D01*
X120278571Y-66364285D01*
X120292857Y-66350000D01*
X120321428Y-66335714D01*
X120378571Y-66335714D01*
X120407142Y-66350000D01*
X120421428Y-66364285D01*
X120435714Y-66392857D01*
X120435714Y-66407142D01*
X120421428Y-66435714D01*
X120407142Y-66450000D01*
X120378571Y-66464285D01*
X120321428Y-66464285D01*
X120292857Y-66478571D01*
X120278571Y-66492857D01*
X120264285Y-66521428D01*
X120264285Y-66578571D01*
X120278571Y-66607142D01*
X120292857Y-66621428D01*
X120321428Y-66635714D01*
X120378571Y-66635714D01*
X120407142Y-66621428D01*
X120421428Y-66607142D01*
X120435714Y-66578571D01*
X120435714Y-66521428D01*
X120421428Y-66492857D01*
X120407142Y-66478571D01*
X120378571Y-66464285D01*
%TO.C,R20*%
X126635714Y-55692857D02*
X126492857Y-55792857D01*
X126635714Y-55864285D02*
X126335714Y-55864285D01*
X126335714Y-55750000D01*
X126350000Y-55721428D01*
X126364285Y-55707142D01*
X126392857Y-55692857D01*
X126435714Y-55692857D01*
X126464285Y-55707142D01*
X126478571Y-55721428D01*
X126492857Y-55750000D01*
X126492857Y-55864285D01*
X126364285Y-55578571D02*
X126350000Y-55564285D01*
X126335714Y-55535714D01*
X126335714Y-55464285D01*
X126350000Y-55435714D01*
X126364285Y-55421428D01*
X126392857Y-55407142D01*
X126421428Y-55407142D01*
X126464285Y-55421428D01*
X126635714Y-55592857D01*
X126635714Y-55407142D01*
X126335714Y-55221428D02*
X126335714Y-55192857D01*
X126350000Y-55164285D01*
X126364285Y-55150000D01*
X126392857Y-55135714D01*
X126450000Y-55121428D01*
X126521428Y-55121428D01*
X126578571Y-55135714D01*
X126607142Y-55150000D01*
X126621428Y-55164285D01*
X126635714Y-55192857D01*
X126635714Y-55221428D01*
X126621428Y-55250000D01*
X126607142Y-55264285D01*
X126578571Y-55278571D01*
X126521428Y-55292857D01*
X126450000Y-55292857D01*
X126392857Y-55278571D01*
X126364285Y-55264285D01*
X126350000Y-55250000D01*
X126335714Y-55221428D01*
%TO.C,C8*%
X124407142Y-62950000D02*
X124421428Y-62964285D01*
X124435714Y-63007142D01*
X124435714Y-63035714D01*
X124421428Y-63078571D01*
X124392857Y-63107142D01*
X124364285Y-63121428D01*
X124307142Y-63135714D01*
X124264285Y-63135714D01*
X124207142Y-63121428D01*
X124178571Y-63107142D01*
X124150000Y-63078571D01*
X124135714Y-63035714D01*
X124135714Y-63007142D01*
X124150000Y-62964285D01*
X124164285Y-62950000D01*
X124264285Y-62778571D02*
X124250000Y-62807142D01*
X124235714Y-62821428D01*
X124207142Y-62835714D01*
X124192857Y-62835714D01*
X124164285Y-62821428D01*
X124150000Y-62807142D01*
X124135714Y-62778571D01*
X124135714Y-62721428D01*
X124150000Y-62692857D01*
X124164285Y-62678571D01*
X124192857Y-62664285D01*
X124207142Y-62664285D01*
X124235714Y-62678571D01*
X124250000Y-62692857D01*
X124264285Y-62721428D01*
X124264285Y-62778571D01*
X124278571Y-62807142D01*
X124292857Y-62821428D01*
X124321428Y-62835714D01*
X124378571Y-62835714D01*
X124407142Y-62821428D01*
X124421428Y-62807142D01*
X124435714Y-62778571D01*
X124435714Y-62721428D01*
X124421428Y-62692857D01*
X124407142Y-62678571D01*
X124378571Y-62664285D01*
X124321428Y-62664285D01*
X124292857Y-62678571D01*
X124278571Y-62692857D01*
X124264285Y-62721428D01*
%TO.C,C14*%
X123207142Y-69607142D02*
X123192857Y-69621428D01*
X123150000Y-69635714D01*
X123121428Y-69635714D01*
X123078571Y-69621428D01*
X123050000Y-69592857D01*
X123035714Y-69564285D01*
X123021428Y-69507142D01*
X123021428Y-69464285D01*
X123035714Y-69407142D01*
X123050000Y-69378571D01*
X123078571Y-69350000D01*
X123121428Y-69335714D01*
X123150000Y-69335714D01*
X123192857Y-69350000D01*
X123207142Y-69364285D01*
X123492857Y-69635714D02*
X123321428Y-69635714D01*
X123407142Y-69635714D02*
X123407142Y-69335714D01*
X123378571Y-69378571D01*
X123350000Y-69407142D01*
X123321428Y-69421428D01*
X123750000Y-69435714D02*
X123750000Y-69635714D01*
X123678571Y-69321428D02*
X123607142Y-69535714D01*
X123792857Y-69535714D01*
%TO.C,R11*%
X122075714Y-61062857D02*
X121932857Y-61162857D01*
X122075714Y-61234285D02*
X121775714Y-61234285D01*
X121775714Y-61120000D01*
X121790000Y-61091428D01*
X121804285Y-61077142D01*
X121832857Y-61062857D01*
X121875714Y-61062857D01*
X121904285Y-61077142D01*
X121918571Y-61091428D01*
X121932857Y-61120000D01*
X121932857Y-61234285D01*
X122075714Y-60777142D02*
X122075714Y-60948571D01*
X122075714Y-60862857D02*
X121775714Y-60862857D01*
X121818571Y-60891428D01*
X121847142Y-60920000D01*
X121861428Y-60948571D01*
X122075714Y-60491428D02*
X122075714Y-60662857D01*
X122075714Y-60577142D02*
X121775714Y-60577142D01*
X121818571Y-60605714D01*
X121847142Y-60634285D01*
X121861428Y-60662857D01*
%TO.C,C12*%
X125907142Y-63292857D02*
X125921428Y-63307142D01*
X125935714Y-63350000D01*
X125935714Y-63378571D01*
X125921428Y-63421428D01*
X125892857Y-63450000D01*
X125864285Y-63464285D01*
X125807142Y-63478571D01*
X125764285Y-63478571D01*
X125707142Y-63464285D01*
X125678571Y-63450000D01*
X125650000Y-63421428D01*
X125635714Y-63378571D01*
X125635714Y-63350000D01*
X125650000Y-63307142D01*
X125664285Y-63292857D01*
X125935714Y-63007142D02*
X125935714Y-63178571D01*
X125935714Y-63092857D02*
X125635714Y-63092857D01*
X125678571Y-63121428D01*
X125707142Y-63150000D01*
X125721428Y-63178571D01*
X125664285Y-62892857D02*
X125650000Y-62878571D01*
X125635714Y-62850000D01*
X125635714Y-62778571D01*
X125650000Y-62750000D01*
X125664285Y-62735714D01*
X125692857Y-62721428D01*
X125721428Y-62721428D01*
X125764285Y-62735714D01*
X125935714Y-62907142D01*
X125935714Y-62721428D01*
%TO.C,C16*%
X128407142Y-62892857D02*
X128421428Y-62907142D01*
X128435714Y-62950000D01*
X128435714Y-62978571D01*
X128421428Y-63021428D01*
X128392857Y-63050000D01*
X128364285Y-63064285D01*
X128307142Y-63078571D01*
X128264285Y-63078571D01*
X128207142Y-63064285D01*
X128178571Y-63050000D01*
X128150000Y-63021428D01*
X128135714Y-62978571D01*
X128135714Y-62950000D01*
X128150000Y-62907142D01*
X128164285Y-62892857D01*
X128435714Y-62607142D02*
X128435714Y-62778571D01*
X128435714Y-62692857D02*
X128135714Y-62692857D01*
X128178571Y-62721428D01*
X128207142Y-62750000D01*
X128221428Y-62778571D01*
X128135714Y-62350000D02*
X128135714Y-62407142D01*
X128150000Y-62435714D01*
X128164285Y-62450000D01*
X128207142Y-62478571D01*
X128264285Y-62492857D01*
X128378571Y-62492857D01*
X128407142Y-62478571D01*
X128421428Y-62464285D01*
X128435714Y-62435714D01*
X128435714Y-62378571D01*
X128421428Y-62350000D01*
X128407142Y-62335714D01*
X128378571Y-62321428D01*
X128307142Y-62321428D01*
X128278571Y-62335714D01*
X128264285Y-62350000D01*
X128250000Y-62378571D01*
X128250000Y-62435714D01*
X128264285Y-62464285D01*
X128278571Y-62478571D01*
X128307142Y-62492857D01*
%TO.C,C17*%
X124567142Y-70407142D02*
X124552857Y-70421428D01*
X124510000Y-70435714D01*
X124481428Y-70435714D01*
X124438571Y-70421428D01*
X124410000Y-70392857D01*
X124395714Y-70364285D01*
X124381428Y-70307142D01*
X124381428Y-70264285D01*
X124395714Y-70207142D01*
X124410000Y-70178571D01*
X124438571Y-70150000D01*
X124481428Y-70135714D01*
X124510000Y-70135714D01*
X124552857Y-70150000D01*
X124567142Y-70164285D01*
X124852857Y-70435714D02*
X124681428Y-70435714D01*
X124767142Y-70435714D02*
X124767142Y-70135714D01*
X124738571Y-70178571D01*
X124710000Y-70207142D01*
X124681428Y-70221428D01*
X124952857Y-70135714D02*
X125152857Y-70135714D01*
X125024285Y-70435714D01*
%TO.C,C63*%
X121907142Y-71492857D02*
X121921428Y-71507142D01*
X121935714Y-71550000D01*
X121935714Y-71578571D01*
X121921428Y-71621428D01*
X121892857Y-71650000D01*
X121864285Y-71664285D01*
X121807142Y-71678571D01*
X121764285Y-71678571D01*
X121707142Y-71664285D01*
X121678571Y-71650000D01*
X121650000Y-71621428D01*
X121635714Y-71578571D01*
X121635714Y-71550000D01*
X121650000Y-71507142D01*
X121664285Y-71492857D01*
X121635714Y-71235714D02*
X121635714Y-71292857D01*
X121650000Y-71321428D01*
X121664285Y-71335714D01*
X121707142Y-71364285D01*
X121764285Y-71378571D01*
X121878571Y-71378571D01*
X121907142Y-71364285D01*
X121921428Y-71350000D01*
X121935714Y-71321428D01*
X121935714Y-71264285D01*
X121921428Y-71235714D01*
X121907142Y-71221428D01*
X121878571Y-71207142D01*
X121807142Y-71207142D01*
X121778571Y-71221428D01*
X121764285Y-71235714D01*
X121750000Y-71264285D01*
X121750000Y-71321428D01*
X121764285Y-71350000D01*
X121778571Y-71364285D01*
X121807142Y-71378571D01*
X121635714Y-71107142D02*
X121635714Y-70921428D01*
X121750000Y-71021428D01*
X121750000Y-70978571D01*
X121764285Y-70950000D01*
X121778571Y-70935714D01*
X121807142Y-70921428D01*
X121878571Y-70921428D01*
X121907142Y-70935714D01*
X121921428Y-70950000D01*
X121935714Y-70978571D01*
X121935714Y-71064285D01*
X121921428Y-71092857D01*
X121907142Y-71107142D01*
%TO.C,C4*%
X128450000Y-70307142D02*
X128435714Y-70321428D01*
X128392857Y-70335714D01*
X128364285Y-70335714D01*
X128321428Y-70321428D01*
X128292857Y-70292857D01*
X128278571Y-70264285D01*
X128264285Y-70207142D01*
X128264285Y-70164285D01*
X128278571Y-70107142D01*
X128292857Y-70078571D01*
X128321428Y-70050000D01*
X128364285Y-70035714D01*
X128392857Y-70035714D01*
X128435714Y-70050000D01*
X128450000Y-70064285D01*
X128707142Y-70135714D02*
X128707142Y-70335714D01*
X128635714Y-70021428D02*
X128564285Y-70235714D01*
X128750000Y-70235714D01*
%TO.C,C7*%
X126950000Y-70407142D02*
X126935714Y-70421428D01*
X126892857Y-70435714D01*
X126864285Y-70435714D01*
X126821428Y-70421428D01*
X126792857Y-70392857D01*
X126778571Y-70364285D01*
X126764285Y-70307142D01*
X126764285Y-70264285D01*
X126778571Y-70207142D01*
X126792857Y-70178571D01*
X126821428Y-70150000D01*
X126864285Y-70135714D01*
X126892857Y-70135714D01*
X126935714Y-70150000D01*
X126950000Y-70164285D01*
X127050000Y-70135714D02*
X127250000Y-70135714D01*
X127121428Y-70435714D01*
%TO.C,C26*%
X130607142Y-57907142D02*
X130592857Y-57921428D01*
X130550000Y-57935714D01*
X130521428Y-57935714D01*
X130478571Y-57921428D01*
X130450000Y-57892857D01*
X130435714Y-57864285D01*
X130421428Y-57807142D01*
X130421428Y-57764285D01*
X130435714Y-57707142D01*
X130450000Y-57678571D01*
X130478571Y-57650000D01*
X130521428Y-57635714D01*
X130550000Y-57635714D01*
X130592857Y-57650000D01*
X130607142Y-57664285D01*
X130721428Y-57664285D02*
X130735714Y-57650000D01*
X130764285Y-57635714D01*
X130835714Y-57635714D01*
X130864285Y-57650000D01*
X130878571Y-57664285D01*
X130892857Y-57692857D01*
X130892857Y-57721428D01*
X130878571Y-57764285D01*
X130707142Y-57935714D01*
X130892857Y-57935714D01*
X131150000Y-57635714D02*
X131092857Y-57635714D01*
X131064285Y-57650000D01*
X131050000Y-57664285D01*
X131021428Y-57707142D01*
X131007142Y-57764285D01*
X131007142Y-57878571D01*
X131021428Y-57907142D01*
X131035714Y-57921428D01*
X131064285Y-57935714D01*
X131121428Y-57935714D01*
X131150000Y-57921428D01*
X131164285Y-57907142D01*
X131178571Y-57878571D01*
X131178571Y-57807142D01*
X131164285Y-57778571D01*
X131150000Y-57764285D01*
X131121428Y-57750000D01*
X131064285Y-57750000D01*
X131035714Y-57764285D01*
X131021428Y-57778571D01*
X131007142Y-57807142D01*
%TO.C,C19*%
X122707142Y-70992857D02*
X122721428Y-71007142D01*
X122735714Y-71050000D01*
X122735714Y-71078571D01*
X122721428Y-71121428D01*
X122692857Y-71150000D01*
X122664285Y-71164285D01*
X122607142Y-71178571D01*
X122564285Y-71178571D01*
X122507142Y-71164285D01*
X122478571Y-71150000D01*
X122450000Y-71121428D01*
X122435714Y-71078571D01*
X122435714Y-71050000D01*
X122450000Y-71007142D01*
X122464285Y-70992857D01*
X122735714Y-70707142D02*
X122735714Y-70878571D01*
X122735714Y-70792857D02*
X122435714Y-70792857D01*
X122478571Y-70821428D01*
X122507142Y-70850000D01*
X122521428Y-70878571D01*
X122735714Y-70564285D02*
X122735714Y-70507142D01*
X122721428Y-70478571D01*
X122707142Y-70464285D01*
X122664285Y-70435714D01*
X122607142Y-70421428D01*
X122492857Y-70421428D01*
X122464285Y-70435714D01*
X122450000Y-70450000D01*
X122435714Y-70478571D01*
X122435714Y-70535714D01*
X122450000Y-70564285D01*
X122464285Y-70578571D01*
X122492857Y-70592857D01*
X122564285Y-70592857D01*
X122592857Y-70578571D01*
X122607142Y-70564285D01*
X122621428Y-70535714D01*
X122621428Y-70478571D01*
X122607142Y-70450000D01*
X122592857Y-70435714D01*
X122564285Y-70421428D01*
%TO.C,C2*%
X123607142Y-63850000D02*
X123621428Y-63864285D01*
X123635714Y-63907142D01*
X123635714Y-63935714D01*
X123621428Y-63978571D01*
X123592857Y-64007142D01*
X123564285Y-64021428D01*
X123507142Y-64035714D01*
X123464285Y-64035714D01*
X123407142Y-64021428D01*
X123378571Y-64007142D01*
X123350000Y-63978571D01*
X123335714Y-63935714D01*
X123335714Y-63907142D01*
X123350000Y-63864285D01*
X123364285Y-63850000D01*
X123364285Y-63735714D02*
X123350000Y-63721428D01*
X123335714Y-63692857D01*
X123335714Y-63621428D01*
X123350000Y-63592857D01*
X123364285Y-63578571D01*
X123392857Y-63564285D01*
X123421428Y-63564285D01*
X123464285Y-63578571D01*
X123635714Y-63750000D01*
X123635714Y-63564285D01*
%TO.C,C1*%
X126730000Y-71207142D02*
X126715714Y-71221428D01*
X126672857Y-71235714D01*
X126644285Y-71235714D01*
X126601428Y-71221428D01*
X126572857Y-71192857D01*
X126558571Y-71164285D01*
X126544285Y-71107142D01*
X126544285Y-71064285D01*
X126558571Y-71007142D01*
X126572857Y-70978571D01*
X126601428Y-70950000D01*
X126644285Y-70935714D01*
X126672857Y-70935714D01*
X126715714Y-70950000D01*
X126730000Y-70964285D01*
X127015714Y-71235714D02*
X126844285Y-71235714D01*
X126930000Y-71235714D02*
X126930000Y-70935714D01*
X126901428Y-70978571D01*
X126872857Y-71007142D01*
X126844285Y-71021428D01*
%TO.C,U4*%
X119171428Y-68235714D02*
X119171428Y-68478571D01*
X119185714Y-68507142D01*
X119200000Y-68521428D01*
X119228571Y-68535714D01*
X119285714Y-68535714D01*
X119314285Y-68521428D01*
X119328571Y-68507142D01*
X119342857Y-68478571D01*
X119342857Y-68235714D01*
X119614285Y-68335714D02*
X119614285Y-68535714D01*
X119542857Y-68221428D02*
X119471428Y-68435714D01*
X119657142Y-68435714D01*
%TO.C,C18*%
X123407142Y-71092857D02*
X123421428Y-71107142D01*
X123435714Y-71150000D01*
X123435714Y-71178571D01*
X123421428Y-71221428D01*
X123392857Y-71250000D01*
X123364285Y-71264285D01*
X123307142Y-71278571D01*
X123264285Y-71278571D01*
X123207142Y-71264285D01*
X123178571Y-71250000D01*
X123150000Y-71221428D01*
X123135714Y-71178571D01*
X123135714Y-71150000D01*
X123150000Y-71107142D01*
X123164285Y-71092857D01*
X123435714Y-70807142D02*
X123435714Y-70978571D01*
X123435714Y-70892857D02*
X123135714Y-70892857D01*
X123178571Y-70921428D01*
X123207142Y-70950000D01*
X123221428Y-70978571D01*
X123264285Y-70635714D02*
X123250000Y-70664285D01*
X123235714Y-70678571D01*
X123207142Y-70692857D01*
X123192857Y-70692857D01*
X123164285Y-70678571D01*
X123150000Y-70664285D01*
X123135714Y-70635714D01*
X123135714Y-70578571D01*
X123150000Y-70550000D01*
X123164285Y-70535714D01*
X123192857Y-70521428D01*
X123207142Y-70521428D01*
X123235714Y-70535714D01*
X123250000Y-70550000D01*
X123264285Y-70578571D01*
X123264285Y-70635714D01*
X123278571Y-70664285D01*
X123292857Y-70678571D01*
X123321428Y-70692857D01*
X123378571Y-70692857D01*
X123407142Y-70678571D01*
X123421428Y-70664285D01*
X123435714Y-70635714D01*
X123435714Y-70578571D01*
X123421428Y-70550000D01*
X123407142Y-70535714D01*
X123378571Y-70521428D01*
X123321428Y-70521428D01*
X123292857Y-70535714D01*
X123278571Y-70550000D01*
X123264285Y-70578571D01*
%TO.C,R24*%
X120807142Y-70535714D02*
X120707142Y-70392857D01*
X120635714Y-70535714D02*
X120635714Y-70235714D01*
X120750000Y-70235714D01*
X120778571Y-70250000D01*
X120792857Y-70264285D01*
X120807142Y-70292857D01*
X120807142Y-70335714D01*
X120792857Y-70364285D01*
X120778571Y-70378571D01*
X120750000Y-70392857D01*
X120635714Y-70392857D01*
X120921428Y-70264285D02*
X120935714Y-70250000D01*
X120964285Y-70235714D01*
X121035714Y-70235714D01*
X121064285Y-70250000D01*
X121078571Y-70264285D01*
X121092857Y-70292857D01*
X121092857Y-70321428D01*
X121078571Y-70364285D01*
X120907142Y-70535714D01*
X121092857Y-70535714D01*
X121350000Y-70335714D02*
X121350000Y-70535714D01*
X121278571Y-70221428D02*
X121207142Y-70435714D01*
X121392857Y-70435714D01*
%TO.C,R19*%
X116835714Y-68447857D02*
X116692857Y-68547857D01*
X116835714Y-68619285D02*
X116535714Y-68619285D01*
X116535714Y-68505000D01*
X116550000Y-68476428D01*
X116564285Y-68462142D01*
X116592857Y-68447857D01*
X116635714Y-68447857D01*
X116664285Y-68462142D01*
X116678571Y-68476428D01*
X116692857Y-68505000D01*
X116692857Y-68619285D01*
X116835714Y-68162142D02*
X116835714Y-68333571D01*
X116835714Y-68247857D02*
X116535714Y-68247857D01*
X116578571Y-68276428D01*
X116607142Y-68305000D01*
X116621428Y-68333571D01*
X116835714Y-68019285D02*
X116835714Y-67962142D01*
X116821428Y-67933571D01*
X116807142Y-67919285D01*
X116764285Y-67890714D01*
X116707142Y-67876428D01*
X116592857Y-67876428D01*
X116564285Y-67890714D01*
X116550000Y-67905000D01*
X116535714Y-67933571D01*
X116535714Y-67990714D01*
X116550000Y-68019285D01*
X116564285Y-68033571D01*
X116592857Y-68047857D01*
X116664285Y-68047857D01*
X116692857Y-68033571D01*
X116707142Y-68019285D01*
X116721428Y-67990714D01*
X116721428Y-67933571D01*
X116707142Y-67905000D01*
X116692857Y-67890714D01*
X116664285Y-67876428D01*
%TO.C,U3*%
X118771428Y-58935714D02*
X118771428Y-59178571D01*
X118785714Y-59207142D01*
X118800000Y-59221428D01*
X118828571Y-59235714D01*
X118885714Y-59235714D01*
X118914285Y-59221428D01*
X118928571Y-59207142D01*
X118942857Y-59178571D01*
X118942857Y-58935714D01*
X119057142Y-58935714D02*
X119242857Y-58935714D01*
X119142857Y-59050000D01*
X119185714Y-59050000D01*
X119214285Y-59064285D01*
X119228571Y-59078571D01*
X119242857Y-59107142D01*
X119242857Y-59178571D01*
X119228571Y-59207142D01*
X119214285Y-59221428D01*
X119185714Y-59235714D01*
X119100000Y-59235714D01*
X119071428Y-59221428D01*
X119057142Y-59207142D01*
%TO.C,L9*%
X122235714Y-64850000D02*
X122235714Y-64992857D01*
X121935714Y-64992857D01*
X122235714Y-64735714D02*
X122235714Y-64678571D01*
X122221428Y-64650000D01*
X122207142Y-64635714D01*
X122164285Y-64607142D01*
X122107142Y-64592857D01*
X121992857Y-64592857D01*
X121964285Y-64607142D01*
X121950000Y-64621428D01*
X121935714Y-64650000D01*
X121935714Y-64707142D01*
X121950000Y-64735714D01*
X121964285Y-64750000D01*
X121992857Y-64764285D01*
X122064285Y-64764285D01*
X122092857Y-64750000D01*
X122107142Y-64735714D01*
X122121428Y-64707142D01*
X122121428Y-64650000D01*
X122107142Y-64621428D01*
X122092857Y-64607142D01*
X122064285Y-64592857D01*
%TO.C,R12*%
X121635714Y-63392857D02*
X121492857Y-63492857D01*
X121635714Y-63564285D02*
X121335714Y-63564285D01*
X121335714Y-63450000D01*
X121350000Y-63421428D01*
X121364285Y-63407142D01*
X121392857Y-63392857D01*
X121435714Y-63392857D01*
X121464285Y-63407142D01*
X121478571Y-63421428D01*
X121492857Y-63450000D01*
X121492857Y-63564285D01*
X121635714Y-63107142D02*
X121635714Y-63278571D01*
X121635714Y-63192857D02*
X121335714Y-63192857D01*
X121378571Y-63221428D01*
X121407142Y-63250000D01*
X121421428Y-63278571D01*
X121364285Y-62992857D02*
X121350000Y-62978571D01*
X121335714Y-62950000D01*
X121335714Y-62878571D01*
X121350000Y-62850000D01*
X121364285Y-62835714D01*
X121392857Y-62821428D01*
X121421428Y-62821428D01*
X121464285Y-62835714D01*
X121635714Y-63007142D01*
X121635714Y-62821428D01*
%TO.C,C21*%
X116807142Y-58092857D02*
X116821428Y-58107142D01*
X116835714Y-58150000D01*
X116835714Y-58178571D01*
X116821428Y-58221428D01*
X116792857Y-58250000D01*
X116764285Y-58264285D01*
X116707142Y-58278571D01*
X116664285Y-58278571D01*
X116607142Y-58264285D01*
X116578571Y-58250000D01*
X116550000Y-58221428D01*
X116535714Y-58178571D01*
X116535714Y-58150000D01*
X116550000Y-58107142D01*
X116564285Y-58092857D01*
X116564285Y-57978571D02*
X116550000Y-57964285D01*
X116535714Y-57935714D01*
X116535714Y-57864285D01*
X116550000Y-57835714D01*
X116564285Y-57821428D01*
X116592857Y-57807142D01*
X116621428Y-57807142D01*
X116664285Y-57821428D01*
X116835714Y-57992857D01*
X116835714Y-57807142D01*
X116835714Y-57521428D02*
X116835714Y-57692857D01*
X116835714Y-57607142D02*
X116535714Y-57607142D01*
X116578571Y-57635714D01*
X116607142Y-57664285D01*
X116621428Y-57692857D01*
%TO.C,C9*%
X130050000Y-63107142D02*
X130035714Y-63121428D01*
X129992857Y-63135714D01*
X129964285Y-63135714D01*
X129921428Y-63121428D01*
X129892857Y-63092857D01*
X129878571Y-63064285D01*
X129864285Y-63007142D01*
X129864285Y-62964285D01*
X129878571Y-62907142D01*
X129892857Y-62878571D01*
X129921428Y-62850000D01*
X129964285Y-62835714D01*
X129992857Y-62835714D01*
X130035714Y-62850000D01*
X130050000Y-62864285D01*
X130192857Y-63135714D02*
X130250000Y-63135714D01*
X130278571Y-63121428D01*
X130292857Y-63107142D01*
X130321428Y-63064285D01*
X130335714Y-63007142D01*
X130335714Y-62892857D01*
X130321428Y-62864285D01*
X130307142Y-62850000D01*
X130278571Y-62835714D01*
X130221428Y-62835714D01*
X130192857Y-62850000D01*
X130178571Y-62864285D01*
X130164285Y-62892857D01*
X130164285Y-62964285D01*
X130178571Y-62992857D01*
X130192857Y-63007142D01*
X130221428Y-63021428D01*
X130278571Y-63021428D01*
X130307142Y-63007142D01*
X130321428Y-62992857D01*
X130335714Y-62964285D01*
%TO.C,C6*%
X130107142Y-61150000D02*
X130121428Y-61164285D01*
X130135714Y-61207142D01*
X130135714Y-61235714D01*
X130121428Y-61278571D01*
X130092857Y-61307142D01*
X130064285Y-61321428D01*
X130007142Y-61335714D01*
X129964285Y-61335714D01*
X129907142Y-61321428D01*
X129878571Y-61307142D01*
X129850000Y-61278571D01*
X129835714Y-61235714D01*
X129835714Y-61207142D01*
X129850000Y-61164285D01*
X129864285Y-61150000D01*
X129835714Y-60892857D02*
X129835714Y-60950000D01*
X129850000Y-60978571D01*
X129864285Y-60992857D01*
X129907142Y-61021428D01*
X129964285Y-61035714D01*
X130078571Y-61035714D01*
X130107142Y-61021428D01*
X130121428Y-61007142D01*
X130135714Y-60978571D01*
X130135714Y-60921428D01*
X130121428Y-60892857D01*
X130107142Y-60878571D01*
X130078571Y-60864285D01*
X130007142Y-60864285D01*
X129978571Y-60878571D01*
X129964285Y-60892857D01*
X129950000Y-60921428D01*
X129950000Y-60978571D01*
X129964285Y-61007142D01*
X129978571Y-61021428D01*
X130007142Y-61035714D01*
%TO.C,C15*%
X124807142Y-65192857D02*
X124821428Y-65207142D01*
X124835714Y-65250000D01*
X124835714Y-65278571D01*
X124821428Y-65321428D01*
X124792857Y-65350000D01*
X124764285Y-65364285D01*
X124707142Y-65378571D01*
X124664285Y-65378571D01*
X124607142Y-65364285D01*
X124578571Y-65350000D01*
X124550000Y-65321428D01*
X124535714Y-65278571D01*
X124535714Y-65250000D01*
X124550000Y-65207142D01*
X124564285Y-65192857D01*
X124835714Y-64907142D02*
X124835714Y-65078571D01*
X124835714Y-64992857D02*
X124535714Y-64992857D01*
X124578571Y-65021428D01*
X124607142Y-65050000D01*
X124621428Y-65078571D01*
X124535714Y-64635714D02*
X124535714Y-64778571D01*
X124678571Y-64792857D01*
X124664285Y-64778571D01*
X124650000Y-64750000D01*
X124650000Y-64678571D01*
X124664285Y-64650000D01*
X124678571Y-64635714D01*
X124707142Y-64621428D01*
X124778571Y-64621428D01*
X124807142Y-64635714D01*
X124821428Y-64650000D01*
X124835714Y-64678571D01*
X124835714Y-64750000D01*
X124821428Y-64778571D01*
X124807142Y-64792857D01*
%TO.C,L8*%
X118850000Y-63535714D02*
X118707142Y-63535714D01*
X118707142Y-63235714D01*
X118992857Y-63364285D02*
X118964285Y-63350000D01*
X118950000Y-63335714D01*
X118935714Y-63307142D01*
X118935714Y-63292857D01*
X118950000Y-63264285D01*
X118964285Y-63250000D01*
X118992857Y-63235714D01*
X119050000Y-63235714D01*
X119078571Y-63250000D01*
X119092857Y-63264285D01*
X119107142Y-63292857D01*
X119107142Y-63307142D01*
X119092857Y-63335714D01*
X119078571Y-63350000D01*
X119050000Y-63364285D01*
X118992857Y-63364285D01*
X118964285Y-63378571D01*
X118950000Y-63392857D01*
X118935714Y-63421428D01*
X118935714Y-63478571D01*
X118950000Y-63507142D01*
X118964285Y-63521428D01*
X118992857Y-63535714D01*
X119050000Y-63535714D01*
X119078571Y-63521428D01*
X119092857Y-63507142D01*
X119107142Y-63478571D01*
X119107142Y-63421428D01*
X119092857Y-63392857D01*
X119078571Y-63378571D01*
X119050000Y-63364285D01*
%TO.C,R4*%
X123635714Y-66750000D02*
X123492857Y-66850000D01*
X123635714Y-66921428D02*
X123335714Y-66921428D01*
X123335714Y-66807142D01*
X123350000Y-66778571D01*
X123364285Y-66764285D01*
X123392857Y-66750000D01*
X123435714Y-66750000D01*
X123464285Y-66764285D01*
X123478571Y-66778571D01*
X123492857Y-66807142D01*
X123492857Y-66921428D01*
X123435714Y-66492857D02*
X123635714Y-66492857D01*
X123321428Y-66564285D02*
X123535714Y-66635714D01*
X123535714Y-66450000D01*
%TO.C,C5*%
X125107142Y-62950000D02*
X125121428Y-62964285D01*
X125135714Y-63007142D01*
X125135714Y-63035714D01*
X125121428Y-63078571D01*
X125092857Y-63107142D01*
X125064285Y-63121428D01*
X125007142Y-63135714D01*
X124964285Y-63135714D01*
X124907142Y-63121428D01*
X124878571Y-63107142D01*
X124850000Y-63078571D01*
X124835714Y-63035714D01*
X124835714Y-63007142D01*
X124850000Y-62964285D01*
X124864285Y-62950000D01*
X124835714Y-62678571D02*
X124835714Y-62821428D01*
X124978571Y-62835714D01*
X124964285Y-62821428D01*
X124950000Y-62792857D01*
X124950000Y-62721428D01*
X124964285Y-62692857D01*
X124978571Y-62678571D01*
X125007142Y-62664285D01*
X125078571Y-62664285D01*
X125107142Y-62678571D01*
X125121428Y-62692857D01*
X125135714Y-62721428D01*
X125135714Y-62792857D01*
X125121428Y-62821428D01*
X125107142Y-62835714D01*
%TO.C,C25*%
X130107142Y-58492857D02*
X130121428Y-58507142D01*
X130135714Y-58550000D01*
X130135714Y-58578571D01*
X130121428Y-58621428D01*
X130092857Y-58650000D01*
X130064285Y-58664285D01*
X130007142Y-58678571D01*
X129964285Y-58678571D01*
X129907142Y-58664285D01*
X129878571Y-58650000D01*
X129850000Y-58621428D01*
X129835714Y-58578571D01*
X129835714Y-58550000D01*
X129850000Y-58507142D01*
X129864285Y-58492857D01*
X129864285Y-58378571D02*
X129850000Y-58364285D01*
X129835714Y-58335714D01*
X129835714Y-58264285D01*
X129850000Y-58235714D01*
X129864285Y-58221428D01*
X129892857Y-58207142D01*
X129921428Y-58207142D01*
X129964285Y-58221428D01*
X130135714Y-58392857D01*
X130135714Y-58207142D01*
X129835714Y-57935714D02*
X129835714Y-58078571D01*
X129978571Y-58092857D01*
X129964285Y-58078571D01*
X129950000Y-58050000D01*
X129950000Y-57978571D01*
X129964285Y-57950000D01*
X129978571Y-57935714D01*
X130007142Y-57921428D01*
X130078571Y-57921428D01*
X130107142Y-57935714D01*
X130121428Y-57950000D01*
X130135714Y-57978571D01*
X130135714Y-58050000D01*
X130121428Y-58078571D01*
X130107142Y-58092857D01*
%TO.C,J5*%
X125500000Y-59535714D02*
X125500000Y-59750000D01*
X125485714Y-59792857D01*
X125457142Y-59821428D01*
X125414285Y-59835714D01*
X125385714Y-59835714D01*
X125785714Y-59535714D02*
X125642857Y-59535714D01*
X125628571Y-59678571D01*
X125642857Y-59664285D01*
X125671428Y-59650000D01*
X125742857Y-59650000D01*
X125771428Y-59664285D01*
X125785714Y-59678571D01*
X125800000Y-59707142D01*
X125800000Y-59778571D01*
X125785714Y-59807142D01*
X125771428Y-59821428D01*
X125742857Y-59835714D01*
X125671428Y-59835714D01*
X125642857Y-59821428D01*
X125628571Y-59807142D01*
%TO.C,C35*%
X128232142Y-61992857D02*
X128246428Y-62007142D01*
X128260714Y-62050000D01*
X128260714Y-62078571D01*
X128246428Y-62121428D01*
X128217857Y-62150000D01*
X128189285Y-62164285D01*
X128132142Y-62178571D01*
X128089285Y-62178571D01*
X128032142Y-62164285D01*
X128003571Y-62150000D01*
X127975000Y-62121428D01*
X127960714Y-62078571D01*
X127960714Y-62050000D01*
X127975000Y-62007142D01*
X127989285Y-61992857D01*
X127960714Y-61892857D02*
X127960714Y-61707142D01*
X128075000Y-61807142D01*
X128075000Y-61764285D01*
X128089285Y-61735714D01*
X128103571Y-61721428D01*
X128132142Y-61707142D01*
X128203571Y-61707142D01*
X128232142Y-61721428D01*
X128246428Y-61735714D01*
X128260714Y-61764285D01*
X128260714Y-61850000D01*
X128246428Y-61878571D01*
X128232142Y-61892857D01*
X127960714Y-61435714D02*
X127960714Y-61578571D01*
X128103571Y-61592857D01*
X128089285Y-61578571D01*
X128075000Y-61550000D01*
X128075000Y-61478571D01*
X128089285Y-61450000D01*
X128103571Y-61435714D01*
X128132142Y-61421428D01*
X128203571Y-61421428D01*
X128232142Y-61435714D01*
X128246428Y-61450000D01*
X128260714Y-61478571D01*
X128260714Y-61550000D01*
X128246428Y-61578571D01*
X128232142Y-61592857D01*
%TO.C,R3*%
X123450000Y-68535714D02*
X123350000Y-68392857D01*
X123278571Y-68535714D02*
X123278571Y-68235714D01*
X123392857Y-68235714D01*
X123421428Y-68250000D01*
X123435714Y-68264285D01*
X123450000Y-68292857D01*
X123450000Y-68335714D01*
X123435714Y-68364285D01*
X123421428Y-68378571D01*
X123392857Y-68392857D01*
X123278571Y-68392857D01*
X123550000Y-68235714D02*
X123735714Y-68235714D01*
X123635714Y-68350000D01*
X123678571Y-68350000D01*
X123707142Y-68364285D01*
X123721428Y-68378571D01*
X123735714Y-68407142D01*
X123735714Y-68478571D01*
X123721428Y-68507142D01*
X123707142Y-68521428D01*
X123678571Y-68535714D01*
X123592857Y-68535714D01*
X123564285Y-68521428D01*
X123550000Y-68507142D01*
%TO.C,R17*%
X130947142Y-59635714D02*
X130847142Y-59492857D01*
X130775714Y-59635714D02*
X130775714Y-59335714D01*
X130890000Y-59335714D01*
X130918571Y-59350000D01*
X130932857Y-59364285D01*
X130947142Y-59392857D01*
X130947142Y-59435714D01*
X130932857Y-59464285D01*
X130918571Y-59478571D01*
X130890000Y-59492857D01*
X130775714Y-59492857D01*
X131232857Y-59635714D02*
X131061428Y-59635714D01*
X131147142Y-59635714D02*
X131147142Y-59335714D01*
X131118571Y-59378571D01*
X131090000Y-59407142D01*
X131061428Y-59421428D01*
X131332857Y-59335714D02*
X131532857Y-59335714D01*
X131404285Y-59635714D01*
%TO.C,C60*%
X119807142Y-70507142D02*
X119792857Y-70521428D01*
X119750000Y-70535714D01*
X119721428Y-70535714D01*
X119678571Y-70521428D01*
X119650000Y-70492857D01*
X119635714Y-70464285D01*
X119621428Y-70407142D01*
X119621428Y-70364285D01*
X119635714Y-70307142D01*
X119650000Y-70278571D01*
X119678571Y-70250000D01*
X119721428Y-70235714D01*
X119750000Y-70235714D01*
X119792857Y-70250000D01*
X119807142Y-70264285D01*
X120064285Y-70235714D02*
X120007142Y-70235714D01*
X119978571Y-70250000D01*
X119964285Y-70264285D01*
X119935714Y-70307142D01*
X119921428Y-70364285D01*
X119921428Y-70478571D01*
X119935714Y-70507142D01*
X119950000Y-70521428D01*
X119978571Y-70535714D01*
X120035714Y-70535714D01*
X120064285Y-70521428D01*
X120078571Y-70507142D01*
X120092857Y-70478571D01*
X120092857Y-70407142D01*
X120078571Y-70378571D01*
X120064285Y-70364285D01*
X120035714Y-70350000D01*
X119978571Y-70350000D01*
X119950000Y-70364285D01*
X119935714Y-70378571D01*
X119921428Y-70407142D01*
X120278571Y-70235714D02*
X120307142Y-70235714D01*
X120335714Y-70250000D01*
X120350000Y-70264285D01*
X120364285Y-70292857D01*
X120378571Y-70350000D01*
X120378571Y-70421428D01*
X120364285Y-70478571D01*
X120350000Y-70507142D01*
X120335714Y-70521428D01*
X120307142Y-70535714D01*
X120278571Y-70535714D01*
X120250000Y-70521428D01*
X120235714Y-70507142D01*
X120221428Y-70478571D01*
X120207142Y-70421428D01*
X120207142Y-70350000D01*
X120221428Y-70292857D01*
X120235714Y-70264285D01*
X120250000Y-70250000D01*
X120278571Y-70235714D01*
%TO.C,TP9*%
X129721428Y-56835714D02*
X129892857Y-56835714D01*
X129807142Y-57135714D02*
X129807142Y-56835714D01*
X129992857Y-57135714D02*
X129992857Y-56835714D01*
X130107142Y-56835714D01*
X130135714Y-56850000D01*
X130150000Y-56864285D01*
X130164285Y-56892857D01*
X130164285Y-56935714D01*
X130150000Y-56964285D01*
X130135714Y-56978571D01*
X130107142Y-56992857D01*
X129992857Y-56992857D01*
X130307142Y-57135714D02*
X130364285Y-57135714D01*
X130392857Y-57121428D01*
X130407142Y-57107142D01*
X130435714Y-57064285D01*
X130450000Y-57007142D01*
X130450000Y-56892857D01*
X130435714Y-56864285D01*
X130421428Y-56850000D01*
X130392857Y-56835714D01*
X130335714Y-56835714D01*
X130307142Y-56850000D01*
X130292857Y-56864285D01*
X130278571Y-56892857D01*
X130278571Y-56964285D01*
X130292857Y-56992857D01*
X130307142Y-57007142D01*
X130335714Y-57021428D01*
X130392857Y-57021428D01*
X130421428Y-57007142D01*
X130435714Y-56992857D01*
X130450000Y-56964285D01*
%TO.C,C13*%
X126857142Y-63292857D02*
X126871428Y-63307142D01*
X126885714Y-63350000D01*
X126885714Y-63378571D01*
X126871428Y-63421428D01*
X126842857Y-63450000D01*
X126814285Y-63464285D01*
X126757142Y-63478571D01*
X126714285Y-63478571D01*
X126657142Y-63464285D01*
X126628571Y-63450000D01*
X126600000Y-63421428D01*
X126585714Y-63378571D01*
X126585714Y-63350000D01*
X126600000Y-63307142D01*
X126614285Y-63292857D01*
X126885714Y-63007142D02*
X126885714Y-63178571D01*
X126885714Y-63092857D02*
X126585714Y-63092857D01*
X126628571Y-63121428D01*
X126657142Y-63150000D01*
X126671428Y-63178571D01*
X126585714Y-62907142D02*
X126585714Y-62721428D01*
X126700000Y-62821428D01*
X126700000Y-62778571D01*
X126714285Y-62750000D01*
X126728571Y-62735714D01*
X126757142Y-62721428D01*
X126828571Y-62721428D01*
X126857142Y-62735714D01*
X126871428Y-62750000D01*
X126885714Y-62778571D01*
X126885714Y-62864285D01*
X126871428Y-62892857D01*
X126857142Y-62907142D01*
%TO.C,TP2*%
X125921428Y-54435714D02*
X126092857Y-54435714D01*
X126007142Y-54735714D02*
X126007142Y-54435714D01*
X126192857Y-54735714D02*
X126192857Y-54435714D01*
X126307142Y-54435714D01*
X126335714Y-54450000D01*
X126350000Y-54464285D01*
X126364285Y-54492857D01*
X126364285Y-54535714D01*
X126350000Y-54564285D01*
X126335714Y-54578571D01*
X126307142Y-54592857D01*
X126192857Y-54592857D01*
X126478571Y-54464285D02*
X126492857Y-54450000D01*
X126521428Y-54435714D01*
X126592857Y-54435714D01*
X126621428Y-54450000D01*
X126635714Y-54464285D01*
X126650000Y-54492857D01*
X126650000Y-54521428D01*
X126635714Y-54564285D01*
X126464285Y-54735714D01*
X126650000Y-54735714D01*
%TO.C,R10*%
X118507142Y-56235714D02*
X118407142Y-56092857D01*
X118335714Y-56235714D02*
X118335714Y-55935714D01*
X118450000Y-55935714D01*
X118478571Y-55950000D01*
X118492857Y-55964285D01*
X118507142Y-55992857D01*
X118507142Y-56035714D01*
X118492857Y-56064285D01*
X118478571Y-56078571D01*
X118450000Y-56092857D01*
X118335714Y-56092857D01*
X118792857Y-56235714D02*
X118621428Y-56235714D01*
X118707142Y-56235714D02*
X118707142Y-55935714D01*
X118678571Y-55978571D01*
X118650000Y-56007142D01*
X118621428Y-56021428D01*
X118978571Y-55935714D02*
X119007142Y-55935714D01*
X119035714Y-55950000D01*
X119050000Y-55964285D01*
X119064285Y-55992857D01*
X119078571Y-56050000D01*
X119078571Y-56121428D01*
X119064285Y-56178571D01*
X119050000Y-56207142D01*
X119035714Y-56221428D01*
X119007142Y-56235714D01*
X118978571Y-56235714D01*
X118950000Y-56221428D01*
X118935714Y-56207142D01*
X118921428Y-56178571D01*
X118907142Y-56121428D01*
X118907142Y-56050000D01*
X118921428Y-55992857D01*
X118935714Y-55964285D01*
X118950000Y-55950000D01*
X118978571Y-55935714D01*
%TO.C,R18*%
X115807142Y-67835714D02*
X115707142Y-67692857D01*
X115635714Y-67835714D02*
X115635714Y-67535714D01*
X115750000Y-67535714D01*
X115778571Y-67550000D01*
X115792857Y-67564285D01*
X115807142Y-67592857D01*
X115807142Y-67635714D01*
X115792857Y-67664285D01*
X115778571Y-67678571D01*
X115750000Y-67692857D01*
X115635714Y-67692857D01*
X116092857Y-67835714D02*
X115921428Y-67835714D01*
X116007142Y-67835714D02*
X116007142Y-67535714D01*
X115978571Y-67578571D01*
X115950000Y-67607142D01*
X115921428Y-67621428D01*
X116264285Y-67664285D02*
X116235714Y-67650000D01*
X116221428Y-67635714D01*
X116207142Y-67607142D01*
X116207142Y-67592857D01*
X116221428Y-67564285D01*
X116235714Y-67550000D01*
X116264285Y-67535714D01*
X116321428Y-67535714D01*
X116350000Y-67550000D01*
X116364285Y-67564285D01*
X116378571Y-67592857D01*
X116378571Y-67607142D01*
X116364285Y-67635714D01*
X116350000Y-67650000D01*
X116321428Y-67664285D01*
X116264285Y-67664285D01*
X116235714Y-67678571D01*
X116221428Y-67692857D01*
X116207142Y-67721428D01*
X116207142Y-67778571D01*
X116221428Y-67807142D01*
X116235714Y-67821428D01*
X116264285Y-67835714D01*
X116321428Y-67835714D01*
X116350000Y-67821428D01*
X116364285Y-67807142D01*
X116378571Y-67778571D01*
X116378571Y-67721428D01*
X116364285Y-67692857D01*
X116350000Y-67678571D01*
X116321428Y-67664285D01*
%TO.C,C11*%
X127707142Y-62892857D02*
X127721428Y-62907142D01*
X127735714Y-62950000D01*
X127735714Y-62978571D01*
X127721428Y-63021428D01*
X127692857Y-63050000D01*
X127664285Y-63064285D01*
X127607142Y-63078571D01*
X127564285Y-63078571D01*
X127507142Y-63064285D01*
X127478571Y-63050000D01*
X127450000Y-63021428D01*
X127435714Y-62978571D01*
X127435714Y-62950000D01*
X127450000Y-62907142D01*
X127464285Y-62892857D01*
X127735714Y-62607142D02*
X127735714Y-62778571D01*
X127735714Y-62692857D02*
X127435714Y-62692857D01*
X127478571Y-62721428D01*
X127507142Y-62750000D01*
X127521428Y-62778571D01*
X127735714Y-62321428D02*
X127735714Y-62492857D01*
X127735714Y-62407142D02*
X127435714Y-62407142D01*
X127478571Y-62435714D01*
X127507142Y-62464285D01*
X127521428Y-62492857D01*
%TO.C,C3*%
X129207142Y-61650000D02*
X129221428Y-61664285D01*
X129235714Y-61707142D01*
X129235714Y-61735714D01*
X129221428Y-61778571D01*
X129192857Y-61807142D01*
X129164285Y-61821428D01*
X129107142Y-61835714D01*
X129064285Y-61835714D01*
X129007142Y-61821428D01*
X128978571Y-61807142D01*
X128950000Y-61778571D01*
X128935714Y-61735714D01*
X128935714Y-61707142D01*
X128950000Y-61664285D01*
X128964285Y-61650000D01*
X128935714Y-61550000D02*
X128935714Y-61364285D01*
X129050000Y-61464285D01*
X129050000Y-61421428D01*
X129064285Y-61392857D01*
X129078571Y-61378571D01*
X129107142Y-61364285D01*
X129178571Y-61364285D01*
X129207142Y-61378571D01*
X129221428Y-61392857D01*
X129235714Y-61421428D01*
X129235714Y-61507142D01*
X129221428Y-61535714D01*
X129207142Y-61550000D01*
%TO.C,R9*%
X115860000Y-59635714D02*
X115760000Y-59492857D01*
X115688571Y-59635714D02*
X115688571Y-59335714D01*
X115802857Y-59335714D01*
X115831428Y-59350000D01*
X115845714Y-59364285D01*
X115860000Y-59392857D01*
X115860000Y-59435714D01*
X115845714Y-59464285D01*
X115831428Y-59478571D01*
X115802857Y-59492857D01*
X115688571Y-59492857D01*
X116002857Y-59635714D02*
X116060000Y-59635714D01*
X116088571Y-59621428D01*
X116102857Y-59607142D01*
X116131428Y-59564285D01*
X116145714Y-59507142D01*
X116145714Y-59392857D01*
X116131428Y-59364285D01*
X116117142Y-59350000D01*
X116088571Y-59335714D01*
X116031428Y-59335714D01*
X116002857Y-59350000D01*
X115988571Y-59364285D01*
X115974285Y-59392857D01*
X115974285Y-59464285D01*
X115988571Y-59492857D01*
X116002857Y-59507142D01*
X116031428Y-59521428D01*
X116088571Y-59521428D01*
X116117142Y-59507142D01*
X116131428Y-59492857D01*
X116145714Y-59464285D01*
%TO.C,C10*%
X129307142Y-63907142D02*
X129292857Y-63921428D01*
X129250000Y-63935714D01*
X129221428Y-63935714D01*
X129178571Y-63921428D01*
X129150000Y-63892857D01*
X129135714Y-63864285D01*
X129121428Y-63807142D01*
X129121428Y-63764285D01*
X129135714Y-63707142D01*
X129150000Y-63678571D01*
X129178571Y-63650000D01*
X129221428Y-63635714D01*
X129250000Y-63635714D01*
X129292857Y-63650000D01*
X129307142Y-63664285D01*
X129592857Y-63935714D02*
X129421428Y-63935714D01*
X129507142Y-63935714D02*
X129507142Y-63635714D01*
X129478571Y-63678571D01*
X129450000Y-63707142D01*
X129421428Y-63721428D01*
X129778571Y-63635714D02*
X129807142Y-63635714D01*
X129835714Y-63650000D01*
X129850000Y-63664285D01*
X129864285Y-63692857D01*
X129878571Y-63750000D01*
X129878571Y-63821428D01*
X129864285Y-63878571D01*
X129850000Y-63907142D01*
X129835714Y-63921428D01*
X129807142Y-63935714D01*
X129778571Y-63935714D01*
X129750000Y-63921428D01*
X129735714Y-63907142D01*
X129721428Y-63878571D01*
X129707142Y-63821428D01*
X129707142Y-63750000D01*
X129721428Y-63692857D01*
X129735714Y-63664285D01*
X129750000Y-63650000D01*
X129778571Y-63635714D01*
%TO.C,C64*%
X122707142Y-69562857D02*
X122721428Y-69577142D01*
X122735714Y-69620000D01*
X122735714Y-69648571D01*
X122721428Y-69691428D01*
X122692857Y-69720000D01*
X122664285Y-69734285D01*
X122607142Y-69748571D01*
X122564285Y-69748571D01*
X122507142Y-69734285D01*
X122478571Y-69720000D01*
X122450000Y-69691428D01*
X122435714Y-69648571D01*
X122435714Y-69620000D01*
X122450000Y-69577142D01*
X122464285Y-69562857D01*
X122435714Y-69305714D02*
X122435714Y-69362857D01*
X122450000Y-69391428D01*
X122464285Y-69405714D01*
X122507142Y-69434285D01*
X122564285Y-69448571D01*
X122678571Y-69448571D01*
X122707142Y-69434285D01*
X122721428Y-69420000D01*
X122735714Y-69391428D01*
X122735714Y-69334285D01*
X122721428Y-69305714D01*
X122707142Y-69291428D01*
X122678571Y-69277142D01*
X122607142Y-69277142D01*
X122578571Y-69291428D01*
X122564285Y-69305714D01*
X122550000Y-69334285D01*
X122550000Y-69391428D01*
X122564285Y-69420000D01*
X122578571Y-69434285D01*
X122607142Y-69448571D01*
X122535714Y-69020000D02*
X122735714Y-69020000D01*
X122421428Y-69091428D02*
X122635714Y-69162857D01*
X122635714Y-68977142D01*
%TO.C,C33*%
X115227142Y-65507142D02*
X115212857Y-65521428D01*
X115170000Y-65535714D01*
X115141428Y-65535714D01*
X115098571Y-65521428D01*
X115070000Y-65492857D01*
X115055714Y-65464285D01*
X115041428Y-65407142D01*
X115041428Y-65364285D01*
X115055714Y-65307142D01*
X115070000Y-65278571D01*
X115098571Y-65250000D01*
X115141428Y-65235714D01*
X115170000Y-65235714D01*
X115212857Y-65250000D01*
X115227142Y-65264285D01*
X115327142Y-65235714D02*
X115512857Y-65235714D01*
X115412857Y-65350000D01*
X115455714Y-65350000D01*
X115484285Y-65364285D01*
X115498571Y-65378571D01*
X115512857Y-65407142D01*
X115512857Y-65478571D01*
X115498571Y-65507142D01*
X115484285Y-65521428D01*
X115455714Y-65535714D01*
X115370000Y-65535714D01*
X115341428Y-65521428D01*
X115327142Y-65507142D01*
X115612857Y-65235714D02*
X115798571Y-65235714D01*
X115698571Y-65350000D01*
X115741428Y-65350000D01*
X115770000Y-65364285D01*
X115784285Y-65378571D01*
X115798571Y-65407142D01*
X115798571Y-65478571D01*
X115784285Y-65507142D01*
X115770000Y-65521428D01*
X115741428Y-65535714D01*
X115655714Y-65535714D01*
X115627142Y-65521428D01*
X115612857Y-65507142D01*
%TO.C,F1*%
X117340000Y-65598571D02*
X117240000Y-65598571D01*
X117240000Y-65755714D02*
X117240000Y-65455714D01*
X117382857Y-65455714D01*
X117654285Y-65755714D02*
X117482857Y-65755714D01*
X117568571Y-65755714D02*
X117568571Y-65455714D01*
X117540000Y-65498571D01*
X117511428Y-65527142D01*
X117482857Y-65541428D01*
%TO.C,D1*%
X115078571Y-62235714D02*
X115078571Y-61935714D01*
X115150000Y-61935714D01*
X115192857Y-61950000D01*
X115221428Y-61978571D01*
X115235714Y-62007142D01*
X115250000Y-62064285D01*
X115250000Y-62107142D01*
X115235714Y-62164285D01*
X115221428Y-62192857D01*
X115192857Y-62221428D01*
X115150000Y-62235714D01*
X115078571Y-62235714D01*
X115535714Y-62235714D02*
X115364285Y-62235714D01*
X115450000Y-62235714D02*
X115450000Y-61935714D01*
X115421428Y-61978571D01*
X115392857Y-62007142D01*
X115364285Y-62021428D01*
%TO.C,C59*%
X122707142Y-67742857D02*
X122721428Y-67757142D01*
X122735714Y-67800000D01*
X122735714Y-67828571D01*
X122721428Y-67871428D01*
X122692857Y-67900000D01*
X122664285Y-67914285D01*
X122607142Y-67928571D01*
X122564285Y-67928571D01*
X122507142Y-67914285D01*
X122478571Y-67900000D01*
X122450000Y-67871428D01*
X122435714Y-67828571D01*
X122435714Y-67800000D01*
X122450000Y-67757142D01*
X122464285Y-67742857D01*
X122435714Y-67471428D02*
X122435714Y-67614285D01*
X122578571Y-67628571D01*
X122564285Y-67614285D01*
X122550000Y-67585714D01*
X122550000Y-67514285D01*
X122564285Y-67485714D01*
X122578571Y-67471428D01*
X122607142Y-67457142D01*
X122678571Y-67457142D01*
X122707142Y-67471428D01*
X122721428Y-67485714D01*
X122735714Y-67514285D01*
X122735714Y-67585714D01*
X122721428Y-67614285D01*
X122707142Y-67628571D01*
X122735714Y-67314285D02*
X122735714Y-67257142D01*
X122721428Y-67228571D01*
X122707142Y-67214285D01*
X122664285Y-67185714D01*
X122607142Y-67171428D01*
X122492857Y-67171428D01*
X122464285Y-67185714D01*
X122450000Y-67200000D01*
X122435714Y-67228571D01*
X122435714Y-67285714D01*
X122450000Y-67314285D01*
X122464285Y-67328571D01*
X122492857Y-67342857D01*
X122564285Y-67342857D01*
X122592857Y-67328571D01*
X122607142Y-67314285D01*
X122621428Y-67285714D01*
X122621428Y-67228571D01*
X122607142Y-67200000D01*
X122592857Y-67185714D01*
X122564285Y-67171428D01*
D11*
%TO.C,L7*%
X126900000Y-61725000D02*
X126900000Y-60725000D01*
X126900000Y-60725000D02*
X127400000Y-60725000D01*
X127400000Y-60725000D02*
X127400000Y-61725000D01*
X127400000Y-61725000D02*
X126900000Y-61725000D01*
%TO.C,L2*%
X123200000Y-65150000D02*
X123700000Y-65150000D01*
X123700000Y-65150000D02*
X123700000Y-66150000D01*
X123200000Y-66150000D02*
X123200000Y-65150000D01*
X123700000Y-66150000D02*
X123200000Y-66150000D01*
%TO.C,L1*%
X125370000Y-71450000D02*
X125370000Y-71950000D01*
X124370000Y-71950000D02*
X124370000Y-71450000D01*
X125370000Y-71950000D02*
X124370000Y-71950000D01*
X124370000Y-71450000D02*
X125370000Y-71450000D01*
%TO.C,C41*%
X118750000Y-70500000D02*
X119350000Y-70500000D01*
X118750000Y-70800000D02*
X118750000Y-70500000D01*
X119350000Y-70500000D02*
X119350000Y-70800000D01*
X119350000Y-70800000D02*
X118750000Y-70800000D01*
%TO.C,SW1*%
X128812953Y-58482359D02*
X127212953Y-58482359D01*
X127212953Y-58482359D02*
X127212953Y-55982359D01*
X127212953Y-55982359D02*
X128812953Y-55982359D01*
X128812953Y-55982359D02*
X128812953Y-58482359D01*
%TO.C,C36*%
X118650000Y-66100000D02*
X118650000Y-65500000D01*
X118650000Y-65500000D02*
X118950000Y-65500000D01*
X118950000Y-66100000D02*
X118650000Y-66100000D01*
X118950000Y-65500000D02*
X118950000Y-66100000D01*
%TO.C,U8*%
X121562953Y-55482359D02*
X125062953Y-55482359D01*
X125062953Y-55482359D02*
X125062953Y-58107359D01*
X121562953Y-58982359D02*
X121562953Y-55482359D01*
X125062953Y-58107359D02*
X124187953Y-58982359D01*
X124187953Y-58982359D02*
X121562953Y-58982359D01*
%TO.C,R15*%
X125920000Y-61150000D02*
X126220000Y-61150000D01*
X126220000Y-61150000D02*
X126220000Y-61750000D01*
X126220000Y-61750000D02*
X125920000Y-61750000D01*
X125920000Y-61750000D02*
X125920000Y-61150000D01*
%TO.C,U7*%
X125150000Y-64550000D02*
X125150000Y-69650000D01*
X129200000Y-69650000D02*
X125150000Y-69650000D01*
X130250000Y-64550000D02*
X125150000Y-64550000D01*
X130250000Y-64550000D02*
X130250000Y-68600000D01*
X130250000Y-68600000D02*
X129200000Y-69650000D01*
%TO.C,J3*%
X113320000Y-43967500D02*
X113320000Y-35067500D01*
X125550000Y-36267500D02*
X132490000Y-36267500D01*
X121450000Y-36267500D02*
X121450000Y-35067500D01*
X113320000Y-35067500D02*
X132680000Y-35067500D01*
X114510000Y-36267500D02*
X121450000Y-36267500D01*
X132490000Y-36267500D02*
X132490000Y-42767500D01*
X133680000Y-43967500D02*
X113320000Y-43967500D01*
X132490000Y-42767500D02*
X114510000Y-42767500D01*
X114510000Y-42767500D02*
X114510000Y-36267500D01*
X133680000Y-36067500D02*
X133680000Y-43967500D01*
X125550000Y-35067500D02*
X125550000Y-36267500D01*
X121450000Y-36267500D02*
X121450000Y-36267500D01*
X132680000Y-35067500D02*
X133680000Y-36067500D01*
%TO.C,C29*%
X115070000Y-66600000D02*
X115070000Y-66100000D01*
X116070000Y-66600000D02*
X115070000Y-66600000D01*
X115070000Y-66100000D02*
X116070000Y-66100000D01*
X116070000Y-66100000D02*
X116070000Y-66600000D01*
%TO.C,C40*%
X119620000Y-66120000D02*
X119320000Y-66120000D01*
X119320000Y-66120000D02*
X119320000Y-65520000D01*
X119620000Y-65520000D02*
X119620000Y-66120000D01*
X119320000Y-65520000D02*
X119620000Y-65520000D01*
%TO.C,R14*%
X121080000Y-66080000D02*
X120780000Y-66080000D01*
X120780000Y-65480000D02*
X121080000Y-65480000D01*
X121080000Y-65480000D02*
X121080000Y-66080000D01*
X120780000Y-66080000D02*
X120780000Y-65480000D01*
%TO.C,C20*%
X119850000Y-55000000D02*
X120150000Y-55000000D01*
X120150000Y-55000000D02*
X120150000Y-55600000D01*
X119850000Y-55600000D02*
X119850000Y-55000000D01*
X120150000Y-55600000D02*
X119850000Y-55600000D01*
%TO.C,R25*%
X125562953Y-56632359D02*
X125562953Y-56032359D01*
X125862953Y-56032359D02*
X125862953Y-56632359D01*
X125562953Y-56032359D02*
X125862953Y-56032359D01*
X125862953Y-56632359D02*
X125562953Y-56632359D01*
%TO.C,C34*%
X124650000Y-66200000D02*
X124650000Y-67200000D01*
X124150000Y-67200000D02*
X124150000Y-66200000D01*
X124150000Y-66200000D02*
X124650000Y-66200000D01*
X124650000Y-67200000D02*
X124150000Y-67200000D01*
%TO.C,R7*%
X121430000Y-54720000D02*
X120830000Y-54720000D01*
X120830000Y-54420000D02*
X121430000Y-54420000D01*
X120830000Y-54720000D02*
X120830000Y-54420000D01*
X121430000Y-54420000D02*
X121430000Y-54720000D01*
%TO.C,D3*%
X130700000Y-60800000D02*
X132700000Y-60800000D01*
X132700000Y-60800000D02*
X132700000Y-63400000D01*
X132700000Y-63400000D02*
X130700000Y-63400000D01*
X130700000Y-63400000D02*
X130700000Y-60800000D01*
%TO.C,R8*%
X120010000Y-66100000D02*
X120010000Y-65500000D01*
X120010000Y-65500000D02*
X120310000Y-65500000D01*
X120310000Y-66100000D02*
X120010000Y-66100000D01*
X120310000Y-65500000D02*
X120310000Y-66100000D01*
%TO.C,R20*%
X126662953Y-56032359D02*
X126662953Y-56632359D01*
X126362953Y-56032359D02*
X126662953Y-56032359D01*
X126362953Y-56632359D02*
X126362953Y-56032359D01*
X126662953Y-56632359D02*
X126362953Y-56632359D01*
%TO.C,C8*%
X124150000Y-63300000D02*
X124450000Y-63300000D01*
X124150000Y-63900000D02*
X124150000Y-63300000D01*
X124450000Y-63900000D02*
X124150000Y-63900000D01*
X124450000Y-63300000D02*
X124450000Y-63900000D01*
%TO.C,C14*%
X123910000Y-69630000D02*
X123910000Y-69330000D01*
X124510000Y-69630000D02*
X123910000Y-69630000D01*
X124510000Y-69330000D02*
X124510000Y-69630000D01*
X123910000Y-69330000D02*
X124510000Y-69330000D01*
%TO.C,R11*%
X121640000Y-61210000D02*
X121340000Y-61210000D01*
X121640000Y-60610000D02*
X121640000Y-61210000D01*
X121340000Y-61210000D02*
X121340000Y-60610000D01*
X121340000Y-60610000D02*
X121640000Y-60610000D01*
%TO.C,C12*%
X125580000Y-62620000D02*
X126080000Y-62620000D01*
X126080000Y-63620000D02*
X125580000Y-63620000D01*
X126080000Y-62620000D02*
X126080000Y-63620000D01*
X125580000Y-63620000D02*
X125580000Y-62620000D01*
%TO.C,C16*%
X128425000Y-63800000D02*
X128125000Y-63800000D01*
X128125000Y-63800000D02*
X128125000Y-63200000D01*
X128125000Y-63200000D02*
X128425000Y-63200000D01*
X128425000Y-63200000D02*
X128425000Y-63800000D01*
%TO.C,C17*%
X125260000Y-70070000D02*
X125260000Y-70570000D01*
X125260000Y-70570000D02*
X124260000Y-70570000D01*
X124260000Y-70570000D02*
X124260000Y-70070000D01*
X124260000Y-70070000D02*
X125260000Y-70070000D01*
%TO.C,C63*%
X122050000Y-71850000D02*
X121550000Y-71850000D01*
X121550000Y-71850000D02*
X121550000Y-70850000D01*
X121550000Y-70850000D02*
X122050000Y-70850000D01*
X122050000Y-70850000D02*
X122050000Y-71850000D01*
%TO.C,C4*%
X127500000Y-70100000D02*
X128100000Y-70100000D01*
X128100000Y-70100000D02*
X128100000Y-70400000D01*
X128100000Y-70400000D02*
X127500000Y-70400000D01*
X127500000Y-70400000D02*
X127500000Y-70100000D01*
%TO.C,C7*%
X126050000Y-70425000D02*
X126050000Y-70125000D01*
X126050000Y-70125000D02*
X126650000Y-70125000D01*
X126650000Y-70125000D02*
X126650000Y-70425000D01*
X126650000Y-70425000D02*
X126050000Y-70425000D01*
%TO.C,C26*%
X131380000Y-58420000D02*
X130780000Y-58420000D01*
X130780000Y-58420000D02*
X130780000Y-58120000D01*
X130780000Y-58120000D02*
X131380000Y-58120000D01*
X131380000Y-58120000D02*
X131380000Y-58420000D01*
%TO.C,C19*%
X122440000Y-71970000D02*
X122440000Y-71370000D01*
X122440000Y-71370000D02*
X122740000Y-71370000D01*
X122740000Y-71370000D02*
X122740000Y-71970000D01*
X122740000Y-71970000D02*
X122440000Y-71970000D01*
%TO.C,C2*%
X123700000Y-63300000D02*
X123700000Y-64300000D01*
X123200000Y-64300000D02*
X123200000Y-63300000D01*
X123700000Y-64300000D02*
X123200000Y-64300000D01*
X123200000Y-63300000D02*
X123700000Y-63300000D01*
%TO.C,C1*%
X127280000Y-71350000D02*
X126280000Y-71350000D01*
X126280000Y-70850000D02*
X127280000Y-70850000D01*
X126280000Y-71350000D02*
X126280000Y-70850000D01*
X127280000Y-70850000D02*
X127280000Y-71350000D01*
%TO.C,U4*%
X117650000Y-69900000D02*
X116900000Y-69150000D01*
X116900000Y-66900000D02*
X121900000Y-66900000D01*
X116900000Y-69900000D02*
X116900000Y-66900000D01*
X121900000Y-66900000D02*
X121900000Y-69900000D01*
X121900000Y-69900000D02*
X116900000Y-69900000D01*
%TO.C,C18*%
X123450000Y-71970000D02*
X123150000Y-71970000D01*
X123450000Y-71370000D02*
X123450000Y-71970000D01*
X123150000Y-71370000D02*
X123450000Y-71370000D01*
X123150000Y-71970000D02*
X123150000Y-71370000D01*
%TO.C,R24*%
X120800000Y-71355000D02*
X120800000Y-70755000D01*
X121100000Y-70755000D02*
X121100000Y-71355000D01*
X121100000Y-71355000D02*
X120800000Y-71355000D01*
X120800000Y-70755000D02*
X121100000Y-70755000D01*
%TO.C,R19*%
X116150000Y-67955000D02*
X116450000Y-67955000D01*
X116450000Y-68555000D02*
X116150000Y-68555000D01*
X116450000Y-67955000D02*
X116450000Y-68555000D01*
X116150000Y-68555000D02*
X116150000Y-67955000D01*
%TO.C,U3*%
X120300000Y-56387500D02*
X120800000Y-56887500D01*
X117000000Y-56387500D02*
X117000000Y-61587500D01*
X120300000Y-56387500D02*
X117000000Y-56387500D01*
X120800000Y-61587500D02*
X120800000Y-56887500D01*
X117000000Y-61587500D02*
X120800000Y-61587500D01*
%TO.C,L9*%
X121650000Y-63800000D02*
X122550000Y-63800000D01*
X122550000Y-63800000D02*
X122550000Y-65800000D01*
X121650000Y-65800000D02*
X121650000Y-63800000D01*
X122550000Y-65800000D02*
X121650000Y-65800000D01*
%TO.C,R12*%
X121660000Y-62050000D02*
X121660000Y-62650000D01*
X121360000Y-62650000D02*
X121360000Y-62050000D01*
X121660000Y-62650000D02*
X121360000Y-62650000D01*
X121360000Y-62050000D02*
X121660000Y-62050000D01*
%TO.C,C21*%
X116400000Y-58250000D02*
X116100000Y-58250000D01*
X116100000Y-57650000D02*
X116400000Y-57650000D01*
X116100000Y-58250000D02*
X116100000Y-57650000D01*
X116400000Y-57650000D02*
X116400000Y-58250000D01*
%TO.C,C9*%
X129675000Y-62825000D02*
X129675000Y-63125000D01*
X129675000Y-63125000D02*
X129075000Y-63125000D01*
X129075000Y-63125000D02*
X129075000Y-62825000D01*
X129075000Y-62825000D02*
X129675000Y-62825000D01*
%TO.C,C6*%
X130125000Y-62150000D02*
X129825000Y-62150000D01*
X129825000Y-61550000D02*
X130125000Y-61550000D01*
X129825000Y-62150000D02*
X129825000Y-61550000D01*
X130125000Y-61550000D02*
X130125000Y-62150000D01*
%TO.C,C15*%
X124450000Y-65340000D02*
X124150000Y-65340000D01*
X124150000Y-64740000D02*
X124450000Y-64740000D01*
X124450000Y-64740000D02*
X124450000Y-65340000D01*
X124150000Y-65340000D02*
X124150000Y-64740000D01*
%TO.C,L8*%
X120500000Y-62210000D02*
X120500000Y-64710000D01*
X117300000Y-62210000D02*
X120500000Y-62210000D01*
X120500000Y-64710000D02*
X117300000Y-64710000D01*
X117300000Y-64710000D02*
X117300000Y-62210000D01*
%TO.C,R4*%
X123360000Y-67040000D02*
X123660000Y-67040000D01*
X123660000Y-67640000D02*
X123360000Y-67640000D01*
X123360000Y-67640000D02*
X123360000Y-67040000D01*
X123660000Y-67040000D02*
X123660000Y-67640000D01*
%TO.C,C5*%
X125150000Y-63900000D02*
X124850000Y-63900000D01*
X124850000Y-63900000D02*
X124850000Y-63300000D01*
X124850000Y-63300000D02*
X125150000Y-63300000D01*
X125150000Y-63300000D02*
X125150000Y-63900000D01*
%TO.C,C25*%
X129700000Y-57800000D02*
X130200000Y-57800000D01*
X130200000Y-58800000D02*
X129700000Y-58800000D01*
X129700000Y-58800000D02*
X129700000Y-57800000D01*
X130200000Y-57800000D02*
X130200000Y-58800000D01*
%TO.C,C35*%
X128375000Y-61300000D02*
X128375000Y-62300000D01*
X127875000Y-62300000D02*
X127875000Y-61300000D01*
X127875000Y-61300000D02*
X128375000Y-61300000D01*
X128375000Y-62300000D02*
X127875000Y-62300000D01*
%TO.C,R3*%
X123830000Y-68220000D02*
X124430000Y-68220000D01*
X124430000Y-68520000D02*
X123830000Y-68520000D01*
X124430000Y-68220000D02*
X124430000Y-68520000D01*
X123830000Y-68520000D02*
X123830000Y-68220000D01*
%TO.C,R17*%
X131440000Y-58820000D02*
X131440000Y-59120000D01*
X131440000Y-59120000D02*
X130840000Y-59120000D01*
X130840000Y-58820000D02*
X131440000Y-58820000D01*
X130840000Y-59120000D02*
X130840000Y-58820000D01*
%TO.C,C60*%
X120350000Y-71300000D02*
X120050000Y-71300000D01*
X120050000Y-70700000D02*
X120350000Y-70700000D01*
X120050000Y-71300000D02*
X120050000Y-70700000D01*
X120350000Y-70700000D02*
X120350000Y-71300000D01*
%TO.C,C13*%
X127000000Y-62620000D02*
X127000000Y-63620000D01*
X126500000Y-62620000D02*
X127000000Y-62620000D01*
X127000000Y-63620000D02*
X126500000Y-63620000D01*
X126500000Y-63620000D02*
X126500000Y-62620000D01*
%TO.C,R10*%
X119000000Y-55450000D02*
X119000000Y-55750000D01*
X119000000Y-55750000D02*
X118400000Y-55750000D01*
X118400000Y-55450000D02*
X119000000Y-55450000D01*
X118400000Y-55750000D02*
X118400000Y-55450000D01*
%TO.C,R18*%
X115655000Y-67350000D02*
X115655000Y-67050000D01*
X116255000Y-67050000D02*
X116255000Y-67350000D01*
X116255000Y-67350000D02*
X115655000Y-67350000D01*
X115655000Y-67050000D02*
X116255000Y-67050000D01*
%TO.C,C11*%
X127725000Y-63200000D02*
X127725000Y-63800000D01*
X127425000Y-63800000D02*
X127425000Y-63200000D01*
X127725000Y-63800000D02*
X127425000Y-63800000D01*
X127425000Y-63200000D02*
X127725000Y-63200000D01*
%TO.C,C3*%
X128850000Y-62150000D02*
X128850000Y-61150000D01*
X128850000Y-61150000D02*
X129350000Y-61150000D01*
X129350000Y-62150000D02*
X128850000Y-62150000D01*
X129350000Y-61150000D02*
X129350000Y-62150000D01*
%TO.C,R9*%
X116210000Y-59150000D02*
X115610000Y-59150000D01*
X116210000Y-58850000D02*
X116210000Y-59150000D01*
X115610000Y-59150000D02*
X115610000Y-58850000D01*
X115610000Y-58850000D02*
X116210000Y-58850000D01*
%TO.C,C10*%
X130000000Y-64000000D02*
X129000000Y-64000000D01*
X129000000Y-63500000D02*
X130000000Y-63500000D01*
X130000000Y-63500000D02*
X130000000Y-64000000D01*
X129000000Y-64000000D02*
X129000000Y-63500000D01*
%TO.C,C64*%
X122850000Y-68870000D02*
X122850000Y-69870000D01*
X122350000Y-69870000D02*
X122350000Y-68870000D01*
X122350000Y-68870000D02*
X122850000Y-68870000D01*
X122850000Y-69870000D02*
X122350000Y-69870000D01*
%TO.C,C33*%
X115920000Y-65650000D02*
X114920000Y-65650000D01*
X114920000Y-65150000D02*
X115920000Y-65150000D01*
X115920000Y-65150000D02*
X115920000Y-65650000D01*
X114920000Y-65650000D02*
X114920000Y-65150000D01*
%TO.C,D1*%
X114300000Y-60800000D02*
X116300000Y-60800000D01*
X116300000Y-60800000D02*
X116300000Y-63400000D01*
X116300000Y-63400000D02*
X114300000Y-63400000D01*
X114300000Y-63400000D02*
X114300000Y-60800000D01*
%TO.C,C59*%
X122850000Y-67050000D02*
X122850000Y-68050000D01*
X122850000Y-68050000D02*
X122350000Y-68050000D01*
X122350000Y-68050000D02*
X122350000Y-67050000D01*
X122350000Y-67050000D02*
X122850000Y-67050000D01*
%TD*%
M02*
