%TF.GenerationSoftware,KiCad,Pcbnew,(6.0.0)*%
%TF.CreationDate,2022-12-05T09:44:38-05:00*%
%TF.ProjectId,headstage-16stim,68656164-7374-4616-9765-2d3136737469,A*%
%TF.SameCoordinates,Original*%
%TF.FileFunction,Copper,L3,Inr*%
%TF.FilePolarity,Positive*%
%FSLAX46Y46*%
G04 Gerber Fmt 4.6, Leading zero omitted, Abs format (unit mm)*
G04 Created by KiCad (PCBNEW (6.0.0)) date 2022-12-05 09:44:38*
%MOMM*%
%LPD*%
G01*
G04 APERTURE LIST*
G04 Aperture macros list*
%AMRoundRect*
0 Rectangle with rounded corners*
0 $1 Rounding radius*
0 $2 $3 $4 $5 $6 $7 $8 $9 X,Y pos of 4 corners*
0 Add a 4 corners polygon primitive as box body*
4,1,4,$2,$3,$4,$5,$6,$7,$8,$9,$2,$3,0*
0 Add four circle primitives for the rounded corners*
1,1,$1+$1,$2,$3*
1,1,$1+$1,$4,$5*
1,1,$1+$1,$6,$7*
1,1,$1+$1,$8,$9*
0 Add four rect primitives between the rounded corners*
20,1,$1+$1,$2,$3,$4,$5,0*
20,1,$1+$1,$4,$5,$6,$7,0*
20,1,$1+$1,$6,$7,$8,$9,0*
20,1,$1+$1,$8,$9,$2,$3,0*%
G04 Aperture macros list end*
%TA.AperFunction,ComponentPad*%
%ADD10RoundRect,0.250000X-0.600000X0.600000X-0.600000X-0.600000X0.600000X-0.600000X0.600000X0.600000X0*%
%TD*%
%TA.AperFunction,ComponentPad*%
%ADD11C,1.700000*%
%TD*%
%TA.AperFunction,ViaPad*%
%ADD12C,0.300000*%
%TD*%
%TA.AperFunction,ViaPad*%
%ADD13C,0.200000*%
%TD*%
%TA.AperFunction,Conductor*%
%ADD14C,0.100000*%
%TD*%
%TA.AperFunction,Conductor*%
%ADD15C,0.200000*%
%TD*%
%TA.AperFunction,Conductor*%
%ADD16C,0.095250*%
%TD*%
%TA.AperFunction,Conductor*%
%ADD17C,0.300000*%
%TD*%
%TA.AperFunction,Conductor*%
%ADD18C,0.076200*%
%TD*%
%TA.AperFunction,Conductor*%
%ADD19C,0.150000*%
%TD*%
G04 APERTURE END LIST*
D10*
%TO.N,/FPGA/DO_{Flash}{slash}TCK*%
%TO.C,J3*%
X128580000Y-38247500D03*
D11*
%TO.N,GND*%
X128580000Y-40787500D03*
%TO.N,/FPGA/SCLK_{Flash}{slash}TDO*%
X126040000Y-38247500D03*
%TO.N,+1V8*%
X126040000Y-40787500D03*
%TO.N,/FPGA/DI_{Flash}{slash}TMS*%
X123500000Y-38247500D03*
%TO.N,/FPGA/~{CS}_{Flash}*%
X123500000Y-40787500D03*
%TO.N,unconnected-(J3-Pad7)*%
X120960000Y-38247500D03*
%TO.N,/FPGA/CRESET_{B}*%
X120960000Y-40787500D03*
%TO.N,/FPGA/TDI*%
X118420000Y-38247500D03*
%TO.N,GND*%
X118420000Y-40787500D03*
%TD*%
D12*
%TO.N,GND*%
X119500000Y-32000000D03*
D13*
X131675000Y-66550000D03*
X128130000Y-71080000D03*
D12*
X128500000Y-79000000D03*
X136600000Y-70500000D03*
D13*
X126110000Y-71800000D03*
X129040060Y-60025386D03*
X130680000Y-68010000D03*
X132490000Y-61300000D03*
X115650000Y-58260000D03*
D12*
X118500000Y-79000000D03*
D13*
X114940000Y-65570000D03*
X127752015Y-60049168D03*
X118850000Y-54950000D03*
X119550000Y-57150000D03*
X119463269Y-65429723D03*
X118140000Y-61380000D03*
X117380000Y-68000000D03*
D12*
X137112953Y-56032359D03*
D13*
X126570000Y-71750000D03*
X126787953Y-55232359D03*
X117730000Y-55760000D03*
X118550000Y-69020000D03*
X119320000Y-67810000D03*
X119714422Y-58160000D03*
X118926830Y-56046017D03*
X116199500Y-60912032D03*
X117250000Y-61240000D03*
X122612953Y-54832359D03*
X121760000Y-65170000D03*
D12*
X127910000Y-65600000D03*
D13*
X117250000Y-69275000D03*
X127996750Y-58049597D03*
X115280000Y-65870000D03*
D12*
X126532400Y-65300000D03*
X126535611Y-48813830D03*
D13*
X117900000Y-59200000D03*
D12*
X105500000Y-79000000D03*
D13*
X115675000Y-62800000D03*
X129830000Y-69770000D03*
X123780000Y-72280000D03*
D12*
X126500000Y-32000000D03*
D13*
X131750000Y-58970000D03*
D12*
X105500000Y-50000000D03*
D13*
X119175000Y-71200000D03*
X126912953Y-56007359D03*
D12*
X112300000Y-53000000D03*
X118600000Y-49000000D03*
D13*
X119419424Y-59044884D03*
X129000000Y-70460000D03*
D12*
X105500000Y-32000000D03*
D13*
X130790000Y-60830000D03*
D12*
X129340000Y-67030000D03*
D13*
X132280000Y-60930000D03*
D12*
X111010000Y-75570000D03*
D13*
X115670000Y-60870000D03*
X124270000Y-72300000D03*
X117839500Y-61763971D03*
X125850000Y-53980000D03*
X130817600Y-63125000D03*
D12*
X129300000Y-68250000D03*
D13*
X130120000Y-57960000D03*
X127312953Y-59182359D03*
X130800000Y-67560000D03*
X114450000Y-60825000D03*
D12*
X105500000Y-39000000D03*
D13*
X121450000Y-53970000D03*
D12*
X141500000Y-32000000D03*
D13*
X115712799Y-61962799D03*
X125360000Y-55000000D03*
X127212953Y-57332359D03*
X117182983Y-61729099D03*
X130157403Y-60136004D03*
X126125953Y-55282359D03*
X118730000Y-70360000D03*
X117440000Y-56060000D03*
D12*
X105500000Y-60000000D03*
D13*
X123380000Y-53930000D03*
X131750000Y-65925000D03*
X116199500Y-63148112D03*
X128639058Y-70796960D03*
D12*
X105500000Y-70000000D03*
X141500000Y-76000000D03*
D13*
X122540000Y-57970000D03*
X123110913Y-57063069D03*
X122880000Y-53830000D03*
D12*
X141500000Y-64000000D03*
D13*
X118790000Y-68690000D03*
X124612953Y-60132359D03*
X116620000Y-56790000D03*
X121365438Y-55781859D03*
X117120000Y-67680000D03*
X119230000Y-67320000D03*
X114950000Y-66220000D03*
X122510000Y-71779500D03*
X123446689Y-57432989D03*
X115750000Y-57840000D03*
X132350000Y-65300000D03*
D12*
X141500000Y-41000000D03*
X141500000Y-52000000D03*
D13*
X123810000Y-53830000D03*
X122230000Y-65200000D03*
D12*
X111500000Y-72000000D03*
D13*
X126950000Y-54425000D03*
%TO.N,+2V5*%
X118960000Y-61950000D03*
X119086883Y-62690000D03*
%TO.N,/FPGA/D0+*%
X122540701Y-58782359D03*
X130100000Y-67850000D03*
%TO.N,/FPGA/CLK+*%
X130100002Y-66850001D03*
X121860000Y-58989500D03*
%TO.N,/FPGA/CLK-*%
X121520000Y-58980000D03*
X130100000Y-66350000D03*
%TO.N,/FPGA/D0-*%
X122512953Y-58457560D03*
X130100002Y-67350000D03*
D12*
%TO.N,+1V2*%
X115699500Y-61481830D03*
X116930000Y-67190000D03*
D13*
%TO.N,/FPGA/SDA_{Ser}*%
X124667633Y-71105107D03*
X124480437Y-54982348D03*
%TO.N,/FPGA/SCL_{Ser}*%
X124988841Y-71099245D03*
X122887953Y-56032359D03*
X123362953Y-54657359D03*
%TO.N,/FPGA/GPIO0_{Ser}*%
X125300000Y-65300498D03*
X124487953Y-57607359D03*
%TO.N,/FPGA/TDI*%
X124112953Y-58057359D03*
X125202953Y-58762359D03*
D12*
X130230000Y-47300000D03*
D13*
%TO.N,/FPGA/CLK*%
X120010000Y-56310000D03*
X122525878Y-56058416D03*
%TO.N,/FPGA/PDB_{Ser}*%
X125037953Y-55182359D03*
X128750000Y-60100000D03*
%TO.N,/FPGA/GPIO3_{Ser}*%
X127578439Y-69462400D03*
X124993453Y-55682359D03*
%TO.N,/FPGA/CLK_{Ser}*%
X124800000Y-65300000D03*
X124033453Y-55632359D03*
%TO.N,/FPGA/DI_{Flash}{slash}TMS*%
X127237953Y-56710500D03*
X124479851Y-56832082D03*
%TO.N,/FPGA/DO_{Flash}{slash}TCK*%
X129362953Y-58632359D03*
D12*
X131952855Y-54462855D03*
D13*
X125513933Y-57819029D03*
%TO.N,/FPGA/~{CS}_{Flash}*%
X124112953Y-57603061D03*
X126612953Y-58982359D03*
X129940000Y-59930000D03*
%TO.N,+4V*%
X117650500Y-66298415D03*
X119809767Y-65177042D03*
%TO.N,/Ephys/~{CS}*%
X118311937Y-70424949D03*
X122309348Y-55409365D03*
%TO.N,/Ephys/SCLK*%
X121472953Y-55462359D03*
X120408553Y-71729136D03*
%TO.N,/Ephys/MISO*%
X117450500Y-65470990D03*
X121496702Y-56051065D03*
%TO.N,/Ephys/MOSI*%
X119370000Y-64700000D03*
X121633713Y-57018024D03*
%TO.N,/3D Pose/SCL*%
X122430218Y-57185272D03*
X119668924Y-61356076D03*
%TO.N,/3D Pose/Data_{0}*%
X117900000Y-58280000D03*
X122086690Y-56428879D03*
%TO.N,/3D Pose/Env_{0}*%
X117950000Y-58790000D03*
X122190000Y-56710000D03*
%TO.N,/3D Pose/Data_{1}*%
X124112953Y-54982359D03*
X130050000Y-58299500D03*
%TO.N,/3D Pose/Env_{1}*%
X130470000Y-57900000D03*
X123637953Y-54857359D03*
%TO.N,Net-(C29-Pad2)*%
X117278199Y-66401179D03*
X122770000Y-65280000D03*
%TO.N,+7V*%
X122510000Y-71100498D03*
X118681493Y-65463690D03*
%TO.N,/FPGA/CRESET_{B}*%
X126980000Y-56960000D03*
X124487953Y-57207359D03*
%TO.N,/Ephys/StimEn*%
X122160493Y-72253864D03*
X121380000Y-57190000D03*
%TD*%
D14*
%TO.N,GND*%
X130225000Y-56925000D02*
X132500000Y-54650000D01*
X130825000Y-57525000D02*
X130225000Y-56925000D01*
X132500000Y-54650000D02*
X133300000Y-54650000D01*
D15*
%TO.N,+2V5*%
X119086883Y-62690000D02*
X119080000Y-62683117D01*
X118960000Y-61950000D02*
X119086883Y-62076883D01*
X119086883Y-62076883D02*
X119086883Y-62690000D01*
D16*
%TO.N,/FPGA/D0+*%
X122540701Y-58817625D02*
X122540701Y-58783576D01*
X130956525Y-64936525D02*
X129344426Y-63324426D01*
X130100000Y-67850000D02*
X130956525Y-66993475D01*
X129344426Y-63324426D02*
X127168690Y-63324426D01*
X126023498Y-61780010D02*
X126023497Y-61780011D01*
X126547710Y-61780011D02*
X126547711Y-61780011D01*
X122540000Y-58820000D02*
X125692722Y-61972723D01*
X126355000Y-62635000D02*
X126354999Y-62635000D01*
X130956525Y-66993475D02*
X130956525Y-64936525D01*
X126354999Y-62496937D02*
X126547711Y-62304224D01*
X126956558Y-63236558D02*
X126355000Y-62635000D01*
X126023497Y-61780011D02*
X125830784Y-61972723D01*
X125692722Y-61972721D02*
G75*
G03*
X125830783Y-61972722I69031J69031D01*
G01*
X126355000Y-62496937D02*
G75*
G03*
X126355000Y-62634999I69031J-69031D01*
G01*
X126956558Y-63236558D02*
G75*
G03*
X127168690Y-63324426I212131J212130D01*
G01*
X126023499Y-61780011D02*
G75*
G02*
X126547710Y-61780012I262105J-262105D01*
G01*
X126547709Y-61780012D02*
G75*
G02*
X126547710Y-62304223I-262104J-262106D01*
G01*
%TO.N,/FPGA/CLK+*%
X121830000Y-60280000D02*
X122010000Y-60460001D01*
X130217333Y-65347333D02*
X130217333Y-66117333D01*
X130217333Y-66117333D02*
X130360000Y-66260000D01*
X122148062Y-60460000D02*
X122148064Y-60460001D01*
X122920211Y-61012403D02*
X122810337Y-61122276D01*
X130360000Y-66260000D02*
X130360000Y-66590003D01*
X122810337Y-61122276D02*
X122810339Y-61122277D01*
X121830000Y-59019500D02*
X121860000Y-58989500D01*
X123334548Y-61784552D02*
X123334550Y-61784551D01*
X123334550Y-61784551D02*
X126041016Y-64491016D01*
X123444424Y-61536615D02*
X123334549Y-61646489D01*
X130360000Y-66590003D02*
X130100002Y-66850001D01*
X123444425Y-61012403D02*
X123444424Y-61012402D01*
X122257936Y-60350127D02*
X122148062Y-60460000D01*
X121830000Y-60280000D02*
X121830000Y-59019500D01*
X122782150Y-60350127D02*
X122782149Y-60350126D01*
X122672274Y-60984213D02*
X122782149Y-60874339D01*
X122672275Y-61122277D02*
X122672275Y-61122275D01*
X122672275Y-61122275D02*
X122672273Y-61122276D01*
X126253148Y-64578884D02*
X129448884Y-64578884D01*
X129448884Y-64578884D02*
X130217333Y-65347333D01*
X122672276Y-61122276D02*
G75*
G03*
X122810338Y-61122276I69031J69031D01*
G01*
X122010001Y-60460000D02*
G75*
G03*
X122148063Y-60460000I69031J69031D01*
G01*
X122257936Y-60350127D02*
G75*
G02*
X122782149Y-60350126I262107J-262101D01*
G01*
X122782149Y-60350128D02*
G75*
G02*
X122782146Y-60874339I-262106J-262104D01*
G01*
X123444424Y-61012404D02*
G75*
G02*
X123444421Y-61536615I-262106J-262104D01*
G01*
X123334548Y-61784552D02*
G75*
G02*
X123334549Y-61646489I69036J69031D01*
G01*
X122920211Y-61012403D02*
G75*
G02*
X123444424Y-61012402I262107J-262101D01*
G01*
X126253148Y-64578883D02*
G75*
G02*
X126041017Y-64491015I-1J299997D01*
G01*
X122672274Y-60984213D02*
G75*
G03*
X122672273Y-61122276I69035J-69032D01*
G01*
%TO.N,/FPGA/CLK-*%
X122479198Y-60791137D02*
X122589073Y-60681263D01*
X129917333Y-66167333D02*
X130100000Y-66350000D01*
X121626950Y-60463102D02*
X121816923Y-60653074D01*
X123141474Y-61977628D02*
X123587976Y-62424128D01*
X123003412Y-61315351D02*
X123113286Y-61205478D01*
X128098858Y-64851934D02*
X129335782Y-64851934D01*
X129917333Y-65433485D02*
X129917333Y-66167333D01*
X123251349Y-61205477D02*
X123251348Y-61205477D01*
X121623193Y-59083193D02*
X121520000Y-58980000D01*
X123141473Y-61977627D02*
X123141474Y-61977628D01*
X123003412Y-61315352D02*
X123003412Y-61315351D01*
X124365795Y-63201946D02*
X124365795Y-63201947D01*
X126140046Y-64851934D02*
X127306114Y-64851934D01*
X123141473Y-61453413D02*
X123251348Y-61343539D01*
X124365795Y-63201947D02*
X125927914Y-64764066D01*
X127698858Y-65244678D02*
X127706114Y-65244678D01*
X122341137Y-60653076D02*
X122341137Y-60653075D01*
X122479198Y-61315350D02*
X122479199Y-61315352D01*
X121623193Y-60456269D02*
X121623193Y-59083193D01*
X122341137Y-60653075D02*
X122451011Y-60543202D01*
X129335782Y-64851934D02*
X129917333Y-65433485D01*
X122589074Y-60543201D02*
X122589073Y-60543201D01*
X123587976Y-62424128D02*
X124365795Y-63201947D01*
X123251348Y-61205478D02*
G75*
G03*
X123113287Y-61205479I-69030J-69029D01*
G01*
X122341136Y-60653075D02*
G75*
G02*
X121816924Y-60653073I-262105J262108D01*
G01*
X123141473Y-61977627D02*
G75*
G02*
X123141473Y-61453413I262111J262107D01*
G01*
X122479198Y-61315351D02*
G75*
G02*
X122479198Y-60791137I262111J262107D01*
G01*
X123251347Y-61343540D02*
G75*
G03*
X123251348Y-61205477I-69035J69032D01*
G01*
X127502486Y-65048306D02*
G75*
G03*
X127306114Y-64851934I-196372J0D01*
G01*
X126140046Y-64851933D02*
G75*
G02*
X125927915Y-64764065I-1J299997D01*
G01*
X127698858Y-65244678D02*
G75*
G02*
X127502486Y-65048306I0J196372D01*
G01*
X127902486Y-65048306D02*
G75*
G02*
X127706114Y-65244678I-196372J0D01*
G01*
X123003411Y-61315351D02*
G75*
G02*
X122479199Y-61315349I-262105J262108D01*
G01*
X122589072Y-60681264D02*
G75*
G03*
X122589073Y-60543201I-69035J69032D01*
G01*
X122589073Y-60543202D02*
G75*
G03*
X122451012Y-60543203I-69030J-69029D01*
G01*
X128098858Y-64851934D02*
G75*
G03*
X127902486Y-65048306I0J-196372D01*
G01*
%TO.N,/FPGA/D0-*%
X122513576Y-58458777D02*
X122481223Y-58458777D01*
X122293576Y-58646424D02*
X122293576Y-58956652D01*
X130213848Y-67350000D02*
X130683475Y-66880373D01*
X126161924Y-62828076D02*
X126161924Y-62828075D01*
X130683475Y-66880373D02*
X130683475Y-65049627D01*
X130683475Y-65049627D02*
X129231324Y-63597476D01*
X126216573Y-61973087D02*
X126023860Y-62165799D01*
X122292875Y-58959027D02*
X125499648Y-62165799D01*
X129231324Y-63597476D02*
X127055588Y-63597476D01*
X126354635Y-61973086D02*
X126354636Y-61973087D01*
X122481223Y-58458777D02*
X122293576Y-58646424D01*
X130100002Y-67350000D02*
X130213848Y-67350000D01*
X126161924Y-62303862D02*
X126354636Y-62111149D01*
X126216573Y-61973086D02*
X126216573Y-61973087D01*
X126843456Y-63509608D02*
X126161924Y-62828076D01*
X125499648Y-62165797D02*
G75*
G03*
X126023859Y-62165798I262106J262104D01*
G01*
X126161925Y-62303862D02*
G75*
G03*
X126161925Y-62828074I262107J-262106D01*
G01*
X126843456Y-63509608D02*
G75*
G03*
X127055588Y-63597476I212131J212130D01*
G01*
X126354634Y-61973087D02*
G75*
G02*
X126354635Y-62111148I-69031J-69031D01*
G01*
X126216574Y-61973087D02*
G75*
G02*
X126354635Y-61973088I69030J-69032D01*
G01*
D17*
%TO.N,+1V2*%
X115740000Y-65760000D02*
X115040000Y-65060000D01*
X115040000Y-62141330D02*
X115699500Y-61481830D01*
X115040000Y-65060000D02*
X115040000Y-62141330D01*
X115740000Y-66000000D02*
X115740000Y-65760000D01*
X116930000Y-67190000D02*
X115740000Y-66000000D01*
D18*
%TO.N,/FPGA/SDA_{Ser}*%
X121278799Y-58566689D02*
X120760000Y-59085488D01*
D14*
X124830000Y-71390000D02*
X125220000Y-71390000D01*
D18*
X122175488Y-57720000D02*
X121328799Y-58566689D01*
D14*
X121955000Y-62455000D02*
X121955000Y-62035000D01*
D18*
X120760000Y-59085488D02*
X120760000Y-59180000D01*
X123213576Y-56123576D02*
X123063981Y-56273171D01*
X121328799Y-58566689D02*
X121278799Y-58566689D01*
D14*
X125410000Y-71200000D02*
X125410000Y-70860000D01*
D18*
X122873312Y-57326688D02*
X122480000Y-57720000D01*
X123389065Y-55233087D02*
X123213576Y-55408576D01*
D14*
X125410000Y-70860000D02*
X124310000Y-69760000D01*
X124310000Y-69760000D02*
X124310000Y-64810000D01*
X124310000Y-64810000D02*
X121955000Y-62455000D01*
X124667633Y-71105107D02*
X124667633Y-71227633D01*
D18*
X124231538Y-55233087D02*
X123389065Y-55233087D01*
D14*
X121955000Y-62035000D02*
X120760000Y-60840000D01*
D18*
X122873312Y-56964650D02*
X122873312Y-57326688D01*
D14*
X124667633Y-71227633D02*
X124830000Y-71390000D01*
X120760000Y-60840000D02*
X120760000Y-59180000D01*
X125220000Y-71390000D02*
X125410000Y-71200000D01*
D18*
X123063981Y-56773981D02*
X122873312Y-56964650D01*
X122480000Y-57720000D02*
X122175488Y-57720000D01*
X123213576Y-55408576D02*
X123213576Y-56123576D01*
X123063981Y-56273171D02*
X123063981Y-56773981D01*
D14*
X124231538Y-55233087D02*
X124481060Y-54983565D01*
%TO.N,/FPGA/SCL_{Ser}*%
X120510000Y-60995000D02*
X121720000Y-62205000D01*
D18*
X122697601Y-57253907D02*
X122439007Y-57512501D01*
X122439007Y-57512501D02*
X122127499Y-57512501D01*
D14*
X120510000Y-59025001D02*
X120510000Y-60995000D01*
X124988841Y-71057653D02*
X124988841Y-71099245D01*
D18*
X121310000Y-58180000D02*
X120510000Y-58980000D01*
D14*
X123860000Y-69928812D02*
X124988841Y-71057653D01*
D18*
X121460000Y-58180000D02*
X121310000Y-58180000D01*
D14*
X121720000Y-62800000D02*
X123860000Y-64940000D01*
D18*
X122127499Y-57512501D02*
X121460000Y-58180000D01*
D14*
X122888576Y-55133576D02*
X122888576Y-56033576D01*
D18*
X122888576Y-56033576D02*
X122697602Y-56224550D01*
X122697602Y-56224550D02*
X122697601Y-57253907D01*
D14*
X123363576Y-54658576D02*
X122888576Y-55133576D01*
D18*
X120510000Y-58980000D02*
X120510000Y-59025001D01*
D14*
X123860000Y-64940000D02*
X123860000Y-69928812D01*
X121720000Y-62205000D02*
X121720000Y-62800000D01*
%TO.N,/FPGA/GPIO0_{Ser}*%
X129595698Y-59580000D02*
X129954248Y-59580000D01*
X131400000Y-67300000D02*
X131230000Y-67470000D01*
X131400000Y-64400000D02*
X131400000Y-67300000D01*
X131230000Y-60855752D02*
X131230000Y-64230000D01*
X129980000Y-69180000D02*
X129179502Y-69180000D01*
X128947849Y-58932151D02*
X129595698Y-59580000D01*
X127066425Y-58183576D02*
X127815001Y-58932151D01*
X129954248Y-59580000D02*
X131230000Y-60855752D01*
X130800000Y-68360000D02*
X129980000Y-69180000D01*
X124488576Y-57608576D02*
X125063576Y-58183576D01*
X127815001Y-58932151D02*
X128947849Y-58932151D01*
X131230000Y-67720000D02*
X130800000Y-68360000D01*
X129179502Y-69180000D02*
X125300000Y-65300498D01*
X125063576Y-58183576D02*
X127066425Y-58183576D01*
X131230000Y-67470000D02*
X131230000Y-67720000D01*
X131230000Y-64230000D02*
X131400000Y-64400000D01*
%TO.N,/FPGA/TDI*%
X124593576Y-58763576D02*
X124113576Y-58283576D01*
D15*
X116720000Y-39947500D02*
X118420000Y-38247500D01*
X130230000Y-47300000D02*
X121720000Y-47300000D01*
D14*
X125203576Y-58763576D02*
X124593576Y-58763576D01*
D15*
X121720000Y-47300000D02*
X116720000Y-42300000D01*
X116720000Y-42300000D02*
X116720000Y-39947500D01*
D14*
X124113576Y-58283576D02*
X124113576Y-58058576D01*
%TO.N,/FPGA/CLK*%
X120018217Y-56301783D02*
X120010000Y-56310000D01*
D18*
X120018217Y-56301783D02*
X121705369Y-56301783D01*
X121947519Y-56059633D02*
X122526501Y-56059633D01*
X121705369Y-56301783D02*
X121947519Y-56059633D01*
D14*
%TO.N,/FPGA/PDB_{Ser}*%
X126473576Y-59533576D02*
X124856424Y-59533576D01*
D18*
X124590000Y-55520000D02*
X124590000Y-56260000D01*
X123860000Y-58930000D02*
X123863576Y-58933576D01*
X123860000Y-57490000D02*
X123860000Y-58930000D01*
X124020000Y-56840000D02*
X124020000Y-57330000D01*
D14*
X124582848Y-59260000D02*
X124856424Y-59533576D01*
X128333576Y-59753576D02*
X126693576Y-59753576D01*
D18*
X124590000Y-56260000D02*
X124015000Y-56835000D01*
D14*
X128663576Y-60083576D02*
X128333576Y-59753576D01*
X124190000Y-59260000D02*
X124582848Y-59260000D01*
X124190000Y-59260000D02*
X123863576Y-58933576D01*
D18*
X124927641Y-55182359D02*
X124590000Y-55520000D01*
X124020000Y-57330000D02*
X123860000Y-57490000D01*
D14*
X126693576Y-59753576D02*
X126473576Y-59533576D01*
D18*
X124015000Y-56835000D02*
X124020000Y-56840000D01*
X125037953Y-55182359D02*
X124927641Y-55182359D01*
D14*
%TO.N,/FPGA/GPIO3_{Ser}*%
X131140000Y-68320000D02*
X130850000Y-68720000D01*
X132070000Y-65100000D02*
X132080000Y-65110000D01*
X131820000Y-67010000D02*
X131490000Y-67780000D01*
X129807600Y-69462400D02*
X127578439Y-69462400D01*
X132080000Y-65110000D02*
X132080000Y-66080000D01*
X127216424Y-55923576D02*
X127216424Y-56236424D01*
X124994076Y-55683576D02*
X126976424Y-55683576D01*
X130985000Y-59215000D02*
X130985000Y-60135000D01*
X130440000Y-58670000D02*
X130985000Y-59215000D01*
X130850000Y-68720000D02*
X130550000Y-69080000D01*
X126976424Y-55683576D02*
X127216424Y-55923576D01*
X132080000Y-66080000D02*
X131820000Y-67010000D01*
X129221076Y-58021076D02*
X129870000Y-58670000D01*
X129001076Y-58021076D02*
X129221076Y-58021076D01*
X129870000Y-58670000D02*
X130440000Y-58670000D01*
X130550000Y-69080000D02*
X130290000Y-69350000D01*
X130985000Y-60135000D02*
X132070000Y-61220000D01*
X131490000Y-67780000D02*
X131140000Y-68320000D01*
X130290000Y-69350000D02*
X129807600Y-69462400D01*
X132070000Y-61220000D02*
X132070000Y-65100000D01*
X127216424Y-56236424D02*
X129001076Y-58021076D01*
%TO.N,/FPGA/CLK_{Ser}*%
X122355000Y-62265000D02*
X124800000Y-64710000D01*
X121040000Y-59132152D02*
X121040000Y-60680000D01*
D18*
X121933980Y-58210000D02*
X122760000Y-58210000D01*
X124034076Y-55633576D02*
X123684289Y-55983363D01*
X123684289Y-55983363D02*
X123684289Y-57715711D01*
X121401581Y-58742399D02*
X121933980Y-58210000D01*
X123595000Y-58125000D02*
X123400000Y-58320000D01*
X123400000Y-58320000D02*
X122870000Y-58320000D01*
X121040000Y-59053980D02*
X121351581Y-58742399D01*
X123595000Y-57805000D02*
X123595000Y-58125000D01*
X123684289Y-57715711D02*
X123595000Y-57805000D01*
D14*
X122355000Y-61995000D02*
X122355000Y-62265000D01*
D18*
X121040000Y-59132152D02*
X121040000Y-59053980D01*
D14*
X121040000Y-60680000D02*
X122355000Y-61995000D01*
D18*
X122870000Y-58320000D02*
X122760000Y-58210000D01*
X121351581Y-58742399D02*
X121401581Y-58742399D01*
D14*
X124800000Y-64710000D02*
X124800000Y-65300000D01*
%TO.N,/FPGA/DI_{Flash}{slash}TMS*%
X126488853Y-56833299D02*
X126613576Y-56708576D01*
X124480474Y-56833299D02*
X126488853Y-56833299D01*
X127213576Y-56708576D02*
X127238576Y-56733576D01*
X126613576Y-56708576D02*
X127213576Y-56708576D01*
D15*
%TO.N,/FPGA/DO_{Flash}{slash}TCK*%
X132690000Y-42357500D02*
X132690000Y-53725710D01*
D14*
X128213576Y-58633576D02*
X127400246Y-57820246D01*
X129363576Y-58633576D02*
X128213576Y-58633576D01*
D15*
X132690000Y-53725710D02*
X131952855Y-54462855D01*
X128580000Y-38247500D02*
X132690000Y-42357500D01*
D14*
X127400246Y-57820246D02*
X125514556Y-57820246D01*
%TO.N,/FPGA/~{CS}_{Flash}*%
X129911776Y-59901776D02*
X129940000Y-59930000D01*
X129444624Y-59901776D02*
X129911776Y-59901776D01*
X127063576Y-59433576D02*
X128976424Y-59433576D01*
X128976424Y-59433576D02*
X129444624Y-59901776D01*
X126113576Y-58483576D02*
X127063576Y-59433576D01*
X124992874Y-58483576D02*
X126113576Y-58483576D01*
X124113576Y-57604278D02*
X124992874Y-58483576D01*
D18*
%TO.N,+4V*%
X119809767Y-65177042D02*
X119794687Y-65192122D01*
X118568555Y-65192122D02*
X117650500Y-66110177D01*
X119794687Y-65192122D02*
X118568555Y-65192122D01*
X117650500Y-66110177D02*
X117650500Y-66298415D01*
D14*
%TO.N,/Ephys/~{CS}*%
X116260000Y-63810000D02*
X116260000Y-65480000D01*
X119731424Y-54868576D02*
X119291424Y-54868576D01*
X117980000Y-69950000D02*
X118311937Y-70281937D01*
X115820000Y-58507152D02*
X115820000Y-59810000D01*
X116756779Y-65976779D02*
X116756779Y-66593221D01*
X116470000Y-63600000D02*
X116260000Y-63810000D01*
X117101779Y-66938221D02*
X117308221Y-66938221D01*
X120010000Y-54590000D02*
X119731424Y-54868576D01*
X118520000Y-55220000D02*
X117979501Y-55760499D01*
X116470000Y-60460000D02*
X116470000Y-63600000D01*
X116756779Y-66593221D02*
X117101779Y-66938221D01*
X118940000Y-55220000D02*
X118520000Y-55220000D01*
X115820000Y-59810000D02*
X116470000Y-60460000D01*
X122309971Y-55410582D02*
X121489390Y-54590000D01*
X117308221Y-66938221D02*
X117980000Y-67610000D01*
X118311937Y-70281937D02*
X118311937Y-70424949D01*
X119291424Y-54868576D02*
X118940000Y-55220000D01*
X116260000Y-65480000D02*
X116756779Y-65976779D01*
X117980000Y-67610000D02*
X117980000Y-69950000D01*
X121489390Y-54590000D02*
X120010000Y-54590000D01*
X117979501Y-55760499D02*
X117979501Y-56347651D01*
X117979501Y-56347651D02*
X115820000Y-58507152D01*
%TO.N,/Ephys/SCLK*%
X117028698Y-63928698D02*
X117028698Y-66504527D01*
X116920000Y-58030000D02*
X116920000Y-63820000D01*
X118896424Y-55463576D02*
X118620000Y-55740000D01*
X118620000Y-55740000D02*
X118620000Y-56330000D01*
X117487915Y-66697915D02*
X120408553Y-69618553D01*
X117222085Y-66697915D02*
X117487915Y-66697915D01*
X120408553Y-69618553D02*
X120408553Y-71729136D01*
X121473576Y-55463576D02*
X118896424Y-55463576D01*
X117028698Y-66504527D02*
X117222085Y-66697915D01*
X118620000Y-56330000D02*
X116920000Y-58030000D01*
X116920000Y-63820000D02*
X117028698Y-63928698D01*
%TO.N,/Ephys/MISO*%
X117550000Y-65320000D02*
X117550000Y-58017152D01*
X117450500Y-65419500D02*
X117550000Y-65320000D01*
X117550000Y-58017152D02*
X119514870Y-56052282D01*
X119514870Y-56052282D02*
X121497325Y-56052282D01*
X117450500Y-65470990D02*
X117450500Y-65419500D01*
%TO.N,/Ephys/MOSI*%
X119743576Y-57653576D02*
X119476424Y-57653576D01*
X118800000Y-59800000D02*
X118650000Y-59950000D01*
X118510000Y-59110000D02*
X118800000Y-59400000D01*
X118650000Y-59950000D02*
X118650000Y-63980000D01*
X118510000Y-58620000D02*
X118510000Y-59110000D01*
X118650000Y-63980000D02*
X119370000Y-64700000D01*
X118800000Y-59400000D02*
X118800000Y-59800000D01*
X119476424Y-57653576D02*
X118510000Y-58620000D01*
D18*
X120446653Y-56950499D02*
X120514753Y-56882399D01*
X121498088Y-56882399D02*
X121633713Y-57018024D01*
D14*
X120446653Y-56950499D02*
X119743576Y-57653576D01*
D18*
X120514753Y-56882399D02*
X121498088Y-56882399D01*
%TO.N,/3D Pose/SCL*%
X120890000Y-57660000D02*
X120990000Y-57560000D01*
X121894728Y-57185272D02*
X122430218Y-57185272D01*
X121520000Y-57560000D02*
X121894728Y-57185272D01*
X120990000Y-57560000D02*
X121520000Y-57560000D01*
D14*
X119668924Y-61356076D02*
X119668924Y-58811076D01*
X120890000Y-57938431D02*
X120890000Y-57660000D01*
X119668924Y-58811076D02*
X120155784Y-58324216D01*
X120504216Y-58324216D02*
X120890000Y-57938431D01*
X120155784Y-58324216D02*
X120504216Y-58324216D01*
%TO.N,/3D Pose/Data_{0}*%
X119981076Y-56696076D02*
X119483924Y-56696076D01*
X119483924Y-56696076D02*
X117900000Y-58280000D01*
D18*
X122086690Y-56435462D02*
X122086690Y-56428879D01*
X122020858Y-56501294D02*
X122086690Y-56435462D01*
X122020858Y-56501294D02*
X120175858Y-56501294D01*
D14*
X120175858Y-56501294D02*
X119981076Y-56696076D01*
%TO.N,/3D Pose/Env_{0}*%
X119673576Y-57423576D02*
X120396153Y-56700999D01*
D18*
X121475511Y-56700999D02*
X122180999Y-56700999D01*
D14*
X119226424Y-57423576D02*
X119673576Y-57423576D01*
X117950000Y-58700000D02*
X119226424Y-57423576D01*
X122180999Y-56700999D02*
X122190000Y-56710000D01*
X117950000Y-58790000D02*
X117950000Y-58700000D01*
D18*
X120396153Y-56700999D02*
X120410463Y-56686689D01*
X121461201Y-56686689D02*
X121475511Y-56700999D01*
X120410463Y-56686689D02*
X121461201Y-56686689D01*
D14*
%TO.N,/3D Pose/Data_{1}*%
X127075000Y-54975000D02*
X126097848Y-54975000D01*
X126097848Y-54975000D02*
X125816424Y-54693576D01*
X124403576Y-54693576D02*
X124113576Y-54983576D01*
X127425000Y-55945000D02*
X127425000Y-55325000D01*
X129350000Y-57599500D02*
X129350000Y-57350000D01*
X129350000Y-57350000D02*
X128890000Y-56890000D01*
X130050000Y-58299500D02*
X129350000Y-57599500D01*
X127425000Y-55325000D02*
X127075000Y-54975000D01*
X128370000Y-56890000D02*
X127425000Y-55945000D01*
X128890000Y-56890000D02*
X128370000Y-56890000D01*
X125816424Y-54693576D02*
X124403576Y-54693576D01*
%TO.N,/3D Pose/Env_{1}*%
X130470000Y-57720000D02*
X130470000Y-57900000D01*
X126347848Y-54725000D02*
X127277848Y-54725000D01*
X123638576Y-54858576D02*
X124038576Y-54458576D01*
X124038576Y-54458576D02*
X126081424Y-54458576D01*
X127661424Y-55751424D02*
X128500000Y-56590000D01*
X128500000Y-56590000D02*
X129340000Y-56590000D01*
X127277848Y-54725000D02*
X127661424Y-55108576D01*
X129340000Y-56590000D02*
X130470000Y-57720000D01*
X126081424Y-54458576D02*
X126347848Y-54725000D01*
X127661424Y-55108576D02*
X127661424Y-55751424D01*
D19*
%TO.N,Net-(C29-Pad2)*%
X119498346Y-64976297D02*
X119666822Y-64807821D01*
X118383703Y-64976297D02*
X119498346Y-64976297D01*
X122297821Y-64807821D02*
X122770000Y-65280000D01*
X117278199Y-66081801D02*
X118383703Y-64976297D01*
X117278199Y-66401179D02*
X117278199Y-66081801D01*
X119666822Y-64807821D02*
X122297821Y-64807821D01*
D14*
%TO.N,+7V*%
X118910000Y-65910000D02*
X118910000Y-66590000D01*
X122510000Y-70190000D02*
X122510000Y-71100498D01*
X118681493Y-65681493D02*
X118910000Y-65910000D01*
X118681493Y-65463690D02*
X118681493Y-65681493D01*
X118910000Y-66590000D02*
X122510000Y-70190000D01*
%TO.N,/FPGA/CRESET_{B}*%
X126731424Y-57208576D02*
X126980000Y-56960000D01*
X124488576Y-57208576D02*
X126731424Y-57208576D01*
%TO.N,/Ephys/StimEn*%
X122264357Y-72150000D02*
X122160493Y-72253864D01*
X119169923Y-61209923D02*
X123030000Y-65070000D01*
X123030000Y-65070000D02*
X123030000Y-72050000D01*
X121380000Y-57190000D02*
X120657152Y-57190000D01*
X120657152Y-57190000D02*
X119974056Y-57873096D01*
X119626904Y-57873096D02*
X119169923Y-58330077D01*
X119169923Y-58330077D02*
X119169923Y-61209923D01*
X123030000Y-72050000D02*
X122930000Y-72150000D01*
X119974056Y-57873096D02*
X119626904Y-57873096D01*
X122930000Y-72150000D02*
X122264357Y-72150000D01*
%TD*%
%TA.AperFunction,Conductor*%
%TO.N,GND*%
G36*
X143408577Y-30091423D02*
G01*
X143420000Y-30119000D01*
X143420000Y-80881000D01*
X143408577Y-80908577D01*
X143381000Y-80920000D01*
X103619000Y-80920000D01*
X103591423Y-80908577D01*
X103580000Y-80881000D01*
X103580000Y-62774061D01*
X111472947Y-62774061D01*
X111473151Y-62792858D01*
X111480258Y-63448189D01*
X111480313Y-63453287D01*
X111525982Y-64131016D01*
X111609808Y-64805089D01*
X111671547Y-65144059D01*
X111730974Y-65470334D01*
X111731525Y-65473361D01*
X111731650Y-65473879D01*
X111731652Y-65473889D01*
X111849495Y-65962627D01*
X111890744Y-66133703D01*
X111890903Y-66134230D01*
X112081154Y-66764772D01*
X112086959Y-66784012D01*
X112319545Y-67422217D01*
X112319754Y-67422703D01*
X112319761Y-67422721D01*
X112418922Y-67653443D01*
X112587761Y-68046287D01*
X112588003Y-68046773D01*
X112588006Y-68046779D01*
X112645734Y-68162608D01*
X112890753Y-68654232D01*
X112891012Y-68654686D01*
X112891017Y-68654695D01*
X113105017Y-69029500D01*
X113227556Y-69244119D01*
X113228157Y-69243753D01*
X113228961Y-69244444D01*
X113233891Y-69251732D01*
X113234087Y-69252260D01*
X113233623Y-69252628D01*
X113383789Y-69412428D01*
X113385090Y-69413414D01*
X113385091Y-69413415D01*
X113396567Y-69422113D01*
X113558549Y-69544885D01*
X113719761Y-69628949D01*
X113733651Y-69636192D01*
X113743196Y-69643196D01*
X116784233Y-72684233D01*
X116794103Y-72700914D01*
X116796789Y-72710146D01*
X116797497Y-72711610D01*
X116797500Y-72711617D01*
X116875433Y-72872694D01*
X116892940Y-72908879D01*
X117020876Y-73088802D01*
X117177016Y-73244879D01*
X117356926Y-73372697D01*
X117356803Y-73372905D01*
X117362066Y-73375827D01*
X117362067Y-73375828D01*
X117708317Y-73568055D01*
X117948869Y-73701602D01*
X117949338Y-73701829D01*
X117949342Y-73701831D01*
X118557980Y-73996304D01*
X118557988Y-73996307D01*
X118558458Y-73996535D01*
X118558945Y-73996738D01*
X118558959Y-73996744D01*
X119183124Y-74256554D01*
X119183133Y-74256557D01*
X119183646Y-74256771D01*
X119400335Y-74332997D01*
X119821946Y-74481310D01*
X119821962Y-74481315D01*
X119822462Y-74481491D01*
X120472888Y-74669985D01*
X121132872Y-74821658D01*
X121133403Y-74821749D01*
X121133408Y-74821750D01*
X121290118Y-74848603D01*
X121800332Y-74936031D01*
X121800852Y-74936090D01*
X121800864Y-74936092D01*
X122472607Y-75012681D01*
X122472613Y-75012681D01*
X122473161Y-75012744D01*
X122473714Y-75012776D01*
X122473717Y-75012776D01*
X123148705Y-75051524D01*
X123148722Y-75051524D01*
X123149236Y-75051554D01*
X123149755Y-75051555D01*
X123149769Y-75051555D01*
X123497851Y-75051958D01*
X123826424Y-75052339D01*
X123826963Y-75052309D01*
X123826975Y-75052309D01*
X124502047Y-75015127D01*
X124502056Y-75015126D01*
X124502587Y-75015097D01*
X124503116Y-75015038D01*
X124503127Y-75015037D01*
X125175039Y-74940007D01*
X125175048Y-74940006D01*
X125175592Y-74939945D01*
X125843316Y-74827121D01*
X125843851Y-74826999D01*
X125843868Y-74826996D01*
X126294458Y-74724544D01*
X126503650Y-74676979D01*
X126875925Y-74570029D01*
X127154004Y-74490140D01*
X127154015Y-74490136D01*
X127154511Y-74489994D01*
X127155005Y-74489821D01*
X127155016Y-74489818D01*
X127604139Y-74332997D01*
X127793846Y-74266757D01*
X128419636Y-74007971D01*
X129029908Y-73714453D01*
X129622735Y-73387130D01*
X129623178Y-73386852D01*
X129623193Y-73386843D01*
X130195767Y-73027335D01*
X130195773Y-73027331D01*
X130196246Y-73027034D01*
X130748631Y-72635302D01*
X130817031Y-72580774D01*
X131089196Y-72363803D01*
X131278148Y-72213170D01*
X131327993Y-72168634D01*
X131752582Y-71789261D01*
X131783126Y-71761970D01*
X132261970Y-71283126D01*
X132425627Y-71099963D01*
X132712804Y-70778558D01*
X132712810Y-70778551D01*
X132713170Y-70778148D01*
X132997123Y-70421961D01*
X133134946Y-70249078D01*
X133134952Y-70249070D01*
X133135302Y-70248631D01*
X133527034Y-69696246D01*
X133532950Y-69686824D01*
X133886843Y-69123193D01*
X133886852Y-69123178D01*
X133887130Y-69122735D01*
X134214453Y-68529908D01*
X134507971Y-67919636D01*
X134691950Y-67474742D01*
X134766550Y-67294347D01*
X134766552Y-67294342D01*
X134766757Y-67293846D01*
X134954186Y-66757064D01*
X134989818Y-66655016D01*
X134989821Y-66655005D01*
X134989994Y-66654511D01*
X134990414Y-66653051D01*
X135078316Y-66347077D01*
X135176979Y-66003650D01*
X135232378Y-65760000D01*
X135326996Y-65343868D01*
X135326999Y-65343851D01*
X135327121Y-65343316D01*
X135328035Y-65337910D01*
X135401215Y-64904807D01*
X135439945Y-64675592D01*
X135440606Y-64669673D01*
X135515037Y-64003127D01*
X135515038Y-64003116D01*
X135515097Y-64002587D01*
X135515733Y-63991037D01*
X135552309Y-63326975D01*
X135552309Y-63326963D01*
X135552339Y-63326424D01*
X135551857Y-62910672D01*
X135551555Y-62649769D01*
X135551555Y-62649755D01*
X135551554Y-62649236D01*
X135550938Y-62638493D01*
X135512776Y-61973717D01*
X135512776Y-61973714D01*
X135512744Y-61973161D01*
X135512681Y-61972607D01*
X135436092Y-61300864D01*
X135436090Y-61300852D01*
X135436031Y-61300332D01*
X135356721Y-60837493D01*
X135321750Y-60633408D01*
X135321749Y-60633403D01*
X135321658Y-60632872D01*
X135169985Y-59972888D01*
X134981491Y-59322462D01*
X134981315Y-59321962D01*
X134981310Y-59321946D01*
X134845484Y-58935831D01*
X134756771Y-58683646D01*
X134752934Y-58674428D01*
X134496744Y-58058959D01*
X134496738Y-58058945D01*
X134496535Y-58058458D01*
X134496004Y-58057359D01*
X134201831Y-57449342D01*
X134201829Y-57449338D01*
X134201602Y-57448869D01*
X133872905Y-56856803D01*
X133874404Y-56855971D01*
X133874168Y-56855571D01*
X133872592Y-56856646D01*
X133871679Y-56855308D01*
X133871708Y-56855290D01*
X133854161Y-56831723D01*
X133785250Y-56739174D01*
X133741832Y-56680862D01*
X133628934Y-56572312D01*
X133586230Y-56531253D01*
X133586228Y-56531251D01*
X133585069Y-56530137D01*
X133583737Y-56529224D01*
X133502538Y-56473582D01*
X133486246Y-56448571D01*
X133486867Y-56431486D01*
X133487097Y-56430614D01*
X133502690Y-56371359D01*
X133510979Y-56339861D01*
X133512953Y-56332359D01*
X133000402Y-55800825D01*
X132005474Y-54769047D01*
X131994554Y-54741267D01*
X132006477Y-54713902D01*
X132025939Y-54703725D01*
X132050595Y-54698821D01*
X132133456Y-54643456D01*
X132188821Y-54560595D01*
X132198967Y-54509588D01*
X132209641Y-54489619D01*
X132802889Y-53896370D01*
X132813584Y-53888790D01*
X132814065Y-53888559D01*
X132818024Y-53886658D01*
X132838329Y-53861268D01*
X132841209Y-53858050D01*
X132847757Y-53851502D01*
X132852520Y-53843924D01*
X132855081Y-53840321D01*
X132872412Y-53818649D01*
X132875156Y-53815218D01*
X132876328Y-53810122D01*
X132881318Y-53798104D01*
X132884098Y-53793682D01*
X132887709Y-53761747D01*
X132888451Y-53757405D01*
X132890500Y-53748491D01*
X132890500Y-53739250D01*
X132890747Y-53734869D01*
X132891977Y-53723988D01*
X132894374Y-53702787D01*
X132892681Y-53697939D01*
X132890500Y-53685081D01*
X132890500Y-42398348D01*
X132892703Y-42385427D01*
X132892879Y-42384926D01*
X132892879Y-42384924D01*
X132894334Y-42380781D01*
X132890739Y-42348475D01*
X132890500Y-42344163D01*
X132890500Y-42334897D01*
X132888508Y-42326164D01*
X132887771Y-42321809D01*
X132886829Y-42313337D01*
X132884217Y-42289867D01*
X132881442Y-42285434D01*
X132876476Y-42273418D01*
X132875312Y-42268315D01*
X132855285Y-42243183D01*
X132852737Y-42239586D01*
X132847884Y-42231834D01*
X132841352Y-42225302D01*
X132838429Y-42222030D01*
X132821508Y-42200796D01*
X132818305Y-42196776D01*
X132813673Y-42194542D01*
X132803044Y-42186994D01*
X129540045Y-38923995D01*
X129528622Y-38896418D01*
X129529031Y-38890788D01*
X129529878Y-38884979D01*
X129530500Y-38880718D01*
X129530500Y-37614282D01*
X129520358Y-37545388D01*
X129519023Y-37542668D01*
X129470354Y-37443540D01*
X129470352Y-37443537D01*
X129468932Y-37440645D01*
X129386350Y-37358207D01*
X129383456Y-37356792D01*
X129383454Y-37356791D01*
X129287432Y-37309855D01*
X129281518Y-37306964D01*
X129213218Y-37297000D01*
X127946782Y-37297000D01*
X127945371Y-37297208D01*
X127945367Y-37297208D01*
X127914929Y-37301689D01*
X127877888Y-37307142D01*
X127875170Y-37308476D01*
X127875168Y-37308477D01*
X127776040Y-37357146D01*
X127776037Y-37357148D01*
X127773145Y-37358568D01*
X127690707Y-37441150D01*
X127689292Y-37444044D01*
X127689291Y-37444046D01*
X127665288Y-37493151D01*
X127639464Y-37545982D01*
X127629500Y-37614282D01*
X127629500Y-38880718D01*
X127639642Y-38949612D01*
X127640976Y-38952330D01*
X127640977Y-38952332D01*
X127689646Y-39051460D01*
X127689648Y-39051463D01*
X127691068Y-39054355D01*
X127773650Y-39136793D01*
X127776544Y-39138208D01*
X127776546Y-39138209D01*
X127825651Y-39162212D01*
X127878482Y-39188036D01*
X127946782Y-39198000D01*
X129213218Y-39198000D01*
X129214626Y-39197793D01*
X129214636Y-39197792D01*
X129223228Y-39196527D01*
X129252175Y-39203812D01*
X129256484Y-39207534D01*
X132478077Y-42429127D01*
X132489500Y-42456704D01*
X132489500Y-53626506D01*
X132478077Y-53654083D01*
X131926091Y-54206069D01*
X131906122Y-54216743D01*
X131855115Y-54226889D01*
X131772254Y-54282254D01*
X131716889Y-54365115D01*
X131716141Y-54368878D01*
X131716140Y-54368879D01*
X131714182Y-54378724D01*
X131697598Y-54403542D01*
X131668322Y-54409366D01*
X131647858Y-54398187D01*
X130812953Y-53532359D01*
X130808086Y-53530927D01*
X130808085Y-53530927D01*
X130243771Y-53364952D01*
X130220538Y-53346212D01*
X130217329Y-53338432D01*
X130203653Y-53291426D01*
X130203652Y-53291424D01*
X130203196Y-53289856D01*
X130107049Y-53091124D01*
X129979117Y-52911201D01*
X129901000Y-52833113D01*
X129824135Y-52756276D01*
X129824131Y-52756273D01*
X129822981Y-52755123D01*
X129821657Y-52754182D01*
X129821653Y-52754179D01*
X129666056Y-52643631D01*
X129643069Y-52627299D01*
X129643232Y-52627024D01*
X129312964Y-52443757D01*
X129049764Y-52297706D01*
X129049752Y-52297700D01*
X129049282Y-52297439D01*
X128465809Y-52015473D01*
X128438178Y-52002120D01*
X128438170Y-52002116D01*
X128437687Y-52001883D01*
X127810393Y-51741297D01*
X127169399Y-51516512D01*
X127168898Y-51516367D01*
X127168884Y-51516363D01*
X126517287Y-51328397D01*
X126517285Y-51328396D01*
X126516746Y-51328241D01*
X126516202Y-51328117D01*
X126516191Y-51328114D01*
X125855037Y-51177207D01*
X125855035Y-51177207D01*
X125854511Y-51177087D01*
X125853985Y-51176998D01*
X125853981Y-51176997D01*
X125185362Y-51063622D01*
X125185347Y-51063620D01*
X125184805Y-51063528D01*
X125184254Y-51063466D01*
X125184252Y-51063466D01*
X124510295Y-50987989D01*
X124510294Y-50987989D01*
X124509759Y-50987929D01*
X124509221Y-50987899D01*
X124509217Y-50987899D01*
X123832069Y-50950558D01*
X123832065Y-50950558D01*
X123831523Y-50950528D01*
X123491890Y-50950987D01*
X123152807Y-50951444D01*
X123152798Y-50951444D01*
X123152258Y-50951445D01*
X122722705Y-50976297D01*
X122474675Y-50990646D01*
X122474667Y-50990647D01*
X122474126Y-50990678D01*
X122233409Y-51018295D01*
X121799841Y-51068036D01*
X121799826Y-51068038D01*
X121799287Y-51068100D01*
X121798735Y-51068195D01*
X121798729Y-51068196D01*
X121520229Y-51116194D01*
X121129889Y-51183467D01*
X121129362Y-51183589D01*
X121129351Y-51183591D01*
X120468602Y-51336286D01*
X120468598Y-51336287D01*
X120468066Y-51336410D01*
X119815923Y-51526442D01*
X119465733Y-51650311D01*
X119176060Y-51752773D01*
X119176049Y-51752777D01*
X119175538Y-51752958D01*
X118548951Y-52015237D01*
X118548479Y-52015467D01*
X118548465Y-52015473D01*
X118267375Y-52152249D01*
X117938156Y-52312444D01*
X117345099Y-52643631D01*
X117344657Y-52643912D01*
X117344643Y-52643920D01*
X116921622Y-52912528D01*
X116771668Y-53007745D01*
X116771242Y-53008051D01*
X116771225Y-53008062D01*
X116499589Y-53202881D01*
X116219689Y-53403626D01*
X116219256Y-53403975D01*
X116219247Y-53403982D01*
X115705013Y-53818649D01*
X115690920Y-53830013D01*
X115187046Y-54285549D01*
X114977185Y-54497985D01*
X114715071Y-54763315D01*
X114709670Y-54768782D01*
X114260313Y-55278175D01*
X114259972Y-55278609D01*
X114259965Y-55278617D01*
X113840757Y-55811655D01*
X113840405Y-55812103D01*
X113840092Y-55812551D01*
X113840083Y-55812563D01*
X113451592Y-56368429D01*
X113451584Y-56368441D01*
X113451285Y-56368869D01*
X113451011Y-56369312D01*
X113451004Y-56369323D01*
X113112393Y-56917243D01*
X113094191Y-56946697D01*
X113039949Y-57046673D01*
X112772227Y-57540124D01*
X112770260Y-57543749D01*
X112480524Y-58158123D01*
X112370133Y-58431149D01*
X112226105Y-58787366D01*
X112226099Y-58787383D01*
X112225905Y-58787862D01*
X112225741Y-58788344D01*
X112225737Y-58788355D01*
X112007712Y-59429500D01*
X112007215Y-59430962D01*
X111825150Y-60085373D01*
X111680289Y-60749013D01*
X111680200Y-60749569D01*
X111680199Y-60749575D01*
X111656560Y-60897493D01*
X111573094Y-61419767D01*
X111503907Y-62095501D01*
X111503882Y-62096043D01*
X111503881Y-62096060D01*
X111485040Y-62509006D01*
X111472947Y-62774061D01*
X103580000Y-62774061D01*
X103580000Y-39970424D01*
X116515626Y-39970424D01*
X116517073Y-39974567D01*
X116517320Y-39975274D01*
X116519500Y-39988132D01*
X116519500Y-42259152D01*
X116517297Y-42272073D01*
X116517121Y-42272574D01*
X116517121Y-42272576D01*
X116515666Y-42276719D01*
X116516715Y-42286145D01*
X116519261Y-42309024D01*
X116519500Y-42313337D01*
X116519500Y-42322603D01*
X116521491Y-42331328D01*
X116522228Y-42335687D01*
X116525783Y-42367633D01*
X116528558Y-42372066D01*
X116533524Y-42384082D01*
X116534688Y-42389185D01*
X116537426Y-42392621D01*
X116554712Y-42414313D01*
X116557263Y-42417914D01*
X116562116Y-42425666D01*
X116568648Y-42432198D01*
X116571571Y-42435470D01*
X116591695Y-42460724D01*
X116596327Y-42462958D01*
X116606956Y-42470506D01*
X121549341Y-47412891D01*
X121556921Y-47423587D01*
X121559052Y-47428024D01*
X121562482Y-47430767D01*
X121584436Y-47448324D01*
X121587655Y-47451205D01*
X121594208Y-47457758D01*
X121596063Y-47458924D01*
X121601789Y-47462523D01*
X121605393Y-47465084D01*
X121630492Y-47485156D01*
X121635472Y-47486301D01*
X121635588Y-47486328D01*
X121647600Y-47491316D01*
X121652028Y-47494099D01*
X121683971Y-47497710D01*
X121688309Y-47498452D01*
X121697219Y-47500500D01*
X121706457Y-47500500D01*
X121710838Y-47500747D01*
X121738560Y-47503881D01*
X121738561Y-47503881D01*
X121742924Y-47504374D01*
X121747776Y-47502680D01*
X121760632Y-47500500D01*
X130067349Y-47500500D01*
X130089016Y-47507072D01*
X130132260Y-47535966D01*
X130136023Y-47536714D01*
X130136024Y-47536715D01*
X130226235Y-47554659D01*
X130230000Y-47555408D01*
X130233765Y-47554659D01*
X130323976Y-47536715D01*
X130323977Y-47536714D01*
X130327740Y-47535966D01*
X130410601Y-47480601D01*
X130465966Y-47397740D01*
X130485408Y-47300000D01*
X130465966Y-47202260D01*
X130410601Y-47119399D01*
X130327740Y-47064034D01*
X130323977Y-47063286D01*
X130323976Y-47063285D01*
X130233765Y-47045341D01*
X130230000Y-47044592D01*
X130226235Y-47045341D01*
X130136024Y-47063285D01*
X130136023Y-47063286D01*
X130132260Y-47064034D01*
X130129069Y-47066166D01*
X130089016Y-47092928D01*
X130067349Y-47099500D01*
X121819204Y-47099500D01*
X121791627Y-47088077D01*
X116931923Y-42228373D01*
X116920500Y-42200796D01*
X116920500Y-41510218D01*
X117806561Y-41510218D01*
X117808311Y-41514442D01*
X117873748Y-41570132D01*
X117876862Y-41572296D01*
X118036161Y-41661326D01*
X118039643Y-41662847D01*
X118213197Y-41719238D01*
X118216908Y-41720054D01*
X118398122Y-41741663D01*
X118401904Y-41741742D01*
X118583863Y-41727741D01*
X118587602Y-41727082D01*
X118763368Y-41678007D01*
X118766907Y-41676635D01*
X118929798Y-41594352D01*
X118933001Y-41592319D01*
X119031168Y-41515623D01*
X119034091Y-41510456D01*
X119033017Y-41506583D01*
X118425485Y-40899051D01*
X118420000Y-40896779D01*
X118414515Y-40899051D01*
X117808833Y-41504733D01*
X117806561Y-41510218D01*
X116920500Y-41510218D01*
X116920500Y-40776072D01*
X117465656Y-40776072D01*
X117480926Y-40957922D01*
X117481612Y-40961657D01*
X117531912Y-41137078D01*
X117533310Y-41140607D01*
X117616724Y-41302912D01*
X117618785Y-41306111D01*
X117692022Y-41398513D01*
X117697210Y-41401401D01*
X117701158Y-41400276D01*
X118308449Y-40792985D01*
X118310721Y-40787500D01*
X118529279Y-40787500D01*
X118531551Y-40792985D01*
X119137243Y-41398677D01*
X119141948Y-41400626D01*
X119148284Y-41397725D01*
X119198795Y-41339208D01*
X119200988Y-41336098D01*
X119291123Y-41177433D01*
X119292672Y-41173954D01*
X119350272Y-41000801D01*
X119351114Y-40997095D01*
X119374087Y-40815245D01*
X119374240Y-40813056D01*
X119374582Y-40788593D01*
X119374491Y-40786416D01*
X119373290Y-40774165D01*
X120004994Y-40774165D01*
X120008260Y-40813056D01*
X120020425Y-40957922D01*
X120020592Y-40959914D01*
X120021116Y-40961743D01*
X120021117Y-40961746D01*
X120071393Y-41137078D01*
X120071971Y-41139095D01*
X120157176Y-41304885D01*
X120272959Y-41450968D01*
X120414912Y-41571779D01*
X120416579Y-41572710D01*
X120416578Y-41572710D01*
X120575960Y-41661786D01*
X120575965Y-41661788D01*
X120577627Y-41662717D01*
X120579440Y-41663306D01*
X120579442Y-41663307D01*
X120753090Y-41719729D01*
X120753094Y-41719730D01*
X120754907Y-41720319D01*
X120756799Y-41720545D01*
X120756801Y-41720545D01*
X120933901Y-41741663D01*
X120939998Y-41742390D01*
X121125851Y-41728089D01*
X121127687Y-41727576D01*
X121127689Y-41727576D01*
X121215619Y-41703025D01*
X121305387Y-41677962D01*
X121471768Y-41593917D01*
X121618655Y-41479156D01*
X121740454Y-41338050D01*
X121832526Y-41175974D01*
X121891364Y-40999101D01*
X121914727Y-40814168D01*
X121914930Y-40799588D01*
X121915084Y-40788593D01*
X121915084Y-40788589D01*
X121915099Y-40787500D01*
X121914561Y-40782015D01*
X121913791Y-40774165D01*
X122544994Y-40774165D01*
X122548260Y-40813056D01*
X122560425Y-40957922D01*
X122560592Y-40959914D01*
X122561116Y-40961743D01*
X122561117Y-40961746D01*
X122611393Y-41137078D01*
X122611971Y-41139095D01*
X122697176Y-41304885D01*
X122812959Y-41450968D01*
X122954912Y-41571779D01*
X122956579Y-41572710D01*
X122956578Y-41572710D01*
X123115960Y-41661786D01*
X123115965Y-41661788D01*
X123117627Y-41662717D01*
X123119440Y-41663306D01*
X123119442Y-41663307D01*
X123293090Y-41719729D01*
X123293094Y-41719730D01*
X123294907Y-41720319D01*
X123296799Y-41720545D01*
X123296801Y-41720545D01*
X123473901Y-41741663D01*
X123479998Y-41742390D01*
X123665851Y-41728089D01*
X123667687Y-41727576D01*
X123667689Y-41727576D01*
X123755619Y-41703025D01*
X123845387Y-41677962D01*
X124011768Y-41593917D01*
X124158655Y-41479156D01*
X124280454Y-41338050D01*
X124372526Y-41175974D01*
X124431364Y-40999101D01*
X124454727Y-40814168D01*
X124454930Y-40799588D01*
X124455084Y-40788593D01*
X124455084Y-40788589D01*
X124455099Y-40787500D01*
X124454561Y-40782015D01*
X124453791Y-40774165D01*
X125084994Y-40774165D01*
X125088260Y-40813056D01*
X125100425Y-40957922D01*
X125100592Y-40959914D01*
X125101116Y-40961743D01*
X125101117Y-40961746D01*
X125151393Y-41137078D01*
X125151971Y-41139095D01*
X125237176Y-41304885D01*
X125352959Y-41450968D01*
X125494912Y-41571779D01*
X125496579Y-41572710D01*
X125496578Y-41572710D01*
X125655960Y-41661786D01*
X125655965Y-41661788D01*
X125657627Y-41662717D01*
X125659440Y-41663306D01*
X125659442Y-41663307D01*
X125833090Y-41719729D01*
X125833094Y-41719730D01*
X125834907Y-41720319D01*
X125836799Y-41720545D01*
X125836801Y-41720545D01*
X126013901Y-41741663D01*
X126019998Y-41742390D01*
X126205851Y-41728089D01*
X126207687Y-41727576D01*
X126207689Y-41727576D01*
X126295619Y-41703025D01*
X126385387Y-41677962D01*
X126551768Y-41593917D01*
X126658898Y-41510218D01*
X127966561Y-41510218D01*
X127968311Y-41514442D01*
X128033748Y-41570132D01*
X128036862Y-41572296D01*
X128196161Y-41661326D01*
X128199643Y-41662847D01*
X128373197Y-41719238D01*
X128376908Y-41720054D01*
X128558122Y-41741663D01*
X128561904Y-41741742D01*
X128743863Y-41727741D01*
X128747602Y-41727082D01*
X128923368Y-41678007D01*
X128926907Y-41676635D01*
X129089798Y-41594352D01*
X129093001Y-41592319D01*
X129191168Y-41515623D01*
X129194091Y-41510456D01*
X129193017Y-41506583D01*
X128585485Y-40899051D01*
X128580000Y-40896779D01*
X128574515Y-40899051D01*
X127968833Y-41504733D01*
X127966561Y-41510218D01*
X126658898Y-41510218D01*
X126698655Y-41479156D01*
X126820454Y-41338050D01*
X126912526Y-41175974D01*
X126971364Y-40999101D01*
X126994727Y-40814168D01*
X126994930Y-40799588D01*
X126995084Y-40788593D01*
X126995084Y-40788589D01*
X126995099Y-40787500D01*
X126994561Y-40782015D01*
X126993978Y-40776072D01*
X127625656Y-40776072D01*
X127640926Y-40957922D01*
X127641612Y-40961657D01*
X127691912Y-41137078D01*
X127693310Y-41140607D01*
X127776724Y-41302912D01*
X127778785Y-41306111D01*
X127852022Y-41398513D01*
X127857210Y-41401401D01*
X127861158Y-41400276D01*
X128468449Y-40792985D01*
X128470721Y-40787500D01*
X128689279Y-40787500D01*
X128691551Y-40792985D01*
X129297243Y-41398677D01*
X129301948Y-41400626D01*
X129308284Y-41397725D01*
X129358795Y-41339208D01*
X129360988Y-41336098D01*
X129451123Y-41177433D01*
X129452672Y-41173954D01*
X129510272Y-41000801D01*
X129511114Y-40997095D01*
X129534087Y-40815245D01*
X129534240Y-40813056D01*
X129534582Y-40788593D01*
X129534491Y-40786416D01*
X129516604Y-40603987D01*
X129515863Y-40600250D01*
X129463121Y-40425561D01*
X129461673Y-40422045D01*
X129376001Y-40260921D01*
X129373897Y-40257754D01*
X129307787Y-40176695D01*
X129302558Y-40173880D01*
X129298455Y-40175111D01*
X128691551Y-40782015D01*
X128689279Y-40787500D01*
X128470721Y-40787500D01*
X128468449Y-40782015D01*
X127862745Y-40176311D01*
X127857260Y-40174039D01*
X127853127Y-40175751D01*
X127793572Y-40246727D01*
X127791431Y-40249854D01*
X127703516Y-40409771D01*
X127702018Y-40413266D01*
X127646840Y-40587208D01*
X127646050Y-40590923D01*
X127625708Y-40772278D01*
X127625656Y-40776072D01*
X126993978Y-40776072D01*
X126977096Y-40603890D01*
X126977095Y-40603886D01*
X126976909Y-40601987D01*
X126923033Y-40423540D01*
X126917571Y-40413266D01*
X126836419Y-40260643D01*
X126835522Y-40258956D01*
X126717710Y-40114505D01*
X126657678Y-40064842D01*
X127966255Y-40064842D01*
X127967432Y-40068866D01*
X128574515Y-40675949D01*
X128580000Y-40678221D01*
X128585485Y-40675949D01*
X129191244Y-40070190D01*
X129193516Y-40064705D01*
X129191841Y-40060661D01*
X129115272Y-39997317D01*
X129112125Y-39995195D01*
X128951597Y-39908398D01*
X128948104Y-39906930D01*
X128773771Y-39852964D01*
X128770048Y-39852200D01*
X128588564Y-39833126D01*
X128584760Y-39833099D01*
X128403026Y-39849639D01*
X128399296Y-39850350D01*
X128224240Y-39901872D01*
X128220705Y-39903300D01*
X128058990Y-39987842D01*
X128055809Y-39989924D01*
X127969107Y-40059634D01*
X127966255Y-40064842D01*
X126657678Y-40064842D01*
X126602419Y-40019127D01*
X126575553Y-39996901D01*
X126575550Y-39996899D01*
X126574085Y-39995687D01*
X126560436Y-39988307D01*
X126411798Y-39907938D01*
X126411794Y-39907936D01*
X126410116Y-39907029D01*
X126408291Y-39906464D01*
X126233875Y-39852474D01*
X126233873Y-39852474D01*
X126232049Y-39851909D01*
X126046668Y-39832424D01*
X126044767Y-39832597D01*
X126044764Y-39832597D01*
X125862929Y-39849145D01*
X125862925Y-39849146D01*
X125861032Y-39849318D01*
X125859210Y-39849854D01*
X125859206Y-39849855D01*
X125684044Y-39901409D01*
X125684040Y-39901410D01*
X125682214Y-39901948D01*
X125517023Y-39988307D01*
X125371752Y-40105108D01*
X125251935Y-40247901D01*
X125162135Y-40411246D01*
X125105772Y-40588924D01*
X125105560Y-40590815D01*
X125105559Y-40590819D01*
X125085206Y-40772272D01*
X125084994Y-40774165D01*
X124453791Y-40774165D01*
X124437096Y-40603890D01*
X124437095Y-40603886D01*
X124436909Y-40601987D01*
X124383033Y-40423540D01*
X124377571Y-40413266D01*
X124296419Y-40260643D01*
X124295522Y-40258956D01*
X124177710Y-40114505D01*
X124062419Y-40019127D01*
X124035553Y-39996901D01*
X124035550Y-39996899D01*
X124034085Y-39995687D01*
X124020436Y-39988307D01*
X123871798Y-39907938D01*
X123871794Y-39907936D01*
X123870116Y-39907029D01*
X123868291Y-39906464D01*
X123693875Y-39852474D01*
X123693873Y-39852474D01*
X123692049Y-39851909D01*
X123506668Y-39832424D01*
X123504767Y-39832597D01*
X123504764Y-39832597D01*
X123322929Y-39849145D01*
X123322925Y-39849146D01*
X123321032Y-39849318D01*
X123319210Y-39849854D01*
X123319206Y-39849855D01*
X123144044Y-39901409D01*
X123144040Y-39901410D01*
X123142214Y-39901948D01*
X122977023Y-39988307D01*
X122831752Y-40105108D01*
X122711935Y-40247901D01*
X122622135Y-40411246D01*
X122565772Y-40588924D01*
X122565560Y-40590815D01*
X122565559Y-40590819D01*
X122545206Y-40772272D01*
X122544994Y-40774165D01*
X121913791Y-40774165D01*
X121897096Y-40603890D01*
X121897095Y-40603886D01*
X121896909Y-40601987D01*
X121843033Y-40423540D01*
X121837571Y-40413266D01*
X121756419Y-40260643D01*
X121755522Y-40258956D01*
X121637710Y-40114505D01*
X121522419Y-40019127D01*
X121495553Y-39996901D01*
X121495550Y-39996899D01*
X121494085Y-39995687D01*
X121480436Y-39988307D01*
X121331798Y-39907938D01*
X121331794Y-39907936D01*
X121330116Y-39907029D01*
X121328291Y-39906464D01*
X121153875Y-39852474D01*
X121153873Y-39852474D01*
X121152049Y-39851909D01*
X120966668Y-39832424D01*
X120964767Y-39832597D01*
X120964764Y-39832597D01*
X120782929Y-39849145D01*
X120782925Y-39849146D01*
X120781032Y-39849318D01*
X120779210Y-39849854D01*
X120779206Y-39849855D01*
X120604044Y-39901409D01*
X120604040Y-39901410D01*
X120602214Y-39901948D01*
X120437023Y-39988307D01*
X120291752Y-40105108D01*
X120171935Y-40247901D01*
X120082135Y-40411246D01*
X120025772Y-40588924D01*
X120025560Y-40590815D01*
X120025559Y-40590819D01*
X120005206Y-40772272D01*
X120004994Y-40774165D01*
X119373290Y-40774165D01*
X119356604Y-40603987D01*
X119355863Y-40600250D01*
X119303121Y-40425561D01*
X119301673Y-40422045D01*
X119216001Y-40260921D01*
X119213897Y-40257754D01*
X119147787Y-40176695D01*
X119142558Y-40173880D01*
X119138455Y-40175111D01*
X118531551Y-40782015D01*
X118529279Y-40787500D01*
X118310721Y-40787500D01*
X118308449Y-40782015D01*
X117702745Y-40176311D01*
X117697260Y-40174039D01*
X117693127Y-40175751D01*
X117633572Y-40246727D01*
X117631431Y-40249854D01*
X117543516Y-40409771D01*
X117542018Y-40413266D01*
X117486840Y-40587208D01*
X117486050Y-40590923D01*
X117465708Y-40772278D01*
X117465656Y-40776072D01*
X116920500Y-40776072D01*
X116920500Y-40064842D01*
X117806255Y-40064842D01*
X117807432Y-40068866D01*
X118414515Y-40675949D01*
X118420000Y-40678221D01*
X118425485Y-40675949D01*
X119031244Y-40070190D01*
X119033516Y-40064705D01*
X119031841Y-40060661D01*
X118955272Y-39997317D01*
X118952125Y-39995195D01*
X118791597Y-39908398D01*
X118788104Y-39906930D01*
X118613771Y-39852964D01*
X118610048Y-39852200D01*
X118428564Y-39833126D01*
X118424760Y-39833099D01*
X118243026Y-39849639D01*
X118239296Y-39850350D01*
X118064240Y-39901872D01*
X118060705Y-39903300D01*
X117898990Y-39987842D01*
X117895809Y-39989924D01*
X117809107Y-40059634D01*
X117806255Y-40064842D01*
X116920500Y-40064842D01*
X116920500Y-40046704D01*
X116931923Y-40019127D01*
X117882511Y-39068539D01*
X117910088Y-39057116D01*
X117929114Y-39062072D01*
X118035958Y-39121785D01*
X118035964Y-39121788D01*
X118037627Y-39122717D01*
X118039440Y-39123306D01*
X118039442Y-39123307D01*
X118213090Y-39179729D01*
X118213094Y-39179730D01*
X118214907Y-39180319D01*
X118216799Y-39180545D01*
X118216801Y-39180545D01*
X118398111Y-39202165D01*
X118399998Y-39202390D01*
X118585851Y-39188089D01*
X118587687Y-39187576D01*
X118587689Y-39187576D01*
X118675619Y-39163025D01*
X118765387Y-39137962D01*
X118767702Y-39136793D01*
X118902821Y-39068539D01*
X118931768Y-39053917D01*
X119078655Y-38939156D01*
X119200454Y-38798050D01*
X119292526Y-38635974D01*
X119351364Y-38459101D01*
X119374727Y-38274168D01*
X119375099Y-38247500D01*
X119373978Y-38236065D01*
X119373792Y-38234165D01*
X120004994Y-38234165D01*
X120020592Y-38419914D01*
X120021116Y-38421743D01*
X120021117Y-38421746D01*
X120031829Y-38459101D01*
X120071971Y-38599095D01*
X120157176Y-38764885D01*
X120272959Y-38910968D01*
X120414912Y-39031779D01*
X120416579Y-39032710D01*
X120416578Y-39032710D01*
X120575960Y-39121786D01*
X120575965Y-39121788D01*
X120577627Y-39122717D01*
X120579440Y-39123306D01*
X120579442Y-39123307D01*
X120753090Y-39179729D01*
X120753094Y-39179730D01*
X120754907Y-39180319D01*
X120756799Y-39180545D01*
X120756801Y-39180545D01*
X120938111Y-39202165D01*
X120939998Y-39202390D01*
X121125851Y-39188089D01*
X121127687Y-39187576D01*
X121127689Y-39187576D01*
X121215619Y-39163025D01*
X121305387Y-39137962D01*
X121307702Y-39136793D01*
X121442821Y-39068539D01*
X121471768Y-39053917D01*
X121618655Y-38939156D01*
X121740454Y-38798050D01*
X121832526Y-38635974D01*
X121891364Y-38459101D01*
X121914727Y-38274168D01*
X121915099Y-38247500D01*
X121913978Y-38236065D01*
X121913792Y-38234165D01*
X122544994Y-38234165D01*
X122560592Y-38419914D01*
X122561116Y-38421743D01*
X122561117Y-38421746D01*
X122571829Y-38459101D01*
X122611971Y-38599095D01*
X122697176Y-38764885D01*
X122812959Y-38910968D01*
X122954912Y-39031779D01*
X122956579Y-39032710D01*
X122956578Y-39032710D01*
X123115960Y-39121786D01*
X123115965Y-39121788D01*
X123117627Y-39122717D01*
X123119440Y-39123306D01*
X123119442Y-39123307D01*
X123293090Y-39179729D01*
X123293094Y-39179730D01*
X123294907Y-39180319D01*
X123296799Y-39180545D01*
X123296801Y-39180545D01*
X123478111Y-39202165D01*
X123479998Y-39202390D01*
X123665851Y-39188089D01*
X123667687Y-39187576D01*
X123667689Y-39187576D01*
X123755619Y-39163025D01*
X123845387Y-39137962D01*
X123847702Y-39136793D01*
X123982821Y-39068539D01*
X124011768Y-39053917D01*
X124158655Y-38939156D01*
X124280454Y-38798050D01*
X124372526Y-38635974D01*
X124431364Y-38459101D01*
X124454727Y-38274168D01*
X124455099Y-38247500D01*
X124453978Y-38236065D01*
X124453792Y-38234165D01*
X125084994Y-38234165D01*
X125100592Y-38419914D01*
X125101116Y-38421743D01*
X125101117Y-38421746D01*
X125111829Y-38459101D01*
X125151971Y-38599095D01*
X125237176Y-38764885D01*
X125352959Y-38910968D01*
X125494912Y-39031779D01*
X125496579Y-39032710D01*
X125496578Y-39032710D01*
X125655960Y-39121786D01*
X125655965Y-39121788D01*
X125657627Y-39122717D01*
X125659440Y-39123306D01*
X125659442Y-39123307D01*
X125833090Y-39179729D01*
X125833094Y-39179730D01*
X125834907Y-39180319D01*
X125836799Y-39180545D01*
X125836801Y-39180545D01*
X126018111Y-39202165D01*
X126019998Y-39202390D01*
X126205851Y-39188089D01*
X126207687Y-39187576D01*
X126207689Y-39187576D01*
X126295619Y-39163025D01*
X126385387Y-39137962D01*
X126387702Y-39136793D01*
X126522821Y-39068539D01*
X126551768Y-39053917D01*
X126698655Y-38939156D01*
X126820454Y-38798050D01*
X126912526Y-38635974D01*
X126971364Y-38459101D01*
X126994727Y-38274168D01*
X126995099Y-38247500D01*
X126993978Y-38236065D01*
X126977096Y-38063890D01*
X126977095Y-38063886D01*
X126976909Y-38061987D01*
X126923033Y-37883540D01*
X126916497Y-37871246D01*
X126836419Y-37720643D01*
X126835522Y-37718956D01*
X126717710Y-37574505D01*
X126645898Y-37515096D01*
X126575553Y-37456901D01*
X126575550Y-37456899D01*
X126574085Y-37455687D01*
X126558801Y-37447423D01*
X126411798Y-37367938D01*
X126411794Y-37367936D01*
X126410116Y-37367029D01*
X126408291Y-37366464D01*
X126233875Y-37312474D01*
X126233873Y-37312474D01*
X126232049Y-37311909D01*
X126046668Y-37292424D01*
X126044767Y-37292597D01*
X126044764Y-37292597D01*
X125862929Y-37309145D01*
X125862925Y-37309146D01*
X125861032Y-37309318D01*
X125859210Y-37309854D01*
X125859206Y-37309855D01*
X125684044Y-37361409D01*
X125684040Y-37361410D01*
X125682214Y-37361948D01*
X125517023Y-37448307D01*
X125371752Y-37565108D01*
X125251935Y-37707901D01*
X125162135Y-37871246D01*
X125105772Y-38048924D01*
X125105560Y-38050815D01*
X125105559Y-38050819D01*
X125104093Y-38063890D01*
X125084994Y-38234165D01*
X124453792Y-38234165D01*
X124437096Y-38063890D01*
X124437095Y-38063886D01*
X124436909Y-38061987D01*
X124383033Y-37883540D01*
X124376497Y-37871246D01*
X124296419Y-37720643D01*
X124295522Y-37718956D01*
X124177710Y-37574505D01*
X124105898Y-37515096D01*
X124035553Y-37456901D01*
X124035550Y-37456899D01*
X124034085Y-37455687D01*
X124018801Y-37447423D01*
X123871798Y-37367938D01*
X123871794Y-37367936D01*
X123870116Y-37367029D01*
X123868291Y-37366464D01*
X123693875Y-37312474D01*
X123693873Y-37312474D01*
X123692049Y-37311909D01*
X123506668Y-37292424D01*
X123504767Y-37292597D01*
X123504764Y-37292597D01*
X123322929Y-37309145D01*
X123322925Y-37309146D01*
X123321032Y-37309318D01*
X123319210Y-37309854D01*
X123319206Y-37309855D01*
X123144044Y-37361409D01*
X123144040Y-37361410D01*
X123142214Y-37361948D01*
X122977023Y-37448307D01*
X122831752Y-37565108D01*
X122711935Y-37707901D01*
X122622135Y-37871246D01*
X122565772Y-38048924D01*
X122565560Y-38050815D01*
X122565559Y-38050819D01*
X122564093Y-38063890D01*
X122544994Y-38234165D01*
X121913792Y-38234165D01*
X121897096Y-38063890D01*
X121897095Y-38063886D01*
X121896909Y-38061987D01*
X121843033Y-37883540D01*
X121836497Y-37871246D01*
X121756419Y-37720643D01*
X121755522Y-37718956D01*
X121637710Y-37574505D01*
X121565898Y-37515096D01*
X121495553Y-37456901D01*
X121495550Y-37456899D01*
X121494085Y-37455687D01*
X121478801Y-37447423D01*
X121331798Y-37367938D01*
X121331794Y-37367936D01*
X121330116Y-37367029D01*
X121328291Y-37366464D01*
X121153875Y-37312474D01*
X121153873Y-37312474D01*
X121152049Y-37311909D01*
X120966668Y-37292424D01*
X120964767Y-37292597D01*
X120964764Y-37292597D01*
X120782929Y-37309145D01*
X120782925Y-37309146D01*
X120781032Y-37309318D01*
X120779210Y-37309854D01*
X120779206Y-37309855D01*
X120604044Y-37361409D01*
X120604040Y-37361410D01*
X120602214Y-37361948D01*
X120437023Y-37448307D01*
X120291752Y-37565108D01*
X120171935Y-37707901D01*
X120082135Y-37871246D01*
X120025772Y-38048924D01*
X120025560Y-38050815D01*
X120025559Y-38050819D01*
X120024093Y-38063890D01*
X120004994Y-38234165D01*
X119373792Y-38234165D01*
X119357096Y-38063890D01*
X119357095Y-38063886D01*
X119356909Y-38061987D01*
X119303033Y-37883540D01*
X119296497Y-37871246D01*
X119216419Y-37720643D01*
X119215522Y-37718956D01*
X119097710Y-37574505D01*
X119025898Y-37515096D01*
X118955553Y-37456901D01*
X118955550Y-37456899D01*
X118954085Y-37455687D01*
X118938801Y-37447423D01*
X118791798Y-37367938D01*
X118791794Y-37367936D01*
X118790116Y-37367029D01*
X118788291Y-37366464D01*
X118613875Y-37312474D01*
X118613873Y-37312474D01*
X118612049Y-37311909D01*
X118426668Y-37292424D01*
X118424767Y-37292597D01*
X118424764Y-37292597D01*
X118242929Y-37309145D01*
X118242925Y-37309146D01*
X118241032Y-37309318D01*
X118239210Y-37309854D01*
X118239206Y-37309855D01*
X118064044Y-37361409D01*
X118064040Y-37361410D01*
X118062214Y-37361948D01*
X117897023Y-37448307D01*
X117751752Y-37565108D01*
X117631935Y-37707901D01*
X117542135Y-37871246D01*
X117485772Y-38048924D01*
X117485560Y-38050815D01*
X117485559Y-38050819D01*
X117484093Y-38063890D01*
X117464994Y-38234165D01*
X117480592Y-38419914D01*
X117481116Y-38421743D01*
X117481117Y-38421746D01*
X117491829Y-38459101D01*
X117531971Y-38599095D01*
X117604818Y-38740839D01*
X117607264Y-38770587D01*
X117597708Y-38786242D01*
X116607109Y-39776841D01*
X116596413Y-39784421D01*
X116595936Y-39784650D01*
X116595935Y-39784651D01*
X116591976Y-39786552D01*
X116589233Y-39789982D01*
X116571676Y-39811936D01*
X116568795Y-39815155D01*
X116562242Y-39821708D01*
X116561076Y-39823563D01*
X116557477Y-39829289D01*
X116554916Y-39832893D01*
X116534844Y-39857992D01*
X116533860Y-39862272D01*
X116533672Y-39863088D01*
X116528684Y-39875100D01*
X116525901Y-39879528D01*
X116522291Y-39911464D01*
X116521548Y-39915809D01*
X116519500Y-39924719D01*
X116519500Y-39933957D01*
X116519253Y-39938338D01*
X116515626Y-39970424D01*
X103580000Y-39970424D01*
X103580000Y-30119000D01*
X103591423Y-30091423D01*
X103619000Y-30080000D01*
X143381000Y-30080000D01*
X143408577Y-30091423D01*
G37*
%TD.AperFunction*%
%TA.AperFunction,Conductor*%
G36*
X114200082Y-64488423D02*
G01*
X114177126Y-64359928D01*
X114176765Y-64357453D01*
X114142186Y-64051774D01*
X114109124Y-63759504D01*
X114108923Y-63757016D01*
X114108435Y-63746949D01*
X114087810Y-63321987D01*
X114079753Y-63155979D01*
X114079712Y-63153478D01*
X114086123Y-62743801D01*
X114089127Y-62551801D01*
X114089246Y-62549312D01*
X114090120Y-62538391D01*
X114137212Y-61949471D01*
X114137491Y-61946990D01*
X114143378Y-61906377D01*
X114200172Y-61514538D01*
X114200082Y-64488423D01*
G37*
%TD.AperFunction*%
%TA.AperFunction,Conductor*%
G36*
X128874563Y-55079194D02*
G01*
X128874569Y-55079194D01*
X128876182Y-55079448D01*
X128880517Y-55079398D01*
X129037096Y-55077586D01*
X129064803Y-55088689D01*
X129076544Y-55116132D01*
X129071322Y-55136082D01*
X129068776Y-55140492D01*
X129035886Y-55197461D01*
X129032828Y-55202757D01*
X129015681Y-55300000D01*
X129032828Y-55397243D01*
X129034535Y-55400199D01*
X129034535Y-55400200D01*
X129079693Y-55478416D01*
X129082199Y-55482757D01*
X129084808Y-55484946D01*
X129084810Y-55484948D01*
X129118374Y-55513111D01*
X129157840Y-55546227D01*
X129161042Y-55547393D01*
X129161043Y-55547393D01*
X129162472Y-55547913D01*
X129250629Y-55580000D01*
X129349371Y-55580000D01*
X129437528Y-55547913D01*
X129438957Y-55547393D01*
X129438958Y-55547393D01*
X129442160Y-55546227D01*
X129444769Y-55544038D01*
X129444774Y-55544035D01*
X129515194Y-55484946D01*
X129543661Y-55475970D01*
X129567839Y-55487245D01*
X130914982Y-56834388D01*
X130926405Y-56861965D01*
X130914982Y-56889542D01*
X130912479Y-56891835D01*
X130882199Y-56917243D01*
X130865458Y-56946239D01*
X130836685Y-56996077D01*
X130832828Y-57002757D01*
X130815681Y-57100000D01*
X130832828Y-57197243D01*
X130834535Y-57200199D01*
X130834535Y-57200200D01*
X130880494Y-57279804D01*
X130882199Y-57282757D01*
X130884808Y-57284946D01*
X130884810Y-57284948D01*
X130940768Y-57331902D01*
X130957840Y-57346227D01*
X130961042Y-57347393D01*
X130961043Y-57347393D01*
X130986089Y-57356509D01*
X131050629Y-57380000D01*
X131149371Y-57380000D01*
X131213911Y-57356509D01*
X131238957Y-57347393D01*
X131238958Y-57347393D01*
X131242160Y-57346227D01*
X131244769Y-57344038D01*
X131244774Y-57344035D01*
X131315194Y-57284946D01*
X131343661Y-57275970D01*
X131367839Y-57287245D01*
X131433957Y-57353363D01*
X131445380Y-57380940D01*
X131444668Y-57388355D01*
X131440488Y-57409919D01*
X131440445Y-57411533D01*
X131440445Y-57411536D01*
X131438640Y-57479815D01*
X131434739Y-57627312D01*
X131434962Y-57628911D01*
X131460987Y-57815512D01*
X131464778Y-57842697D01*
X131465259Y-57844231D01*
X131465259Y-57844233D01*
X131479525Y-57889772D01*
X131520468Y-58020468D01*
X128700000Y-55200000D01*
X128700000Y-55051754D01*
X128874563Y-55079194D01*
G37*
%TD.AperFunction*%
%TA.AperFunction,Conductor*%
G36*
X123655979Y-53579753D02*
G01*
X124096667Y-53601141D01*
X124257020Y-53608923D01*
X124259504Y-53609124D01*
X124413165Y-53626506D01*
X124857453Y-53676765D01*
X124859928Y-53677126D01*
X124987965Y-53700000D01*
X122015722Y-53700000D01*
X122446995Y-53637490D01*
X122449471Y-53637212D01*
X123049322Y-53589246D01*
X123051801Y-53589127D01*
X123320645Y-53584920D01*
X123653478Y-53579712D01*
X123655979Y-53579753D01*
G37*
%TD.AperFunction*%
%TD*%
%TA.AperFunction,Conductor*%
%TO.N,GND*%
G36*
X123709977Y-58261187D02*
G01*
X123721400Y-58288764D01*
X123721400Y-58868381D01*
X123716176Y-58887879D01*
X123713076Y-58893249D01*
X123713076Y-58973903D01*
X123715643Y-58978349D01*
X123741566Y-59023248D01*
X123743146Y-59025985D01*
X124112096Y-59394935D01*
X124117056Y-59396264D01*
X124126949Y-59398915D01*
X124136355Y-59402811D01*
X124139232Y-59404472D01*
X124149673Y-59410500D01*
X124504355Y-59410500D01*
X124531932Y-59421923D01*
X124778520Y-59668511D01*
X124783480Y-59669840D01*
X124793373Y-59672491D01*
X124802780Y-59676387D01*
X124816097Y-59684076D01*
X124896687Y-59684077D01*
X124896750Y-59684077D01*
X124896751Y-59684076D01*
X126395083Y-59684076D01*
X126422660Y-59695499D01*
X126615672Y-59888511D01*
X126620632Y-59889840D01*
X126630525Y-59892491D01*
X126639932Y-59896387D01*
X126653249Y-59904076D01*
X126733839Y-59904077D01*
X126733902Y-59904077D01*
X126733903Y-59904076D01*
X128255083Y-59904076D01*
X128282660Y-59915499D01*
X128571167Y-60204006D01*
X128574699Y-60206045D01*
X128585736Y-60215565D01*
X128621415Y-60260500D01*
X128625366Y-60262414D01*
X128625367Y-60262415D01*
X128649425Y-60274071D01*
X128703737Y-60300385D01*
X128708127Y-60300397D01*
X128708129Y-60300397D01*
X128749589Y-60300505D01*
X128795213Y-60300625D01*
X128877743Y-60261171D01*
X128880488Y-60257750D01*
X128880490Y-60257749D01*
X128932251Y-60193255D01*
X128934999Y-60189831D01*
X128948723Y-60130625D01*
X128955158Y-60102864D01*
X128955158Y-60102860D01*
X128955655Y-60100718D01*
X128955656Y-60100000D01*
X128935312Y-60010815D01*
X128878305Y-59939276D01*
X128795913Y-59899535D01*
X128791520Y-59899531D01*
X128791519Y-59899531D01*
X128708417Y-59899458D01*
X128680874Y-59888035D01*
X128443492Y-59650653D01*
X128432069Y-59623076D01*
X128443492Y-59595499D01*
X128471069Y-59584076D01*
X128897931Y-59584076D01*
X128925508Y-59595499D01*
X129366720Y-60036711D01*
X129371680Y-60038040D01*
X129381573Y-60040691D01*
X129390980Y-60044587D01*
X129404297Y-60052276D01*
X129484887Y-60052277D01*
X129484950Y-60052277D01*
X129484951Y-60052276D01*
X129762233Y-60052276D01*
X129789810Y-60063699D01*
X129792774Y-60067023D01*
X129811415Y-60090500D01*
X129815366Y-60092414D01*
X129815367Y-60092415D01*
X129832505Y-60100718D01*
X129893737Y-60130385D01*
X129898127Y-60130397D01*
X129898129Y-60130397D01*
X129939589Y-60130505D01*
X129985213Y-60130625D01*
X130067743Y-60091171D01*
X130070488Y-60087750D01*
X130070490Y-60087749D01*
X130097763Y-60053766D01*
X130122810Y-60022558D01*
X130148979Y-60008202D01*
X130177636Y-60016554D01*
X130180802Y-60019393D01*
X131068077Y-60906668D01*
X131079500Y-60934245D01*
X131079500Y-64270327D01*
X131082067Y-64274773D01*
X131087189Y-64283645D01*
X131091085Y-64293051D01*
X131095065Y-64307904D01*
X131152095Y-64364935D01*
X131152096Y-64364935D01*
X131238077Y-64450916D01*
X131249500Y-64478493D01*
X131249500Y-67221507D01*
X131238077Y-67249084D01*
X131095065Y-67392096D01*
X131093736Y-67397056D01*
X131091085Y-67406949D01*
X131087189Y-67416355D01*
X131079500Y-67429673D01*
X131079499Y-67473827D01*
X131079499Y-67510322D01*
X131079500Y-67510330D01*
X131079500Y-67662251D01*
X131072872Y-67684001D01*
X131023783Y-67757063D01*
X130685347Y-68260782D01*
X130680552Y-68266609D01*
X129929084Y-69018077D01*
X129901507Y-69029500D01*
X129257995Y-69029500D01*
X129230418Y-69018077D01*
X125511480Y-65299139D01*
X125501034Y-65280236D01*
X125497010Y-65262596D01*
X125485312Y-65211313D01*
X125481926Y-65207063D01*
X125459170Y-65178507D01*
X125428305Y-65139774D01*
X125345913Y-65100033D01*
X125341520Y-65100029D01*
X125341519Y-65100029D01*
X125300403Y-65099993D01*
X125254437Y-65099953D01*
X125171976Y-65139550D01*
X125169233Y-65142980D01*
X125117985Y-65207063D01*
X125114844Y-65210990D01*
X125113860Y-65215269D01*
X125095398Y-65295557D01*
X125094344Y-65300139D01*
X125105451Y-65349224D01*
X125112751Y-65381482D01*
X125114533Y-65389359D01*
X125117265Y-65392799D01*
X125117265Y-65392800D01*
X125129253Y-65407898D01*
X125171415Y-65460998D01*
X125175366Y-65462912D01*
X125175367Y-65462913D01*
X125211429Y-65480385D01*
X125253737Y-65500883D01*
X125258128Y-65500895D01*
X125258130Y-65500895D01*
X125271542Y-65500930D01*
X125299016Y-65512353D01*
X129031986Y-69245323D01*
X129043409Y-69272900D01*
X129031986Y-69300477D01*
X129004409Y-69311900D01*
X127731643Y-69311900D01*
X127708408Y-69303764D01*
X127706744Y-69301676D01*
X127624352Y-69261935D01*
X127619959Y-69261931D01*
X127619958Y-69261931D01*
X127578842Y-69261895D01*
X127532876Y-69261855D01*
X127450415Y-69301452D01*
X127447672Y-69304882D01*
X127410459Y-69351415D01*
X127393283Y-69372892D01*
X127392299Y-69377171D01*
X127381965Y-69422113D01*
X127372783Y-69462041D01*
X127392972Y-69551261D01*
X127395704Y-69554701D01*
X127395704Y-69554702D01*
X127407704Y-69569815D01*
X127449854Y-69622900D01*
X127453805Y-69624814D01*
X127453806Y-69624815D01*
X127478137Y-69636603D01*
X127532176Y-69662785D01*
X127536566Y-69662797D01*
X127536568Y-69662797D01*
X127578028Y-69662905D01*
X127623652Y-69663025D01*
X127706182Y-69623571D01*
X127708188Y-69621072D01*
X127731654Y-69612900D01*
X129804481Y-69612900D01*
X129805763Y-69612921D01*
X129819896Y-69613386D01*
X129819897Y-69613386D01*
X129822455Y-69613470D01*
X129824858Y-69612910D01*
X129824944Y-69612900D01*
X129827414Y-69612900D01*
X129829880Y-69612239D01*
X129829882Y-69612239D01*
X129843533Y-69608581D01*
X129844777Y-69608269D01*
X129916141Y-69591641D01*
X130186677Y-69528606D01*
X130216126Y-69533473D01*
X130233509Y-69557739D01*
X130228642Y-69587189D01*
X130223103Y-69594166D01*
X129945888Y-69871381D01*
X129944064Y-69873092D01*
X129492160Y-70270445D01*
X129490229Y-70272036D01*
X129289863Y-70426615D01*
X129032282Y-70625334D01*
X129013786Y-70639603D01*
X129011762Y-70641063D01*
X128887103Y-70725065D01*
X128512742Y-70977329D01*
X128510624Y-70978660D01*
X128253221Y-71129067D01*
X128024161Y-71262913D01*
X127991066Y-71282251D01*
X127988869Y-71283442D01*
X127450903Y-71553113D01*
X127448654Y-71554151D01*
X126894520Y-71788777D01*
X126892211Y-71789668D01*
X126604398Y-71890307D01*
X126324176Y-71988291D01*
X126321789Y-71989041D01*
X126084729Y-72055220D01*
X125742193Y-72150844D01*
X125739777Y-72151436D01*
X125150987Y-72275753D01*
X125148550Y-72276187D01*
X124553006Y-72362508D01*
X124550530Y-72362786D01*
X123950679Y-72410752D01*
X123948200Y-72410871D01*
X123679352Y-72415078D01*
X123346522Y-72420286D01*
X123344021Y-72420245D01*
X122903333Y-72398857D01*
X122742980Y-72391075D01*
X122740496Y-72390874D01*
X122628920Y-72378253D01*
X122602802Y-72363803D01*
X122594551Y-72335116D01*
X122609001Y-72308998D01*
X122633304Y-72300500D01*
X122970327Y-72300500D01*
X122983644Y-72292811D01*
X122993051Y-72288915D01*
X123002944Y-72286264D01*
X123007904Y-72284935D01*
X123064935Y-72227905D01*
X123064935Y-72227904D01*
X123164935Y-72127904D01*
X123168915Y-72113051D01*
X123172811Y-72103645D01*
X123177933Y-72094773D01*
X123180500Y-72090327D01*
X123180500Y-71689695D01*
X123675115Y-71689695D01*
X123692283Y-71765565D01*
X123695015Y-71769006D01*
X123711425Y-71789673D01*
X123740654Y-71826486D01*
X123744605Y-71828400D01*
X123744606Y-71828401D01*
X123756322Y-71834077D01*
X123810659Y-71860403D01*
X123849456Y-71860504D01*
X123884055Y-71860595D01*
X123884057Y-71860595D01*
X123888448Y-71860606D01*
X123958629Y-71827056D01*
X124007319Y-71766390D01*
X124024884Y-71690610D01*
X124024885Y-71690000D01*
X124007585Y-71614160D01*
X123959107Y-71553324D01*
X123916579Y-71532811D01*
X123893001Y-71521438D01*
X123889043Y-71519529D01*
X123884650Y-71519525D01*
X123884649Y-71519525D01*
X123850336Y-71519495D01*
X123811254Y-71519461D01*
X123741132Y-71553134D01*
X123692548Y-71613885D01*
X123691564Y-71618164D01*
X123679058Y-71672550D01*
X123675115Y-71689695D01*
X123180500Y-71689695D01*
X123180500Y-71119695D01*
X123545115Y-71119695D01*
X123562283Y-71195565D01*
X123610654Y-71256486D01*
X123614605Y-71258400D01*
X123614606Y-71258401D01*
X123643513Y-71272406D01*
X123680659Y-71290403D01*
X123719456Y-71290504D01*
X123754055Y-71290595D01*
X123754057Y-71290595D01*
X123758448Y-71290606D01*
X123828629Y-71257056D01*
X123877319Y-71196390D01*
X123889135Y-71145414D01*
X123894386Y-71122760D01*
X123894386Y-71122757D01*
X123894884Y-71120610D01*
X123894885Y-71120000D01*
X123877585Y-71044160D01*
X123829107Y-70983324D01*
X123769500Y-70954573D01*
X123763001Y-70951438D01*
X123759043Y-70949529D01*
X123754650Y-70949525D01*
X123754649Y-70949525D01*
X123720336Y-70949495D01*
X123681254Y-70949461D01*
X123611132Y-70983134D01*
X123562548Y-71043885D01*
X123561564Y-71048164D01*
X123547567Y-71109033D01*
X123545115Y-71119695D01*
X123180500Y-71119695D01*
X123180500Y-65459469D01*
X123191923Y-65431892D01*
X123219500Y-65420469D01*
X123243883Y-65430569D01*
X123244497Y-65429803D01*
X123247922Y-65432548D01*
X123250654Y-65435988D01*
X123254605Y-65437902D01*
X123254606Y-65437903D01*
X123263919Y-65442415D01*
X123320659Y-65469905D01*
X123359456Y-65470006D01*
X123394055Y-65470097D01*
X123394057Y-65470097D01*
X123398448Y-65470108D01*
X123468629Y-65436558D01*
X123517319Y-65375892D01*
X123526846Y-65334791D01*
X123534386Y-65302262D01*
X123534386Y-65302259D01*
X123534884Y-65300112D01*
X123534885Y-65299502D01*
X123517585Y-65223662D01*
X123514410Y-65219677D01*
X123508220Y-65211910D01*
X123469107Y-65162826D01*
X123434075Y-65145929D01*
X123403001Y-65130940D01*
X123399043Y-65129031D01*
X123394650Y-65129027D01*
X123394649Y-65129027D01*
X123360336Y-65128997D01*
X123321254Y-65128963D01*
X123251132Y-65162636D01*
X123248389Y-65166066D01*
X123244952Y-65168800D01*
X123243880Y-65167452D01*
X123223813Y-65178507D01*
X123195142Y-65170204D01*
X123180739Y-65144059D01*
X123180500Y-65139746D01*
X123180500Y-65029673D01*
X123172811Y-65016355D01*
X123168915Y-65006949D01*
X123166264Y-64997056D01*
X123164935Y-64992096D01*
X123107905Y-64935065D01*
X123107904Y-64935065D01*
X122993700Y-64820861D01*
X122982277Y-64793284D01*
X122993700Y-64765707D01*
X123012702Y-64755238D01*
X123016657Y-64754347D01*
X123021050Y-64754358D01*
X123091231Y-64720808D01*
X123139921Y-64660142D01*
X123157486Y-64584362D01*
X123157487Y-64583752D01*
X123155506Y-64575067D01*
X123148156Y-64542845D01*
X123153159Y-64513419D01*
X123177506Y-64496149D01*
X123206932Y-64501152D01*
X123213756Y-64506595D01*
X123698077Y-64990916D01*
X123709500Y-65018493D01*
X123709500Y-69969139D01*
X123712067Y-69973585D01*
X123717189Y-69982457D01*
X123721085Y-69991863D01*
X123725065Y-70006716D01*
X123782095Y-70063747D01*
X123782096Y-70063747D01*
X124583725Y-70865376D01*
X124595148Y-70892953D01*
X124583725Y-70920530D01*
X124573030Y-70928110D01*
X124551408Y-70938493D01*
X124539609Y-70944159D01*
X124536866Y-70947589D01*
X124485905Y-71011313D01*
X124482477Y-71015599D01*
X124481493Y-71019878D01*
X124463037Y-71100139D01*
X124461977Y-71104748D01*
X124482166Y-71193968D01*
X124484898Y-71197409D01*
X124508676Y-71227356D01*
X124517133Y-71251607D01*
X124517133Y-71267960D01*
X124520113Y-71273122D01*
X124524822Y-71281278D01*
X124528718Y-71290684D01*
X124532698Y-71305537D01*
X124589728Y-71362568D01*
X124589729Y-71362568D01*
X124752096Y-71524935D01*
X124757056Y-71526264D01*
X124766949Y-71528915D01*
X124776356Y-71532811D01*
X124789673Y-71540500D01*
X124870264Y-71540501D01*
X124870327Y-71540501D01*
X124870328Y-71540500D01*
X125260327Y-71540500D01*
X125273644Y-71532811D01*
X125283051Y-71528915D01*
X125292944Y-71526264D01*
X125297904Y-71524935D01*
X125354935Y-71467905D01*
X125354935Y-71467904D01*
X125544935Y-71277904D01*
X125548915Y-71263051D01*
X125552811Y-71253645D01*
X125557933Y-71244773D01*
X125560500Y-71240327D01*
X125560501Y-71159673D01*
X125560500Y-71159671D01*
X125560500Y-70819673D01*
X125552811Y-70806355D01*
X125548915Y-70796949D01*
X125546264Y-70787056D01*
X125544935Y-70782096D01*
X125487905Y-70725065D01*
X125487904Y-70725065D01*
X124471923Y-69709084D01*
X124460500Y-69681507D01*
X124460500Y-64769673D01*
X124452811Y-64756355D01*
X124448915Y-64746949D01*
X124446264Y-64737056D01*
X124444935Y-64732096D01*
X124387905Y-64675065D01*
X124387904Y-64675065D01*
X122116923Y-62404084D01*
X122105500Y-62376507D01*
X122105500Y-62052493D01*
X122116923Y-62024916D01*
X122144500Y-62013493D01*
X122172077Y-62024916D01*
X122193077Y-62045916D01*
X122204500Y-62073493D01*
X122204500Y-62305327D01*
X122207067Y-62309773D01*
X122212189Y-62318645D01*
X122216085Y-62328051D01*
X122220065Y-62342904D01*
X122277095Y-62399935D01*
X122277096Y-62399935D01*
X124638077Y-64760916D01*
X124649500Y-64788493D01*
X124649500Y-65153480D01*
X124640958Y-65177838D01*
X124634153Y-65186348D01*
X124614844Y-65210492D01*
X124613860Y-65214771D01*
X124596106Y-65291980D01*
X124594344Y-65299641D01*
X124605506Y-65348969D01*
X124613419Y-65383936D01*
X124614533Y-65388861D01*
X124617265Y-65392301D01*
X124617265Y-65392302D01*
X124630181Y-65408569D01*
X124671415Y-65460500D01*
X124675366Y-65462414D01*
X124675367Y-65462415D01*
X124691712Y-65470334D01*
X124753737Y-65500385D01*
X124758127Y-65500397D01*
X124758129Y-65500397D01*
X124799589Y-65500505D01*
X124845213Y-65500625D01*
X124927743Y-65461171D01*
X124930488Y-65457750D01*
X124930490Y-65457749D01*
X124982251Y-65393255D01*
X124984999Y-65389831D01*
X124996525Y-65340106D01*
X125005158Y-65302864D01*
X125005158Y-65302860D01*
X125005655Y-65300718D01*
X125005656Y-65300000D01*
X124992471Y-65242199D01*
X124986289Y-65215097D01*
X124986289Y-65215096D01*
X124985312Y-65210815D01*
X124959000Y-65177796D01*
X124950500Y-65153491D01*
X124950500Y-64669673D01*
X124942811Y-64656355D01*
X124938915Y-64646949D01*
X124936264Y-64637056D01*
X124934935Y-64632096D01*
X124877905Y-64575065D01*
X124877904Y-64575065D01*
X122516923Y-62214084D01*
X122505500Y-62186507D01*
X122505500Y-61954673D01*
X122497811Y-61941355D01*
X122493915Y-61931949D01*
X122491264Y-61922056D01*
X122489935Y-61917096D01*
X122432905Y-61860065D01*
X122432904Y-61860065D01*
X121201923Y-60629084D01*
X121190500Y-60601507D01*
X121190500Y-59115644D01*
X121201923Y-59088067D01*
X121263600Y-59026390D01*
X121291177Y-59014967D01*
X121318754Y-59026390D01*
X121329215Y-59045359D01*
X121334533Y-59068861D01*
X121337265Y-59072301D01*
X121337265Y-59072302D01*
X121360851Y-59102007D01*
X121391415Y-59140500D01*
X121395366Y-59142414D01*
X121395367Y-59142415D01*
X121420874Y-59154773D01*
X121453073Y-59170374D01*
X121472910Y-59192677D01*
X121475068Y-59205471D01*
X121475068Y-60475769D01*
X121475729Y-60478236D01*
X121477496Y-60484830D01*
X121478825Y-60494924D01*
X121478825Y-60502792D01*
X121481392Y-60507238D01*
X121482759Y-60509606D01*
X121486655Y-60519012D01*
X121490388Y-60532944D01*
X121500587Y-60543143D01*
X121506786Y-60551222D01*
X121507144Y-60551843D01*
X121507146Y-60551846D01*
X121508421Y-60554054D01*
X121510227Y-60555860D01*
X121694763Y-60740395D01*
X121700960Y-60748471D01*
X121708488Y-60761509D01*
X121717184Y-60766530D01*
X121721995Y-60769811D01*
X121756918Y-60797661D01*
X121801265Y-60833027D01*
X121803235Y-60833976D01*
X121803237Y-60833977D01*
X121860306Y-60861460D01*
X121906596Y-60883752D01*
X121908728Y-60884239D01*
X121908729Y-60884239D01*
X122018434Y-60909279D01*
X122018438Y-60909279D01*
X122020574Y-60909767D01*
X122137484Y-60909767D01*
X122139620Y-60909279D01*
X122139624Y-60909279D01*
X122187139Y-60898434D01*
X122216567Y-60903434D01*
X122233839Y-60927778D01*
X122233839Y-60945134D01*
X122222506Y-60994789D01*
X122222506Y-61111699D01*
X122222994Y-61113835D01*
X122222994Y-61113839D01*
X122245851Y-61213980D01*
X122248520Y-61225676D01*
X122249470Y-61227648D01*
X122249470Y-61227649D01*
X122296287Y-61324865D01*
X122299245Y-61331008D01*
X122344577Y-61387853D01*
X122362465Y-61410284D01*
X122365749Y-61415102D01*
X122370762Y-61423785D01*
X122378845Y-61428452D01*
X122388515Y-61436343D01*
X122394705Y-61443324D01*
X122399574Y-61444947D01*
X122402893Y-61447139D01*
X122405713Y-61449188D01*
X122463540Y-61495303D01*
X122465510Y-61496252D01*
X122465512Y-61496253D01*
X122509107Y-61517247D01*
X122568871Y-61546028D01*
X122571003Y-61546515D01*
X122571004Y-61546515D01*
X122680709Y-61571555D01*
X122680713Y-61571555D01*
X122682849Y-61572043D01*
X122799759Y-61572043D01*
X122801895Y-61571555D01*
X122801899Y-61571555D01*
X122849414Y-61560710D01*
X122878842Y-61565710D01*
X122896114Y-61590054D01*
X122896114Y-61607410D01*
X122885328Y-61654670D01*
X122884781Y-61657065D01*
X122884781Y-61773975D01*
X122885269Y-61776111D01*
X122885269Y-61776115D01*
X122906626Y-61869684D01*
X122910795Y-61887952D01*
X122911745Y-61889924D01*
X122911745Y-61889925D01*
X122955856Y-61981522D01*
X122961520Y-61993284D01*
X123019278Y-62065711D01*
X123024740Y-62072560D01*
X123028024Y-62077378D01*
X123033037Y-62086061D01*
X123037483Y-62088628D01*
X123046074Y-62093588D01*
X123054151Y-62099786D01*
X123469446Y-62515078D01*
X123469447Y-62515080D01*
X125805754Y-64851387D01*
X125811952Y-64859464D01*
X125819479Y-64872501D01*
X125830105Y-64878636D01*
X125832894Y-64880246D01*
X125838131Y-64883871D01*
X125889877Y-64926338D01*
X125906204Y-64935065D01*
X125952190Y-64959645D01*
X125967727Y-64967950D01*
X125969554Y-64968504D01*
X125969556Y-64968505D01*
X126050303Y-64992999D01*
X126052199Y-64993574D01*
X126054102Y-64993761D01*
X126054105Y-64993762D01*
X126118820Y-65000136D01*
X126125085Y-65001275D01*
X126140047Y-65005284D01*
X126154587Y-65001388D01*
X126164681Y-65000059D01*
X127281480Y-65000059D01*
X127291574Y-65001388D01*
X127301154Y-65003955D01*
X127306114Y-65005284D01*
X127311073Y-65003955D01*
X127311464Y-65003955D01*
X127339041Y-65015378D01*
X127350464Y-65042952D01*
X127350464Y-65043348D01*
X127349136Y-65048306D01*
X127352905Y-65062373D01*
X127353896Y-65067354D01*
X127363228Y-65138238D01*
X127397940Y-65222041D01*
X127453160Y-65294004D01*
X127525123Y-65349224D01*
X127608926Y-65383936D01*
X127611459Y-65384270D01*
X127611461Y-65384270D01*
X127633620Y-65387187D01*
X127679810Y-65393268D01*
X127684791Y-65394259D01*
X127698858Y-65398028D01*
X127702486Y-65397056D01*
X127706114Y-65398028D01*
X127720181Y-65394259D01*
X127725162Y-65393268D01*
X127771352Y-65387187D01*
X127793511Y-65384270D01*
X127793513Y-65384270D01*
X127796046Y-65383936D01*
X127879849Y-65349224D01*
X127951812Y-65294004D01*
X128007032Y-65222041D01*
X128041744Y-65138238D01*
X128051076Y-65067354D01*
X128052067Y-65062373D01*
X128055836Y-65048306D01*
X128054508Y-65043348D01*
X128054508Y-65042953D01*
X128065933Y-65015377D01*
X128093505Y-65003956D01*
X128093901Y-65003956D01*
X128098858Y-65005284D01*
X128113398Y-65001388D01*
X128123492Y-65000059D01*
X129258272Y-65000059D01*
X129285849Y-65011482D01*
X129757785Y-65483418D01*
X129769208Y-65510995D01*
X129769208Y-66207023D01*
X129771775Y-66211469D01*
X129776736Y-66220062D01*
X129780632Y-66229468D01*
X129784528Y-66244008D01*
X129798803Y-66258283D01*
X129798804Y-66258285D01*
X129887596Y-66347077D01*
X129898056Y-66366046D01*
X129914533Y-66438861D01*
X129971415Y-66510500D01*
X129975366Y-66512414D01*
X129975367Y-66512415D01*
X129988457Y-66518757D01*
X130053737Y-66550385D01*
X130058127Y-66550397D01*
X130058129Y-66550397D01*
X130095974Y-66550496D01*
X130123522Y-66561991D01*
X130134872Y-66589598D01*
X130123449Y-66617073D01*
X130102471Y-66638051D01*
X130074860Y-66649474D01*
X130054439Y-66649456D01*
X129971978Y-66689053D01*
X129914846Y-66760493D01*
X129913862Y-66764772D01*
X129898762Y-66830440D01*
X129894346Y-66849642D01*
X129914535Y-66938862D01*
X129971417Y-67010501D01*
X129975368Y-67012415D01*
X129975369Y-67012416D01*
X129976709Y-67013065D01*
X130053739Y-67050386D01*
X130058129Y-67050398D01*
X130058131Y-67050398D01*
X130099591Y-67050506D01*
X130145215Y-67050626D01*
X130227745Y-67011172D01*
X130230490Y-67007751D01*
X130230492Y-67007750D01*
X130282253Y-66943256D01*
X130285001Y-66939832D01*
X130286220Y-66934576D01*
X130302198Y-66865640D01*
X130312614Y-66846869D01*
X130468773Y-66690710D01*
X130496350Y-66679287D01*
X130523927Y-66690710D01*
X130535350Y-66718287D01*
X130535350Y-66802863D01*
X130523927Y-66830440D01*
X130205241Y-67149126D01*
X130177664Y-67160549D01*
X130160722Y-67156677D01*
X130145915Y-67149535D01*
X130141522Y-67149531D01*
X130141521Y-67149531D01*
X130100405Y-67149495D01*
X130054439Y-67149455D01*
X129971978Y-67189052D01*
X129969235Y-67192482D01*
X129946948Y-67220351D01*
X129914846Y-67260492D01*
X129913862Y-67264771D01*
X129896805Y-67338949D01*
X129894346Y-67349641D01*
X129899044Y-67370403D01*
X129911787Y-67426715D01*
X129914535Y-67438861D01*
X129917267Y-67442301D01*
X129917267Y-67442302D01*
X129942298Y-67473827D01*
X129971417Y-67510500D01*
X129975368Y-67512414D01*
X129975369Y-67512415D01*
X130012578Y-67530443D01*
X130053739Y-67550385D01*
X130058129Y-67550397D01*
X130058131Y-67550397D01*
X130095972Y-67550496D01*
X130123519Y-67561991D01*
X130134869Y-67589599D01*
X130123446Y-67617073D01*
X130102469Y-67638050D01*
X130074858Y-67649473D01*
X130054437Y-67649455D01*
X129971976Y-67689052D01*
X129969233Y-67692482D01*
X129918471Y-67755957D01*
X129914844Y-67760492D01*
X129913860Y-67764771D01*
X129895631Y-67844045D01*
X129894344Y-67849641D01*
X129914533Y-67938861D01*
X129971415Y-68010500D01*
X129975366Y-68012414D01*
X129975367Y-68012415D01*
X129976707Y-68013064D01*
X130053737Y-68050385D01*
X130058127Y-68050397D01*
X130058129Y-68050397D01*
X130099589Y-68050505D01*
X130145213Y-68050625D01*
X130227743Y-68011171D01*
X130230488Y-68007750D01*
X130230490Y-68007749D01*
X130282251Y-67943255D01*
X130284999Y-67939831D01*
X130286218Y-67934575D01*
X130302196Y-67865640D01*
X130312612Y-67846869D01*
X131075054Y-67084427D01*
X131075055Y-67084425D01*
X131089330Y-67070150D01*
X131093226Y-67055610D01*
X131097122Y-67046204D01*
X131102083Y-67037611D01*
X131104650Y-67033165D01*
X131104650Y-64896835D01*
X131097122Y-64883796D01*
X131093226Y-64874390D01*
X131090659Y-64864810D01*
X131089330Y-64859850D01*
X131075055Y-64845575D01*
X131075054Y-64845573D01*
X129435378Y-63205897D01*
X129435376Y-63205896D01*
X129421101Y-63191621D01*
X129406561Y-63187725D01*
X129397155Y-63183829D01*
X129388562Y-63178868D01*
X129384116Y-63176301D01*
X127193323Y-63176301D01*
X127183229Y-63174972D01*
X127173649Y-63172405D01*
X127168689Y-63171076D01*
X127163106Y-63172572D01*
X127147922Y-63173567D01*
X127142418Y-63172843D01*
X127134474Y-63171796D01*
X127124642Y-63169162D01*
X127097496Y-63157918D01*
X127088679Y-63152828D01*
X127077918Y-63144571D01*
X127067883Y-63133129D01*
X127067559Y-63132568D01*
X127064993Y-63128123D01*
X127051954Y-63120595D01*
X127043877Y-63114397D01*
X126523026Y-62593545D01*
X126511603Y-62565968D01*
X126523026Y-62538391D01*
X126635032Y-62426384D01*
X126643108Y-62420187D01*
X126651700Y-62415226D01*
X126656146Y-62412659D01*
X126661167Y-62403963D01*
X126664448Y-62399152D01*
X126726297Y-62321596D01*
X126727664Y-62319882D01*
X126778389Y-62214550D01*
X126784790Y-62186507D01*
X126803915Y-62102712D01*
X126803915Y-62102708D01*
X126804403Y-62100572D01*
X126804403Y-61983662D01*
X126802007Y-61973161D01*
X126778875Y-61871817D01*
X126778875Y-61871816D01*
X126778388Y-61869684D01*
X126741321Y-61792713D01*
X126728613Y-61766325D01*
X126728612Y-61766323D01*
X126727663Y-61764353D01*
X126706959Y-61738391D01*
X126681542Y-61706520D01*
X126681281Y-61706193D01*
X126680516Y-61703336D01*
X126674595Y-61697415D01*
X126671689Y-61694164D01*
X126664442Y-61685077D01*
X126661164Y-61680269D01*
X126660505Y-61679126D01*
X126656146Y-61671577D01*
X126647452Y-61666557D01*
X126642653Y-61663285D01*
X126633555Y-61656029D01*
X126630302Y-61653122D01*
X126624386Y-61647206D01*
X126624221Y-61647162D01*
X126622620Y-61645075D01*
X126621531Y-61646441D01*
X126565083Y-61601425D01*
X126565084Y-61601425D01*
X126563369Y-61600058D01*
X126561399Y-61599109D01*
X126561397Y-61599108D01*
X126481662Y-61560710D01*
X126458038Y-61549333D01*
X126455906Y-61548846D01*
X126455905Y-61548846D01*
X126346200Y-61523806D01*
X126346196Y-61523806D01*
X126344060Y-61523318D01*
X126227150Y-61523318D01*
X126225014Y-61523806D01*
X126225010Y-61523806D01*
X126115308Y-61548844D01*
X126115304Y-61548845D01*
X126113172Y-61549332D01*
X126111200Y-61550282D01*
X126111199Y-61550282D01*
X126108215Y-61551719D01*
X126007840Y-61600057D01*
X126006125Y-61601424D01*
X126006126Y-61601424D01*
X125928570Y-61663273D01*
X125923759Y-61666554D01*
X125915063Y-61671575D01*
X125910044Y-61680269D01*
X125907535Y-61684614D01*
X125901337Y-61692691D01*
X125789330Y-61804696D01*
X125761753Y-61816119D01*
X125734176Y-61804696D01*
X124249032Y-60319551D01*
X123979481Y-60050000D01*
X125825180Y-60050000D01*
X125825929Y-60053766D01*
X125841543Y-60132267D01*
X125841544Y-60132269D01*
X125842293Y-60136035D01*
X125844427Y-60139229D01*
X125844428Y-60139231D01*
X125865103Y-60170173D01*
X125891028Y-60208972D01*
X125894222Y-60211106D01*
X125960769Y-60255572D01*
X125960771Y-60255573D01*
X125963965Y-60257707D01*
X125967731Y-60258456D01*
X125967733Y-60258457D01*
X126046234Y-60274071D01*
X126050000Y-60274820D01*
X126053766Y-60274071D01*
X126132267Y-60258457D01*
X126132269Y-60258456D01*
X126136035Y-60257707D01*
X126139229Y-60255573D01*
X126139231Y-60255572D01*
X126205778Y-60211106D01*
X126208972Y-60208972D01*
X126234897Y-60170173D01*
X126255572Y-60139231D01*
X126255573Y-60139229D01*
X126257707Y-60136035D01*
X126258456Y-60132269D01*
X126258457Y-60132267D01*
X126274071Y-60053766D01*
X126274820Y-60050000D01*
X126272177Y-60036711D01*
X126258457Y-59967733D01*
X126258456Y-59967731D01*
X126257707Y-59963965D01*
X126255573Y-59960771D01*
X126255572Y-59960769D01*
X126214656Y-59899535D01*
X126208972Y-59891028D01*
X126182059Y-59873045D01*
X126139231Y-59844428D01*
X126139229Y-59844427D01*
X126136035Y-59842293D01*
X126132269Y-59841544D01*
X126132267Y-59841543D01*
X126053766Y-59825929D01*
X126050000Y-59825180D01*
X126046234Y-59825929D01*
X125967733Y-59841543D01*
X125967731Y-59841544D01*
X125963965Y-59842293D01*
X125960771Y-59844427D01*
X125960769Y-59844428D01*
X125917941Y-59873045D01*
X125891028Y-59891028D01*
X125885344Y-59899535D01*
X125844428Y-59960769D01*
X125844427Y-59960771D01*
X125842293Y-59963965D01*
X125841544Y-59967731D01*
X125841543Y-59967733D01*
X125827823Y-60036711D01*
X125825180Y-60050000D01*
X123979481Y-60050000D01*
X123669176Y-59739695D01*
X124175115Y-59739695D01*
X124185025Y-59783488D01*
X124191087Y-59810278D01*
X124192283Y-59815565D01*
X124240654Y-59876486D01*
X124244605Y-59878400D01*
X124244606Y-59878401D01*
X124264221Y-59887904D01*
X124310659Y-59910403D01*
X124349456Y-59910504D01*
X124384055Y-59910595D01*
X124384057Y-59910595D01*
X124388448Y-59910606D01*
X124458629Y-59877056D01*
X124507319Y-59816390D01*
X124520602Y-59759084D01*
X124524386Y-59742760D01*
X124524386Y-59742757D01*
X124524884Y-59740610D01*
X124524885Y-59740000D01*
X124507585Y-59664160D01*
X124459107Y-59603324D01*
X124408011Y-59578678D01*
X124393001Y-59571438D01*
X124389043Y-59569529D01*
X124384650Y-59569525D01*
X124384649Y-59569525D01*
X124350336Y-59569495D01*
X124311254Y-59569461D01*
X124241132Y-59603134D01*
X124192548Y-59663885D01*
X124191564Y-59668164D01*
X124176998Y-59731507D01*
X124175115Y-59739695D01*
X123669176Y-59739695D01*
X122755299Y-58825818D01*
X122743876Y-58798241D01*
X122744883Y-58789437D01*
X122745858Y-58785231D01*
X122745859Y-58785220D01*
X122746356Y-58783077D01*
X122746357Y-58782359D01*
X122729509Y-58708500D01*
X122726990Y-58697456D01*
X122726990Y-58697455D01*
X122726013Y-58693174D01*
X122673177Y-58626869D01*
X122664925Y-58598184D01*
X122673263Y-58578154D01*
X122695203Y-58550818D01*
X122695205Y-58550813D01*
X122697952Y-58547391D01*
X122718608Y-58458278D01*
X122718609Y-58457560D01*
X122718497Y-58457067D01*
X122718819Y-58454267D01*
X122733320Y-58428177D01*
X122762022Y-58419982D01*
X122785140Y-58431149D01*
X122798256Y-58444265D01*
X122811543Y-58447825D01*
X122820947Y-58451720D01*
X122825359Y-58454267D01*
X122832862Y-58458599D01*
X122851752Y-58458599D01*
X122851754Y-58458600D01*
X123418246Y-58458600D01*
X123418249Y-58458599D01*
X123437138Y-58458599D01*
X123444641Y-58454267D01*
X123449053Y-58451720D01*
X123458457Y-58447825D01*
X123471744Y-58444265D01*
X123485101Y-58430908D01*
X123485103Y-58430907D01*
X123654823Y-58261187D01*
X123682400Y-58249764D01*
X123709977Y-58261187D01*
G37*
%TD.AperFunction*%
%TA.AperFunction,Conductor*%
G36*
X122236550Y-64994744D02*
G01*
X122402743Y-65160938D01*
X122568918Y-65327113D01*
X122579378Y-65346082D01*
X122584533Y-65368861D01*
X122587265Y-65372301D01*
X122587265Y-65372302D01*
X122591525Y-65377667D01*
X122641415Y-65440500D01*
X122645366Y-65442414D01*
X122645367Y-65442415D01*
X122675683Y-65457103D01*
X122723737Y-65480385D01*
X122728127Y-65480397D01*
X122728129Y-65480397D01*
X122769589Y-65480505D01*
X122815213Y-65480625D01*
X122819175Y-65478731D01*
X122819179Y-65478730D01*
X122823680Y-65476578D01*
X122853487Y-65474990D01*
X122875686Y-65494944D01*
X122879500Y-65511764D01*
X122879500Y-71960500D01*
X122868077Y-71988077D01*
X122840500Y-71999500D01*
X122224030Y-71999500D01*
X122219584Y-72002067D01*
X122210712Y-72007189D01*
X122201306Y-72011085D01*
X122186453Y-72015065D01*
X122182822Y-72018696D01*
X122159605Y-72041912D01*
X122131994Y-72053334D01*
X122114930Y-72053319D01*
X122032469Y-72092916D01*
X122029726Y-72096346D01*
X121985669Y-72151437D01*
X121975337Y-72164356D01*
X121974354Y-72168633D01*
X121974353Y-72168634D01*
X121955145Y-72252167D01*
X121937833Y-72276483D01*
X121910278Y-72281819D01*
X121744302Y-72252167D01*
X121547709Y-72217045D01*
X121545280Y-72216531D01*
X120960879Y-72072940D01*
X120958476Y-72072266D01*
X120559296Y-71946560D01*
X120536424Y-71927382D01*
X120533812Y-71897648D01*
X120540595Y-71884951D01*
X120590804Y-71822391D01*
X120593552Y-71818967D01*
X120614208Y-71729854D01*
X120614209Y-71729136D01*
X120593865Y-71639951D01*
X120567553Y-71606932D01*
X120559053Y-71582627D01*
X120559053Y-71079695D01*
X121415115Y-71079695D01*
X121432283Y-71155565D01*
X121435015Y-71159006D01*
X121435543Y-71159671D01*
X121480654Y-71216486D01*
X121484605Y-71218400D01*
X121484606Y-71218401D01*
X121492268Y-71222113D01*
X121550659Y-71250403D01*
X121589456Y-71250504D01*
X121624055Y-71250595D01*
X121624057Y-71250595D01*
X121628448Y-71250606D01*
X121698629Y-71217056D01*
X121747319Y-71156390D01*
X121760274Y-71100498D01*
X121764386Y-71082760D01*
X121764386Y-71082757D01*
X121764884Y-71080610D01*
X121764885Y-71080000D01*
X121747585Y-71004160D01*
X121699107Y-70943324D01*
X121629043Y-70909529D01*
X121624650Y-70909525D01*
X121624649Y-70909525D01*
X121590336Y-70909495D01*
X121551254Y-70909461D01*
X121481132Y-70943134D01*
X121432548Y-71003885D01*
X121431564Y-71008164D01*
X121416388Y-71074160D01*
X121415115Y-71079695D01*
X120559053Y-71079695D01*
X120559053Y-69578226D01*
X120551364Y-69564908D01*
X120547468Y-69555502D01*
X120544817Y-69545609D01*
X120543488Y-69540649D01*
X120486458Y-69483618D01*
X120486457Y-69483618D01*
X117565819Y-66562980D01*
X117567622Y-66561177D01*
X117565664Y-66558624D01*
X117551462Y-66559133D01*
X117550947Y-66558995D01*
X117541556Y-66555102D01*
X117540356Y-66554409D01*
X117536791Y-66549762D01*
X117532572Y-66549915D01*
X117528242Y-66547415D01*
X117497015Y-66547415D01*
X117469439Y-66535992D01*
X117458016Y-66508415D01*
X117461545Y-66493070D01*
X117463198Y-66491010D01*
X117464915Y-66483602D01*
X117482271Y-66459317D01*
X117511715Y-66454416D01*
X117521739Y-66459279D01*
X117521915Y-66458916D01*
X117559551Y-66477151D01*
X117566103Y-66484518D01*
X117576874Y-66485543D01*
X117578588Y-66486374D01*
X117588476Y-66497497D01*
X117601100Y-66497280D01*
X117604237Y-66498800D01*
X117608624Y-66498812D01*
X117608626Y-66498812D01*
X117650425Y-66498921D01*
X117695713Y-66499040D01*
X117778243Y-66459586D01*
X117780988Y-66456165D01*
X117780990Y-66456164D01*
X117832751Y-66391670D01*
X117835499Y-66388246D01*
X117856155Y-66299133D01*
X117856156Y-66298415D01*
X117835812Y-66209230D01*
X117833075Y-66205796D01*
X117833074Y-66205793D01*
X117818341Y-66187303D01*
X117810089Y-66158617D01*
X117821265Y-66135422D01*
X118429063Y-65527624D01*
X118456640Y-65516201D01*
X118484217Y-65527624D01*
X118494678Y-65546592D01*
X118496026Y-65552551D01*
X118498758Y-65555992D01*
X118522536Y-65585939D01*
X118530993Y-65610190D01*
X118530993Y-65721820D01*
X118533560Y-65726266D01*
X118538682Y-65735138D01*
X118542578Y-65744544D01*
X118546558Y-65759397D01*
X118550189Y-65763028D01*
X118588019Y-65800859D01*
X118599442Y-65828436D01*
X118588019Y-65856013D01*
X118577325Y-65863592D01*
X118540593Y-65881231D01*
X118540590Y-65881233D01*
X118536632Y-65883134D01*
X118488048Y-65943885D01*
X118487064Y-65948164D01*
X118474305Y-66003650D01*
X118470615Y-66019695D01*
X118487783Y-66095565D01*
X118490515Y-66099006D01*
X118506823Y-66119545D01*
X118536154Y-66156486D01*
X118540105Y-66158400D01*
X118540106Y-66158401D01*
X118565525Y-66170716D01*
X118606159Y-66190403D01*
X118644956Y-66190504D01*
X118679555Y-66190595D01*
X118679557Y-66190595D01*
X118683948Y-66190606D01*
X118687910Y-66188712D01*
X118687914Y-66188711D01*
X118703680Y-66181174D01*
X118733487Y-66179586D01*
X118755686Y-66199540D01*
X118759500Y-66216360D01*
X118759500Y-66630327D01*
X118762067Y-66634773D01*
X118767189Y-66643645D01*
X118771085Y-66653051D01*
X118775065Y-66667904D01*
X118832095Y-66724935D01*
X118832096Y-66724935D01*
X122348077Y-70240916D01*
X122359500Y-70268493D01*
X122359500Y-70953978D01*
X122350958Y-70978336D01*
X122324844Y-71010990D01*
X122323860Y-71015269D01*
X122308060Y-71083980D01*
X122304344Y-71100139D01*
X122324533Y-71189359D01*
X122327265Y-71192799D01*
X122327265Y-71192800D01*
X122330116Y-71196390D01*
X122381415Y-71260998D01*
X122385366Y-71262912D01*
X122385367Y-71262913D01*
X122402300Y-71271117D01*
X122463737Y-71300883D01*
X122468127Y-71300895D01*
X122468129Y-71300895D01*
X122509589Y-71301003D01*
X122555213Y-71301123D01*
X122637743Y-71261669D01*
X122640488Y-71258248D01*
X122640490Y-71258247D01*
X122692251Y-71193753D01*
X122694999Y-71190329D01*
X122707280Y-71137346D01*
X122715158Y-71103362D01*
X122715158Y-71103358D01*
X122715655Y-71101216D01*
X122715656Y-71100498D01*
X122698432Y-71024990D01*
X122696289Y-71015595D01*
X122696289Y-71015594D01*
X122695312Y-71011313D01*
X122691577Y-71006625D01*
X122672857Y-70983134D01*
X122669000Y-70978294D01*
X122660500Y-70953989D01*
X122660500Y-70149673D01*
X122652811Y-70136355D01*
X122648915Y-70126949D01*
X122646264Y-70117056D01*
X122644935Y-70112096D01*
X122587905Y-70055065D01*
X122587904Y-70055065D01*
X119071923Y-66539084D01*
X119060500Y-66511507D01*
X119060500Y-66009426D01*
X119071923Y-65981849D01*
X119099601Y-65970426D01*
X119126757Y-65970497D01*
X119164055Y-65970595D01*
X119164057Y-65970595D01*
X119168448Y-65970606D01*
X119238629Y-65937056D01*
X119287319Y-65876390D01*
X119304884Y-65800610D01*
X119304885Y-65800000D01*
X119287585Y-65724160D01*
X119239107Y-65663324D01*
X119169043Y-65629529D01*
X119164650Y-65629525D01*
X119164649Y-65629525D01*
X119130336Y-65629495D01*
X119091254Y-65629461D01*
X119021132Y-65663134D01*
X119014466Y-65671470D01*
X118983848Y-65709755D01*
X118957703Y-65724158D01*
X118929032Y-65715855D01*
X118925813Y-65712974D01*
X118846631Y-65633792D01*
X118835208Y-65606215D01*
X118843793Y-65581804D01*
X118863743Y-65556948D01*
X118863745Y-65556943D01*
X118866492Y-65553521D01*
X118878682Y-65500930D01*
X118886651Y-65466554D01*
X118886651Y-65466550D01*
X118887148Y-65464408D01*
X118887149Y-65463690D01*
X118867692Y-65378395D01*
X118872695Y-65348969D01*
X118897041Y-65331699D01*
X118905715Y-65330722D01*
X119660535Y-65330722D01*
X119681004Y-65337910D01*
X119681182Y-65337542D01*
X119681942Y-65337910D01*
X119685133Y-65339456D01*
X119685134Y-65339457D01*
X119698810Y-65346083D01*
X119763504Y-65377427D01*
X119767894Y-65377439D01*
X119767896Y-65377439D01*
X119809356Y-65377547D01*
X119854980Y-65377667D01*
X119937510Y-65338213D01*
X119940255Y-65334792D01*
X119940257Y-65334791D01*
X119992018Y-65270297D01*
X119994766Y-65266873D01*
X120006728Y-65215269D01*
X120014925Y-65179906D01*
X120014925Y-65179902D01*
X120015422Y-65177760D01*
X120015423Y-65177042D01*
X119998272Y-65101854D01*
X119996056Y-65092139D01*
X119996056Y-65092138D01*
X119995079Y-65087857D01*
X119989802Y-65081234D01*
X119974760Y-65062358D01*
X119962223Y-65046625D01*
X119953970Y-65017940D01*
X119968418Y-64991821D01*
X119992723Y-64983321D01*
X122208973Y-64983321D01*
X122236550Y-64994744D01*
G37*
%TD.AperFunction*%
%TA.AperFunction,Conductor*%
G36*
X118197077Y-67619916D02*
G01*
X120246630Y-69669469D01*
X120258053Y-69697046D01*
X120258053Y-71582616D01*
X120249511Y-71606974D01*
X120223397Y-71639628D01*
X120222413Y-71643907D01*
X120210899Y-71693980D01*
X120202897Y-71728777D01*
X120209693Y-71758809D01*
X120204639Y-71788225D01*
X120180263Y-71805453D01*
X120157580Y-71803787D01*
X119820967Y-71673527D01*
X119818665Y-71672550D01*
X119405164Y-71481221D01*
X119272539Y-71419854D01*
X119270323Y-71418741D01*
X118774916Y-71149695D01*
X119400115Y-71149695D01*
X119408342Y-71186052D01*
X119415358Y-71217056D01*
X119417283Y-71225565D01*
X119420015Y-71229006D01*
X119427162Y-71238007D01*
X119465654Y-71286486D01*
X119469605Y-71288400D01*
X119469606Y-71288401D01*
X119495394Y-71300895D01*
X119535659Y-71320403D01*
X119574456Y-71320504D01*
X119609055Y-71320595D01*
X119609057Y-71320595D01*
X119613448Y-71320606D01*
X119683629Y-71287056D01*
X119732319Y-71226390D01*
X119744964Y-71171838D01*
X119749386Y-71152760D01*
X119749386Y-71152757D01*
X119749884Y-71150610D01*
X119749885Y-71150000D01*
X119732585Y-71074160D01*
X119684107Y-71013324D01*
X119649075Y-70996426D01*
X119618001Y-70981438D01*
X119614043Y-70979529D01*
X119609650Y-70979525D01*
X119609649Y-70979525D01*
X119575336Y-70979495D01*
X119536254Y-70979461D01*
X119466132Y-71013134D01*
X119417548Y-71073885D01*
X119416564Y-71078164D01*
X119402311Y-71140147D01*
X119400115Y-71149695D01*
X118774916Y-71149695D01*
X118758970Y-71141035D01*
X118757900Y-71140147D01*
X118756581Y-71139737D01*
X118753761Y-71138206D01*
X118750474Y-71135248D01*
X118745721Y-71129394D01*
X118745933Y-71129067D01*
X118626932Y-71065455D01*
X118552676Y-71025761D01*
X118552673Y-71025760D01*
X118551233Y-71024990D01*
X118341908Y-70954827D01*
X118340297Y-70954574D01*
X118340294Y-70954573D01*
X118274047Y-70944159D01*
X118251126Y-70940556D01*
X118229606Y-70929606D01*
X117886491Y-70586491D01*
X117875068Y-70558914D01*
X117886491Y-70531337D01*
X117914170Y-70519914D01*
X117932285Y-70519961D01*
X117984055Y-70520097D01*
X117984057Y-70520097D01*
X117988448Y-70520108D01*
X118058629Y-70486558D01*
X118061379Y-70483132D01*
X118062103Y-70482558D01*
X118090810Y-70474380D01*
X118116892Y-70488897D01*
X118124366Y-70504513D01*
X118126470Y-70513810D01*
X118183352Y-70585449D01*
X118187303Y-70587363D01*
X118187304Y-70587364D01*
X118188644Y-70588013D01*
X118265674Y-70625334D01*
X118270064Y-70625346D01*
X118270066Y-70625346D01*
X118311526Y-70625454D01*
X118357150Y-70625574D01*
X118439680Y-70586120D01*
X118442425Y-70582699D01*
X118442427Y-70582698D01*
X118494188Y-70518204D01*
X118496936Y-70514780D01*
X118517592Y-70425667D01*
X118517593Y-70424949D01*
X118505958Y-70373941D01*
X118498226Y-70340046D01*
X118498226Y-70340045D01*
X118497249Y-70335764D01*
X118470937Y-70302745D01*
X118462437Y-70278440D01*
X118462437Y-70241610D01*
X118454748Y-70228292D01*
X118450852Y-70218886D01*
X118448201Y-70208993D01*
X118446872Y-70204033D01*
X118389842Y-70147002D01*
X118389841Y-70147002D01*
X118141923Y-69899084D01*
X118130500Y-69871507D01*
X118130500Y-69693488D01*
X118141923Y-69665911D01*
X118169500Y-69654488D01*
X118186507Y-69658392D01*
X118186704Y-69658488D01*
X118186709Y-69658489D01*
X118190659Y-69660403D01*
X118229456Y-69660504D01*
X118264055Y-69660595D01*
X118264057Y-69660595D01*
X118268448Y-69660606D01*
X118338629Y-69627056D01*
X118387319Y-69566390D01*
X118402751Y-69499812D01*
X118404386Y-69492760D01*
X118404386Y-69492757D01*
X118404884Y-69490610D01*
X118404885Y-69490000D01*
X118387585Y-69414160D01*
X118339107Y-69353324D01*
X118299399Y-69334171D01*
X118273001Y-69321438D01*
X118269043Y-69319529D01*
X118264650Y-69319525D01*
X118264649Y-69319525D01*
X118230336Y-69319495D01*
X118191254Y-69319461D01*
X118187295Y-69321362D01*
X118186385Y-69321799D01*
X118185047Y-69321873D01*
X118183012Y-69322335D01*
X118182933Y-69321989D01*
X118156581Y-69323442D01*
X118134345Y-69303529D01*
X118130500Y-69286644D01*
X118130500Y-67647493D01*
X118141923Y-67619916D01*
X118169500Y-67608493D01*
X118197077Y-67619916D01*
G37*
%TD.AperFunction*%
%TA.AperFunction,Conductor*%
G36*
X118259142Y-55223413D02*
G01*
X118265080Y-55252666D01*
X118254377Y-55272784D01*
X117844566Y-55682595D01*
X117843237Y-55687555D01*
X117840586Y-55697448D01*
X117836690Y-55706854D01*
X117829001Y-55720172D01*
X117829000Y-55764655D01*
X117829000Y-55800821D01*
X117829001Y-55800829D01*
X117829001Y-56269158D01*
X117817578Y-56296735D01*
X115685065Y-58429248D01*
X115683736Y-58434208D01*
X115681085Y-58444101D01*
X115677189Y-58453507D01*
X115669500Y-58466825D01*
X115669499Y-58547478D01*
X115669500Y-58547480D01*
X115669500Y-59850327D01*
X115672067Y-59854773D01*
X115677189Y-59863645D01*
X115681083Y-59873045D01*
X115685065Y-59887904D01*
X115742095Y-59944935D01*
X115742096Y-59944935D01*
X116308077Y-60510916D01*
X116319500Y-60538493D01*
X116319500Y-63521507D01*
X116308077Y-63549084D01*
X116125065Y-63732096D01*
X116123736Y-63737056D01*
X116121085Y-63746949D01*
X116117189Y-63756355D01*
X116109500Y-63769673D01*
X116109500Y-63774807D01*
X116109499Y-63850322D01*
X116109500Y-63850330D01*
X116109500Y-65299870D01*
X116098077Y-65327447D01*
X116070500Y-65338870D01*
X116042923Y-65327447D01*
X116040010Y-65324187D01*
X116023423Y-65303372D01*
X115953359Y-65269577D01*
X115948966Y-65269573D01*
X115948965Y-65269573D01*
X115914652Y-65269543D01*
X115875570Y-65269509D01*
X115805448Y-65303182D01*
X115763088Y-65356151D01*
X115758012Y-65362498D01*
X115731868Y-65376901D01*
X115703196Y-65368598D01*
X115699977Y-65365717D01*
X115301923Y-64967663D01*
X115290500Y-64940086D01*
X115290500Y-62261244D01*
X115301923Y-62233667D01*
X115574862Y-61960729D01*
X115856465Y-61679126D01*
X115862375Y-61674276D01*
X115876906Y-61664567D01*
X115876910Y-61664563D01*
X115880101Y-61662431D01*
X115900784Y-61631477D01*
X115935466Y-61579570D01*
X115936964Y-61572043D01*
X115954159Y-61485595D01*
X115954908Y-61481830D01*
X115948361Y-61448914D01*
X115936215Y-61387853D01*
X115936214Y-61387852D01*
X115935466Y-61384089D01*
X115880101Y-61301229D01*
X115797241Y-61245864D01*
X115793478Y-61245116D01*
X115793477Y-61245115D01*
X115724797Y-61231454D01*
X115699500Y-61226422D01*
X115695735Y-61227171D01*
X115605524Y-61245115D01*
X115605523Y-61245116D01*
X115601760Y-61245864D01*
X115561187Y-61272974D01*
X115541108Y-61286390D01*
X115522092Y-61299095D01*
X115522090Y-61299097D01*
X115518899Y-61301229D01*
X115516767Y-61304420D01*
X115516763Y-61304424D01*
X115507054Y-61318955D01*
X115502204Y-61324865D01*
X114883038Y-61944032D01*
X114877128Y-61948882D01*
X114862593Y-61958594D01*
X114862590Y-61958597D01*
X114859399Y-61960729D01*
X114828280Y-62007303D01*
X114804034Y-62043589D01*
X114803286Y-62047352D01*
X114803285Y-62047353D01*
X114790609Y-62111082D01*
X114784592Y-62141330D01*
X114785341Y-62145095D01*
X114785341Y-62145097D01*
X114788751Y-62162240D01*
X114789500Y-62169848D01*
X114789500Y-65031482D01*
X114788751Y-65039090D01*
X114785854Y-65053657D01*
X114784592Y-65060000D01*
X114804034Y-65157741D01*
X114806167Y-65160933D01*
X114806169Y-65160938D01*
X114817506Y-65177904D01*
X114857264Y-65237407D01*
X114857267Y-65237410D01*
X114859399Y-65240601D01*
X114862590Y-65242733D01*
X114862593Y-65242736D01*
X114877128Y-65252448D01*
X114883038Y-65257298D01*
X115478077Y-65852337D01*
X115489500Y-65879914D01*
X115489500Y-65971482D01*
X115488751Y-65979090D01*
X115484592Y-66000000D01*
X115485341Y-66003765D01*
X115502749Y-66091279D01*
X115504034Y-66097741D01*
X115516682Y-66116670D01*
X115559399Y-66180601D01*
X115562590Y-66182733D01*
X115562594Y-66182737D01*
X115577128Y-66192448D01*
X115583038Y-66197298D01*
X116218560Y-66832820D01*
X116229983Y-66860397D01*
X116218560Y-66887974D01*
X116190983Y-66899397D01*
X116174040Y-66895524D01*
X116144308Y-66881183D01*
X116140350Y-66879274D01*
X116135957Y-66879270D01*
X116135956Y-66879270D01*
X116101643Y-66879240D01*
X116062561Y-66879206D01*
X115992439Y-66912879D01*
X115943855Y-66973630D01*
X115942871Y-66977909D01*
X115930165Y-67033165D01*
X115926422Y-67049440D01*
X115943590Y-67125310D01*
X115991961Y-67186231D01*
X115995912Y-67188145D01*
X115995913Y-67188146D01*
X116021639Y-67200610D01*
X116061966Y-67220148D01*
X116100763Y-67220249D01*
X116135362Y-67220340D01*
X116135364Y-67220340D01*
X116139755Y-67220351D01*
X116209936Y-67186801D01*
X116258626Y-67126135D01*
X116272434Y-67066564D01*
X116275693Y-67052505D01*
X116275693Y-67052502D01*
X116276191Y-67050355D01*
X116276192Y-67049745D01*
X116259216Y-66975326D01*
X116264219Y-66945900D01*
X116288565Y-66928630D01*
X116317992Y-66933633D01*
X116324816Y-66939076D01*
X116626806Y-67241066D01*
X116638229Y-67268643D01*
X116626806Y-67296220D01*
X116616112Y-67303799D01*
X116550382Y-67335363D01*
X116550379Y-67335365D01*
X116546421Y-67337266D01*
X116497837Y-67398017D01*
X116496853Y-67402296D01*
X116486183Y-67448697D01*
X116480404Y-67473827D01*
X116497572Y-67549697D01*
X116545943Y-67610618D01*
X116549894Y-67612532D01*
X116549895Y-67612533D01*
X116559266Y-67617073D01*
X116615948Y-67644535D01*
X116654745Y-67644636D01*
X116689344Y-67644727D01*
X116689346Y-67644727D01*
X116693737Y-67644738D01*
X116763918Y-67611188D01*
X116812608Y-67550522D01*
X116830173Y-67474742D01*
X116830174Y-67474132D01*
X116830054Y-67473604D01*
X116830429Y-67470343D01*
X116832258Y-67470554D01*
X116838583Y-67448697D01*
X116864724Y-67434288D01*
X116876655Y-67434797D01*
X116930000Y-67445408D01*
X116933765Y-67444659D01*
X116945615Y-67442302D01*
X116954308Y-67440573D01*
X117023976Y-67426715D01*
X117023977Y-67426714D01*
X117027740Y-67425966D01*
X117110601Y-67370601D01*
X117165966Y-67287740D01*
X117167543Y-67279815D01*
X117182870Y-67202760D01*
X117185408Y-67190000D01*
X117174533Y-67135329D01*
X117180357Y-67106054D01*
X117205175Y-67089470D01*
X117212784Y-67088721D01*
X117229728Y-67088721D01*
X117257305Y-67100144D01*
X117818077Y-67660916D01*
X117829500Y-67688493D01*
X117829500Y-69296455D01*
X117818077Y-69324032D01*
X117790500Y-69335455D01*
X117773560Y-69331583D01*
X117769543Y-69329646D01*
X117765150Y-69329642D01*
X117765149Y-69329642D01*
X117730836Y-69329612D01*
X117691754Y-69329578D01*
X117621632Y-69363251D01*
X117573048Y-69424002D01*
X117572064Y-69428281D01*
X117557237Y-69492760D01*
X117555615Y-69499812D01*
X117572783Y-69575682D01*
X117575515Y-69579123D01*
X117587459Y-69594166D01*
X117621154Y-69636603D01*
X117625105Y-69638517D01*
X117625106Y-69638518D01*
X117631831Y-69641776D01*
X117691159Y-69670520D01*
X117729956Y-69670621D01*
X117764555Y-69670712D01*
X117764557Y-69670712D01*
X117768948Y-69670723D01*
X117773678Y-69668462D01*
X117774803Y-69668402D01*
X117777194Y-69667863D01*
X117777286Y-69668270D01*
X117803484Y-69666872D01*
X117825685Y-69686824D01*
X117829500Y-69703647D01*
X117829500Y-69990327D01*
X117832067Y-69994773D01*
X117837189Y-70003645D01*
X117841085Y-70013051D01*
X117845065Y-70027904D01*
X117902095Y-70084935D01*
X117902096Y-70084935D01*
X117931272Y-70114111D01*
X117942695Y-70141688D01*
X117931272Y-70169265D01*
X117913701Y-70178965D01*
X117911254Y-70178963D01*
X117841132Y-70212636D01*
X117792548Y-70273387D01*
X117775115Y-70349197D01*
X117782169Y-70380369D01*
X117777115Y-70409788D01*
X117752739Y-70427015D01*
X117723320Y-70421961D01*
X117716554Y-70416554D01*
X116884164Y-69584164D01*
X116872741Y-69556587D01*
X116884164Y-69529010D01*
X116898651Y-69521030D01*
X116898448Y-69520606D01*
X116968629Y-69487056D01*
X117017319Y-69426390D01*
X117026529Y-69386654D01*
X117034386Y-69352760D01*
X117034386Y-69352757D01*
X117034884Y-69350610D01*
X117034885Y-69350000D01*
X117017585Y-69274160D01*
X116969107Y-69213324D01*
X116899043Y-69179529D01*
X116894650Y-69179525D01*
X116894649Y-69179525D01*
X116860336Y-69179495D01*
X116821254Y-69179461D01*
X116751132Y-69213134D01*
X116702548Y-69273885D01*
X116694276Y-69309856D01*
X116676965Y-69334171D01*
X116647529Y-69339123D01*
X116628692Y-69328692D01*
X115779695Y-68479695D01*
X116825615Y-68479695D01*
X116842783Y-68555565D01*
X116891154Y-68616486D01*
X116895105Y-68618400D01*
X116895106Y-68618401D01*
X116926157Y-68633445D01*
X116961159Y-68650403D01*
X116999956Y-68650504D01*
X117034555Y-68650595D01*
X117034557Y-68650595D01*
X117038948Y-68650606D01*
X117109129Y-68617056D01*
X117157819Y-68556390D01*
X117175384Y-68480610D01*
X117175385Y-68480000D01*
X117158085Y-68404160D01*
X117109607Y-68343324D01*
X117039543Y-68309529D01*
X117035150Y-68309525D01*
X117035149Y-68309525D01*
X117000836Y-68309495D01*
X116961754Y-68309461D01*
X116891632Y-68343134D01*
X116843048Y-68403885D01*
X116842064Y-68408164D01*
X116831441Y-68454361D01*
X116825615Y-68479695D01*
X115779695Y-68479695D01*
X115600000Y-68300000D01*
X115588106Y-68300000D01*
X115560529Y-68288577D01*
X115549442Y-68266107D01*
X115535772Y-68162608D01*
X115535557Y-68160980D01*
X115470918Y-67951439D01*
X115372169Y-67755647D01*
X115371664Y-67755957D01*
X115363508Y-67749009D01*
X115362866Y-67748213D01*
X115361692Y-67746052D01*
X115361542Y-67744630D01*
X115359655Y-67742303D01*
X115332599Y-67692482D01*
X115081258Y-67229679D01*
X115080140Y-67227453D01*
X115068715Y-67202760D01*
X115067297Y-67199695D01*
X115460115Y-67199695D01*
X115464743Y-67220148D01*
X115474841Y-67264771D01*
X115477283Y-67275565D01*
X115525654Y-67336486D01*
X115529605Y-67338400D01*
X115529606Y-67338401D01*
X115534343Y-67340696D01*
X115595659Y-67370403D01*
X115634456Y-67370504D01*
X115669055Y-67370595D01*
X115669057Y-67370595D01*
X115673448Y-67370606D01*
X115743629Y-67337056D01*
X115792319Y-67276390D01*
X115801529Y-67236654D01*
X115809386Y-67202760D01*
X115809386Y-67202757D01*
X115809884Y-67200610D01*
X115809885Y-67200000D01*
X115792585Y-67124160D01*
X115744107Y-67063324D01*
X115674043Y-67029529D01*
X115669650Y-67029525D01*
X115669649Y-67029525D01*
X115635336Y-67029495D01*
X115596254Y-67029461D01*
X115526132Y-67063134D01*
X115477548Y-67123885D01*
X115476564Y-67128164D01*
X115461479Y-67193765D01*
X115460115Y-67199695D01*
X115067297Y-67199695D01*
X114951669Y-66949803D01*
X114827448Y-66681336D01*
X114826471Y-66679034D01*
X114679182Y-66298415D01*
X114609295Y-66117815D01*
X114608473Y-66115468D01*
X114606666Y-66109727D01*
X114427731Y-65541521D01*
X114427057Y-65539117D01*
X114422991Y-65522567D01*
X114283467Y-64954721D01*
X114282951Y-64952283D01*
X114279876Y-64935067D01*
X114226834Y-64638169D01*
X114200082Y-64488423D01*
X114200172Y-61514537D01*
X114202960Y-61495303D01*
X114223810Y-61351450D01*
X114224246Y-61349000D01*
X114224373Y-61348401D01*
X114253660Y-61209695D01*
X114775115Y-61209695D01*
X114783782Y-61247998D01*
X114788312Y-61268014D01*
X114792283Y-61285565D01*
X114795015Y-61289006D01*
X114807256Y-61304423D01*
X114840654Y-61346486D01*
X114844605Y-61348400D01*
X114844606Y-61348401D01*
X114861930Y-61356794D01*
X114910659Y-61380403D01*
X114949456Y-61380504D01*
X114984055Y-61380595D01*
X114984057Y-61380595D01*
X114988448Y-61380606D01*
X115058629Y-61347056D01*
X115107319Y-61286390D01*
X115116529Y-61246654D01*
X115124386Y-61212760D01*
X115124386Y-61212757D01*
X115124884Y-61210610D01*
X115124885Y-61210000D01*
X115107585Y-61134160D01*
X115059107Y-61073324D01*
X115007942Y-61048645D01*
X114993001Y-61041438D01*
X114989043Y-61039529D01*
X114984650Y-61039525D01*
X114984649Y-61039525D01*
X114950336Y-61039495D01*
X114911254Y-61039461D01*
X114841132Y-61073134D01*
X114792548Y-61133885D01*
X114791564Y-61138164D01*
X114782019Y-61179673D01*
X114775115Y-61209695D01*
X114253660Y-61209695D01*
X114348561Y-60760230D01*
X114349156Y-60757801D01*
X114510957Y-60178211D01*
X114511707Y-60175824D01*
X114606966Y-59903394D01*
X114710330Y-59607789D01*
X114711226Y-59605468D01*
X114712215Y-59603134D01*
X114799362Y-59397312D01*
X114850330Y-59276937D01*
X114871601Y-59255996D01*
X114901449Y-59256230D01*
X114918669Y-59270475D01*
X114931028Y-59288972D01*
X114935820Y-59292174D01*
X115000769Y-59335572D01*
X115000771Y-59335573D01*
X115003965Y-59337707D01*
X115007731Y-59338456D01*
X115007733Y-59338457D01*
X115086234Y-59354071D01*
X115090000Y-59354820D01*
X115093766Y-59354071D01*
X115172267Y-59338457D01*
X115172269Y-59338456D01*
X115176035Y-59337707D01*
X115179229Y-59335573D01*
X115179231Y-59335572D01*
X115244180Y-59292174D01*
X115248972Y-59288972D01*
X115267556Y-59261159D01*
X115295572Y-59219231D01*
X115295573Y-59219229D01*
X115297707Y-59216035D01*
X115298456Y-59212269D01*
X115298457Y-59212267D01*
X115314071Y-59133766D01*
X115314820Y-59130000D01*
X115313047Y-59121085D01*
X115298457Y-59047733D01*
X115298456Y-59047731D01*
X115297707Y-59043965D01*
X115295573Y-59040771D01*
X115295572Y-59040769D01*
X115258002Y-58984542D01*
X115248972Y-58971028D01*
X115222882Y-58953595D01*
X115179231Y-58924428D01*
X115179229Y-58924427D01*
X115176035Y-58922293D01*
X115172269Y-58921544D01*
X115172267Y-58921543D01*
X115093766Y-58905929D01*
X115090000Y-58905180D01*
X115086234Y-58905929D01*
X115082392Y-58905929D01*
X115082392Y-58903912D01*
X115060112Y-58899491D01*
X115043518Y-58874679D01*
X115046900Y-58849577D01*
X115205225Y-58533736D01*
X115216556Y-58511131D01*
X115217747Y-58508934D01*
X115232857Y-58483076D01*
X115365906Y-58255378D01*
X115521338Y-57989375D01*
X115522669Y-57987257D01*
X115742366Y-57661226D01*
X115858935Y-57488238D01*
X115860395Y-57486214D01*
X115870559Y-57473040D01*
X116029851Y-57266564D01*
X116227962Y-57009770D01*
X116229553Y-57007839D01*
X116626906Y-56555935D01*
X116628617Y-56554111D01*
X117054111Y-56128617D01*
X117055935Y-56126906D01*
X117507839Y-55729553D01*
X117509770Y-55727962D01*
X117828824Y-55481818D01*
X117986218Y-55360392D01*
X117988242Y-55358932D01*
X118008290Y-55345423D01*
X118123315Y-55267913D01*
X118205006Y-55212865D01*
X118234259Y-55206927D01*
X118259142Y-55223413D01*
G37*
%TD.AperFunction*%
%TA.AperFunction,Conductor*%
G36*
X131447077Y-60809916D02*
G01*
X131908077Y-61270916D01*
X131919500Y-61298493D01*
X131919500Y-65140327D01*
X131922067Y-65144772D01*
X131922067Y-65144774D01*
X131924274Y-65148596D01*
X131929500Y-65168097D01*
X131929500Y-66054007D01*
X131928060Y-66064508D01*
X131682656Y-66942303D01*
X131678438Y-66957390D01*
X131676727Y-66962246D01*
X131638045Y-67052505D01*
X131625347Y-67082133D01*
X131603984Y-67102981D01*
X131574137Y-67102617D01*
X131553289Y-67081254D01*
X131550500Y-67066770D01*
X131550500Y-64359673D01*
X131542811Y-64346355D01*
X131538915Y-64336949D01*
X131536264Y-64327056D01*
X131534935Y-64322096D01*
X131477905Y-64265065D01*
X131477904Y-64265065D01*
X131391923Y-64179084D01*
X131380500Y-64151507D01*
X131380500Y-60837493D01*
X131391923Y-60809916D01*
X131419500Y-60798493D01*
X131447077Y-60809916D01*
G37*
%TD.AperFunction*%
%TA.AperFunction,Conductor*%
G36*
X128262586Y-54875488D02*
G01*
X128318135Y-54905180D01*
X128448768Y-54975007D01*
X128658092Y-55045166D01*
X128659705Y-55045420D01*
X128659707Y-55045420D01*
X128661934Y-55045770D01*
X128700000Y-55051754D01*
X128700000Y-55200000D01*
X131520468Y-58020468D01*
X131529789Y-58050222D01*
X131530516Y-58051659D01*
X131530518Y-58051663D01*
X131567276Y-58124279D01*
X131628004Y-58244249D01*
X131628335Y-58244045D01*
X131631070Y-58246374D01*
X131631070Y-58246375D01*
X131631360Y-58246622D01*
X131635700Y-58251973D01*
X131636885Y-58251330D01*
X131638313Y-58253960D01*
X131638462Y-58255378D01*
X131640344Y-58257699D01*
X131917757Y-58768511D01*
X131918735Y-58770312D01*
X131919853Y-58772539D01*
X132015681Y-58979641D01*
X132172550Y-59318665D01*
X132173527Y-59320967D01*
X132254974Y-59531438D01*
X132390704Y-59882186D01*
X132391521Y-59884519D01*
X132565764Y-60437829D01*
X132572266Y-60458475D01*
X132572940Y-60460878D01*
X132715569Y-61041362D01*
X132716529Y-61045270D01*
X132717045Y-61047708D01*
X132776482Y-61380403D01*
X132822872Y-61640072D01*
X132823233Y-61642547D01*
X132842868Y-61816119D01*
X132886595Y-62202661D01*
X132890874Y-62240491D01*
X132891075Y-62242980D01*
X132895684Y-62337944D01*
X132920245Y-62844021D01*
X132920286Y-62846522D01*
X132915810Y-63132568D01*
X132912789Y-63325647D01*
X132910871Y-63448189D01*
X132910752Y-63450678D01*
X132872497Y-63929084D01*
X132862786Y-64050525D01*
X132862508Y-64053005D01*
X132777617Y-64638693D01*
X132776190Y-64648536D01*
X132775754Y-64650986D01*
X132651936Y-65237407D01*
X132651437Y-65239770D01*
X132650844Y-65242192D01*
X132594949Y-65442415D01*
X132489042Y-65821788D01*
X132488292Y-65824175D01*
X132411678Y-66043282D01*
X132289859Y-66391670D01*
X132289674Y-66392198D01*
X132288778Y-66394519D01*
X132164069Y-66689053D01*
X132112818Y-66810095D01*
X132091547Y-66831036D01*
X132061699Y-66830802D01*
X132040758Y-66809531D01*
X132039345Y-66784388D01*
X132214191Y-66158978D01*
X132214430Y-66158409D01*
X132214935Y-66157904D01*
X132225126Y-66119870D01*
X132225188Y-66119644D01*
X132230277Y-66101440D01*
X132230286Y-66100613D01*
X132230500Y-66099814D01*
X132230500Y-66081046D01*
X132230502Y-66080624D01*
X132230906Y-66043282D01*
X132230906Y-66043279D01*
X132230927Y-66041304D01*
X132230578Y-66040684D01*
X132230500Y-66040069D01*
X132230500Y-65069673D01*
X132227933Y-65065228D01*
X132227933Y-65065226D01*
X132225726Y-65061404D01*
X132220500Y-65041903D01*
X132220500Y-61179673D01*
X132212811Y-61166355D01*
X132208915Y-61156949D01*
X132207590Y-61152003D01*
X132204935Y-61142096D01*
X132147905Y-61085065D01*
X132147904Y-61085065D01*
X131146923Y-60084084D01*
X131135500Y-60056507D01*
X131135500Y-59332054D01*
X131565115Y-59332054D01*
X131574322Y-59372743D01*
X131579645Y-59396264D01*
X131582283Y-59407924D01*
X131585015Y-59411365D01*
X131585657Y-59412174D01*
X131630654Y-59468845D01*
X131634605Y-59470759D01*
X131634606Y-59470760D01*
X131665656Y-59485803D01*
X131700659Y-59502762D01*
X131739456Y-59502863D01*
X131774055Y-59502954D01*
X131774057Y-59502954D01*
X131778448Y-59502965D01*
X131848629Y-59469415D01*
X131897319Y-59408749D01*
X131913786Y-59337707D01*
X131914386Y-59335119D01*
X131914386Y-59335116D01*
X131914884Y-59332969D01*
X131914885Y-59332359D01*
X131897585Y-59256519D01*
X131849107Y-59195683D01*
X131798573Y-59171308D01*
X131783001Y-59163797D01*
X131779043Y-59161888D01*
X131774650Y-59161884D01*
X131774649Y-59161884D01*
X131740336Y-59161854D01*
X131701254Y-59161820D01*
X131631132Y-59195493D01*
X131582548Y-59256244D01*
X131581564Y-59260523D01*
X131567321Y-59322462D01*
X131565115Y-59332054D01*
X131135500Y-59332054D01*
X131135500Y-59174673D01*
X131127811Y-59161355D01*
X131123915Y-59151949D01*
X131121264Y-59142056D01*
X131119935Y-59137096D01*
X131062905Y-59080065D01*
X131062904Y-59080065D01*
X130517904Y-58535065D01*
X130503051Y-58531085D01*
X130493645Y-58527189D01*
X130484773Y-58522067D01*
X130480327Y-58519500D01*
X130399737Y-58519499D01*
X130399674Y-58519499D01*
X130399673Y-58519500D01*
X130211836Y-58519500D01*
X130184259Y-58508077D01*
X130172836Y-58480500D01*
X130181421Y-58456089D01*
X130232250Y-58392758D01*
X130232252Y-58392753D01*
X130234999Y-58389331D01*
X130255655Y-58300218D01*
X130255656Y-58299500D01*
X130240409Y-58232660D01*
X130236289Y-58214597D01*
X130236289Y-58214596D01*
X130235312Y-58210315D01*
X130178305Y-58138776D01*
X130095913Y-58099035D01*
X130091521Y-58099031D01*
X130091520Y-58099031D01*
X130081492Y-58099023D01*
X130078479Y-58099020D01*
X130050936Y-58087597D01*
X129511923Y-57548584D01*
X129500500Y-57521007D01*
X129500500Y-57434778D01*
X129511923Y-57407201D01*
X129539500Y-57395778D01*
X129567077Y-57407201D01*
X129570040Y-57410524D01*
X129590654Y-57436486D01*
X129594605Y-57438400D01*
X129594606Y-57438401D01*
X129625657Y-57453445D01*
X129660659Y-57470403D01*
X129699456Y-57470504D01*
X129734055Y-57470595D01*
X129734057Y-57470595D01*
X129738448Y-57470606D01*
X129808629Y-57437056D01*
X129828847Y-57411865D01*
X129855126Y-57379123D01*
X129881296Y-57364766D01*
X129909952Y-57373119D01*
X129913118Y-57375957D01*
X130288075Y-57750914D01*
X130299498Y-57778491D01*
X130290957Y-57802848D01*
X130284844Y-57810492D01*
X130283860Y-57814771D01*
X130266695Y-57889419D01*
X130264344Y-57899641D01*
X130284533Y-57988861D01*
X130287265Y-57992301D01*
X130287265Y-57992302D01*
X130306008Y-58015907D01*
X130341415Y-58060500D01*
X130345366Y-58062414D01*
X130345367Y-58062415D01*
X130361700Y-58070328D01*
X130423737Y-58100385D01*
X130428127Y-58100397D01*
X130428129Y-58100397D01*
X130469589Y-58100505D01*
X130515213Y-58100625D01*
X130597743Y-58061171D01*
X130600488Y-58057750D01*
X130600490Y-58057749D01*
X130652251Y-57993255D01*
X130654999Y-57989831D01*
X130670543Y-57922773D01*
X130675158Y-57902864D01*
X130675158Y-57902860D01*
X130675655Y-57900718D01*
X130675656Y-57900000D01*
X130659896Y-57830910D01*
X130658548Y-57825000D01*
X130750180Y-57825000D01*
X130750929Y-57828766D01*
X130766543Y-57907267D01*
X130766544Y-57907269D01*
X130767293Y-57911035D01*
X130769427Y-57914229D01*
X130769428Y-57914231D01*
X130791827Y-57947753D01*
X130816028Y-57983972D01*
X130828495Y-57992302D01*
X130885769Y-58030572D01*
X130885771Y-58030573D01*
X130888965Y-58032707D01*
X130892731Y-58033456D01*
X130892733Y-58033457D01*
X130971234Y-58049071D01*
X130975000Y-58049820D01*
X130978766Y-58049071D01*
X131057267Y-58033457D01*
X131057269Y-58033456D01*
X131061035Y-58032707D01*
X131064229Y-58030573D01*
X131064231Y-58030572D01*
X131121505Y-57992302D01*
X131133972Y-57983972D01*
X131158173Y-57947753D01*
X131180572Y-57914231D01*
X131180573Y-57914229D01*
X131182707Y-57911035D01*
X131183456Y-57907269D01*
X131183457Y-57907267D01*
X131199071Y-57828766D01*
X131199820Y-57825000D01*
X131197088Y-57811266D01*
X131183457Y-57742733D01*
X131183456Y-57742731D01*
X131182707Y-57738965D01*
X131180573Y-57735771D01*
X131180572Y-57735769D01*
X131147045Y-57685593D01*
X131133972Y-57666028D01*
X131114302Y-57652885D01*
X131064231Y-57619428D01*
X131064229Y-57619427D01*
X131061035Y-57617293D01*
X131057269Y-57616544D01*
X131057267Y-57616543D01*
X130978766Y-57600929D01*
X130975000Y-57600180D01*
X130971234Y-57600929D01*
X130892733Y-57616543D01*
X130892731Y-57616544D01*
X130888965Y-57617293D01*
X130885771Y-57619427D01*
X130885769Y-57619428D01*
X130835698Y-57652885D01*
X130816028Y-57666028D01*
X130802955Y-57685593D01*
X130769428Y-57735769D01*
X130769427Y-57735771D01*
X130767293Y-57738965D01*
X130766544Y-57742731D01*
X130766543Y-57742733D01*
X130752912Y-57811266D01*
X130750180Y-57825000D01*
X130658548Y-57825000D01*
X130656289Y-57815097D01*
X130656289Y-57815096D01*
X130655312Y-57810815D01*
X130648964Y-57802848D01*
X130639541Y-57791024D01*
X130629000Y-57777796D01*
X130620500Y-57753491D01*
X130620500Y-57679673D01*
X130612811Y-57666355D01*
X130608915Y-57656949D01*
X130606264Y-57647056D01*
X130604935Y-57642096D01*
X130547905Y-57585065D01*
X130547904Y-57585065D01*
X129417904Y-56455065D01*
X129403051Y-56451085D01*
X129393645Y-56447189D01*
X129384773Y-56442067D01*
X129380327Y-56439500D01*
X129299737Y-56439499D01*
X129299674Y-56439499D01*
X129299673Y-56439500D01*
X128578494Y-56439500D01*
X128550917Y-56428077D01*
X127823347Y-55700508D01*
X127811924Y-55672931D01*
X127811924Y-55540688D01*
X127823347Y-55513111D01*
X127850924Y-55501688D01*
X127867928Y-55505590D01*
X127934282Y-55537738D01*
X127973079Y-55537839D01*
X128007678Y-55537930D01*
X128007680Y-55537930D01*
X128012071Y-55537941D01*
X128082252Y-55504391D01*
X128130942Y-55443725D01*
X128142527Y-55393744D01*
X128148009Y-55370095D01*
X128148009Y-55370092D01*
X128148507Y-55367945D01*
X128148508Y-55367335D01*
X128131208Y-55291495D01*
X128111565Y-55266845D01*
X128103314Y-55238161D01*
X128117762Y-55212041D01*
X128125246Y-55207356D01*
X128126144Y-55206927D01*
X128188629Y-55177056D01*
X128237319Y-55116390D01*
X128250243Y-55060632D01*
X128254386Y-55042760D01*
X128254386Y-55042757D01*
X128254884Y-55040610D01*
X128254885Y-55040000D01*
X128237585Y-54964160D01*
X128213701Y-54934187D01*
X128205448Y-54905502D01*
X128219896Y-54879383D01*
X128248582Y-54871130D01*
X128262586Y-54875488D01*
G37*
%TD.AperFunction*%
%TA.AperFunction,Conductor*%
G36*
X118348077Y-58569916D02*
G01*
X118359500Y-58597493D01*
X118359499Y-58660326D01*
X118359500Y-58660328D01*
X118359500Y-59150327D01*
X118362067Y-59154773D01*
X118367189Y-59163645D01*
X118371085Y-59173051D01*
X118375065Y-59187904D01*
X118407086Y-59219926D01*
X118418509Y-59247502D01*
X118407086Y-59275079D01*
X118387118Y-59285753D01*
X118360207Y-59291106D01*
X118303965Y-59302293D01*
X118300771Y-59304427D01*
X118300769Y-59304428D01*
X118253012Y-59336339D01*
X118231028Y-59351028D01*
X118228894Y-59354222D01*
X118184428Y-59420769D01*
X118184427Y-59420771D01*
X118182293Y-59423965D01*
X118181544Y-59427731D01*
X118181543Y-59427733D01*
X118166579Y-59502965D01*
X118165180Y-59510000D01*
X118165929Y-59513766D01*
X118181543Y-59592267D01*
X118181544Y-59592269D01*
X118182293Y-59596035D01*
X118184427Y-59599229D01*
X118184428Y-59599231D01*
X118201927Y-59625419D01*
X118231028Y-59668972D01*
X118234222Y-59671106D01*
X118300769Y-59715572D01*
X118300771Y-59715573D01*
X118303965Y-59717707D01*
X118307731Y-59718456D01*
X118307733Y-59718457D01*
X118386234Y-59734071D01*
X118390000Y-59734820D01*
X118393766Y-59734071D01*
X118472267Y-59718457D01*
X118472269Y-59718456D01*
X118476035Y-59717707D01*
X118479229Y-59715573D01*
X118479231Y-59715572D01*
X118545778Y-59671106D01*
X118548972Y-59668972D01*
X118578073Y-59625419D01*
X118602891Y-59608835D01*
X118632167Y-59614659D01*
X118648751Y-59639477D01*
X118649500Y-59647086D01*
X118649500Y-59721507D01*
X118638077Y-59749084D01*
X118515065Y-59872096D01*
X118513736Y-59877056D01*
X118511085Y-59886949D01*
X118507189Y-59896355D01*
X118499500Y-59909673D01*
X118499499Y-59990326D01*
X118499500Y-59990328D01*
X118499500Y-64020327D01*
X118502067Y-64024773D01*
X118507189Y-64033645D01*
X118511085Y-64043051D01*
X118515065Y-64057904D01*
X118572095Y-64114935D01*
X118572096Y-64114935D01*
X119158578Y-64701417D01*
X119169038Y-64720386D01*
X119170537Y-64727009D01*
X119176461Y-64753190D01*
X119171406Y-64782609D01*
X119147030Y-64799835D01*
X119138423Y-64800797D01*
X118890736Y-64800797D01*
X118863159Y-64789374D01*
X118851736Y-64761797D01*
X118852743Y-64752991D01*
X118864386Y-64702760D01*
X118864386Y-64702757D01*
X118864884Y-64700610D01*
X118864885Y-64700000D01*
X118847585Y-64624160D01*
X118799107Y-64563324D01*
X118729043Y-64529529D01*
X118724650Y-64529525D01*
X118724649Y-64529525D01*
X118690336Y-64529495D01*
X118651254Y-64529461D01*
X118581132Y-64563134D01*
X118532548Y-64623885D01*
X118531564Y-64628164D01*
X118520658Y-64675592D01*
X118515115Y-64699695D01*
X118525808Y-64746949D01*
X118527220Y-64753190D01*
X118522166Y-64782608D01*
X118497789Y-64799835D01*
X118489182Y-64800797D01*
X118404167Y-64800797D01*
X118396859Y-64800106D01*
X118393232Y-64799414D01*
X118374244Y-64795792D01*
X118369726Y-64797156D01*
X118369725Y-64797156D01*
X118338328Y-64806635D01*
X118336360Y-64807173D01*
X118304544Y-64814988D01*
X118304543Y-64814988D01*
X118299961Y-64816114D01*
X118297039Y-64818690D01*
X118295119Y-64819681D01*
X118291693Y-64820716D01*
X118289001Y-64822804D01*
X118264755Y-64847050D01*
X118262970Y-64848727D01*
X118235279Y-64873139D01*
X118233666Y-64877340D01*
X118229594Y-64882211D01*
X117767077Y-65344728D01*
X117739500Y-65356151D01*
X117711923Y-65344728D01*
X117700500Y-65317151D01*
X117700500Y-59783488D01*
X117711923Y-59755911D01*
X117739500Y-59744488D01*
X117756507Y-59748392D01*
X117756704Y-59748488D01*
X117756709Y-59748489D01*
X117760659Y-59750403D01*
X117799456Y-59750504D01*
X117834055Y-59750595D01*
X117834057Y-59750595D01*
X117838448Y-59750606D01*
X117908629Y-59717056D01*
X117957319Y-59656390D01*
X117968342Y-59608835D01*
X117974386Y-59582760D01*
X117974386Y-59582757D01*
X117974884Y-59580610D01*
X117974885Y-59580000D01*
X117957585Y-59504160D01*
X117909107Y-59443324D01*
X117856765Y-59418077D01*
X117843001Y-59411438D01*
X117839043Y-59409529D01*
X117834650Y-59409525D01*
X117834649Y-59409525D01*
X117800336Y-59409495D01*
X117761254Y-59409461D01*
X117757295Y-59411362D01*
X117756385Y-59411799D01*
X117755047Y-59411873D01*
X117753012Y-59412335D01*
X117752933Y-59411989D01*
X117726581Y-59413442D01*
X117704345Y-59393529D01*
X117700500Y-59376644D01*
X117700500Y-58910051D01*
X117711923Y-58882474D01*
X117739500Y-58871051D01*
X117767077Y-58882474D01*
X117770040Y-58885796D01*
X117821415Y-58950500D01*
X117825366Y-58952414D01*
X117825367Y-58952415D01*
X117859122Y-58968769D01*
X117903737Y-58990385D01*
X117908127Y-58990397D01*
X117908129Y-58990397D01*
X117949589Y-58990505D01*
X117995213Y-58990625D01*
X118077743Y-58951171D01*
X118080488Y-58947750D01*
X118080490Y-58947749D01*
X118132251Y-58883255D01*
X118134999Y-58879831D01*
X118146297Y-58831089D01*
X118155158Y-58792864D01*
X118155159Y-58792859D01*
X118155655Y-58790718D01*
X118155656Y-58790000D01*
X118147206Y-58752954D01*
X118145067Y-58743576D01*
X118150071Y-58714149D01*
X118155513Y-58707326D01*
X118292923Y-58569916D01*
X118320500Y-58558493D01*
X118348077Y-58569916D01*
G37*
%TD.AperFunction*%
%TA.AperFunction,Conductor*%
G36*
X125109707Y-53721749D02*
G01*
X125452292Y-53782953D01*
X125454721Y-53783467D01*
X126039122Y-53927058D01*
X126041521Y-53927731D01*
X126615481Y-54108478D01*
X126617815Y-54109295D01*
X126881222Y-54211226D01*
X127179034Y-54326471D01*
X127181336Y-54327448D01*
X127454269Y-54453736D01*
X127727462Y-54580145D01*
X127729679Y-54581258D01*
X128125547Y-54796247D01*
X128144328Y-54819445D01*
X128141205Y-54849131D01*
X128118006Y-54867913D01*
X128106899Y-54869518D01*
X128063710Y-54869481D01*
X128041254Y-54869461D01*
X127971132Y-54903134D01*
X127922548Y-54963885D01*
X127921564Y-54968164D01*
X127907190Y-55030672D01*
X127905115Y-55039695D01*
X127912301Y-55071451D01*
X127918095Y-55097055D01*
X127922283Y-55115565D01*
X127925015Y-55119006D01*
X127942075Y-55140492D01*
X127950277Y-55169192D01*
X127935783Y-55195286D01*
X127928417Y-55199898D01*
X127879449Y-55223413D01*
X127867806Y-55229004D01*
X127838002Y-55230644D01*
X127815767Y-55210729D01*
X127811924Y-55193847D01*
X127811924Y-55068249D01*
X127804235Y-55054931D01*
X127800339Y-55045525D01*
X127798283Y-55037853D01*
X127796359Y-55030672D01*
X127739329Y-54973641D01*
X127739328Y-54973641D01*
X127355752Y-54590065D01*
X127340899Y-54586085D01*
X127331493Y-54582189D01*
X127322621Y-54577067D01*
X127318175Y-54574500D01*
X127237585Y-54574499D01*
X127237522Y-54574499D01*
X127237521Y-54574500D01*
X126426341Y-54574500D01*
X126398764Y-54563077D01*
X126159328Y-54323641D01*
X126144475Y-54319661D01*
X126135069Y-54315765D01*
X126126197Y-54310643D01*
X126121751Y-54308076D01*
X126041161Y-54308075D01*
X126041098Y-54308075D01*
X126041097Y-54308076D01*
X123998249Y-54308076D01*
X123993803Y-54310643D01*
X123984931Y-54315765D01*
X123975525Y-54319661D01*
X123960672Y-54323641D01*
X123957041Y-54327272D01*
X123903641Y-54380671D01*
X123903641Y-54380672D01*
X123638905Y-54645408D01*
X123611292Y-54656831D01*
X123605748Y-54656826D01*
X123599554Y-54656820D01*
X123571988Y-54645371D01*
X123561568Y-54626493D01*
X123559100Y-54615671D01*
X123553259Y-54590065D01*
X123549242Y-54572456D01*
X123549242Y-54572455D01*
X123548265Y-54568174D01*
X123544204Y-54563077D01*
X123503578Y-54512096D01*
X123491258Y-54496635D01*
X123408866Y-54456894D01*
X123404473Y-54456890D01*
X123404472Y-54456890D01*
X123363356Y-54456854D01*
X123317390Y-54456814D01*
X123313431Y-54458715D01*
X123276159Y-54476613D01*
X123234929Y-54496411D01*
X123177797Y-54567851D01*
X123176813Y-54572130D01*
X123161295Y-54639612D01*
X123150864Y-54658449D01*
X122753641Y-55055672D01*
X122752312Y-55060632D01*
X122749661Y-55070525D01*
X122745765Y-55079931D01*
X122738076Y-55093249D01*
X122738075Y-55136923D01*
X122738075Y-55173898D01*
X122738076Y-55173906D01*
X122738076Y-55885060D01*
X122729532Y-55909421D01*
X122726982Y-55912609D01*
X122700836Y-55927009D01*
X122672165Y-55918704D01*
X122666025Y-55912552D01*
X122656923Y-55901129D01*
X122656920Y-55901126D01*
X122654183Y-55897692D01*
X122571791Y-55857951D01*
X122567398Y-55857947D01*
X122567397Y-55857947D01*
X122526281Y-55857911D01*
X122480315Y-55857871D01*
X122397854Y-55897468D01*
X122395111Y-55900898D01*
X122390718Y-55906391D01*
X122364573Y-55920794D01*
X122360260Y-55921033D01*
X121929273Y-55921033D01*
X121929270Y-55921034D01*
X121910381Y-55921034D01*
X121905935Y-55923601D01*
X121898466Y-55927913D01*
X121889062Y-55931808D01*
X121875775Y-55935368D01*
X121862418Y-55948725D01*
X121862416Y-55948726D01*
X121762983Y-56048159D01*
X121735406Y-56059582D01*
X121707829Y-56048159D01*
X121697383Y-56029256D01*
X121682014Y-55961880D01*
X121625007Y-55890341D01*
X121557698Y-55857875D01*
X121546573Y-55852509D01*
X121542615Y-55850600D01*
X121538222Y-55850596D01*
X121538221Y-55850596D01*
X121497105Y-55850560D01*
X121451139Y-55850520D01*
X121368678Y-55890117D01*
X121366087Y-55893357D01*
X121341963Y-55901782D01*
X119474543Y-55901782D01*
X119470097Y-55904349D01*
X119461225Y-55909471D01*
X119451819Y-55913367D01*
X119436966Y-55917347D01*
X119379935Y-55974377D01*
X119379935Y-55974378D01*
X117415065Y-57939248D01*
X117413736Y-57944208D01*
X117411085Y-57954101D01*
X117407189Y-57963507D01*
X117399500Y-57976825D01*
X117399499Y-58019965D01*
X117399499Y-58057474D01*
X117399500Y-58057482D01*
X117399500Y-64918323D01*
X117388077Y-64945900D01*
X117360500Y-64957323D01*
X117358334Y-64957078D01*
X117357374Y-64956615D01*
X117354214Y-64956612D01*
X117354212Y-64956612D01*
X117312434Y-64956576D01*
X117279585Y-64956547D01*
X117275627Y-64958447D01*
X117275625Y-64958448D01*
X117235081Y-64977918D01*
X117205276Y-64979559D01*
X117183042Y-64959645D01*
X117179198Y-64942762D01*
X117179198Y-63888371D01*
X117171509Y-63875053D01*
X117167613Y-63865647D01*
X117164962Y-63855754D01*
X117163633Y-63850794D01*
X117106603Y-63793763D01*
X117106602Y-63793763D01*
X117081923Y-63769084D01*
X117070500Y-63741507D01*
X117070500Y-58108493D01*
X117081923Y-58080916D01*
X118754935Y-56407904D01*
X118758915Y-56393051D01*
X118762811Y-56383645D01*
X118767933Y-56374773D01*
X118770500Y-56370327D01*
X118770501Y-56289674D01*
X118770500Y-56289672D01*
X118770500Y-55818493D01*
X118781923Y-55790916D01*
X118947340Y-55625499D01*
X118974917Y-55614076D01*
X121321271Y-55614076D01*
X121343628Y-55621928D01*
X121344368Y-55622859D01*
X121348319Y-55624773D01*
X121348320Y-55624774D01*
X121365458Y-55633077D01*
X121426690Y-55662744D01*
X121431080Y-55662756D01*
X121431082Y-55662756D01*
X121472542Y-55662864D01*
X121518166Y-55662984D01*
X121600696Y-55623530D01*
X121603441Y-55620109D01*
X121603443Y-55620108D01*
X121655204Y-55555614D01*
X121657952Y-55552190D01*
X121669442Y-55502620D01*
X121678111Y-55465223D01*
X121678111Y-55465219D01*
X121678608Y-55463077D01*
X121678609Y-55462359D01*
X121662957Y-55393744D01*
X121659242Y-55377456D01*
X121659242Y-55377455D01*
X121658265Y-55373174D01*
X121601258Y-55301635D01*
X121544122Y-55274076D01*
X121522824Y-55263803D01*
X121518866Y-55261894D01*
X121514473Y-55261890D01*
X121514472Y-55261890D01*
X121473356Y-55261854D01*
X121427390Y-55261814D01*
X121423431Y-55263715D01*
X121399524Y-55275195D01*
X121369720Y-55276835D01*
X121347485Y-55256920D01*
X121344391Y-55232429D01*
X121344744Y-55230659D01*
X121354820Y-55180000D01*
X121353608Y-55173906D01*
X121338457Y-55097733D01*
X121338456Y-55097731D01*
X121337707Y-55093965D01*
X121335573Y-55090771D01*
X121335572Y-55090769D01*
X121300214Y-55037853D01*
X121288972Y-55021028D01*
X121252753Y-54996827D01*
X121219231Y-54974428D01*
X121219229Y-54974427D01*
X121216035Y-54972293D01*
X121212269Y-54971544D01*
X121212267Y-54971543D01*
X121133766Y-54955929D01*
X121130000Y-54955180D01*
X121126234Y-54955929D01*
X121047733Y-54971543D01*
X121047731Y-54971544D01*
X121043965Y-54972293D01*
X121040771Y-54974427D01*
X121040769Y-54974428D01*
X121007247Y-54996827D01*
X120971028Y-55021028D01*
X120959786Y-55037853D01*
X120924428Y-55090769D01*
X120924427Y-55090771D01*
X120922293Y-55093965D01*
X120921544Y-55097731D01*
X120921543Y-55097733D01*
X120906392Y-55173906D01*
X120905180Y-55180000D01*
X120905929Y-55183764D01*
X120905929Y-55183766D01*
X120922293Y-55266035D01*
X120920258Y-55266440D01*
X120920242Y-55289026D01*
X120899120Y-55310118D01*
X120884221Y-55313076D01*
X120765830Y-55313076D01*
X120738253Y-55301653D01*
X120726830Y-55274076D01*
X120733403Y-55252409D01*
X120755572Y-55219231D01*
X120755573Y-55219229D01*
X120757707Y-55216035D01*
X120758456Y-55212269D01*
X120758457Y-55212267D01*
X120774071Y-55133766D01*
X120774820Y-55130000D01*
X120770532Y-55108443D01*
X120758457Y-55047733D01*
X120758456Y-55047731D01*
X120757707Y-55043965D01*
X120755573Y-55040771D01*
X120755572Y-55040769D01*
X120717449Y-54983715D01*
X120708972Y-54971028D01*
X120672235Y-54946481D01*
X120639231Y-54924428D01*
X120639229Y-54924427D01*
X120636035Y-54922293D01*
X120632269Y-54921544D01*
X120632267Y-54921543D01*
X120553766Y-54905929D01*
X120550000Y-54905180D01*
X120546234Y-54905929D01*
X120467733Y-54921543D01*
X120467731Y-54921544D01*
X120463965Y-54922293D01*
X120460771Y-54924427D01*
X120460769Y-54924428D01*
X120427765Y-54946481D01*
X120391028Y-54971028D01*
X120382551Y-54983715D01*
X120344428Y-55040769D01*
X120344427Y-55040771D01*
X120342293Y-55043965D01*
X120341544Y-55047731D01*
X120341543Y-55047733D01*
X120329468Y-55108443D01*
X120325180Y-55130000D01*
X120325929Y-55133766D01*
X120341543Y-55212267D01*
X120341544Y-55212269D01*
X120342293Y-55216035D01*
X120344427Y-55219229D01*
X120344428Y-55219231D01*
X120366597Y-55252409D01*
X120372421Y-55281685D01*
X120355837Y-55306503D01*
X120334170Y-55313076D01*
X119651000Y-55313076D01*
X119623423Y-55301653D01*
X119612000Y-55274076D01*
X119615564Y-55258577D01*
X119617319Y-55256390D01*
X119628328Y-55208896D01*
X119634386Y-55182760D01*
X119634386Y-55182757D01*
X119634884Y-55180610D01*
X119634885Y-55180000D01*
X119617585Y-55104160D01*
X119600230Y-55082381D01*
X119591977Y-55053695D01*
X119606425Y-55027576D01*
X119630730Y-55019076D01*
X119771751Y-55019076D01*
X119785068Y-55011387D01*
X119794475Y-55007491D01*
X119804368Y-55004840D01*
X119809328Y-55003511D01*
X119866359Y-54946481D01*
X119866359Y-54946480D01*
X120060916Y-54751923D01*
X120088493Y-54740500D01*
X121410897Y-54740500D01*
X121438474Y-54751923D01*
X122098098Y-55411548D01*
X122108559Y-55430517D01*
X122115278Y-55460208D01*
X122123881Y-55498226D01*
X122180763Y-55569865D01*
X122184714Y-55571779D01*
X122184715Y-55571780D01*
X122201681Y-55580000D01*
X122263085Y-55609750D01*
X122267475Y-55609762D01*
X122267477Y-55609762D01*
X122308937Y-55609870D01*
X122354561Y-55609990D01*
X122437091Y-55570536D01*
X122439836Y-55567115D01*
X122439838Y-55567114D01*
X122491599Y-55502620D01*
X122494347Y-55499196D01*
X122509384Y-55434323D01*
X122514506Y-55412229D01*
X122514506Y-55412225D01*
X122515003Y-55410083D01*
X122515004Y-55409365D01*
X122499206Y-55340108D01*
X122495637Y-55324462D01*
X122495637Y-55324461D01*
X122494660Y-55320180D01*
X122437653Y-55248641D01*
X122385350Y-55223413D01*
X122359219Y-55210809D01*
X122355261Y-55208900D01*
X122350868Y-55208896D01*
X122350867Y-55208896D01*
X122337231Y-55208884D01*
X122309689Y-55197461D01*
X121949715Y-54837486D01*
X121567294Y-54455065D01*
X121557387Y-54452410D01*
X121552441Y-54451085D01*
X121543035Y-54447189D01*
X121534163Y-54442067D01*
X121529717Y-54439500D01*
X121449127Y-54439499D01*
X121449064Y-54439499D01*
X121449063Y-54439500D01*
X119969673Y-54439500D01*
X119965227Y-54442067D01*
X119956355Y-54447189D01*
X119946949Y-54451085D01*
X119942003Y-54452410D01*
X119932096Y-54455065D01*
X119928465Y-54458696D01*
X119875065Y-54512095D01*
X119875065Y-54512096D01*
X119680508Y-54706653D01*
X119652931Y-54718076D01*
X119251097Y-54718076D01*
X119246651Y-54720643D01*
X119237779Y-54725765D01*
X119228373Y-54729661D01*
X119213520Y-54733641D01*
X119178378Y-54768782D01*
X119156489Y-54790671D01*
X119156489Y-54790672D01*
X118889084Y-55058077D01*
X118861507Y-55069500D01*
X118550998Y-55069500D01*
X118523421Y-55058077D01*
X118511998Y-55030500D01*
X118523421Y-55002923D01*
X118531322Y-54996827D01*
X118549364Y-54986285D01*
X119008936Y-54717746D01*
X119011133Y-54716555D01*
X119549097Y-54446885D01*
X119551346Y-54445847D01*
X120005556Y-54253530D01*
X122114346Y-54253530D01*
X122115095Y-54257296D01*
X122130709Y-54335797D01*
X122130710Y-54335799D01*
X122131459Y-54339565D01*
X122133593Y-54342759D01*
X122133594Y-54342761D01*
X122148531Y-54365115D01*
X122180194Y-54412502D01*
X122183388Y-54414636D01*
X122249935Y-54459102D01*
X122249937Y-54459103D01*
X122253131Y-54461237D01*
X122256897Y-54461986D01*
X122256899Y-54461987D01*
X122335400Y-54477601D01*
X122339166Y-54478350D01*
X122342932Y-54477601D01*
X122421433Y-54461987D01*
X122421435Y-54461986D01*
X122425201Y-54461237D01*
X122428395Y-54459103D01*
X122428397Y-54459102D01*
X122494944Y-54414636D01*
X122498138Y-54412502D01*
X122529801Y-54365115D01*
X122544738Y-54342761D01*
X122544739Y-54342759D01*
X122546873Y-54339565D01*
X122547622Y-54335799D01*
X122547623Y-54335797D01*
X122563237Y-54257296D01*
X122563986Y-54253530D01*
X122556210Y-54214435D01*
X122547623Y-54171263D01*
X122547622Y-54171261D01*
X122546873Y-54167495D01*
X122544739Y-54164301D01*
X122544738Y-54164299D01*
X122500272Y-54097752D01*
X122498138Y-54094558D01*
X122478468Y-54081415D01*
X122428397Y-54047958D01*
X122428395Y-54047957D01*
X122425201Y-54045823D01*
X122421435Y-54045074D01*
X122421433Y-54045073D01*
X122342932Y-54029459D01*
X122339166Y-54028710D01*
X122335400Y-54029459D01*
X122256899Y-54045073D01*
X122256897Y-54045074D01*
X122253131Y-54045823D01*
X122249937Y-54047957D01*
X122249935Y-54047958D01*
X122199864Y-54081415D01*
X122180194Y-54094558D01*
X122178060Y-54097752D01*
X122133594Y-54164299D01*
X122133593Y-54164301D01*
X122131459Y-54167495D01*
X122130710Y-54171261D01*
X122130709Y-54171263D01*
X122122122Y-54214435D01*
X122114346Y-54253530D01*
X120005556Y-54253530D01*
X120105480Y-54211221D01*
X120107789Y-54210330D01*
X120448419Y-54091223D01*
X120675824Y-54011707D01*
X120678211Y-54010957D01*
X121257801Y-53849156D01*
X121260230Y-53848561D01*
X121291062Y-53842051D01*
X121849013Y-53724244D01*
X121851450Y-53723810D01*
X122015724Y-53700000D01*
X124987965Y-53700000D01*
X125109707Y-53721749D01*
G37*
%TD.AperFunction*%
%TA.AperFunction,Conductor*%
G36*
X121249923Y-57348620D02*
G01*
X121251415Y-57350500D01*
X121254937Y-57352206D01*
X121269183Y-57378119D01*
X121260856Y-57406784D01*
X121234700Y-57421164D01*
X121230419Y-57421400D01*
X120971754Y-57421400D01*
X120971751Y-57421401D01*
X120952862Y-57421401D01*
X120948416Y-57423968D01*
X120940947Y-57428280D01*
X120931543Y-57432175D01*
X120918256Y-57435735D01*
X120904899Y-57449092D01*
X120904897Y-57449093D01*
X120842474Y-57511516D01*
X120824990Y-57521610D01*
X120812096Y-57525065D01*
X120755065Y-57582096D01*
X120753736Y-57587056D01*
X120742950Y-57627312D01*
X120739500Y-57640186D01*
X120739500Y-57859938D01*
X120728077Y-57887515D01*
X120453300Y-58162293D01*
X120425723Y-58173716D01*
X120115457Y-58173716D01*
X120111011Y-58176283D01*
X120102139Y-58181405D01*
X120092733Y-58185301D01*
X120077880Y-58189281D01*
X120020849Y-58246311D01*
X120020849Y-58246312D01*
X119533989Y-58733172D01*
X119532660Y-58738132D01*
X119530009Y-58748025D01*
X119526113Y-58757431D01*
X119518424Y-58770749D01*
X119518423Y-58817369D01*
X119518423Y-58851398D01*
X119518424Y-58851406D01*
X119518424Y-61209556D01*
X119509883Y-61233913D01*
X119491274Y-61257182D01*
X119465131Y-61271585D01*
X119436460Y-61263283D01*
X119433240Y-61260401D01*
X119331846Y-61159007D01*
X119320423Y-61131430D01*
X119320423Y-58408570D01*
X119331846Y-58380993D01*
X119677820Y-58035019D01*
X119705397Y-58023596D01*
X120014383Y-58023596D01*
X120023265Y-58018468D01*
X120027701Y-58015907D01*
X120037107Y-58012011D01*
X120047000Y-58009360D01*
X120051960Y-58008031D01*
X120108991Y-57951001D01*
X120108991Y-57951000D01*
X120708068Y-57351923D01*
X120735645Y-57340500D01*
X121226799Y-57340500D01*
X121249923Y-57348620D01*
G37*
%TD.AperFunction*%
%TA.AperFunction,Conductor*%
G36*
X126950691Y-58345499D02*
G01*
X126962114Y-58373076D01*
X126950691Y-58400653D01*
X126931754Y-58411107D01*
X126928599Y-58411824D01*
X126924207Y-58411820D01*
X126854085Y-58445493D01*
X126805501Y-58506244D01*
X126804517Y-58510523D01*
X126789903Y-58574076D01*
X126788068Y-58582054D01*
X126797129Y-58622096D01*
X126803969Y-58652323D01*
X126805236Y-58657924D01*
X126807968Y-58661365D01*
X126818340Y-58674428D01*
X126853607Y-58718845D01*
X126857558Y-58720759D01*
X126857559Y-58720760D01*
X126883178Y-58733172D01*
X126923612Y-58752762D01*
X126962409Y-58752863D01*
X126997008Y-58752954D01*
X126997010Y-58752954D01*
X127001401Y-58752965D01*
X127071582Y-58719415D01*
X127120272Y-58658749D01*
X127133979Y-58599614D01*
X127137339Y-58585119D01*
X127137339Y-58585116D01*
X127137837Y-58582969D01*
X127137838Y-58582359D01*
X127137226Y-58579673D01*
X127134091Y-58565931D01*
X127139095Y-58536504D01*
X127163441Y-58519235D01*
X127192868Y-58524239D01*
X127199691Y-58529681D01*
X127722592Y-59052582D01*
X127722594Y-59052583D01*
X127737097Y-59067086D01*
X127742054Y-59068414D01*
X127742055Y-59068415D01*
X127751949Y-59071066D01*
X127761354Y-59074962D01*
X127770227Y-59080085D01*
X127770231Y-59080086D01*
X127774674Y-59082651D01*
X127855265Y-59082652D01*
X127855328Y-59082652D01*
X127855329Y-59082651D01*
X128869356Y-59082651D01*
X128896933Y-59094074D01*
X129019358Y-59216499D01*
X129030781Y-59244076D01*
X129019358Y-59271653D01*
X128991781Y-59283076D01*
X128936111Y-59283075D01*
X128936098Y-59283075D01*
X128936097Y-59283076D01*
X127142069Y-59283076D01*
X127114492Y-59271653D01*
X126824609Y-58981770D01*
X126814163Y-58962867D01*
X126799242Y-58897457D01*
X126798265Y-58893174D01*
X126741258Y-58821635D01*
X126676410Y-58790356D01*
X126662824Y-58783803D01*
X126658866Y-58781894D01*
X126654473Y-58781890D01*
X126654472Y-58781890D01*
X126640836Y-58781878D01*
X126613294Y-58770455D01*
X126243492Y-58400653D01*
X126232069Y-58373076D01*
X126243492Y-58345499D01*
X126271069Y-58334076D01*
X126923114Y-58334076D01*
X126950691Y-58345499D01*
G37*
%TD.AperFunction*%
%TA.AperFunction,Conductor*%
G36*
X127499850Y-56732689D02*
G01*
X128923172Y-58156011D01*
X128928132Y-58157340D01*
X128938025Y-58159991D01*
X128947432Y-58163887D01*
X128960749Y-58171576D01*
X129041339Y-58171577D01*
X129041402Y-58171577D01*
X129041403Y-58171576D01*
X129142583Y-58171576D01*
X129170160Y-58182999D01*
X129352404Y-58365243D01*
X129363827Y-58392820D01*
X129352404Y-58420397D01*
X129324795Y-58431820D01*
X129322534Y-58431818D01*
X129317390Y-58431814D01*
X129234929Y-58471411D01*
X129232338Y-58474651D01*
X129208214Y-58483076D01*
X128292069Y-58483076D01*
X128264492Y-58471653D01*
X127478150Y-57685311D01*
X127463297Y-57681331D01*
X127453891Y-57677435D01*
X127445019Y-57672313D01*
X127440573Y-57669746D01*
X127359983Y-57669745D01*
X127359920Y-57669745D01*
X127359919Y-57669746D01*
X125668662Y-57669746D01*
X125644656Y-57661339D01*
X125642238Y-57658305D01*
X125559846Y-57618564D01*
X125555453Y-57618560D01*
X125555452Y-57618560D01*
X125514336Y-57618524D01*
X125468370Y-57618484D01*
X125385909Y-57658081D01*
X125381327Y-57663811D01*
X125355184Y-57678214D01*
X125326512Y-57669912D01*
X125320374Y-57663764D01*
X125282060Y-57615683D01*
X125224392Y-57587867D01*
X125215954Y-57583797D01*
X125211996Y-57581888D01*
X125207603Y-57581884D01*
X125207602Y-57581884D01*
X125173289Y-57581854D01*
X125134207Y-57581820D01*
X125064085Y-57615493D01*
X125015501Y-57676244D01*
X125014517Y-57680523D01*
X125001392Y-57737600D01*
X124998068Y-57752054D01*
X125003655Y-57776744D01*
X125013093Y-57818455D01*
X125008038Y-57847873D01*
X124983662Y-57865100D01*
X124954244Y-57860045D01*
X124947478Y-57854639D01*
X124699609Y-57606770D01*
X124689163Y-57587867D01*
X124674242Y-57522457D01*
X124673265Y-57518174D01*
X124669840Y-57513876D01*
X124618996Y-57450070D01*
X124618994Y-57450068D01*
X124616258Y-57446635D01*
X124607804Y-57442557D01*
X124587928Y-57420287D01*
X124589621Y-57390486D01*
X124607927Y-57372244D01*
X124611734Y-57370424D01*
X124615696Y-57368530D01*
X124616942Y-57366978D01*
X124639633Y-57359076D01*
X126771751Y-57359076D01*
X126784071Y-57351963D01*
X126785069Y-57351387D01*
X126794475Y-57347491D01*
X126804368Y-57344840D01*
X126809328Y-57343511D01*
X126821242Y-57331597D01*
X127537517Y-57331597D01*
X127545758Y-57368016D01*
X127553580Y-57402582D01*
X127554685Y-57407467D01*
X127557417Y-57410908D01*
X127567787Y-57423968D01*
X127603056Y-57468388D01*
X127607007Y-57470302D01*
X127607008Y-57470303D01*
X127638058Y-57485346D01*
X127673061Y-57502305D01*
X127711858Y-57502406D01*
X127746457Y-57502497D01*
X127746459Y-57502497D01*
X127750850Y-57502508D01*
X127821031Y-57468958D01*
X127869721Y-57408292D01*
X127881724Y-57356509D01*
X127886788Y-57334662D01*
X127886788Y-57334659D01*
X127887286Y-57332512D01*
X127887287Y-57331902D01*
X127869987Y-57256062D01*
X127821509Y-57195226D01*
X127751445Y-57161431D01*
X127747052Y-57161427D01*
X127747051Y-57161427D01*
X127712738Y-57161397D01*
X127673656Y-57161363D01*
X127603534Y-57195036D01*
X127554950Y-57255787D01*
X127553966Y-57260066D01*
X127540079Y-57320457D01*
X127537517Y-57331597D01*
X126821242Y-57331597D01*
X126866359Y-57286481D01*
X126866359Y-57286480D01*
X126923378Y-57229461D01*
X126980836Y-57172004D01*
X127008515Y-57160581D01*
X127025213Y-57160625D01*
X127107743Y-57121171D01*
X127110488Y-57117750D01*
X127110490Y-57117749D01*
X127162251Y-57053255D01*
X127164999Y-57049831D01*
X127177947Y-56993970D01*
X127185158Y-56962864D01*
X127185158Y-56962860D01*
X127185655Y-56960718D01*
X127185656Y-56960000D01*
X127185165Y-56957849D01*
X127184921Y-56955666D01*
X127185870Y-56955560D01*
X127190349Y-56929215D01*
X127214696Y-56911945D01*
X127223469Y-56910968D01*
X127283166Y-56911125D01*
X127365696Y-56871671D01*
X127368441Y-56868250D01*
X127368443Y-56868249D01*
X127420204Y-56803755D01*
X127422952Y-56800331D01*
X127423943Y-56796056D01*
X127423944Y-56796054D01*
X127434280Y-56751460D01*
X127451635Y-56727174D01*
X127481079Y-56722273D01*
X127499850Y-56732689D01*
G37*
%TD.AperFunction*%
%TA.AperFunction,Conductor*%
G36*
X123083689Y-57699810D02*
G01*
X123097316Y-57721619D01*
X123100216Y-57734433D01*
X123103856Y-57750521D01*
X123152227Y-57811442D01*
X123156178Y-57813356D01*
X123156179Y-57813357D01*
X123204242Y-57836643D01*
X123224079Y-57858947D01*
X123222335Y-57888746D01*
X123204118Y-57906898D01*
X123195092Y-57911232D01*
X123195091Y-57911233D01*
X123191132Y-57913134D01*
X123142548Y-57973885D01*
X123141564Y-57978164D01*
X123128490Y-58035019D01*
X123125115Y-58049695D01*
X123142283Y-58125565D01*
X123143439Y-58127020D01*
X123144972Y-58155355D01*
X123125038Y-58177572D01*
X123108187Y-58181400D01*
X122943564Y-58181400D01*
X122915987Y-58169977D01*
X122845103Y-58099093D01*
X122845101Y-58099092D01*
X122831744Y-58085735D01*
X122818457Y-58082175D01*
X122809053Y-58078280D01*
X122801584Y-58073968D01*
X122797138Y-58071401D01*
X122778248Y-58071401D01*
X122778246Y-58071400D01*
X122114252Y-58071400D01*
X122086675Y-58059977D01*
X122075252Y-58032400D01*
X122086675Y-58004823D01*
X122221475Y-57870023D01*
X122249052Y-57858600D01*
X122498246Y-57858600D01*
X122498249Y-57858599D01*
X122517138Y-57858599D01*
X122529053Y-57851720D01*
X122538457Y-57847825D01*
X122551744Y-57844265D01*
X122565101Y-57830908D01*
X122565103Y-57830907D01*
X122684788Y-57711222D01*
X122712365Y-57699799D01*
X122739942Y-57711222D01*
X122742908Y-57714548D01*
X122773002Y-57752450D01*
X122776953Y-57754364D01*
X122776954Y-57754365D01*
X122808004Y-57769408D01*
X122843007Y-57786367D01*
X122881804Y-57786468D01*
X122916403Y-57786559D01*
X122916405Y-57786559D01*
X122920796Y-57786570D01*
X122990977Y-57753020D01*
X123028864Y-57705814D01*
X123055032Y-57691458D01*
X123083689Y-57699810D01*
G37*
%TD.AperFunction*%
%TA.AperFunction,Conductor*%
G36*
X123175171Y-56913955D02*
G01*
X123182766Y-56924682D01*
X123184448Y-56928194D01*
X123185418Y-56932479D01*
X123188148Y-56935918D01*
X123188149Y-56935919D01*
X123216967Y-56972214D01*
X123233789Y-56993400D01*
X123237740Y-56995314D01*
X123237741Y-56995315D01*
X123239314Y-56996077D01*
X123303794Y-57027317D01*
X123342591Y-57027418D01*
X123377190Y-57027509D01*
X123377192Y-57027509D01*
X123381583Y-57027520D01*
X123451764Y-56993970D01*
X123476275Y-56963430D01*
X123502443Y-56949074D01*
X123531100Y-56957426D01*
X123545457Y-56983596D01*
X123545689Y-56987842D01*
X123545689Y-57642147D01*
X123534266Y-57669724D01*
X123502870Y-57701120D01*
X123475293Y-57712543D01*
X123447716Y-57701120D01*
X123436535Y-57677877D01*
X123436335Y-57676091D01*
X123436457Y-57675566D01*
X123436458Y-57674956D01*
X123419158Y-57599116D01*
X123370680Y-57538280D01*
X123328996Y-57518174D01*
X123304574Y-57506394D01*
X123300616Y-57504485D01*
X123296223Y-57504481D01*
X123296222Y-57504481D01*
X123261909Y-57504451D01*
X123222827Y-57504417D01*
X123152705Y-57538090D01*
X123115137Y-57585067D01*
X123115099Y-57585114D01*
X123088954Y-57599517D01*
X123060283Y-57591214D01*
X123046618Y-57569430D01*
X123040910Y-57544407D01*
X123039933Y-57540124D01*
X123034760Y-57533632D01*
X122994193Y-57482723D01*
X122994191Y-57482721D01*
X122991455Y-57479288D01*
X122987500Y-57477380D01*
X122984067Y-57474640D01*
X122985345Y-57473040D01*
X122970642Y-57456577D01*
X122972324Y-57426775D01*
X122979880Y-57416130D01*
X122984219Y-57411791D01*
X122984220Y-57411789D01*
X122997577Y-57398432D01*
X123001137Y-57385145D01*
X123005032Y-57375741D01*
X123009344Y-57368272D01*
X123011911Y-57363826D01*
X123011911Y-57344937D01*
X123011912Y-57344934D01*
X123011912Y-57038214D01*
X123023335Y-57010637D01*
X123120017Y-56913955D01*
X123147594Y-56902532D01*
X123175171Y-56913955D01*
G37*
%TD.AperFunction*%
%TA.AperFunction,Conductor*%
G36*
X119971160Y-56857999D02*
G01*
X119982583Y-56885576D01*
X119971160Y-56913153D01*
X119622660Y-57261653D01*
X119595083Y-57273076D01*
X119213917Y-57273076D01*
X119186340Y-57261653D01*
X119174917Y-57234076D01*
X119186340Y-57206499D01*
X119534840Y-56857999D01*
X119562417Y-56846576D01*
X119943583Y-56846576D01*
X119971160Y-56857999D01*
G37*
%TD.AperFunction*%
%TA.AperFunction,Conductor*%
G36*
X124795177Y-55741874D02*
G01*
X124805638Y-55760843D01*
X124807986Y-55771220D01*
X124864868Y-55842859D01*
X124868819Y-55844773D01*
X124868820Y-55844774D01*
X124895861Y-55857875D01*
X124947190Y-55882744D01*
X124951580Y-55882756D01*
X124951582Y-55882756D01*
X124993042Y-55882864D01*
X125038666Y-55882984D01*
X125121196Y-55843530D01*
X125122442Y-55841978D01*
X125145133Y-55834076D01*
X126098114Y-55834076D01*
X126125691Y-55845499D01*
X126137114Y-55873076D01*
X126125691Y-55900653D01*
X126106754Y-55911107D01*
X126103599Y-55911824D01*
X126099207Y-55911820D01*
X126029085Y-55945493D01*
X125980501Y-56006244D01*
X125979517Y-56010523D01*
X125964874Y-56074202D01*
X125963068Y-56082054D01*
X125980236Y-56157924D01*
X126028607Y-56218845D01*
X126032558Y-56220759D01*
X126032559Y-56220760D01*
X126057530Y-56232858D01*
X126098612Y-56252762D01*
X126137409Y-56252863D01*
X126172008Y-56252954D01*
X126172010Y-56252954D01*
X126176401Y-56252965D01*
X126246582Y-56219415D01*
X126295272Y-56158749D01*
X126304644Y-56118317D01*
X126312339Y-56085119D01*
X126312339Y-56085116D01*
X126312837Y-56082969D01*
X126312838Y-56082359D01*
X126295538Y-56006519D01*
X126247060Y-55945683D01*
X126176996Y-55911888D01*
X126172601Y-55911884D01*
X126169143Y-55911092D01*
X126144813Y-55893800D01*
X126139835Y-55864368D01*
X126157127Y-55840038D01*
X126177851Y-55834076D01*
X126897931Y-55834076D01*
X126925508Y-55845499D01*
X127054501Y-55974492D01*
X127065924Y-56002069D01*
X127065924Y-56276751D01*
X127068491Y-56281197D01*
X127073613Y-56290069D01*
X127077509Y-56299475D01*
X127081489Y-56314328D01*
X127138519Y-56371359D01*
X127138520Y-56371359D01*
X127212291Y-56445130D01*
X127223714Y-56472707D01*
X127212291Y-56500284D01*
X127194767Y-56509957D01*
X127192390Y-56509955D01*
X127188434Y-56511854D01*
X127188432Y-56511855D01*
X127146060Y-56532202D01*
X127109929Y-56549552D01*
X127109292Y-56550348D01*
X127087162Y-56558076D01*
X126573249Y-56558076D01*
X126568803Y-56560643D01*
X126559931Y-56565765D01*
X126550525Y-56569661D01*
X126535672Y-56573641D01*
X126501568Y-56607744D01*
X126478641Y-56630671D01*
X126478641Y-56630672D01*
X126437937Y-56671376D01*
X126410360Y-56682799D01*
X124634580Y-56682799D01*
X124610574Y-56674392D01*
X124608156Y-56671358D01*
X124525764Y-56631617D01*
X124521371Y-56631613D01*
X124521370Y-56631613D01*
X124512625Y-56631606D01*
X124508528Y-56631602D01*
X124480961Y-56620155D01*
X124469562Y-56592568D01*
X124480985Y-56565025D01*
X124700907Y-56345103D01*
X124700908Y-56345101D01*
X124714265Y-56331744D01*
X124717825Y-56318457D01*
X124721720Y-56309053D01*
X124726032Y-56301584D01*
X124728599Y-56297138D01*
X124728599Y-56278249D01*
X124728600Y-56278246D01*
X124728600Y-55769451D01*
X124740023Y-55741874D01*
X124767600Y-55730451D01*
X124795177Y-55741874D01*
G37*
%TD.AperFunction*%
%TA.AperFunction,Conductor*%
G36*
X125765508Y-54855499D02*
G01*
X126019944Y-55109935D01*
X126024904Y-55111264D01*
X126034797Y-55113915D01*
X126044204Y-55117811D01*
X126057521Y-55125500D01*
X126138112Y-55125501D01*
X126138175Y-55125501D01*
X126138176Y-55125500D01*
X126996507Y-55125500D01*
X127024084Y-55136923D01*
X127263077Y-55375916D01*
X127274500Y-55403493D01*
X127274500Y-55674659D01*
X127263077Y-55702236D01*
X127235500Y-55713659D01*
X127207923Y-55702236D01*
X127054328Y-55548641D01*
X127039475Y-55544661D01*
X127030069Y-55540765D01*
X127021197Y-55535643D01*
X127016751Y-55533076D01*
X126936161Y-55533075D01*
X126936098Y-55533075D01*
X126936097Y-55533076D01*
X125148182Y-55533076D01*
X125124176Y-55524669D01*
X125121758Y-55521635D01*
X125039366Y-55481894D01*
X125034973Y-55481890D01*
X125034972Y-55481890D01*
X124993856Y-55481854D01*
X124947890Y-55481814D01*
X124943931Y-55483715D01*
X124916146Y-55497057D01*
X124886342Y-55498697D01*
X124864107Y-55478782D01*
X124862467Y-55448978D01*
X124871687Y-55434323D01*
X124925982Y-55380028D01*
X124953559Y-55368605D01*
X124970563Y-55372508D01*
X124991690Y-55382744D01*
X124996079Y-55382756D01*
X124996081Y-55382756D01*
X125037654Y-55382865D01*
X125083166Y-55382984D01*
X125165696Y-55343530D01*
X125168441Y-55340109D01*
X125168443Y-55340108D01*
X125220204Y-55275614D01*
X125222952Y-55272190D01*
X125235228Y-55219231D01*
X125243111Y-55185223D01*
X125243111Y-55185219D01*
X125243608Y-55183077D01*
X125243609Y-55182359D01*
X125230053Y-55122933D01*
X125224242Y-55097456D01*
X125224242Y-55097455D01*
X125223265Y-55093174D01*
X125214665Y-55082381D01*
X125203403Y-55068249D01*
X125166258Y-55021635D01*
X125121155Y-54999880D01*
X125087824Y-54983803D01*
X125083866Y-54981894D01*
X125079473Y-54981890D01*
X125079472Y-54981890D01*
X125038356Y-54981854D01*
X124992390Y-54981814D01*
X124909929Y-55021411D01*
X124907185Y-55024842D01*
X124897978Y-55036354D01*
X124887020Y-55045770D01*
X124878588Y-55050638D01*
X124869184Y-55054534D01*
X124855897Y-55058094D01*
X124842540Y-55071451D01*
X124842538Y-55071452D01*
X124479093Y-55434897D01*
X124479092Y-55434899D01*
X124465735Y-55448256D01*
X124464045Y-55454563D01*
X124462175Y-55461543D01*
X124458280Y-55470947D01*
X124451401Y-55482862D01*
X124451401Y-55501751D01*
X124451400Y-55501754D01*
X124451400Y-56186436D01*
X124439977Y-56214013D01*
X124263352Y-56390638D01*
X124235775Y-56402061D01*
X124208198Y-56390638D01*
X124205282Y-56387374D01*
X124172060Y-56345683D01*
X124115615Y-56318457D01*
X124105954Y-56313797D01*
X124101996Y-56311888D01*
X124097603Y-56311884D01*
X124097602Y-56311884D01*
X124063289Y-56311854D01*
X124024207Y-56311820D01*
X123954085Y-56345493D01*
X123905501Y-56406244D01*
X123904517Y-56410523D01*
X123899897Y-56430614D01*
X123882585Y-56454930D01*
X123853149Y-56459882D01*
X123828833Y-56442570D01*
X123822889Y-56421874D01*
X123822889Y-56056927D01*
X123834312Y-56029350D01*
X124019338Y-55844324D01*
X124047017Y-55832901D01*
X124058529Y-55832931D01*
X124078666Y-55832984D01*
X124161196Y-55793530D01*
X124163941Y-55790109D01*
X124163943Y-55790108D01*
X124215704Y-55725614D01*
X124218452Y-55722190D01*
X124228976Y-55676786D01*
X124238611Y-55635223D01*
X124238611Y-55635219D01*
X124239108Y-55633077D01*
X124239109Y-55632359D01*
X124225007Y-55570536D01*
X124219742Y-55547456D01*
X124219742Y-55547455D01*
X124218765Y-55543174D01*
X124210718Y-55533075D01*
X124194809Y-55513111D01*
X124161758Y-55471635D01*
X124108225Y-55445814D01*
X124088349Y-55423545D01*
X124090041Y-55393744D01*
X124112310Y-55373868D01*
X124125168Y-55371687D01*
X124160150Y-55371687D01*
X124179649Y-55376911D01*
X124191211Y-55383587D01*
X124271865Y-55383587D01*
X124292476Y-55371687D01*
X124321736Y-55354794D01*
X124321738Y-55354792D01*
X124323947Y-55353517D01*
X124483107Y-55194357D01*
X124510786Y-55182934D01*
X124514454Y-55182943D01*
X124525650Y-55182973D01*
X124608180Y-55143519D01*
X124610925Y-55140098D01*
X124610927Y-55140097D01*
X124662688Y-55075603D01*
X124665436Y-55072179D01*
X124677594Y-55019726D01*
X124685595Y-54985212D01*
X124685595Y-54985208D01*
X124686092Y-54983066D01*
X124686093Y-54982348D01*
X124665749Y-54893163D01*
X124667543Y-54892754D01*
X124666288Y-54870175D01*
X124686190Y-54847929D01*
X124703092Y-54844076D01*
X125737931Y-54844076D01*
X125765508Y-54855499D01*
G37*
%TD.AperFunction*%
%TD*%
M02*
