%TF.GenerationSoftware,KiCad,Pcbnew,8.0.3*%
%TF.CreationDate,2024-10-01T18:17:42-04:00*%
%TF.ProjectId,headstage-16stim,68656164-7374-4616-9765-2d3136737469,B*%
%TF.SameCoordinates,Original*%
%TF.FileFunction,AssemblyDrawing,Top*%
%FSLAX46Y46*%
G04 Gerber Fmt 4.6, Leading zero omitted, Abs format (unit mm)*
G04 Created by KiCad (PCBNEW 8.0.3) date 2024-10-01 18:17:42*
%MOMM*%
%LPD*%
G01*
G04 APERTURE LIST*
%ADD10C,0.100000*%
%ADD11C,0.050000*%
%ADD12C,0.150000*%
%ADD13C,0.075000*%
%ADD14C,0.040000*%
G04 APERTURE END LIST*
D10*
X126200000Y-57900000D02*
X126000000Y-58300000D01*
X122335000Y-60750000D02*
X124985000Y-60750000D01*
X124985000Y-62280000D01*
X122335000Y-62280000D01*
X122335000Y-60750000D01*
X126400000Y-58300000D02*
X126200000Y-57900000D01*
X126000000Y-58300000D02*
X126400000Y-58300000D01*
X116900000Y-65350000D02*
X118000000Y-65350000D01*
X118000000Y-65850000D01*
X116900000Y-65850000D01*
X116900000Y-65350000D01*
X121460000Y-59290000D02*
X129760000Y-59290000D01*
X129760000Y-60110000D01*
X121460000Y-60110000D01*
X121460000Y-59290000D01*
D11*
X133000000Y-63000000D02*
G75*
G02*
X114000000Y-63000000I-9500000J0D01*
G01*
X114000000Y-63000000D02*
G75*
G02*
X133000000Y-63000000I9500000J0D01*
G01*
D12*
X121942857Y-84354819D02*
X122276190Y-85354819D01*
X122276190Y-85354819D02*
X122609523Y-84354819D01*
X122942857Y-84973866D02*
X123704762Y-84973866D01*
X124752380Y-85259580D02*
X124704761Y-85307200D01*
X124704761Y-85307200D02*
X124561904Y-85354819D01*
X124561904Y-85354819D02*
X124466666Y-85354819D01*
X124466666Y-85354819D02*
X124323809Y-85307200D01*
X124323809Y-85307200D02*
X124228571Y-85211961D01*
X124228571Y-85211961D02*
X124180952Y-85116723D01*
X124180952Y-85116723D02*
X124133333Y-84926247D01*
X124133333Y-84926247D02*
X124133333Y-84783390D01*
X124133333Y-84783390D02*
X124180952Y-84592914D01*
X124180952Y-84592914D02*
X124228571Y-84497676D01*
X124228571Y-84497676D02*
X124323809Y-84402438D01*
X124323809Y-84402438D02*
X124466666Y-84354819D01*
X124466666Y-84354819D02*
X124561904Y-84354819D01*
X124561904Y-84354819D02*
X124704761Y-84402438D01*
X124704761Y-84402438D02*
X124752380Y-84450057D01*
X125180952Y-84354819D02*
X125180952Y-85164342D01*
X125180952Y-85164342D02*
X125228571Y-85259580D01*
X125228571Y-85259580D02*
X125276190Y-85307200D01*
X125276190Y-85307200D02*
X125371428Y-85354819D01*
X125371428Y-85354819D02*
X125561904Y-85354819D01*
X125561904Y-85354819D02*
X125657142Y-85307200D01*
X125657142Y-85307200D02*
X125704761Y-85259580D01*
X125704761Y-85259580D02*
X125752380Y-85164342D01*
X125752380Y-85164342D02*
X125752380Y-84354819D01*
X126085714Y-84354819D02*
X126657142Y-84354819D01*
X126371428Y-85354819D02*
X126371428Y-84354819D01*
X120042857Y-28554819D02*
X120376190Y-29554819D01*
X120376190Y-29554819D02*
X120709523Y-28554819D01*
X121042857Y-29173866D02*
X121804762Y-29173866D01*
X122852380Y-29459580D02*
X122804761Y-29507200D01*
X122804761Y-29507200D02*
X122661904Y-29554819D01*
X122661904Y-29554819D02*
X122566666Y-29554819D01*
X122566666Y-29554819D02*
X122423809Y-29507200D01*
X122423809Y-29507200D02*
X122328571Y-29411961D01*
X122328571Y-29411961D02*
X122280952Y-29316723D01*
X122280952Y-29316723D02*
X122233333Y-29126247D01*
X122233333Y-29126247D02*
X122233333Y-28983390D01*
X122233333Y-28983390D02*
X122280952Y-28792914D01*
X122280952Y-28792914D02*
X122328571Y-28697676D01*
X122328571Y-28697676D02*
X122423809Y-28602438D01*
X122423809Y-28602438D02*
X122566666Y-28554819D01*
X122566666Y-28554819D02*
X122661904Y-28554819D01*
X122661904Y-28554819D02*
X122804761Y-28602438D01*
X122804761Y-28602438D02*
X122852380Y-28650057D01*
X123280952Y-28554819D02*
X123280952Y-29364342D01*
X123280952Y-29364342D02*
X123328571Y-29459580D01*
X123328571Y-29459580D02*
X123376190Y-29507200D01*
X123376190Y-29507200D02*
X123471428Y-29554819D01*
X123471428Y-29554819D02*
X123661904Y-29554819D01*
X123661904Y-29554819D02*
X123757142Y-29507200D01*
X123757142Y-29507200D02*
X123804761Y-29459580D01*
X123804761Y-29459580D02*
X123852380Y-29364342D01*
X123852380Y-29364342D02*
X123852380Y-28554819D01*
X124185714Y-28554819D02*
X124757142Y-28554819D01*
X124471428Y-29554819D02*
X124471428Y-28554819D01*
X144254819Y-59657142D02*
X145254819Y-59323809D01*
X145254819Y-59323809D02*
X144254819Y-58990476D01*
X144873866Y-58657142D02*
X144873866Y-57895238D01*
X145159580Y-56847619D02*
X145207200Y-56895238D01*
X145207200Y-56895238D02*
X145254819Y-57038095D01*
X145254819Y-57038095D02*
X145254819Y-57133333D01*
X145254819Y-57133333D02*
X145207200Y-57276190D01*
X145207200Y-57276190D02*
X145111961Y-57371428D01*
X145111961Y-57371428D02*
X145016723Y-57419047D01*
X145016723Y-57419047D02*
X144826247Y-57466666D01*
X144826247Y-57466666D02*
X144683390Y-57466666D01*
X144683390Y-57466666D02*
X144492914Y-57419047D01*
X144492914Y-57419047D02*
X144397676Y-57371428D01*
X144397676Y-57371428D02*
X144302438Y-57276190D01*
X144302438Y-57276190D02*
X144254819Y-57133333D01*
X144254819Y-57133333D02*
X144254819Y-57038095D01*
X144254819Y-57038095D02*
X144302438Y-56895238D01*
X144302438Y-56895238D02*
X144350057Y-56847619D01*
X144254819Y-56419047D02*
X145064342Y-56419047D01*
X145064342Y-56419047D02*
X145159580Y-56371428D01*
X145159580Y-56371428D02*
X145207200Y-56323809D01*
X145207200Y-56323809D02*
X145254819Y-56228571D01*
X145254819Y-56228571D02*
X145254819Y-56038095D01*
X145254819Y-56038095D02*
X145207200Y-55942857D01*
X145207200Y-55942857D02*
X145159580Y-55895238D01*
X145159580Y-55895238D02*
X145064342Y-55847619D01*
X145064342Y-55847619D02*
X144254819Y-55847619D01*
X144254819Y-55514285D02*
X144254819Y-54942857D01*
X145254819Y-55228571D02*
X144254819Y-55228571D01*
X101754819Y-60557142D02*
X102754819Y-60223809D01*
X102754819Y-60223809D02*
X101754819Y-59890476D01*
X102373866Y-59557142D02*
X102373866Y-58795238D01*
X102659580Y-57747619D02*
X102707200Y-57795238D01*
X102707200Y-57795238D02*
X102754819Y-57938095D01*
X102754819Y-57938095D02*
X102754819Y-58033333D01*
X102754819Y-58033333D02*
X102707200Y-58176190D01*
X102707200Y-58176190D02*
X102611961Y-58271428D01*
X102611961Y-58271428D02*
X102516723Y-58319047D01*
X102516723Y-58319047D02*
X102326247Y-58366666D01*
X102326247Y-58366666D02*
X102183390Y-58366666D01*
X102183390Y-58366666D02*
X101992914Y-58319047D01*
X101992914Y-58319047D02*
X101897676Y-58271428D01*
X101897676Y-58271428D02*
X101802438Y-58176190D01*
X101802438Y-58176190D02*
X101754819Y-58033333D01*
X101754819Y-58033333D02*
X101754819Y-57938095D01*
X101754819Y-57938095D02*
X101802438Y-57795238D01*
X101802438Y-57795238D02*
X101850057Y-57747619D01*
X101754819Y-57319047D02*
X102564342Y-57319047D01*
X102564342Y-57319047D02*
X102659580Y-57271428D01*
X102659580Y-57271428D02*
X102707200Y-57223809D01*
X102707200Y-57223809D02*
X102754819Y-57128571D01*
X102754819Y-57128571D02*
X102754819Y-56938095D01*
X102754819Y-56938095D02*
X102707200Y-56842857D01*
X102707200Y-56842857D02*
X102659580Y-56795238D01*
X102659580Y-56795238D02*
X102564342Y-56747619D01*
X102564342Y-56747619D02*
X101754819Y-56747619D01*
X101754819Y-56414285D02*
X101754819Y-55842857D01*
X102754819Y-56128571D02*
X101754819Y-56128571D01*
D13*
X123324285Y-61944885D02*
X123324285Y-61644885D01*
X123324285Y-61644885D02*
X123395714Y-61644885D01*
X123395714Y-61644885D02*
X123438571Y-61659171D01*
X123438571Y-61659171D02*
X123467142Y-61687742D01*
X123467142Y-61687742D02*
X123481428Y-61716314D01*
X123481428Y-61716314D02*
X123495714Y-61773457D01*
X123495714Y-61773457D02*
X123495714Y-61816314D01*
X123495714Y-61816314D02*
X123481428Y-61873457D01*
X123481428Y-61873457D02*
X123467142Y-61902028D01*
X123467142Y-61902028D02*
X123438571Y-61930600D01*
X123438571Y-61930600D02*
X123395714Y-61944885D01*
X123395714Y-61944885D02*
X123324285Y-61944885D01*
X123624285Y-61944885D02*
X123624285Y-61644885D01*
X123624285Y-61644885D02*
X123795714Y-61944885D01*
X123795714Y-61944885D02*
X123795714Y-61644885D01*
X123938571Y-61944885D02*
X123938571Y-61644885D01*
X123938571Y-61644885D02*
X124052857Y-61644885D01*
X124052857Y-61644885D02*
X124081428Y-61659171D01*
X124081428Y-61659171D02*
X124095714Y-61673457D01*
X124095714Y-61673457D02*
X124110000Y-61702028D01*
X124110000Y-61702028D02*
X124110000Y-61744885D01*
X124110000Y-61744885D02*
X124095714Y-61773457D01*
X124095714Y-61773457D02*
X124081428Y-61787742D01*
X124081428Y-61787742D02*
X124052857Y-61802028D01*
X124052857Y-61802028D02*
X123938571Y-61802028D01*
D14*
X130913574Y-65941666D02*
X130794527Y-66024999D01*
X130913574Y-66084523D02*
X130663574Y-66084523D01*
X130663574Y-66084523D02*
X130663574Y-65989285D01*
X130663574Y-65989285D02*
X130675479Y-65965475D01*
X130675479Y-65965475D02*
X130687384Y-65953570D01*
X130687384Y-65953570D02*
X130711193Y-65941666D01*
X130711193Y-65941666D02*
X130746908Y-65941666D01*
X130746908Y-65941666D02*
X130770717Y-65953570D01*
X130770717Y-65953570D02*
X130782622Y-65965475D01*
X130782622Y-65965475D02*
X130794527Y-65989285D01*
X130794527Y-65989285D02*
X130794527Y-66084523D01*
X130663574Y-65727380D02*
X130663574Y-65774999D01*
X130663574Y-65774999D02*
X130675479Y-65798808D01*
X130675479Y-65798808D02*
X130687384Y-65810713D01*
X130687384Y-65810713D02*
X130723098Y-65834523D01*
X130723098Y-65834523D02*
X130770717Y-65846427D01*
X130770717Y-65846427D02*
X130865955Y-65846427D01*
X130865955Y-65846427D02*
X130889765Y-65834523D01*
X130889765Y-65834523D02*
X130901670Y-65822618D01*
X130901670Y-65822618D02*
X130913574Y-65798808D01*
X130913574Y-65798808D02*
X130913574Y-65751189D01*
X130913574Y-65751189D02*
X130901670Y-65727380D01*
X130901670Y-65727380D02*
X130889765Y-65715475D01*
X130889765Y-65715475D02*
X130865955Y-65703570D01*
X130865955Y-65703570D02*
X130806431Y-65703570D01*
X130806431Y-65703570D02*
X130782622Y-65715475D01*
X130782622Y-65715475D02*
X130770717Y-65727380D01*
X130770717Y-65727380D02*
X130758812Y-65751189D01*
X130758812Y-65751189D02*
X130758812Y-65798808D01*
X130758812Y-65798808D02*
X130770717Y-65822618D01*
X130770717Y-65822618D02*
X130782622Y-65834523D01*
X130782622Y-65834523D02*
X130806431Y-65846427D01*
X130913574Y-67341666D02*
X130794527Y-67424999D01*
X130913574Y-67484523D02*
X130663574Y-67484523D01*
X130663574Y-67484523D02*
X130663574Y-67389285D01*
X130663574Y-67389285D02*
X130675479Y-67365475D01*
X130675479Y-67365475D02*
X130687384Y-67353570D01*
X130687384Y-67353570D02*
X130711193Y-67341666D01*
X130711193Y-67341666D02*
X130746908Y-67341666D01*
X130746908Y-67341666D02*
X130770717Y-67353570D01*
X130770717Y-67353570D02*
X130782622Y-67365475D01*
X130782622Y-67365475D02*
X130794527Y-67389285D01*
X130794527Y-67389285D02*
X130794527Y-67484523D01*
X130663574Y-67115475D02*
X130663574Y-67234523D01*
X130663574Y-67234523D02*
X130782622Y-67246427D01*
X130782622Y-67246427D02*
X130770717Y-67234523D01*
X130770717Y-67234523D02*
X130758812Y-67210713D01*
X130758812Y-67210713D02*
X130758812Y-67151189D01*
X130758812Y-67151189D02*
X130770717Y-67127380D01*
X130770717Y-67127380D02*
X130782622Y-67115475D01*
X130782622Y-67115475D02*
X130806431Y-67103570D01*
X130806431Y-67103570D02*
X130865955Y-67103570D01*
X130865955Y-67103570D02*
X130889765Y-67115475D01*
X130889765Y-67115475D02*
X130901670Y-67127380D01*
X130901670Y-67127380D02*
X130913574Y-67151189D01*
X130913574Y-67151189D02*
X130913574Y-67210713D01*
X130913574Y-67210713D02*
X130901670Y-67234523D01*
X130901670Y-67234523D02*
X130889765Y-67246427D01*
D11*
X127336185Y-61249999D02*
X127336185Y-61392856D01*
X127336185Y-61392856D02*
X127036185Y-61392856D01*
X127036185Y-61178570D02*
X127036185Y-60978570D01*
X127036185Y-60978570D02*
X127336185Y-61107142D01*
X123636185Y-65699999D02*
X123636185Y-65842856D01*
X123636185Y-65842856D02*
X123336185Y-65842856D01*
X123364757Y-65614285D02*
X123350471Y-65599999D01*
X123350471Y-65599999D02*
X123336185Y-65571428D01*
X123336185Y-65571428D02*
X123336185Y-65499999D01*
X123336185Y-65499999D02*
X123350471Y-65471428D01*
X123350471Y-65471428D02*
X123364757Y-65457142D01*
X123364757Y-65457142D02*
X123393328Y-65442856D01*
X123393328Y-65442856D02*
X123421900Y-65442856D01*
X123421900Y-65442856D02*
X123464757Y-65457142D01*
X123464757Y-65457142D02*
X123636185Y-65628570D01*
X123636185Y-65628570D02*
X123636185Y-65442856D01*
X124820000Y-71836185D02*
X124677143Y-71836185D01*
X124677143Y-71836185D02*
X124677143Y-71536185D01*
X125077143Y-71836185D02*
X124905714Y-71836185D01*
X124991429Y-71836185D02*
X124991429Y-71536185D01*
X124991429Y-71536185D02*
X124962857Y-71579042D01*
X124962857Y-71579042D02*
X124934286Y-71607614D01*
X124934286Y-71607614D02*
X124905714Y-71621900D01*
X118857143Y-70337614D02*
X118842857Y-70351900D01*
X118842857Y-70351900D02*
X118800000Y-70366185D01*
X118800000Y-70366185D02*
X118771428Y-70366185D01*
X118771428Y-70366185D02*
X118728571Y-70351900D01*
X118728571Y-70351900D02*
X118700000Y-70323328D01*
X118700000Y-70323328D02*
X118685714Y-70294757D01*
X118685714Y-70294757D02*
X118671428Y-70237614D01*
X118671428Y-70237614D02*
X118671428Y-70194757D01*
X118671428Y-70194757D02*
X118685714Y-70137614D01*
X118685714Y-70137614D02*
X118700000Y-70109042D01*
X118700000Y-70109042D02*
X118728571Y-70080471D01*
X118728571Y-70080471D02*
X118771428Y-70066185D01*
X118771428Y-70066185D02*
X118800000Y-70066185D01*
X118800000Y-70066185D02*
X118842857Y-70080471D01*
X118842857Y-70080471D02*
X118857143Y-70094757D01*
X119114286Y-70166185D02*
X119114286Y-70366185D01*
X119042857Y-70051900D02*
X118971428Y-70266185D01*
X118971428Y-70266185D02*
X119157143Y-70266185D01*
X119428571Y-70366185D02*
X119257142Y-70366185D01*
X119342857Y-70366185D02*
X119342857Y-70066185D01*
X119342857Y-70066185D02*
X119314285Y-70109042D01*
X119314285Y-70109042D02*
X119285714Y-70137614D01*
X119285714Y-70137614D02*
X119257142Y-70151900D01*
X118607143Y-66507614D02*
X118592857Y-66521900D01*
X118592857Y-66521900D02*
X118550000Y-66536185D01*
X118550000Y-66536185D02*
X118521428Y-66536185D01*
X118521428Y-66536185D02*
X118478571Y-66521900D01*
X118478571Y-66521900D02*
X118450000Y-66493328D01*
X118450000Y-66493328D02*
X118435714Y-66464757D01*
X118435714Y-66464757D02*
X118421428Y-66407614D01*
X118421428Y-66407614D02*
X118421428Y-66364757D01*
X118421428Y-66364757D02*
X118435714Y-66307614D01*
X118435714Y-66307614D02*
X118450000Y-66279042D01*
X118450000Y-66279042D02*
X118478571Y-66250471D01*
X118478571Y-66250471D02*
X118521428Y-66236185D01*
X118521428Y-66236185D02*
X118550000Y-66236185D01*
X118550000Y-66236185D02*
X118592857Y-66250471D01*
X118592857Y-66250471D02*
X118607143Y-66264757D01*
X118707143Y-66236185D02*
X118892857Y-66236185D01*
X118892857Y-66236185D02*
X118792857Y-66350471D01*
X118792857Y-66350471D02*
X118835714Y-66350471D01*
X118835714Y-66350471D02*
X118864286Y-66364757D01*
X118864286Y-66364757D02*
X118878571Y-66379042D01*
X118878571Y-66379042D02*
X118892857Y-66407614D01*
X118892857Y-66407614D02*
X118892857Y-66479042D01*
X118892857Y-66479042D02*
X118878571Y-66507614D01*
X118878571Y-66507614D02*
X118864286Y-66521900D01*
X118864286Y-66521900D02*
X118835714Y-66536185D01*
X118835714Y-66536185D02*
X118750000Y-66536185D01*
X118750000Y-66536185D02*
X118721428Y-66521900D01*
X118721428Y-66521900D02*
X118707143Y-66507614D01*
X119150000Y-66236185D02*
X119092857Y-66236185D01*
X119092857Y-66236185D02*
X119064285Y-66250471D01*
X119064285Y-66250471D02*
X119050000Y-66264757D01*
X119050000Y-66264757D02*
X119021428Y-66307614D01*
X119021428Y-66307614D02*
X119007142Y-66364757D01*
X119007142Y-66364757D02*
X119007142Y-66479042D01*
X119007142Y-66479042D02*
X119021428Y-66507614D01*
X119021428Y-66507614D02*
X119035714Y-66521900D01*
X119035714Y-66521900D02*
X119064285Y-66536185D01*
X119064285Y-66536185D02*
X119121428Y-66536185D01*
X119121428Y-66536185D02*
X119150000Y-66521900D01*
X119150000Y-66521900D02*
X119164285Y-66507614D01*
X119164285Y-66507614D02*
X119178571Y-66479042D01*
X119178571Y-66479042D02*
X119178571Y-66407614D01*
X119178571Y-66407614D02*
X119164285Y-66379042D01*
X119164285Y-66379042D02*
X119150000Y-66364757D01*
X119150000Y-66364757D02*
X119121428Y-66350471D01*
X119121428Y-66350471D02*
X119064285Y-66350471D01*
X119064285Y-66350471D02*
X119035714Y-66364757D01*
X119035714Y-66364757D02*
X119021428Y-66379042D01*
X119021428Y-66379042D02*
X119007142Y-66407614D01*
X123071428Y-57136185D02*
X123071428Y-57379042D01*
X123071428Y-57379042D02*
X123085714Y-57407614D01*
X123085714Y-57407614D02*
X123100000Y-57421900D01*
X123100000Y-57421900D02*
X123128571Y-57436185D01*
X123128571Y-57436185D02*
X123185714Y-57436185D01*
X123185714Y-57436185D02*
X123214285Y-57421900D01*
X123214285Y-57421900D02*
X123228571Y-57407614D01*
X123228571Y-57407614D02*
X123242857Y-57379042D01*
X123242857Y-57379042D02*
X123242857Y-57136185D01*
X123428571Y-57264757D02*
X123400000Y-57250471D01*
X123400000Y-57250471D02*
X123385714Y-57236185D01*
X123385714Y-57236185D02*
X123371428Y-57207614D01*
X123371428Y-57207614D02*
X123371428Y-57193328D01*
X123371428Y-57193328D02*
X123385714Y-57164757D01*
X123385714Y-57164757D02*
X123400000Y-57150471D01*
X123400000Y-57150471D02*
X123428571Y-57136185D01*
X123428571Y-57136185D02*
X123485714Y-57136185D01*
X123485714Y-57136185D02*
X123514286Y-57150471D01*
X123514286Y-57150471D02*
X123528571Y-57164757D01*
X123528571Y-57164757D02*
X123542857Y-57193328D01*
X123542857Y-57193328D02*
X123542857Y-57207614D01*
X123542857Y-57207614D02*
X123528571Y-57236185D01*
X123528571Y-57236185D02*
X123514286Y-57250471D01*
X123514286Y-57250471D02*
X123485714Y-57264757D01*
X123485714Y-57264757D02*
X123428571Y-57264757D01*
X123428571Y-57264757D02*
X123400000Y-57279042D01*
X123400000Y-57279042D02*
X123385714Y-57293328D01*
X123385714Y-57293328D02*
X123371428Y-57321900D01*
X123371428Y-57321900D02*
X123371428Y-57379042D01*
X123371428Y-57379042D02*
X123385714Y-57407614D01*
X123385714Y-57407614D02*
X123400000Y-57421900D01*
X123400000Y-57421900D02*
X123428571Y-57436185D01*
X123428571Y-57436185D02*
X123485714Y-57436185D01*
X123485714Y-57436185D02*
X123514286Y-57421900D01*
X123514286Y-57421900D02*
X123528571Y-57407614D01*
X123528571Y-57407614D02*
X123542857Y-57379042D01*
X123542857Y-57379042D02*
X123542857Y-57321900D01*
X123542857Y-57321900D02*
X123528571Y-57293328D01*
X123528571Y-57293328D02*
X123514286Y-57279042D01*
X123514286Y-57279042D02*
X123485714Y-57264757D01*
X126236185Y-60792856D02*
X126093328Y-60892856D01*
X126236185Y-60964285D02*
X125936185Y-60964285D01*
X125936185Y-60964285D02*
X125936185Y-60849999D01*
X125936185Y-60849999D02*
X125950471Y-60821428D01*
X125950471Y-60821428D02*
X125964757Y-60807142D01*
X125964757Y-60807142D02*
X125993328Y-60792856D01*
X125993328Y-60792856D02*
X126036185Y-60792856D01*
X126036185Y-60792856D02*
X126064757Y-60807142D01*
X126064757Y-60807142D02*
X126079042Y-60821428D01*
X126079042Y-60821428D02*
X126093328Y-60849999D01*
X126093328Y-60849999D02*
X126093328Y-60964285D01*
X126236185Y-60507142D02*
X126236185Y-60678571D01*
X126236185Y-60592856D02*
X125936185Y-60592856D01*
X125936185Y-60592856D02*
X125979042Y-60621428D01*
X125979042Y-60621428D02*
X126007614Y-60649999D01*
X126007614Y-60649999D02*
X126021900Y-60678571D01*
X125936185Y-60235714D02*
X125936185Y-60378571D01*
X125936185Y-60378571D02*
X126079042Y-60392857D01*
X126079042Y-60392857D02*
X126064757Y-60378571D01*
X126064757Y-60378571D02*
X126050471Y-60350000D01*
X126050471Y-60350000D02*
X126050471Y-60278571D01*
X126050471Y-60278571D02*
X126064757Y-60250000D01*
X126064757Y-60250000D02*
X126079042Y-60235714D01*
X126079042Y-60235714D02*
X126107614Y-60221428D01*
X126107614Y-60221428D02*
X126179042Y-60221428D01*
X126179042Y-60221428D02*
X126207614Y-60235714D01*
X126207614Y-60235714D02*
X126221900Y-60250000D01*
X126221900Y-60250000D02*
X126236185Y-60278571D01*
X126236185Y-60278571D02*
X126236185Y-60350000D01*
X126236185Y-60350000D02*
X126221900Y-60378571D01*
X126221900Y-60378571D02*
X126207614Y-60392857D01*
X125978571Y-57436185D02*
X125978571Y-57136185D01*
X125978571Y-57136185D02*
X126050000Y-57136185D01*
X126050000Y-57136185D02*
X126092857Y-57150471D01*
X126092857Y-57150471D02*
X126121428Y-57179042D01*
X126121428Y-57179042D02*
X126135714Y-57207614D01*
X126135714Y-57207614D02*
X126150000Y-57264757D01*
X126150000Y-57264757D02*
X126150000Y-57307614D01*
X126150000Y-57307614D02*
X126135714Y-57364757D01*
X126135714Y-57364757D02*
X126121428Y-57393328D01*
X126121428Y-57393328D02*
X126092857Y-57421900D01*
X126092857Y-57421900D02*
X126050000Y-57436185D01*
X126050000Y-57436185D02*
X125978571Y-57436185D01*
X126264285Y-57164757D02*
X126278571Y-57150471D01*
X126278571Y-57150471D02*
X126307143Y-57136185D01*
X126307143Y-57136185D02*
X126378571Y-57136185D01*
X126378571Y-57136185D02*
X126407143Y-57150471D01*
X126407143Y-57150471D02*
X126421428Y-57164757D01*
X126421428Y-57164757D02*
X126435714Y-57193328D01*
X126435714Y-57193328D02*
X126435714Y-57221900D01*
X126435714Y-57221900D02*
X126421428Y-57264757D01*
X126421428Y-57264757D02*
X126250000Y-57436185D01*
X126250000Y-57436185D02*
X126435714Y-57436185D01*
X127471428Y-66936185D02*
X127471428Y-67179042D01*
X127471428Y-67179042D02*
X127485714Y-67207614D01*
X127485714Y-67207614D02*
X127500000Y-67221900D01*
X127500000Y-67221900D02*
X127528571Y-67236185D01*
X127528571Y-67236185D02*
X127585714Y-67236185D01*
X127585714Y-67236185D02*
X127614285Y-67221900D01*
X127614285Y-67221900D02*
X127628571Y-67207614D01*
X127628571Y-67207614D02*
X127642857Y-67179042D01*
X127642857Y-67179042D02*
X127642857Y-66936185D01*
X127757143Y-66936185D02*
X127957143Y-66936185D01*
X127957143Y-66936185D02*
X127828571Y-67236185D01*
X123400000Y-39353685D02*
X123400000Y-39567971D01*
X123400000Y-39567971D02*
X123385715Y-39610828D01*
X123385715Y-39610828D02*
X123357143Y-39639400D01*
X123357143Y-39639400D02*
X123314286Y-39653685D01*
X123314286Y-39653685D02*
X123285715Y-39653685D01*
X123514286Y-39353685D02*
X123700000Y-39353685D01*
X123700000Y-39353685D02*
X123600000Y-39467971D01*
X123600000Y-39467971D02*
X123642857Y-39467971D01*
X123642857Y-39467971D02*
X123671429Y-39482257D01*
X123671429Y-39482257D02*
X123685714Y-39496542D01*
X123685714Y-39496542D02*
X123700000Y-39525114D01*
X123700000Y-39525114D02*
X123700000Y-39596542D01*
X123700000Y-39596542D02*
X123685714Y-39625114D01*
X123685714Y-39625114D02*
X123671429Y-39639400D01*
X123671429Y-39639400D02*
X123642857Y-39653685D01*
X123642857Y-39653685D02*
X123557143Y-39653685D01*
X123557143Y-39653685D02*
X123528571Y-39639400D01*
X123528571Y-39639400D02*
X123514286Y-39625114D01*
X115407143Y-66457614D02*
X115392857Y-66471900D01*
X115392857Y-66471900D02*
X115350000Y-66486185D01*
X115350000Y-66486185D02*
X115321428Y-66486185D01*
X115321428Y-66486185D02*
X115278571Y-66471900D01*
X115278571Y-66471900D02*
X115250000Y-66443328D01*
X115250000Y-66443328D02*
X115235714Y-66414757D01*
X115235714Y-66414757D02*
X115221428Y-66357614D01*
X115221428Y-66357614D02*
X115221428Y-66314757D01*
X115221428Y-66314757D02*
X115235714Y-66257614D01*
X115235714Y-66257614D02*
X115250000Y-66229042D01*
X115250000Y-66229042D02*
X115278571Y-66200471D01*
X115278571Y-66200471D02*
X115321428Y-66186185D01*
X115321428Y-66186185D02*
X115350000Y-66186185D01*
X115350000Y-66186185D02*
X115392857Y-66200471D01*
X115392857Y-66200471D02*
X115407143Y-66214757D01*
X115521428Y-66214757D02*
X115535714Y-66200471D01*
X115535714Y-66200471D02*
X115564286Y-66186185D01*
X115564286Y-66186185D02*
X115635714Y-66186185D01*
X115635714Y-66186185D02*
X115664286Y-66200471D01*
X115664286Y-66200471D02*
X115678571Y-66214757D01*
X115678571Y-66214757D02*
X115692857Y-66243328D01*
X115692857Y-66243328D02*
X115692857Y-66271900D01*
X115692857Y-66271900D02*
X115678571Y-66314757D01*
X115678571Y-66314757D02*
X115507143Y-66486185D01*
X115507143Y-66486185D02*
X115692857Y-66486185D01*
X115835714Y-66486185D02*
X115892857Y-66486185D01*
X115892857Y-66486185D02*
X115921428Y-66471900D01*
X115921428Y-66471900D02*
X115935714Y-66457614D01*
X115935714Y-66457614D02*
X115964285Y-66414757D01*
X115964285Y-66414757D02*
X115978571Y-66357614D01*
X115978571Y-66357614D02*
X115978571Y-66243328D01*
X115978571Y-66243328D02*
X115964285Y-66214757D01*
X115964285Y-66214757D02*
X115950000Y-66200471D01*
X115950000Y-66200471D02*
X115921428Y-66186185D01*
X115921428Y-66186185D02*
X115864285Y-66186185D01*
X115864285Y-66186185D02*
X115835714Y-66200471D01*
X115835714Y-66200471D02*
X115821428Y-66214757D01*
X115821428Y-66214757D02*
X115807142Y-66243328D01*
X115807142Y-66243328D02*
X115807142Y-66314757D01*
X115807142Y-66314757D02*
X115821428Y-66343328D01*
X115821428Y-66343328D02*
X115835714Y-66357614D01*
X115835714Y-66357614D02*
X115864285Y-66371900D01*
X115864285Y-66371900D02*
X115921428Y-66371900D01*
X115921428Y-66371900D02*
X115950000Y-66357614D01*
X115950000Y-66357614D02*
X115964285Y-66343328D01*
X115964285Y-66343328D02*
X115978571Y-66314757D01*
X119277143Y-65307614D02*
X119262857Y-65321900D01*
X119262857Y-65321900D02*
X119220000Y-65336185D01*
X119220000Y-65336185D02*
X119191428Y-65336185D01*
X119191428Y-65336185D02*
X119148571Y-65321900D01*
X119148571Y-65321900D02*
X119120000Y-65293328D01*
X119120000Y-65293328D02*
X119105714Y-65264757D01*
X119105714Y-65264757D02*
X119091428Y-65207614D01*
X119091428Y-65207614D02*
X119091428Y-65164757D01*
X119091428Y-65164757D02*
X119105714Y-65107614D01*
X119105714Y-65107614D02*
X119120000Y-65079042D01*
X119120000Y-65079042D02*
X119148571Y-65050471D01*
X119148571Y-65050471D02*
X119191428Y-65036185D01*
X119191428Y-65036185D02*
X119220000Y-65036185D01*
X119220000Y-65036185D02*
X119262857Y-65050471D01*
X119262857Y-65050471D02*
X119277143Y-65064757D01*
X119534286Y-65136185D02*
X119534286Y-65336185D01*
X119462857Y-65021900D02*
X119391428Y-65236185D01*
X119391428Y-65236185D02*
X119577143Y-65236185D01*
X119748571Y-65036185D02*
X119777142Y-65036185D01*
X119777142Y-65036185D02*
X119805714Y-65050471D01*
X119805714Y-65050471D02*
X119820000Y-65064757D01*
X119820000Y-65064757D02*
X119834285Y-65093328D01*
X119834285Y-65093328D02*
X119848571Y-65150471D01*
X119848571Y-65150471D02*
X119848571Y-65221900D01*
X119848571Y-65221900D02*
X119834285Y-65279042D01*
X119834285Y-65279042D02*
X119820000Y-65307614D01*
X119820000Y-65307614D02*
X119805714Y-65321900D01*
X119805714Y-65321900D02*
X119777142Y-65336185D01*
X119777142Y-65336185D02*
X119748571Y-65336185D01*
X119748571Y-65336185D02*
X119720000Y-65321900D01*
X119720000Y-65321900D02*
X119705714Y-65307614D01*
X119705714Y-65307614D02*
X119691428Y-65279042D01*
X119691428Y-65279042D02*
X119677142Y-65221900D01*
X119677142Y-65221900D02*
X119677142Y-65150471D01*
X119677142Y-65150471D02*
X119691428Y-65093328D01*
X119691428Y-65093328D02*
X119705714Y-65064757D01*
X119705714Y-65064757D02*
X119720000Y-65050471D01*
X119720000Y-65050471D02*
X119748571Y-65036185D01*
X120707143Y-65336185D02*
X120607143Y-65193328D01*
X120535714Y-65336185D02*
X120535714Y-65036185D01*
X120535714Y-65036185D02*
X120650000Y-65036185D01*
X120650000Y-65036185D02*
X120678571Y-65050471D01*
X120678571Y-65050471D02*
X120692857Y-65064757D01*
X120692857Y-65064757D02*
X120707143Y-65093328D01*
X120707143Y-65093328D02*
X120707143Y-65136185D01*
X120707143Y-65136185D02*
X120692857Y-65164757D01*
X120692857Y-65164757D02*
X120678571Y-65179042D01*
X120678571Y-65179042D02*
X120650000Y-65193328D01*
X120650000Y-65193328D02*
X120535714Y-65193328D01*
X120992857Y-65336185D02*
X120821428Y-65336185D01*
X120907143Y-65336185D02*
X120907143Y-65036185D01*
X120907143Y-65036185D02*
X120878571Y-65079042D01*
X120878571Y-65079042D02*
X120850000Y-65107614D01*
X120850000Y-65107614D02*
X120821428Y-65121900D01*
X121250000Y-65136185D02*
X121250000Y-65336185D01*
X121178571Y-65021900D02*
X121107142Y-65236185D01*
X121107142Y-65236185D02*
X121292857Y-65236185D01*
X120607614Y-55492856D02*
X120621900Y-55507142D01*
X120621900Y-55507142D02*
X120636185Y-55549999D01*
X120636185Y-55549999D02*
X120636185Y-55578571D01*
X120636185Y-55578571D02*
X120621900Y-55621428D01*
X120621900Y-55621428D02*
X120593328Y-55649999D01*
X120593328Y-55649999D02*
X120564757Y-55664285D01*
X120564757Y-55664285D02*
X120507614Y-55678571D01*
X120507614Y-55678571D02*
X120464757Y-55678571D01*
X120464757Y-55678571D02*
X120407614Y-55664285D01*
X120407614Y-55664285D02*
X120379042Y-55649999D01*
X120379042Y-55649999D02*
X120350471Y-55621428D01*
X120350471Y-55621428D02*
X120336185Y-55578571D01*
X120336185Y-55578571D02*
X120336185Y-55549999D01*
X120336185Y-55549999D02*
X120350471Y-55507142D01*
X120350471Y-55507142D02*
X120364757Y-55492856D01*
X120364757Y-55378571D02*
X120350471Y-55364285D01*
X120350471Y-55364285D02*
X120336185Y-55335714D01*
X120336185Y-55335714D02*
X120336185Y-55264285D01*
X120336185Y-55264285D02*
X120350471Y-55235714D01*
X120350471Y-55235714D02*
X120364757Y-55221428D01*
X120364757Y-55221428D02*
X120393328Y-55207142D01*
X120393328Y-55207142D02*
X120421900Y-55207142D01*
X120421900Y-55207142D02*
X120464757Y-55221428D01*
X120464757Y-55221428D02*
X120636185Y-55392856D01*
X120636185Y-55392856D02*
X120636185Y-55207142D01*
X120336185Y-55021428D02*
X120336185Y-54992857D01*
X120336185Y-54992857D02*
X120350471Y-54964285D01*
X120350471Y-54964285D02*
X120364757Y-54950000D01*
X120364757Y-54950000D02*
X120393328Y-54935714D01*
X120393328Y-54935714D02*
X120450471Y-54921428D01*
X120450471Y-54921428D02*
X120521900Y-54921428D01*
X120521900Y-54921428D02*
X120579042Y-54935714D01*
X120579042Y-54935714D02*
X120607614Y-54950000D01*
X120607614Y-54950000D02*
X120621900Y-54964285D01*
X120621900Y-54964285D02*
X120636185Y-54992857D01*
X120636185Y-54992857D02*
X120636185Y-55021428D01*
X120636185Y-55021428D02*
X120621900Y-55050000D01*
X120621900Y-55050000D02*
X120607614Y-55064285D01*
X120607614Y-55064285D02*
X120579042Y-55078571D01*
X120579042Y-55078571D02*
X120521900Y-55092857D01*
X120521900Y-55092857D02*
X120450471Y-55092857D01*
X120450471Y-55092857D02*
X120393328Y-55078571D01*
X120393328Y-55078571D02*
X120364757Y-55064285D01*
X120364757Y-55064285D02*
X120350471Y-55050000D01*
X120350471Y-55050000D02*
X120336185Y-55021428D01*
X125836185Y-55592856D02*
X125693328Y-55692856D01*
X125836185Y-55764285D02*
X125536185Y-55764285D01*
X125536185Y-55764285D02*
X125536185Y-55649999D01*
X125536185Y-55649999D02*
X125550471Y-55621428D01*
X125550471Y-55621428D02*
X125564757Y-55607142D01*
X125564757Y-55607142D02*
X125593328Y-55592856D01*
X125593328Y-55592856D02*
X125636185Y-55592856D01*
X125636185Y-55592856D02*
X125664757Y-55607142D01*
X125664757Y-55607142D02*
X125679042Y-55621428D01*
X125679042Y-55621428D02*
X125693328Y-55649999D01*
X125693328Y-55649999D02*
X125693328Y-55764285D01*
X125564757Y-55478571D02*
X125550471Y-55464285D01*
X125550471Y-55464285D02*
X125536185Y-55435714D01*
X125536185Y-55435714D02*
X125536185Y-55364285D01*
X125536185Y-55364285D02*
X125550471Y-55335714D01*
X125550471Y-55335714D02*
X125564757Y-55321428D01*
X125564757Y-55321428D02*
X125593328Y-55307142D01*
X125593328Y-55307142D02*
X125621900Y-55307142D01*
X125621900Y-55307142D02*
X125664757Y-55321428D01*
X125664757Y-55321428D02*
X125836185Y-55492856D01*
X125836185Y-55492856D02*
X125836185Y-55307142D01*
X125536185Y-55035714D02*
X125536185Y-55178571D01*
X125536185Y-55178571D02*
X125679042Y-55192857D01*
X125679042Y-55192857D02*
X125664757Y-55178571D01*
X125664757Y-55178571D02*
X125650471Y-55150000D01*
X125650471Y-55150000D02*
X125650471Y-55078571D01*
X125650471Y-55078571D02*
X125664757Y-55050000D01*
X125664757Y-55050000D02*
X125679042Y-55035714D01*
X125679042Y-55035714D02*
X125707614Y-55021428D01*
X125707614Y-55021428D02*
X125779042Y-55021428D01*
X125779042Y-55021428D02*
X125807614Y-55035714D01*
X125807614Y-55035714D02*
X125821900Y-55050000D01*
X125821900Y-55050000D02*
X125836185Y-55078571D01*
X125836185Y-55078571D02*
X125836185Y-55150000D01*
X125836185Y-55150000D02*
X125821900Y-55178571D01*
X125821900Y-55178571D02*
X125807614Y-55192857D01*
X124507614Y-66892856D02*
X124521900Y-66907142D01*
X124521900Y-66907142D02*
X124536185Y-66949999D01*
X124536185Y-66949999D02*
X124536185Y-66978571D01*
X124536185Y-66978571D02*
X124521900Y-67021428D01*
X124521900Y-67021428D02*
X124493328Y-67049999D01*
X124493328Y-67049999D02*
X124464757Y-67064285D01*
X124464757Y-67064285D02*
X124407614Y-67078571D01*
X124407614Y-67078571D02*
X124364757Y-67078571D01*
X124364757Y-67078571D02*
X124307614Y-67064285D01*
X124307614Y-67064285D02*
X124279042Y-67049999D01*
X124279042Y-67049999D02*
X124250471Y-67021428D01*
X124250471Y-67021428D02*
X124236185Y-66978571D01*
X124236185Y-66978571D02*
X124236185Y-66949999D01*
X124236185Y-66949999D02*
X124250471Y-66907142D01*
X124250471Y-66907142D02*
X124264757Y-66892856D01*
X124236185Y-66792856D02*
X124236185Y-66607142D01*
X124236185Y-66607142D02*
X124350471Y-66707142D01*
X124350471Y-66707142D02*
X124350471Y-66664285D01*
X124350471Y-66664285D02*
X124364757Y-66635714D01*
X124364757Y-66635714D02*
X124379042Y-66621428D01*
X124379042Y-66621428D02*
X124407614Y-66607142D01*
X124407614Y-66607142D02*
X124479042Y-66607142D01*
X124479042Y-66607142D02*
X124507614Y-66621428D01*
X124507614Y-66621428D02*
X124521900Y-66635714D01*
X124521900Y-66635714D02*
X124536185Y-66664285D01*
X124536185Y-66664285D02*
X124536185Y-66749999D01*
X124536185Y-66749999D02*
X124521900Y-66778571D01*
X124521900Y-66778571D02*
X124507614Y-66792856D01*
X124336185Y-66350000D02*
X124536185Y-66350000D01*
X124221900Y-66421428D02*
X124436185Y-66492857D01*
X124436185Y-66492857D02*
X124436185Y-66307142D01*
X121850000Y-54736185D02*
X121750000Y-54593328D01*
X121678571Y-54736185D02*
X121678571Y-54436185D01*
X121678571Y-54436185D02*
X121792857Y-54436185D01*
X121792857Y-54436185D02*
X121821428Y-54450471D01*
X121821428Y-54450471D02*
X121835714Y-54464757D01*
X121835714Y-54464757D02*
X121850000Y-54493328D01*
X121850000Y-54493328D02*
X121850000Y-54536185D01*
X121850000Y-54536185D02*
X121835714Y-54564757D01*
X121835714Y-54564757D02*
X121821428Y-54579042D01*
X121821428Y-54579042D02*
X121792857Y-54593328D01*
X121792857Y-54593328D02*
X121678571Y-54593328D01*
X121950000Y-54436185D02*
X122150000Y-54436185D01*
X122150000Y-54436185D02*
X122021428Y-54736185D01*
X131478571Y-62236185D02*
X131478571Y-61936185D01*
X131478571Y-61936185D02*
X131550000Y-61936185D01*
X131550000Y-61936185D02*
X131592857Y-61950471D01*
X131592857Y-61950471D02*
X131621428Y-61979042D01*
X131621428Y-61979042D02*
X131635714Y-62007614D01*
X131635714Y-62007614D02*
X131650000Y-62064757D01*
X131650000Y-62064757D02*
X131650000Y-62107614D01*
X131650000Y-62107614D02*
X131635714Y-62164757D01*
X131635714Y-62164757D02*
X131621428Y-62193328D01*
X131621428Y-62193328D02*
X131592857Y-62221900D01*
X131592857Y-62221900D02*
X131550000Y-62236185D01*
X131550000Y-62236185D02*
X131478571Y-62236185D01*
X131750000Y-61936185D02*
X131935714Y-61936185D01*
X131935714Y-61936185D02*
X131835714Y-62050471D01*
X131835714Y-62050471D02*
X131878571Y-62050471D01*
X131878571Y-62050471D02*
X131907143Y-62064757D01*
X131907143Y-62064757D02*
X131921428Y-62079042D01*
X131921428Y-62079042D02*
X131935714Y-62107614D01*
X131935714Y-62107614D02*
X131935714Y-62179042D01*
X131935714Y-62179042D02*
X131921428Y-62207614D01*
X131921428Y-62207614D02*
X131907143Y-62221900D01*
X131907143Y-62221900D02*
X131878571Y-62236185D01*
X131878571Y-62236185D02*
X131792857Y-62236185D01*
X131792857Y-62236185D02*
X131764285Y-62221900D01*
X131764285Y-62221900D02*
X131750000Y-62207614D01*
X120150000Y-66636185D02*
X120050000Y-66493328D01*
X119978571Y-66636185D02*
X119978571Y-66336185D01*
X119978571Y-66336185D02*
X120092857Y-66336185D01*
X120092857Y-66336185D02*
X120121428Y-66350471D01*
X120121428Y-66350471D02*
X120135714Y-66364757D01*
X120135714Y-66364757D02*
X120150000Y-66393328D01*
X120150000Y-66393328D02*
X120150000Y-66436185D01*
X120150000Y-66436185D02*
X120135714Y-66464757D01*
X120135714Y-66464757D02*
X120121428Y-66479042D01*
X120121428Y-66479042D02*
X120092857Y-66493328D01*
X120092857Y-66493328D02*
X119978571Y-66493328D01*
X120321428Y-66464757D02*
X120292857Y-66450471D01*
X120292857Y-66450471D02*
X120278571Y-66436185D01*
X120278571Y-66436185D02*
X120264285Y-66407614D01*
X120264285Y-66407614D02*
X120264285Y-66393328D01*
X120264285Y-66393328D02*
X120278571Y-66364757D01*
X120278571Y-66364757D02*
X120292857Y-66350471D01*
X120292857Y-66350471D02*
X120321428Y-66336185D01*
X120321428Y-66336185D02*
X120378571Y-66336185D01*
X120378571Y-66336185D02*
X120407143Y-66350471D01*
X120407143Y-66350471D02*
X120421428Y-66364757D01*
X120421428Y-66364757D02*
X120435714Y-66393328D01*
X120435714Y-66393328D02*
X120435714Y-66407614D01*
X120435714Y-66407614D02*
X120421428Y-66436185D01*
X120421428Y-66436185D02*
X120407143Y-66450471D01*
X120407143Y-66450471D02*
X120378571Y-66464757D01*
X120378571Y-66464757D02*
X120321428Y-66464757D01*
X120321428Y-66464757D02*
X120292857Y-66479042D01*
X120292857Y-66479042D02*
X120278571Y-66493328D01*
X120278571Y-66493328D02*
X120264285Y-66521900D01*
X120264285Y-66521900D02*
X120264285Y-66579042D01*
X120264285Y-66579042D02*
X120278571Y-66607614D01*
X120278571Y-66607614D02*
X120292857Y-66621900D01*
X120292857Y-66621900D02*
X120321428Y-66636185D01*
X120321428Y-66636185D02*
X120378571Y-66636185D01*
X120378571Y-66636185D02*
X120407143Y-66621900D01*
X120407143Y-66621900D02*
X120421428Y-66607614D01*
X120421428Y-66607614D02*
X120435714Y-66579042D01*
X120435714Y-66579042D02*
X120435714Y-66521900D01*
X120435714Y-66521900D02*
X120421428Y-66493328D01*
X120421428Y-66493328D02*
X120407143Y-66479042D01*
X120407143Y-66479042D02*
X120378571Y-66464757D01*
X126636185Y-55692856D02*
X126493328Y-55792856D01*
X126636185Y-55864285D02*
X126336185Y-55864285D01*
X126336185Y-55864285D02*
X126336185Y-55749999D01*
X126336185Y-55749999D02*
X126350471Y-55721428D01*
X126350471Y-55721428D02*
X126364757Y-55707142D01*
X126364757Y-55707142D02*
X126393328Y-55692856D01*
X126393328Y-55692856D02*
X126436185Y-55692856D01*
X126436185Y-55692856D02*
X126464757Y-55707142D01*
X126464757Y-55707142D02*
X126479042Y-55721428D01*
X126479042Y-55721428D02*
X126493328Y-55749999D01*
X126493328Y-55749999D02*
X126493328Y-55864285D01*
X126364757Y-55578571D02*
X126350471Y-55564285D01*
X126350471Y-55564285D02*
X126336185Y-55535714D01*
X126336185Y-55535714D02*
X126336185Y-55464285D01*
X126336185Y-55464285D02*
X126350471Y-55435714D01*
X126350471Y-55435714D02*
X126364757Y-55421428D01*
X126364757Y-55421428D02*
X126393328Y-55407142D01*
X126393328Y-55407142D02*
X126421900Y-55407142D01*
X126421900Y-55407142D02*
X126464757Y-55421428D01*
X126464757Y-55421428D02*
X126636185Y-55592856D01*
X126636185Y-55592856D02*
X126636185Y-55407142D01*
X126336185Y-55221428D02*
X126336185Y-55192857D01*
X126336185Y-55192857D02*
X126350471Y-55164285D01*
X126350471Y-55164285D02*
X126364757Y-55150000D01*
X126364757Y-55150000D02*
X126393328Y-55135714D01*
X126393328Y-55135714D02*
X126450471Y-55121428D01*
X126450471Y-55121428D02*
X126521900Y-55121428D01*
X126521900Y-55121428D02*
X126579042Y-55135714D01*
X126579042Y-55135714D02*
X126607614Y-55150000D01*
X126607614Y-55150000D02*
X126621900Y-55164285D01*
X126621900Y-55164285D02*
X126636185Y-55192857D01*
X126636185Y-55192857D02*
X126636185Y-55221428D01*
X126636185Y-55221428D02*
X126621900Y-55250000D01*
X126621900Y-55250000D02*
X126607614Y-55264285D01*
X126607614Y-55264285D02*
X126579042Y-55278571D01*
X126579042Y-55278571D02*
X126521900Y-55292857D01*
X126521900Y-55292857D02*
X126450471Y-55292857D01*
X126450471Y-55292857D02*
X126393328Y-55278571D01*
X126393328Y-55278571D02*
X126364757Y-55264285D01*
X126364757Y-55264285D02*
X126350471Y-55250000D01*
X126350471Y-55250000D02*
X126336185Y-55221428D01*
X124407614Y-62949999D02*
X124421900Y-62964285D01*
X124421900Y-62964285D02*
X124436185Y-63007142D01*
X124436185Y-63007142D02*
X124436185Y-63035714D01*
X124436185Y-63035714D02*
X124421900Y-63078571D01*
X124421900Y-63078571D02*
X124393328Y-63107142D01*
X124393328Y-63107142D02*
X124364757Y-63121428D01*
X124364757Y-63121428D02*
X124307614Y-63135714D01*
X124307614Y-63135714D02*
X124264757Y-63135714D01*
X124264757Y-63135714D02*
X124207614Y-63121428D01*
X124207614Y-63121428D02*
X124179042Y-63107142D01*
X124179042Y-63107142D02*
X124150471Y-63078571D01*
X124150471Y-63078571D02*
X124136185Y-63035714D01*
X124136185Y-63035714D02*
X124136185Y-63007142D01*
X124136185Y-63007142D02*
X124150471Y-62964285D01*
X124150471Y-62964285D02*
X124164757Y-62949999D01*
X124264757Y-62778571D02*
X124250471Y-62807142D01*
X124250471Y-62807142D02*
X124236185Y-62821428D01*
X124236185Y-62821428D02*
X124207614Y-62835714D01*
X124207614Y-62835714D02*
X124193328Y-62835714D01*
X124193328Y-62835714D02*
X124164757Y-62821428D01*
X124164757Y-62821428D02*
X124150471Y-62807142D01*
X124150471Y-62807142D02*
X124136185Y-62778571D01*
X124136185Y-62778571D02*
X124136185Y-62721428D01*
X124136185Y-62721428D02*
X124150471Y-62692857D01*
X124150471Y-62692857D02*
X124164757Y-62678571D01*
X124164757Y-62678571D02*
X124193328Y-62664285D01*
X124193328Y-62664285D02*
X124207614Y-62664285D01*
X124207614Y-62664285D02*
X124236185Y-62678571D01*
X124236185Y-62678571D02*
X124250471Y-62692857D01*
X124250471Y-62692857D02*
X124264757Y-62721428D01*
X124264757Y-62721428D02*
X124264757Y-62778571D01*
X124264757Y-62778571D02*
X124279042Y-62807142D01*
X124279042Y-62807142D02*
X124293328Y-62821428D01*
X124293328Y-62821428D02*
X124321900Y-62835714D01*
X124321900Y-62835714D02*
X124379042Y-62835714D01*
X124379042Y-62835714D02*
X124407614Y-62821428D01*
X124407614Y-62821428D02*
X124421900Y-62807142D01*
X124421900Y-62807142D02*
X124436185Y-62778571D01*
X124436185Y-62778571D02*
X124436185Y-62721428D01*
X124436185Y-62721428D02*
X124421900Y-62692857D01*
X124421900Y-62692857D02*
X124407614Y-62678571D01*
X124407614Y-62678571D02*
X124379042Y-62664285D01*
X124379042Y-62664285D02*
X124321900Y-62664285D01*
X124321900Y-62664285D02*
X124293328Y-62678571D01*
X124293328Y-62678571D02*
X124279042Y-62692857D01*
X124279042Y-62692857D02*
X124264757Y-62721428D01*
X123207143Y-69607614D02*
X123192857Y-69621900D01*
X123192857Y-69621900D02*
X123150000Y-69636185D01*
X123150000Y-69636185D02*
X123121428Y-69636185D01*
X123121428Y-69636185D02*
X123078571Y-69621900D01*
X123078571Y-69621900D02*
X123050000Y-69593328D01*
X123050000Y-69593328D02*
X123035714Y-69564757D01*
X123035714Y-69564757D02*
X123021428Y-69507614D01*
X123021428Y-69507614D02*
X123021428Y-69464757D01*
X123021428Y-69464757D02*
X123035714Y-69407614D01*
X123035714Y-69407614D02*
X123050000Y-69379042D01*
X123050000Y-69379042D02*
X123078571Y-69350471D01*
X123078571Y-69350471D02*
X123121428Y-69336185D01*
X123121428Y-69336185D02*
X123150000Y-69336185D01*
X123150000Y-69336185D02*
X123192857Y-69350471D01*
X123192857Y-69350471D02*
X123207143Y-69364757D01*
X123492857Y-69636185D02*
X123321428Y-69636185D01*
X123407143Y-69636185D02*
X123407143Y-69336185D01*
X123407143Y-69336185D02*
X123378571Y-69379042D01*
X123378571Y-69379042D02*
X123350000Y-69407614D01*
X123350000Y-69407614D02*
X123321428Y-69421900D01*
X123750000Y-69436185D02*
X123750000Y-69636185D01*
X123678571Y-69321900D02*
X123607142Y-69536185D01*
X123607142Y-69536185D02*
X123792857Y-69536185D01*
X122076185Y-61062856D02*
X121933328Y-61162856D01*
X122076185Y-61234285D02*
X121776185Y-61234285D01*
X121776185Y-61234285D02*
X121776185Y-61119999D01*
X121776185Y-61119999D02*
X121790471Y-61091428D01*
X121790471Y-61091428D02*
X121804757Y-61077142D01*
X121804757Y-61077142D02*
X121833328Y-61062856D01*
X121833328Y-61062856D02*
X121876185Y-61062856D01*
X121876185Y-61062856D02*
X121904757Y-61077142D01*
X121904757Y-61077142D02*
X121919042Y-61091428D01*
X121919042Y-61091428D02*
X121933328Y-61119999D01*
X121933328Y-61119999D02*
X121933328Y-61234285D01*
X122076185Y-60777142D02*
X122076185Y-60948571D01*
X122076185Y-60862856D02*
X121776185Y-60862856D01*
X121776185Y-60862856D02*
X121819042Y-60891428D01*
X121819042Y-60891428D02*
X121847614Y-60919999D01*
X121847614Y-60919999D02*
X121861900Y-60948571D01*
X122076185Y-60491428D02*
X122076185Y-60662857D01*
X122076185Y-60577142D02*
X121776185Y-60577142D01*
X121776185Y-60577142D02*
X121819042Y-60605714D01*
X121819042Y-60605714D02*
X121847614Y-60634285D01*
X121847614Y-60634285D02*
X121861900Y-60662857D01*
X125907614Y-63292856D02*
X125921900Y-63307142D01*
X125921900Y-63307142D02*
X125936185Y-63349999D01*
X125936185Y-63349999D02*
X125936185Y-63378571D01*
X125936185Y-63378571D02*
X125921900Y-63421428D01*
X125921900Y-63421428D02*
X125893328Y-63449999D01*
X125893328Y-63449999D02*
X125864757Y-63464285D01*
X125864757Y-63464285D02*
X125807614Y-63478571D01*
X125807614Y-63478571D02*
X125764757Y-63478571D01*
X125764757Y-63478571D02*
X125707614Y-63464285D01*
X125707614Y-63464285D02*
X125679042Y-63449999D01*
X125679042Y-63449999D02*
X125650471Y-63421428D01*
X125650471Y-63421428D02*
X125636185Y-63378571D01*
X125636185Y-63378571D02*
X125636185Y-63349999D01*
X125636185Y-63349999D02*
X125650471Y-63307142D01*
X125650471Y-63307142D02*
X125664757Y-63292856D01*
X125936185Y-63007142D02*
X125936185Y-63178571D01*
X125936185Y-63092856D02*
X125636185Y-63092856D01*
X125636185Y-63092856D02*
X125679042Y-63121428D01*
X125679042Y-63121428D02*
X125707614Y-63149999D01*
X125707614Y-63149999D02*
X125721900Y-63178571D01*
X125664757Y-62892857D02*
X125650471Y-62878571D01*
X125650471Y-62878571D02*
X125636185Y-62850000D01*
X125636185Y-62850000D02*
X125636185Y-62778571D01*
X125636185Y-62778571D02*
X125650471Y-62750000D01*
X125650471Y-62750000D02*
X125664757Y-62735714D01*
X125664757Y-62735714D02*
X125693328Y-62721428D01*
X125693328Y-62721428D02*
X125721900Y-62721428D01*
X125721900Y-62721428D02*
X125764757Y-62735714D01*
X125764757Y-62735714D02*
X125936185Y-62907142D01*
X125936185Y-62907142D02*
X125936185Y-62721428D01*
X128407614Y-62892856D02*
X128421900Y-62907142D01*
X128421900Y-62907142D02*
X128436185Y-62949999D01*
X128436185Y-62949999D02*
X128436185Y-62978571D01*
X128436185Y-62978571D02*
X128421900Y-63021428D01*
X128421900Y-63021428D02*
X128393328Y-63049999D01*
X128393328Y-63049999D02*
X128364757Y-63064285D01*
X128364757Y-63064285D02*
X128307614Y-63078571D01*
X128307614Y-63078571D02*
X128264757Y-63078571D01*
X128264757Y-63078571D02*
X128207614Y-63064285D01*
X128207614Y-63064285D02*
X128179042Y-63049999D01*
X128179042Y-63049999D02*
X128150471Y-63021428D01*
X128150471Y-63021428D02*
X128136185Y-62978571D01*
X128136185Y-62978571D02*
X128136185Y-62949999D01*
X128136185Y-62949999D02*
X128150471Y-62907142D01*
X128150471Y-62907142D02*
X128164757Y-62892856D01*
X128436185Y-62607142D02*
X128436185Y-62778571D01*
X128436185Y-62692856D02*
X128136185Y-62692856D01*
X128136185Y-62692856D02*
X128179042Y-62721428D01*
X128179042Y-62721428D02*
X128207614Y-62749999D01*
X128207614Y-62749999D02*
X128221900Y-62778571D01*
X128136185Y-62350000D02*
X128136185Y-62407142D01*
X128136185Y-62407142D02*
X128150471Y-62435714D01*
X128150471Y-62435714D02*
X128164757Y-62450000D01*
X128164757Y-62450000D02*
X128207614Y-62478571D01*
X128207614Y-62478571D02*
X128264757Y-62492857D01*
X128264757Y-62492857D02*
X128379042Y-62492857D01*
X128379042Y-62492857D02*
X128407614Y-62478571D01*
X128407614Y-62478571D02*
X128421900Y-62464285D01*
X128421900Y-62464285D02*
X128436185Y-62435714D01*
X128436185Y-62435714D02*
X128436185Y-62378571D01*
X128436185Y-62378571D02*
X128421900Y-62350000D01*
X128421900Y-62350000D02*
X128407614Y-62335714D01*
X128407614Y-62335714D02*
X128379042Y-62321428D01*
X128379042Y-62321428D02*
X128307614Y-62321428D01*
X128307614Y-62321428D02*
X128279042Y-62335714D01*
X128279042Y-62335714D02*
X128264757Y-62350000D01*
X128264757Y-62350000D02*
X128250471Y-62378571D01*
X128250471Y-62378571D02*
X128250471Y-62435714D01*
X128250471Y-62435714D02*
X128264757Y-62464285D01*
X128264757Y-62464285D02*
X128279042Y-62478571D01*
X128279042Y-62478571D02*
X128307614Y-62492857D01*
X124567143Y-70407614D02*
X124552857Y-70421900D01*
X124552857Y-70421900D02*
X124510000Y-70436185D01*
X124510000Y-70436185D02*
X124481428Y-70436185D01*
X124481428Y-70436185D02*
X124438571Y-70421900D01*
X124438571Y-70421900D02*
X124410000Y-70393328D01*
X124410000Y-70393328D02*
X124395714Y-70364757D01*
X124395714Y-70364757D02*
X124381428Y-70307614D01*
X124381428Y-70307614D02*
X124381428Y-70264757D01*
X124381428Y-70264757D02*
X124395714Y-70207614D01*
X124395714Y-70207614D02*
X124410000Y-70179042D01*
X124410000Y-70179042D02*
X124438571Y-70150471D01*
X124438571Y-70150471D02*
X124481428Y-70136185D01*
X124481428Y-70136185D02*
X124510000Y-70136185D01*
X124510000Y-70136185D02*
X124552857Y-70150471D01*
X124552857Y-70150471D02*
X124567143Y-70164757D01*
X124852857Y-70436185D02*
X124681428Y-70436185D01*
X124767143Y-70436185D02*
X124767143Y-70136185D01*
X124767143Y-70136185D02*
X124738571Y-70179042D01*
X124738571Y-70179042D02*
X124710000Y-70207614D01*
X124710000Y-70207614D02*
X124681428Y-70221900D01*
X124952857Y-70136185D02*
X125152857Y-70136185D01*
X125152857Y-70136185D02*
X125024285Y-70436185D01*
X121907614Y-71492856D02*
X121921900Y-71507142D01*
X121921900Y-71507142D02*
X121936185Y-71549999D01*
X121936185Y-71549999D02*
X121936185Y-71578571D01*
X121936185Y-71578571D02*
X121921900Y-71621428D01*
X121921900Y-71621428D02*
X121893328Y-71649999D01*
X121893328Y-71649999D02*
X121864757Y-71664285D01*
X121864757Y-71664285D02*
X121807614Y-71678571D01*
X121807614Y-71678571D02*
X121764757Y-71678571D01*
X121764757Y-71678571D02*
X121707614Y-71664285D01*
X121707614Y-71664285D02*
X121679042Y-71649999D01*
X121679042Y-71649999D02*
X121650471Y-71621428D01*
X121650471Y-71621428D02*
X121636185Y-71578571D01*
X121636185Y-71578571D02*
X121636185Y-71549999D01*
X121636185Y-71549999D02*
X121650471Y-71507142D01*
X121650471Y-71507142D02*
X121664757Y-71492856D01*
X121636185Y-71235714D02*
X121636185Y-71292856D01*
X121636185Y-71292856D02*
X121650471Y-71321428D01*
X121650471Y-71321428D02*
X121664757Y-71335714D01*
X121664757Y-71335714D02*
X121707614Y-71364285D01*
X121707614Y-71364285D02*
X121764757Y-71378571D01*
X121764757Y-71378571D02*
X121879042Y-71378571D01*
X121879042Y-71378571D02*
X121907614Y-71364285D01*
X121907614Y-71364285D02*
X121921900Y-71349999D01*
X121921900Y-71349999D02*
X121936185Y-71321428D01*
X121936185Y-71321428D02*
X121936185Y-71264285D01*
X121936185Y-71264285D02*
X121921900Y-71235714D01*
X121921900Y-71235714D02*
X121907614Y-71221428D01*
X121907614Y-71221428D02*
X121879042Y-71207142D01*
X121879042Y-71207142D02*
X121807614Y-71207142D01*
X121807614Y-71207142D02*
X121779042Y-71221428D01*
X121779042Y-71221428D02*
X121764757Y-71235714D01*
X121764757Y-71235714D02*
X121750471Y-71264285D01*
X121750471Y-71264285D02*
X121750471Y-71321428D01*
X121750471Y-71321428D02*
X121764757Y-71349999D01*
X121764757Y-71349999D02*
X121779042Y-71364285D01*
X121779042Y-71364285D02*
X121807614Y-71378571D01*
X121636185Y-71107142D02*
X121636185Y-70921428D01*
X121636185Y-70921428D02*
X121750471Y-71021428D01*
X121750471Y-71021428D02*
X121750471Y-70978571D01*
X121750471Y-70978571D02*
X121764757Y-70950000D01*
X121764757Y-70950000D02*
X121779042Y-70935714D01*
X121779042Y-70935714D02*
X121807614Y-70921428D01*
X121807614Y-70921428D02*
X121879042Y-70921428D01*
X121879042Y-70921428D02*
X121907614Y-70935714D01*
X121907614Y-70935714D02*
X121921900Y-70950000D01*
X121921900Y-70950000D02*
X121936185Y-70978571D01*
X121936185Y-70978571D02*
X121936185Y-71064285D01*
X121936185Y-71064285D02*
X121921900Y-71092857D01*
X121921900Y-71092857D02*
X121907614Y-71107142D01*
X128440000Y-70377614D02*
X128425714Y-70391900D01*
X128425714Y-70391900D02*
X128382857Y-70406185D01*
X128382857Y-70406185D02*
X128354285Y-70406185D01*
X128354285Y-70406185D02*
X128311428Y-70391900D01*
X128311428Y-70391900D02*
X128282857Y-70363328D01*
X128282857Y-70363328D02*
X128268571Y-70334757D01*
X128268571Y-70334757D02*
X128254285Y-70277614D01*
X128254285Y-70277614D02*
X128254285Y-70234757D01*
X128254285Y-70234757D02*
X128268571Y-70177614D01*
X128268571Y-70177614D02*
X128282857Y-70149042D01*
X128282857Y-70149042D02*
X128311428Y-70120471D01*
X128311428Y-70120471D02*
X128354285Y-70106185D01*
X128354285Y-70106185D02*
X128382857Y-70106185D01*
X128382857Y-70106185D02*
X128425714Y-70120471D01*
X128425714Y-70120471D02*
X128440000Y-70134757D01*
X128697143Y-70206185D02*
X128697143Y-70406185D01*
X128625714Y-70091900D02*
X128554285Y-70306185D01*
X128554285Y-70306185D02*
X128740000Y-70306185D01*
X126950000Y-70407614D02*
X126935714Y-70421900D01*
X126935714Y-70421900D02*
X126892857Y-70436185D01*
X126892857Y-70436185D02*
X126864285Y-70436185D01*
X126864285Y-70436185D02*
X126821428Y-70421900D01*
X126821428Y-70421900D02*
X126792857Y-70393328D01*
X126792857Y-70393328D02*
X126778571Y-70364757D01*
X126778571Y-70364757D02*
X126764285Y-70307614D01*
X126764285Y-70307614D02*
X126764285Y-70264757D01*
X126764285Y-70264757D02*
X126778571Y-70207614D01*
X126778571Y-70207614D02*
X126792857Y-70179042D01*
X126792857Y-70179042D02*
X126821428Y-70150471D01*
X126821428Y-70150471D02*
X126864285Y-70136185D01*
X126864285Y-70136185D02*
X126892857Y-70136185D01*
X126892857Y-70136185D02*
X126935714Y-70150471D01*
X126935714Y-70150471D02*
X126950000Y-70164757D01*
X127050000Y-70136185D02*
X127250000Y-70136185D01*
X127250000Y-70136185D02*
X127121428Y-70436185D01*
X130607143Y-57907614D02*
X130592857Y-57921900D01*
X130592857Y-57921900D02*
X130550000Y-57936185D01*
X130550000Y-57936185D02*
X130521428Y-57936185D01*
X130521428Y-57936185D02*
X130478571Y-57921900D01*
X130478571Y-57921900D02*
X130450000Y-57893328D01*
X130450000Y-57893328D02*
X130435714Y-57864757D01*
X130435714Y-57864757D02*
X130421428Y-57807614D01*
X130421428Y-57807614D02*
X130421428Y-57764757D01*
X130421428Y-57764757D02*
X130435714Y-57707614D01*
X130435714Y-57707614D02*
X130450000Y-57679042D01*
X130450000Y-57679042D02*
X130478571Y-57650471D01*
X130478571Y-57650471D02*
X130521428Y-57636185D01*
X130521428Y-57636185D02*
X130550000Y-57636185D01*
X130550000Y-57636185D02*
X130592857Y-57650471D01*
X130592857Y-57650471D02*
X130607143Y-57664757D01*
X130721428Y-57664757D02*
X130735714Y-57650471D01*
X130735714Y-57650471D02*
X130764286Y-57636185D01*
X130764286Y-57636185D02*
X130835714Y-57636185D01*
X130835714Y-57636185D02*
X130864286Y-57650471D01*
X130864286Y-57650471D02*
X130878571Y-57664757D01*
X130878571Y-57664757D02*
X130892857Y-57693328D01*
X130892857Y-57693328D02*
X130892857Y-57721900D01*
X130892857Y-57721900D02*
X130878571Y-57764757D01*
X130878571Y-57764757D02*
X130707143Y-57936185D01*
X130707143Y-57936185D02*
X130892857Y-57936185D01*
X131150000Y-57636185D02*
X131092857Y-57636185D01*
X131092857Y-57636185D02*
X131064285Y-57650471D01*
X131064285Y-57650471D02*
X131050000Y-57664757D01*
X131050000Y-57664757D02*
X131021428Y-57707614D01*
X131021428Y-57707614D02*
X131007142Y-57764757D01*
X131007142Y-57764757D02*
X131007142Y-57879042D01*
X131007142Y-57879042D02*
X131021428Y-57907614D01*
X131021428Y-57907614D02*
X131035714Y-57921900D01*
X131035714Y-57921900D02*
X131064285Y-57936185D01*
X131064285Y-57936185D02*
X131121428Y-57936185D01*
X131121428Y-57936185D02*
X131150000Y-57921900D01*
X131150000Y-57921900D02*
X131164285Y-57907614D01*
X131164285Y-57907614D02*
X131178571Y-57879042D01*
X131178571Y-57879042D02*
X131178571Y-57807614D01*
X131178571Y-57807614D02*
X131164285Y-57779042D01*
X131164285Y-57779042D02*
X131150000Y-57764757D01*
X131150000Y-57764757D02*
X131121428Y-57750471D01*
X131121428Y-57750471D02*
X131064285Y-57750471D01*
X131064285Y-57750471D02*
X131035714Y-57764757D01*
X131035714Y-57764757D02*
X131021428Y-57779042D01*
X131021428Y-57779042D02*
X131007142Y-57807614D01*
X122707614Y-70992856D02*
X122721900Y-71007142D01*
X122721900Y-71007142D02*
X122736185Y-71049999D01*
X122736185Y-71049999D02*
X122736185Y-71078571D01*
X122736185Y-71078571D02*
X122721900Y-71121428D01*
X122721900Y-71121428D02*
X122693328Y-71149999D01*
X122693328Y-71149999D02*
X122664757Y-71164285D01*
X122664757Y-71164285D02*
X122607614Y-71178571D01*
X122607614Y-71178571D02*
X122564757Y-71178571D01*
X122564757Y-71178571D02*
X122507614Y-71164285D01*
X122507614Y-71164285D02*
X122479042Y-71149999D01*
X122479042Y-71149999D02*
X122450471Y-71121428D01*
X122450471Y-71121428D02*
X122436185Y-71078571D01*
X122436185Y-71078571D02*
X122436185Y-71049999D01*
X122436185Y-71049999D02*
X122450471Y-71007142D01*
X122450471Y-71007142D02*
X122464757Y-70992856D01*
X122736185Y-70707142D02*
X122736185Y-70878571D01*
X122736185Y-70792856D02*
X122436185Y-70792856D01*
X122436185Y-70792856D02*
X122479042Y-70821428D01*
X122479042Y-70821428D02*
X122507614Y-70849999D01*
X122507614Y-70849999D02*
X122521900Y-70878571D01*
X122736185Y-70564285D02*
X122736185Y-70507142D01*
X122736185Y-70507142D02*
X122721900Y-70478571D01*
X122721900Y-70478571D02*
X122707614Y-70464285D01*
X122707614Y-70464285D02*
X122664757Y-70435714D01*
X122664757Y-70435714D02*
X122607614Y-70421428D01*
X122607614Y-70421428D02*
X122493328Y-70421428D01*
X122493328Y-70421428D02*
X122464757Y-70435714D01*
X122464757Y-70435714D02*
X122450471Y-70450000D01*
X122450471Y-70450000D02*
X122436185Y-70478571D01*
X122436185Y-70478571D02*
X122436185Y-70535714D01*
X122436185Y-70535714D02*
X122450471Y-70564285D01*
X122450471Y-70564285D02*
X122464757Y-70578571D01*
X122464757Y-70578571D02*
X122493328Y-70592857D01*
X122493328Y-70592857D02*
X122564757Y-70592857D01*
X122564757Y-70592857D02*
X122593328Y-70578571D01*
X122593328Y-70578571D02*
X122607614Y-70564285D01*
X122607614Y-70564285D02*
X122621900Y-70535714D01*
X122621900Y-70535714D02*
X122621900Y-70478571D01*
X122621900Y-70478571D02*
X122607614Y-70450000D01*
X122607614Y-70450000D02*
X122593328Y-70435714D01*
X122593328Y-70435714D02*
X122564757Y-70421428D01*
X123607614Y-63849999D02*
X123621900Y-63864285D01*
X123621900Y-63864285D02*
X123636185Y-63907142D01*
X123636185Y-63907142D02*
X123636185Y-63935714D01*
X123636185Y-63935714D02*
X123621900Y-63978571D01*
X123621900Y-63978571D02*
X123593328Y-64007142D01*
X123593328Y-64007142D02*
X123564757Y-64021428D01*
X123564757Y-64021428D02*
X123507614Y-64035714D01*
X123507614Y-64035714D02*
X123464757Y-64035714D01*
X123464757Y-64035714D02*
X123407614Y-64021428D01*
X123407614Y-64021428D02*
X123379042Y-64007142D01*
X123379042Y-64007142D02*
X123350471Y-63978571D01*
X123350471Y-63978571D02*
X123336185Y-63935714D01*
X123336185Y-63935714D02*
X123336185Y-63907142D01*
X123336185Y-63907142D02*
X123350471Y-63864285D01*
X123350471Y-63864285D02*
X123364757Y-63849999D01*
X123364757Y-63735714D02*
X123350471Y-63721428D01*
X123350471Y-63721428D02*
X123336185Y-63692857D01*
X123336185Y-63692857D02*
X123336185Y-63621428D01*
X123336185Y-63621428D02*
X123350471Y-63592857D01*
X123350471Y-63592857D02*
X123364757Y-63578571D01*
X123364757Y-63578571D02*
X123393328Y-63564285D01*
X123393328Y-63564285D02*
X123421900Y-63564285D01*
X123421900Y-63564285D02*
X123464757Y-63578571D01*
X123464757Y-63578571D02*
X123636185Y-63749999D01*
X123636185Y-63749999D02*
X123636185Y-63564285D01*
X126670000Y-71237614D02*
X126655714Y-71251900D01*
X126655714Y-71251900D02*
X126612857Y-71266185D01*
X126612857Y-71266185D02*
X126584285Y-71266185D01*
X126584285Y-71266185D02*
X126541428Y-71251900D01*
X126541428Y-71251900D02*
X126512857Y-71223328D01*
X126512857Y-71223328D02*
X126498571Y-71194757D01*
X126498571Y-71194757D02*
X126484285Y-71137614D01*
X126484285Y-71137614D02*
X126484285Y-71094757D01*
X126484285Y-71094757D02*
X126498571Y-71037614D01*
X126498571Y-71037614D02*
X126512857Y-71009042D01*
X126512857Y-71009042D02*
X126541428Y-70980471D01*
X126541428Y-70980471D02*
X126584285Y-70966185D01*
X126584285Y-70966185D02*
X126612857Y-70966185D01*
X126612857Y-70966185D02*
X126655714Y-70980471D01*
X126655714Y-70980471D02*
X126670000Y-70994757D01*
X126955714Y-71266185D02*
X126784285Y-71266185D01*
X126870000Y-71266185D02*
X126870000Y-70966185D01*
X126870000Y-70966185D02*
X126841428Y-71009042D01*
X126841428Y-71009042D02*
X126812857Y-71037614D01*
X126812857Y-71037614D02*
X126784285Y-71051900D01*
X119171428Y-68236185D02*
X119171428Y-68479042D01*
X119171428Y-68479042D02*
X119185714Y-68507614D01*
X119185714Y-68507614D02*
X119200000Y-68521900D01*
X119200000Y-68521900D02*
X119228571Y-68536185D01*
X119228571Y-68536185D02*
X119285714Y-68536185D01*
X119285714Y-68536185D02*
X119314285Y-68521900D01*
X119314285Y-68521900D02*
X119328571Y-68507614D01*
X119328571Y-68507614D02*
X119342857Y-68479042D01*
X119342857Y-68479042D02*
X119342857Y-68236185D01*
X119614286Y-68336185D02*
X119614286Y-68536185D01*
X119542857Y-68221900D02*
X119471428Y-68436185D01*
X119471428Y-68436185D02*
X119657143Y-68436185D01*
X123407614Y-71092856D02*
X123421900Y-71107142D01*
X123421900Y-71107142D02*
X123436185Y-71149999D01*
X123436185Y-71149999D02*
X123436185Y-71178571D01*
X123436185Y-71178571D02*
X123421900Y-71221428D01*
X123421900Y-71221428D02*
X123393328Y-71249999D01*
X123393328Y-71249999D02*
X123364757Y-71264285D01*
X123364757Y-71264285D02*
X123307614Y-71278571D01*
X123307614Y-71278571D02*
X123264757Y-71278571D01*
X123264757Y-71278571D02*
X123207614Y-71264285D01*
X123207614Y-71264285D02*
X123179042Y-71249999D01*
X123179042Y-71249999D02*
X123150471Y-71221428D01*
X123150471Y-71221428D02*
X123136185Y-71178571D01*
X123136185Y-71178571D02*
X123136185Y-71149999D01*
X123136185Y-71149999D02*
X123150471Y-71107142D01*
X123150471Y-71107142D02*
X123164757Y-71092856D01*
X123436185Y-70807142D02*
X123436185Y-70978571D01*
X123436185Y-70892856D02*
X123136185Y-70892856D01*
X123136185Y-70892856D02*
X123179042Y-70921428D01*
X123179042Y-70921428D02*
X123207614Y-70949999D01*
X123207614Y-70949999D02*
X123221900Y-70978571D01*
X123264757Y-70635714D02*
X123250471Y-70664285D01*
X123250471Y-70664285D02*
X123236185Y-70678571D01*
X123236185Y-70678571D02*
X123207614Y-70692857D01*
X123207614Y-70692857D02*
X123193328Y-70692857D01*
X123193328Y-70692857D02*
X123164757Y-70678571D01*
X123164757Y-70678571D02*
X123150471Y-70664285D01*
X123150471Y-70664285D02*
X123136185Y-70635714D01*
X123136185Y-70635714D02*
X123136185Y-70578571D01*
X123136185Y-70578571D02*
X123150471Y-70550000D01*
X123150471Y-70550000D02*
X123164757Y-70535714D01*
X123164757Y-70535714D02*
X123193328Y-70521428D01*
X123193328Y-70521428D02*
X123207614Y-70521428D01*
X123207614Y-70521428D02*
X123236185Y-70535714D01*
X123236185Y-70535714D02*
X123250471Y-70550000D01*
X123250471Y-70550000D02*
X123264757Y-70578571D01*
X123264757Y-70578571D02*
X123264757Y-70635714D01*
X123264757Y-70635714D02*
X123279042Y-70664285D01*
X123279042Y-70664285D02*
X123293328Y-70678571D01*
X123293328Y-70678571D02*
X123321900Y-70692857D01*
X123321900Y-70692857D02*
X123379042Y-70692857D01*
X123379042Y-70692857D02*
X123407614Y-70678571D01*
X123407614Y-70678571D02*
X123421900Y-70664285D01*
X123421900Y-70664285D02*
X123436185Y-70635714D01*
X123436185Y-70635714D02*
X123436185Y-70578571D01*
X123436185Y-70578571D02*
X123421900Y-70550000D01*
X123421900Y-70550000D02*
X123407614Y-70535714D01*
X123407614Y-70535714D02*
X123379042Y-70521428D01*
X123379042Y-70521428D02*
X123321900Y-70521428D01*
X123321900Y-70521428D02*
X123293328Y-70535714D01*
X123293328Y-70535714D02*
X123279042Y-70550000D01*
X123279042Y-70550000D02*
X123264757Y-70578571D01*
X120807143Y-70536185D02*
X120707143Y-70393328D01*
X120635714Y-70536185D02*
X120635714Y-70236185D01*
X120635714Y-70236185D02*
X120750000Y-70236185D01*
X120750000Y-70236185D02*
X120778571Y-70250471D01*
X120778571Y-70250471D02*
X120792857Y-70264757D01*
X120792857Y-70264757D02*
X120807143Y-70293328D01*
X120807143Y-70293328D02*
X120807143Y-70336185D01*
X120807143Y-70336185D02*
X120792857Y-70364757D01*
X120792857Y-70364757D02*
X120778571Y-70379042D01*
X120778571Y-70379042D02*
X120750000Y-70393328D01*
X120750000Y-70393328D02*
X120635714Y-70393328D01*
X120921428Y-70264757D02*
X120935714Y-70250471D01*
X120935714Y-70250471D02*
X120964286Y-70236185D01*
X120964286Y-70236185D02*
X121035714Y-70236185D01*
X121035714Y-70236185D02*
X121064286Y-70250471D01*
X121064286Y-70250471D02*
X121078571Y-70264757D01*
X121078571Y-70264757D02*
X121092857Y-70293328D01*
X121092857Y-70293328D02*
X121092857Y-70321900D01*
X121092857Y-70321900D02*
X121078571Y-70364757D01*
X121078571Y-70364757D02*
X120907143Y-70536185D01*
X120907143Y-70536185D02*
X121092857Y-70536185D01*
X121350000Y-70336185D02*
X121350000Y-70536185D01*
X121278571Y-70221900D02*
X121207142Y-70436185D01*
X121207142Y-70436185D02*
X121392857Y-70436185D01*
X116036185Y-68192856D02*
X115893328Y-68292856D01*
X116036185Y-68364285D02*
X115736185Y-68364285D01*
X115736185Y-68364285D02*
X115736185Y-68249999D01*
X115736185Y-68249999D02*
X115750471Y-68221428D01*
X115750471Y-68221428D02*
X115764757Y-68207142D01*
X115764757Y-68207142D02*
X115793328Y-68192856D01*
X115793328Y-68192856D02*
X115836185Y-68192856D01*
X115836185Y-68192856D02*
X115864757Y-68207142D01*
X115864757Y-68207142D02*
X115879042Y-68221428D01*
X115879042Y-68221428D02*
X115893328Y-68249999D01*
X115893328Y-68249999D02*
X115893328Y-68364285D01*
X116036185Y-67907142D02*
X116036185Y-68078571D01*
X116036185Y-67992856D02*
X115736185Y-67992856D01*
X115736185Y-67992856D02*
X115779042Y-68021428D01*
X115779042Y-68021428D02*
X115807614Y-68049999D01*
X115807614Y-68049999D02*
X115821900Y-68078571D01*
X116036185Y-67764285D02*
X116036185Y-67707142D01*
X116036185Y-67707142D02*
X116021900Y-67678571D01*
X116021900Y-67678571D02*
X116007614Y-67664285D01*
X116007614Y-67664285D02*
X115964757Y-67635714D01*
X115964757Y-67635714D02*
X115907614Y-67621428D01*
X115907614Y-67621428D02*
X115793328Y-67621428D01*
X115793328Y-67621428D02*
X115764757Y-67635714D01*
X115764757Y-67635714D02*
X115750471Y-67650000D01*
X115750471Y-67650000D02*
X115736185Y-67678571D01*
X115736185Y-67678571D02*
X115736185Y-67735714D01*
X115736185Y-67735714D02*
X115750471Y-67764285D01*
X115750471Y-67764285D02*
X115764757Y-67778571D01*
X115764757Y-67778571D02*
X115793328Y-67792857D01*
X115793328Y-67792857D02*
X115864757Y-67792857D01*
X115864757Y-67792857D02*
X115893328Y-67778571D01*
X115893328Y-67778571D02*
X115907614Y-67764285D01*
X115907614Y-67764285D02*
X115921900Y-67735714D01*
X115921900Y-67735714D02*
X115921900Y-67678571D01*
X115921900Y-67678571D02*
X115907614Y-67650000D01*
X115907614Y-67650000D02*
X115893328Y-67635714D01*
X115893328Y-67635714D02*
X115864757Y-67621428D01*
X118771428Y-58936185D02*
X118771428Y-59179042D01*
X118771428Y-59179042D02*
X118785714Y-59207614D01*
X118785714Y-59207614D02*
X118800000Y-59221900D01*
X118800000Y-59221900D02*
X118828571Y-59236185D01*
X118828571Y-59236185D02*
X118885714Y-59236185D01*
X118885714Y-59236185D02*
X118914285Y-59221900D01*
X118914285Y-59221900D02*
X118928571Y-59207614D01*
X118928571Y-59207614D02*
X118942857Y-59179042D01*
X118942857Y-59179042D02*
X118942857Y-58936185D01*
X119057143Y-58936185D02*
X119242857Y-58936185D01*
X119242857Y-58936185D02*
X119142857Y-59050471D01*
X119142857Y-59050471D02*
X119185714Y-59050471D01*
X119185714Y-59050471D02*
X119214286Y-59064757D01*
X119214286Y-59064757D02*
X119228571Y-59079042D01*
X119228571Y-59079042D02*
X119242857Y-59107614D01*
X119242857Y-59107614D02*
X119242857Y-59179042D01*
X119242857Y-59179042D02*
X119228571Y-59207614D01*
X119228571Y-59207614D02*
X119214286Y-59221900D01*
X119214286Y-59221900D02*
X119185714Y-59236185D01*
X119185714Y-59236185D02*
X119100000Y-59236185D01*
X119100000Y-59236185D02*
X119071428Y-59221900D01*
X119071428Y-59221900D02*
X119057143Y-59207614D01*
X122236185Y-64849999D02*
X122236185Y-64992856D01*
X122236185Y-64992856D02*
X121936185Y-64992856D01*
X122236185Y-64735713D02*
X122236185Y-64678570D01*
X122236185Y-64678570D02*
X122221900Y-64649999D01*
X122221900Y-64649999D02*
X122207614Y-64635713D01*
X122207614Y-64635713D02*
X122164757Y-64607142D01*
X122164757Y-64607142D02*
X122107614Y-64592856D01*
X122107614Y-64592856D02*
X121993328Y-64592856D01*
X121993328Y-64592856D02*
X121964757Y-64607142D01*
X121964757Y-64607142D02*
X121950471Y-64621428D01*
X121950471Y-64621428D02*
X121936185Y-64649999D01*
X121936185Y-64649999D02*
X121936185Y-64707142D01*
X121936185Y-64707142D02*
X121950471Y-64735713D01*
X121950471Y-64735713D02*
X121964757Y-64749999D01*
X121964757Y-64749999D02*
X121993328Y-64764285D01*
X121993328Y-64764285D02*
X122064757Y-64764285D01*
X122064757Y-64764285D02*
X122093328Y-64749999D01*
X122093328Y-64749999D02*
X122107614Y-64735713D01*
X122107614Y-64735713D02*
X122121900Y-64707142D01*
X122121900Y-64707142D02*
X122121900Y-64649999D01*
X122121900Y-64649999D02*
X122107614Y-64621428D01*
X122107614Y-64621428D02*
X122093328Y-64607142D01*
X122093328Y-64607142D02*
X122064757Y-64592856D01*
X121636185Y-63392856D02*
X121493328Y-63492856D01*
X121636185Y-63564285D02*
X121336185Y-63564285D01*
X121336185Y-63564285D02*
X121336185Y-63449999D01*
X121336185Y-63449999D02*
X121350471Y-63421428D01*
X121350471Y-63421428D02*
X121364757Y-63407142D01*
X121364757Y-63407142D02*
X121393328Y-63392856D01*
X121393328Y-63392856D02*
X121436185Y-63392856D01*
X121436185Y-63392856D02*
X121464757Y-63407142D01*
X121464757Y-63407142D02*
X121479042Y-63421428D01*
X121479042Y-63421428D02*
X121493328Y-63449999D01*
X121493328Y-63449999D02*
X121493328Y-63564285D01*
X121636185Y-63107142D02*
X121636185Y-63278571D01*
X121636185Y-63192856D02*
X121336185Y-63192856D01*
X121336185Y-63192856D02*
X121379042Y-63221428D01*
X121379042Y-63221428D02*
X121407614Y-63249999D01*
X121407614Y-63249999D02*
X121421900Y-63278571D01*
X121364757Y-62992857D02*
X121350471Y-62978571D01*
X121350471Y-62978571D02*
X121336185Y-62950000D01*
X121336185Y-62950000D02*
X121336185Y-62878571D01*
X121336185Y-62878571D02*
X121350471Y-62850000D01*
X121350471Y-62850000D02*
X121364757Y-62835714D01*
X121364757Y-62835714D02*
X121393328Y-62821428D01*
X121393328Y-62821428D02*
X121421900Y-62821428D01*
X121421900Y-62821428D02*
X121464757Y-62835714D01*
X121464757Y-62835714D02*
X121636185Y-63007142D01*
X121636185Y-63007142D02*
X121636185Y-62821428D01*
X116807614Y-58092856D02*
X116821900Y-58107142D01*
X116821900Y-58107142D02*
X116836185Y-58149999D01*
X116836185Y-58149999D02*
X116836185Y-58178571D01*
X116836185Y-58178571D02*
X116821900Y-58221428D01*
X116821900Y-58221428D02*
X116793328Y-58249999D01*
X116793328Y-58249999D02*
X116764757Y-58264285D01*
X116764757Y-58264285D02*
X116707614Y-58278571D01*
X116707614Y-58278571D02*
X116664757Y-58278571D01*
X116664757Y-58278571D02*
X116607614Y-58264285D01*
X116607614Y-58264285D02*
X116579042Y-58249999D01*
X116579042Y-58249999D02*
X116550471Y-58221428D01*
X116550471Y-58221428D02*
X116536185Y-58178571D01*
X116536185Y-58178571D02*
X116536185Y-58149999D01*
X116536185Y-58149999D02*
X116550471Y-58107142D01*
X116550471Y-58107142D02*
X116564757Y-58092856D01*
X116564757Y-57978571D02*
X116550471Y-57964285D01*
X116550471Y-57964285D02*
X116536185Y-57935714D01*
X116536185Y-57935714D02*
X116536185Y-57864285D01*
X116536185Y-57864285D02*
X116550471Y-57835714D01*
X116550471Y-57835714D02*
X116564757Y-57821428D01*
X116564757Y-57821428D02*
X116593328Y-57807142D01*
X116593328Y-57807142D02*
X116621900Y-57807142D01*
X116621900Y-57807142D02*
X116664757Y-57821428D01*
X116664757Y-57821428D02*
X116836185Y-57992856D01*
X116836185Y-57992856D02*
X116836185Y-57807142D01*
X116836185Y-57521428D02*
X116836185Y-57692857D01*
X116836185Y-57607142D02*
X116536185Y-57607142D01*
X116536185Y-57607142D02*
X116579042Y-57635714D01*
X116579042Y-57635714D02*
X116607614Y-57664285D01*
X116607614Y-57664285D02*
X116621900Y-57692857D01*
X130050000Y-63107614D02*
X130035714Y-63121900D01*
X130035714Y-63121900D02*
X129992857Y-63136185D01*
X129992857Y-63136185D02*
X129964285Y-63136185D01*
X129964285Y-63136185D02*
X129921428Y-63121900D01*
X129921428Y-63121900D02*
X129892857Y-63093328D01*
X129892857Y-63093328D02*
X129878571Y-63064757D01*
X129878571Y-63064757D02*
X129864285Y-63007614D01*
X129864285Y-63007614D02*
X129864285Y-62964757D01*
X129864285Y-62964757D02*
X129878571Y-62907614D01*
X129878571Y-62907614D02*
X129892857Y-62879042D01*
X129892857Y-62879042D02*
X129921428Y-62850471D01*
X129921428Y-62850471D02*
X129964285Y-62836185D01*
X129964285Y-62836185D02*
X129992857Y-62836185D01*
X129992857Y-62836185D02*
X130035714Y-62850471D01*
X130035714Y-62850471D02*
X130050000Y-62864757D01*
X130192857Y-63136185D02*
X130250000Y-63136185D01*
X130250000Y-63136185D02*
X130278571Y-63121900D01*
X130278571Y-63121900D02*
X130292857Y-63107614D01*
X130292857Y-63107614D02*
X130321428Y-63064757D01*
X130321428Y-63064757D02*
X130335714Y-63007614D01*
X130335714Y-63007614D02*
X130335714Y-62893328D01*
X130335714Y-62893328D02*
X130321428Y-62864757D01*
X130321428Y-62864757D02*
X130307143Y-62850471D01*
X130307143Y-62850471D02*
X130278571Y-62836185D01*
X130278571Y-62836185D02*
X130221428Y-62836185D01*
X130221428Y-62836185D02*
X130192857Y-62850471D01*
X130192857Y-62850471D02*
X130178571Y-62864757D01*
X130178571Y-62864757D02*
X130164285Y-62893328D01*
X130164285Y-62893328D02*
X130164285Y-62964757D01*
X130164285Y-62964757D02*
X130178571Y-62993328D01*
X130178571Y-62993328D02*
X130192857Y-63007614D01*
X130192857Y-63007614D02*
X130221428Y-63021900D01*
X130221428Y-63021900D02*
X130278571Y-63021900D01*
X130278571Y-63021900D02*
X130307143Y-63007614D01*
X130307143Y-63007614D02*
X130321428Y-62993328D01*
X130321428Y-62993328D02*
X130335714Y-62964757D01*
X130107614Y-61149999D02*
X130121900Y-61164285D01*
X130121900Y-61164285D02*
X130136185Y-61207142D01*
X130136185Y-61207142D02*
X130136185Y-61235714D01*
X130136185Y-61235714D02*
X130121900Y-61278571D01*
X130121900Y-61278571D02*
X130093328Y-61307142D01*
X130093328Y-61307142D02*
X130064757Y-61321428D01*
X130064757Y-61321428D02*
X130007614Y-61335714D01*
X130007614Y-61335714D02*
X129964757Y-61335714D01*
X129964757Y-61335714D02*
X129907614Y-61321428D01*
X129907614Y-61321428D02*
X129879042Y-61307142D01*
X129879042Y-61307142D02*
X129850471Y-61278571D01*
X129850471Y-61278571D02*
X129836185Y-61235714D01*
X129836185Y-61235714D02*
X129836185Y-61207142D01*
X129836185Y-61207142D02*
X129850471Y-61164285D01*
X129850471Y-61164285D02*
X129864757Y-61149999D01*
X129836185Y-60892857D02*
X129836185Y-60949999D01*
X129836185Y-60949999D02*
X129850471Y-60978571D01*
X129850471Y-60978571D02*
X129864757Y-60992857D01*
X129864757Y-60992857D02*
X129907614Y-61021428D01*
X129907614Y-61021428D02*
X129964757Y-61035714D01*
X129964757Y-61035714D02*
X130079042Y-61035714D01*
X130079042Y-61035714D02*
X130107614Y-61021428D01*
X130107614Y-61021428D02*
X130121900Y-61007142D01*
X130121900Y-61007142D02*
X130136185Y-60978571D01*
X130136185Y-60978571D02*
X130136185Y-60921428D01*
X130136185Y-60921428D02*
X130121900Y-60892857D01*
X130121900Y-60892857D02*
X130107614Y-60878571D01*
X130107614Y-60878571D02*
X130079042Y-60864285D01*
X130079042Y-60864285D02*
X130007614Y-60864285D01*
X130007614Y-60864285D02*
X129979042Y-60878571D01*
X129979042Y-60878571D02*
X129964757Y-60892857D01*
X129964757Y-60892857D02*
X129950471Y-60921428D01*
X129950471Y-60921428D02*
X129950471Y-60978571D01*
X129950471Y-60978571D02*
X129964757Y-61007142D01*
X129964757Y-61007142D02*
X129979042Y-61021428D01*
X129979042Y-61021428D02*
X130007614Y-61035714D01*
X124807614Y-65192856D02*
X124821900Y-65207142D01*
X124821900Y-65207142D02*
X124836185Y-65249999D01*
X124836185Y-65249999D02*
X124836185Y-65278571D01*
X124836185Y-65278571D02*
X124821900Y-65321428D01*
X124821900Y-65321428D02*
X124793328Y-65349999D01*
X124793328Y-65349999D02*
X124764757Y-65364285D01*
X124764757Y-65364285D02*
X124707614Y-65378571D01*
X124707614Y-65378571D02*
X124664757Y-65378571D01*
X124664757Y-65378571D02*
X124607614Y-65364285D01*
X124607614Y-65364285D02*
X124579042Y-65349999D01*
X124579042Y-65349999D02*
X124550471Y-65321428D01*
X124550471Y-65321428D02*
X124536185Y-65278571D01*
X124536185Y-65278571D02*
X124536185Y-65249999D01*
X124536185Y-65249999D02*
X124550471Y-65207142D01*
X124550471Y-65207142D02*
X124564757Y-65192856D01*
X124836185Y-64907142D02*
X124836185Y-65078571D01*
X124836185Y-64992856D02*
X124536185Y-64992856D01*
X124536185Y-64992856D02*
X124579042Y-65021428D01*
X124579042Y-65021428D02*
X124607614Y-65049999D01*
X124607614Y-65049999D02*
X124621900Y-65078571D01*
X124536185Y-64635714D02*
X124536185Y-64778571D01*
X124536185Y-64778571D02*
X124679042Y-64792857D01*
X124679042Y-64792857D02*
X124664757Y-64778571D01*
X124664757Y-64778571D02*
X124650471Y-64750000D01*
X124650471Y-64750000D02*
X124650471Y-64678571D01*
X124650471Y-64678571D02*
X124664757Y-64650000D01*
X124664757Y-64650000D02*
X124679042Y-64635714D01*
X124679042Y-64635714D02*
X124707614Y-64621428D01*
X124707614Y-64621428D02*
X124779042Y-64621428D01*
X124779042Y-64621428D02*
X124807614Y-64635714D01*
X124807614Y-64635714D02*
X124821900Y-64650000D01*
X124821900Y-64650000D02*
X124836185Y-64678571D01*
X124836185Y-64678571D02*
X124836185Y-64750000D01*
X124836185Y-64750000D02*
X124821900Y-64778571D01*
X124821900Y-64778571D02*
X124807614Y-64792857D01*
X118850000Y-63536185D02*
X118707143Y-63536185D01*
X118707143Y-63536185D02*
X118707143Y-63236185D01*
X118992857Y-63364757D02*
X118964286Y-63350471D01*
X118964286Y-63350471D02*
X118950000Y-63336185D01*
X118950000Y-63336185D02*
X118935714Y-63307614D01*
X118935714Y-63307614D02*
X118935714Y-63293328D01*
X118935714Y-63293328D02*
X118950000Y-63264757D01*
X118950000Y-63264757D02*
X118964286Y-63250471D01*
X118964286Y-63250471D02*
X118992857Y-63236185D01*
X118992857Y-63236185D02*
X119050000Y-63236185D01*
X119050000Y-63236185D02*
X119078572Y-63250471D01*
X119078572Y-63250471D02*
X119092857Y-63264757D01*
X119092857Y-63264757D02*
X119107143Y-63293328D01*
X119107143Y-63293328D02*
X119107143Y-63307614D01*
X119107143Y-63307614D02*
X119092857Y-63336185D01*
X119092857Y-63336185D02*
X119078572Y-63350471D01*
X119078572Y-63350471D02*
X119050000Y-63364757D01*
X119050000Y-63364757D02*
X118992857Y-63364757D01*
X118992857Y-63364757D02*
X118964286Y-63379042D01*
X118964286Y-63379042D02*
X118950000Y-63393328D01*
X118950000Y-63393328D02*
X118935714Y-63421900D01*
X118935714Y-63421900D02*
X118935714Y-63479042D01*
X118935714Y-63479042D02*
X118950000Y-63507614D01*
X118950000Y-63507614D02*
X118964286Y-63521900D01*
X118964286Y-63521900D02*
X118992857Y-63536185D01*
X118992857Y-63536185D02*
X119050000Y-63536185D01*
X119050000Y-63536185D02*
X119078572Y-63521900D01*
X119078572Y-63521900D02*
X119092857Y-63507614D01*
X119092857Y-63507614D02*
X119107143Y-63479042D01*
X119107143Y-63479042D02*
X119107143Y-63421900D01*
X119107143Y-63421900D02*
X119092857Y-63393328D01*
X119092857Y-63393328D02*
X119078572Y-63379042D01*
X119078572Y-63379042D02*
X119050000Y-63364757D01*
X123636185Y-66749999D02*
X123493328Y-66849999D01*
X123636185Y-66921428D02*
X123336185Y-66921428D01*
X123336185Y-66921428D02*
X123336185Y-66807142D01*
X123336185Y-66807142D02*
X123350471Y-66778571D01*
X123350471Y-66778571D02*
X123364757Y-66764285D01*
X123364757Y-66764285D02*
X123393328Y-66749999D01*
X123393328Y-66749999D02*
X123436185Y-66749999D01*
X123436185Y-66749999D02*
X123464757Y-66764285D01*
X123464757Y-66764285D02*
X123479042Y-66778571D01*
X123479042Y-66778571D02*
X123493328Y-66807142D01*
X123493328Y-66807142D02*
X123493328Y-66921428D01*
X123436185Y-66492857D02*
X123636185Y-66492857D01*
X123321900Y-66564285D02*
X123536185Y-66635714D01*
X123536185Y-66635714D02*
X123536185Y-66449999D01*
X125107614Y-62949999D02*
X125121900Y-62964285D01*
X125121900Y-62964285D02*
X125136185Y-63007142D01*
X125136185Y-63007142D02*
X125136185Y-63035714D01*
X125136185Y-63035714D02*
X125121900Y-63078571D01*
X125121900Y-63078571D02*
X125093328Y-63107142D01*
X125093328Y-63107142D02*
X125064757Y-63121428D01*
X125064757Y-63121428D02*
X125007614Y-63135714D01*
X125007614Y-63135714D02*
X124964757Y-63135714D01*
X124964757Y-63135714D02*
X124907614Y-63121428D01*
X124907614Y-63121428D02*
X124879042Y-63107142D01*
X124879042Y-63107142D02*
X124850471Y-63078571D01*
X124850471Y-63078571D02*
X124836185Y-63035714D01*
X124836185Y-63035714D02*
X124836185Y-63007142D01*
X124836185Y-63007142D02*
X124850471Y-62964285D01*
X124850471Y-62964285D02*
X124864757Y-62949999D01*
X124836185Y-62678571D02*
X124836185Y-62821428D01*
X124836185Y-62821428D02*
X124979042Y-62835714D01*
X124979042Y-62835714D02*
X124964757Y-62821428D01*
X124964757Y-62821428D02*
X124950471Y-62792857D01*
X124950471Y-62792857D02*
X124950471Y-62721428D01*
X124950471Y-62721428D02*
X124964757Y-62692857D01*
X124964757Y-62692857D02*
X124979042Y-62678571D01*
X124979042Y-62678571D02*
X125007614Y-62664285D01*
X125007614Y-62664285D02*
X125079042Y-62664285D01*
X125079042Y-62664285D02*
X125107614Y-62678571D01*
X125107614Y-62678571D02*
X125121900Y-62692857D01*
X125121900Y-62692857D02*
X125136185Y-62721428D01*
X125136185Y-62721428D02*
X125136185Y-62792857D01*
X125136185Y-62792857D02*
X125121900Y-62821428D01*
X125121900Y-62821428D02*
X125107614Y-62835714D01*
X130057614Y-58492856D02*
X130071900Y-58507142D01*
X130071900Y-58507142D02*
X130086185Y-58549999D01*
X130086185Y-58549999D02*
X130086185Y-58578571D01*
X130086185Y-58578571D02*
X130071900Y-58621428D01*
X130071900Y-58621428D02*
X130043328Y-58649999D01*
X130043328Y-58649999D02*
X130014757Y-58664285D01*
X130014757Y-58664285D02*
X129957614Y-58678571D01*
X129957614Y-58678571D02*
X129914757Y-58678571D01*
X129914757Y-58678571D02*
X129857614Y-58664285D01*
X129857614Y-58664285D02*
X129829042Y-58649999D01*
X129829042Y-58649999D02*
X129800471Y-58621428D01*
X129800471Y-58621428D02*
X129786185Y-58578571D01*
X129786185Y-58578571D02*
X129786185Y-58549999D01*
X129786185Y-58549999D02*
X129800471Y-58507142D01*
X129800471Y-58507142D02*
X129814757Y-58492856D01*
X129814757Y-58378571D02*
X129800471Y-58364285D01*
X129800471Y-58364285D02*
X129786185Y-58335714D01*
X129786185Y-58335714D02*
X129786185Y-58264285D01*
X129786185Y-58264285D02*
X129800471Y-58235714D01*
X129800471Y-58235714D02*
X129814757Y-58221428D01*
X129814757Y-58221428D02*
X129843328Y-58207142D01*
X129843328Y-58207142D02*
X129871900Y-58207142D01*
X129871900Y-58207142D02*
X129914757Y-58221428D01*
X129914757Y-58221428D02*
X130086185Y-58392856D01*
X130086185Y-58392856D02*
X130086185Y-58207142D01*
X129786185Y-57935714D02*
X129786185Y-58078571D01*
X129786185Y-58078571D02*
X129929042Y-58092857D01*
X129929042Y-58092857D02*
X129914757Y-58078571D01*
X129914757Y-58078571D02*
X129900471Y-58050000D01*
X129900471Y-58050000D02*
X129900471Y-57978571D01*
X129900471Y-57978571D02*
X129914757Y-57950000D01*
X129914757Y-57950000D02*
X129929042Y-57935714D01*
X129929042Y-57935714D02*
X129957614Y-57921428D01*
X129957614Y-57921428D02*
X130029042Y-57921428D01*
X130029042Y-57921428D02*
X130057614Y-57935714D01*
X130057614Y-57935714D02*
X130071900Y-57950000D01*
X130071900Y-57950000D02*
X130086185Y-57978571D01*
X130086185Y-57978571D02*
X130086185Y-58050000D01*
X130086185Y-58050000D02*
X130071900Y-58078571D01*
X130071900Y-58078571D02*
X130057614Y-58092857D01*
X125500000Y-59536185D02*
X125500000Y-59750471D01*
X125500000Y-59750471D02*
X125485715Y-59793328D01*
X125485715Y-59793328D02*
X125457143Y-59821900D01*
X125457143Y-59821900D02*
X125414286Y-59836185D01*
X125414286Y-59836185D02*
X125385715Y-59836185D01*
X125785714Y-59536185D02*
X125642857Y-59536185D01*
X125642857Y-59536185D02*
X125628571Y-59679042D01*
X125628571Y-59679042D02*
X125642857Y-59664757D01*
X125642857Y-59664757D02*
X125671429Y-59650471D01*
X125671429Y-59650471D02*
X125742857Y-59650471D01*
X125742857Y-59650471D02*
X125771429Y-59664757D01*
X125771429Y-59664757D02*
X125785714Y-59679042D01*
X125785714Y-59679042D02*
X125800000Y-59707614D01*
X125800000Y-59707614D02*
X125800000Y-59779042D01*
X125800000Y-59779042D02*
X125785714Y-59807614D01*
X125785714Y-59807614D02*
X125771429Y-59821900D01*
X125771429Y-59821900D02*
X125742857Y-59836185D01*
X125742857Y-59836185D02*
X125671429Y-59836185D01*
X125671429Y-59836185D02*
X125642857Y-59821900D01*
X125642857Y-59821900D02*
X125628571Y-59807614D01*
X128232614Y-61992856D02*
X128246900Y-62007142D01*
X128246900Y-62007142D02*
X128261185Y-62049999D01*
X128261185Y-62049999D02*
X128261185Y-62078571D01*
X128261185Y-62078571D02*
X128246900Y-62121428D01*
X128246900Y-62121428D02*
X128218328Y-62149999D01*
X128218328Y-62149999D02*
X128189757Y-62164285D01*
X128189757Y-62164285D02*
X128132614Y-62178571D01*
X128132614Y-62178571D02*
X128089757Y-62178571D01*
X128089757Y-62178571D02*
X128032614Y-62164285D01*
X128032614Y-62164285D02*
X128004042Y-62149999D01*
X128004042Y-62149999D02*
X127975471Y-62121428D01*
X127975471Y-62121428D02*
X127961185Y-62078571D01*
X127961185Y-62078571D02*
X127961185Y-62049999D01*
X127961185Y-62049999D02*
X127975471Y-62007142D01*
X127975471Y-62007142D02*
X127989757Y-61992856D01*
X127961185Y-61892856D02*
X127961185Y-61707142D01*
X127961185Y-61707142D02*
X128075471Y-61807142D01*
X128075471Y-61807142D02*
X128075471Y-61764285D01*
X128075471Y-61764285D02*
X128089757Y-61735714D01*
X128089757Y-61735714D02*
X128104042Y-61721428D01*
X128104042Y-61721428D02*
X128132614Y-61707142D01*
X128132614Y-61707142D02*
X128204042Y-61707142D01*
X128204042Y-61707142D02*
X128232614Y-61721428D01*
X128232614Y-61721428D02*
X128246900Y-61735714D01*
X128246900Y-61735714D02*
X128261185Y-61764285D01*
X128261185Y-61764285D02*
X128261185Y-61849999D01*
X128261185Y-61849999D02*
X128246900Y-61878571D01*
X128246900Y-61878571D02*
X128232614Y-61892856D01*
X127961185Y-61435714D02*
X127961185Y-61578571D01*
X127961185Y-61578571D02*
X128104042Y-61592857D01*
X128104042Y-61592857D02*
X128089757Y-61578571D01*
X128089757Y-61578571D02*
X128075471Y-61550000D01*
X128075471Y-61550000D02*
X128075471Y-61478571D01*
X128075471Y-61478571D02*
X128089757Y-61450000D01*
X128089757Y-61450000D02*
X128104042Y-61435714D01*
X128104042Y-61435714D02*
X128132614Y-61421428D01*
X128132614Y-61421428D02*
X128204042Y-61421428D01*
X128204042Y-61421428D02*
X128232614Y-61435714D01*
X128232614Y-61435714D02*
X128246900Y-61450000D01*
X128246900Y-61450000D02*
X128261185Y-61478571D01*
X128261185Y-61478571D02*
X128261185Y-61550000D01*
X128261185Y-61550000D02*
X128246900Y-61578571D01*
X128246900Y-61578571D02*
X128232614Y-61592857D01*
X123450000Y-68536185D02*
X123350000Y-68393328D01*
X123278571Y-68536185D02*
X123278571Y-68236185D01*
X123278571Y-68236185D02*
X123392857Y-68236185D01*
X123392857Y-68236185D02*
X123421428Y-68250471D01*
X123421428Y-68250471D02*
X123435714Y-68264757D01*
X123435714Y-68264757D02*
X123450000Y-68293328D01*
X123450000Y-68293328D02*
X123450000Y-68336185D01*
X123450000Y-68336185D02*
X123435714Y-68364757D01*
X123435714Y-68364757D02*
X123421428Y-68379042D01*
X123421428Y-68379042D02*
X123392857Y-68393328D01*
X123392857Y-68393328D02*
X123278571Y-68393328D01*
X123550000Y-68236185D02*
X123735714Y-68236185D01*
X123735714Y-68236185D02*
X123635714Y-68350471D01*
X123635714Y-68350471D02*
X123678571Y-68350471D01*
X123678571Y-68350471D02*
X123707143Y-68364757D01*
X123707143Y-68364757D02*
X123721428Y-68379042D01*
X123721428Y-68379042D02*
X123735714Y-68407614D01*
X123735714Y-68407614D02*
X123735714Y-68479042D01*
X123735714Y-68479042D02*
X123721428Y-68507614D01*
X123721428Y-68507614D02*
X123707143Y-68521900D01*
X123707143Y-68521900D02*
X123678571Y-68536185D01*
X123678571Y-68536185D02*
X123592857Y-68536185D01*
X123592857Y-68536185D02*
X123564285Y-68521900D01*
X123564285Y-68521900D02*
X123550000Y-68507614D01*
X130947143Y-59636185D02*
X130847143Y-59493328D01*
X130775714Y-59636185D02*
X130775714Y-59336185D01*
X130775714Y-59336185D02*
X130890000Y-59336185D01*
X130890000Y-59336185D02*
X130918571Y-59350471D01*
X130918571Y-59350471D02*
X130932857Y-59364757D01*
X130932857Y-59364757D02*
X130947143Y-59393328D01*
X130947143Y-59393328D02*
X130947143Y-59436185D01*
X130947143Y-59436185D02*
X130932857Y-59464757D01*
X130932857Y-59464757D02*
X130918571Y-59479042D01*
X130918571Y-59479042D02*
X130890000Y-59493328D01*
X130890000Y-59493328D02*
X130775714Y-59493328D01*
X131232857Y-59636185D02*
X131061428Y-59636185D01*
X131147143Y-59636185D02*
X131147143Y-59336185D01*
X131147143Y-59336185D02*
X131118571Y-59379042D01*
X131118571Y-59379042D02*
X131090000Y-59407614D01*
X131090000Y-59407614D02*
X131061428Y-59421900D01*
X131332857Y-59336185D02*
X131532857Y-59336185D01*
X131532857Y-59336185D02*
X131404285Y-59636185D01*
X119807143Y-70507614D02*
X119792857Y-70521900D01*
X119792857Y-70521900D02*
X119750000Y-70536185D01*
X119750000Y-70536185D02*
X119721428Y-70536185D01*
X119721428Y-70536185D02*
X119678571Y-70521900D01*
X119678571Y-70521900D02*
X119650000Y-70493328D01*
X119650000Y-70493328D02*
X119635714Y-70464757D01*
X119635714Y-70464757D02*
X119621428Y-70407614D01*
X119621428Y-70407614D02*
X119621428Y-70364757D01*
X119621428Y-70364757D02*
X119635714Y-70307614D01*
X119635714Y-70307614D02*
X119650000Y-70279042D01*
X119650000Y-70279042D02*
X119678571Y-70250471D01*
X119678571Y-70250471D02*
X119721428Y-70236185D01*
X119721428Y-70236185D02*
X119750000Y-70236185D01*
X119750000Y-70236185D02*
X119792857Y-70250471D01*
X119792857Y-70250471D02*
X119807143Y-70264757D01*
X120064286Y-70236185D02*
X120007143Y-70236185D01*
X120007143Y-70236185D02*
X119978571Y-70250471D01*
X119978571Y-70250471D02*
X119964286Y-70264757D01*
X119964286Y-70264757D02*
X119935714Y-70307614D01*
X119935714Y-70307614D02*
X119921428Y-70364757D01*
X119921428Y-70364757D02*
X119921428Y-70479042D01*
X119921428Y-70479042D02*
X119935714Y-70507614D01*
X119935714Y-70507614D02*
X119950000Y-70521900D01*
X119950000Y-70521900D02*
X119978571Y-70536185D01*
X119978571Y-70536185D02*
X120035714Y-70536185D01*
X120035714Y-70536185D02*
X120064286Y-70521900D01*
X120064286Y-70521900D02*
X120078571Y-70507614D01*
X120078571Y-70507614D02*
X120092857Y-70479042D01*
X120092857Y-70479042D02*
X120092857Y-70407614D01*
X120092857Y-70407614D02*
X120078571Y-70379042D01*
X120078571Y-70379042D02*
X120064286Y-70364757D01*
X120064286Y-70364757D02*
X120035714Y-70350471D01*
X120035714Y-70350471D02*
X119978571Y-70350471D01*
X119978571Y-70350471D02*
X119950000Y-70364757D01*
X119950000Y-70364757D02*
X119935714Y-70379042D01*
X119935714Y-70379042D02*
X119921428Y-70407614D01*
X120278571Y-70236185D02*
X120307142Y-70236185D01*
X120307142Y-70236185D02*
X120335714Y-70250471D01*
X120335714Y-70250471D02*
X120350000Y-70264757D01*
X120350000Y-70264757D02*
X120364285Y-70293328D01*
X120364285Y-70293328D02*
X120378571Y-70350471D01*
X120378571Y-70350471D02*
X120378571Y-70421900D01*
X120378571Y-70421900D02*
X120364285Y-70479042D01*
X120364285Y-70479042D02*
X120350000Y-70507614D01*
X120350000Y-70507614D02*
X120335714Y-70521900D01*
X120335714Y-70521900D02*
X120307142Y-70536185D01*
X120307142Y-70536185D02*
X120278571Y-70536185D01*
X120278571Y-70536185D02*
X120250000Y-70521900D01*
X120250000Y-70521900D02*
X120235714Y-70507614D01*
X120235714Y-70507614D02*
X120221428Y-70479042D01*
X120221428Y-70479042D02*
X120207142Y-70421900D01*
X120207142Y-70421900D02*
X120207142Y-70350471D01*
X120207142Y-70350471D02*
X120221428Y-70293328D01*
X120221428Y-70293328D02*
X120235714Y-70264757D01*
X120235714Y-70264757D02*
X120250000Y-70250471D01*
X120250000Y-70250471D02*
X120278571Y-70236185D01*
X123570000Y-61046185D02*
X123570000Y-61260471D01*
X123570000Y-61260471D02*
X123555715Y-61303328D01*
X123555715Y-61303328D02*
X123527143Y-61331900D01*
X123527143Y-61331900D02*
X123484286Y-61346185D01*
X123484286Y-61346185D02*
X123455715Y-61346185D01*
X123870000Y-61346185D02*
X123698571Y-61346185D01*
X123784286Y-61346185D02*
X123784286Y-61046185D01*
X123784286Y-61046185D02*
X123755714Y-61089042D01*
X123755714Y-61089042D02*
X123727143Y-61117614D01*
X123727143Y-61117614D02*
X123698571Y-61131900D01*
X126857614Y-63292856D02*
X126871900Y-63307142D01*
X126871900Y-63307142D02*
X126886185Y-63349999D01*
X126886185Y-63349999D02*
X126886185Y-63378571D01*
X126886185Y-63378571D02*
X126871900Y-63421428D01*
X126871900Y-63421428D02*
X126843328Y-63449999D01*
X126843328Y-63449999D02*
X126814757Y-63464285D01*
X126814757Y-63464285D02*
X126757614Y-63478571D01*
X126757614Y-63478571D02*
X126714757Y-63478571D01*
X126714757Y-63478571D02*
X126657614Y-63464285D01*
X126657614Y-63464285D02*
X126629042Y-63449999D01*
X126629042Y-63449999D02*
X126600471Y-63421428D01*
X126600471Y-63421428D02*
X126586185Y-63378571D01*
X126586185Y-63378571D02*
X126586185Y-63349999D01*
X126586185Y-63349999D02*
X126600471Y-63307142D01*
X126600471Y-63307142D02*
X126614757Y-63292856D01*
X126886185Y-63007142D02*
X126886185Y-63178571D01*
X126886185Y-63092856D02*
X126586185Y-63092856D01*
X126586185Y-63092856D02*
X126629042Y-63121428D01*
X126629042Y-63121428D02*
X126657614Y-63149999D01*
X126657614Y-63149999D02*
X126671900Y-63178571D01*
X126586185Y-62907142D02*
X126586185Y-62721428D01*
X126586185Y-62721428D02*
X126700471Y-62821428D01*
X126700471Y-62821428D02*
X126700471Y-62778571D01*
X126700471Y-62778571D02*
X126714757Y-62750000D01*
X126714757Y-62750000D02*
X126729042Y-62735714D01*
X126729042Y-62735714D02*
X126757614Y-62721428D01*
X126757614Y-62721428D02*
X126829042Y-62721428D01*
X126829042Y-62721428D02*
X126857614Y-62735714D01*
X126857614Y-62735714D02*
X126871900Y-62750000D01*
X126871900Y-62750000D02*
X126886185Y-62778571D01*
X126886185Y-62778571D02*
X126886185Y-62864285D01*
X126886185Y-62864285D02*
X126871900Y-62892857D01*
X126871900Y-62892857D02*
X126857614Y-62907142D01*
X118507143Y-56236185D02*
X118407143Y-56093328D01*
X118335714Y-56236185D02*
X118335714Y-55936185D01*
X118335714Y-55936185D02*
X118450000Y-55936185D01*
X118450000Y-55936185D02*
X118478571Y-55950471D01*
X118478571Y-55950471D02*
X118492857Y-55964757D01*
X118492857Y-55964757D02*
X118507143Y-55993328D01*
X118507143Y-55993328D02*
X118507143Y-56036185D01*
X118507143Y-56036185D02*
X118492857Y-56064757D01*
X118492857Y-56064757D02*
X118478571Y-56079042D01*
X118478571Y-56079042D02*
X118450000Y-56093328D01*
X118450000Y-56093328D02*
X118335714Y-56093328D01*
X118792857Y-56236185D02*
X118621428Y-56236185D01*
X118707143Y-56236185D02*
X118707143Y-55936185D01*
X118707143Y-55936185D02*
X118678571Y-55979042D01*
X118678571Y-55979042D02*
X118650000Y-56007614D01*
X118650000Y-56007614D02*
X118621428Y-56021900D01*
X118978571Y-55936185D02*
X119007142Y-55936185D01*
X119007142Y-55936185D02*
X119035714Y-55950471D01*
X119035714Y-55950471D02*
X119050000Y-55964757D01*
X119050000Y-55964757D02*
X119064285Y-55993328D01*
X119064285Y-55993328D02*
X119078571Y-56050471D01*
X119078571Y-56050471D02*
X119078571Y-56121900D01*
X119078571Y-56121900D02*
X119064285Y-56179042D01*
X119064285Y-56179042D02*
X119050000Y-56207614D01*
X119050000Y-56207614D02*
X119035714Y-56221900D01*
X119035714Y-56221900D02*
X119007142Y-56236185D01*
X119007142Y-56236185D02*
X118978571Y-56236185D01*
X118978571Y-56236185D02*
X118950000Y-56221900D01*
X118950000Y-56221900D02*
X118935714Y-56207614D01*
X118935714Y-56207614D02*
X118921428Y-56179042D01*
X118921428Y-56179042D02*
X118907142Y-56121900D01*
X118907142Y-56121900D02*
X118907142Y-56050471D01*
X118907142Y-56050471D02*
X118921428Y-55993328D01*
X118921428Y-55993328D02*
X118935714Y-55964757D01*
X118935714Y-55964757D02*
X118950000Y-55950471D01*
X118950000Y-55950471D02*
X118978571Y-55936185D01*
X115807143Y-66936185D02*
X115707143Y-66793328D01*
X115635714Y-66936185D02*
X115635714Y-66636185D01*
X115635714Y-66636185D02*
X115750000Y-66636185D01*
X115750000Y-66636185D02*
X115778571Y-66650471D01*
X115778571Y-66650471D02*
X115792857Y-66664757D01*
X115792857Y-66664757D02*
X115807143Y-66693328D01*
X115807143Y-66693328D02*
X115807143Y-66736185D01*
X115807143Y-66736185D02*
X115792857Y-66764757D01*
X115792857Y-66764757D02*
X115778571Y-66779042D01*
X115778571Y-66779042D02*
X115750000Y-66793328D01*
X115750000Y-66793328D02*
X115635714Y-66793328D01*
X116092857Y-66936185D02*
X115921428Y-66936185D01*
X116007143Y-66936185D02*
X116007143Y-66636185D01*
X116007143Y-66636185D02*
X115978571Y-66679042D01*
X115978571Y-66679042D02*
X115950000Y-66707614D01*
X115950000Y-66707614D02*
X115921428Y-66721900D01*
X116264285Y-66764757D02*
X116235714Y-66750471D01*
X116235714Y-66750471D02*
X116221428Y-66736185D01*
X116221428Y-66736185D02*
X116207142Y-66707614D01*
X116207142Y-66707614D02*
X116207142Y-66693328D01*
X116207142Y-66693328D02*
X116221428Y-66664757D01*
X116221428Y-66664757D02*
X116235714Y-66650471D01*
X116235714Y-66650471D02*
X116264285Y-66636185D01*
X116264285Y-66636185D02*
X116321428Y-66636185D01*
X116321428Y-66636185D02*
X116350000Y-66650471D01*
X116350000Y-66650471D02*
X116364285Y-66664757D01*
X116364285Y-66664757D02*
X116378571Y-66693328D01*
X116378571Y-66693328D02*
X116378571Y-66707614D01*
X116378571Y-66707614D02*
X116364285Y-66736185D01*
X116364285Y-66736185D02*
X116350000Y-66750471D01*
X116350000Y-66750471D02*
X116321428Y-66764757D01*
X116321428Y-66764757D02*
X116264285Y-66764757D01*
X116264285Y-66764757D02*
X116235714Y-66779042D01*
X116235714Y-66779042D02*
X116221428Y-66793328D01*
X116221428Y-66793328D02*
X116207142Y-66821900D01*
X116207142Y-66821900D02*
X116207142Y-66879042D01*
X116207142Y-66879042D02*
X116221428Y-66907614D01*
X116221428Y-66907614D02*
X116235714Y-66921900D01*
X116235714Y-66921900D02*
X116264285Y-66936185D01*
X116264285Y-66936185D02*
X116321428Y-66936185D01*
X116321428Y-66936185D02*
X116350000Y-66921900D01*
X116350000Y-66921900D02*
X116364285Y-66907614D01*
X116364285Y-66907614D02*
X116378571Y-66879042D01*
X116378571Y-66879042D02*
X116378571Y-66821900D01*
X116378571Y-66821900D02*
X116364285Y-66793328D01*
X116364285Y-66793328D02*
X116350000Y-66779042D01*
X116350000Y-66779042D02*
X116321428Y-66764757D01*
X127707614Y-62892856D02*
X127721900Y-62907142D01*
X127721900Y-62907142D02*
X127736185Y-62949999D01*
X127736185Y-62949999D02*
X127736185Y-62978571D01*
X127736185Y-62978571D02*
X127721900Y-63021428D01*
X127721900Y-63021428D02*
X127693328Y-63049999D01*
X127693328Y-63049999D02*
X127664757Y-63064285D01*
X127664757Y-63064285D02*
X127607614Y-63078571D01*
X127607614Y-63078571D02*
X127564757Y-63078571D01*
X127564757Y-63078571D02*
X127507614Y-63064285D01*
X127507614Y-63064285D02*
X127479042Y-63049999D01*
X127479042Y-63049999D02*
X127450471Y-63021428D01*
X127450471Y-63021428D02*
X127436185Y-62978571D01*
X127436185Y-62978571D02*
X127436185Y-62949999D01*
X127436185Y-62949999D02*
X127450471Y-62907142D01*
X127450471Y-62907142D02*
X127464757Y-62892856D01*
X127736185Y-62607142D02*
X127736185Y-62778571D01*
X127736185Y-62692856D02*
X127436185Y-62692856D01*
X127436185Y-62692856D02*
X127479042Y-62721428D01*
X127479042Y-62721428D02*
X127507614Y-62749999D01*
X127507614Y-62749999D02*
X127521900Y-62778571D01*
X127736185Y-62321428D02*
X127736185Y-62492857D01*
X127736185Y-62407142D02*
X127436185Y-62407142D01*
X127436185Y-62407142D02*
X127479042Y-62435714D01*
X127479042Y-62435714D02*
X127507614Y-62464285D01*
X127507614Y-62464285D02*
X127521900Y-62492857D01*
X129207614Y-61649999D02*
X129221900Y-61664285D01*
X129221900Y-61664285D02*
X129236185Y-61707142D01*
X129236185Y-61707142D02*
X129236185Y-61735714D01*
X129236185Y-61735714D02*
X129221900Y-61778571D01*
X129221900Y-61778571D02*
X129193328Y-61807142D01*
X129193328Y-61807142D02*
X129164757Y-61821428D01*
X129164757Y-61821428D02*
X129107614Y-61835714D01*
X129107614Y-61835714D02*
X129064757Y-61835714D01*
X129064757Y-61835714D02*
X129007614Y-61821428D01*
X129007614Y-61821428D02*
X128979042Y-61807142D01*
X128979042Y-61807142D02*
X128950471Y-61778571D01*
X128950471Y-61778571D02*
X128936185Y-61735714D01*
X128936185Y-61735714D02*
X128936185Y-61707142D01*
X128936185Y-61707142D02*
X128950471Y-61664285D01*
X128950471Y-61664285D02*
X128964757Y-61649999D01*
X128936185Y-61549999D02*
X128936185Y-61364285D01*
X128936185Y-61364285D02*
X129050471Y-61464285D01*
X129050471Y-61464285D02*
X129050471Y-61421428D01*
X129050471Y-61421428D02*
X129064757Y-61392857D01*
X129064757Y-61392857D02*
X129079042Y-61378571D01*
X129079042Y-61378571D02*
X129107614Y-61364285D01*
X129107614Y-61364285D02*
X129179042Y-61364285D01*
X129179042Y-61364285D02*
X129207614Y-61378571D01*
X129207614Y-61378571D02*
X129221900Y-61392857D01*
X129221900Y-61392857D02*
X129236185Y-61421428D01*
X129236185Y-61421428D02*
X129236185Y-61507142D01*
X129236185Y-61507142D02*
X129221900Y-61535714D01*
X129221900Y-61535714D02*
X129207614Y-61549999D01*
X115860000Y-59636185D02*
X115760000Y-59493328D01*
X115688571Y-59636185D02*
X115688571Y-59336185D01*
X115688571Y-59336185D02*
X115802857Y-59336185D01*
X115802857Y-59336185D02*
X115831428Y-59350471D01*
X115831428Y-59350471D02*
X115845714Y-59364757D01*
X115845714Y-59364757D02*
X115860000Y-59393328D01*
X115860000Y-59393328D02*
X115860000Y-59436185D01*
X115860000Y-59436185D02*
X115845714Y-59464757D01*
X115845714Y-59464757D02*
X115831428Y-59479042D01*
X115831428Y-59479042D02*
X115802857Y-59493328D01*
X115802857Y-59493328D02*
X115688571Y-59493328D01*
X116002857Y-59636185D02*
X116060000Y-59636185D01*
X116060000Y-59636185D02*
X116088571Y-59621900D01*
X116088571Y-59621900D02*
X116102857Y-59607614D01*
X116102857Y-59607614D02*
X116131428Y-59564757D01*
X116131428Y-59564757D02*
X116145714Y-59507614D01*
X116145714Y-59507614D02*
X116145714Y-59393328D01*
X116145714Y-59393328D02*
X116131428Y-59364757D01*
X116131428Y-59364757D02*
X116117143Y-59350471D01*
X116117143Y-59350471D02*
X116088571Y-59336185D01*
X116088571Y-59336185D02*
X116031428Y-59336185D01*
X116031428Y-59336185D02*
X116002857Y-59350471D01*
X116002857Y-59350471D02*
X115988571Y-59364757D01*
X115988571Y-59364757D02*
X115974285Y-59393328D01*
X115974285Y-59393328D02*
X115974285Y-59464757D01*
X115974285Y-59464757D02*
X115988571Y-59493328D01*
X115988571Y-59493328D02*
X116002857Y-59507614D01*
X116002857Y-59507614D02*
X116031428Y-59521900D01*
X116031428Y-59521900D02*
X116088571Y-59521900D01*
X116088571Y-59521900D02*
X116117143Y-59507614D01*
X116117143Y-59507614D02*
X116131428Y-59493328D01*
X116131428Y-59493328D02*
X116145714Y-59464757D01*
X129307143Y-63907614D02*
X129292857Y-63921900D01*
X129292857Y-63921900D02*
X129250000Y-63936185D01*
X129250000Y-63936185D02*
X129221428Y-63936185D01*
X129221428Y-63936185D02*
X129178571Y-63921900D01*
X129178571Y-63921900D02*
X129150000Y-63893328D01*
X129150000Y-63893328D02*
X129135714Y-63864757D01*
X129135714Y-63864757D02*
X129121428Y-63807614D01*
X129121428Y-63807614D02*
X129121428Y-63764757D01*
X129121428Y-63764757D02*
X129135714Y-63707614D01*
X129135714Y-63707614D02*
X129150000Y-63679042D01*
X129150000Y-63679042D02*
X129178571Y-63650471D01*
X129178571Y-63650471D02*
X129221428Y-63636185D01*
X129221428Y-63636185D02*
X129250000Y-63636185D01*
X129250000Y-63636185D02*
X129292857Y-63650471D01*
X129292857Y-63650471D02*
X129307143Y-63664757D01*
X129592857Y-63936185D02*
X129421428Y-63936185D01*
X129507143Y-63936185D02*
X129507143Y-63636185D01*
X129507143Y-63636185D02*
X129478571Y-63679042D01*
X129478571Y-63679042D02*
X129450000Y-63707614D01*
X129450000Y-63707614D02*
X129421428Y-63721900D01*
X129778571Y-63636185D02*
X129807142Y-63636185D01*
X129807142Y-63636185D02*
X129835714Y-63650471D01*
X129835714Y-63650471D02*
X129850000Y-63664757D01*
X129850000Y-63664757D02*
X129864285Y-63693328D01*
X129864285Y-63693328D02*
X129878571Y-63750471D01*
X129878571Y-63750471D02*
X129878571Y-63821900D01*
X129878571Y-63821900D02*
X129864285Y-63879042D01*
X129864285Y-63879042D02*
X129850000Y-63907614D01*
X129850000Y-63907614D02*
X129835714Y-63921900D01*
X129835714Y-63921900D02*
X129807142Y-63936185D01*
X129807142Y-63936185D02*
X129778571Y-63936185D01*
X129778571Y-63936185D02*
X129750000Y-63921900D01*
X129750000Y-63921900D02*
X129735714Y-63907614D01*
X129735714Y-63907614D02*
X129721428Y-63879042D01*
X129721428Y-63879042D02*
X129707142Y-63821900D01*
X129707142Y-63821900D02*
X129707142Y-63750471D01*
X129707142Y-63750471D02*
X129721428Y-63693328D01*
X129721428Y-63693328D02*
X129735714Y-63664757D01*
X129735714Y-63664757D02*
X129750000Y-63650471D01*
X129750000Y-63650471D02*
X129778571Y-63636185D01*
X122707614Y-69562856D02*
X122721900Y-69577142D01*
X122721900Y-69577142D02*
X122736185Y-69619999D01*
X122736185Y-69619999D02*
X122736185Y-69648571D01*
X122736185Y-69648571D02*
X122721900Y-69691428D01*
X122721900Y-69691428D02*
X122693328Y-69719999D01*
X122693328Y-69719999D02*
X122664757Y-69734285D01*
X122664757Y-69734285D02*
X122607614Y-69748571D01*
X122607614Y-69748571D02*
X122564757Y-69748571D01*
X122564757Y-69748571D02*
X122507614Y-69734285D01*
X122507614Y-69734285D02*
X122479042Y-69719999D01*
X122479042Y-69719999D02*
X122450471Y-69691428D01*
X122450471Y-69691428D02*
X122436185Y-69648571D01*
X122436185Y-69648571D02*
X122436185Y-69619999D01*
X122436185Y-69619999D02*
X122450471Y-69577142D01*
X122450471Y-69577142D02*
X122464757Y-69562856D01*
X122436185Y-69305714D02*
X122436185Y-69362856D01*
X122436185Y-69362856D02*
X122450471Y-69391428D01*
X122450471Y-69391428D02*
X122464757Y-69405714D01*
X122464757Y-69405714D02*
X122507614Y-69434285D01*
X122507614Y-69434285D02*
X122564757Y-69448571D01*
X122564757Y-69448571D02*
X122679042Y-69448571D01*
X122679042Y-69448571D02*
X122707614Y-69434285D01*
X122707614Y-69434285D02*
X122721900Y-69419999D01*
X122721900Y-69419999D02*
X122736185Y-69391428D01*
X122736185Y-69391428D02*
X122736185Y-69334285D01*
X122736185Y-69334285D02*
X122721900Y-69305714D01*
X122721900Y-69305714D02*
X122707614Y-69291428D01*
X122707614Y-69291428D02*
X122679042Y-69277142D01*
X122679042Y-69277142D02*
X122607614Y-69277142D01*
X122607614Y-69277142D02*
X122579042Y-69291428D01*
X122579042Y-69291428D02*
X122564757Y-69305714D01*
X122564757Y-69305714D02*
X122550471Y-69334285D01*
X122550471Y-69334285D02*
X122550471Y-69391428D01*
X122550471Y-69391428D02*
X122564757Y-69419999D01*
X122564757Y-69419999D02*
X122579042Y-69434285D01*
X122579042Y-69434285D02*
X122607614Y-69448571D01*
X122536185Y-69020000D02*
X122736185Y-69020000D01*
X122421900Y-69091428D02*
X122636185Y-69162857D01*
X122636185Y-69162857D02*
X122636185Y-68977142D01*
X115227143Y-65507614D02*
X115212857Y-65521900D01*
X115212857Y-65521900D02*
X115170000Y-65536185D01*
X115170000Y-65536185D02*
X115141428Y-65536185D01*
X115141428Y-65536185D02*
X115098571Y-65521900D01*
X115098571Y-65521900D02*
X115070000Y-65493328D01*
X115070000Y-65493328D02*
X115055714Y-65464757D01*
X115055714Y-65464757D02*
X115041428Y-65407614D01*
X115041428Y-65407614D02*
X115041428Y-65364757D01*
X115041428Y-65364757D02*
X115055714Y-65307614D01*
X115055714Y-65307614D02*
X115070000Y-65279042D01*
X115070000Y-65279042D02*
X115098571Y-65250471D01*
X115098571Y-65250471D02*
X115141428Y-65236185D01*
X115141428Y-65236185D02*
X115170000Y-65236185D01*
X115170000Y-65236185D02*
X115212857Y-65250471D01*
X115212857Y-65250471D02*
X115227143Y-65264757D01*
X115327143Y-65236185D02*
X115512857Y-65236185D01*
X115512857Y-65236185D02*
X115412857Y-65350471D01*
X115412857Y-65350471D02*
X115455714Y-65350471D01*
X115455714Y-65350471D02*
X115484286Y-65364757D01*
X115484286Y-65364757D02*
X115498571Y-65379042D01*
X115498571Y-65379042D02*
X115512857Y-65407614D01*
X115512857Y-65407614D02*
X115512857Y-65479042D01*
X115512857Y-65479042D02*
X115498571Y-65507614D01*
X115498571Y-65507614D02*
X115484286Y-65521900D01*
X115484286Y-65521900D02*
X115455714Y-65536185D01*
X115455714Y-65536185D02*
X115370000Y-65536185D01*
X115370000Y-65536185D02*
X115341428Y-65521900D01*
X115341428Y-65521900D02*
X115327143Y-65507614D01*
X115612857Y-65236185D02*
X115798571Y-65236185D01*
X115798571Y-65236185D02*
X115698571Y-65350471D01*
X115698571Y-65350471D02*
X115741428Y-65350471D01*
X115741428Y-65350471D02*
X115770000Y-65364757D01*
X115770000Y-65364757D02*
X115784285Y-65379042D01*
X115784285Y-65379042D02*
X115798571Y-65407614D01*
X115798571Y-65407614D02*
X115798571Y-65479042D01*
X115798571Y-65479042D02*
X115784285Y-65507614D01*
X115784285Y-65507614D02*
X115770000Y-65521900D01*
X115770000Y-65521900D02*
X115741428Y-65536185D01*
X115741428Y-65536185D02*
X115655714Y-65536185D01*
X115655714Y-65536185D02*
X115627142Y-65521900D01*
X115627142Y-65521900D02*
X115612857Y-65507614D01*
X117340000Y-65599042D02*
X117240000Y-65599042D01*
X117240000Y-65756185D02*
X117240000Y-65456185D01*
X117240000Y-65456185D02*
X117382857Y-65456185D01*
X117654286Y-65756185D02*
X117482857Y-65756185D01*
X117568572Y-65756185D02*
X117568572Y-65456185D01*
X117568572Y-65456185D02*
X117540000Y-65499042D01*
X117540000Y-65499042D02*
X117511429Y-65527614D01*
X117511429Y-65527614D02*
X117482857Y-65541900D01*
X115078571Y-62236185D02*
X115078571Y-61936185D01*
X115078571Y-61936185D02*
X115150000Y-61936185D01*
X115150000Y-61936185D02*
X115192857Y-61950471D01*
X115192857Y-61950471D02*
X115221428Y-61979042D01*
X115221428Y-61979042D02*
X115235714Y-62007614D01*
X115235714Y-62007614D02*
X115250000Y-62064757D01*
X115250000Y-62064757D02*
X115250000Y-62107614D01*
X115250000Y-62107614D02*
X115235714Y-62164757D01*
X115235714Y-62164757D02*
X115221428Y-62193328D01*
X115221428Y-62193328D02*
X115192857Y-62221900D01*
X115192857Y-62221900D02*
X115150000Y-62236185D01*
X115150000Y-62236185D02*
X115078571Y-62236185D01*
X115535714Y-62236185D02*
X115364285Y-62236185D01*
X115450000Y-62236185D02*
X115450000Y-61936185D01*
X115450000Y-61936185D02*
X115421428Y-61979042D01*
X115421428Y-61979042D02*
X115392857Y-62007614D01*
X115392857Y-62007614D02*
X115364285Y-62021900D01*
X122707614Y-67742856D02*
X122721900Y-67757142D01*
X122721900Y-67757142D02*
X122736185Y-67799999D01*
X122736185Y-67799999D02*
X122736185Y-67828571D01*
X122736185Y-67828571D02*
X122721900Y-67871428D01*
X122721900Y-67871428D02*
X122693328Y-67899999D01*
X122693328Y-67899999D02*
X122664757Y-67914285D01*
X122664757Y-67914285D02*
X122607614Y-67928571D01*
X122607614Y-67928571D02*
X122564757Y-67928571D01*
X122564757Y-67928571D02*
X122507614Y-67914285D01*
X122507614Y-67914285D02*
X122479042Y-67899999D01*
X122479042Y-67899999D02*
X122450471Y-67871428D01*
X122450471Y-67871428D02*
X122436185Y-67828571D01*
X122436185Y-67828571D02*
X122436185Y-67799999D01*
X122436185Y-67799999D02*
X122450471Y-67757142D01*
X122450471Y-67757142D02*
X122464757Y-67742856D01*
X122436185Y-67471428D02*
X122436185Y-67614285D01*
X122436185Y-67614285D02*
X122579042Y-67628571D01*
X122579042Y-67628571D02*
X122564757Y-67614285D01*
X122564757Y-67614285D02*
X122550471Y-67585714D01*
X122550471Y-67585714D02*
X122550471Y-67514285D01*
X122550471Y-67514285D02*
X122564757Y-67485714D01*
X122564757Y-67485714D02*
X122579042Y-67471428D01*
X122579042Y-67471428D02*
X122607614Y-67457142D01*
X122607614Y-67457142D02*
X122679042Y-67457142D01*
X122679042Y-67457142D02*
X122707614Y-67471428D01*
X122707614Y-67471428D02*
X122721900Y-67485714D01*
X122721900Y-67485714D02*
X122736185Y-67514285D01*
X122736185Y-67514285D02*
X122736185Y-67585714D01*
X122736185Y-67585714D02*
X122721900Y-67614285D01*
X122721900Y-67614285D02*
X122707614Y-67628571D01*
X122736185Y-67314285D02*
X122736185Y-67257142D01*
X122736185Y-67257142D02*
X122721900Y-67228571D01*
X122721900Y-67228571D02*
X122707614Y-67214285D01*
X122707614Y-67214285D02*
X122664757Y-67185714D01*
X122664757Y-67185714D02*
X122607614Y-67171428D01*
X122607614Y-67171428D02*
X122493328Y-67171428D01*
X122493328Y-67171428D02*
X122464757Y-67185714D01*
X122464757Y-67185714D02*
X122450471Y-67200000D01*
X122450471Y-67200000D02*
X122436185Y-67228571D01*
X122436185Y-67228571D02*
X122436185Y-67285714D01*
X122436185Y-67285714D02*
X122450471Y-67314285D01*
X122450471Y-67314285D02*
X122464757Y-67328571D01*
X122464757Y-67328571D02*
X122493328Y-67342857D01*
X122493328Y-67342857D02*
X122564757Y-67342857D01*
X122564757Y-67342857D02*
X122593328Y-67328571D01*
X122593328Y-67328571D02*
X122607614Y-67314285D01*
X122607614Y-67314285D02*
X122621900Y-67285714D01*
X122621900Y-67285714D02*
X122621900Y-67228571D01*
X122621900Y-67228571D02*
X122607614Y-67200000D01*
X122607614Y-67200000D02*
X122593328Y-67185714D01*
X122593328Y-67185714D02*
X122564757Y-67171428D01*
D10*
%TO.C,R6*%
X131450000Y-65600000D02*
X131450000Y-66200000D01*
X131150000Y-65600000D02*
X131450000Y-65600000D01*
X131450000Y-66200000D02*
X131150000Y-66200000D01*
X131150000Y-66200000D02*
X131150000Y-65600000D01*
%TO.C,R5*%
X131450000Y-67000000D02*
X131450000Y-67600000D01*
X131150000Y-67000000D02*
X131450000Y-67000000D01*
X131450000Y-67600000D02*
X131150000Y-67600000D01*
X131150000Y-67600000D02*
X131150000Y-67000000D01*
%TO.C,L7*%
X126900000Y-61725000D02*
X126900000Y-60725000D01*
X127400000Y-61725000D02*
X126900000Y-61725000D01*
X126900000Y-60725000D02*
X127400000Y-60725000D01*
X127400000Y-60725000D02*
X127400000Y-61725000D01*
%TO.C,L2*%
X123200000Y-66150000D02*
X123200000Y-65150000D01*
X123700000Y-66150000D02*
X123200000Y-66150000D01*
X123200000Y-65150000D02*
X123700000Y-65150000D01*
X123700000Y-65150000D02*
X123700000Y-66150000D01*
%TO.C,L1*%
X125370000Y-71950000D02*
X124370000Y-71950000D01*
X125370000Y-71450000D02*
X125370000Y-71950000D01*
X124370000Y-71950000D02*
X124370000Y-71450000D01*
X124370000Y-71450000D02*
X125370000Y-71450000D01*
%TO.C,C41*%
X118750000Y-70530000D02*
X119350000Y-70530000D01*
X118750000Y-70830000D02*
X118750000Y-70530000D01*
X119350000Y-70530000D02*
X119350000Y-70830000D01*
X119350000Y-70830000D02*
X118750000Y-70830000D01*
%TO.C,C36*%
X118950000Y-65500000D02*
X118950000Y-66100000D01*
X118650000Y-65500000D02*
X118950000Y-65500000D01*
X118950000Y-66100000D02*
X118650000Y-66100000D01*
X118650000Y-66100000D02*
X118650000Y-65500000D01*
%TO.C,U8*%
X125062953Y-58107359D02*
X124187953Y-58982359D01*
X125062953Y-55482359D02*
X125062953Y-58107359D01*
X124187953Y-58982359D02*
X121562953Y-58982359D01*
X121562953Y-58982359D02*
X121562953Y-55482359D01*
X121562953Y-55482359D02*
X125062953Y-55482359D01*
%TO.C,R15*%
X125920000Y-61750000D02*
X125920000Y-61150000D01*
X126220000Y-61750000D02*
X125920000Y-61750000D01*
X125920000Y-61150000D02*
X126220000Y-61150000D01*
X126220000Y-61150000D02*
X126220000Y-61750000D01*
%TO.C,D2*%
X126412953Y-57932359D02*
X126012953Y-57932359D01*
X126212953Y-57932359D02*
X126412953Y-58282359D01*
X126412953Y-58282359D02*
X126012953Y-58282359D01*
X126012953Y-58282359D02*
X126212953Y-57932359D01*
X125912953Y-57632359D02*
X126512953Y-57632359D01*
X126512953Y-58632359D01*
X125912953Y-58632359D01*
X125912953Y-57632359D01*
%TO.C,U7*%
X130250000Y-68600000D02*
X129200000Y-69650000D01*
X130250000Y-64550000D02*
X130250000Y-68600000D01*
X130250000Y-64550000D02*
X125150000Y-64550000D01*
X129200000Y-69650000D02*
X125150000Y-69650000D01*
X125150000Y-64550000D02*
X125150000Y-69650000D01*
%TO.C,J3*%
X132680000Y-35067500D02*
X133680000Y-36067500D01*
X125550000Y-35067500D02*
X125550000Y-36267500D01*
X113320000Y-35067500D02*
X132680000Y-35067500D01*
X133680000Y-36067500D02*
X133680000Y-43967500D01*
X132490000Y-36267500D02*
X132490000Y-42767500D01*
X125550000Y-36267500D02*
X132490000Y-36267500D01*
X121450000Y-36267500D02*
X121450000Y-35067500D01*
X121450000Y-36267500D02*
X121450000Y-36267500D01*
X114510000Y-36267500D02*
X121450000Y-36267500D01*
X132490000Y-42767500D02*
X114510000Y-42767500D01*
X114510000Y-42767500D02*
X114510000Y-36267500D01*
X133680000Y-43967500D02*
X113320000Y-43967500D01*
X113320000Y-43967500D02*
X113320000Y-35067500D01*
%TO.C,C29*%
X115070000Y-66100000D02*
X116070000Y-66100000D01*
X115070000Y-66600000D02*
X115070000Y-66100000D01*
X116070000Y-66100000D02*
X116070000Y-66600000D01*
X116070000Y-66600000D02*
X115070000Y-66600000D01*
%TO.C,C40*%
X119320000Y-66120000D02*
X119320000Y-65520000D01*
X119620000Y-66120000D02*
X119320000Y-66120000D01*
X119320000Y-65520000D02*
X119620000Y-65520000D01*
X119620000Y-65520000D02*
X119620000Y-66120000D01*
%TO.C,R14*%
X120780000Y-66080000D02*
X120780000Y-65480000D01*
X121080000Y-66080000D02*
X120780000Y-66080000D01*
X120780000Y-65480000D02*
X121080000Y-65480000D01*
X121080000Y-65480000D02*
X121080000Y-66080000D01*
%TO.C,C20*%
X120150000Y-55000000D02*
X120150000Y-55600000D01*
X119850000Y-55000000D02*
X120150000Y-55000000D01*
X120150000Y-55600000D02*
X119850000Y-55600000D01*
X119850000Y-55600000D02*
X119850000Y-55000000D01*
%TO.C,R25*%
X125562953Y-56632359D02*
X125562953Y-56032359D01*
X125862953Y-56632359D02*
X125562953Y-56632359D01*
X125562953Y-56032359D02*
X125862953Y-56032359D01*
X125862953Y-56032359D02*
X125862953Y-56632359D01*
%TO.C,C34*%
X124650000Y-66200000D02*
X124650000Y-67200000D01*
X124150000Y-66200000D02*
X124650000Y-66200000D01*
X124650000Y-67200000D02*
X124150000Y-67200000D01*
X124150000Y-67200000D02*
X124150000Y-66200000D01*
%TO.C,R7*%
X120830000Y-54420000D02*
X121430000Y-54420000D01*
X120830000Y-54720000D02*
X120830000Y-54420000D01*
X121430000Y-54420000D02*
X121430000Y-54720000D01*
X121430000Y-54720000D02*
X120830000Y-54720000D01*
%TO.C,D3*%
X130700000Y-60800000D02*
X132700000Y-60800000D01*
X132700000Y-63400000D01*
X130700000Y-63400000D01*
X130700000Y-60800000D01*
%TO.C,R8*%
X120310000Y-65500000D02*
X120310000Y-66100000D01*
X120010000Y-65500000D02*
X120310000Y-65500000D01*
X120310000Y-66100000D02*
X120010000Y-66100000D01*
X120010000Y-66100000D02*
X120010000Y-65500000D01*
%TO.C,R20*%
X126662953Y-56032359D02*
X126662953Y-56632359D01*
X126362953Y-56032359D02*
X126662953Y-56032359D01*
X126662953Y-56632359D02*
X126362953Y-56632359D01*
X126362953Y-56632359D02*
X126362953Y-56032359D01*
%TO.C,C8*%
X124150000Y-63900000D02*
X124150000Y-63300000D01*
X124450000Y-63900000D02*
X124150000Y-63900000D01*
X124150000Y-63300000D02*
X124450000Y-63300000D01*
X124450000Y-63300000D02*
X124450000Y-63900000D01*
%TO.C,C14*%
X124510000Y-69630000D02*
X123910000Y-69630000D01*
X124510000Y-69330000D02*
X124510000Y-69630000D01*
X123910000Y-69630000D02*
X123910000Y-69330000D01*
X123910000Y-69330000D02*
X124510000Y-69330000D01*
%TO.C,R11*%
X121640000Y-60610000D02*
X121640000Y-61210000D01*
X121340000Y-60610000D02*
X121640000Y-60610000D01*
X121640000Y-61210000D02*
X121340000Y-61210000D01*
X121340000Y-61210000D02*
X121340000Y-60610000D01*
%TO.C,C12*%
X125580000Y-63620000D02*
X125580000Y-62620000D01*
X126080000Y-63620000D02*
X125580000Y-63620000D01*
X125580000Y-62620000D02*
X126080000Y-62620000D01*
X126080000Y-62620000D02*
X126080000Y-63620000D01*
%TO.C,C16*%
X128125000Y-63800000D02*
X128125000Y-63200000D01*
X128425000Y-63800000D02*
X128125000Y-63800000D01*
X128125000Y-63200000D02*
X128425000Y-63200000D01*
X128425000Y-63200000D02*
X128425000Y-63800000D01*
%TO.C,C17*%
X125260000Y-70570000D02*
X124260000Y-70570000D01*
X125260000Y-70070000D02*
X125260000Y-70570000D01*
X124260000Y-70570000D02*
X124260000Y-70070000D01*
X124260000Y-70070000D02*
X125260000Y-70070000D01*
%TO.C,C63*%
X121550000Y-71850000D02*
X121550000Y-70850000D01*
X122050000Y-71850000D02*
X121550000Y-71850000D01*
X121550000Y-70850000D02*
X122050000Y-70850000D01*
X122050000Y-70850000D02*
X122050000Y-71850000D01*
%TO.C,C4*%
X127490000Y-70170000D02*
X128090000Y-70170000D01*
X127490000Y-70470000D02*
X127490000Y-70170000D01*
X128090000Y-70170000D02*
X128090000Y-70470000D01*
X128090000Y-70470000D02*
X127490000Y-70470000D01*
%TO.C,C7*%
X126650000Y-70425000D02*
X126050000Y-70425000D01*
X126650000Y-70125000D02*
X126650000Y-70425000D01*
X126050000Y-70425000D02*
X126050000Y-70125000D01*
X126050000Y-70125000D02*
X126650000Y-70125000D01*
%TO.C,C26*%
X130780000Y-58120000D02*
X131380000Y-58120000D01*
X130780000Y-58420000D02*
X130780000Y-58120000D01*
X131380000Y-58120000D02*
X131380000Y-58420000D01*
X131380000Y-58420000D02*
X130780000Y-58420000D01*
%TO.C,C19*%
X122740000Y-71370000D02*
X122740000Y-71970000D01*
X122440000Y-71370000D02*
X122740000Y-71370000D01*
X122740000Y-71970000D02*
X122440000Y-71970000D01*
X122440000Y-71970000D02*
X122440000Y-71370000D01*
%TO.C,C2*%
X123200000Y-64300000D02*
X123200000Y-63300000D01*
X123700000Y-64300000D02*
X123200000Y-64300000D01*
X123200000Y-63300000D02*
X123700000Y-63300000D01*
X123700000Y-63300000D02*
X123700000Y-64300000D01*
%TO.C,C1*%
X127220000Y-71380000D02*
X126220000Y-71380000D01*
X127220000Y-70880000D02*
X127220000Y-71380000D01*
X126220000Y-71380000D02*
X126220000Y-70880000D01*
X126220000Y-70880000D02*
X127220000Y-70880000D01*
%TO.C,U4*%
X117650000Y-69900000D02*
X116900000Y-69150000D01*
X121900000Y-69900000D02*
X116900000Y-69900000D01*
X116900000Y-69900000D02*
X116900000Y-66900000D01*
X116900000Y-66900000D02*
X121900000Y-66900000D01*
X121900000Y-66900000D02*
X121900000Y-69900000D01*
%TO.C,C18*%
X123450000Y-71370000D02*
X123450000Y-71970000D01*
X123150000Y-71370000D02*
X123450000Y-71370000D01*
X123450000Y-71970000D02*
X123150000Y-71970000D01*
X123150000Y-71970000D02*
X123150000Y-71370000D01*
%TO.C,R24*%
X120800000Y-71355000D02*
X120800000Y-70755000D01*
X121100000Y-71355000D02*
X120800000Y-71355000D01*
X120800000Y-70755000D02*
X121100000Y-70755000D01*
X121100000Y-70755000D02*
X121100000Y-71355000D01*
%TO.C,R19*%
X116150000Y-68555000D02*
X116150000Y-67955000D01*
X116450000Y-68555000D02*
X116150000Y-68555000D01*
X116150000Y-67955000D02*
X116450000Y-67955000D01*
X116450000Y-67955000D02*
X116450000Y-68555000D01*
%TO.C,U3*%
X120300000Y-56387500D02*
X117000000Y-56387500D01*
X120300000Y-56387500D02*
X120800000Y-56887500D01*
X117000000Y-56387500D02*
X117000000Y-61587500D01*
X120800000Y-61587500D02*
X120800000Y-56887500D01*
X117000000Y-61587500D02*
X120800000Y-61587500D01*
%TO.C,L9*%
X122550000Y-63800000D02*
X122550000Y-65800000D01*
X121650000Y-63800000D02*
X122550000Y-63800000D01*
X122550000Y-65800000D02*
X121650000Y-65800000D01*
X121650000Y-65800000D02*
X121650000Y-63800000D01*
%TO.C,R12*%
X121360000Y-62650000D02*
X121360000Y-62050000D01*
X121660000Y-62650000D02*
X121360000Y-62650000D01*
X121360000Y-62050000D02*
X121660000Y-62050000D01*
X121660000Y-62050000D02*
X121660000Y-62650000D01*
%TO.C,C21*%
X116400000Y-57650000D02*
X116400000Y-58250000D01*
X116100000Y-57650000D02*
X116400000Y-57650000D01*
X116400000Y-58250000D02*
X116100000Y-58250000D01*
X116100000Y-58250000D02*
X116100000Y-57650000D01*
%TO.C,C9*%
X129675000Y-63125000D02*
X129075000Y-63125000D01*
X129675000Y-62825000D02*
X129675000Y-63125000D01*
X129075000Y-63125000D02*
X129075000Y-62825000D01*
X129075000Y-62825000D02*
X129675000Y-62825000D01*
%TO.C,C6*%
X129825000Y-62150000D02*
X129825000Y-61550000D01*
X130125000Y-62150000D02*
X129825000Y-62150000D01*
X129825000Y-61550000D02*
X130125000Y-61550000D01*
X130125000Y-61550000D02*
X130125000Y-62150000D01*
%TO.C,C15*%
X124150000Y-65340000D02*
X124150000Y-64740000D01*
X124450000Y-65340000D02*
X124150000Y-65340000D01*
X124150000Y-64740000D02*
X124450000Y-64740000D01*
X124450000Y-64740000D02*
X124450000Y-65340000D01*
%TO.C,L8*%
X117300000Y-62210000D02*
X120500000Y-62210000D01*
X117300000Y-64710000D02*
X117300000Y-62210000D01*
X120500000Y-62210000D02*
X120500000Y-64710000D01*
X120500000Y-64710000D02*
X117300000Y-64710000D01*
%TO.C,R4*%
X123360000Y-67640000D02*
X123360000Y-67040000D01*
X123660000Y-67640000D02*
X123360000Y-67640000D01*
X123360000Y-67040000D02*
X123660000Y-67040000D01*
X123660000Y-67040000D02*
X123660000Y-67640000D01*
%TO.C,C5*%
X124850000Y-63900000D02*
X124850000Y-63300000D01*
X125150000Y-63900000D02*
X124850000Y-63900000D01*
X124850000Y-63300000D02*
X125150000Y-63300000D01*
X125150000Y-63300000D02*
X125150000Y-63900000D01*
%TO.C,C25*%
X129700000Y-58800000D02*
X129700000Y-57800000D01*
X130200000Y-58800000D02*
X129700000Y-58800000D01*
X129700000Y-57800000D02*
X130200000Y-57800000D01*
X130200000Y-57800000D02*
X130200000Y-58800000D01*
%TO.C,C35*%
X127875000Y-62300000D02*
X127875000Y-61300000D01*
X128375000Y-62300000D02*
X127875000Y-62300000D01*
X127875000Y-61300000D02*
X128375000Y-61300000D01*
X128375000Y-61300000D02*
X128375000Y-62300000D01*
%TO.C,R3*%
X123830000Y-68220000D02*
X124430000Y-68220000D01*
X123830000Y-68520000D02*
X123830000Y-68220000D01*
X124430000Y-68220000D02*
X124430000Y-68520000D01*
X124430000Y-68520000D02*
X123830000Y-68520000D01*
%TO.C,R17*%
X131440000Y-59120000D02*
X130840000Y-59120000D01*
X131440000Y-58820000D02*
X131440000Y-59120000D01*
X130840000Y-59120000D02*
X130840000Y-58820000D01*
X130840000Y-58820000D02*
X131440000Y-58820000D01*
%TO.C,C60*%
X120050000Y-71300000D02*
X120050000Y-70700000D01*
X120350000Y-71300000D02*
X120050000Y-71300000D01*
X120050000Y-70700000D02*
X120350000Y-70700000D01*
X120350000Y-70700000D02*
X120350000Y-71300000D01*
%TO.C,C13*%
X126500000Y-63620000D02*
X126500000Y-62620000D01*
X127000000Y-63620000D02*
X126500000Y-63620000D01*
X126500000Y-62620000D02*
X127000000Y-62620000D01*
X127000000Y-62620000D02*
X127000000Y-63620000D01*
%TO.C,R10*%
X118400000Y-55450000D02*
X119000000Y-55450000D01*
X118400000Y-55750000D02*
X118400000Y-55450000D01*
X119000000Y-55450000D02*
X119000000Y-55750000D01*
X119000000Y-55750000D02*
X118400000Y-55750000D01*
%TO.C,R18*%
X116255000Y-67350000D02*
X115655000Y-67350000D01*
X116255000Y-67050000D02*
X116255000Y-67350000D01*
X115655000Y-67350000D02*
X115655000Y-67050000D01*
X115655000Y-67050000D02*
X116255000Y-67050000D01*
%TO.C,C11*%
X127425000Y-63800000D02*
X127425000Y-63200000D01*
X127725000Y-63800000D02*
X127425000Y-63800000D01*
X127425000Y-63200000D02*
X127725000Y-63200000D01*
X127725000Y-63200000D02*
X127725000Y-63800000D01*
%TO.C,C3*%
X128850000Y-62150000D02*
X128850000Y-61150000D01*
X129350000Y-62150000D02*
X128850000Y-62150000D01*
X128850000Y-61150000D02*
X129350000Y-61150000D01*
X129350000Y-61150000D02*
X129350000Y-62150000D01*
%TO.C,R9*%
X115610000Y-58850000D02*
X116210000Y-58850000D01*
X115610000Y-59150000D02*
X115610000Y-58850000D01*
X116210000Y-58850000D02*
X116210000Y-59150000D01*
X116210000Y-59150000D02*
X115610000Y-59150000D01*
%TO.C,C10*%
X129000000Y-63500000D02*
X130000000Y-63500000D01*
X129000000Y-64000000D02*
X129000000Y-63500000D01*
X130000000Y-63500000D02*
X130000000Y-64000000D01*
X130000000Y-64000000D02*
X129000000Y-64000000D01*
%TO.C,C64*%
X122850000Y-68870000D02*
X122850000Y-69870000D01*
X122350000Y-68870000D02*
X122850000Y-68870000D01*
X122850000Y-69870000D02*
X122350000Y-69870000D01*
X122350000Y-69870000D02*
X122350000Y-68870000D01*
%TO.C,C33*%
X114920000Y-65150000D02*
X115920000Y-65150000D01*
X114920000Y-65650000D02*
X114920000Y-65150000D01*
X115920000Y-65150000D02*
X115920000Y-65650000D01*
X115920000Y-65650000D02*
X114920000Y-65650000D01*
%TO.C,D1*%
X114300000Y-60800000D02*
X116300000Y-60800000D01*
X116300000Y-63400000D01*
X114300000Y-63400000D01*
X114300000Y-60800000D01*
%TO.C,C59*%
X122350000Y-68050000D02*
X122350000Y-67050000D01*
X122850000Y-68050000D02*
X122350000Y-68050000D01*
X122350000Y-67050000D02*
X122850000Y-67050000D01*
X122850000Y-67050000D02*
X122850000Y-68050000D01*
%TD*%
M02*
