%TF.GenerationSoftware,KiCad,Pcbnew,(6.0.0)*%
%TF.CreationDate,2022-12-05T09:44:38-05:00*%
%TF.ProjectId,headstage-16stim,68656164-7374-4616-9765-2d3136737469,A*%
%TF.SameCoordinates,Original*%
%TF.FileFunction,Copper,L4,Inr*%
%TF.FilePolarity,Positive*%
%FSLAX46Y46*%
G04 Gerber Fmt 4.6, Leading zero omitted, Abs format (unit mm)*
G04 Created by KiCad (PCBNEW (6.0.0)) date 2022-12-05 09:44:38*
%MOMM*%
%LPD*%
G01*
G04 APERTURE LIST*
G04 Aperture macros list*
%AMRoundRect*
0 Rectangle with rounded corners*
0 $1 Rounding radius*
0 $2 $3 $4 $5 $6 $7 $8 $9 X,Y pos of 4 corners*
0 Add a 4 corners polygon primitive as box body*
4,1,4,$2,$3,$4,$5,$6,$7,$8,$9,$2,$3,0*
0 Add four circle primitives for the rounded corners*
1,1,$1+$1,$2,$3*
1,1,$1+$1,$4,$5*
1,1,$1+$1,$6,$7*
1,1,$1+$1,$8,$9*
0 Add four rect primitives between the rounded corners*
20,1,$1+$1,$2,$3,$4,$5,0*
20,1,$1+$1,$4,$5,$6,$7,0*
20,1,$1+$1,$6,$7,$8,$9,0*
20,1,$1+$1,$8,$9,$2,$3,0*%
G04 Aperture macros list end*
%TA.AperFunction,ComponentPad*%
%ADD10RoundRect,0.250000X-0.600000X0.600000X-0.600000X-0.600000X0.600000X-0.600000X0.600000X0.600000X0*%
%TD*%
%TA.AperFunction,ComponentPad*%
%ADD11C,1.700000*%
%TD*%
%TA.AperFunction,ViaPad*%
%ADD12C,0.300000*%
%TD*%
%TA.AperFunction,ViaPad*%
%ADD13C,0.200000*%
%TD*%
G04 APERTURE END LIST*
D10*
%TO.N,/FPGA/DO_{Flash}{slash}TCK*%
%TO.C,J3*%
X128580000Y-38247500D03*
D11*
%TO.N,GND*%
X128580000Y-40787500D03*
%TO.N,/FPGA/SCLK_{Flash}{slash}TDO*%
X126040000Y-38247500D03*
%TO.N,+1V8*%
X126040000Y-40787500D03*
%TO.N,/FPGA/DI_{Flash}{slash}TMS*%
X123500000Y-38247500D03*
%TO.N,/FPGA/~{CS}_{Flash}*%
X123500000Y-40787500D03*
%TO.N,unconnected-(J3-Pad7)*%
X120960000Y-38247500D03*
%TO.N,/FPGA/CRESET_{B}*%
X120960000Y-40787500D03*
%TO.N,/FPGA/TDI*%
X118420000Y-38247500D03*
%TO.N,GND*%
X118420000Y-40787500D03*
%TD*%
D12*
%TO.N,GND*%
X119500000Y-32000000D03*
D13*
X131675000Y-66550000D03*
X128130000Y-71080000D03*
D12*
X128500000Y-79000000D03*
X136600000Y-70500000D03*
D13*
X126110000Y-71800000D03*
X129040060Y-60025386D03*
X130680000Y-68010000D03*
X132490000Y-61300000D03*
X115650000Y-58260000D03*
D12*
X118500000Y-79000000D03*
D13*
X114940000Y-65570000D03*
X127752015Y-60049168D03*
X118850000Y-54950000D03*
X119550000Y-57150000D03*
X119463269Y-65429723D03*
X118140000Y-61380000D03*
X117380000Y-68000000D03*
D12*
X137112953Y-56032359D03*
D13*
X126570000Y-71750000D03*
X126787953Y-55232359D03*
X117730000Y-55760000D03*
X118550000Y-69020000D03*
X119320000Y-67810000D03*
X119714422Y-58160000D03*
X118926830Y-56046017D03*
X116199500Y-60912032D03*
X117250000Y-61240000D03*
X122612953Y-54832359D03*
X121760000Y-65170000D03*
D12*
X127910000Y-65600000D03*
D13*
X117250000Y-69275000D03*
X127996750Y-58049597D03*
X115280000Y-65870000D03*
D12*
X126532400Y-65300000D03*
X126535611Y-48813830D03*
D13*
X117900000Y-59200000D03*
D12*
X105500000Y-79000000D03*
D13*
X115675000Y-62800000D03*
X129830000Y-69770000D03*
X123780000Y-72280000D03*
D12*
X126500000Y-32000000D03*
D13*
X131750000Y-58970000D03*
D12*
X105500000Y-50000000D03*
D13*
X119175000Y-71200000D03*
X126912953Y-56007359D03*
D12*
X112300000Y-53000000D03*
X118600000Y-49000000D03*
D13*
X119419424Y-59044884D03*
X129000000Y-70460000D03*
D12*
X105500000Y-32000000D03*
D13*
X130790000Y-60830000D03*
D12*
X129340000Y-67030000D03*
D13*
X132280000Y-60930000D03*
D12*
X111010000Y-75570000D03*
D13*
X115670000Y-60870000D03*
X124270000Y-72300000D03*
X117839500Y-61763971D03*
X125850000Y-53980000D03*
X130817600Y-63125000D03*
D12*
X129300000Y-68250000D03*
D13*
X130120000Y-57960000D03*
X127312953Y-59182359D03*
X130800000Y-67560000D03*
X114450000Y-60825000D03*
D12*
X105500000Y-39000000D03*
D13*
X121450000Y-53970000D03*
D12*
X141500000Y-32000000D03*
D13*
X115712799Y-61962799D03*
X125360000Y-55000000D03*
X127212953Y-57332359D03*
X117182983Y-61729099D03*
X130157403Y-60136004D03*
X126125953Y-55282359D03*
X118730000Y-70360000D03*
X117440000Y-56060000D03*
D12*
X105500000Y-60000000D03*
D13*
X123380000Y-53930000D03*
X131750000Y-65925000D03*
X116199500Y-63148112D03*
X128639058Y-70796960D03*
D12*
X105500000Y-70000000D03*
X141500000Y-76000000D03*
D13*
X122540000Y-57970000D03*
X123110913Y-57063069D03*
X122880000Y-53830000D03*
D12*
X141500000Y-64000000D03*
D13*
X118790000Y-68690000D03*
X124612953Y-60132359D03*
X116620000Y-56790000D03*
X121365438Y-55781859D03*
X117120000Y-67680000D03*
X119230000Y-67320000D03*
X114950000Y-66220000D03*
X122510000Y-71779500D03*
X123446689Y-57432989D03*
X115750000Y-57840000D03*
X132350000Y-65300000D03*
D12*
X141500000Y-41000000D03*
X141500000Y-52000000D03*
D13*
X123810000Y-53830000D03*
X122230000Y-65200000D03*
D12*
X111500000Y-72000000D03*
D13*
X126950000Y-54425000D03*
%TD*%
%TA.AperFunction,Conductor*%
%TO.N,GND*%
G36*
X143408577Y-30091423D02*
G01*
X143420000Y-30119000D01*
X143420000Y-80881000D01*
X143408577Y-80908577D01*
X143381000Y-80920000D01*
X103619000Y-80920000D01*
X103591423Y-80908577D01*
X103580000Y-80881000D01*
X103580000Y-62774061D01*
X111472947Y-62774061D01*
X111472953Y-62774612D01*
X111480258Y-63448189D01*
X111480313Y-63453287D01*
X111525982Y-64131016D01*
X111609808Y-64805089D01*
X111671413Y-65143324D01*
X111731038Y-65470685D01*
X111731525Y-65473361D01*
X111731650Y-65473879D01*
X111731652Y-65473889D01*
X111846075Y-65948443D01*
X111890744Y-66133703D01*
X111890903Y-66134230D01*
X112085279Y-66778444D01*
X112086959Y-66784012D01*
X112319545Y-67422217D01*
X112319754Y-67422703D01*
X112319761Y-67422721D01*
X112414271Y-67642620D01*
X112587761Y-68046287D01*
X112588003Y-68046773D01*
X112588006Y-68046779D01*
X112645734Y-68162608D01*
X112890753Y-68654232D01*
X112891012Y-68654686D01*
X112891017Y-68654695D01*
X113082594Y-68990228D01*
X113227556Y-69244119D01*
X113228157Y-69243753D01*
X113228961Y-69244444D01*
X113233891Y-69251732D01*
X113234087Y-69252260D01*
X113233623Y-69252628D01*
X113383789Y-69412428D01*
X113385090Y-69413414D01*
X113385091Y-69413415D01*
X113427935Y-69445888D01*
X113558549Y-69544885D01*
X113718710Y-69628401D01*
X113733651Y-69636192D01*
X113743196Y-69643196D01*
X116784233Y-72684233D01*
X116794103Y-72700914D01*
X116796789Y-72710146D01*
X116797497Y-72711610D01*
X116797500Y-72711617D01*
X116875433Y-72872694D01*
X116892940Y-72908879D01*
X117020876Y-73088802D01*
X117177016Y-73244879D01*
X117356926Y-73372697D01*
X117356803Y-73372905D01*
X117362066Y-73375827D01*
X117362067Y-73375828D01*
X117708317Y-73568055D01*
X117948869Y-73701602D01*
X117949338Y-73701829D01*
X117949342Y-73701831D01*
X118557980Y-73996304D01*
X118557988Y-73996307D01*
X118558458Y-73996535D01*
X118558945Y-73996738D01*
X118558959Y-73996744D01*
X119183124Y-74256554D01*
X119183133Y-74256557D01*
X119183646Y-74256771D01*
X119400335Y-74332997D01*
X119821946Y-74481310D01*
X119821962Y-74481315D01*
X119822462Y-74481491D01*
X120472888Y-74669985D01*
X121132872Y-74821658D01*
X121133403Y-74821749D01*
X121133408Y-74821750D01*
X121290118Y-74848603D01*
X121800332Y-74936031D01*
X121800852Y-74936090D01*
X121800864Y-74936092D01*
X122472607Y-75012681D01*
X122472613Y-75012681D01*
X122473161Y-75012744D01*
X122473714Y-75012776D01*
X122473717Y-75012776D01*
X123148705Y-75051524D01*
X123148722Y-75051524D01*
X123149236Y-75051554D01*
X123149755Y-75051555D01*
X123149769Y-75051555D01*
X123497851Y-75051958D01*
X123826424Y-75052339D01*
X123826963Y-75052309D01*
X123826975Y-75052309D01*
X124502047Y-75015127D01*
X124502056Y-75015126D01*
X124502587Y-75015097D01*
X124503116Y-75015038D01*
X124503127Y-75015037D01*
X125175039Y-74940007D01*
X125175048Y-74940006D01*
X125175592Y-74939945D01*
X125843316Y-74827121D01*
X125843851Y-74826999D01*
X125843868Y-74826996D01*
X126294458Y-74724544D01*
X126503650Y-74676979D01*
X126875925Y-74570029D01*
X127154004Y-74490140D01*
X127154015Y-74490136D01*
X127154511Y-74489994D01*
X127155005Y-74489821D01*
X127155016Y-74489818D01*
X127604139Y-74332997D01*
X127793846Y-74266757D01*
X128419636Y-74007971D01*
X129029908Y-73714453D01*
X129622735Y-73387130D01*
X129623178Y-73386852D01*
X129623193Y-73386843D01*
X130195767Y-73027335D01*
X130195773Y-73027331D01*
X130196246Y-73027034D01*
X130748631Y-72635302D01*
X130817031Y-72580774D01*
X131055238Y-72390874D01*
X131278148Y-72213170D01*
X131321628Y-72174321D01*
X131752582Y-71789261D01*
X131783126Y-71761970D01*
X132261970Y-71283126D01*
X132425149Y-71100498D01*
X132712804Y-70778558D01*
X132712810Y-70778551D01*
X132713170Y-70778148D01*
X132997123Y-70421961D01*
X133134946Y-70249078D01*
X133134952Y-70249070D01*
X133135302Y-70248631D01*
X133527034Y-69696246D01*
X133527335Y-69695767D01*
X133886843Y-69123193D01*
X133886852Y-69123178D01*
X133887130Y-69122735D01*
X134214453Y-68529908D01*
X134507971Y-67919636D01*
X134673068Y-67520403D01*
X134766550Y-67294347D01*
X134766552Y-67294342D01*
X134766757Y-67293846D01*
X134949151Y-66771482D01*
X134989818Y-66655016D01*
X134989821Y-66655005D01*
X134989994Y-66654511D01*
X135013764Y-66571774D01*
X135098114Y-66278164D01*
X135176979Y-66003650D01*
X135239617Y-65728164D01*
X135326996Y-65343868D01*
X135326999Y-65343851D01*
X135327121Y-65343316D01*
X135332637Y-65310674D01*
X135426638Y-64754347D01*
X135439945Y-64675592D01*
X135441670Y-64660142D01*
X135515037Y-64003127D01*
X135515038Y-64003116D01*
X135515097Y-64002587D01*
X135515127Y-64002047D01*
X135552309Y-63326975D01*
X135552309Y-63326963D01*
X135552339Y-63326424D01*
X135551780Y-62844021D01*
X135551555Y-62649769D01*
X135551555Y-62649755D01*
X135551554Y-62649236D01*
X135549787Y-62618443D01*
X135512776Y-61973717D01*
X135512776Y-61973714D01*
X135512744Y-61973161D01*
X135510069Y-61949695D01*
X135436092Y-61300864D01*
X135436090Y-61300852D01*
X135436031Y-61300332D01*
X135341465Y-60748464D01*
X135321750Y-60633408D01*
X135321749Y-60633403D01*
X135321658Y-60632872D01*
X135169985Y-59972888D01*
X134981491Y-59322462D01*
X134981315Y-59321962D01*
X134981310Y-59321946D01*
X134844475Y-58932965D01*
X134756771Y-58683646D01*
X134752934Y-58674428D01*
X134496744Y-58058959D01*
X134496738Y-58058945D01*
X134496535Y-58058458D01*
X134496299Y-58057969D01*
X134201831Y-57449342D01*
X134201829Y-57449338D01*
X134201602Y-57448869D01*
X133872905Y-56856803D01*
X133874404Y-56855971D01*
X133874168Y-56855571D01*
X133872592Y-56856646D01*
X133871679Y-56855308D01*
X133871708Y-56855290D01*
X133865950Y-56847556D01*
X133763673Y-56710195D01*
X133741832Y-56680862D01*
X133689928Y-56630957D01*
X133586230Y-56531253D01*
X133586228Y-56531251D01*
X133585069Y-56530137D01*
X133580624Y-56527091D01*
X133502538Y-56473582D01*
X133486246Y-56448571D01*
X133486867Y-56431486D01*
X133487634Y-56428574D01*
X133508415Y-56349603D01*
X133510979Y-56339861D01*
X133512953Y-56332359D01*
X133086252Y-55889854D01*
X131980726Y-54743382D01*
X131969806Y-54715602D01*
X131981729Y-54688237D01*
X132001191Y-54678061D01*
X132038890Y-54670562D01*
X132042084Y-54668428D01*
X132042086Y-54668427D01*
X132108633Y-54623961D01*
X132111827Y-54621827D01*
X132139330Y-54580666D01*
X132158427Y-54552086D01*
X132158428Y-54552084D01*
X132160562Y-54548890D01*
X132161311Y-54545124D01*
X132161312Y-54545122D01*
X132176926Y-54466621D01*
X132177675Y-54462855D01*
X132176926Y-54459089D01*
X132161312Y-54380588D01*
X132161311Y-54380586D01*
X132160562Y-54376820D01*
X132158428Y-54373626D01*
X132158427Y-54373624D01*
X132113961Y-54307077D01*
X132111827Y-54303883D01*
X132042105Y-54257296D01*
X132042086Y-54257283D01*
X132042084Y-54257282D01*
X132038890Y-54255148D01*
X132035124Y-54254399D01*
X132035122Y-54254398D01*
X131956621Y-54238784D01*
X131952855Y-54238035D01*
X131949089Y-54238784D01*
X131870588Y-54254398D01*
X131870586Y-54254399D01*
X131866820Y-54255148D01*
X131863626Y-54257282D01*
X131863624Y-54257283D01*
X131863605Y-54257296D01*
X131793883Y-54303883D01*
X131791749Y-54307077D01*
X131747283Y-54373624D01*
X131747282Y-54373626D01*
X131745148Y-54376820D01*
X131744399Y-54380588D01*
X131739539Y-54405019D01*
X131722955Y-54429837D01*
X131693679Y-54435661D01*
X131673214Y-54424481D01*
X131467575Y-54211226D01*
X130812953Y-53532359D01*
X130808086Y-53530927D01*
X130808085Y-53530927D01*
X130243771Y-53364952D01*
X130220538Y-53346212D01*
X130217329Y-53338432D01*
X130203653Y-53291426D01*
X130203652Y-53291424D01*
X130203196Y-53289856D01*
X130107049Y-53091124D01*
X129979117Y-52911201D01*
X129901000Y-52833113D01*
X129824135Y-52756276D01*
X129824131Y-52756273D01*
X129822981Y-52755123D01*
X129821657Y-52754182D01*
X129821653Y-52754179D01*
X129666056Y-52643631D01*
X129643069Y-52627299D01*
X129643232Y-52627024D01*
X129312964Y-52443757D01*
X129049764Y-52297706D01*
X129049752Y-52297700D01*
X129049282Y-52297439D01*
X128465809Y-52015473D01*
X128438178Y-52002120D01*
X128438170Y-52002116D01*
X128437687Y-52001883D01*
X127810393Y-51741297D01*
X127169399Y-51516512D01*
X127168898Y-51516367D01*
X127168884Y-51516363D01*
X126517287Y-51328397D01*
X126517285Y-51328396D01*
X126516746Y-51328241D01*
X126516202Y-51328117D01*
X126516191Y-51328114D01*
X125855037Y-51177207D01*
X125855035Y-51177207D01*
X125854511Y-51177087D01*
X125853985Y-51176998D01*
X125853981Y-51176997D01*
X125185362Y-51063622D01*
X125185347Y-51063620D01*
X125184805Y-51063528D01*
X125184254Y-51063466D01*
X125184252Y-51063466D01*
X124510295Y-50987989D01*
X124510294Y-50987989D01*
X124509759Y-50987929D01*
X124509221Y-50987899D01*
X124509217Y-50987899D01*
X123832069Y-50950558D01*
X123832065Y-50950558D01*
X123831523Y-50950528D01*
X123491890Y-50950987D01*
X123152807Y-50951444D01*
X123152798Y-50951444D01*
X123152258Y-50951445D01*
X122722705Y-50976297D01*
X122474675Y-50990646D01*
X122474667Y-50990647D01*
X122474126Y-50990678D01*
X122233409Y-51018295D01*
X121799841Y-51068036D01*
X121799826Y-51068038D01*
X121799287Y-51068100D01*
X121798735Y-51068195D01*
X121798729Y-51068196D01*
X121520229Y-51116194D01*
X121129889Y-51183467D01*
X121129362Y-51183589D01*
X121129351Y-51183591D01*
X120468602Y-51336286D01*
X120468598Y-51336287D01*
X120468066Y-51336410D01*
X119815923Y-51526442D01*
X119465733Y-51650311D01*
X119176060Y-51752773D01*
X119176049Y-51752777D01*
X119175538Y-51752958D01*
X118548951Y-52015237D01*
X118548479Y-52015467D01*
X118548465Y-52015473D01*
X118267375Y-52152249D01*
X117938156Y-52312444D01*
X117345099Y-52643631D01*
X117344657Y-52643912D01*
X117344643Y-52643920D01*
X116921622Y-52912528D01*
X116771668Y-53007745D01*
X116771242Y-53008051D01*
X116771225Y-53008062D01*
X116499589Y-53202881D01*
X116219689Y-53403626D01*
X116219256Y-53403975D01*
X116219247Y-53403982D01*
X115880517Y-53677126D01*
X115690920Y-53830013D01*
X115187046Y-54285549D01*
X114956828Y-54518592D01*
X114725430Y-54752829D01*
X114709670Y-54768782D01*
X114260313Y-55278175D01*
X114259972Y-55278609D01*
X114259965Y-55278617D01*
X113840757Y-55811655D01*
X113840405Y-55812103D01*
X113840092Y-55812551D01*
X113840083Y-55812563D01*
X113451592Y-56368429D01*
X113451584Y-56368441D01*
X113451285Y-56368869D01*
X113451011Y-56369312D01*
X113451004Y-56369323D01*
X113154290Y-56849449D01*
X113094191Y-56946697D01*
X112999486Y-57121252D01*
X112772227Y-57540124D01*
X112770260Y-57543749D01*
X112480524Y-58158123D01*
X112375831Y-58417056D01*
X112226105Y-58787366D01*
X112226099Y-58787383D01*
X112225905Y-58787862D01*
X112225741Y-58788344D01*
X112225737Y-58788355D01*
X112014525Y-59409465D01*
X112007215Y-59430962D01*
X111825150Y-60085373D01*
X111680289Y-60749013D01*
X111680200Y-60749569D01*
X111680199Y-60749575D01*
X111678496Y-60760230D01*
X111573094Y-61419767D01*
X111503907Y-62095501D01*
X111503882Y-62096043D01*
X111503881Y-62096060D01*
X111485393Y-62501279D01*
X111472947Y-62774061D01*
X103580000Y-62774061D01*
X103580000Y-47300000D01*
X130005180Y-47300000D01*
X130005929Y-47303766D01*
X130021543Y-47382267D01*
X130021544Y-47382269D01*
X130022293Y-47386035D01*
X130024427Y-47389229D01*
X130024428Y-47389231D01*
X130057885Y-47439302D01*
X130071028Y-47458972D01*
X130074222Y-47461106D01*
X130140769Y-47505572D01*
X130140771Y-47505573D01*
X130143965Y-47507707D01*
X130147731Y-47508456D01*
X130147733Y-47508457D01*
X130226234Y-47524071D01*
X130230000Y-47524820D01*
X130233766Y-47524071D01*
X130312267Y-47508457D01*
X130312269Y-47508456D01*
X130316035Y-47507707D01*
X130319229Y-47505573D01*
X130319231Y-47505572D01*
X130385778Y-47461106D01*
X130388972Y-47458972D01*
X130402115Y-47439302D01*
X130435572Y-47389231D01*
X130435573Y-47389229D01*
X130437707Y-47386035D01*
X130438456Y-47382269D01*
X130438457Y-47382267D01*
X130454071Y-47303766D01*
X130454820Y-47300000D01*
X130454071Y-47296234D01*
X130438457Y-47217733D01*
X130438456Y-47217731D01*
X130437707Y-47213965D01*
X130435573Y-47210771D01*
X130435572Y-47210769D01*
X130391106Y-47144222D01*
X130388972Y-47141028D01*
X130369302Y-47127885D01*
X130319231Y-47094428D01*
X130319229Y-47094427D01*
X130316035Y-47092293D01*
X130312269Y-47091544D01*
X130312267Y-47091543D01*
X130233766Y-47075929D01*
X130230000Y-47075180D01*
X130226234Y-47075929D01*
X130147733Y-47091543D01*
X130147731Y-47091544D01*
X130143965Y-47092293D01*
X130140771Y-47094427D01*
X130140769Y-47094428D01*
X130090698Y-47127885D01*
X130071028Y-47141028D01*
X130068894Y-47144222D01*
X130024428Y-47210769D01*
X130024427Y-47210771D01*
X130022293Y-47213965D01*
X130021544Y-47217731D01*
X130021543Y-47217733D01*
X130005929Y-47296234D01*
X130005180Y-47300000D01*
X103580000Y-47300000D01*
X103580000Y-41510218D01*
X117806561Y-41510218D01*
X117808311Y-41514442D01*
X117873748Y-41570132D01*
X117876862Y-41572296D01*
X118036161Y-41661326D01*
X118039643Y-41662847D01*
X118213197Y-41719238D01*
X118216908Y-41720054D01*
X118398122Y-41741663D01*
X118401904Y-41741742D01*
X118583863Y-41727741D01*
X118587602Y-41727082D01*
X118763368Y-41678007D01*
X118766907Y-41676635D01*
X118929798Y-41594352D01*
X118933001Y-41592319D01*
X119031168Y-41515623D01*
X119034091Y-41510456D01*
X119033017Y-41506583D01*
X118425485Y-40899051D01*
X118420000Y-40896779D01*
X118414515Y-40899051D01*
X117808833Y-41504733D01*
X117806561Y-41510218D01*
X103580000Y-41510218D01*
X103580000Y-40776072D01*
X117465656Y-40776072D01*
X117480926Y-40957922D01*
X117481612Y-40961657D01*
X117531912Y-41137078D01*
X117533310Y-41140607D01*
X117616724Y-41302912D01*
X117618785Y-41306111D01*
X117692022Y-41398513D01*
X117697210Y-41401401D01*
X117701158Y-41400276D01*
X118308449Y-40792985D01*
X118310721Y-40787500D01*
X118529279Y-40787500D01*
X118531551Y-40792985D01*
X119137243Y-41398677D01*
X119141948Y-41400626D01*
X119148284Y-41397725D01*
X119198795Y-41339208D01*
X119200988Y-41336098D01*
X119291123Y-41177433D01*
X119292672Y-41173954D01*
X119350272Y-41000801D01*
X119351114Y-40997095D01*
X119374087Y-40815245D01*
X119374240Y-40813056D01*
X119374582Y-40788593D01*
X119374491Y-40786416D01*
X119373290Y-40774165D01*
X120004994Y-40774165D01*
X120008260Y-40813056D01*
X120020425Y-40957922D01*
X120020592Y-40959914D01*
X120021116Y-40961743D01*
X120021117Y-40961746D01*
X120071393Y-41137078D01*
X120071971Y-41139095D01*
X120157176Y-41304885D01*
X120272959Y-41450968D01*
X120414912Y-41571779D01*
X120416579Y-41572710D01*
X120416578Y-41572710D01*
X120575960Y-41661786D01*
X120575965Y-41661788D01*
X120577627Y-41662717D01*
X120579440Y-41663306D01*
X120579442Y-41663307D01*
X120753090Y-41719729D01*
X120753094Y-41719730D01*
X120754907Y-41720319D01*
X120756799Y-41720545D01*
X120756801Y-41720545D01*
X120933901Y-41741663D01*
X120939998Y-41742390D01*
X121125851Y-41728089D01*
X121127687Y-41727576D01*
X121127689Y-41727576D01*
X121215619Y-41703025D01*
X121305387Y-41677962D01*
X121471768Y-41593917D01*
X121618655Y-41479156D01*
X121740454Y-41338050D01*
X121832526Y-41175974D01*
X121891364Y-40999101D01*
X121914727Y-40814168D01*
X121914930Y-40799588D01*
X121915084Y-40788593D01*
X121915084Y-40788589D01*
X121915099Y-40787500D01*
X121914561Y-40782015D01*
X121913791Y-40774165D01*
X122544994Y-40774165D01*
X122548260Y-40813056D01*
X122560425Y-40957922D01*
X122560592Y-40959914D01*
X122561116Y-40961743D01*
X122561117Y-40961746D01*
X122611393Y-41137078D01*
X122611971Y-41139095D01*
X122697176Y-41304885D01*
X122812959Y-41450968D01*
X122954912Y-41571779D01*
X122956579Y-41572710D01*
X122956578Y-41572710D01*
X123115960Y-41661786D01*
X123115965Y-41661788D01*
X123117627Y-41662717D01*
X123119440Y-41663306D01*
X123119442Y-41663307D01*
X123293090Y-41719729D01*
X123293094Y-41719730D01*
X123294907Y-41720319D01*
X123296799Y-41720545D01*
X123296801Y-41720545D01*
X123473901Y-41741663D01*
X123479998Y-41742390D01*
X123665851Y-41728089D01*
X123667687Y-41727576D01*
X123667689Y-41727576D01*
X123755619Y-41703025D01*
X123845387Y-41677962D01*
X124011768Y-41593917D01*
X124158655Y-41479156D01*
X124280454Y-41338050D01*
X124372526Y-41175974D01*
X124431364Y-40999101D01*
X124454727Y-40814168D01*
X124454930Y-40799588D01*
X124455084Y-40788593D01*
X124455084Y-40788589D01*
X124455099Y-40787500D01*
X124454561Y-40782015D01*
X124453791Y-40774165D01*
X125084994Y-40774165D01*
X125088260Y-40813056D01*
X125100425Y-40957922D01*
X125100592Y-40959914D01*
X125101116Y-40961743D01*
X125101117Y-40961746D01*
X125151393Y-41137078D01*
X125151971Y-41139095D01*
X125237176Y-41304885D01*
X125352959Y-41450968D01*
X125494912Y-41571779D01*
X125496579Y-41572710D01*
X125496578Y-41572710D01*
X125655960Y-41661786D01*
X125655965Y-41661788D01*
X125657627Y-41662717D01*
X125659440Y-41663306D01*
X125659442Y-41663307D01*
X125833090Y-41719729D01*
X125833094Y-41719730D01*
X125834907Y-41720319D01*
X125836799Y-41720545D01*
X125836801Y-41720545D01*
X126013901Y-41741663D01*
X126019998Y-41742390D01*
X126205851Y-41728089D01*
X126207687Y-41727576D01*
X126207689Y-41727576D01*
X126295619Y-41703025D01*
X126385387Y-41677962D01*
X126551768Y-41593917D01*
X126658898Y-41510218D01*
X127966561Y-41510218D01*
X127968311Y-41514442D01*
X128033748Y-41570132D01*
X128036862Y-41572296D01*
X128196161Y-41661326D01*
X128199643Y-41662847D01*
X128373197Y-41719238D01*
X128376908Y-41720054D01*
X128558122Y-41741663D01*
X128561904Y-41741742D01*
X128743863Y-41727741D01*
X128747602Y-41727082D01*
X128923368Y-41678007D01*
X128926907Y-41676635D01*
X129089798Y-41594352D01*
X129093001Y-41592319D01*
X129191168Y-41515623D01*
X129194091Y-41510456D01*
X129193017Y-41506583D01*
X128585485Y-40899051D01*
X128580000Y-40896779D01*
X128574515Y-40899051D01*
X127968833Y-41504733D01*
X127966561Y-41510218D01*
X126658898Y-41510218D01*
X126698655Y-41479156D01*
X126820454Y-41338050D01*
X126912526Y-41175974D01*
X126971364Y-40999101D01*
X126994727Y-40814168D01*
X126994930Y-40799588D01*
X126995084Y-40788593D01*
X126995084Y-40788589D01*
X126995099Y-40787500D01*
X126994561Y-40782015D01*
X126993978Y-40776072D01*
X127625656Y-40776072D01*
X127640926Y-40957922D01*
X127641612Y-40961657D01*
X127691912Y-41137078D01*
X127693310Y-41140607D01*
X127776724Y-41302912D01*
X127778785Y-41306111D01*
X127852022Y-41398513D01*
X127857210Y-41401401D01*
X127861158Y-41400276D01*
X128468449Y-40792985D01*
X128470721Y-40787500D01*
X128689279Y-40787500D01*
X128691551Y-40792985D01*
X129297243Y-41398677D01*
X129301948Y-41400626D01*
X129308284Y-41397725D01*
X129358795Y-41339208D01*
X129360988Y-41336098D01*
X129451123Y-41177433D01*
X129452672Y-41173954D01*
X129510272Y-41000801D01*
X129511114Y-40997095D01*
X129534087Y-40815245D01*
X129534240Y-40813056D01*
X129534582Y-40788593D01*
X129534491Y-40786416D01*
X129516604Y-40603987D01*
X129515863Y-40600250D01*
X129463121Y-40425561D01*
X129461673Y-40422045D01*
X129376001Y-40260921D01*
X129373897Y-40257754D01*
X129307787Y-40176695D01*
X129302558Y-40173880D01*
X129298455Y-40175111D01*
X128691551Y-40782015D01*
X128689279Y-40787500D01*
X128470721Y-40787500D01*
X128468449Y-40782015D01*
X127862745Y-40176311D01*
X127857260Y-40174039D01*
X127853127Y-40175751D01*
X127793572Y-40246727D01*
X127791431Y-40249854D01*
X127703516Y-40409771D01*
X127702018Y-40413266D01*
X127646840Y-40587208D01*
X127646050Y-40590923D01*
X127625708Y-40772278D01*
X127625656Y-40776072D01*
X126993978Y-40776072D01*
X126977096Y-40603890D01*
X126977095Y-40603886D01*
X126976909Y-40601987D01*
X126923033Y-40423540D01*
X126917571Y-40413266D01*
X126836419Y-40260643D01*
X126835522Y-40258956D01*
X126717710Y-40114505D01*
X126657679Y-40064842D01*
X127966255Y-40064842D01*
X127967432Y-40068866D01*
X128574515Y-40675949D01*
X128580000Y-40678221D01*
X128585485Y-40675949D01*
X129191244Y-40070190D01*
X129193516Y-40064705D01*
X129191841Y-40060661D01*
X129115272Y-39997317D01*
X129112125Y-39995195D01*
X128951597Y-39908398D01*
X128948104Y-39906930D01*
X128773771Y-39852964D01*
X128770048Y-39852200D01*
X128588564Y-39833126D01*
X128584760Y-39833099D01*
X128403026Y-39849639D01*
X128399296Y-39850350D01*
X128224240Y-39901872D01*
X128220705Y-39903300D01*
X128058990Y-39987842D01*
X128055809Y-39989924D01*
X127969107Y-40059634D01*
X127966255Y-40064842D01*
X126657679Y-40064842D01*
X126645898Y-40055096D01*
X126575553Y-39996901D01*
X126575550Y-39996899D01*
X126574085Y-39995687D01*
X126558801Y-39987423D01*
X126411798Y-39907938D01*
X126411794Y-39907936D01*
X126410116Y-39907029D01*
X126408291Y-39906464D01*
X126233875Y-39852474D01*
X126233873Y-39852474D01*
X126232049Y-39851909D01*
X126046668Y-39832424D01*
X126044767Y-39832597D01*
X126044764Y-39832597D01*
X125862929Y-39849145D01*
X125862925Y-39849146D01*
X125861032Y-39849318D01*
X125859210Y-39849854D01*
X125859206Y-39849855D01*
X125684044Y-39901409D01*
X125684040Y-39901410D01*
X125682214Y-39901948D01*
X125517023Y-39988307D01*
X125371752Y-40105108D01*
X125251935Y-40247901D01*
X125162135Y-40411246D01*
X125105772Y-40588924D01*
X125105560Y-40590815D01*
X125105559Y-40590819D01*
X125085206Y-40772272D01*
X125084994Y-40774165D01*
X124453791Y-40774165D01*
X124437096Y-40603890D01*
X124437095Y-40603886D01*
X124436909Y-40601987D01*
X124383033Y-40423540D01*
X124377571Y-40413266D01*
X124296419Y-40260643D01*
X124295522Y-40258956D01*
X124177710Y-40114505D01*
X124105898Y-40055096D01*
X124035553Y-39996901D01*
X124035550Y-39996899D01*
X124034085Y-39995687D01*
X124018801Y-39987423D01*
X123871798Y-39907938D01*
X123871794Y-39907936D01*
X123870116Y-39907029D01*
X123868291Y-39906464D01*
X123693875Y-39852474D01*
X123693873Y-39852474D01*
X123692049Y-39851909D01*
X123506668Y-39832424D01*
X123504767Y-39832597D01*
X123504764Y-39832597D01*
X123322929Y-39849145D01*
X123322925Y-39849146D01*
X123321032Y-39849318D01*
X123319210Y-39849854D01*
X123319206Y-39849855D01*
X123144044Y-39901409D01*
X123144040Y-39901410D01*
X123142214Y-39901948D01*
X122977023Y-39988307D01*
X122831752Y-40105108D01*
X122711935Y-40247901D01*
X122622135Y-40411246D01*
X122565772Y-40588924D01*
X122565560Y-40590815D01*
X122565559Y-40590819D01*
X122545206Y-40772272D01*
X122544994Y-40774165D01*
X121913791Y-40774165D01*
X121897096Y-40603890D01*
X121897095Y-40603886D01*
X121896909Y-40601987D01*
X121843033Y-40423540D01*
X121837571Y-40413266D01*
X121756419Y-40260643D01*
X121755522Y-40258956D01*
X121637710Y-40114505D01*
X121565898Y-40055096D01*
X121495553Y-39996901D01*
X121495550Y-39996899D01*
X121494085Y-39995687D01*
X121478801Y-39987423D01*
X121331798Y-39907938D01*
X121331794Y-39907936D01*
X121330116Y-39907029D01*
X121328291Y-39906464D01*
X121153875Y-39852474D01*
X121153873Y-39852474D01*
X121152049Y-39851909D01*
X120966668Y-39832424D01*
X120964767Y-39832597D01*
X120964764Y-39832597D01*
X120782929Y-39849145D01*
X120782925Y-39849146D01*
X120781032Y-39849318D01*
X120779210Y-39849854D01*
X120779206Y-39849855D01*
X120604044Y-39901409D01*
X120604040Y-39901410D01*
X120602214Y-39901948D01*
X120437023Y-39988307D01*
X120291752Y-40105108D01*
X120171935Y-40247901D01*
X120082135Y-40411246D01*
X120025772Y-40588924D01*
X120025560Y-40590815D01*
X120025559Y-40590819D01*
X120005206Y-40772272D01*
X120004994Y-40774165D01*
X119373290Y-40774165D01*
X119356604Y-40603987D01*
X119355863Y-40600250D01*
X119303121Y-40425561D01*
X119301673Y-40422045D01*
X119216001Y-40260921D01*
X119213897Y-40257754D01*
X119147787Y-40176695D01*
X119142558Y-40173880D01*
X119138455Y-40175111D01*
X118531551Y-40782015D01*
X118529279Y-40787500D01*
X118310721Y-40787500D01*
X118308449Y-40782015D01*
X117702745Y-40176311D01*
X117697260Y-40174039D01*
X117693127Y-40175751D01*
X117633572Y-40246727D01*
X117631431Y-40249854D01*
X117543516Y-40409771D01*
X117542018Y-40413266D01*
X117486840Y-40587208D01*
X117486050Y-40590923D01*
X117465708Y-40772278D01*
X117465656Y-40776072D01*
X103580000Y-40776072D01*
X103580000Y-40064842D01*
X117806255Y-40064842D01*
X117807432Y-40068866D01*
X118414515Y-40675949D01*
X118420000Y-40678221D01*
X118425485Y-40675949D01*
X119031244Y-40070190D01*
X119033516Y-40064705D01*
X119031841Y-40060661D01*
X118955272Y-39997317D01*
X118952125Y-39995195D01*
X118791597Y-39908398D01*
X118788104Y-39906930D01*
X118613771Y-39852964D01*
X118610048Y-39852200D01*
X118428564Y-39833126D01*
X118424760Y-39833099D01*
X118243026Y-39849639D01*
X118239296Y-39850350D01*
X118064240Y-39901872D01*
X118060705Y-39903300D01*
X117898990Y-39987842D01*
X117895809Y-39989924D01*
X117809107Y-40059634D01*
X117806255Y-40064842D01*
X103580000Y-40064842D01*
X103580000Y-38234165D01*
X117464994Y-38234165D01*
X117480592Y-38419914D01*
X117481116Y-38421743D01*
X117481117Y-38421746D01*
X117491829Y-38459101D01*
X117531971Y-38599095D01*
X117617176Y-38764885D01*
X117732959Y-38910968D01*
X117874912Y-39031779D01*
X117876579Y-39032710D01*
X117876578Y-39032710D01*
X118035960Y-39121786D01*
X118035965Y-39121788D01*
X118037627Y-39122717D01*
X118039440Y-39123306D01*
X118039442Y-39123307D01*
X118213090Y-39179729D01*
X118213094Y-39179730D01*
X118214907Y-39180319D01*
X118216799Y-39180545D01*
X118216801Y-39180545D01*
X118398111Y-39202165D01*
X118399998Y-39202390D01*
X118585851Y-39188089D01*
X118587687Y-39187576D01*
X118587689Y-39187576D01*
X118675619Y-39163025D01*
X118765387Y-39137962D01*
X118767702Y-39136793D01*
X118930067Y-39054776D01*
X118931768Y-39053917D01*
X119078655Y-38939156D01*
X119200454Y-38798050D01*
X119292526Y-38635974D01*
X119351364Y-38459101D01*
X119374727Y-38274168D01*
X119375099Y-38247500D01*
X119373978Y-38236065D01*
X119373792Y-38234165D01*
X120004994Y-38234165D01*
X120020592Y-38419914D01*
X120021116Y-38421743D01*
X120021117Y-38421746D01*
X120031829Y-38459101D01*
X120071971Y-38599095D01*
X120157176Y-38764885D01*
X120272959Y-38910968D01*
X120414912Y-39031779D01*
X120416579Y-39032710D01*
X120416578Y-39032710D01*
X120575960Y-39121786D01*
X120575965Y-39121788D01*
X120577627Y-39122717D01*
X120579440Y-39123306D01*
X120579442Y-39123307D01*
X120753090Y-39179729D01*
X120753094Y-39179730D01*
X120754907Y-39180319D01*
X120756799Y-39180545D01*
X120756801Y-39180545D01*
X120938111Y-39202165D01*
X120939998Y-39202390D01*
X121125851Y-39188089D01*
X121127687Y-39187576D01*
X121127689Y-39187576D01*
X121215619Y-39163025D01*
X121305387Y-39137962D01*
X121307702Y-39136793D01*
X121470067Y-39054776D01*
X121471768Y-39053917D01*
X121618655Y-38939156D01*
X121740454Y-38798050D01*
X121832526Y-38635974D01*
X121891364Y-38459101D01*
X121914727Y-38274168D01*
X121915099Y-38247500D01*
X121913978Y-38236065D01*
X121913792Y-38234165D01*
X122544994Y-38234165D01*
X122560592Y-38419914D01*
X122561116Y-38421743D01*
X122561117Y-38421746D01*
X122571829Y-38459101D01*
X122611971Y-38599095D01*
X122697176Y-38764885D01*
X122812959Y-38910968D01*
X122954912Y-39031779D01*
X122956579Y-39032710D01*
X122956578Y-39032710D01*
X123115960Y-39121786D01*
X123115965Y-39121788D01*
X123117627Y-39122717D01*
X123119440Y-39123306D01*
X123119442Y-39123307D01*
X123293090Y-39179729D01*
X123293094Y-39179730D01*
X123294907Y-39180319D01*
X123296799Y-39180545D01*
X123296801Y-39180545D01*
X123478111Y-39202165D01*
X123479998Y-39202390D01*
X123665851Y-39188089D01*
X123667687Y-39187576D01*
X123667689Y-39187576D01*
X123755619Y-39163025D01*
X123845387Y-39137962D01*
X123847702Y-39136793D01*
X124010067Y-39054776D01*
X124011768Y-39053917D01*
X124158655Y-38939156D01*
X124280454Y-38798050D01*
X124372526Y-38635974D01*
X124431364Y-38459101D01*
X124454727Y-38274168D01*
X124455099Y-38247500D01*
X124453978Y-38236065D01*
X124453792Y-38234165D01*
X125084994Y-38234165D01*
X125100592Y-38419914D01*
X125101116Y-38421743D01*
X125101117Y-38421746D01*
X125111829Y-38459101D01*
X125151971Y-38599095D01*
X125237176Y-38764885D01*
X125352959Y-38910968D01*
X125494912Y-39031779D01*
X125496579Y-39032710D01*
X125496578Y-39032710D01*
X125655960Y-39121786D01*
X125655965Y-39121788D01*
X125657627Y-39122717D01*
X125659440Y-39123306D01*
X125659442Y-39123307D01*
X125833090Y-39179729D01*
X125833094Y-39179730D01*
X125834907Y-39180319D01*
X125836799Y-39180545D01*
X125836801Y-39180545D01*
X126018111Y-39202165D01*
X126019998Y-39202390D01*
X126205851Y-39188089D01*
X126207687Y-39187576D01*
X126207689Y-39187576D01*
X126295619Y-39163025D01*
X126385387Y-39137962D01*
X126387702Y-39136793D01*
X126550067Y-39054776D01*
X126551768Y-39053917D01*
X126698655Y-38939156D01*
X126749097Y-38880718D01*
X127629500Y-38880718D01*
X127639642Y-38949612D01*
X127640976Y-38952330D01*
X127640977Y-38952332D01*
X127689646Y-39051460D01*
X127689648Y-39051463D01*
X127691068Y-39054355D01*
X127773650Y-39136793D01*
X127776544Y-39138208D01*
X127776546Y-39138209D01*
X127825651Y-39162212D01*
X127878482Y-39188036D01*
X127946782Y-39198000D01*
X129213218Y-39198000D01*
X129214629Y-39197792D01*
X129214633Y-39197792D01*
X129245071Y-39193311D01*
X129282112Y-39187858D01*
X129284830Y-39186524D01*
X129284832Y-39186523D01*
X129383960Y-39137854D01*
X129383963Y-39137852D01*
X129386855Y-39136432D01*
X129469293Y-39053850D01*
X129479627Y-39032710D01*
X129519207Y-38951736D01*
X129520536Y-38949018D01*
X129530500Y-38880718D01*
X129530500Y-37614282D01*
X129520358Y-37545388D01*
X129519023Y-37542668D01*
X129470354Y-37443540D01*
X129470352Y-37443537D01*
X129468932Y-37440645D01*
X129386350Y-37358207D01*
X129383456Y-37356792D01*
X129383454Y-37356791D01*
X129287432Y-37309855D01*
X129281518Y-37306964D01*
X129213218Y-37297000D01*
X127946782Y-37297000D01*
X127945371Y-37297208D01*
X127945367Y-37297208D01*
X127914929Y-37301689D01*
X127877888Y-37307142D01*
X127875170Y-37308476D01*
X127875168Y-37308477D01*
X127776040Y-37357146D01*
X127776037Y-37357148D01*
X127773145Y-37358568D01*
X127690707Y-37441150D01*
X127689292Y-37444044D01*
X127689291Y-37444046D01*
X127665288Y-37493151D01*
X127639464Y-37545982D01*
X127629500Y-37614282D01*
X127629500Y-38880718D01*
X126749097Y-38880718D01*
X126820454Y-38798050D01*
X126912526Y-38635974D01*
X126971364Y-38459101D01*
X126994727Y-38274168D01*
X126995099Y-38247500D01*
X126993978Y-38236065D01*
X126977096Y-38063890D01*
X126977095Y-38063886D01*
X126976909Y-38061987D01*
X126923033Y-37883540D01*
X126916497Y-37871246D01*
X126836419Y-37720643D01*
X126835522Y-37718956D01*
X126717710Y-37574505D01*
X126645898Y-37515096D01*
X126575553Y-37456901D01*
X126575550Y-37456899D01*
X126574085Y-37455687D01*
X126558801Y-37447423D01*
X126411798Y-37367938D01*
X126411794Y-37367936D01*
X126410116Y-37367029D01*
X126408291Y-37366464D01*
X126233875Y-37312474D01*
X126233873Y-37312474D01*
X126232049Y-37311909D01*
X126046668Y-37292424D01*
X126044767Y-37292597D01*
X126044764Y-37292597D01*
X125862929Y-37309145D01*
X125862925Y-37309146D01*
X125861032Y-37309318D01*
X125859210Y-37309854D01*
X125859206Y-37309855D01*
X125684044Y-37361409D01*
X125684040Y-37361410D01*
X125682214Y-37361948D01*
X125517023Y-37448307D01*
X125371752Y-37565108D01*
X125251935Y-37707901D01*
X125162135Y-37871246D01*
X125105772Y-38048924D01*
X125105560Y-38050815D01*
X125105559Y-38050819D01*
X125104093Y-38063890D01*
X125084994Y-38234165D01*
X124453792Y-38234165D01*
X124437096Y-38063890D01*
X124437095Y-38063886D01*
X124436909Y-38061987D01*
X124383033Y-37883540D01*
X124376497Y-37871246D01*
X124296419Y-37720643D01*
X124295522Y-37718956D01*
X124177710Y-37574505D01*
X124105898Y-37515096D01*
X124035553Y-37456901D01*
X124035550Y-37456899D01*
X124034085Y-37455687D01*
X124018801Y-37447423D01*
X123871798Y-37367938D01*
X123871794Y-37367936D01*
X123870116Y-37367029D01*
X123868291Y-37366464D01*
X123693875Y-37312474D01*
X123693873Y-37312474D01*
X123692049Y-37311909D01*
X123506668Y-37292424D01*
X123504767Y-37292597D01*
X123504764Y-37292597D01*
X123322929Y-37309145D01*
X123322925Y-37309146D01*
X123321032Y-37309318D01*
X123319210Y-37309854D01*
X123319206Y-37309855D01*
X123144044Y-37361409D01*
X123144040Y-37361410D01*
X123142214Y-37361948D01*
X122977023Y-37448307D01*
X122831752Y-37565108D01*
X122711935Y-37707901D01*
X122622135Y-37871246D01*
X122565772Y-38048924D01*
X122565560Y-38050815D01*
X122565559Y-38050819D01*
X122564093Y-38063890D01*
X122544994Y-38234165D01*
X121913792Y-38234165D01*
X121897096Y-38063890D01*
X121897095Y-38063886D01*
X121896909Y-38061987D01*
X121843033Y-37883540D01*
X121836497Y-37871246D01*
X121756419Y-37720643D01*
X121755522Y-37718956D01*
X121637710Y-37574505D01*
X121565898Y-37515096D01*
X121495553Y-37456901D01*
X121495550Y-37456899D01*
X121494085Y-37455687D01*
X121478801Y-37447423D01*
X121331798Y-37367938D01*
X121331794Y-37367936D01*
X121330116Y-37367029D01*
X121328291Y-37366464D01*
X121153875Y-37312474D01*
X121153873Y-37312474D01*
X121152049Y-37311909D01*
X120966668Y-37292424D01*
X120964767Y-37292597D01*
X120964764Y-37292597D01*
X120782929Y-37309145D01*
X120782925Y-37309146D01*
X120781032Y-37309318D01*
X120779210Y-37309854D01*
X120779206Y-37309855D01*
X120604044Y-37361409D01*
X120604040Y-37361410D01*
X120602214Y-37361948D01*
X120437023Y-37448307D01*
X120291752Y-37565108D01*
X120171935Y-37707901D01*
X120082135Y-37871246D01*
X120025772Y-38048924D01*
X120025560Y-38050815D01*
X120025559Y-38050819D01*
X120024093Y-38063890D01*
X120004994Y-38234165D01*
X119373792Y-38234165D01*
X119357096Y-38063890D01*
X119357095Y-38063886D01*
X119356909Y-38061987D01*
X119303033Y-37883540D01*
X119296497Y-37871246D01*
X119216419Y-37720643D01*
X119215522Y-37718956D01*
X119097710Y-37574505D01*
X119025898Y-37515096D01*
X118955553Y-37456901D01*
X118955550Y-37456899D01*
X118954085Y-37455687D01*
X118938801Y-37447423D01*
X118791798Y-37367938D01*
X118791794Y-37367936D01*
X118790116Y-37367029D01*
X118788291Y-37366464D01*
X118613875Y-37312474D01*
X118613873Y-37312474D01*
X118612049Y-37311909D01*
X118426668Y-37292424D01*
X118424767Y-37292597D01*
X118424764Y-37292597D01*
X118242929Y-37309145D01*
X118242925Y-37309146D01*
X118241032Y-37309318D01*
X118239210Y-37309854D01*
X118239206Y-37309855D01*
X118064044Y-37361409D01*
X118064040Y-37361410D01*
X118062214Y-37361948D01*
X117897023Y-37448307D01*
X117751752Y-37565108D01*
X117631935Y-37707901D01*
X117542135Y-37871246D01*
X117485772Y-38048924D01*
X117485560Y-38050815D01*
X117485559Y-38050819D01*
X117484093Y-38063890D01*
X117464994Y-38234165D01*
X103580000Y-38234165D01*
X103580000Y-30119000D01*
X103591423Y-30091423D01*
X103619000Y-30080000D01*
X143381000Y-30080000D01*
X143408577Y-30091423D01*
G37*
%TD.AperFunction*%
%TA.AperFunction,Conductor*%
G36*
X114200082Y-64488425D02*
G01*
X114177126Y-64359928D01*
X114176765Y-64357453D01*
X114142186Y-64051774D01*
X114109124Y-63759504D01*
X114108923Y-63757016D01*
X114079753Y-63155979D01*
X114079712Y-63153478D01*
X114086902Y-62693980D01*
X114089127Y-62551801D01*
X114089246Y-62549312D01*
X114092405Y-62509815D01*
X114137212Y-61949471D01*
X114137491Y-61946990D01*
X114200172Y-61514538D01*
X114200082Y-64488425D01*
G37*
%TD.AperFunction*%
%TA.AperFunction,Conductor*%
G36*
X128874563Y-55079194D02*
G01*
X128874569Y-55079194D01*
X128876182Y-55079448D01*
X128880517Y-55079398D01*
X129037096Y-55077586D01*
X129064803Y-55088689D01*
X129076544Y-55116132D01*
X129071322Y-55136082D01*
X129061575Y-55152965D01*
X129036270Y-55196796D01*
X129032828Y-55202757D01*
X129015681Y-55300000D01*
X129032828Y-55397243D01*
X129034535Y-55400199D01*
X129034535Y-55400200D01*
X129080494Y-55479804D01*
X129082199Y-55482757D01*
X129084808Y-55484946D01*
X129084810Y-55484948D01*
X129116835Y-55511820D01*
X129157840Y-55546227D01*
X129161042Y-55547393D01*
X129161043Y-55547393D01*
X129190029Y-55557943D01*
X129250629Y-55580000D01*
X129349371Y-55580000D01*
X129409971Y-55557943D01*
X129438957Y-55547393D01*
X129438958Y-55547393D01*
X129442160Y-55546227D01*
X129444769Y-55544038D01*
X129444774Y-55544035D01*
X129515194Y-55484946D01*
X129543661Y-55475970D01*
X129567839Y-55487245D01*
X130914982Y-56834388D01*
X130926405Y-56861965D01*
X130914982Y-56889542D01*
X130912479Y-56891835D01*
X130882199Y-56917243D01*
X130865488Y-56946187D01*
X130836685Y-56996077D01*
X130832828Y-57002757D01*
X130815681Y-57100000D01*
X130832828Y-57197243D01*
X130834535Y-57200199D01*
X130834535Y-57200200D01*
X130879821Y-57278638D01*
X130882199Y-57282757D01*
X130884808Y-57284946D01*
X130884810Y-57284948D01*
X130940768Y-57331902D01*
X130957840Y-57346227D01*
X130961042Y-57347393D01*
X130961043Y-57347393D01*
X130978536Y-57353760D01*
X131050629Y-57380000D01*
X131149371Y-57380000D01*
X131221464Y-57353760D01*
X131238957Y-57347393D01*
X131238958Y-57347393D01*
X131242160Y-57346227D01*
X131244769Y-57344038D01*
X131244774Y-57344035D01*
X131315194Y-57284946D01*
X131343661Y-57275970D01*
X131367839Y-57287245D01*
X131433957Y-57353363D01*
X131445380Y-57380940D01*
X131444668Y-57388355D01*
X131440488Y-57409919D01*
X131440445Y-57411533D01*
X131440445Y-57411536D01*
X131438640Y-57479815D01*
X131434739Y-57627312D01*
X131434962Y-57628911D01*
X131463198Y-57831365D01*
X131464778Y-57842697D01*
X131465259Y-57844231D01*
X131465259Y-57844233D01*
X131476295Y-57879461D01*
X131520468Y-58020468D01*
X128700000Y-55200000D01*
X128700000Y-55051754D01*
X128874563Y-55079194D01*
G37*
%TD.AperFunction*%
%TA.AperFunction,Conductor*%
G36*
X123655979Y-53579753D02*
G01*
X124096667Y-53601141D01*
X124257020Y-53608923D01*
X124259504Y-53609124D01*
X124507806Y-53637212D01*
X124857453Y-53676765D01*
X124859928Y-53677126D01*
X124987965Y-53700000D01*
X122015722Y-53700000D01*
X122446995Y-53637490D01*
X122449471Y-53637212D01*
X123049322Y-53589246D01*
X123051801Y-53589127D01*
X123320645Y-53584920D01*
X123653478Y-53579712D01*
X123655979Y-53579753D01*
G37*
%TD.AperFunction*%
%TD*%
%TA.AperFunction,Conductor*%
%TO.N,GND*%
G36*
X125109707Y-53721749D02*
G01*
X125452292Y-53782953D01*
X125454721Y-53783467D01*
X126039122Y-53927058D01*
X126041521Y-53927731D01*
X126615481Y-54108478D01*
X126617815Y-54109295D01*
X126881222Y-54211226D01*
X127179034Y-54326471D01*
X127181336Y-54327448D01*
X127424672Y-54440041D01*
X127727462Y-54580145D01*
X127729679Y-54581258D01*
X128125547Y-54796247D01*
X128144328Y-54819445D01*
X128141205Y-54849131D01*
X128118006Y-54867913D01*
X128106899Y-54869518D01*
X128063710Y-54869481D01*
X128041254Y-54869461D01*
X127971132Y-54903134D01*
X127922548Y-54963885D01*
X127921564Y-54968164D01*
X127907857Y-55027773D01*
X127905115Y-55039695D01*
X127909240Y-55057924D01*
X127919459Y-55103083D01*
X127922283Y-55115565D01*
X127925015Y-55119006D01*
X127942075Y-55140492D01*
X127950277Y-55169192D01*
X127935783Y-55195286D01*
X127928417Y-55199898D01*
X127864755Y-55230469D01*
X127816171Y-55291220D01*
X127815187Y-55295499D01*
X127800264Y-55360395D01*
X127798738Y-55367030D01*
X127815906Y-55442900D01*
X127864277Y-55503821D01*
X127868228Y-55505735D01*
X127868229Y-55505736D01*
X127899280Y-55520780D01*
X127934282Y-55537738D01*
X127973079Y-55537839D01*
X128007678Y-55537930D01*
X128007680Y-55537930D01*
X128012071Y-55537941D01*
X128082252Y-55504391D01*
X128130942Y-55443725D01*
X128143753Y-55388457D01*
X128148009Y-55370095D01*
X128148009Y-55370092D01*
X128148507Y-55367945D01*
X128148508Y-55367335D01*
X128131208Y-55291495D01*
X128111565Y-55266845D01*
X128103314Y-55238161D01*
X128117762Y-55212041D01*
X128125246Y-55207356D01*
X128134867Y-55202757D01*
X128188629Y-55177056D01*
X128237319Y-55116390D01*
X128250871Y-55057924D01*
X128254386Y-55042760D01*
X128254386Y-55042757D01*
X128254884Y-55040610D01*
X128254885Y-55040000D01*
X128237585Y-54964160D01*
X128213701Y-54934187D01*
X128205448Y-54905502D01*
X128219896Y-54879383D01*
X128248582Y-54871130D01*
X128262586Y-54875488D01*
X128328632Y-54910791D01*
X128448768Y-54975007D01*
X128658092Y-55045166D01*
X128659705Y-55045420D01*
X128659707Y-55045420D01*
X128666986Y-55046564D01*
X128700000Y-55051754D01*
X128700000Y-55200000D01*
X131520468Y-58020468D01*
X131529789Y-58050222D01*
X131530516Y-58051659D01*
X131530518Y-58051663D01*
X131578557Y-58146564D01*
X131628004Y-58244249D01*
X131628335Y-58244045D01*
X131631070Y-58246374D01*
X131631070Y-58246375D01*
X131631360Y-58246622D01*
X131635700Y-58251973D01*
X131636885Y-58251330D01*
X131638313Y-58253960D01*
X131638462Y-58255378D01*
X131640344Y-58257699D01*
X131918735Y-58770312D01*
X131919853Y-58772539D01*
X132019250Y-58987353D01*
X132172550Y-59318665D01*
X132173527Y-59320967D01*
X132272612Y-59577017D01*
X132390704Y-59882186D01*
X132391521Y-59884519D01*
X132513104Y-60270606D01*
X132572266Y-60458475D01*
X132572940Y-60460878D01*
X132715569Y-61041362D01*
X132716529Y-61045270D01*
X132717045Y-61047708D01*
X132776482Y-61380403D01*
X132822872Y-61640072D01*
X132823233Y-61642547D01*
X132830400Y-61705901D01*
X132877964Y-62126363D01*
X132890874Y-62240491D01*
X132891075Y-62242984D01*
X132920245Y-62844021D01*
X132920286Y-62846522D01*
X132920069Y-62860403D01*
X132912789Y-63325647D01*
X132910871Y-63448189D01*
X132910752Y-63450678D01*
X132867713Y-63988910D01*
X132862786Y-64050525D01*
X132862508Y-64053005D01*
X132779143Y-64628164D01*
X132776190Y-64648536D01*
X132775754Y-64650986D01*
X132653782Y-65228662D01*
X132651437Y-65239770D01*
X132650844Y-65242192D01*
X132594839Y-65442808D01*
X132489042Y-65821788D01*
X132488292Y-65824175D01*
X132418854Y-66022760D01*
X132290043Y-66391143D01*
X132289674Y-66392198D01*
X132288778Y-66394519D01*
X132062127Y-66929816D01*
X132054156Y-66948642D01*
X132053113Y-66950903D01*
X131813045Y-67429815D01*
X131783444Y-67488866D01*
X131782252Y-67491065D01*
X131478660Y-68010623D01*
X131477329Y-68012741D01*
X131473306Y-68018711D01*
X131159784Y-68483980D01*
X131141066Y-68511757D01*
X131139606Y-68513781D01*
X131034057Y-68650595D01*
X130772037Y-68990228D01*
X130770446Y-68992159D01*
X130373093Y-69444064D01*
X130371382Y-69445888D01*
X129945888Y-69871381D01*
X129944064Y-69873092D01*
X129492160Y-70270445D01*
X129490229Y-70272036D01*
X129292022Y-70424949D01*
X129070896Y-70595544D01*
X129013786Y-70639603D01*
X129011758Y-70641066D01*
X128512742Y-70977329D01*
X128510624Y-70978660D01*
X128180128Y-71171777D01*
X128002584Y-71275521D01*
X127991066Y-71282251D01*
X127988869Y-71283442D01*
X127450903Y-71553113D01*
X127448654Y-71554151D01*
X126894520Y-71788777D01*
X126892211Y-71789668D01*
X126613750Y-71887037D01*
X126324176Y-71988291D01*
X126321789Y-71989041D01*
X126167984Y-72031978D01*
X125742193Y-72150844D01*
X125739777Y-72151436D01*
X125150987Y-72275753D01*
X125148550Y-72276187D01*
X124553006Y-72362508D01*
X124550530Y-72362786D01*
X123950679Y-72410752D01*
X123948200Y-72410871D01*
X123679352Y-72415078D01*
X123346522Y-72420286D01*
X123344021Y-72420245D01*
X122903333Y-72398857D01*
X122742980Y-72391075D01*
X122740496Y-72390874D01*
X122358411Y-72347653D01*
X122332294Y-72333203D01*
X122324043Y-72304516D01*
X122324803Y-72300094D01*
X122334879Y-72256624D01*
X122334879Y-72256621D01*
X122335377Y-72254474D01*
X122335378Y-72253864D01*
X122318078Y-72178024D01*
X122269600Y-72117188D01*
X122199536Y-72083393D01*
X122195143Y-72083389D01*
X122195142Y-72083389D01*
X122160829Y-72083359D01*
X122121747Y-72083325D01*
X122051625Y-72116998D01*
X122003041Y-72177749D01*
X121985608Y-72253559D01*
X121984750Y-72253362D01*
X121975122Y-72276493D01*
X121947526Y-72287868D01*
X121940734Y-72287260D01*
X121693036Y-72243008D01*
X121547709Y-72217045D01*
X121545280Y-72216531D01*
X120960879Y-72072940D01*
X120958476Y-72072266D01*
X120525603Y-71935949D01*
X120502731Y-71916771D01*
X120500119Y-71887037D01*
X120513091Y-71868188D01*
X120513219Y-71868086D01*
X120517182Y-71866192D01*
X120519932Y-71862766D01*
X120519933Y-71862765D01*
X120563123Y-71808951D01*
X120565872Y-71805526D01*
X120583437Y-71729746D01*
X120583438Y-71729136D01*
X120574441Y-71689695D01*
X123675115Y-71689695D01*
X123692283Y-71765565D01*
X123695015Y-71769006D01*
X123711425Y-71789673D01*
X123740654Y-71826486D01*
X123744605Y-71828400D01*
X123744606Y-71828401D01*
X123775657Y-71843445D01*
X123810659Y-71860403D01*
X123849456Y-71860504D01*
X123884055Y-71860595D01*
X123884057Y-71860595D01*
X123888448Y-71860606D01*
X123958629Y-71827056D01*
X124007319Y-71766390D01*
X124024884Y-71690610D01*
X124024885Y-71690000D01*
X124007585Y-71614160D01*
X123959107Y-71553324D01*
X123889043Y-71519529D01*
X123884650Y-71519525D01*
X123884649Y-71519525D01*
X123850336Y-71519495D01*
X123811254Y-71519461D01*
X123741132Y-71553134D01*
X123692548Y-71613885D01*
X123691564Y-71618164D01*
X123679058Y-71672550D01*
X123675115Y-71689695D01*
X120574441Y-71689695D01*
X120566138Y-71653296D01*
X120517660Y-71592460D01*
X120447596Y-71558665D01*
X120443203Y-71558661D01*
X120443202Y-71558661D01*
X120408889Y-71558631D01*
X120369807Y-71558597D01*
X120299685Y-71592270D01*
X120251101Y-71653021D01*
X120250117Y-71657300D01*
X120242668Y-71689695D01*
X120233668Y-71728831D01*
X120234638Y-71733116D01*
X120243403Y-71771853D01*
X120238348Y-71801271D01*
X120213972Y-71818498D01*
X120191291Y-71816832D01*
X119974954Y-71733116D01*
X119820967Y-71673527D01*
X119818665Y-71672550D01*
X119272543Y-71419856D01*
X119270323Y-71418741D01*
X118774916Y-71149695D01*
X119400115Y-71149695D01*
X119405798Y-71174810D01*
X119415358Y-71217056D01*
X119417283Y-71225565D01*
X119420015Y-71229006D01*
X119425355Y-71235731D01*
X119465654Y-71286486D01*
X119469605Y-71288400D01*
X119469606Y-71288401D01*
X119500656Y-71303444D01*
X119535659Y-71320403D01*
X119574456Y-71320504D01*
X119609055Y-71320595D01*
X119609057Y-71320595D01*
X119613448Y-71320606D01*
X119683629Y-71287056D01*
X119732319Y-71226390D01*
X119743793Y-71176888D01*
X119749386Y-71152760D01*
X119749386Y-71152757D01*
X119749884Y-71150610D01*
X119749885Y-71150000D01*
X119733848Y-71079695D01*
X121415115Y-71079695D01*
X121432283Y-71155565D01*
X121435015Y-71159006D01*
X121445155Y-71171777D01*
X121480654Y-71216486D01*
X121484605Y-71218400D01*
X121484606Y-71218401D01*
X121492268Y-71222113D01*
X121550659Y-71250403D01*
X121589456Y-71250504D01*
X121624055Y-71250595D01*
X121624057Y-71250595D01*
X121628448Y-71250606D01*
X121698629Y-71217056D01*
X121747319Y-71156390D01*
X121759352Y-71104478D01*
X121760345Y-71100193D01*
X122335115Y-71100193D01*
X122352283Y-71176063D01*
X122355015Y-71179504D01*
X122369740Y-71198049D01*
X122400654Y-71236984D01*
X122404605Y-71238898D01*
X122404606Y-71238899D01*
X122428351Y-71250403D01*
X122470659Y-71270901D01*
X122509456Y-71271002D01*
X122544055Y-71271093D01*
X122544057Y-71271093D01*
X122548448Y-71271104D01*
X122618629Y-71237554D01*
X122667319Y-71176888D01*
X122680576Y-71119695D01*
X123545115Y-71119695D01*
X123555303Y-71164720D01*
X123557587Y-71174810D01*
X123562283Y-71195565D01*
X123610654Y-71256486D01*
X123614605Y-71258400D01*
X123614606Y-71258401D01*
X123643897Y-71272592D01*
X123680659Y-71290403D01*
X123719456Y-71290504D01*
X123754055Y-71290595D01*
X123754057Y-71290595D01*
X123758448Y-71290606D01*
X123828629Y-71257056D01*
X123877319Y-71196390D01*
X123889135Y-71145414D01*
X123894386Y-71122760D01*
X123894386Y-71122757D01*
X123894884Y-71120610D01*
X123894885Y-71120000D01*
X123891418Y-71104802D01*
X124492748Y-71104802D01*
X124503044Y-71150301D01*
X124508590Y-71174810D01*
X124509916Y-71180672D01*
X124558287Y-71241593D01*
X124562238Y-71243507D01*
X124562239Y-71243508D01*
X124589026Y-71256486D01*
X124628292Y-71275510D01*
X124667089Y-71275611D01*
X124701688Y-71275702D01*
X124701690Y-71275702D01*
X124706081Y-71275713D01*
X124776262Y-71242163D01*
X124800146Y-71212404D01*
X124826313Y-71198049D01*
X124854970Y-71206401D01*
X124861102Y-71212566D01*
X124879495Y-71235731D01*
X124883446Y-71237645D01*
X124883447Y-71237646D01*
X124906286Y-71248711D01*
X124949500Y-71269648D01*
X124988297Y-71269749D01*
X125022896Y-71269840D01*
X125022898Y-71269840D01*
X125027289Y-71269851D01*
X125097470Y-71236301D01*
X125146160Y-71175635D01*
X125157653Y-71126050D01*
X125163227Y-71102005D01*
X125163227Y-71102002D01*
X125163725Y-71099855D01*
X125163726Y-71099245D01*
X125146426Y-71023405D01*
X125097948Y-70962569D01*
X125040029Y-70934632D01*
X125031842Y-70930683D01*
X125027884Y-70928774D01*
X125023491Y-70928770D01*
X125023490Y-70928770D01*
X124989177Y-70928740D01*
X124950095Y-70928706D01*
X124879973Y-70962379D01*
X124877230Y-70965809D01*
X124856361Y-70991904D01*
X124830216Y-71006307D01*
X124801545Y-70998004D01*
X124795403Y-70991851D01*
X124779479Y-70971868D01*
X124776740Y-70968431D01*
X124720353Y-70941233D01*
X124710634Y-70936545D01*
X124706676Y-70934636D01*
X124702283Y-70934632D01*
X124702282Y-70934632D01*
X124667969Y-70934602D01*
X124628887Y-70934568D01*
X124558765Y-70968241D01*
X124510181Y-71028992D01*
X124509197Y-71033271D01*
X124493738Y-71100498D01*
X124492748Y-71104802D01*
X123891418Y-71104802D01*
X123877585Y-71044160D01*
X123829107Y-70983324D01*
X123759043Y-70949529D01*
X123754650Y-70949525D01*
X123754649Y-70949525D01*
X123720336Y-70949495D01*
X123681254Y-70949461D01*
X123611132Y-70983134D01*
X123562548Y-71043885D01*
X123561564Y-71048164D01*
X123548540Y-71104802D01*
X123545115Y-71119695D01*
X122680576Y-71119695D01*
X122684884Y-71101108D01*
X122684885Y-71100498D01*
X122667585Y-71024658D01*
X122619107Y-70963822D01*
X122570872Y-70940556D01*
X122553001Y-70931936D01*
X122549043Y-70930027D01*
X122544650Y-70930023D01*
X122544649Y-70930023D01*
X122510336Y-70929993D01*
X122471254Y-70929959D01*
X122401132Y-70963632D01*
X122352548Y-71024383D01*
X122351564Y-71028662D01*
X122339124Y-71082760D01*
X122335115Y-71100193D01*
X121760345Y-71100193D01*
X121764386Y-71082760D01*
X121764386Y-71082757D01*
X121764884Y-71080610D01*
X121764885Y-71080000D01*
X121747585Y-71004160D01*
X121699107Y-70943324D01*
X121629043Y-70909529D01*
X121624650Y-70909525D01*
X121624649Y-70909525D01*
X121590336Y-70909495D01*
X121551254Y-70909461D01*
X121481132Y-70943134D01*
X121432548Y-71003885D01*
X121431564Y-71008164D01*
X121416388Y-71074160D01*
X121415115Y-71079695D01*
X119733848Y-71079695D01*
X119732585Y-71074160D01*
X119684107Y-71013324D01*
X119639589Y-70991851D01*
X119618001Y-70981438D01*
X119614043Y-70979529D01*
X119609650Y-70979525D01*
X119609649Y-70979525D01*
X119575336Y-70979495D01*
X119536254Y-70979461D01*
X119466132Y-71013134D01*
X119417548Y-71073885D01*
X119416564Y-71078164D01*
X119402311Y-71140147D01*
X119400115Y-71149695D01*
X118774916Y-71149695D01*
X118758970Y-71141035D01*
X118757900Y-71140147D01*
X118756581Y-71139737D01*
X118753761Y-71138206D01*
X118750474Y-71135248D01*
X118745721Y-71129394D01*
X118745933Y-71129067D01*
X118627091Y-71065540D01*
X118552676Y-71025761D01*
X118552673Y-71025760D01*
X118551233Y-71024990D01*
X118341908Y-70954827D01*
X118340297Y-70954574D01*
X118340294Y-70954573D01*
X118287078Y-70946207D01*
X118251126Y-70940556D01*
X118229606Y-70929606D01*
X117886491Y-70586491D01*
X117875068Y-70558914D01*
X117886491Y-70531337D01*
X117914170Y-70519914D01*
X117932285Y-70519961D01*
X117984055Y-70520097D01*
X117984057Y-70520097D01*
X117988448Y-70520108D01*
X118058629Y-70486558D01*
X118080125Y-70459775D01*
X118106295Y-70445418D01*
X118134951Y-70453771D01*
X118148577Y-70475578D01*
X118154220Y-70500514D01*
X118156952Y-70503955D01*
X118178406Y-70530975D01*
X118202591Y-70561435D01*
X118206542Y-70563349D01*
X118206543Y-70563350D01*
X118224727Y-70572160D01*
X118272596Y-70595352D01*
X118311393Y-70595453D01*
X118345992Y-70595544D01*
X118345994Y-70595544D01*
X118350385Y-70595555D01*
X118420566Y-70562005D01*
X118469256Y-70501339D01*
X118486821Y-70425559D01*
X118486822Y-70424949D01*
X118469522Y-70349109D01*
X118421044Y-70288273D01*
X118350980Y-70254478D01*
X118346587Y-70254474D01*
X118346586Y-70254474D01*
X118312273Y-70254444D01*
X118273191Y-70254410D01*
X118203069Y-70288083D01*
X118200326Y-70291513D01*
X118181835Y-70314635D01*
X118155691Y-70329038D01*
X118127019Y-70320735D01*
X118113354Y-70298951D01*
X118108562Y-70277945D01*
X118107585Y-70273662D01*
X118059107Y-70212826D01*
X117989043Y-70179031D01*
X117984650Y-70179027D01*
X117984649Y-70179027D01*
X117950336Y-70178997D01*
X117911254Y-70178963D01*
X117841132Y-70212636D01*
X117792548Y-70273387D01*
X117791564Y-70277666D01*
X117779751Y-70329038D01*
X117775115Y-70349197D01*
X117782169Y-70380369D01*
X117777115Y-70409788D01*
X117752739Y-70427015D01*
X117723320Y-70421961D01*
X117716554Y-70416554D01*
X116884164Y-69584164D01*
X116872741Y-69556587D01*
X116884164Y-69529010D01*
X116898651Y-69521030D01*
X116898448Y-69520606D01*
X116941946Y-69499812D01*
X117555615Y-69499812D01*
X117572783Y-69575682D01*
X117621154Y-69636603D01*
X117625105Y-69638517D01*
X117625106Y-69638518D01*
X117656156Y-69653561D01*
X117691159Y-69670520D01*
X117729956Y-69670621D01*
X117764555Y-69670712D01*
X117764557Y-69670712D01*
X117768948Y-69670723D01*
X117839129Y-69637173D01*
X117887819Y-69576507D01*
X117905384Y-69500727D01*
X117905385Y-69500117D01*
X117903008Y-69489695D01*
X118055115Y-69489695D01*
X118072283Y-69565565D01*
X118075015Y-69569006D01*
X118096008Y-69595445D01*
X118120654Y-69626486D01*
X118124605Y-69628400D01*
X118124606Y-69628401D01*
X118146619Y-69639066D01*
X118190659Y-69660403D01*
X118229456Y-69660504D01*
X118264055Y-69660595D01*
X118264057Y-69660595D01*
X118268448Y-69660606D01*
X118338629Y-69627056D01*
X118387319Y-69566390D01*
X118402611Y-69500418D01*
X118404386Y-69492760D01*
X118404386Y-69492757D01*
X118404884Y-69490610D01*
X118404885Y-69490000D01*
X118398520Y-69462095D01*
X127403554Y-69462095D01*
X127410493Y-69492760D01*
X127416694Y-69520162D01*
X127420722Y-69537965D01*
X127469093Y-69598886D01*
X127473044Y-69600800D01*
X127473045Y-69600801D01*
X127481215Y-69604759D01*
X127539098Y-69632803D01*
X127577895Y-69632904D01*
X127612494Y-69632995D01*
X127612496Y-69632995D01*
X127616887Y-69633006D01*
X127687068Y-69599456D01*
X127735758Y-69538790D01*
X127745785Y-69495531D01*
X127752825Y-69465160D01*
X127752825Y-69465157D01*
X127753323Y-69463010D01*
X127753324Y-69462400D01*
X127736024Y-69386560D01*
X127687546Y-69325724D01*
X127617482Y-69291929D01*
X127613089Y-69291925D01*
X127613088Y-69291925D01*
X127578775Y-69291895D01*
X127539693Y-69291861D01*
X127469571Y-69325534D01*
X127420987Y-69386285D01*
X127420003Y-69390564D01*
X127411266Y-69428560D01*
X127403554Y-69462095D01*
X118398520Y-69462095D01*
X118387585Y-69414160D01*
X118339107Y-69353324D01*
X118277929Y-69323815D01*
X118273001Y-69321438D01*
X118269043Y-69319529D01*
X118264650Y-69319525D01*
X118264649Y-69319525D01*
X118230336Y-69319495D01*
X118191254Y-69319461D01*
X118121132Y-69353134D01*
X118072548Y-69413885D01*
X118071564Y-69418164D01*
X118061392Y-69462400D01*
X118055115Y-69489695D01*
X117903008Y-69489695D01*
X117888085Y-69424277D01*
X117839607Y-69363441D01*
X117769543Y-69329646D01*
X117765150Y-69329642D01*
X117765149Y-69329642D01*
X117730836Y-69329612D01*
X117691754Y-69329578D01*
X117621632Y-69363251D01*
X117573048Y-69424002D01*
X117572064Y-69428281D01*
X117557237Y-69492760D01*
X117555615Y-69499812D01*
X116941946Y-69499812D01*
X116968629Y-69487056D01*
X117017319Y-69426390D01*
X117027348Y-69383124D01*
X117034386Y-69352760D01*
X117034386Y-69352757D01*
X117034884Y-69350610D01*
X117034885Y-69350000D01*
X117017585Y-69274160D01*
X116969107Y-69213324D01*
X116899043Y-69179529D01*
X116894650Y-69179525D01*
X116894649Y-69179525D01*
X116860336Y-69179495D01*
X116821254Y-69179461D01*
X116751132Y-69213134D01*
X116702548Y-69273885D01*
X116694276Y-69309856D01*
X116676965Y-69334171D01*
X116647529Y-69339123D01*
X116628692Y-69328692D01*
X115779695Y-68479695D01*
X116825615Y-68479695D01*
X116842783Y-68555565D01*
X116891154Y-68616486D01*
X116895105Y-68618400D01*
X116895106Y-68618401D01*
X116926157Y-68633445D01*
X116961159Y-68650403D01*
X116999956Y-68650504D01*
X117034555Y-68650595D01*
X117034557Y-68650595D01*
X117038948Y-68650606D01*
X117109129Y-68617056D01*
X117157819Y-68556390D01*
X117167923Y-68512797D01*
X117174886Y-68482760D01*
X117174886Y-68482757D01*
X117175384Y-68480610D01*
X117175385Y-68480000D01*
X117158085Y-68404160D01*
X117109607Y-68343324D01*
X117039543Y-68309529D01*
X117035150Y-68309525D01*
X117035149Y-68309525D01*
X117000836Y-68309495D01*
X116961754Y-68309461D01*
X116891632Y-68343134D01*
X116843048Y-68403885D01*
X116842064Y-68408164D01*
X116831441Y-68454361D01*
X116825615Y-68479695D01*
X115779695Y-68479695D01*
X115600000Y-68300000D01*
X115588106Y-68300000D01*
X115560529Y-68288577D01*
X115549442Y-68266107D01*
X115535772Y-68162608D01*
X115535557Y-68160980D01*
X115470918Y-67951439D01*
X115419603Y-67849695D01*
X129925115Y-67849695D01*
X129942283Y-67925565D01*
X129990654Y-67986486D01*
X129994605Y-67988400D01*
X129994606Y-67988401D01*
X130025657Y-68003445D01*
X130060659Y-68020403D01*
X130099456Y-68020504D01*
X130134055Y-68020595D01*
X130134057Y-68020595D01*
X130138448Y-68020606D01*
X130208629Y-67987056D01*
X130257319Y-67926390D01*
X130274884Y-67850610D01*
X130274885Y-67850000D01*
X130257585Y-67774160D01*
X130209107Y-67713324D01*
X130139043Y-67679529D01*
X130134650Y-67679525D01*
X130134649Y-67679525D01*
X130100336Y-67679495D01*
X130061254Y-67679461D01*
X129991132Y-67713134D01*
X129942548Y-67773885D01*
X129941564Y-67778164D01*
X129926626Y-67843125D01*
X129925115Y-67849695D01*
X115419603Y-67849695D01*
X115372169Y-67755647D01*
X115371664Y-67755957D01*
X115363508Y-67749009D01*
X115362866Y-67748213D01*
X115361692Y-67746052D01*
X115361542Y-67744630D01*
X115359655Y-67742303D01*
X115342881Y-67711415D01*
X115213851Y-67473827D01*
X116480404Y-67473827D01*
X116497572Y-67549697D01*
X116545943Y-67610618D01*
X116549894Y-67612532D01*
X116549895Y-67612533D01*
X116580946Y-67627577D01*
X116615948Y-67644535D01*
X116654745Y-67644636D01*
X116689344Y-67644727D01*
X116689346Y-67644727D01*
X116693737Y-67644738D01*
X116763918Y-67611188D01*
X116812608Y-67550522D01*
X116827451Y-67486486D01*
X116829675Y-67476892D01*
X116829675Y-67476889D01*
X116830173Y-67474742D01*
X116830174Y-67474132D01*
X116824638Y-67449864D01*
X116829641Y-67420437D01*
X116853987Y-67403167D01*
X116870269Y-67402939D01*
X116930000Y-67414820D01*
X116933766Y-67414071D01*
X117012267Y-67398457D01*
X117012269Y-67398456D01*
X117016035Y-67397707D01*
X117019229Y-67395573D01*
X117019231Y-67395572D01*
X117085778Y-67351106D01*
X117087890Y-67349695D01*
X129925117Y-67349695D01*
X129929849Y-67370606D01*
X129941125Y-67420437D01*
X129942285Y-67425565D01*
X129990656Y-67486486D01*
X129994607Y-67488400D01*
X129994608Y-67488401D01*
X130000107Y-67491065D01*
X130060661Y-67520403D01*
X130099458Y-67520504D01*
X130134057Y-67520595D01*
X130134059Y-67520595D01*
X130138450Y-67520606D01*
X130208631Y-67487056D01*
X130257321Y-67426390D01*
X130270298Y-67370403D01*
X130274388Y-67352760D01*
X130274388Y-67352757D01*
X130274886Y-67350610D01*
X130274887Y-67350000D01*
X130257587Y-67274160D01*
X130209109Y-67213324D01*
X130156910Y-67188146D01*
X130143003Y-67181438D01*
X130139045Y-67179529D01*
X130134652Y-67179525D01*
X130134651Y-67179525D01*
X130100338Y-67179495D01*
X130061256Y-67179461D01*
X129991134Y-67213134D01*
X129942550Y-67273885D01*
X129941566Y-67278164D01*
X129928811Y-67333632D01*
X129925117Y-67349695D01*
X117087890Y-67349695D01*
X117088972Y-67348972D01*
X117119291Y-67303597D01*
X117135572Y-67279231D01*
X117135573Y-67279229D01*
X117137707Y-67276035D01*
X117138456Y-67272269D01*
X117138457Y-67272267D01*
X117154071Y-67193766D01*
X117154820Y-67190000D01*
X117152737Y-67179529D01*
X117138457Y-67107733D01*
X117138456Y-67107731D01*
X117137707Y-67103965D01*
X117135573Y-67100771D01*
X117135572Y-67100769D01*
X117091106Y-67034222D01*
X117088972Y-67031028D01*
X117069302Y-67017885D01*
X117019231Y-66984428D01*
X117019229Y-66984427D01*
X117016035Y-66982293D01*
X117012269Y-66981544D01*
X117012267Y-66981543D01*
X116933766Y-66965929D01*
X116930000Y-66965180D01*
X116926234Y-66965929D01*
X116847733Y-66981543D01*
X116847731Y-66981544D01*
X116843965Y-66982293D01*
X116840771Y-66984427D01*
X116840769Y-66984428D01*
X116790698Y-67017885D01*
X116771028Y-67031028D01*
X116768894Y-67034222D01*
X116724428Y-67100769D01*
X116724427Y-67100771D01*
X116722293Y-67103965D01*
X116721544Y-67107731D01*
X116721543Y-67107733D01*
X116707263Y-67179529D01*
X116705180Y-67190000D01*
X116705929Y-67193766D01*
X116718515Y-67257041D01*
X116712691Y-67286316D01*
X116687872Y-67302900D01*
X116680233Y-67303649D01*
X116616543Y-67303593D01*
X116546421Y-67337266D01*
X116497837Y-67398017D01*
X116480404Y-67473827D01*
X115213851Y-67473827D01*
X115081258Y-67229679D01*
X115080140Y-67227453D01*
X115073603Y-67213324D01*
X115067297Y-67199695D01*
X115460115Y-67199695D01*
X115464743Y-67220148D01*
X115476188Y-67270724D01*
X115477283Y-67275565D01*
X115525654Y-67336486D01*
X115529605Y-67338400D01*
X115529606Y-67338401D01*
X115551425Y-67348972D01*
X115595659Y-67370403D01*
X115634456Y-67370504D01*
X115669055Y-67370595D01*
X115669057Y-67370595D01*
X115673448Y-67370606D01*
X115743629Y-67337056D01*
X115792319Y-67276390D01*
X115801529Y-67236654D01*
X115809386Y-67202760D01*
X115809386Y-67202757D01*
X115809884Y-67200610D01*
X115809885Y-67200000D01*
X115792585Y-67124160D01*
X115744107Y-67063324D01*
X115715323Y-67049440D01*
X115926422Y-67049440D01*
X115943590Y-67125310D01*
X115991961Y-67186231D01*
X115995912Y-67188145D01*
X115995913Y-67188146D01*
X116021639Y-67200610D01*
X116061966Y-67220148D01*
X116100763Y-67220249D01*
X116135362Y-67220340D01*
X116135364Y-67220340D01*
X116139755Y-67220351D01*
X116209936Y-67186801D01*
X116258626Y-67126135D01*
X116273229Y-67063134D01*
X116275693Y-67052505D01*
X116275693Y-67052502D01*
X116276191Y-67050355D01*
X116276192Y-67049745D01*
X116258892Y-66973905D01*
X116210414Y-66913069D01*
X116140350Y-66879274D01*
X116135957Y-66879270D01*
X116135956Y-66879270D01*
X116101643Y-66879240D01*
X116062561Y-66879206D01*
X115992439Y-66912879D01*
X115943855Y-66973630D01*
X115942871Y-66977909D01*
X115930562Y-67031438D01*
X115926422Y-67049440D01*
X115715323Y-67049440D01*
X115674043Y-67029529D01*
X115669650Y-67029525D01*
X115669649Y-67029525D01*
X115635336Y-67029495D01*
X115596254Y-67029461D01*
X115526132Y-67063134D01*
X115477548Y-67123885D01*
X115476564Y-67128164D01*
X115462645Y-67188694D01*
X115460115Y-67199695D01*
X115067297Y-67199695D01*
X114936263Y-66916506D01*
X114905349Y-66849696D01*
X129925117Y-66849696D01*
X129942285Y-66925566D01*
X129990656Y-66986487D01*
X129994607Y-66988401D01*
X129994608Y-66988402D01*
X130025658Y-67003445D01*
X130060661Y-67020404D01*
X130099458Y-67020505D01*
X130134057Y-67020596D01*
X130134059Y-67020596D01*
X130138450Y-67020607D01*
X130208631Y-66987057D01*
X130257321Y-66926391D01*
X130274886Y-66850611D01*
X130274887Y-66850001D01*
X130257587Y-66774161D01*
X130209109Y-66713325D01*
X130139045Y-66679530D01*
X130134652Y-66679526D01*
X130134651Y-66679526D01*
X130100338Y-66679496D01*
X130061256Y-66679462D01*
X129991134Y-66713135D01*
X129942550Y-66773886D01*
X129925117Y-66849696D01*
X114905349Y-66849696D01*
X114827448Y-66681336D01*
X114826471Y-66679034D01*
X114718831Y-66400874D01*
X117103314Y-66400874D01*
X117120482Y-66476744D01*
X117168853Y-66537665D01*
X117172804Y-66539579D01*
X117172805Y-66539580D01*
X117203855Y-66554623D01*
X117238858Y-66571582D01*
X117277655Y-66571683D01*
X117312254Y-66571774D01*
X117312256Y-66571774D01*
X117316647Y-66571785D01*
X117386828Y-66538235D01*
X117435518Y-66477569D01*
X117448786Y-66420329D01*
X117466140Y-66396044D01*
X117495584Y-66391143D01*
X117517321Y-66404885D01*
X117541154Y-66434901D01*
X117545105Y-66436815D01*
X117545106Y-66436816D01*
X117576157Y-66451860D01*
X117611159Y-66468818D01*
X117649956Y-66468919D01*
X117684555Y-66469010D01*
X117684557Y-66469010D01*
X117688948Y-66469021D01*
X117759129Y-66435471D01*
X117807819Y-66374805D01*
X117813639Y-66349695D01*
X129925115Y-66349695D01*
X129942283Y-66425565D01*
X129945015Y-66429006D01*
X129947430Y-66432047D01*
X129990654Y-66486486D01*
X129994605Y-66488400D01*
X129994606Y-66488401D01*
X130025656Y-66503444D01*
X130060659Y-66520403D01*
X130099456Y-66520504D01*
X130134055Y-66520595D01*
X130134057Y-66520595D01*
X130138448Y-66520606D01*
X130208629Y-66487056D01*
X130257319Y-66426390D01*
X130274884Y-66350610D01*
X130274885Y-66350000D01*
X130257585Y-66274160D01*
X130209107Y-66213324D01*
X130139043Y-66179529D01*
X130134650Y-66179525D01*
X130134649Y-66179525D01*
X130100336Y-66179495D01*
X130061254Y-66179461D01*
X129991132Y-66213134D01*
X129942548Y-66273885D01*
X129941564Y-66278164D01*
X129934588Y-66308502D01*
X129925115Y-66349695D01*
X117813639Y-66349695D01*
X117819285Y-66325339D01*
X117824886Y-66301175D01*
X117824886Y-66301172D01*
X117825384Y-66299025D01*
X117825385Y-66298415D01*
X117808085Y-66222575D01*
X117759607Y-66161739D01*
X117689543Y-66127944D01*
X117685150Y-66127940D01*
X117685149Y-66127940D01*
X117650836Y-66127910D01*
X117611754Y-66127876D01*
X117541632Y-66161549D01*
X117493048Y-66222300D01*
X117492064Y-66226577D01*
X117492064Y-66226578D01*
X117486993Y-66248631D01*
X117481123Y-66274160D01*
X117479956Y-66279234D01*
X117462644Y-66303550D01*
X117433208Y-66308502D01*
X117411448Y-66294799D01*
X117390045Y-66267940D01*
X117387306Y-66264503D01*
X117317242Y-66230708D01*
X117312849Y-66230704D01*
X117312848Y-66230704D01*
X117278535Y-66230674D01*
X117239453Y-66230640D01*
X117169331Y-66264313D01*
X117120747Y-66325064D01*
X117119763Y-66329343D01*
X117104425Y-66396044D01*
X117103314Y-66400874D01*
X114718831Y-66400874D01*
X114708743Y-66374805D01*
X114609295Y-66117815D01*
X114608473Y-66115468D01*
X114602466Y-66096390D01*
X114578314Y-66019695D01*
X118470615Y-66019695D01*
X118487783Y-66095565D01*
X118490515Y-66099006D01*
X118511969Y-66126026D01*
X118536154Y-66156486D01*
X118540105Y-66158400D01*
X118540106Y-66158401D01*
X118554090Y-66165176D01*
X118606159Y-66190403D01*
X118644956Y-66190504D01*
X118679555Y-66190595D01*
X118679557Y-66190595D01*
X118683948Y-66190606D01*
X118754129Y-66157056D01*
X118802819Y-66096390D01*
X118820384Y-66020610D01*
X118820385Y-66020000D01*
X118803085Y-65944160D01*
X118754607Y-65883324D01*
X118684543Y-65849529D01*
X118680150Y-65849525D01*
X118680149Y-65849525D01*
X118645836Y-65849495D01*
X118606754Y-65849461D01*
X118536632Y-65883134D01*
X118488048Y-65943885D01*
X118487064Y-65948164D01*
X118474305Y-66003650D01*
X118470615Y-66019695D01*
X114578314Y-66019695D01*
X114509033Y-65799695D01*
X118955115Y-65799695D01*
X118972283Y-65875565D01*
X118975015Y-65879006D01*
X118996469Y-65906026D01*
X119020654Y-65936486D01*
X119024605Y-65938400D01*
X119024606Y-65938401D01*
X119036493Y-65944160D01*
X119090659Y-65970403D01*
X119129456Y-65970504D01*
X119164055Y-65970595D01*
X119164057Y-65970595D01*
X119168448Y-65970606D01*
X119238629Y-65937056D01*
X119287319Y-65876390D01*
X119304884Y-65800610D01*
X119304885Y-65800000D01*
X119287585Y-65724160D01*
X119239107Y-65663324D01*
X119169043Y-65629529D01*
X119164650Y-65629525D01*
X119164649Y-65629525D01*
X119130336Y-65629495D01*
X119091254Y-65629461D01*
X119021132Y-65663134D01*
X118972548Y-65723885D01*
X118955115Y-65799695D01*
X114509033Y-65799695D01*
X114427731Y-65541521D01*
X114427057Y-65539117D01*
X114422326Y-65519863D01*
X114402640Y-65439743D01*
X115739431Y-65439743D01*
X115756599Y-65515613D01*
X115804970Y-65576534D01*
X115808921Y-65578448D01*
X115808922Y-65578449D01*
X115839973Y-65593493D01*
X115874975Y-65610451D01*
X115913772Y-65610552D01*
X115948371Y-65610643D01*
X115948373Y-65610643D01*
X115952764Y-65610654D01*
X116022945Y-65577104D01*
X116071635Y-65516438D01*
X116082143Y-65471104D01*
X116088702Y-65442808D01*
X116088702Y-65442805D01*
X116089200Y-65440658D01*
X116089201Y-65440048D01*
X116071901Y-65364208D01*
X116040361Y-65324628D01*
X116486490Y-65324628D01*
X116493677Y-65356390D01*
X116502386Y-65394875D01*
X116503658Y-65400498D01*
X116552029Y-65461419D01*
X116555980Y-65463333D01*
X116555981Y-65463334D01*
X116576677Y-65473361D01*
X116622034Y-65495336D01*
X116660831Y-65495437D01*
X116695430Y-65495528D01*
X116695432Y-65495528D01*
X116699823Y-65495539D01*
X116770004Y-65461989D01*
X116818694Y-65401323D01*
X116831626Y-65345530D01*
X116835761Y-65327693D01*
X116835761Y-65327690D01*
X116836259Y-65325543D01*
X116836260Y-65324933D01*
X116818960Y-65249093D01*
X116770482Y-65188257D01*
X116724884Y-65166263D01*
X116704376Y-65156371D01*
X116700418Y-65154462D01*
X116696025Y-65154458D01*
X116696024Y-65154458D01*
X116661711Y-65154428D01*
X116622629Y-65154394D01*
X116552507Y-65188067D01*
X116503923Y-65248818D01*
X116502939Y-65253097D01*
X116489043Y-65313528D01*
X116486490Y-65324628D01*
X116040361Y-65324628D01*
X116023423Y-65303372D01*
X115953359Y-65269577D01*
X115948966Y-65269573D01*
X115948965Y-65269573D01*
X115914652Y-65269543D01*
X115875570Y-65269509D01*
X115805448Y-65303182D01*
X115756864Y-65363933D01*
X115755880Y-65368212D01*
X115740722Y-65434130D01*
X115739431Y-65439743D01*
X114402640Y-65439743D01*
X114325743Y-65126781D01*
X117143446Y-65126781D01*
X117160614Y-65202651D01*
X117208985Y-65263572D01*
X117212936Y-65265486D01*
X117212937Y-65265487D01*
X117233427Y-65275414D01*
X117278990Y-65297489D01*
X117289881Y-65297517D01*
X117317428Y-65309011D01*
X117328780Y-65336617D01*
X117320238Y-65360875D01*
X117301627Y-65384147D01*
X117293048Y-65394875D01*
X117292064Y-65399154D01*
X117277224Y-65463690D01*
X117275615Y-65470685D01*
X117292783Y-65546555D01*
X117341154Y-65607476D01*
X117345105Y-65609390D01*
X117345106Y-65609391D01*
X117347713Y-65610654D01*
X117411159Y-65641393D01*
X117449956Y-65641494D01*
X117484555Y-65641585D01*
X117484557Y-65641585D01*
X117488948Y-65641596D01*
X117559129Y-65608046D01*
X117607819Y-65547380D01*
X117619882Y-65495336D01*
X117624886Y-65473750D01*
X117624886Y-65473747D01*
X117625384Y-65471600D01*
X117625385Y-65470990D01*
X117623650Y-65463385D01*
X118506608Y-65463385D01*
X118523776Y-65539255D01*
X118572147Y-65600176D01*
X118576098Y-65602090D01*
X118576099Y-65602091D01*
X118607150Y-65617135D01*
X118642152Y-65634093D01*
X118680949Y-65634194D01*
X118715548Y-65634285D01*
X118715550Y-65634285D01*
X118719941Y-65634296D01*
X118790122Y-65600746D01*
X118838812Y-65540080D01*
X118854800Y-65471104D01*
X118855879Y-65466450D01*
X118855879Y-65466447D01*
X118856377Y-65464300D01*
X118856378Y-65463690D01*
X118839078Y-65387850D01*
X118790600Y-65327014D01*
X118748711Y-65306809D01*
X118724494Y-65295128D01*
X118720536Y-65293219D01*
X118716143Y-65293215D01*
X118716142Y-65293215D01*
X118681829Y-65293185D01*
X118642747Y-65293151D01*
X118572625Y-65326824D01*
X118524041Y-65387575D01*
X118523057Y-65391854D01*
X118509547Y-65450606D01*
X118506608Y-65463385D01*
X117623650Y-65463385D01*
X117608085Y-65395150D01*
X117559607Y-65334314D01*
X117516513Y-65313528D01*
X117493501Y-65302428D01*
X117489543Y-65300519D01*
X117485151Y-65300515D01*
X117485150Y-65300515D01*
X117482238Y-65300513D01*
X117479047Y-65300510D01*
X117451479Y-65289064D01*
X117440080Y-65261477D01*
X117448664Y-65237099D01*
X117455212Y-65228941D01*
X117475650Y-65203476D01*
X117481848Y-65176737D01*
X119634882Y-65176737D01*
X119644888Y-65220955D01*
X119649422Y-65240991D01*
X119652050Y-65252607D01*
X119700421Y-65313528D01*
X119704372Y-65315442D01*
X119704373Y-65315443D01*
X119723940Y-65324923D01*
X119770426Y-65347445D01*
X119809223Y-65347546D01*
X119843822Y-65347637D01*
X119843824Y-65347637D01*
X119848215Y-65347648D01*
X119918396Y-65314098D01*
X119946008Y-65279695D01*
X122595115Y-65279695D01*
X122605420Y-65325234D01*
X122610492Y-65347648D01*
X122612283Y-65355565D01*
X122615015Y-65359006D01*
X122628558Y-65376063D01*
X122660654Y-65416486D01*
X122664605Y-65418400D01*
X122664606Y-65418401D01*
X122693804Y-65432547D01*
X122730659Y-65450403D01*
X122769456Y-65450504D01*
X122804055Y-65450595D01*
X122804057Y-65450595D01*
X122808448Y-65450606D01*
X122878629Y-65417056D01*
X122927319Y-65356390D01*
X122937767Y-65311316D01*
X122940576Y-65299197D01*
X123185115Y-65299197D01*
X123193839Y-65337751D01*
X123199764Y-65363933D01*
X123202283Y-65375067D01*
X123205015Y-65378508D01*
X123205657Y-65379317D01*
X123250654Y-65435988D01*
X123254605Y-65437902D01*
X123254606Y-65437903D01*
X123276454Y-65448488D01*
X123320659Y-65469905D01*
X123359456Y-65470006D01*
X123394055Y-65470097D01*
X123394057Y-65470097D01*
X123398448Y-65470108D01*
X123468629Y-65436558D01*
X123517319Y-65375892D01*
X123528648Y-65327014D01*
X123534386Y-65302262D01*
X123534386Y-65302259D01*
X123534884Y-65300112D01*
X123534885Y-65299695D01*
X124625115Y-65299695D01*
X124642283Y-65375565D01*
X124645015Y-65379006D01*
X124645657Y-65379815D01*
X124690654Y-65436486D01*
X124694605Y-65438400D01*
X124694606Y-65438401D01*
X124719775Y-65450595D01*
X124760659Y-65470403D01*
X124799456Y-65470504D01*
X124834055Y-65470595D01*
X124834057Y-65470595D01*
X124838448Y-65470606D01*
X124908629Y-65437056D01*
X124957319Y-65376390D01*
X124968324Y-65328913D01*
X124974386Y-65302760D01*
X124974386Y-65302757D01*
X124974884Y-65300610D01*
X124974885Y-65300193D01*
X125125115Y-65300193D01*
X125130851Y-65325543D01*
X125140570Y-65368491D01*
X125142283Y-65376063D01*
X125145015Y-65379504D01*
X125157220Y-65394875D01*
X125190654Y-65436984D01*
X125194605Y-65438898D01*
X125194606Y-65438899D01*
X125218351Y-65450403D01*
X125260659Y-65470901D01*
X125299456Y-65471002D01*
X125334055Y-65471093D01*
X125334057Y-65471093D01*
X125338448Y-65471104D01*
X125408629Y-65437554D01*
X125457319Y-65376888D01*
X125471434Y-65315991D01*
X125474386Y-65303258D01*
X125474386Y-65303255D01*
X125474884Y-65301108D01*
X125474885Y-65300498D01*
X125457585Y-65224658D01*
X125409107Y-65163822D01*
X125339043Y-65130027D01*
X125334650Y-65130023D01*
X125334649Y-65130023D01*
X125300336Y-65129993D01*
X125261254Y-65129959D01*
X125191132Y-65163632D01*
X125142548Y-65224383D01*
X125141564Y-65228662D01*
X125126280Y-65295128D01*
X125125115Y-65300193D01*
X124974885Y-65300193D01*
X124974885Y-65300000D01*
X124957585Y-65224160D01*
X124909107Y-65163324D01*
X124839043Y-65129529D01*
X124834650Y-65129525D01*
X124834649Y-65129525D01*
X124800336Y-65129495D01*
X124761254Y-65129461D01*
X124691132Y-65163134D01*
X124642548Y-65223885D01*
X124641564Y-65228164D01*
X124626183Y-65295052D01*
X124625115Y-65299695D01*
X123534885Y-65299695D01*
X123534885Y-65299502D01*
X123517585Y-65223662D01*
X123469107Y-65162826D01*
X123399043Y-65129031D01*
X123394650Y-65129027D01*
X123394649Y-65129027D01*
X123360336Y-65128997D01*
X123321254Y-65128963D01*
X123251132Y-65162636D01*
X123202548Y-65223387D01*
X123201564Y-65227666D01*
X123186490Y-65293219D01*
X123185115Y-65299197D01*
X122940576Y-65299197D01*
X122944386Y-65282760D01*
X122944386Y-65282757D01*
X122944884Y-65280610D01*
X122944885Y-65280000D01*
X122927585Y-65204160D01*
X122879107Y-65143324D01*
X122809043Y-65109529D01*
X122804650Y-65109525D01*
X122804649Y-65109525D01*
X122770336Y-65109495D01*
X122731254Y-65109461D01*
X122661132Y-65143134D01*
X122612548Y-65203885D01*
X122611564Y-65208164D01*
X122597003Y-65271486D01*
X122595115Y-65279695D01*
X119946008Y-65279695D01*
X119967086Y-65253432D01*
X119978507Y-65204160D01*
X119984153Y-65179802D01*
X119984153Y-65179799D01*
X119984651Y-65177652D01*
X119984652Y-65177042D01*
X119967352Y-65101202D01*
X119918874Y-65040366D01*
X119848810Y-65006571D01*
X119844417Y-65006567D01*
X119844416Y-65006567D01*
X119810103Y-65006537D01*
X119771021Y-65006503D01*
X119700899Y-65040176D01*
X119652315Y-65100927D01*
X119651331Y-65105206D01*
X119637062Y-65167259D01*
X119634882Y-65176737D01*
X117481848Y-65176737D01*
X117485399Y-65161415D01*
X117492717Y-65129846D01*
X117492717Y-65129843D01*
X117493215Y-65127696D01*
X117493216Y-65127086D01*
X117475916Y-65051246D01*
X117427438Y-64990410D01*
X117357374Y-64956615D01*
X117352981Y-64956611D01*
X117352980Y-64956611D01*
X117318667Y-64956581D01*
X117279585Y-64956547D01*
X117209463Y-64990220D01*
X117160879Y-65050971D01*
X117159895Y-65055250D01*
X117146992Y-65111362D01*
X117143446Y-65126781D01*
X114325743Y-65126781D01*
X114283467Y-64954721D01*
X114282951Y-64952283D01*
X114268360Y-64870606D01*
X114237826Y-64699695D01*
X118515115Y-64699695D01*
X118532283Y-64775565D01*
X118580654Y-64836486D01*
X118584605Y-64838400D01*
X118584606Y-64838401D01*
X118615657Y-64853445D01*
X118650659Y-64870403D01*
X118689456Y-64870504D01*
X118724055Y-64870595D01*
X118724057Y-64870595D01*
X118728448Y-64870606D01*
X118798629Y-64837056D01*
X118847319Y-64776390D01*
X118860202Y-64720808D01*
X118864386Y-64702760D01*
X118864386Y-64702757D01*
X118864884Y-64700610D01*
X118864885Y-64700000D01*
X118864815Y-64699695D01*
X119195115Y-64699695D01*
X119212283Y-64775565D01*
X119260654Y-64836486D01*
X119264605Y-64838400D01*
X119264606Y-64838401D01*
X119295657Y-64853445D01*
X119330659Y-64870403D01*
X119369456Y-64870504D01*
X119404055Y-64870595D01*
X119404057Y-64870595D01*
X119408448Y-64870606D01*
X119478629Y-64837056D01*
X119527319Y-64776390D01*
X119540202Y-64720808D01*
X119544386Y-64702760D01*
X119544386Y-64702757D01*
X119544884Y-64700610D01*
X119544885Y-64700000D01*
X119527585Y-64624160D01*
X119495142Y-64583447D01*
X122807717Y-64583447D01*
X122824885Y-64659317D01*
X122873256Y-64720238D01*
X122877207Y-64722152D01*
X122877208Y-64722153D01*
X122908258Y-64737196D01*
X122943261Y-64754155D01*
X122982058Y-64754256D01*
X123016657Y-64754347D01*
X123016659Y-64754347D01*
X123021050Y-64754358D01*
X123091231Y-64720808D01*
X123139921Y-64660142D01*
X123157486Y-64584362D01*
X123157487Y-64583752D01*
X123140187Y-64507912D01*
X123091709Y-64447076D01*
X123021645Y-64413281D01*
X123017252Y-64413277D01*
X123017251Y-64413277D01*
X122982938Y-64413247D01*
X122943856Y-64413213D01*
X122873734Y-64446886D01*
X122825150Y-64507637D01*
X122824166Y-64511916D01*
X122820131Y-64529465D01*
X122807717Y-64583447D01*
X119495142Y-64583447D01*
X119479107Y-64563324D01*
X119409043Y-64529529D01*
X119404650Y-64529525D01*
X119404649Y-64529525D01*
X119370336Y-64529495D01*
X119331254Y-64529461D01*
X119261132Y-64563134D01*
X119212548Y-64623885D01*
X119211564Y-64628164D01*
X119200658Y-64675592D01*
X119195115Y-64699695D01*
X118864815Y-64699695D01*
X118847585Y-64624160D01*
X118799107Y-64563324D01*
X118729043Y-64529529D01*
X118724650Y-64529525D01*
X118724649Y-64529525D01*
X118690336Y-64529495D01*
X118651254Y-64529461D01*
X118581132Y-64563134D01*
X118532548Y-64623885D01*
X118531564Y-64628164D01*
X118520658Y-64675592D01*
X118515115Y-64699695D01*
X114237826Y-64699695D01*
X114225047Y-64628164D01*
X114200082Y-64488423D01*
X114200088Y-64280000D01*
X116385180Y-64280000D01*
X116385929Y-64283766D01*
X116401543Y-64362267D01*
X116401544Y-64362269D01*
X116402293Y-64366035D01*
X116404427Y-64369229D01*
X116404428Y-64369231D01*
X116433816Y-64413213D01*
X116451028Y-64438972D01*
X116468300Y-64450513D01*
X116520769Y-64485572D01*
X116520771Y-64485573D01*
X116523965Y-64487707D01*
X116527731Y-64488456D01*
X116527733Y-64488457D01*
X116606234Y-64504071D01*
X116610000Y-64504820D01*
X116613766Y-64504071D01*
X116692267Y-64488457D01*
X116692269Y-64488456D01*
X116696035Y-64487707D01*
X116699229Y-64485573D01*
X116699231Y-64485572D01*
X116751700Y-64450513D01*
X116768972Y-64438972D01*
X116786184Y-64413213D01*
X116815572Y-64369231D01*
X116815573Y-64369229D01*
X116817707Y-64366035D01*
X116818456Y-64362269D01*
X116818457Y-64362267D01*
X116834071Y-64283766D01*
X116834820Y-64280000D01*
X116834071Y-64276234D01*
X116833198Y-64271846D01*
X128025101Y-64271846D01*
X128042269Y-64347716D01*
X128090640Y-64408637D01*
X128094591Y-64410551D01*
X128094592Y-64410552D01*
X128104165Y-64415190D01*
X128160645Y-64442554D01*
X128199442Y-64442655D01*
X128234041Y-64442746D01*
X128234043Y-64442746D01*
X128238434Y-64442757D01*
X128308615Y-64409207D01*
X128357305Y-64348541D01*
X128374870Y-64272761D01*
X128374871Y-64272151D01*
X128357571Y-64196311D01*
X128309093Y-64135475D01*
X128239029Y-64101680D01*
X128234636Y-64101676D01*
X128234635Y-64101676D01*
X128200322Y-64101646D01*
X128161240Y-64101612D01*
X128091118Y-64135285D01*
X128042534Y-64196036D01*
X128025101Y-64271846D01*
X116833198Y-64271846D01*
X116818457Y-64197733D01*
X116818456Y-64197731D01*
X116817707Y-64193965D01*
X116815573Y-64190771D01*
X116815572Y-64190769D01*
X116771106Y-64124222D01*
X116768972Y-64121028D01*
X116739914Y-64101612D01*
X116699231Y-64074428D01*
X116699229Y-64074427D01*
X116696035Y-64072293D01*
X116692269Y-64071544D01*
X116692267Y-64071543D01*
X116613766Y-64055929D01*
X116610000Y-64055180D01*
X116606234Y-64055929D01*
X116527733Y-64071543D01*
X116527731Y-64071544D01*
X116523965Y-64072293D01*
X116520771Y-64074427D01*
X116520769Y-64074428D01*
X116480086Y-64101612D01*
X116451028Y-64121028D01*
X116448894Y-64124222D01*
X116404428Y-64190769D01*
X116404427Y-64190771D01*
X116402293Y-64193965D01*
X116401544Y-64197731D01*
X116401543Y-64197733D01*
X116385929Y-64276234D01*
X116385180Y-64280000D01*
X114200088Y-64280000D01*
X114200136Y-62689695D01*
X118911998Y-62689695D01*
X118929166Y-62765565D01*
X118977537Y-62826486D01*
X118981488Y-62828400D01*
X118981489Y-62828401D01*
X119012540Y-62843445D01*
X119047542Y-62860403D01*
X119086339Y-62860504D01*
X119120938Y-62860595D01*
X119120940Y-62860595D01*
X119125331Y-62860606D01*
X119195512Y-62827056D01*
X119244202Y-62766390D01*
X119261767Y-62690610D01*
X119261768Y-62690000D01*
X119244468Y-62614160D01*
X119195990Y-62553324D01*
X119125926Y-62519529D01*
X119121533Y-62519525D01*
X119121532Y-62519525D01*
X119087219Y-62519495D01*
X119048137Y-62519461D01*
X118978015Y-62553134D01*
X118929431Y-62613885D01*
X118911998Y-62689695D01*
X114200136Y-62689695D01*
X114200144Y-62429695D01*
X121055115Y-62429695D01*
X121072283Y-62505565D01*
X121075015Y-62509006D01*
X121083367Y-62519525D01*
X121120654Y-62566486D01*
X121124605Y-62568400D01*
X121124606Y-62568401D01*
X121155657Y-62583445D01*
X121190659Y-62600403D01*
X121229456Y-62600504D01*
X121264055Y-62600595D01*
X121264057Y-62600595D01*
X121268448Y-62600606D01*
X121338629Y-62567056D01*
X121387319Y-62506390D01*
X121404884Y-62430610D01*
X121404885Y-62430000D01*
X121387585Y-62354160D01*
X121339107Y-62293324D01*
X121269043Y-62259529D01*
X121264650Y-62259525D01*
X121264649Y-62259525D01*
X121230336Y-62259495D01*
X121191254Y-62259461D01*
X121121132Y-62293134D01*
X121072548Y-62353885D01*
X121055115Y-62429695D01*
X114200144Y-62429695D01*
X114200159Y-61949695D01*
X118785115Y-61949695D01*
X118802283Y-62025565D01*
X118850654Y-62086486D01*
X118854605Y-62088400D01*
X118854606Y-62088401D01*
X118869261Y-62095501D01*
X118920659Y-62120403D01*
X118959456Y-62120504D01*
X118994055Y-62120595D01*
X118994057Y-62120595D01*
X118998448Y-62120606D01*
X119068629Y-62087056D01*
X119117319Y-62026390D01*
X119134884Y-61950610D01*
X119134885Y-61950000D01*
X119117585Y-61874160D01*
X119069107Y-61813324D01*
X118999043Y-61779529D01*
X118994650Y-61779525D01*
X118994649Y-61779525D01*
X118960336Y-61779495D01*
X118921254Y-61779461D01*
X118851132Y-61813134D01*
X118802548Y-61873885D01*
X118785115Y-61949695D01*
X114200159Y-61949695D01*
X114200172Y-61514537D01*
X114203080Y-61494477D01*
X114204913Y-61481830D01*
X115474680Y-61481830D01*
X115475429Y-61485596D01*
X115491043Y-61564097D01*
X115491044Y-61564099D01*
X115491793Y-61567865D01*
X115493927Y-61571059D01*
X115493928Y-61571061D01*
X115527385Y-61621132D01*
X115540528Y-61640802D01*
X115543722Y-61642936D01*
X115610269Y-61687402D01*
X115610271Y-61687403D01*
X115613465Y-61689537D01*
X115617231Y-61690286D01*
X115617233Y-61690287D01*
X115695734Y-61705901D01*
X115699500Y-61706650D01*
X115703266Y-61705901D01*
X115781767Y-61690287D01*
X115781769Y-61690286D01*
X115785535Y-61689537D01*
X115788729Y-61687403D01*
X115788731Y-61687402D01*
X115855278Y-61642936D01*
X115858472Y-61640802D01*
X115871615Y-61621132D01*
X115905072Y-61571061D01*
X115905073Y-61571059D01*
X115907207Y-61567865D01*
X115907956Y-61564099D01*
X115907957Y-61564097D01*
X115923571Y-61485596D01*
X115924320Y-61481830D01*
X115923571Y-61478064D01*
X115907957Y-61399563D01*
X115907956Y-61399561D01*
X115907207Y-61395795D01*
X115905073Y-61392601D01*
X115905072Y-61392599D01*
X115880464Y-61355771D01*
X119494039Y-61355771D01*
X119511207Y-61431641D01*
X119559578Y-61492562D01*
X119563529Y-61494476D01*
X119563530Y-61494477D01*
X119594581Y-61509521D01*
X119629583Y-61526479D01*
X119668380Y-61526580D01*
X119702979Y-61526671D01*
X119702981Y-61526671D01*
X119707372Y-61526682D01*
X119777553Y-61493132D01*
X119826243Y-61432466D01*
X119843808Y-61356686D01*
X119843809Y-61356076D01*
X119826509Y-61280236D01*
X119778031Y-61219400D01*
X119707967Y-61185605D01*
X119703574Y-61185601D01*
X119703573Y-61185601D01*
X119669260Y-61185571D01*
X119630178Y-61185537D01*
X119560056Y-61219210D01*
X119511472Y-61279961D01*
X119510488Y-61284240D01*
X119495030Y-61351463D01*
X119494039Y-61355771D01*
X115880464Y-61355771D01*
X115860606Y-61326052D01*
X115858472Y-61322858D01*
X115838802Y-61309715D01*
X115788731Y-61276258D01*
X115788729Y-61276257D01*
X115785535Y-61274123D01*
X115781769Y-61273374D01*
X115781767Y-61273373D01*
X115703266Y-61257759D01*
X115699500Y-61257010D01*
X115695734Y-61257759D01*
X115617233Y-61273373D01*
X115617231Y-61273374D01*
X115613465Y-61274123D01*
X115610271Y-61276257D01*
X115610269Y-61276258D01*
X115560198Y-61309715D01*
X115540528Y-61322858D01*
X115538394Y-61326052D01*
X115493928Y-61392599D01*
X115493927Y-61392601D01*
X115491793Y-61395795D01*
X115491044Y-61399561D01*
X115491043Y-61399563D01*
X115475429Y-61478064D01*
X115474680Y-61481830D01*
X114204913Y-61481830D01*
X114223810Y-61351450D01*
X114224246Y-61349000D01*
X114224373Y-61348401D01*
X114253660Y-61209695D01*
X114775115Y-61209695D01*
X114792283Y-61285565D01*
X114840654Y-61346486D01*
X114844605Y-61348400D01*
X114844606Y-61348401D01*
X114875656Y-61363444D01*
X114910659Y-61380403D01*
X114949456Y-61380504D01*
X114984055Y-61380595D01*
X114984057Y-61380595D01*
X114988448Y-61380606D01*
X115058629Y-61347056D01*
X115107319Y-61286390D01*
X115123289Y-61217491D01*
X115124386Y-61212760D01*
X115124386Y-61212757D01*
X115124884Y-61210610D01*
X115124885Y-61210000D01*
X115107585Y-61134160D01*
X115059107Y-61073324D01*
X115024075Y-61056427D01*
X114993001Y-61041438D01*
X114989043Y-61039529D01*
X114984650Y-61039525D01*
X114984649Y-61039525D01*
X114950336Y-61039495D01*
X114911254Y-61039461D01*
X114841132Y-61073134D01*
X114792548Y-61133885D01*
X114791564Y-61138164D01*
X114780216Y-61187514D01*
X114775115Y-61209695D01*
X114253660Y-61209695D01*
X114348561Y-60760230D01*
X114349156Y-60757801D01*
X114510957Y-60178211D01*
X114511707Y-60175824D01*
X114555703Y-60050000D01*
X125825180Y-60050000D01*
X125825929Y-60053766D01*
X125841543Y-60132267D01*
X125841544Y-60132269D01*
X125842293Y-60136035D01*
X125844427Y-60139229D01*
X125844428Y-60139231D01*
X125868706Y-60175565D01*
X125891028Y-60208972D01*
X125894222Y-60211106D01*
X125960769Y-60255572D01*
X125960771Y-60255573D01*
X125963965Y-60257707D01*
X125967731Y-60258456D01*
X125967733Y-60258457D01*
X126046234Y-60274071D01*
X126050000Y-60274820D01*
X126053766Y-60274071D01*
X126132267Y-60258457D01*
X126132269Y-60258456D01*
X126136035Y-60257707D01*
X126139229Y-60255573D01*
X126139231Y-60255572D01*
X126205778Y-60211106D01*
X126208972Y-60208972D01*
X126231294Y-60175565D01*
X126255572Y-60139231D01*
X126255573Y-60139229D01*
X126257707Y-60136035D01*
X126258456Y-60132269D01*
X126258457Y-60132267D01*
X126264936Y-60099695D01*
X128575115Y-60099695D01*
X128592283Y-60175565D01*
X128640654Y-60236486D01*
X128644605Y-60238400D01*
X128644606Y-60238401D01*
X128675657Y-60253445D01*
X128710659Y-60270403D01*
X128749456Y-60270504D01*
X128784055Y-60270595D01*
X128784057Y-60270595D01*
X128788448Y-60270606D01*
X128858629Y-60237056D01*
X128907319Y-60176390D01*
X128924884Y-60100610D01*
X128924885Y-60100000D01*
X128907585Y-60024160D01*
X128859107Y-59963324D01*
X128789387Y-59929695D01*
X129765115Y-59929695D01*
X129782283Y-60005565D01*
X129785015Y-60009006D01*
X129800448Y-60028443D01*
X129830654Y-60066486D01*
X129834605Y-60068400D01*
X129834606Y-60068401D01*
X129865657Y-60083445D01*
X129900659Y-60100403D01*
X129939456Y-60100504D01*
X129974055Y-60100595D01*
X129974057Y-60100595D01*
X129978448Y-60100606D01*
X130048629Y-60067056D01*
X130097319Y-60006390D01*
X130107786Y-59961233D01*
X130114386Y-59932760D01*
X130114386Y-59932757D01*
X130114884Y-59930610D01*
X130114885Y-59930000D01*
X130097585Y-59854160D01*
X130086058Y-59839695D01*
X130445115Y-59839695D01*
X130454727Y-59882172D01*
X130460682Y-59908488D01*
X130462283Y-59915565D01*
X130465015Y-59919006D01*
X130473367Y-59929525D01*
X130510654Y-59976486D01*
X130514605Y-59978400D01*
X130514606Y-59978401D01*
X130545657Y-59993445D01*
X130580659Y-60010403D01*
X130619456Y-60010504D01*
X130654055Y-60010595D01*
X130654057Y-60010595D01*
X130658448Y-60010606D01*
X130728629Y-59977056D01*
X130777319Y-59916390D01*
X130787978Y-59870403D01*
X130794386Y-59842760D01*
X130794386Y-59842757D01*
X130794884Y-59840610D01*
X130794885Y-59840000D01*
X130777585Y-59764160D01*
X130729107Y-59703324D01*
X130659043Y-59669529D01*
X130654650Y-59669525D01*
X130654649Y-59669525D01*
X130620336Y-59669495D01*
X130581254Y-59669461D01*
X130511132Y-59703134D01*
X130462548Y-59763885D01*
X130461564Y-59768164D01*
X130448281Y-59825929D01*
X130445115Y-59839695D01*
X130086058Y-59839695D01*
X130049107Y-59793324D01*
X129979043Y-59759529D01*
X129974650Y-59759525D01*
X129974649Y-59759525D01*
X129940336Y-59759495D01*
X129901254Y-59759461D01*
X129831132Y-59793134D01*
X129782548Y-59853885D01*
X129781564Y-59858164D01*
X129768175Y-59916390D01*
X129765115Y-59929695D01*
X128789387Y-59929695D01*
X128789043Y-59929529D01*
X128784650Y-59929525D01*
X128784649Y-59929525D01*
X128750336Y-59929495D01*
X128711254Y-59929461D01*
X128641132Y-59963134D01*
X128592548Y-60023885D01*
X128591564Y-60028164D01*
X128582621Y-60067056D01*
X128575115Y-60099695D01*
X126264936Y-60099695D01*
X126274071Y-60053766D01*
X126274820Y-60050000D01*
X126267715Y-60014281D01*
X126258457Y-59967733D01*
X126258456Y-59967731D01*
X126257707Y-59963965D01*
X126255573Y-59960771D01*
X126255572Y-59960769D01*
X126211106Y-59894222D01*
X126208972Y-59891028D01*
X126182059Y-59873045D01*
X126139231Y-59844428D01*
X126139229Y-59844427D01*
X126136035Y-59842293D01*
X126132269Y-59841544D01*
X126132267Y-59841543D01*
X126053766Y-59825929D01*
X126050000Y-59825180D01*
X126046234Y-59825929D01*
X125967733Y-59841543D01*
X125967731Y-59841544D01*
X125963965Y-59842293D01*
X125960771Y-59844427D01*
X125960769Y-59844428D01*
X125917941Y-59873045D01*
X125891028Y-59891028D01*
X125888894Y-59894222D01*
X125844428Y-59960769D01*
X125844427Y-59960771D01*
X125842293Y-59963965D01*
X125841544Y-59967731D01*
X125841543Y-59967733D01*
X125832285Y-60014281D01*
X125825180Y-60050000D01*
X114555703Y-60050000D01*
X114591223Y-59948419D01*
X114678194Y-59699695D01*
X116105115Y-59699695D01*
X116122283Y-59775565D01*
X116125015Y-59779006D01*
X116146468Y-59806025D01*
X116170654Y-59836486D01*
X116174605Y-59838400D01*
X116174606Y-59838401D01*
X116187046Y-59844428D01*
X116240659Y-59870403D01*
X116279456Y-59870504D01*
X116314055Y-59870595D01*
X116314057Y-59870595D01*
X116318448Y-59870606D01*
X116388629Y-59837056D01*
X116437319Y-59776390D01*
X116446817Y-59735414D01*
X116454386Y-59702760D01*
X116454386Y-59702757D01*
X116454884Y-59700610D01*
X116454885Y-59700000D01*
X116437585Y-59624160D01*
X116439275Y-59623774D01*
X116438002Y-59600927D01*
X116457901Y-59578678D01*
X116487704Y-59577017D01*
X116498367Y-59582929D01*
X116500654Y-59585809D01*
X116504605Y-59587723D01*
X116504606Y-59587724D01*
X116528357Y-59599231D01*
X116570659Y-59619726D01*
X116609456Y-59619827D01*
X116644055Y-59619918D01*
X116644057Y-59619918D01*
X116648448Y-59619929D01*
X116718629Y-59586379D01*
X116723994Y-59579695D01*
X117625115Y-59579695D01*
X117642283Y-59655565D01*
X117645015Y-59659006D01*
X117653367Y-59669525D01*
X117690654Y-59716486D01*
X117694605Y-59718400D01*
X117694606Y-59718401D01*
X117725657Y-59733445D01*
X117760659Y-59750403D01*
X117799456Y-59750504D01*
X117834055Y-59750595D01*
X117834057Y-59750595D01*
X117838448Y-59750606D01*
X117861272Y-59739695D01*
X124175115Y-59739695D01*
X124192283Y-59815565D01*
X124240654Y-59876486D01*
X124244605Y-59878400D01*
X124244606Y-59878401D01*
X124252390Y-59882172D01*
X124310659Y-59910403D01*
X124349456Y-59910504D01*
X124384055Y-59910595D01*
X124384057Y-59910595D01*
X124388448Y-59910606D01*
X124458629Y-59877056D01*
X124507319Y-59816390D01*
X124522614Y-59750403D01*
X124524386Y-59742760D01*
X124524386Y-59742757D01*
X124524884Y-59740610D01*
X124524885Y-59740000D01*
X124507585Y-59664160D01*
X124459107Y-59603324D01*
X124408011Y-59578678D01*
X124393001Y-59571438D01*
X124389043Y-59569529D01*
X124384650Y-59569525D01*
X124384649Y-59569525D01*
X124350336Y-59569495D01*
X124311254Y-59569461D01*
X124241132Y-59603134D01*
X124192548Y-59663885D01*
X124191564Y-59668164D01*
X124179886Y-59718949D01*
X124175115Y-59739695D01*
X117861272Y-59739695D01*
X117908629Y-59717056D01*
X117957319Y-59656390D01*
X117966529Y-59616654D01*
X117974386Y-59582760D01*
X117974386Y-59582757D01*
X117974884Y-59580610D01*
X117974885Y-59580000D01*
X117958917Y-59510000D01*
X118165180Y-59510000D01*
X118165929Y-59513766D01*
X118181543Y-59592267D01*
X118181544Y-59592269D01*
X118182293Y-59596035D01*
X118184427Y-59599229D01*
X118184428Y-59599231D01*
X118203761Y-59628164D01*
X118231028Y-59668972D01*
X118234222Y-59671106D01*
X118300769Y-59715572D01*
X118300771Y-59715573D01*
X118303965Y-59717707D01*
X118307731Y-59718456D01*
X118307733Y-59718457D01*
X118386234Y-59734071D01*
X118390000Y-59734820D01*
X118393766Y-59734071D01*
X118472267Y-59718457D01*
X118472269Y-59718456D01*
X118476035Y-59717707D01*
X118479229Y-59715573D01*
X118479231Y-59715572D01*
X118545778Y-59671106D01*
X118548972Y-59668972D01*
X118576239Y-59628164D01*
X118595572Y-59599231D01*
X118595573Y-59599229D01*
X118597707Y-59596035D01*
X118598456Y-59592269D01*
X118598457Y-59592267D01*
X118614071Y-59513766D01*
X118614820Y-59510000D01*
X118613421Y-59502965D01*
X118598457Y-59427733D01*
X118598456Y-59427731D01*
X118597707Y-59423965D01*
X118595573Y-59420771D01*
X118595572Y-59420769D01*
X118551106Y-59354222D01*
X118548972Y-59351028D01*
X118526988Y-59336339D01*
X118479231Y-59304428D01*
X118479229Y-59304427D01*
X118476035Y-59302293D01*
X118472269Y-59301544D01*
X118472267Y-59301543D01*
X118393766Y-59285929D01*
X118390000Y-59285180D01*
X118386234Y-59285929D01*
X118307733Y-59301543D01*
X118307731Y-59301544D01*
X118303965Y-59302293D01*
X118300771Y-59304427D01*
X118300769Y-59304428D01*
X118253012Y-59336339D01*
X118231028Y-59351028D01*
X118228894Y-59354222D01*
X118184428Y-59420769D01*
X118184427Y-59420771D01*
X118182293Y-59423965D01*
X118181544Y-59427731D01*
X118181543Y-59427733D01*
X118166579Y-59502965D01*
X118165180Y-59510000D01*
X117958917Y-59510000D01*
X117957585Y-59504160D01*
X117909107Y-59443324D01*
X117839043Y-59409529D01*
X117834650Y-59409525D01*
X117834649Y-59409525D01*
X117800336Y-59409495D01*
X117761254Y-59409461D01*
X117691132Y-59443134D01*
X117642548Y-59503885D01*
X117641564Y-59508164D01*
X117626817Y-59572295D01*
X117625115Y-59579695D01*
X116723994Y-59579695D01*
X116767319Y-59525713D01*
X116780368Y-59469415D01*
X116784386Y-59452083D01*
X116784386Y-59452080D01*
X116784884Y-59449933D01*
X116784885Y-59449323D01*
X116767585Y-59373483D01*
X116719107Y-59312647D01*
X116662162Y-59285180D01*
X116653001Y-59280761D01*
X116649043Y-59278852D01*
X116644650Y-59278848D01*
X116644649Y-59278848D01*
X116610336Y-59278818D01*
X116571254Y-59278784D01*
X116501132Y-59312457D01*
X116452548Y-59373208D01*
X116451564Y-59377487D01*
X116440010Y-59427733D01*
X116435115Y-59449018D01*
X116447593Y-59504160D01*
X116452283Y-59524888D01*
X116450738Y-59525238D01*
X116451996Y-59548462D01*
X116432062Y-59570680D01*
X116402257Y-59572295D01*
X116391509Y-59566338D01*
X116389107Y-59563324D01*
X116319043Y-59529529D01*
X116314650Y-59529525D01*
X116314649Y-59529525D01*
X116280336Y-59529495D01*
X116241254Y-59529461D01*
X116171132Y-59563134D01*
X116122548Y-59623885D01*
X116121564Y-59628164D01*
X116112067Y-59669465D01*
X116105115Y-59699695D01*
X114678194Y-59699695D01*
X114710330Y-59607789D01*
X114711226Y-59605468D01*
X114712215Y-59603134D01*
X114811019Y-59369780D01*
X114850330Y-59276937D01*
X114871601Y-59255996D01*
X114901449Y-59256230D01*
X114918669Y-59270475D01*
X114931028Y-59288972D01*
X114935820Y-59292174D01*
X115000769Y-59335572D01*
X115000771Y-59335573D01*
X115003965Y-59337707D01*
X115007731Y-59338456D01*
X115007733Y-59338457D01*
X115086234Y-59354071D01*
X115090000Y-59354820D01*
X115093766Y-59354071D01*
X115172267Y-59338457D01*
X115172269Y-59338456D01*
X115176035Y-59337707D01*
X115179229Y-59335573D01*
X115179231Y-59335572D01*
X115244180Y-59292174D01*
X115248972Y-59288972D01*
X115267556Y-59261159D01*
X115295572Y-59219231D01*
X115295573Y-59219229D01*
X115297707Y-59216035D01*
X115298456Y-59212269D01*
X115298457Y-59212267D01*
X115314071Y-59133766D01*
X115314820Y-59130000D01*
X115311608Y-59113850D01*
X115298457Y-59047733D01*
X115298456Y-59047731D01*
X115297707Y-59043965D01*
X115295573Y-59040771D01*
X115295572Y-59040769D01*
X115256339Y-58982054D01*
X115248972Y-58971028D01*
X115222882Y-58953595D01*
X115179231Y-58924428D01*
X115179229Y-58924427D01*
X115176035Y-58922293D01*
X115172269Y-58921544D01*
X115172267Y-58921543D01*
X115093766Y-58905929D01*
X115090000Y-58905180D01*
X115086234Y-58905929D01*
X115082392Y-58905929D01*
X115082392Y-58903912D01*
X115060112Y-58899491D01*
X115043518Y-58874679D01*
X115046900Y-58849577D01*
X115076918Y-58789695D01*
X117775115Y-58789695D01*
X117792283Y-58865565D01*
X117795015Y-58869006D01*
X117808674Y-58886209D01*
X117840654Y-58926486D01*
X117844605Y-58928400D01*
X117844606Y-58928401D01*
X117875009Y-58943131D01*
X117910659Y-58960403D01*
X117949456Y-58960504D01*
X117984055Y-58960595D01*
X117984057Y-58960595D01*
X117988448Y-58960606D01*
X118058629Y-58927056D01*
X118096396Y-58880000D01*
X118605180Y-58880000D01*
X118605929Y-58883766D01*
X118621543Y-58962267D01*
X118621544Y-58962269D01*
X118622293Y-58966035D01*
X118624427Y-58969229D01*
X118624428Y-58969231D01*
X118636537Y-58987353D01*
X118671028Y-59038972D01*
X118678249Y-59043797D01*
X118740769Y-59085572D01*
X118740771Y-59085573D01*
X118743965Y-59087707D01*
X118747731Y-59088456D01*
X118747733Y-59088457D01*
X118826234Y-59104071D01*
X118830000Y-59104820D01*
X118833766Y-59104071D01*
X118902297Y-59090440D01*
X119743539Y-59090440D01*
X119752016Y-59127901D01*
X119757108Y-59150403D01*
X119760707Y-59166310D01*
X119809078Y-59227231D01*
X119813029Y-59229145D01*
X119813030Y-59229146D01*
X119828213Y-59236502D01*
X119879083Y-59261148D01*
X119917880Y-59261249D01*
X119952479Y-59261340D01*
X119952481Y-59261340D01*
X119956872Y-59261351D01*
X120027053Y-59227801D01*
X120039691Y-59212054D01*
X125028068Y-59212054D01*
X125045236Y-59287924D01*
X125093607Y-59348845D01*
X125097558Y-59350759D01*
X125097559Y-59350760D01*
X125104705Y-59354222D01*
X125163612Y-59382762D01*
X125202409Y-59382863D01*
X125237008Y-59382954D01*
X125237010Y-59382954D01*
X125241401Y-59382965D01*
X125311582Y-59349415D01*
X125360272Y-59288749D01*
X125372524Y-59235892D01*
X125372595Y-59235587D01*
X129480726Y-59235587D01*
X129497894Y-59311457D01*
X129500626Y-59314898D01*
X129517041Y-59335572D01*
X129546265Y-59372378D01*
X129550216Y-59374292D01*
X129550217Y-59374293D01*
X129581267Y-59389336D01*
X129616270Y-59406295D01*
X129655067Y-59406396D01*
X129689666Y-59406487D01*
X129689668Y-59406487D01*
X129694059Y-59406498D01*
X129764240Y-59372948D01*
X129797061Y-59332054D01*
X131565115Y-59332054D01*
X131582283Y-59407924D01*
X131630654Y-59468845D01*
X131634605Y-59470759D01*
X131634606Y-59470760D01*
X131665656Y-59485803D01*
X131700659Y-59502762D01*
X131739456Y-59502863D01*
X131774055Y-59502954D01*
X131774057Y-59502954D01*
X131778448Y-59502965D01*
X131848629Y-59469415D01*
X131897319Y-59408749D01*
X131914884Y-59332969D01*
X131914885Y-59332359D01*
X131897585Y-59256519D01*
X131849107Y-59195683D01*
X131798573Y-59171308D01*
X131783001Y-59163797D01*
X131779043Y-59161888D01*
X131774650Y-59161884D01*
X131774649Y-59161884D01*
X131740336Y-59161854D01*
X131701254Y-59161820D01*
X131631132Y-59195493D01*
X131582548Y-59256244D01*
X131581564Y-59260523D01*
X131567321Y-59322462D01*
X131565115Y-59332054D01*
X129797061Y-59332054D01*
X129812930Y-59312282D01*
X129825922Y-59256230D01*
X129829997Y-59238652D01*
X129829997Y-59238649D01*
X129830495Y-59236502D01*
X129830496Y-59235892D01*
X129813196Y-59160052D01*
X129764718Y-59099216D01*
X129745935Y-59090156D01*
X130085116Y-59090156D01*
X130091737Y-59119415D01*
X130100516Y-59158211D01*
X130102284Y-59166026D01*
X130105016Y-59169467D01*
X130124171Y-59193592D01*
X130150655Y-59226947D01*
X130154606Y-59228861D01*
X130154607Y-59228862D01*
X130174814Y-59238652D01*
X130220660Y-59260864D01*
X130259457Y-59260965D01*
X130294056Y-59261056D01*
X130294058Y-59261056D01*
X130298449Y-59261067D01*
X130368630Y-59227517D01*
X130417320Y-59166851D01*
X130430000Y-59112147D01*
X130434387Y-59093221D01*
X130434387Y-59093218D01*
X130434885Y-59091071D01*
X130434886Y-59090461D01*
X130417586Y-59014621D01*
X130369108Y-58953785D01*
X130299044Y-58919990D01*
X130294651Y-58919986D01*
X130294650Y-58919986D01*
X130260337Y-58919956D01*
X130221255Y-58919922D01*
X130151133Y-58953595D01*
X130102549Y-59014346D01*
X130101565Y-59018625D01*
X130086686Y-59083329D01*
X130085116Y-59090156D01*
X129745935Y-59090156D01*
X129715535Y-59075493D01*
X129698612Y-59067330D01*
X129694654Y-59065421D01*
X129690261Y-59065417D01*
X129690260Y-59065417D01*
X129655947Y-59065387D01*
X129616865Y-59065353D01*
X129546743Y-59099026D01*
X129498159Y-59159777D01*
X129497175Y-59164056D01*
X129482582Y-59227517D01*
X129480726Y-59235587D01*
X125372595Y-59235587D01*
X125377339Y-59215119D01*
X125377339Y-59215116D01*
X125377837Y-59212969D01*
X125377838Y-59212359D01*
X125360538Y-59136519D01*
X125312060Y-59075683D01*
X125266356Y-59053638D01*
X125245954Y-59043797D01*
X125241996Y-59041888D01*
X125237603Y-59041884D01*
X125237602Y-59041884D01*
X125203289Y-59041854D01*
X125164207Y-59041820D01*
X125094085Y-59075493D01*
X125045501Y-59136244D01*
X125044517Y-59140523D01*
X125030161Y-59202954D01*
X125028068Y-59212054D01*
X120039691Y-59212054D01*
X120075743Y-59167135D01*
X120085942Y-59123132D01*
X120092810Y-59093505D01*
X120092810Y-59093502D01*
X120093308Y-59091355D01*
X120093309Y-59090745D01*
X120076009Y-59014905D01*
X120047951Y-58979695D01*
X121345115Y-58979695D01*
X121354009Y-59019001D01*
X121357933Y-59036339D01*
X121362283Y-59055565D01*
X121365015Y-59059006D01*
X121380829Y-59078923D01*
X121410654Y-59116486D01*
X121414605Y-59118400D01*
X121414606Y-59118401D01*
X121435346Y-59128449D01*
X121480659Y-59150403D01*
X121519456Y-59150504D01*
X121554055Y-59150595D01*
X121554057Y-59150595D01*
X121558448Y-59150606D01*
X121628629Y-59117056D01*
X121655828Y-59083168D01*
X121681995Y-59068812D01*
X121710652Y-59077164D01*
X121716784Y-59083329D01*
X121733572Y-59104472D01*
X121750654Y-59125986D01*
X121754605Y-59127900D01*
X121754606Y-59127901D01*
X121781234Y-59140802D01*
X121820659Y-59159903D01*
X121859456Y-59160004D01*
X121894055Y-59160095D01*
X121894057Y-59160095D01*
X121898448Y-59160106D01*
X121968629Y-59126556D01*
X122017319Y-59065890D01*
X122034884Y-58990110D01*
X122034885Y-58989500D01*
X122017585Y-58913660D01*
X121969107Y-58852824D01*
X121931060Y-58834472D01*
X121903001Y-58820938D01*
X121899043Y-58819029D01*
X121894650Y-58819025D01*
X121894649Y-58819025D01*
X121860336Y-58818995D01*
X121821254Y-58818961D01*
X121751132Y-58852634D01*
X121735965Y-58871600D01*
X121724239Y-58886262D01*
X121698094Y-58900665D01*
X121669423Y-58892362D01*
X121663281Y-58886209D01*
X121631846Y-58846761D01*
X121629107Y-58843324D01*
X121582539Y-58820862D01*
X121563001Y-58811438D01*
X121559043Y-58809529D01*
X121554650Y-58809525D01*
X121554649Y-58809525D01*
X121520336Y-58809495D01*
X121481254Y-58809461D01*
X121411132Y-58843134D01*
X121362548Y-58903885D01*
X121361564Y-58908164D01*
X121346374Y-58974222D01*
X121345115Y-58979695D01*
X120047951Y-58979695D01*
X120027531Y-58954069D01*
X119974316Y-58928401D01*
X119961425Y-58922183D01*
X119957467Y-58920274D01*
X119953074Y-58920270D01*
X119953073Y-58920270D01*
X119918760Y-58920240D01*
X119879678Y-58920206D01*
X119809556Y-58953879D01*
X119760972Y-59014630D01*
X119759988Y-59018909D01*
X119744589Y-59085875D01*
X119743539Y-59090440D01*
X118902297Y-59090440D01*
X118912267Y-59088457D01*
X118912269Y-59088456D01*
X118916035Y-59087707D01*
X118919229Y-59085573D01*
X118919231Y-59085572D01*
X118981751Y-59043797D01*
X118988972Y-59038972D01*
X119023463Y-58987353D01*
X119035572Y-58969231D01*
X119035573Y-58969229D01*
X119037707Y-58966035D01*
X119038456Y-58962269D01*
X119038457Y-58962267D01*
X119054071Y-58883766D01*
X119054820Y-58880000D01*
X119051262Y-58862113D01*
X119038457Y-58797733D01*
X119038456Y-58797731D01*
X119037707Y-58793965D01*
X119035573Y-58790771D01*
X119035572Y-58790769D01*
X118991106Y-58724222D01*
X118988972Y-58721028D01*
X118962946Y-58703638D01*
X118919231Y-58674428D01*
X118919229Y-58674427D01*
X118916035Y-58672293D01*
X118912269Y-58671544D01*
X118912267Y-58671543D01*
X118833766Y-58655929D01*
X118830000Y-58655180D01*
X118826234Y-58655929D01*
X118747733Y-58671543D01*
X118747731Y-58671544D01*
X118743965Y-58672293D01*
X118740771Y-58674427D01*
X118740769Y-58674428D01*
X118697054Y-58703638D01*
X118671028Y-58721028D01*
X118668894Y-58724222D01*
X118624428Y-58790769D01*
X118624427Y-58790771D01*
X118622293Y-58793965D01*
X118621544Y-58797731D01*
X118621543Y-58797733D01*
X118608738Y-58862113D01*
X118605180Y-58880000D01*
X118096396Y-58880000D01*
X118107319Y-58866390D01*
X118118313Y-58818961D01*
X118124386Y-58792760D01*
X118124386Y-58792757D01*
X118124884Y-58790610D01*
X118124885Y-58790000D01*
X118107585Y-58714160D01*
X118059107Y-58653324D01*
X117997844Y-58623774D01*
X117993001Y-58621438D01*
X117989043Y-58619529D01*
X117984650Y-58619525D01*
X117984649Y-58619525D01*
X117950336Y-58619495D01*
X117911254Y-58619461D01*
X117841132Y-58653134D01*
X117792548Y-58713885D01*
X117791564Y-58718164D01*
X117776662Y-58782969D01*
X117775115Y-58789695D01*
X115076918Y-58789695D01*
X115216555Y-58511133D01*
X115217747Y-58508934D01*
X115245240Y-58461884D01*
X115247945Y-58457255D01*
X122338068Y-58457255D01*
X122355236Y-58533125D01*
X122403607Y-58594046D01*
X122407558Y-58595960D01*
X122407559Y-58595961D01*
X122409638Y-58596968D01*
X122429475Y-58619272D01*
X122427731Y-58649071D01*
X122423091Y-58656424D01*
X122399024Y-58686519D01*
X122383249Y-58706244D01*
X122382265Y-58710523D01*
X122367485Y-58774798D01*
X122365816Y-58782054D01*
X122382984Y-58857924D01*
X122385716Y-58861365D01*
X122391783Y-58869006D01*
X122431355Y-58918845D01*
X122435306Y-58920759D01*
X122435307Y-58920760D01*
X122460476Y-58932954D01*
X122501360Y-58952762D01*
X122540157Y-58952863D01*
X122574756Y-58952954D01*
X122574758Y-58952954D01*
X122579149Y-58952965D01*
X122599720Y-58943131D01*
X124076991Y-58943131D01*
X124094159Y-59019001D01*
X124096891Y-59022442D01*
X124106957Y-59035119D01*
X124142530Y-59079922D01*
X124146481Y-59081836D01*
X124146482Y-59081837D01*
X124177532Y-59096880D01*
X124212535Y-59113839D01*
X124251332Y-59113940D01*
X124285931Y-59114031D01*
X124285933Y-59114031D01*
X124290324Y-59114042D01*
X124360505Y-59080492D01*
X124399381Y-59032054D01*
X125788068Y-59032054D01*
X125798121Y-59076481D01*
X125803266Y-59099216D01*
X125805236Y-59107924D01*
X125807968Y-59111365D01*
X125809932Y-59113839D01*
X125853607Y-59168845D01*
X125857558Y-59170759D01*
X125857559Y-59170760D01*
X125879845Y-59181557D01*
X125923612Y-59202762D01*
X125962409Y-59202863D01*
X125997008Y-59202954D01*
X125997010Y-59202954D01*
X126001401Y-59202965D01*
X126071582Y-59169415D01*
X126120272Y-59108749D01*
X126129529Y-59068812D01*
X126137339Y-59035119D01*
X126137339Y-59035116D01*
X126137837Y-59032969D01*
X126137838Y-59032359D01*
X126126363Y-58982054D01*
X126438068Y-58982054D01*
X126446471Y-59019188D01*
X126450948Y-59038972D01*
X126455236Y-59057924D01*
X126457968Y-59061365D01*
X126472702Y-59079922D01*
X126503607Y-59118845D01*
X126507558Y-59120759D01*
X126507559Y-59120760D01*
X126526631Y-59130000D01*
X126573612Y-59152762D01*
X126612409Y-59152863D01*
X126647008Y-59152954D01*
X126647010Y-59152954D01*
X126651401Y-59152965D01*
X126721582Y-59119415D01*
X126770272Y-59058749D01*
X126782458Y-59006177D01*
X126787339Y-58985119D01*
X126787339Y-58985116D01*
X126787837Y-58982969D01*
X126787838Y-58982359D01*
X126770538Y-58906519D01*
X126722060Y-58845683D01*
X126666801Y-58819029D01*
X126655954Y-58813797D01*
X126651996Y-58811888D01*
X126647603Y-58811884D01*
X126647602Y-58811884D01*
X126613289Y-58811854D01*
X126574207Y-58811820D01*
X126504085Y-58845493D01*
X126455501Y-58906244D01*
X126454517Y-58910523D01*
X126439595Y-58975414D01*
X126438068Y-58982054D01*
X126126363Y-58982054D01*
X126120538Y-58956519D01*
X126072060Y-58895683D01*
X126028514Y-58874679D01*
X126005954Y-58863797D01*
X126001996Y-58861888D01*
X125997603Y-58861884D01*
X125997602Y-58861884D01*
X125963289Y-58861854D01*
X125924207Y-58861820D01*
X125854085Y-58895493D01*
X125805501Y-58956244D01*
X125804517Y-58960523D01*
X125791027Y-59019188D01*
X125788068Y-59032054D01*
X124399381Y-59032054D01*
X124409195Y-59019826D01*
X124420922Y-58969231D01*
X124426262Y-58946196D01*
X124426262Y-58946193D01*
X124426760Y-58944046D01*
X124426761Y-58943436D01*
X124409461Y-58867596D01*
X124360983Y-58806760D01*
X124310395Y-58782359D01*
X124294877Y-58774874D01*
X124290919Y-58772965D01*
X124286526Y-58772961D01*
X124286525Y-58772961D01*
X124252212Y-58772931D01*
X124213130Y-58772897D01*
X124143008Y-58806570D01*
X124094424Y-58867321D01*
X124093440Y-58871600D01*
X124079329Y-58932965D01*
X124076991Y-58943131D01*
X122599720Y-58943131D01*
X122649330Y-58919415D01*
X122698020Y-58858749D01*
X122709444Y-58809465D01*
X122715087Y-58785119D01*
X122715087Y-58785116D01*
X122715585Y-58782969D01*
X122715586Y-58782359D01*
X122710954Y-58762054D01*
X125028068Y-58762054D01*
X125039850Y-58814123D01*
X125040960Y-58819025D01*
X125045236Y-58837924D01*
X125047968Y-58841365D01*
X125057713Y-58853638D01*
X125093607Y-58898845D01*
X125097558Y-58900759D01*
X125097559Y-58900760D01*
X125117093Y-58910224D01*
X125163612Y-58932762D01*
X125202409Y-58932863D01*
X125237008Y-58932954D01*
X125237010Y-58932954D01*
X125241401Y-58932965D01*
X125311582Y-58899415D01*
X125360272Y-58838749D01*
X125370649Y-58793980D01*
X125377339Y-58765119D01*
X125377339Y-58765116D01*
X125377837Y-58762969D01*
X125377838Y-58762359D01*
X125360538Y-58686519D01*
X125312060Y-58625683D01*
X125241996Y-58591888D01*
X125237603Y-58591884D01*
X125237602Y-58591884D01*
X125203289Y-58591854D01*
X125164207Y-58591820D01*
X125094085Y-58625493D01*
X125045501Y-58686244D01*
X125044517Y-58690523D01*
X125030161Y-58752954D01*
X125028068Y-58762054D01*
X122710954Y-58762054D01*
X122698286Y-58706519D01*
X122685762Y-58690802D01*
X122652546Y-58649118D01*
X122652544Y-58649116D01*
X122649808Y-58645683D01*
X122644071Y-58642916D01*
X122624196Y-58620645D01*
X122625889Y-58590844D01*
X122630599Y-58583381D01*
X122631664Y-58582054D01*
X126788068Y-58582054D01*
X126798169Y-58626691D01*
X126802035Y-58643776D01*
X126805236Y-58657924D01*
X126853607Y-58718845D01*
X126857558Y-58720759D01*
X126857559Y-58720760D01*
X126864705Y-58724222D01*
X126923612Y-58752762D01*
X126962409Y-58752863D01*
X126997008Y-58752954D01*
X126997010Y-58752954D01*
X127001401Y-58752965D01*
X127071582Y-58719415D01*
X127120272Y-58658749D01*
X127126460Y-58632054D01*
X129188068Y-58632054D01*
X129199555Y-58682816D01*
X129204141Y-58703083D01*
X129205236Y-58707924D01*
X129207968Y-58711365D01*
X129229422Y-58738385D01*
X129253607Y-58768845D01*
X129257558Y-58770759D01*
X129257559Y-58770760D01*
X129280870Y-58782054D01*
X129323612Y-58802762D01*
X129362409Y-58802863D01*
X129397008Y-58802954D01*
X129397010Y-58802954D01*
X129401401Y-58802965D01*
X129471582Y-58769415D01*
X129520272Y-58708749D01*
X129531255Y-58661365D01*
X129537339Y-58635119D01*
X129537339Y-58635116D01*
X129537837Y-58632969D01*
X129537838Y-58632359D01*
X129520538Y-58556519D01*
X129472060Y-58495683D01*
X129401996Y-58461888D01*
X129397603Y-58461884D01*
X129397602Y-58461884D01*
X129363289Y-58461854D01*
X129324207Y-58461820D01*
X129254085Y-58495493D01*
X129205501Y-58556244D01*
X129204517Y-58560523D01*
X129189577Y-58625493D01*
X129188068Y-58632054D01*
X127126460Y-58632054D01*
X127134826Y-58595961D01*
X127137339Y-58585119D01*
X127137339Y-58585116D01*
X127137837Y-58582969D01*
X127137838Y-58582359D01*
X127120538Y-58506519D01*
X127072060Y-58445683D01*
X127015499Y-58418401D01*
X127005954Y-58413797D01*
X127001996Y-58411888D01*
X126997603Y-58411884D01*
X126997602Y-58411884D01*
X126963289Y-58411854D01*
X126924207Y-58411820D01*
X126854085Y-58445493D01*
X126805501Y-58506244D01*
X126804517Y-58510523D01*
X126799320Y-58533125D01*
X126788068Y-58582054D01*
X122631664Y-58582054D01*
X122670272Y-58533950D01*
X122679627Y-58493592D01*
X122687339Y-58460320D01*
X122687339Y-58460317D01*
X122687837Y-58458170D01*
X122687838Y-58457560D01*
X122670538Y-58381720D01*
X122622060Y-58320884D01*
X122577094Y-58299195D01*
X129875115Y-58299195D01*
X129876085Y-58303480D01*
X129887871Y-58355565D01*
X129892283Y-58375065D01*
X129940654Y-58435986D01*
X129944605Y-58437900D01*
X129944606Y-58437901D01*
X129970807Y-58450595D01*
X130010659Y-58469903D01*
X130049456Y-58470004D01*
X130084055Y-58470095D01*
X130084057Y-58470095D01*
X130088448Y-58470106D01*
X130158629Y-58436556D01*
X130207319Y-58375890D01*
X130220511Y-58318975D01*
X130224386Y-58302260D01*
X130224386Y-58302257D01*
X130224884Y-58300110D01*
X130224885Y-58299500D01*
X130207585Y-58223660D01*
X130159107Y-58162824D01*
X130124075Y-58145926D01*
X130093001Y-58130938D01*
X130089043Y-58129029D01*
X130084650Y-58129025D01*
X130084649Y-58129025D01*
X130050336Y-58128995D01*
X130011254Y-58128961D01*
X129941132Y-58162634D01*
X129892548Y-58223385D01*
X129891564Y-58227664D01*
X129877460Y-58288998D01*
X129875115Y-58299195D01*
X122577094Y-58299195D01*
X122551996Y-58287089D01*
X122547603Y-58287085D01*
X122547602Y-58287085D01*
X122513289Y-58287055D01*
X122474207Y-58287021D01*
X122404085Y-58320694D01*
X122355501Y-58381445D01*
X122354517Y-58385724D01*
X122339600Y-58450595D01*
X122338068Y-58457255D01*
X115247945Y-58457255D01*
X115339768Y-58300110D01*
X115351697Y-58279695D01*
X117725115Y-58279695D01*
X117742283Y-58355565D01*
X117790654Y-58416486D01*
X117794605Y-58418400D01*
X117794606Y-58418401D01*
X117823800Y-58432545D01*
X117860659Y-58450403D01*
X117899456Y-58450504D01*
X117934055Y-58450595D01*
X117934057Y-58450595D01*
X117938448Y-58450606D01*
X118008629Y-58417056D01*
X118057319Y-58356390D01*
X118070436Y-58299801D01*
X118074386Y-58282760D01*
X118074386Y-58282757D01*
X118074884Y-58280610D01*
X118074885Y-58280000D01*
X118057585Y-58204160D01*
X118009107Y-58143324D01*
X117939043Y-58109529D01*
X117934650Y-58109525D01*
X117934649Y-58109525D01*
X117900336Y-58109495D01*
X117861254Y-58109461D01*
X117791132Y-58143134D01*
X117742548Y-58203885D01*
X117741564Y-58208164D01*
X117731638Y-58251330D01*
X117725115Y-58279695D01*
X115351697Y-58279695D01*
X115521338Y-57989375D01*
X115522669Y-57987257D01*
X115722536Y-57690654D01*
X115773072Y-57615659D01*
X122707463Y-57615659D01*
X122718378Y-57663894D01*
X122723646Y-57687174D01*
X122724631Y-57691529D01*
X122773002Y-57752450D01*
X122776953Y-57754364D01*
X122776954Y-57754365D01*
X122791130Y-57761233D01*
X122843007Y-57786367D01*
X122881804Y-57786468D01*
X122916403Y-57786559D01*
X122916405Y-57786559D01*
X122920796Y-57786570D01*
X122990977Y-57753020D01*
X123028864Y-57705814D01*
X123055032Y-57691458D01*
X123083689Y-57699810D01*
X123097316Y-57721619D01*
X123101700Y-57740991D01*
X123103856Y-57750521D01*
X123106588Y-57753962D01*
X123116594Y-57766564D01*
X123152227Y-57811442D01*
X123156178Y-57813356D01*
X123156179Y-57813357D01*
X123204242Y-57836643D01*
X123224079Y-57858947D01*
X123222335Y-57888746D01*
X123204118Y-57906898D01*
X123195092Y-57911232D01*
X123195091Y-57911233D01*
X123191132Y-57913134D01*
X123142548Y-57973885D01*
X123141564Y-57978164D01*
X123128809Y-58033632D01*
X123125115Y-58049695D01*
X123142283Y-58125565D01*
X123145015Y-58129006D01*
X123161005Y-58149145D01*
X123190654Y-58186486D01*
X123194605Y-58188400D01*
X123194606Y-58188401D01*
X123219490Y-58200457D01*
X123260659Y-58220403D01*
X123299456Y-58220504D01*
X123334055Y-58220595D01*
X123334057Y-58220595D01*
X123338448Y-58220606D01*
X123408629Y-58187056D01*
X123457319Y-58126390D01*
X123470296Y-58070403D01*
X123473391Y-58057054D01*
X123938068Y-58057054D01*
X123955236Y-58132924D01*
X123957968Y-58136365D01*
X123974255Y-58156878D01*
X124003607Y-58193845D01*
X124007558Y-58195759D01*
X124007559Y-58195760D01*
X124033737Y-58208443D01*
X124073612Y-58227762D01*
X124112409Y-58227863D01*
X124147008Y-58227954D01*
X124147010Y-58227954D01*
X124151401Y-58227965D01*
X124221582Y-58194415D01*
X124270272Y-58133749D01*
X124284908Y-58070606D01*
X124287339Y-58060119D01*
X124287339Y-58060116D01*
X124287837Y-58057969D01*
X124287838Y-58057359D01*
X124270538Y-57981519D01*
X124222060Y-57920683D01*
X124161160Y-57891308D01*
X124155954Y-57888797D01*
X124151996Y-57886888D01*
X124147603Y-57886884D01*
X124147602Y-57886884D01*
X124113289Y-57886854D01*
X124074207Y-57886820D01*
X124004085Y-57920493D01*
X123955501Y-57981244D01*
X123954517Y-57985523D01*
X123939308Y-58051663D01*
X123938068Y-58057054D01*
X123473391Y-58057054D01*
X123474386Y-58052760D01*
X123474386Y-58052757D01*
X123474884Y-58050610D01*
X123474885Y-58050000D01*
X123457585Y-57974160D01*
X123409107Y-57913324D01*
X123357403Y-57888385D01*
X123337527Y-57866116D01*
X123339219Y-57836315D01*
X123357526Y-57818072D01*
X123366241Y-57813906D01*
X123366242Y-57813905D01*
X123370202Y-57812012D01*
X123418892Y-57751346D01*
X123429621Y-57705058D01*
X123435959Y-57677716D01*
X123435959Y-57677713D01*
X123436457Y-57675566D01*
X123436458Y-57674956D01*
X123419988Y-57602756D01*
X123938068Y-57602756D01*
X123955236Y-57678626D01*
X123957968Y-57682067D01*
X123965481Y-57691529D01*
X124003607Y-57739547D01*
X124007558Y-57741461D01*
X124007559Y-57741462D01*
X124030051Y-57752359D01*
X124073612Y-57773464D01*
X124112409Y-57773565D01*
X124147008Y-57773656D01*
X124147010Y-57773656D01*
X124151401Y-57773667D01*
X124221582Y-57740117D01*
X124236428Y-57721619D01*
X124268656Y-57681465D01*
X124294826Y-57667108D01*
X124323482Y-57675461D01*
X124329724Y-57683331D01*
X124330236Y-57682924D01*
X124378607Y-57743845D01*
X124382558Y-57745759D01*
X124382559Y-57745760D01*
X124400320Y-57754365D01*
X124448612Y-57777762D01*
X124487409Y-57777863D01*
X124522008Y-57777954D01*
X124522010Y-57777954D01*
X124526401Y-57777965D01*
X124580602Y-57752054D01*
X124998068Y-57752054D01*
X125015236Y-57827924D01*
X125063607Y-57888845D01*
X125067558Y-57890759D01*
X125067559Y-57890760D01*
X125082575Y-57898035D01*
X125133612Y-57922762D01*
X125172409Y-57922863D01*
X125207008Y-57922954D01*
X125207010Y-57922954D01*
X125211401Y-57922965D01*
X125281582Y-57889415D01*
X125288640Y-57880621D01*
X125314809Y-57866264D01*
X125343466Y-57874617D01*
X125354227Y-57888181D01*
X125355246Y-57890308D01*
X125356216Y-57894594D01*
X125358948Y-57898035D01*
X125371808Y-57914231D01*
X125404587Y-57955515D01*
X125408538Y-57957429D01*
X125408539Y-57957430D01*
X125437124Y-57971279D01*
X125474592Y-57989432D01*
X125513389Y-57989533D01*
X125547988Y-57989624D01*
X125547990Y-57989624D01*
X125552381Y-57989635D01*
X125622562Y-57956085D01*
X125667820Y-57899695D01*
X130295115Y-57899695D01*
X130300642Y-57924120D01*
X130311188Y-57970724D01*
X130312283Y-57975565D01*
X130315015Y-57979006D01*
X130336469Y-58006026D01*
X130360654Y-58036486D01*
X130364605Y-58038400D01*
X130364606Y-58038401D01*
X130395657Y-58053445D01*
X130430659Y-58070403D01*
X130469456Y-58070504D01*
X130504055Y-58070595D01*
X130504057Y-58070595D01*
X130508448Y-58070606D01*
X130578629Y-58037056D01*
X130627319Y-57976390D01*
X130639747Y-57922773D01*
X130644386Y-57902760D01*
X130644386Y-57902757D01*
X130644884Y-57900610D01*
X130644885Y-57900000D01*
X130627777Y-57825000D01*
X130750180Y-57825000D01*
X130750929Y-57828766D01*
X130766543Y-57907267D01*
X130766544Y-57907269D01*
X130767293Y-57911035D01*
X130769427Y-57914229D01*
X130769428Y-57914231D01*
X130775136Y-57922773D01*
X130816028Y-57983972D01*
X130824216Y-57989443D01*
X130885769Y-58030572D01*
X130885771Y-58030573D01*
X130888965Y-58032707D01*
X130892731Y-58033456D01*
X130892733Y-58033457D01*
X130971234Y-58049071D01*
X130975000Y-58049820D01*
X130978766Y-58049071D01*
X131057267Y-58033457D01*
X131057269Y-58033456D01*
X131061035Y-58032707D01*
X131064229Y-58030573D01*
X131064231Y-58030572D01*
X131125784Y-57989443D01*
X131133972Y-57983972D01*
X131174864Y-57922773D01*
X131180572Y-57914231D01*
X131180573Y-57914229D01*
X131182707Y-57911035D01*
X131183456Y-57907269D01*
X131183457Y-57907267D01*
X131199071Y-57828766D01*
X131199820Y-57825000D01*
X131199071Y-57821234D01*
X131183457Y-57742733D01*
X131183456Y-57742731D01*
X131182707Y-57738965D01*
X131180573Y-57735771D01*
X131180572Y-57735769D01*
X131145813Y-57683749D01*
X131133972Y-57666028D01*
X131107725Y-57648490D01*
X131064231Y-57619428D01*
X131064229Y-57619427D01*
X131061035Y-57617293D01*
X131057269Y-57616544D01*
X131057267Y-57616543D01*
X130978766Y-57600929D01*
X130975000Y-57600180D01*
X130971234Y-57600929D01*
X130892733Y-57616543D01*
X130892731Y-57616544D01*
X130888965Y-57617293D01*
X130885771Y-57619427D01*
X130885769Y-57619428D01*
X130842275Y-57648490D01*
X130816028Y-57666028D01*
X130804187Y-57683749D01*
X130769428Y-57735769D01*
X130769427Y-57735771D01*
X130767293Y-57738965D01*
X130766544Y-57742731D01*
X130766543Y-57742733D01*
X130750929Y-57821234D01*
X130750180Y-57825000D01*
X130627777Y-57825000D01*
X130627585Y-57824160D01*
X130579107Y-57763324D01*
X130530994Y-57740117D01*
X130513001Y-57731438D01*
X130509043Y-57729529D01*
X130504650Y-57729525D01*
X130504649Y-57729525D01*
X130470336Y-57729495D01*
X130431254Y-57729461D01*
X130361132Y-57763134D01*
X130312548Y-57823885D01*
X130311564Y-57828164D01*
X130297044Y-57891308D01*
X130295115Y-57899695D01*
X125667820Y-57899695D01*
X125671252Y-57895419D01*
X125682855Y-57845359D01*
X125688319Y-57821789D01*
X125688319Y-57821786D01*
X125688817Y-57819639D01*
X125688818Y-57819029D01*
X125671518Y-57743189D01*
X125623040Y-57682353D01*
X125552976Y-57648558D01*
X125548583Y-57648554D01*
X125548582Y-57648554D01*
X125514269Y-57648524D01*
X125475187Y-57648490D01*
X125405065Y-57682163D01*
X125402321Y-57685594D01*
X125402320Y-57685595D01*
X125398274Y-57690654D01*
X125372130Y-57705058D01*
X125343459Y-57696755D01*
X125332674Y-57683210D01*
X125331515Y-57680802D01*
X125330538Y-57676519D01*
X125282060Y-57615683D01*
X125231331Y-57591214D01*
X125215954Y-57583797D01*
X125211996Y-57581888D01*
X125207603Y-57581884D01*
X125207602Y-57581884D01*
X125173289Y-57581854D01*
X125134207Y-57581820D01*
X125064085Y-57615493D01*
X125015501Y-57676244D01*
X125014517Y-57680523D01*
X124999122Y-57747472D01*
X124998068Y-57752054D01*
X124580602Y-57752054D01*
X124596582Y-57744415D01*
X124645272Y-57683749D01*
X124654482Y-57644013D01*
X124662339Y-57610119D01*
X124662339Y-57610116D01*
X124662837Y-57607969D01*
X124662838Y-57607359D01*
X124645538Y-57531519D01*
X124597060Y-57470683D01*
X124538498Y-57442436D01*
X124518622Y-57420167D01*
X124520315Y-57390365D01*
X124538621Y-57372123D01*
X124547213Y-57368016D01*
X124596582Y-57344415D01*
X124606870Y-57331597D01*
X127537517Y-57331597D01*
X127544035Y-57360403D01*
X127552510Y-57397853D01*
X127554685Y-57407467D01*
X127603056Y-57468388D01*
X127607007Y-57470302D01*
X127607008Y-57470303D01*
X127626641Y-57479815D01*
X127673061Y-57502305D01*
X127711858Y-57502406D01*
X127746457Y-57502497D01*
X127746459Y-57502497D01*
X127750850Y-57502508D01*
X127821031Y-57468958D01*
X127869721Y-57408292D01*
X127871714Y-57399695D01*
X128625115Y-57399695D01*
X128634787Y-57442436D01*
X128640747Y-57468775D01*
X128642283Y-57475565D01*
X128645015Y-57479006D01*
X128647968Y-57482725D01*
X128690654Y-57536486D01*
X128694605Y-57538400D01*
X128694606Y-57538401D01*
X128704881Y-57543379D01*
X128760659Y-57570403D01*
X128799456Y-57570504D01*
X128834055Y-57570595D01*
X128834057Y-57570595D01*
X128838448Y-57570606D01*
X128908629Y-57537056D01*
X128957319Y-57476390D01*
X128972497Y-57410908D01*
X128974386Y-57402760D01*
X128974386Y-57402757D01*
X128974884Y-57400610D01*
X128974885Y-57400000D01*
X128957585Y-57324160D01*
X128938090Y-57299695D01*
X129525115Y-57299695D01*
X129534327Y-57340404D01*
X129538896Y-57360595D01*
X129542283Y-57375565D01*
X129590654Y-57436486D01*
X129594605Y-57438400D01*
X129594606Y-57438401D01*
X129625657Y-57453445D01*
X129660659Y-57470403D01*
X129699456Y-57470504D01*
X129734055Y-57470595D01*
X129734057Y-57470595D01*
X129738448Y-57470606D01*
X129808629Y-57437056D01*
X129857319Y-57376390D01*
X129867702Y-57331597D01*
X129874386Y-57302760D01*
X129874386Y-57302757D01*
X129874884Y-57300610D01*
X129874885Y-57300000D01*
X129857585Y-57224160D01*
X129809107Y-57163324D01*
X129739043Y-57129529D01*
X129734650Y-57129525D01*
X129734649Y-57129525D01*
X129700336Y-57129495D01*
X129661254Y-57129461D01*
X129591132Y-57163134D01*
X129542548Y-57223885D01*
X129541564Y-57228164D01*
X129528972Y-57282924D01*
X129525115Y-57299695D01*
X128938090Y-57299695D01*
X128909107Y-57263324D01*
X128839043Y-57229529D01*
X128834650Y-57229525D01*
X128834649Y-57229525D01*
X128800336Y-57229495D01*
X128761254Y-57229461D01*
X128691132Y-57263134D01*
X128642548Y-57323885D01*
X128641564Y-57328164D01*
X128629687Y-57379815D01*
X128625115Y-57399695D01*
X127871714Y-57399695D01*
X127887286Y-57332512D01*
X127887287Y-57331902D01*
X127869987Y-57256062D01*
X127821509Y-57195226D01*
X127762495Y-57166761D01*
X127755403Y-57163340D01*
X127751445Y-57161431D01*
X127747052Y-57161427D01*
X127747051Y-57161427D01*
X127712738Y-57161397D01*
X127673656Y-57161363D01*
X127603534Y-57195036D01*
X127554950Y-57255787D01*
X127553966Y-57260066D01*
X127539349Y-57323632D01*
X127537517Y-57331597D01*
X124606870Y-57331597D01*
X124645272Y-57283749D01*
X124657841Y-57229525D01*
X124662339Y-57210119D01*
X124662339Y-57210116D01*
X124662837Y-57207969D01*
X124662838Y-57207359D01*
X124645538Y-57131519D01*
X124597060Y-57070683D01*
X124560207Y-57052907D01*
X124540332Y-57030639D01*
X124542024Y-57000838D01*
X124560330Y-56982595D01*
X124584520Y-56971031D01*
X124588480Y-56969138D01*
X124596059Y-56959695D01*
X126805115Y-56959695D01*
X126807680Y-56971031D01*
X126820878Y-57029354D01*
X126822283Y-57035565D01*
X126825015Y-57039006D01*
X126834723Y-57051233D01*
X126870654Y-57096486D01*
X126874605Y-57098400D01*
X126874606Y-57098401D01*
X126896807Y-57109157D01*
X126940659Y-57130403D01*
X126979456Y-57130504D01*
X127014055Y-57130595D01*
X127014057Y-57130595D01*
X127018448Y-57130606D01*
X127088629Y-57097056D01*
X127137319Y-57036390D01*
X127148081Y-56989959D01*
X127154386Y-56962760D01*
X127154386Y-56962757D01*
X127154884Y-56960610D01*
X127154885Y-56960000D01*
X127147007Y-56925465D01*
X127152010Y-56896038D01*
X127176356Y-56878768D01*
X127193803Y-56878791D01*
X127194662Y-56878989D01*
X127198612Y-56880903D01*
X127237112Y-56881003D01*
X127272008Y-56881095D01*
X127272010Y-56881095D01*
X127276401Y-56881106D01*
X127346582Y-56847556D01*
X127395272Y-56786890D01*
X127409970Y-56723478D01*
X127412339Y-56713260D01*
X127412339Y-56713257D01*
X127412837Y-56711110D01*
X127412838Y-56710500D01*
X127395538Y-56634660D01*
X127347060Y-56573824D01*
X127276996Y-56540029D01*
X127272603Y-56540025D01*
X127272602Y-56540025D01*
X127238289Y-56539995D01*
X127199207Y-56539961D01*
X127129085Y-56573634D01*
X127080501Y-56634385D01*
X127079517Y-56638664D01*
X127065724Y-56698646D01*
X127063068Y-56710195D01*
X127070815Y-56744431D01*
X127070965Y-56745094D01*
X127065910Y-56774512D01*
X127041534Y-56791739D01*
X127024220Y-56791717D01*
X127023000Y-56791437D01*
X127019043Y-56789529D01*
X127014651Y-56789525D01*
X127014650Y-56789525D01*
X126980242Y-56789495D01*
X126941254Y-56789461D01*
X126871132Y-56823134D01*
X126822548Y-56883885D01*
X126821564Y-56888164D01*
X126806933Y-56951791D01*
X126805115Y-56959695D01*
X124596059Y-56959695D01*
X124637170Y-56908472D01*
X124651290Y-56847556D01*
X124654237Y-56834842D01*
X124654237Y-56834839D01*
X124654735Y-56832692D01*
X124654736Y-56832082D01*
X124637436Y-56756242D01*
X124588958Y-56695406D01*
X124523424Y-56663796D01*
X124522852Y-56663520D01*
X124518894Y-56661611D01*
X124514501Y-56661607D01*
X124514500Y-56661607D01*
X124480187Y-56661577D01*
X124441105Y-56661543D01*
X124370983Y-56695216D01*
X124322399Y-56755967D01*
X124321415Y-56760246D01*
X124306165Y-56826564D01*
X124304966Y-56831777D01*
X124322134Y-56907647D01*
X124324866Y-56911088D01*
X124329753Y-56917243D01*
X124370505Y-56968568D01*
X124374458Y-56970483D01*
X124374459Y-56970484D01*
X124407665Y-56986572D01*
X124427503Y-57008876D01*
X124425759Y-57038674D01*
X124407544Y-57056826D01*
X124383046Y-57068590D01*
X124383043Y-57068592D01*
X124379085Y-57070493D01*
X124330501Y-57131244D01*
X124329517Y-57135523D01*
X124314998Y-57198663D01*
X124313068Y-57207054D01*
X124330236Y-57282924D01*
X124332968Y-57286365D01*
X124343552Y-57299695D01*
X124378607Y-57343845D01*
X124382558Y-57345759D01*
X124382559Y-57345760D01*
X124437363Y-57372312D01*
X124457200Y-57394616D01*
X124455456Y-57424415D01*
X124437241Y-57442566D01*
X124379085Y-57470493D01*
X124333719Y-57527221D01*
X124332315Y-57528976D01*
X124306170Y-57543379D01*
X124277499Y-57535076D01*
X124270971Y-57526876D01*
X124270538Y-57527221D01*
X124222060Y-57466385D01*
X124165180Y-57438949D01*
X124155954Y-57434499D01*
X124151996Y-57432590D01*
X124147603Y-57432586D01*
X124147602Y-57432586D01*
X124113289Y-57432556D01*
X124074207Y-57432522D01*
X124004085Y-57466195D01*
X123955501Y-57526946D01*
X123954517Y-57531225D01*
X123942428Y-57583797D01*
X123938068Y-57602756D01*
X123419988Y-57602756D01*
X123419158Y-57599116D01*
X123370680Y-57538280D01*
X123300616Y-57504485D01*
X123296223Y-57504481D01*
X123296222Y-57504481D01*
X123261909Y-57504451D01*
X123222827Y-57504417D01*
X123152705Y-57538090D01*
X123149962Y-57541520D01*
X123115099Y-57585114D01*
X123088954Y-57599517D01*
X123060283Y-57591214D01*
X123046618Y-57569430D01*
X123040910Y-57544407D01*
X123039933Y-57540124D01*
X122991455Y-57479288D01*
X122921391Y-57445493D01*
X122916998Y-57445489D01*
X122916997Y-57445489D01*
X122882684Y-57445459D01*
X122843602Y-57445425D01*
X122773480Y-57479098D01*
X122724896Y-57539849D01*
X122723912Y-57544128D01*
X122709372Y-57607359D01*
X122707463Y-57615659D01*
X115773072Y-57615659D01*
X115858935Y-57488238D01*
X115860395Y-57486214D01*
X115867352Y-57477197D01*
X116062564Y-57224160D01*
X116089153Y-57189695D01*
X121205115Y-57189695D01*
X121222283Y-57265565D01*
X121270654Y-57326486D01*
X121274605Y-57328400D01*
X121274606Y-57328401D01*
X121287529Y-57334662D01*
X121340659Y-57360403D01*
X121379456Y-57360504D01*
X121414055Y-57360595D01*
X121414057Y-57360595D01*
X121418448Y-57360606D01*
X121488629Y-57327056D01*
X121537319Y-57266390D01*
X121546180Y-57228161D01*
X121548792Y-57216893D01*
X121566147Y-57192607D01*
X121593558Y-57188033D01*
X121594372Y-57188427D01*
X121632872Y-57188527D01*
X121667768Y-57188619D01*
X121667770Y-57188619D01*
X121672161Y-57188630D01*
X121742342Y-57155080D01*
X121791032Y-57094414D01*
X121803645Y-57040000D01*
X121808099Y-57020784D01*
X121808099Y-57020781D01*
X121808597Y-57018634D01*
X121808598Y-57018024D01*
X121791298Y-56942184D01*
X121742820Y-56881348D01*
X121692787Y-56857215D01*
X121676714Y-56849462D01*
X121672756Y-56847553D01*
X121668363Y-56847549D01*
X121668362Y-56847549D01*
X121634049Y-56847519D01*
X121594967Y-56847485D01*
X121524845Y-56881158D01*
X121476261Y-56941909D01*
X121475277Y-56946186D01*
X121475277Y-56946187D01*
X121472171Y-56959695D01*
X121465051Y-56990660D01*
X121464956Y-56991072D01*
X121447644Y-57015388D01*
X121420092Y-57020035D01*
X121419043Y-57019529D01*
X121414653Y-57019525D01*
X121414652Y-57019525D01*
X121380055Y-57019495D01*
X121341254Y-57019461D01*
X121271132Y-57053134D01*
X121222548Y-57113885D01*
X121221564Y-57118164D01*
X121206626Y-57183125D01*
X121205115Y-57189695D01*
X116089153Y-57189695D01*
X116227962Y-57009770D01*
X116229553Y-57007839D01*
X116626906Y-56555935D01*
X116628617Y-56554111D01*
X116873033Y-56309695D01*
X119835115Y-56309695D01*
X119852283Y-56385565D01*
X119900654Y-56446486D01*
X119904605Y-56448400D01*
X119904606Y-56448401D01*
X119927387Y-56459438D01*
X119970659Y-56480403D01*
X120009456Y-56480504D01*
X120044055Y-56480595D01*
X120044057Y-56480595D01*
X120048448Y-56480606D01*
X120118629Y-56447056D01*
X120133462Y-56428574D01*
X121911805Y-56428574D01*
X121928973Y-56504444D01*
X121977344Y-56565365D01*
X121981296Y-56567280D01*
X121981300Y-56567283D01*
X122014722Y-56583476D01*
X122034559Y-56605780D01*
X122032955Y-56633376D01*
X122032548Y-56633885D01*
X122031564Y-56638164D01*
X122017656Y-56698646D01*
X122015115Y-56709695D01*
X122023125Y-56745094D01*
X122031205Y-56780799D01*
X122032283Y-56785565D01*
X122035015Y-56789006D01*
X122035427Y-56789525D01*
X122080654Y-56846486D01*
X122084605Y-56848400D01*
X122084606Y-56848401D01*
X122107874Y-56859674D01*
X122150659Y-56880403D01*
X122189456Y-56880504D01*
X122224055Y-56880595D01*
X122224057Y-56880595D01*
X122228448Y-56880606D01*
X122263633Y-56863786D01*
X122293439Y-56862198D01*
X122315639Y-56882151D01*
X122318491Y-56890365D01*
X122322464Y-56907923D01*
X122325196Y-56911364D01*
X122370835Y-56968844D01*
X122369812Y-56969656D01*
X122381359Y-56990660D01*
X122373032Y-57019324D01*
X122359479Y-57030096D01*
X122321350Y-57048406D01*
X122272766Y-57109157D01*
X122271782Y-57113436D01*
X122259520Y-57166761D01*
X122255333Y-57184967D01*
X122264202Y-57224160D01*
X122271421Y-57256062D01*
X122272501Y-57260837D01*
X122320872Y-57321758D01*
X122324823Y-57323672D01*
X122324824Y-57323673D01*
X122343068Y-57332512D01*
X122390877Y-57355675D01*
X122429674Y-57355776D01*
X122464273Y-57355867D01*
X122464275Y-57355867D01*
X122468666Y-57355878D01*
X122538847Y-57322328D01*
X122587537Y-57261662D01*
X122599484Y-57210119D01*
X122604604Y-57188032D01*
X122604604Y-57188029D01*
X122605102Y-57185882D01*
X122605103Y-57185272D01*
X122587803Y-57109432D01*
X122555258Y-57068590D01*
X122539325Y-57048596D01*
X122540459Y-57047692D01*
X122529051Y-57027030D01*
X122537328Y-56998351D01*
X122550986Y-56987496D01*
X122588810Y-56969414D01*
X122637500Y-56908748D01*
X122649619Y-56856462D01*
X122654567Y-56835118D01*
X122654567Y-56835115D01*
X122655065Y-56832968D01*
X122655066Y-56832358D01*
X122637766Y-56756518D01*
X122589288Y-56695682D01*
X122519224Y-56661887D01*
X122514831Y-56661883D01*
X122514830Y-56661883D01*
X122480517Y-56661853D01*
X122441435Y-56661819D01*
X122413720Y-56675128D01*
X122406577Y-56678558D01*
X122376773Y-56680198D01*
X122354538Y-56660283D01*
X122351672Y-56652075D01*
X122348562Y-56638443D01*
X122347585Y-56634160D01*
X122299107Y-56573324D01*
X122262028Y-56555439D01*
X122242153Y-56533171D01*
X122243756Y-56505584D01*
X122244009Y-56505269D01*
X122249320Y-56482359D01*
X122255544Y-56455507D01*
X123161167Y-56455507D01*
X123178335Y-56531377D01*
X123226706Y-56592298D01*
X123230659Y-56594213D01*
X123230660Y-56594214D01*
X123290129Y-56623026D01*
X123309967Y-56645330D01*
X123308223Y-56675128D01*
X123290008Y-56693280D01*
X123238228Y-56718145D01*
X123238225Y-56718147D01*
X123234267Y-56720048D01*
X123185683Y-56780799D01*
X123184699Y-56785078D01*
X123170332Y-56847556D01*
X123168250Y-56856609D01*
X123185418Y-56932479D01*
X123188150Y-56935920D01*
X123196302Y-56946187D01*
X123233789Y-56993400D01*
X123237740Y-56995314D01*
X123237741Y-56995315D01*
X123253102Y-57002757D01*
X123303794Y-57027317D01*
X123342591Y-57027418D01*
X123377190Y-57027509D01*
X123377192Y-57027509D01*
X123381583Y-57027520D01*
X123451764Y-56993970D01*
X123500454Y-56933304D01*
X123512553Y-56881106D01*
X123517521Y-56859674D01*
X123517521Y-56859671D01*
X123518019Y-56857524D01*
X123518020Y-56856914D01*
X123500720Y-56781074D01*
X123452242Y-56720238D01*
X123389007Y-56689737D01*
X123369131Y-56667468D01*
X123370824Y-56637666D01*
X123389130Y-56619424D01*
X123396312Y-56615991D01*
X123444681Y-56592868D01*
X123493371Y-56532202D01*
X123504995Y-56482054D01*
X123888068Y-56482054D01*
X123905236Y-56557924D01*
X123907968Y-56561365D01*
X123920192Y-56576761D01*
X123953607Y-56618845D01*
X123957558Y-56620759D01*
X123957559Y-56620760D01*
X123978125Y-56630724D01*
X124023612Y-56652762D01*
X124062409Y-56652863D01*
X124097008Y-56652954D01*
X124097010Y-56652954D01*
X124101401Y-56652965D01*
X124171582Y-56619415D01*
X124220272Y-56558749D01*
X124237837Y-56482969D01*
X124237838Y-56482359D01*
X124228870Y-56443045D01*
X124221515Y-56410801D01*
X124221515Y-56410800D01*
X124220538Y-56406519D01*
X124172060Y-56345683D01*
X124101996Y-56311888D01*
X124097603Y-56311884D01*
X124097602Y-56311884D01*
X124063289Y-56311854D01*
X124024207Y-56311820D01*
X123954085Y-56345493D01*
X123905501Y-56406244D01*
X123904517Y-56410523D01*
X123893269Y-56459438D01*
X123888068Y-56482054D01*
X123504995Y-56482054D01*
X123510438Y-56458572D01*
X123510438Y-56458569D01*
X123510936Y-56456422D01*
X123510937Y-56455812D01*
X123493637Y-56379972D01*
X123445175Y-56319156D01*
X123436922Y-56290471D01*
X123451370Y-56264352D01*
X123475776Y-56255852D01*
X123483777Y-56255873D01*
X123483779Y-56255873D01*
X123488171Y-56255884D01*
X123558352Y-56222334D01*
X123607042Y-56161668D01*
X123619846Y-56106430D01*
X123624109Y-56088038D01*
X123624109Y-56088035D01*
X123624607Y-56085888D01*
X123624608Y-56085278D01*
X123623873Y-56082054D01*
X125963068Y-56082054D01*
X125968922Y-56107924D01*
X125976506Y-56141438D01*
X125980236Y-56157924D01*
X125982968Y-56161365D01*
X125995036Y-56176564D01*
X126028607Y-56218845D01*
X126032558Y-56220759D01*
X126032559Y-56220760D01*
X126049612Y-56229022D01*
X126098612Y-56252762D01*
X126137409Y-56252863D01*
X126172008Y-56252954D01*
X126172010Y-56252954D01*
X126176401Y-56252965D01*
X126246582Y-56219415D01*
X126295272Y-56158749D01*
X126306068Y-56112174D01*
X126312339Y-56085119D01*
X126312339Y-56085116D01*
X126312837Y-56082969D01*
X126312838Y-56082359D01*
X126295538Y-56006519D01*
X126247060Y-55945683D01*
X126197027Y-55921550D01*
X126180954Y-55913797D01*
X126176996Y-55911888D01*
X126172603Y-55911884D01*
X126172602Y-55911884D01*
X126138289Y-55911854D01*
X126099207Y-55911820D01*
X126029085Y-55945493D01*
X125980501Y-56006244D01*
X125979517Y-56010523D01*
X125968504Y-56058416D01*
X125963068Y-56082054D01*
X123623873Y-56082054D01*
X123607308Y-56009438D01*
X123558830Y-55948602D01*
X123499182Y-55919831D01*
X123492724Y-55916716D01*
X123488766Y-55914807D01*
X123484373Y-55914803D01*
X123484372Y-55914803D01*
X123450059Y-55914773D01*
X123410977Y-55914739D01*
X123340855Y-55948412D01*
X123292271Y-56009163D01*
X123291287Y-56013442D01*
X123275933Y-56080212D01*
X123274838Y-56084973D01*
X123292006Y-56160843D01*
X123294738Y-56164284D01*
X123340377Y-56221764D01*
X123338586Y-56223186D01*
X123348933Y-56241991D01*
X123340615Y-56270658D01*
X123314463Y-56285047D01*
X123310137Y-56285284D01*
X123305295Y-56285280D01*
X123297306Y-56285273D01*
X123227184Y-56318946D01*
X123178600Y-56379697D01*
X123177616Y-56383976D01*
X123163898Y-56443632D01*
X123161167Y-56455507D01*
X122255544Y-56455507D01*
X122261076Y-56431639D01*
X122261076Y-56431636D01*
X122261574Y-56429489D01*
X122261575Y-56428879D01*
X122244275Y-56353039D01*
X122195797Y-56292203D01*
X122125733Y-56258408D01*
X122121340Y-56258404D01*
X122121339Y-56258404D01*
X122087026Y-56258374D01*
X122047944Y-56258340D01*
X121977822Y-56292013D01*
X121929238Y-56352764D01*
X121928254Y-56357043D01*
X121916877Y-56406519D01*
X121911805Y-56428574D01*
X120133462Y-56428574D01*
X120167319Y-56386390D01*
X120176754Y-56345683D01*
X120184386Y-56312760D01*
X120184386Y-56312757D01*
X120184884Y-56310610D01*
X120184885Y-56310000D01*
X120167585Y-56234160D01*
X120119107Y-56173324D01*
X120049043Y-56139529D01*
X120044650Y-56139525D01*
X120044649Y-56139525D01*
X120010336Y-56139495D01*
X119971254Y-56139461D01*
X119901132Y-56173134D01*
X119852548Y-56233885D01*
X119851564Y-56238164D01*
X119839536Y-56290471D01*
X119835115Y-56309695D01*
X116873033Y-56309695D01*
X117054111Y-56128617D01*
X117055935Y-56126906D01*
X117334055Y-55882359D01*
X118058133Y-55882359D01*
X118058882Y-55886125D01*
X118074496Y-55964626D01*
X118074497Y-55964628D01*
X118075246Y-55968394D01*
X118077380Y-55971588D01*
X118077381Y-55971590D01*
X118110838Y-56021661D01*
X118123981Y-56041331D01*
X118138549Y-56051065D01*
X118193722Y-56087931D01*
X118193724Y-56087932D01*
X118196918Y-56090066D01*
X118200684Y-56090815D01*
X118200686Y-56090816D01*
X118279187Y-56106430D01*
X118282953Y-56107179D01*
X118286719Y-56106430D01*
X118365220Y-56090816D01*
X118365222Y-56090815D01*
X118368988Y-56090066D01*
X118372182Y-56087932D01*
X118372184Y-56087931D01*
X118427357Y-56051065D01*
X118427813Y-56050760D01*
X121321817Y-56050760D01*
X121338985Y-56126630D01*
X121341717Y-56130071D01*
X121349227Y-56139529D01*
X121387356Y-56187551D01*
X121391307Y-56189465D01*
X121391308Y-56189466D01*
X121403705Y-56195472D01*
X121457361Y-56221468D01*
X121496158Y-56221569D01*
X121530757Y-56221660D01*
X121530759Y-56221660D01*
X121535150Y-56221671D01*
X121605331Y-56188121D01*
X121654021Y-56127455D01*
X121664474Y-56082359D01*
X121670095Y-56058111D01*
X122350993Y-56058111D01*
X122357741Y-56087931D01*
X122366498Y-56126630D01*
X122368161Y-56133981D01*
X122416532Y-56194902D01*
X122420483Y-56196816D01*
X122420484Y-56196817D01*
X122433151Y-56202954D01*
X122486537Y-56228819D01*
X122525334Y-56228920D01*
X122559933Y-56229011D01*
X122559935Y-56229011D01*
X122564326Y-56229022D01*
X122634507Y-56195472D01*
X122683197Y-56134806D01*
X122683234Y-56134647D01*
X122703717Y-56116462D01*
X122733514Y-56118233D01*
X122747021Y-56129064D01*
X122778607Y-56168845D01*
X122782558Y-56170759D01*
X122782559Y-56170760D01*
X122810114Y-56184110D01*
X122848612Y-56202762D01*
X122887409Y-56202863D01*
X122922008Y-56202954D01*
X122922010Y-56202954D01*
X122926401Y-56202965D01*
X122996582Y-56169415D01*
X123045272Y-56108749D01*
X123062837Y-56032969D01*
X123062838Y-56032359D01*
X123045538Y-55956519D01*
X122997060Y-55895683D01*
X122926996Y-55861888D01*
X122922603Y-55861884D01*
X122922602Y-55861884D01*
X122888289Y-55861854D01*
X122849207Y-55861820D01*
X122779085Y-55895493D01*
X122730501Y-55956244D01*
X122730455Y-55956207D01*
X122710186Y-55974267D01*
X122680386Y-55972548D01*
X122666863Y-55961744D01*
X122634985Y-55921740D01*
X122587681Y-55898923D01*
X122568879Y-55889854D01*
X122564921Y-55887945D01*
X122560528Y-55887941D01*
X122560527Y-55887941D01*
X122526214Y-55887911D01*
X122487132Y-55887877D01*
X122417010Y-55921550D01*
X122368426Y-55982301D01*
X122367442Y-55986580D01*
X122351979Y-56053825D01*
X122350993Y-56058111D01*
X121670095Y-56058111D01*
X121671088Y-56053825D01*
X121671088Y-56053822D01*
X121671586Y-56051675D01*
X121671587Y-56051065D01*
X121654287Y-55975225D01*
X121605809Y-55914389D01*
X121550977Y-55887941D01*
X121539703Y-55882503D01*
X121535745Y-55880594D01*
X121531352Y-55880590D01*
X121531351Y-55880590D01*
X121497038Y-55880560D01*
X121457956Y-55880526D01*
X121387834Y-55914199D01*
X121339250Y-55974950D01*
X121338266Y-55979229D01*
X121323495Y-56043465D01*
X121321817Y-56050760D01*
X118427813Y-56050760D01*
X118441925Y-56041331D01*
X118455068Y-56021661D01*
X118488525Y-55971590D01*
X118488526Y-55971588D01*
X118490660Y-55968394D01*
X118491409Y-55964628D01*
X118491410Y-55964626D01*
X118507024Y-55886125D01*
X118507773Y-55882359D01*
X118503701Y-55861888D01*
X118491410Y-55800092D01*
X118491409Y-55800090D01*
X118490660Y-55796324D01*
X118488526Y-55793130D01*
X118488525Y-55793128D01*
X118444059Y-55726581D01*
X118441925Y-55723387D01*
X118386479Y-55686339D01*
X118372184Y-55676787D01*
X118372182Y-55676786D01*
X118368988Y-55674652D01*
X118365222Y-55673903D01*
X118365220Y-55673902D01*
X118286719Y-55658288D01*
X118282953Y-55657539D01*
X118279187Y-55658288D01*
X118200686Y-55673902D01*
X118200684Y-55673903D01*
X118196918Y-55674652D01*
X118193724Y-55676786D01*
X118193722Y-55676787D01*
X118179427Y-55686339D01*
X118123981Y-55723387D01*
X118121847Y-55726581D01*
X118077381Y-55793128D01*
X118077380Y-55793130D01*
X118075246Y-55796324D01*
X118074497Y-55800090D01*
X118074496Y-55800092D01*
X118062205Y-55861888D01*
X118058133Y-55882359D01*
X117334055Y-55882359D01*
X117507839Y-55729553D01*
X117509770Y-55727962D01*
X117823721Y-55485755D01*
X117986218Y-55360392D01*
X117988242Y-55358932D01*
X117989317Y-55358208D01*
X118254230Y-55179695D01*
X119285115Y-55179695D01*
X119302283Y-55255565D01*
X119305015Y-55259006D01*
X119315879Y-55272689D01*
X119350654Y-55316486D01*
X119354605Y-55318400D01*
X119354606Y-55318401D01*
X119378731Y-55330089D01*
X119420659Y-55350403D01*
X119459456Y-55350504D01*
X119494055Y-55350595D01*
X119494057Y-55350595D01*
X119498448Y-55350606D01*
X119568629Y-55317056D01*
X119617319Y-55256390D01*
X119630413Y-55199900D01*
X119634386Y-55182760D01*
X119634386Y-55182757D01*
X119634884Y-55180610D01*
X119634885Y-55180000D01*
X119623479Y-55130000D01*
X120325180Y-55130000D01*
X120325929Y-55133766D01*
X120341543Y-55212267D01*
X120341544Y-55212269D01*
X120342293Y-55216035D01*
X120344427Y-55219229D01*
X120344428Y-55219231D01*
X120373122Y-55262174D01*
X120391028Y-55288972D01*
X120400796Y-55295499D01*
X120460769Y-55335572D01*
X120460771Y-55335573D01*
X120463965Y-55337707D01*
X120467731Y-55338456D01*
X120467733Y-55338457D01*
X120546234Y-55354071D01*
X120550000Y-55354820D01*
X120553766Y-55354071D01*
X120632267Y-55338457D01*
X120632269Y-55338456D01*
X120636035Y-55337707D01*
X120639229Y-55335573D01*
X120639231Y-55335572D01*
X120699204Y-55295499D01*
X120708972Y-55288972D01*
X120726878Y-55262174D01*
X120755572Y-55219231D01*
X120755573Y-55219229D01*
X120757707Y-55216035D01*
X120758456Y-55212269D01*
X120758457Y-55212267D01*
X120764875Y-55180000D01*
X120905180Y-55180000D01*
X120905929Y-55183766D01*
X120921543Y-55262267D01*
X120921544Y-55262269D01*
X120922293Y-55266035D01*
X120924427Y-55269229D01*
X120924428Y-55269231D01*
X120944988Y-55300000D01*
X120971028Y-55338972D01*
X120988800Y-55350847D01*
X121040769Y-55385572D01*
X121040771Y-55385573D01*
X121043965Y-55387707D01*
X121047731Y-55388456D01*
X121047733Y-55388457D01*
X121126234Y-55404071D01*
X121130000Y-55404820D01*
X121133766Y-55404071D01*
X121212267Y-55388457D01*
X121212269Y-55388456D01*
X121216035Y-55387707D01*
X121219229Y-55385573D01*
X121219231Y-55385572D01*
X121251467Y-55364032D01*
X121280742Y-55358208D01*
X121305561Y-55374792D01*
X121311142Y-55405199D01*
X121299948Y-55453879D01*
X121298068Y-55462054D01*
X121315236Y-55537924D01*
X121317968Y-55541365D01*
X121333401Y-55560802D01*
X121363607Y-55598845D01*
X121367558Y-55600759D01*
X121367559Y-55600760D01*
X121379446Y-55606519D01*
X121433612Y-55632762D01*
X121472409Y-55632863D01*
X121507008Y-55632954D01*
X121507010Y-55632954D01*
X121511401Y-55632965D01*
X121513307Y-55632054D01*
X123858568Y-55632054D01*
X123875736Y-55707924D01*
X123878468Y-55711365D01*
X123890550Y-55726581D01*
X123924107Y-55768845D01*
X123928058Y-55770759D01*
X123928059Y-55770760D01*
X123959109Y-55785803D01*
X123994112Y-55802762D01*
X124032909Y-55802863D01*
X124067508Y-55802954D01*
X124067510Y-55802954D01*
X124071901Y-55802965D01*
X124142082Y-55769415D01*
X124190772Y-55708749D01*
X124196960Y-55682054D01*
X124818568Y-55682054D01*
X124835736Y-55757924D01*
X124884107Y-55818845D01*
X124888058Y-55820759D01*
X124888059Y-55820760D01*
X124919109Y-55835803D01*
X124954112Y-55852762D01*
X124992909Y-55852863D01*
X125027508Y-55852954D01*
X125027510Y-55852954D01*
X125031901Y-55852965D01*
X125102082Y-55819415D01*
X125150772Y-55758749D01*
X125161755Y-55711365D01*
X125167839Y-55685119D01*
X125167839Y-55685116D01*
X125168337Y-55682969D01*
X125168338Y-55682359D01*
X125151038Y-55606519D01*
X125102560Y-55545683D01*
X125032496Y-55511888D01*
X125028103Y-55511884D01*
X125028102Y-55511884D01*
X124993789Y-55511854D01*
X124954707Y-55511820D01*
X124884585Y-55545493D01*
X124836001Y-55606244D01*
X124835017Y-55610523D01*
X124820443Y-55673902D01*
X124818568Y-55682054D01*
X124196960Y-55682054D01*
X124208337Y-55632969D01*
X124208338Y-55632359D01*
X124191038Y-55556519D01*
X124142560Y-55495683D01*
X124072496Y-55461888D01*
X124068103Y-55461884D01*
X124068102Y-55461884D01*
X124033789Y-55461854D01*
X123994707Y-55461820D01*
X123924585Y-55495493D01*
X123876001Y-55556244D01*
X123875017Y-55560523D01*
X123866074Y-55599415D01*
X123858568Y-55632054D01*
X121513307Y-55632054D01*
X121581582Y-55599415D01*
X121630272Y-55538749D01*
X121641949Y-55488371D01*
X121647339Y-55465119D01*
X121647339Y-55465116D01*
X121647837Y-55462969D01*
X121647838Y-55462359D01*
X121635680Y-55409060D01*
X122134463Y-55409060D01*
X122151631Y-55484930D01*
X122154363Y-55488371D01*
X122158653Y-55493774D01*
X122200002Y-55545851D01*
X122203953Y-55547765D01*
X122203954Y-55547766D01*
X122214929Y-55553083D01*
X122270007Y-55579768D01*
X122308804Y-55579869D01*
X122343403Y-55579960D01*
X122343405Y-55579960D01*
X122347796Y-55579971D01*
X122417977Y-55546421D01*
X122466667Y-55485755D01*
X122476600Y-55442900D01*
X122483734Y-55412125D01*
X122483734Y-55412122D01*
X122484232Y-55409975D01*
X122484233Y-55409365D01*
X122466933Y-55333525D01*
X122418455Y-55272689D01*
X122348391Y-55238894D01*
X122343998Y-55238890D01*
X122343997Y-55238890D01*
X122309684Y-55238860D01*
X122270602Y-55238826D01*
X122200480Y-55272499D01*
X122151896Y-55333250D01*
X122150912Y-55337529D01*
X122138662Y-55390802D01*
X122134463Y-55409060D01*
X121635680Y-55409060D01*
X121630538Y-55386519D01*
X121582060Y-55325683D01*
X121520061Y-55295778D01*
X121515954Y-55293797D01*
X121511996Y-55291888D01*
X121507603Y-55291884D01*
X121507602Y-55291884D01*
X121473289Y-55291854D01*
X121434207Y-55291820D01*
X121426546Y-55295499D01*
X121391348Y-55312401D01*
X121361544Y-55314041D01*
X121339309Y-55294126D01*
X121338543Y-55266201D01*
X121337707Y-55266035D01*
X121338437Y-55262363D01*
X121338456Y-55262267D01*
X121338457Y-55262266D01*
X121354071Y-55183766D01*
X121354411Y-55182054D01*
X124863068Y-55182054D01*
X124880236Y-55257924D01*
X124882968Y-55261365D01*
X124886676Y-55266035D01*
X124928607Y-55318845D01*
X124932558Y-55320759D01*
X124932559Y-55320760D01*
X124951815Y-55330089D01*
X124998612Y-55352762D01*
X125037409Y-55352863D01*
X125072008Y-55352954D01*
X125072010Y-55352954D01*
X125076401Y-55352965D01*
X125146582Y-55319415D01*
X125195272Y-55258749D01*
X125207184Y-55207356D01*
X125212339Y-55185119D01*
X125212339Y-55185116D01*
X125212837Y-55182969D01*
X125212838Y-55182359D01*
X125195538Y-55106519D01*
X125147060Y-55045683D01*
X125076996Y-55011888D01*
X125072603Y-55011884D01*
X125072602Y-55011884D01*
X125038289Y-55011854D01*
X124999207Y-55011820D01*
X124929085Y-55045493D01*
X124880501Y-55106244D01*
X124879517Y-55110523D01*
X124864595Y-55175414D01*
X124863068Y-55182054D01*
X121354411Y-55182054D01*
X121354820Y-55180000D01*
X121349443Y-55152965D01*
X121338457Y-55097733D01*
X121338456Y-55097731D01*
X121337707Y-55093965D01*
X121335573Y-55090771D01*
X121335572Y-55090769D01*
X121293479Y-55027773D01*
X121288972Y-55021028D01*
X121243140Y-54990404D01*
X121219231Y-54974428D01*
X121219229Y-54974427D01*
X121216035Y-54972293D01*
X121212269Y-54971544D01*
X121212267Y-54971543D01*
X121133766Y-54955929D01*
X121130000Y-54955180D01*
X121126234Y-54955929D01*
X121047733Y-54971543D01*
X121047731Y-54971544D01*
X121043965Y-54972293D01*
X121040771Y-54974427D01*
X121040769Y-54974428D01*
X121016860Y-54990404D01*
X120971028Y-55021028D01*
X120966521Y-55027773D01*
X120924428Y-55090769D01*
X120924427Y-55090771D01*
X120922293Y-55093965D01*
X120921544Y-55097731D01*
X120921543Y-55097733D01*
X120910557Y-55152965D01*
X120905180Y-55180000D01*
X120764875Y-55180000D01*
X120774071Y-55133766D01*
X120774820Y-55130000D01*
X120771096Y-55111279D01*
X120758457Y-55047733D01*
X120758456Y-55047731D01*
X120757707Y-55043965D01*
X120755573Y-55040771D01*
X120755572Y-55040769D01*
X120711106Y-54974222D01*
X120708972Y-54971028D01*
X120658306Y-54937174D01*
X120639231Y-54924428D01*
X120639229Y-54924427D01*
X120636035Y-54922293D01*
X120632269Y-54921544D01*
X120632267Y-54921543D01*
X120553766Y-54905929D01*
X120550000Y-54905180D01*
X120546234Y-54905929D01*
X120467733Y-54921543D01*
X120467731Y-54921544D01*
X120463965Y-54922293D01*
X120460771Y-54924427D01*
X120460769Y-54924428D01*
X120441694Y-54937174D01*
X120391028Y-54971028D01*
X120388894Y-54974222D01*
X120344428Y-55040769D01*
X120344427Y-55040771D01*
X120342293Y-55043965D01*
X120341544Y-55047731D01*
X120341543Y-55047733D01*
X120328904Y-55111279D01*
X120325180Y-55130000D01*
X119623479Y-55130000D01*
X119617585Y-55104160D01*
X119569107Y-55043324D01*
X119526285Y-55022669D01*
X119503001Y-55011438D01*
X119499043Y-55009529D01*
X119494650Y-55009525D01*
X119494649Y-55009525D01*
X119460336Y-55009495D01*
X119421254Y-55009461D01*
X119351132Y-55043134D01*
X119302548Y-55103885D01*
X119301564Y-55108164D01*
X119291262Y-55152965D01*
X119285115Y-55179695D01*
X118254230Y-55179695D01*
X118322389Y-55133766D01*
X118487257Y-55022669D01*
X118489375Y-55021338D01*
X118921594Y-54768782D01*
X119008936Y-54717746D01*
X119011133Y-54716555D01*
X119061606Y-54691254D01*
X119129831Y-54657054D01*
X123188068Y-54657054D01*
X123205236Y-54732924D01*
X123253607Y-54793845D01*
X123257558Y-54795759D01*
X123257559Y-54795760D01*
X123288609Y-54810803D01*
X123323612Y-54827762D01*
X123362409Y-54827863D01*
X123397008Y-54827954D01*
X123397010Y-54827954D01*
X123401401Y-54827965D01*
X123405832Y-54825847D01*
X123408221Y-54824705D01*
X123438028Y-54823118D01*
X123460227Y-54843073D01*
X123463227Y-54856361D01*
X123463068Y-54857054D01*
X123468121Y-54879383D01*
X123478314Y-54924428D01*
X123480236Y-54932924D01*
X123528607Y-54993845D01*
X123532558Y-54995759D01*
X123532559Y-54995760D01*
X123560839Y-55009461D01*
X123598612Y-55027762D01*
X123637409Y-55027863D01*
X123672008Y-55027954D01*
X123672010Y-55027954D01*
X123676401Y-55027965D01*
X123746582Y-54994415D01*
X123756503Y-54982054D01*
X123938068Y-54982054D01*
X123947610Y-55024222D01*
X123953840Y-55051753D01*
X123955236Y-55057924D01*
X124003607Y-55118845D01*
X124007558Y-55120759D01*
X124007559Y-55120760D01*
X124018858Y-55126234D01*
X124073612Y-55152762D01*
X124112409Y-55152863D01*
X124147008Y-55152954D01*
X124147010Y-55152954D01*
X124151401Y-55152965D01*
X124221582Y-55119415D01*
X124244573Y-55090769D01*
X124266392Y-55063584D01*
X124292562Y-55049227D01*
X124321218Y-55057580D01*
X124327349Y-55063743D01*
X124371091Y-55118834D01*
X124375042Y-55120748D01*
X124375043Y-55120749D01*
X124394138Y-55130000D01*
X124441096Y-55152751D01*
X124479893Y-55152852D01*
X124514492Y-55152943D01*
X124514494Y-55152943D01*
X124518885Y-55152954D01*
X124589066Y-55119404D01*
X124637756Y-55058738D01*
X124648173Y-55013797D01*
X124654823Y-54985108D01*
X124654823Y-54985105D01*
X124655321Y-54982958D01*
X124655322Y-54982348D01*
X124638022Y-54906508D01*
X124589544Y-54845672D01*
X124519480Y-54811877D01*
X124515087Y-54811873D01*
X124515086Y-54811873D01*
X124480773Y-54811843D01*
X124441691Y-54811809D01*
X124371569Y-54845482D01*
X124368826Y-54848912D01*
X124327113Y-54901071D01*
X124300968Y-54915474D01*
X124272297Y-54907171D01*
X124266155Y-54901018D01*
X124224799Y-54849120D01*
X124222060Y-54845683D01*
X124151996Y-54811888D01*
X124147603Y-54811884D01*
X124147602Y-54811884D01*
X124113289Y-54811854D01*
X124074207Y-54811820D01*
X124004085Y-54845493D01*
X123955501Y-54906244D01*
X123954517Y-54910523D01*
X123939689Y-54975007D01*
X123938068Y-54982054D01*
X123756503Y-54982054D01*
X123795272Y-54933749D01*
X123807438Y-54881261D01*
X123812339Y-54860119D01*
X123812339Y-54860116D01*
X123812837Y-54857969D01*
X123812838Y-54857359D01*
X123795538Y-54781519D01*
X123747060Y-54720683D01*
X123676996Y-54686888D01*
X123672603Y-54686884D01*
X123672602Y-54686884D01*
X123638289Y-54686854D01*
X123599207Y-54686820D01*
X123595250Y-54688720D01*
X123595246Y-54688721D01*
X123593387Y-54689614D01*
X123563583Y-54691254D01*
X123541349Y-54671338D01*
X123537747Y-54658788D01*
X123537715Y-54658497D01*
X123537837Y-54657969D01*
X123537838Y-54657359D01*
X123520538Y-54581519D01*
X123472060Y-54520683D01*
X123401996Y-54486888D01*
X123397603Y-54486884D01*
X123397602Y-54486884D01*
X123363289Y-54486854D01*
X123324207Y-54486820D01*
X123254085Y-54520493D01*
X123205501Y-54581244D01*
X123204517Y-54585523D01*
X123196169Y-54621827D01*
X123188068Y-54657054D01*
X119129831Y-54657054D01*
X119549097Y-54446885D01*
X119551346Y-54445847D01*
X120005556Y-54253530D01*
X122114346Y-54253530D01*
X122115095Y-54257296D01*
X122130709Y-54335797D01*
X122130710Y-54335799D01*
X122131459Y-54339565D01*
X122133593Y-54342759D01*
X122133594Y-54342761D01*
X122156352Y-54376820D01*
X122180194Y-54412502D01*
X122183388Y-54414636D01*
X122249935Y-54459102D01*
X122249937Y-54459103D01*
X122253131Y-54461237D01*
X122256897Y-54461986D01*
X122256899Y-54461987D01*
X122335400Y-54477601D01*
X122339166Y-54478350D01*
X122342932Y-54477601D01*
X122421433Y-54461987D01*
X122421435Y-54461986D01*
X122425201Y-54461237D01*
X122428395Y-54459103D01*
X122428397Y-54459102D01*
X122494944Y-54414636D01*
X122498138Y-54412502D01*
X122521980Y-54376820D01*
X122544738Y-54342761D01*
X122544739Y-54342759D01*
X122546873Y-54339565D01*
X122547622Y-54335799D01*
X122547623Y-54335797D01*
X122563237Y-54257296D01*
X122563986Y-54253530D01*
X122560904Y-54238035D01*
X122547623Y-54171263D01*
X122547622Y-54171261D01*
X122546873Y-54167495D01*
X122544739Y-54164301D01*
X122544738Y-54164299D01*
X122500272Y-54097752D01*
X122498138Y-54094558D01*
X122478468Y-54081415D01*
X122428397Y-54047958D01*
X122428395Y-54047957D01*
X122425201Y-54045823D01*
X122421435Y-54045074D01*
X122421433Y-54045073D01*
X122342932Y-54029459D01*
X122339166Y-54028710D01*
X122335400Y-54029459D01*
X122256899Y-54045073D01*
X122256897Y-54045074D01*
X122253131Y-54045823D01*
X122249937Y-54047957D01*
X122249935Y-54047958D01*
X122199864Y-54081415D01*
X122180194Y-54094558D01*
X122178060Y-54097752D01*
X122133594Y-54164299D01*
X122133593Y-54164301D01*
X122131459Y-54167495D01*
X122130710Y-54171261D01*
X122130709Y-54171263D01*
X122117428Y-54238035D01*
X122114346Y-54253530D01*
X120005556Y-54253530D01*
X120105480Y-54211221D01*
X120107789Y-54210330D01*
X120448419Y-54091223D01*
X120675824Y-54011707D01*
X120678211Y-54010957D01*
X121257801Y-53849156D01*
X121260230Y-53848561D01*
X121281565Y-53844056D01*
X121849013Y-53724244D01*
X121851450Y-53723810D01*
X122015724Y-53700000D01*
X124987965Y-53700000D01*
X125109707Y-53721749D01*
G37*
%TD.AperFunction*%
%TD*%
M02*
