%TF.GenerationSoftware,KiCad,Pcbnew,(6.0.0)*%
%TF.CreationDate,2022-12-05T09:44:38-05:00*%
%TF.ProjectId,headstage-16stim,68656164-7374-4616-9765-2d3136737469,A*%
%TF.SameCoordinates,Original*%
%TF.FileFunction,AssemblyDrawing,Bot*%
%FSLAX46Y46*%
G04 Gerber Fmt 4.6, Leading zero omitted, Abs format (unit mm)*
G04 Created by KiCad (PCBNEW (6.0.0)) date 2022-12-05 09:44:38*
%MOMM*%
%LPD*%
G01*
G04 APERTURE LIST*
%ADD10C,0.050000*%
%ADD11C,0.100000*%
%ADD12C,0.150000*%
%ADD13C,0.200000*%
G04 APERTURE END LIST*
D10*
%TO.C,C24*%
X115727142Y-57897142D02*
X115741428Y-57882857D01*
X115755714Y-57840000D01*
X115755714Y-57811428D01*
X115741428Y-57768571D01*
X115712857Y-57740000D01*
X115684285Y-57725714D01*
X115627142Y-57711428D01*
X115584285Y-57711428D01*
X115527142Y-57725714D01*
X115498571Y-57740000D01*
X115470000Y-57768571D01*
X115455714Y-57811428D01*
X115455714Y-57840000D01*
X115470000Y-57882857D01*
X115484285Y-57897142D01*
X115484285Y-58011428D02*
X115470000Y-58025714D01*
X115455714Y-58054285D01*
X115455714Y-58125714D01*
X115470000Y-58154285D01*
X115484285Y-58168571D01*
X115512857Y-58182857D01*
X115541428Y-58182857D01*
X115584285Y-58168571D01*
X115755714Y-57997142D01*
X115755714Y-58182857D01*
X115555714Y-58440000D02*
X115755714Y-58440000D01*
X115441428Y-58368571D02*
X115655714Y-58297142D01*
X115655714Y-58482857D01*
%TO.C,TP3*%
X120208571Y-54535714D02*
X120037142Y-54535714D01*
X120122857Y-54835714D02*
X120122857Y-54535714D01*
X119937142Y-54835714D02*
X119937142Y-54535714D01*
X119822857Y-54535714D01*
X119794285Y-54550000D01*
X119780000Y-54564285D01*
X119765714Y-54592857D01*
X119765714Y-54635714D01*
X119780000Y-54664285D01*
X119794285Y-54678571D01*
X119822857Y-54692857D01*
X119937142Y-54692857D01*
X119665714Y-54535714D02*
X119480000Y-54535714D01*
X119580000Y-54650000D01*
X119537142Y-54650000D01*
X119508571Y-54664285D01*
X119494285Y-54678571D01*
X119480000Y-54707142D01*
X119480000Y-54778571D01*
X119494285Y-54807142D01*
X119508571Y-54821428D01*
X119537142Y-54835714D01*
X119622857Y-54835714D01*
X119651428Y-54821428D01*
X119665714Y-54807142D01*
%TO.C,C27*%
X118902857Y-65577142D02*
X118917142Y-65591428D01*
X118960000Y-65605714D01*
X118988571Y-65605714D01*
X119031428Y-65591428D01*
X119060000Y-65562857D01*
X119074285Y-65534285D01*
X119088571Y-65477142D01*
X119088571Y-65434285D01*
X119074285Y-65377142D01*
X119060000Y-65348571D01*
X119031428Y-65320000D01*
X118988571Y-65305714D01*
X118960000Y-65305714D01*
X118917142Y-65320000D01*
X118902857Y-65334285D01*
X118788571Y-65334285D02*
X118774285Y-65320000D01*
X118745714Y-65305714D01*
X118674285Y-65305714D01*
X118645714Y-65320000D01*
X118631428Y-65334285D01*
X118617142Y-65362857D01*
X118617142Y-65391428D01*
X118631428Y-65434285D01*
X118802857Y-65605714D01*
X118617142Y-65605714D01*
X118517142Y-65305714D02*
X118317142Y-65305714D01*
X118445714Y-65605714D01*
%TO.C,R13*%
X129102857Y-70555714D02*
X129202857Y-70412857D01*
X129274285Y-70555714D02*
X129274285Y-70255714D01*
X129160000Y-70255714D01*
X129131428Y-70270000D01*
X129117142Y-70284285D01*
X129102857Y-70312857D01*
X129102857Y-70355714D01*
X129117142Y-70384285D01*
X129131428Y-70398571D01*
X129160000Y-70412857D01*
X129274285Y-70412857D01*
X128817142Y-70555714D02*
X128988571Y-70555714D01*
X128902857Y-70555714D02*
X128902857Y-70255714D01*
X128931428Y-70298571D01*
X128960000Y-70327142D01*
X128988571Y-70341428D01*
X128717142Y-70255714D02*
X128531428Y-70255714D01*
X128631428Y-70370000D01*
X128588571Y-70370000D01*
X128560000Y-70384285D01*
X128545714Y-70398571D01*
X128531428Y-70427142D01*
X128531428Y-70498571D01*
X128545714Y-70527142D01*
X128560000Y-70541428D01*
X128588571Y-70555714D01*
X128674285Y-70555714D01*
X128702857Y-70541428D01*
X128717142Y-70527142D01*
%TO.C,R16*%
X117912857Y-56175714D02*
X118012857Y-56032857D01*
X118084285Y-56175714D02*
X118084285Y-55875714D01*
X117970000Y-55875714D01*
X117941428Y-55890000D01*
X117927142Y-55904285D01*
X117912857Y-55932857D01*
X117912857Y-55975714D01*
X117927142Y-56004285D01*
X117941428Y-56018571D01*
X117970000Y-56032857D01*
X118084285Y-56032857D01*
X117627142Y-56175714D02*
X117798571Y-56175714D01*
X117712857Y-56175714D02*
X117712857Y-55875714D01*
X117741428Y-55918571D01*
X117770000Y-55947142D01*
X117798571Y-55961428D01*
X117370000Y-55875714D02*
X117427142Y-55875714D01*
X117455714Y-55890000D01*
X117470000Y-55904285D01*
X117498571Y-55947142D01*
X117512857Y-56004285D01*
X117512857Y-56118571D01*
X117498571Y-56147142D01*
X117484285Y-56161428D01*
X117455714Y-56175714D01*
X117398571Y-56175714D01*
X117370000Y-56161428D01*
X117355714Y-56147142D01*
X117341428Y-56118571D01*
X117341428Y-56047142D01*
X117355714Y-56018571D01*
X117370000Y-56004285D01*
X117398571Y-55990000D01*
X117455714Y-55990000D01*
X117484285Y-56004285D01*
X117498571Y-56018571D01*
X117512857Y-56047142D01*
%TO.C,C65*%
X118977142Y-68857142D02*
X118991428Y-68842857D01*
X119005714Y-68800000D01*
X119005714Y-68771428D01*
X118991428Y-68728571D01*
X118962857Y-68700000D01*
X118934285Y-68685714D01*
X118877142Y-68671428D01*
X118834285Y-68671428D01*
X118777142Y-68685714D01*
X118748571Y-68700000D01*
X118720000Y-68728571D01*
X118705714Y-68771428D01*
X118705714Y-68800000D01*
X118720000Y-68842857D01*
X118734285Y-68857142D01*
X118705714Y-69114285D02*
X118705714Y-69057142D01*
X118720000Y-69028571D01*
X118734285Y-69014285D01*
X118777142Y-68985714D01*
X118834285Y-68971428D01*
X118948571Y-68971428D01*
X118977142Y-68985714D01*
X118991428Y-69000000D01*
X119005714Y-69028571D01*
X119005714Y-69085714D01*
X118991428Y-69114285D01*
X118977142Y-69128571D01*
X118948571Y-69142857D01*
X118877142Y-69142857D01*
X118848571Y-69128571D01*
X118834285Y-69114285D01*
X118820000Y-69085714D01*
X118820000Y-69028571D01*
X118834285Y-69000000D01*
X118848571Y-68985714D01*
X118877142Y-68971428D01*
X118705714Y-69414285D02*
X118705714Y-69271428D01*
X118848571Y-69257142D01*
X118834285Y-69271428D01*
X118820000Y-69300000D01*
X118820000Y-69371428D01*
X118834285Y-69400000D01*
X118848571Y-69414285D01*
X118877142Y-69428571D01*
X118948571Y-69428571D01*
X118977142Y-69414285D01*
X118991428Y-69400000D01*
X119005714Y-69371428D01*
X119005714Y-69300000D01*
X118991428Y-69271428D01*
X118977142Y-69257142D01*
%TO.C,JP1*%
X125965714Y-59020000D02*
X126180000Y-59020000D01*
X126222857Y-59005714D01*
X126251428Y-58977142D01*
X126265714Y-58934285D01*
X126265714Y-58905714D01*
X126265714Y-59162857D02*
X125965714Y-59162857D01*
X125965714Y-59277142D01*
X125980000Y-59305714D01*
X125994285Y-59320000D01*
X126022857Y-59334285D01*
X126065714Y-59334285D01*
X126094285Y-59320000D01*
X126108571Y-59305714D01*
X126122857Y-59277142D01*
X126122857Y-59162857D01*
X126265714Y-59620000D02*
X126265714Y-59448571D01*
X126265714Y-59534285D02*
X125965714Y-59534285D01*
X126008571Y-59505714D01*
X126037142Y-59477142D01*
X126051428Y-59448571D01*
%TO.C,C43*%
X124207142Y-56967142D02*
X124221428Y-56952857D01*
X124235714Y-56910000D01*
X124235714Y-56881428D01*
X124221428Y-56838571D01*
X124192857Y-56810000D01*
X124164285Y-56795714D01*
X124107142Y-56781428D01*
X124064285Y-56781428D01*
X124007142Y-56795714D01*
X123978571Y-56810000D01*
X123950000Y-56838571D01*
X123935714Y-56881428D01*
X123935714Y-56910000D01*
X123950000Y-56952857D01*
X123964285Y-56967142D01*
X124035714Y-57224285D02*
X124235714Y-57224285D01*
X123921428Y-57152857D02*
X124135714Y-57081428D01*
X124135714Y-57267142D01*
X123935714Y-57352857D02*
X123935714Y-57538571D01*
X124050000Y-57438571D01*
X124050000Y-57481428D01*
X124064285Y-57510000D01*
X124078571Y-57524285D01*
X124107142Y-57538571D01*
X124178571Y-57538571D01*
X124207142Y-57524285D01*
X124221428Y-57510000D01*
X124235714Y-57481428D01*
X124235714Y-57395714D01*
X124221428Y-57367142D01*
X124207142Y-57352857D01*
%TO.C,C28*%
X118892857Y-64067142D02*
X118907142Y-64081428D01*
X118950000Y-64095714D01*
X118978571Y-64095714D01*
X119021428Y-64081428D01*
X119050000Y-64052857D01*
X119064285Y-64024285D01*
X119078571Y-63967142D01*
X119078571Y-63924285D01*
X119064285Y-63867142D01*
X119050000Y-63838571D01*
X119021428Y-63810000D01*
X118978571Y-63795714D01*
X118950000Y-63795714D01*
X118907142Y-63810000D01*
X118892857Y-63824285D01*
X118778571Y-63824285D02*
X118764285Y-63810000D01*
X118735714Y-63795714D01*
X118664285Y-63795714D01*
X118635714Y-63810000D01*
X118621428Y-63824285D01*
X118607142Y-63852857D01*
X118607142Y-63881428D01*
X118621428Y-63924285D01*
X118792857Y-64095714D01*
X118607142Y-64095714D01*
X118435714Y-63924285D02*
X118464285Y-63910000D01*
X118478571Y-63895714D01*
X118492857Y-63867142D01*
X118492857Y-63852857D01*
X118478571Y-63824285D01*
X118464285Y-63810000D01*
X118435714Y-63795714D01*
X118378571Y-63795714D01*
X118350000Y-63810000D01*
X118335714Y-63824285D01*
X118321428Y-63852857D01*
X118321428Y-63867142D01*
X118335714Y-63895714D01*
X118350000Y-63910000D01*
X118378571Y-63924285D01*
X118435714Y-63924285D01*
X118464285Y-63938571D01*
X118478571Y-63952857D01*
X118492857Y-63981428D01*
X118492857Y-64038571D01*
X118478571Y-64067142D01*
X118464285Y-64081428D01*
X118435714Y-64095714D01*
X118378571Y-64095714D01*
X118350000Y-64081428D01*
X118335714Y-64067142D01*
X118321428Y-64038571D01*
X118321428Y-63981428D01*
X118335714Y-63952857D01*
X118350000Y-63938571D01*
X118378571Y-63924285D01*
%TO.C,C52*%
X122947142Y-54887142D02*
X122961428Y-54872857D01*
X122975714Y-54830000D01*
X122975714Y-54801428D01*
X122961428Y-54758571D01*
X122932857Y-54730000D01*
X122904285Y-54715714D01*
X122847142Y-54701428D01*
X122804285Y-54701428D01*
X122747142Y-54715714D01*
X122718571Y-54730000D01*
X122690000Y-54758571D01*
X122675714Y-54801428D01*
X122675714Y-54830000D01*
X122690000Y-54872857D01*
X122704285Y-54887142D01*
X122675714Y-55158571D02*
X122675714Y-55015714D01*
X122818571Y-55001428D01*
X122804285Y-55015714D01*
X122790000Y-55044285D01*
X122790000Y-55115714D01*
X122804285Y-55144285D01*
X122818571Y-55158571D01*
X122847142Y-55172857D01*
X122918571Y-55172857D01*
X122947142Y-55158571D01*
X122961428Y-55144285D01*
X122975714Y-55115714D01*
X122975714Y-55044285D01*
X122961428Y-55015714D01*
X122947142Y-55001428D01*
X122704285Y-55287142D02*
X122690000Y-55301428D01*
X122675714Y-55330000D01*
X122675714Y-55401428D01*
X122690000Y-55430000D01*
X122704285Y-55444285D01*
X122732857Y-55458571D01*
X122761428Y-55458571D01*
X122804285Y-55444285D01*
X122975714Y-55272857D01*
X122975714Y-55458571D01*
%TO.C,C54*%
X121812857Y-59607142D02*
X121827142Y-59621428D01*
X121870000Y-59635714D01*
X121898571Y-59635714D01*
X121941428Y-59621428D01*
X121970000Y-59592857D01*
X121984285Y-59564285D01*
X121998571Y-59507142D01*
X121998571Y-59464285D01*
X121984285Y-59407142D01*
X121970000Y-59378571D01*
X121941428Y-59350000D01*
X121898571Y-59335714D01*
X121870000Y-59335714D01*
X121827142Y-59350000D01*
X121812857Y-59364285D01*
X121541428Y-59335714D02*
X121684285Y-59335714D01*
X121698571Y-59478571D01*
X121684285Y-59464285D01*
X121655714Y-59450000D01*
X121584285Y-59450000D01*
X121555714Y-59464285D01*
X121541428Y-59478571D01*
X121527142Y-59507142D01*
X121527142Y-59578571D01*
X121541428Y-59607142D01*
X121555714Y-59621428D01*
X121584285Y-59635714D01*
X121655714Y-59635714D01*
X121684285Y-59621428D01*
X121698571Y-59607142D01*
X121270000Y-59435714D02*
X121270000Y-59635714D01*
X121341428Y-59321428D02*
X121412857Y-59535714D01*
X121227142Y-59535714D01*
%TO.C,U2*%
X117318571Y-58785714D02*
X117318571Y-59028571D01*
X117304285Y-59057142D01*
X117290000Y-59071428D01*
X117261428Y-59085714D01*
X117204285Y-59085714D01*
X117175714Y-59071428D01*
X117161428Y-59057142D01*
X117147142Y-59028571D01*
X117147142Y-58785714D01*
X117018571Y-58814285D02*
X117004285Y-58800000D01*
X116975714Y-58785714D01*
X116904285Y-58785714D01*
X116875714Y-58800000D01*
X116861428Y-58814285D01*
X116847142Y-58842857D01*
X116847142Y-58871428D01*
X116861428Y-58914285D01*
X117032857Y-59085714D01*
X116847142Y-59085714D01*
%TO.C,U11*%
X128631428Y-57885714D02*
X128631428Y-58128571D01*
X128617142Y-58157142D01*
X128602857Y-58171428D01*
X128574285Y-58185714D01*
X128517142Y-58185714D01*
X128488571Y-58171428D01*
X128474285Y-58157142D01*
X128460000Y-58128571D01*
X128460000Y-57885714D01*
X128160000Y-58185714D02*
X128331428Y-58185714D01*
X128245714Y-58185714D02*
X128245714Y-57885714D01*
X128274285Y-57928571D01*
X128302857Y-57957142D01*
X128331428Y-57971428D01*
X127874285Y-58185714D02*
X128045714Y-58185714D01*
X127960000Y-58185714D02*
X127960000Y-57885714D01*
X127988571Y-57928571D01*
X128017142Y-57957142D01*
X128045714Y-57971428D01*
%TO.C,R2*%
X124030000Y-54065714D02*
X124130000Y-53922857D01*
X124201428Y-54065714D02*
X124201428Y-53765714D01*
X124087142Y-53765714D01*
X124058571Y-53780000D01*
X124044285Y-53794285D01*
X124030000Y-53822857D01*
X124030000Y-53865714D01*
X124044285Y-53894285D01*
X124058571Y-53908571D01*
X124087142Y-53922857D01*
X124201428Y-53922857D01*
X123915714Y-53794285D02*
X123901428Y-53780000D01*
X123872857Y-53765714D01*
X123801428Y-53765714D01*
X123772857Y-53780000D01*
X123758571Y-53794285D01*
X123744285Y-53822857D01*
X123744285Y-53851428D01*
X123758571Y-53894285D01*
X123930000Y-54065714D01*
X123744285Y-54065714D01*
%TO.C,C55*%
X125242857Y-55617142D02*
X125257142Y-55631428D01*
X125300000Y-55645714D01*
X125328571Y-55645714D01*
X125371428Y-55631428D01*
X125400000Y-55602857D01*
X125414285Y-55574285D01*
X125428571Y-55517142D01*
X125428571Y-55474285D01*
X125414285Y-55417142D01*
X125400000Y-55388571D01*
X125371428Y-55360000D01*
X125328571Y-55345714D01*
X125300000Y-55345714D01*
X125257142Y-55360000D01*
X125242857Y-55374285D01*
X124971428Y-55345714D02*
X125114285Y-55345714D01*
X125128571Y-55488571D01*
X125114285Y-55474285D01*
X125085714Y-55460000D01*
X125014285Y-55460000D01*
X124985714Y-55474285D01*
X124971428Y-55488571D01*
X124957142Y-55517142D01*
X124957142Y-55588571D01*
X124971428Y-55617142D01*
X124985714Y-55631428D01*
X125014285Y-55645714D01*
X125085714Y-55645714D01*
X125114285Y-55631428D01*
X125128571Y-55617142D01*
X124685714Y-55345714D02*
X124828571Y-55345714D01*
X124842857Y-55488571D01*
X124828571Y-55474285D01*
X124800000Y-55460000D01*
X124728571Y-55460000D01*
X124700000Y-55474285D01*
X124685714Y-55488571D01*
X124671428Y-55517142D01*
X124671428Y-55588571D01*
X124685714Y-55617142D01*
X124700000Y-55631428D01*
X124728571Y-55645714D01*
X124800000Y-55645714D01*
X124828571Y-55631428D01*
X124842857Y-55617142D01*
%TO.C,L10*%
X120295714Y-59267142D02*
X120295714Y-59124285D01*
X119995714Y-59124285D01*
X120295714Y-59524285D02*
X120295714Y-59352857D01*
X120295714Y-59438571D02*
X119995714Y-59438571D01*
X120038571Y-59410000D01*
X120067142Y-59381428D01*
X120081428Y-59352857D01*
X119995714Y-59710000D02*
X119995714Y-59738571D01*
X120010000Y-59767142D01*
X120024285Y-59781428D01*
X120052857Y-59795714D01*
X120110000Y-59810000D01*
X120181428Y-59810000D01*
X120238571Y-59795714D01*
X120267142Y-59781428D01*
X120281428Y-59767142D01*
X120295714Y-59738571D01*
X120295714Y-59710000D01*
X120281428Y-59681428D01*
X120267142Y-59667142D01*
X120238571Y-59652857D01*
X120181428Y-59638571D01*
X120110000Y-59638571D01*
X120052857Y-59652857D01*
X120024285Y-59667142D01*
X120010000Y-59681428D01*
X119995714Y-59710000D01*
%TO.C,L13*%
X119262857Y-60115714D02*
X119405714Y-60115714D01*
X119405714Y-59815714D01*
X119005714Y-60115714D02*
X119177142Y-60115714D01*
X119091428Y-60115714D02*
X119091428Y-59815714D01*
X119120000Y-59858571D01*
X119148571Y-59887142D01*
X119177142Y-59901428D01*
X118905714Y-59815714D02*
X118720000Y-59815714D01*
X118820000Y-59930000D01*
X118777142Y-59930000D01*
X118748571Y-59944285D01*
X118734285Y-59958571D01*
X118720000Y-59987142D01*
X118720000Y-60058571D01*
X118734285Y-60087142D01*
X118748571Y-60101428D01*
X118777142Y-60115714D01*
X118862857Y-60115714D01*
X118891428Y-60101428D01*
X118905714Y-60087142D01*
%TO.C,R22*%
X126622857Y-58565714D02*
X126722857Y-58422857D01*
X126794285Y-58565714D02*
X126794285Y-58265714D01*
X126680000Y-58265714D01*
X126651428Y-58280000D01*
X126637142Y-58294285D01*
X126622857Y-58322857D01*
X126622857Y-58365714D01*
X126637142Y-58394285D01*
X126651428Y-58408571D01*
X126680000Y-58422857D01*
X126794285Y-58422857D01*
X126508571Y-58294285D02*
X126494285Y-58280000D01*
X126465714Y-58265714D01*
X126394285Y-58265714D01*
X126365714Y-58280000D01*
X126351428Y-58294285D01*
X126337142Y-58322857D01*
X126337142Y-58351428D01*
X126351428Y-58394285D01*
X126522857Y-58565714D01*
X126337142Y-58565714D01*
X126222857Y-58294285D02*
X126208571Y-58280000D01*
X126180000Y-58265714D01*
X126108571Y-58265714D01*
X126080000Y-58280000D01*
X126065714Y-58294285D01*
X126051428Y-58322857D01*
X126051428Y-58351428D01*
X126065714Y-58394285D01*
X126237142Y-58565714D01*
X126051428Y-58565714D01*
%TO.C,C45*%
X124206433Y-58137142D02*
X124220718Y-58151428D01*
X124263576Y-58165714D01*
X124292147Y-58165714D01*
X124335004Y-58151428D01*
X124363576Y-58122857D01*
X124377861Y-58094285D01*
X124392147Y-58037142D01*
X124392147Y-57994285D01*
X124377861Y-57937142D01*
X124363576Y-57908571D01*
X124335004Y-57880000D01*
X124292147Y-57865714D01*
X124263576Y-57865714D01*
X124220718Y-57880000D01*
X124206433Y-57894285D01*
X123949290Y-57965714D02*
X123949290Y-58165714D01*
X124020718Y-57851428D02*
X124092147Y-58065714D01*
X123906433Y-58065714D01*
X123649290Y-57865714D02*
X123792147Y-57865714D01*
X123806433Y-58008571D01*
X123792147Y-57994285D01*
X123763576Y-57980000D01*
X123692147Y-57980000D01*
X123663576Y-57994285D01*
X123649290Y-58008571D01*
X123635004Y-58037142D01*
X123635004Y-58108571D01*
X123649290Y-58137142D01*
X123663576Y-58151428D01*
X123692147Y-58165714D01*
X123763576Y-58165714D01*
X123792147Y-58151428D01*
X123806433Y-58137142D01*
%TO.C,L16*%
X119182857Y-55505714D02*
X119325714Y-55505714D01*
X119325714Y-55205714D01*
X118925714Y-55505714D02*
X119097142Y-55505714D01*
X119011428Y-55505714D02*
X119011428Y-55205714D01*
X119040000Y-55248571D01*
X119068571Y-55277142D01*
X119097142Y-55291428D01*
X118668571Y-55205714D02*
X118725714Y-55205714D01*
X118754285Y-55220000D01*
X118768571Y-55234285D01*
X118797142Y-55277142D01*
X118811428Y-55334285D01*
X118811428Y-55448571D01*
X118797142Y-55477142D01*
X118782857Y-55491428D01*
X118754285Y-55505714D01*
X118697142Y-55505714D01*
X118668571Y-55491428D01*
X118654285Y-55477142D01*
X118640000Y-55448571D01*
X118640000Y-55377142D01*
X118654285Y-55348571D01*
X118668571Y-55334285D01*
X118697142Y-55320000D01*
X118754285Y-55320000D01*
X118782857Y-55334285D01*
X118797142Y-55348571D01*
X118811428Y-55377142D01*
%TO.C,C66*%
X118762857Y-66127142D02*
X118777142Y-66141428D01*
X118820000Y-66155714D01*
X118848571Y-66155714D01*
X118891428Y-66141428D01*
X118920000Y-66112857D01*
X118934285Y-66084285D01*
X118948571Y-66027142D01*
X118948571Y-65984285D01*
X118934285Y-65927142D01*
X118920000Y-65898571D01*
X118891428Y-65870000D01*
X118848571Y-65855714D01*
X118820000Y-65855714D01*
X118777142Y-65870000D01*
X118762857Y-65884285D01*
X118505714Y-65855714D02*
X118562857Y-65855714D01*
X118591428Y-65870000D01*
X118605714Y-65884285D01*
X118634285Y-65927142D01*
X118648571Y-65984285D01*
X118648571Y-66098571D01*
X118634285Y-66127142D01*
X118620000Y-66141428D01*
X118591428Y-66155714D01*
X118534285Y-66155714D01*
X118505714Y-66141428D01*
X118491428Y-66127142D01*
X118477142Y-66098571D01*
X118477142Y-66027142D01*
X118491428Y-65998571D01*
X118505714Y-65984285D01*
X118534285Y-65970000D01*
X118591428Y-65970000D01*
X118620000Y-65984285D01*
X118634285Y-65998571D01*
X118648571Y-66027142D01*
X118220000Y-65855714D02*
X118277142Y-65855714D01*
X118305714Y-65870000D01*
X118320000Y-65884285D01*
X118348571Y-65927142D01*
X118362857Y-65984285D01*
X118362857Y-66098571D01*
X118348571Y-66127142D01*
X118334285Y-66141428D01*
X118305714Y-66155714D01*
X118248571Y-66155714D01*
X118220000Y-66141428D01*
X118205714Y-66127142D01*
X118191428Y-66098571D01*
X118191428Y-66027142D01*
X118205714Y-65998571D01*
X118220000Y-65984285D01*
X118248571Y-65970000D01*
X118305714Y-65970000D01*
X118334285Y-65984285D01*
X118348571Y-65998571D01*
X118362857Y-66027142D01*
%TO.C,C23*%
X117392857Y-57447142D02*
X117407142Y-57461428D01*
X117450000Y-57475714D01*
X117478571Y-57475714D01*
X117521428Y-57461428D01*
X117550000Y-57432857D01*
X117564285Y-57404285D01*
X117578571Y-57347142D01*
X117578571Y-57304285D01*
X117564285Y-57247142D01*
X117550000Y-57218571D01*
X117521428Y-57190000D01*
X117478571Y-57175714D01*
X117450000Y-57175714D01*
X117407142Y-57190000D01*
X117392857Y-57204285D01*
X117278571Y-57204285D02*
X117264285Y-57190000D01*
X117235714Y-57175714D01*
X117164285Y-57175714D01*
X117135714Y-57190000D01*
X117121428Y-57204285D01*
X117107142Y-57232857D01*
X117107142Y-57261428D01*
X117121428Y-57304285D01*
X117292857Y-57475714D01*
X117107142Y-57475714D01*
X117007142Y-57175714D02*
X116821428Y-57175714D01*
X116921428Y-57290000D01*
X116878571Y-57290000D01*
X116850000Y-57304285D01*
X116835714Y-57318571D01*
X116821428Y-57347142D01*
X116821428Y-57418571D01*
X116835714Y-57447142D01*
X116850000Y-57461428D01*
X116878571Y-57475714D01*
X116964285Y-57475714D01*
X116992857Y-57461428D01*
X117007142Y-57447142D01*
%TO.C,C57*%
X121027142Y-57837142D02*
X121041428Y-57822857D01*
X121055714Y-57780000D01*
X121055714Y-57751428D01*
X121041428Y-57708571D01*
X121012857Y-57680000D01*
X120984285Y-57665714D01*
X120927142Y-57651428D01*
X120884285Y-57651428D01*
X120827142Y-57665714D01*
X120798571Y-57680000D01*
X120770000Y-57708571D01*
X120755714Y-57751428D01*
X120755714Y-57780000D01*
X120770000Y-57822857D01*
X120784285Y-57837142D01*
X120755714Y-58108571D02*
X120755714Y-57965714D01*
X120898571Y-57951428D01*
X120884285Y-57965714D01*
X120870000Y-57994285D01*
X120870000Y-58065714D01*
X120884285Y-58094285D01*
X120898571Y-58108571D01*
X120927142Y-58122857D01*
X120998571Y-58122857D01*
X121027142Y-58108571D01*
X121041428Y-58094285D01*
X121055714Y-58065714D01*
X121055714Y-57994285D01*
X121041428Y-57965714D01*
X121027142Y-57951428D01*
X120755714Y-58222857D02*
X120755714Y-58422857D01*
X121055714Y-58294285D01*
%TO.C,C49*%
X121422857Y-57157142D02*
X121437142Y-57171428D01*
X121480000Y-57185714D01*
X121508571Y-57185714D01*
X121551428Y-57171428D01*
X121580000Y-57142857D01*
X121594285Y-57114285D01*
X121608571Y-57057142D01*
X121608571Y-57014285D01*
X121594285Y-56957142D01*
X121580000Y-56928571D01*
X121551428Y-56900000D01*
X121508571Y-56885714D01*
X121480000Y-56885714D01*
X121437142Y-56900000D01*
X121422857Y-56914285D01*
X121165714Y-56985714D02*
X121165714Y-57185714D01*
X121237142Y-56871428D02*
X121308571Y-57085714D01*
X121122857Y-57085714D01*
X120994285Y-57185714D02*
X120937142Y-57185714D01*
X120908571Y-57171428D01*
X120894285Y-57157142D01*
X120865714Y-57114285D01*
X120851428Y-57057142D01*
X120851428Y-56942857D01*
X120865714Y-56914285D01*
X120880000Y-56900000D01*
X120908571Y-56885714D01*
X120965714Y-56885714D01*
X120994285Y-56900000D01*
X121008571Y-56914285D01*
X121022857Y-56942857D01*
X121022857Y-57014285D01*
X121008571Y-57042857D01*
X120994285Y-57057142D01*
X120965714Y-57071428D01*
X120908571Y-57071428D01*
X120880000Y-57057142D01*
X120865714Y-57042857D01*
X120851428Y-57014285D01*
%TO.C,C37*%
X117467142Y-68107142D02*
X117481428Y-68092857D01*
X117495714Y-68050000D01*
X117495714Y-68021428D01*
X117481428Y-67978571D01*
X117452857Y-67950000D01*
X117424285Y-67935714D01*
X117367142Y-67921428D01*
X117324285Y-67921428D01*
X117267142Y-67935714D01*
X117238571Y-67950000D01*
X117210000Y-67978571D01*
X117195714Y-68021428D01*
X117195714Y-68050000D01*
X117210000Y-68092857D01*
X117224285Y-68107142D01*
X117195714Y-68207142D02*
X117195714Y-68392857D01*
X117310000Y-68292857D01*
X117310000Y-68335714D01*
X117324285Y-68364285D01*
X117338571Y-68378571D01*
X117367142Y-68392857D01*
X117438571Y-68392857D01*
X117467142Y-68378571D01*
X117481428Y-68364285D01*
X117495714Y-68335714D01*
X117495714Y-68250000D01*
X117481428Y-68221428D01*
X117467142Y-68207142D01*
X117195714Y-68492857D02*
X117195714Y-68692857D01*
X117495714Y-68564285D01*
%TO.C,C47*%
X124102857Y-56547142D02*
X124117142Y-56561428D01*
X124160000Y-56575714D01*
X124188571Y-56575714D01*
X124231428Y-56561428D01*
X124260000Y-56532857D01*
X124274285Y-56504285D01*
X124288571Y-56447142D01*
X124288571Y-56404285D01*
X124274285Y-56347142D01*
X124260000Y-56318571D01*
X124231428Y-56290000D01*
X124188571Y-56275714D01*
X124160000Y-56275714D01*
X124117142Y-56290000D01*
X124102857Y-56304285D01*
X123845714Y-56375714D02*
X123845714Y-56575714D01*
X123917142Y-56261428D02*
X123988571Y-56475714D01*
X123802857Y-56475714D01*
X123717142Y-56275714D02*
X123517142Y-56275714D01*
X123645714Y-56575714D01*
%TO.C,C51*%
X121977142Y-57857142D02*
X121991428Y-57842857D01*
X122005714Y-57800000D01*
X122005714Y-57771428D01*
X121991428Y-57728571D01*
X121962857Y-57700000D01*
X121934285Y-57685714D01*
X121877142Y-57671428D01*
X121834285Y-57671428D01*
X121777142Y-57685714D01*
X121748571Y-57700000D01*
X121720000Y-57728571D01*
X121705714Y-57771428D01*
X121705714Y-57800000D01*
X121720000Y-57842857D01*
X121734285Y-57857142D01*
X121705714Y-58128571D02*
X121705714Y-57985714D01*
X121848571Y-57971428D01*
X121834285Y-57985714D01*
X121820000Y-58014285D01*
X121820000Y-58085714D01*
X121834285Y-58114285D01*
X121848571Y-58128571D01*
X121877142Y-58142857D01*
X121948571Y-58142857D01*
X121977142Y-58128571D01*
X121991428Y-58114285D01*
X122005714Y-58085714D01*
X122005714Y-58014285D01*
X121991428Y-57985714D01*
X121977142Y-57971428D01*
X122005714Y-58428571D02*
X122005714Y-58257142D01*
X122005714Y-58342857D02*
X121705714Y-58342857D01*
X121748571Y-58314285D01*
X121777142Y-58285714D01*
X121791428Y-58257142D01*
%TO.C,C56*%
X121692857Y-55967142D02*
X121707142Y-55981428D01*
X121750000Y-55995714D01*
X121778571Y-55995714D01*
X121821428Y-55981428D01*
X121850000Y-55952857D01*
X121864285Y-55924285D01*
X121878571Y-55867142D01*
X121878571Y-55824285D01*
X121864285Y-55767142D01*
X121850000Y-55738571D01*
X121821428Y-55710000D01*
X121778571Y-55695714D01*
X121750000Y-55695714D01*
X121707142Y-55710000D01*
X121692857Y-55724285D01*
X121421428Y-55695714D02*
X121564285Y-55695714D01*
X121578571Y-55838571D01*
X121564285Y-55824285D01*
X121535714Y-55810000D01*
X121464285Y-55810000D01*
X121435714Y-55824285D01*
X121421428Y-55838571D01*
X121407142Y-55867142D01*
X121407142Y-55938571D01*
X121421428Y-55967142D01*
X121435714Y-55981428D01*
X121464285Y-55995714D01*
X121535714Y-55995714D01*
X121564285Y-55981428D01*
X121578571Y-55967142D01*
X121150000Y-55695714D02*
X121207142Y-55695714D01*
X121235714Y-55710000D01*
X121250000Y-55724285D01*
X121278571Y-55767142D01*
X121292857Y-55824285D01*
X121292857Y-55938571D01*
X121278571Y-55967142D01*
X121264285Y-55981428D01*
X121235714Y-55995714D01*
X121178571Y-55995714D01*
X121150000Y-55981428D01*
X121135714Y-55967142D01*
X121121428Y-55938571D01*
X121121428Y-55867142D01*
X121135714Y-55838571D01*
X121150000Y-55824285D01*
X121178571Y-55810000D01*
X121235714Y-55810000D01*
X121264285Y-55824285D01*
X121278571Y-55838571D01*
X121292857Y-55867142D01*
%TO.C,C44*%
X124197142Y-55397142D02*
X124211428Y-55382857D01*
X124225714Y-55340000D01*
X124225714Y-55311428D01*
X124211428Y-55268571D01*
X124182857Y-55240000D01*
X124154285Y-55225714D01*
X124097142Y-55211428D01*
X124054285Y-55211428D01*
X123997142Y-55225714D01*
X123968571Y-55240000D01*
X123940000Y-55268571D01*
X123925714Y-55311428D01*
X123925714Y-55340000D01*
X123940000Y-55382857D01*
X123954285Y-55397142D01*
X124025714Y-55654285D02*
X124225714Y-55654285D01*
X123911428Y-55582857D02*
X124125714Y-55511428D01*
X124125714Y-55697142D01*
X124025714Y-55940000D02*
X124225714Y-55940000D01*
X123911428Y-55868571D02*
X124125714Y-55797142D01*
X124125714Y-55982857D01*
%TO.C,C48*%
X122687142Y-56637142D02*
X122701428Y-56622857D01*
X122715714Y-56580000D01*
X122715714Y-56551428D01*
X122701428Y-56508571D01*
X122672857Y-56480000D01*
X122644285Y-56465714D01*
X122587142Y-56451428D01*
X122544285Y-56451428D01*
X122487142Y-56465714D01*
X122458571Y-56480000D01*
X122430000Y-56508571D01*
X122415714Y-56551428D01*
X122415714Y-56580000D01*
X122430000Y-56622857D01*
X122444285Y-56637142D01*
X122515714Y-56894285D02*
X122715714Y-56894285D01*
X122401428Y-56822857D02*
X122615714Y-56751428D01*
X122615714Y-56937142D01*
X122544285Y-57094285D02*
X122530000Y-57065714D01*
X122515714Y-57051428D01*
X122487142Y-57037142D01*
X122472857Y-57037142D01*
X122444285Y-57051428D01*
X122430000Y-57065714D01*
X122415714Y-57094285D01*
X122415714Y-57151428D01*
X122430000Y-57180000D01*
X122444285Y-57194285D01*
X122472857Y-57208571D01*
X122487142Y-57208571D01*
X122515714Y-57194285D01*
X122530000Y-57180000D01*
X122544285Y-57151428D01*
X122544285Y-57094285D01*
X122558571Y-57065714D01*
X122572857Y-57051428D01*
X122601428Y-57037142D01*
X122658571Y-57037142D01*
X122687142Y-57051428D01*
X122701428Y-57065714D01*
X122715714Y-57094285D01*
X122715714Y-57151428D01*
X122701428Y-57180000D01*
X122687142Y-57194285D01*
X122658571Y-57208571D01*
X122601428Y-57208571D01*
X122572857Y-57194285D01*
X122558571Y-57180000D01*
X122544285Y-57151428D01*
%TO.C,U10*%
X118601428Y-67545714D02*
X118601428Y-67788571D01*
X118587142Y-67817142D01*
X118572857Y-67831428D01*
X118544285Y-67845714D01*
X118487142Y-67845714D01*
X118458571Y-67831428D01*
X118444285Y-67817142D01*
X118430000Y-67788571D01*
X118430000Y-67545714D01*
X118130000Y-67845714D02*
X118301428Y-67845714D01*
X118215714Y-67845714D02*
X118215714Y-67545714D01*
X118244285Y-67588571D01*
X118272857Y-67617142D01*
X118301428Y-67631428D01*
X117944285Y-67545714D02*
X117915714Y-67545714D01*
X117887142Y-67560000D01*
X117872857Y-67574285D01*
X117858571Y-67602857D01*
X117844285Y-67660000D01*
X117844285Y-67731428D01*
X117858571Y-67788571D01*
X117872857Y-67817142D01*
X117887142Y-67831428D01*
X117915714Y-67845714D01*
X117944285Y-67845714D01*
X117972857Y-67831428D01*
X117987142Y-67817142D01*
X118001428Y-67788571D01*
X118015714Y-67731428D01*
X118015714Y-67660000D01*
X118001428Y-67602857D01*
X117987142Y-67574285D01*
X117972857Y-67560000D01*
X117944285Y-67545714D01*
%TO.C,U1*%
X123335714Y-67991428D02*
X123578571Y-67991428D01*
X123607142Y-68005714D01*
X123621428Y-68020000D01*
X123635714Y-68048571D01*
X123635714Y-68105714D01*
X123621428Y-68134285D01*
X123607142Y-68148571D01*
X123578571Y-68162857D01*
X123335714Y-68162857D01*
X123635714Y-68462857D02*
X123635714Y-68291428D01*
X123635714Y-68377142D02*
X123335714Y-68377142D01*
X123378571Y-68348571D01*
X123407142Y-68320000D01*
X123421428Y-68291428D01*
%TO.C,R1*%
X125450000Y-54065714D02*
X125550000Y-53922857D01*
X125621428Y-54065714D02*
X125621428Y-53765714D01*
X125507142Y-53765714D01*
X125478571Y-53780000D01*
X125464285Y-53794285D01*
X125450000Y-53822857D01*
X125450000Y-53865714D01*
X125464285Y-53894285D01*
X125478571Y-53908571D01*
X125507142Y-53922857D01*
X125621428Y-53922857D01*
X125164285Y-54065714D02*
X125335714Y-54065714D01*
X125250000Y-54065714D02*
X125250000Y-53765714D01*
X125278571Y-53808571D01*
X125307142Y-53837142D01*
X125335714Y-53851428D01*
%TO.C,TP1*%
X127548571Y-54675714D02*
X127377142Y-54675714D01*
X127462857Y-54975714D02*
X127462857Y-54675714D01*
X127277142Y-54975714D02*
X127277142Y-54675714D01*
X127162857Y-54675714D01*
X127134285Y-54690000D01*
X127120000Y-54704285D01*
X127105714Y-54732857D01*
X127105714Y-54775714D01*
X127120000Y-54804285D01*
X127134285Y-54818571D01*
X127162857Y-54832857D01*
X127277142Y-54832857D01*
X126820000Y-54975714D02*
X126991428Y-54975714D01*
X126905714Y-54975714D02*
X126905714Y-54675714D01*
X126934285Y-54718571D01*
X126962857Y-54747142D01*
X126991428Y-54761428D01*
%TO.C,U5*%
X119248571Y-67095714D02*
X119248571Y-67338571D01*
X119234285Y-67367142D01*
X119220000Y-67381428D01*
X119191428Y-67395714D01*
X119134285Y-67395714D01*
X119105714Y-67381428D01*
X119091428Y-67367142D01*
X119077142Y-67338571D01*
X119077142Y-67095714D01*
X118791428Y-67095714D02*
X118934285Y-67095714D01*
X118948571Y-67238571D01*
X118934285Y-67224285D01*
X118905714Y-67210000D01*
X118834285Y-67210000D01*
X118805714Y-67224285D01*
X118791428Y-67238571D01*
X118777142Y-67267142D01*
X118777142Y-67338571D01*
X118791428Y-67367142D01*
X118805714Y-67381428D01*
X118834285Y-67395714D01*
X118905714Y-67395714D01*
X118934285Y-67381428D01*
X118948571Y-67367142D01*
%TO.C,L12*%
X125345714Y-59197142D02*
X125345714Y-59054285D01*
X125045714Y-59054285D01*
X125345714Y-59454285D02*
X125345714Y-59282857D01*
X125345714Y-59368571D02*
X125045714Y-59368571D01*
X125088571Y-59340000D01*
X125117142Y-59311428D01*
X125131428Y-59282857D01*
X125074285Y-59568571D02*
X125060000Y-59582857D01*
X125045714Y-59611428D01*
X125045714Y-59682857D01*
X125060000Y-59711428D01*
X125074285Y-59725714D01*
X125102857Y-59740000D01*
X125131428Y-59740000D01*
X125174285Y-59725714D01*
X125345714Y-59554285D01*
X125345714Y-59740000D01*
%TO.C,C22*%
X128497142Y-64727142D02*
X128511428Y-64712857D01*
X128525714Y-64670000D01*
X128525714Y-64641428D01*
X128511428Y-64598571D01*
X128482857Y-64570000D01*
X128454285Y-64555714D01*
X128397142Y-64541428D01*
X128354285Y-64541428D01*
X128297142Y-64555714D01*
X128268571Y-64570000D01*
X128240000Y-64598571D01*
X128225714Y-64641428D01*
X128225714Y-64670000D01*
X128240000Y-64712857D01*
X128254285Y-64727142D01*
X128254285Y-64841428D02*
X128240000Y-64855714D01*
X128225714Y-64884285D01*
X128225714Y-64955714D01*
X128240000Y-64984285D01*
X128254285Y-64998571D01*
X128282857Y-65012857D01*
X128311428Y-65012857D01*
X128354285Y-64998571D01*
X128525714Y-64827142D01*
X128525714Y-65012857D01*
X128254285Y-65127142D02*
X128240000Y-65141428D01*
X128225714Y-65170000D01*
X128225714Y-65241428D01*
X128240000Y-65270000D01*
X128254285Y-65284285D01*
X128282857Y-65298571D01*
X128311428Y-65298571D01*
X128354285Y-65284285D01*
X128525714Y-65112857D01*
X128525714Y-65298571D01*
%TO.C,C69*%
X118297142Y-68877142D02*
X118311428Y-68862857D01*
X118325714Y-68820000D01*
X118325714Y-68791428D01*
X118311428Y-68748571D01*
X118282857Y-68720000D01*
X118254285Y-68705714D01*
X118197142Y-68691428D01*
X118154285Y-68691428D01*
X118097142Y-68705714D01*
X118068571Y-68720000D01*
X118040000Y-68748571D01*
X118025714Y-68791428D01*
X118025714Y-68820000D01*
X118040000Y-68862857D01*
X118054285Y-68877142D01*
X118025714Y-69134285D02*
X118025714Y-69077142D01*
X118040000Y-69048571D01*
X118054285Y-69034285D01*
X118097142Y-69005714D01*
X118154285Y-68991428D01*
X118268571Y-68991428D01*
X118297142Y-69005714D01*
X118311428Y-69020000D01*
X118325714Y-69048571D01*
X118325714Y-69105714D01*
X118311428Y-69134285D01*
X118297142Y-69148571D01*
X118268571Y-69162857D01*
X118197142Y-69162857D01*
X118168571Y-69148571D01*
X118154285Y-69134285D01*
X118140000Y-69105714D01*
X118140000Y-69048571D01*
X118154285Y-69020000D01*
X118168571Y-69005714D01*
X118197142Y-68991428D01*
X118325714Y-69305714D02*
X118325714Y-69362857D01*
X118311428Y-69391428D01*
X118297142Y-69405714D01*
X118254285Y-69434285D01*
X118197142Y-69448571D01*
X118082857Y-69448571D01*
X118054285Y-69434285D01*
X118040000Y-69420000D01*
X118025714Y-69391428D01*
X118025714Y-69334285D01*
X118040000Y-69305714D01*
X118054285Y-69291428D01*
X118082857Y-69277142D01*
X118154285Y-69277142D01*
X118182857Y-69291428D01*
X118197142Y-69305714D01*
X118211428Y-69334285D01*
X118211428Y-69391428D01*
X118197142Y-69420000D01*
X118182857Y-69434285D01*
X118154285Y-69448571D01*
%TO.C,C67*%
X117342857Y-64027142D02*
X117357142Y-64041428D01*
X117400000Y-64055714D01*
X117428571Y-64055714D01*
X117471428Y-64041428D01*
X117500000Y-64012857D01*
X117514285Y-63984285D01*
X117528571Y-63927142D01*
X117528571Y-63884285D01*
X117514285Y-63827142D01*
X117500000Y-63798571D01*
X117471428Y-63770000D01*
X117428571Y-63755714D01*
X117400000Y-63755714D01*
X117357142Y-63770000D01*
X117342857Y-63784285D01*
X117085714Y-63755714D02*
X117142857Y-63755714D01*
X117171428Y-63770000D01*
X117185714Y-63784285D01*
X117214285Y-63827142D01*
X117228571Y-63884285D01*
X117228571Y-63998571D01*
X117214285Y-64027142D01*
X117200000Y-64041428D01*
X117171428Y-64055714D01*
X117114285Y-64055714D01*
X117085714Y-64041428D01*
X117071428Y-64027142D01*
X117057142Y-63998571D01*
X117057142Y-63927142D01*
X117071428Y-63898571D01*
X117085714Y-63884285D01*
X117114285Y-63870000D01*
X117171428Y-63870000D01*
X117200000Y-63884285D01*
X117214285Y-63898571D01*
X117228571Y-63927142D01*
X116957142Y-63755714D02*
X116757142Y-63755714D01*
X116885714Y-64055714D01*
%TO.C,C42*%
X128312857Y-55467142D02*
X128327142Y-55481428D01*
X128370000Y-55495714D01*
X128398571Y-55495714D01*
X128441428Y-55481428D01*
X128470000Y-55452857D01*
X128484285Y-55424285D01*
X128498571Y-55367142D01*
X128498571Y-55324285D01*
X128484285Y-55267142D01*
X128470000Y-55238571D01*
X128441428Y-55210000D01*
X128398571Y-55195714D01*
X128370000Y-55195714D01*
X128327142Y-55210000D01*
X128312857Y-55224285D01*
X128055714Y-55295714D02*
X128055714Y-55495714D01*
X128127142Y-55181428D02*
X128198571Y-55395714D01*
X128012857Y-55395714D01*
X127912857Y-55224285D02*
X127898571Y-55210000D01*
X127870000Y-55195714D01*
X127798571Y-55195714D01*
X127770000Y-55210000D01*
X127755714Y-55224285D01*
X127741428Y-55252857D01*
X127741428Y-55281428D01*
X127755714Y-55324285D01*
X127927142Y-55495714D01*
X127741428Y-55495714D01*
%TO.C,C32*%
X114767142Y-61037142D02*
X114781428Y-61022857D01*
X114795714Y-60980000D01*
X114795714Y-60951428D01*
X114781428Y-60908571D01*
X114752857Y-60880000D01*
X114724285Y-60865714D01*
X114667142Y-60851428D01*
X114624285Y-60851428D01*
X114567142Y-60865714D01*
X114538571Y-60880000D01*
X114510000Y-60908571D01*
X114495714Y-60951428D01*
X114495714Y-60980000D01*
X114510000Y-61022857D01*
X114524285Y-61037142D01*
X114495714Y-61137142D02*
X114495714Y-61322857D01*
X114610000Y-61222857D01*
X114610000Y-61265714D01*
X114624285Y-61294285D01*
X114638571Y-61308571D01*
X114667142Y-61322857D01*
X114738571Y-61322857D01*
X114767142Y-61308571D01*
X114781428Y-61294285D01*
X114795714Y-61265714D01*
X114795714Y-61180000D01*
X114781428Y-61151428D01*
X114767142Y-61137142D01*
X114524285Y-61437142D02*
X114510000Y-61451428D01*
X114495714Y-61480000D01*
X114495714Y-61551428D01*
X114510000Y-61580000D01*
X114524285Y-61594285D01*
X114552857Y-61608571D01*
X114581428Y-61608571D01*
X114624285Y-61594285D01*
X114795714Y-61422857D01*
X114795714Y-61608571D01*
%TO.C,C58*%
X119192857Y-58927142D02*
X119207142Y-58941428D01*
X119250000Y-58955714D01*
X119278571Y-58955714D01*
X119321428Y-58941428D01*
X119350000Y-58912857D01*
X119364285Y-58884285D01*
X119378571Y-58827142D01*
X119378571Y-58784285D01*
X119364285Y-58727142D01*
X119350000Y-58698571D01*
X119321428Y-58670000D01*
X119278571Y-58655714D01*
X119250000Y-58655714D01*
X119207142Y-58670000D01*
X119192857Y-58684285D01*
X118921428Y-58655714D02*
X119064285Y-58655714D01*
X119078571Y-58798571D01*
X119064285Y-58784285D01*
X119035714Y-58770000D01*
X118964285Y-58770000D01*
X118935714Y-58784285D01*
X118921428Y-58798571D01*
X118907142Y-58827142D01*
X118907142Y-58898571D01*
X118921428Y-58927142D01*
X118935714Y-58941428D01*
X118964285Y-58955714D01*
X119035714Y-58955714D01*
X119064285Y-58941428D01*
X119078571Y-58927142D01*
X118735714Y-58784285D02*
X118764285Y-58770000D01*
X118778571Y-58755714D01*
X118792857Y-58727142D01*
X118792857Y-58712857D01*
X118778571Y-58684285D01*
X118764285Y-58670000D01*
X118735714Y-58655714D01*
X118678571Y-58655714D01*
X118650000Y-58670000D01*
X118635714Y-58684285D01*
X118621428Y-58712857D01*
X118621428Y-58727142D01*
X118635714Y-58755714D01*
X118650000Y-58770000D01*
X118678571Y-58784285D01*
X118735714Y-58784285D01*
X118764285Y-58798571D01*
X118778571Y-58812857D01*
X118792857Y-58841428D01*
X118792857Y-58898571D01*
X118778571Y-58927142D01*
X118764285Y-58941428D01*
X118735714Y-58955714D01*
X118678571Y-58955714D01*
X118650000Y-58941428D01*
X118635714Y-58927142D01*
X118621428Y-58898571D01*
X118621428Y-58841428D01*
X118635714Y-58812857D01*
X118650000Y-58798571D01*
X118678571Y-58784285D01*
%TO.C,L11*%
X122162857Y-54175714D02*
X122305714Y-54175714D01*
X122305714Y-53875714D01*
X121905714Y-54175714D02*
X122077142Y-54175714D01*
X121991428Y-54175714D02*
X121991428Y-53875714D01*
X122020000Y-53918571D01*
X122048571Y-53947142D01*
X122077142Y-53961428D01*
X121620000Y-54175714D02*
X121791428Y-54175714D01*
X121705714Y-54175714D02*
X121705714Y-53875714D01*
X121734285Y-53918571D01*
X121762857Y-53947142D01*
X121791428Y-53961428D01*
%TO.C,TP4*%
X115288571Y-59765714D02*
X115117142Y-59765714D01*
X115202857Y-60065714D02*
X115202857Y-59765714D01*
X115017142Y-60065714D02*
X115017142Y-59765714D01*
X114902857Y-59765714D01*
X114874285Y-59780000D01*
X114860000Y-59794285D01*
X114845714Y-59822857D01*
X114845714Y-59865714D01*
X114860000Y-59894285D01*
X114874285Y-59908571D01*
X114902857Y-59922857D01*
X115017142Y-59922857D01*
X114588571Y-59865714D02*
X114588571Y-60065714D01*
X114660000Y-59751428D02*
X114731428Y-59965714D01*
X114545714Y-59965714D01*
%TO.C,R23*%
X118825714Y-70247142D02*
X118682857Y-70147142D01*
X118825714Y-70075714D02*
X118525714Y-70075714D01*
X118525714Y-70190000D01*
X118540000Y-70218571D01*
X118554285Y-70232857D01*
X118582857Y-70247142D01*
X118625714Y-70247142D01*
X118654285Y-70232857D01*
X118668571Y-70218571D01*
X118682857Y-70190000D01*
X118682857Y-70075714D01*
X118554285Y-70361428D02*
X118540000Y-70375714D01*
X118525714Y-70404285D01*
X118525714Y-70475714D01*
X118540000Y-70504285D01*
X118554285Y-70518571D01*
X118582857Y-70532857D01*
X118611428Y-70532857D01*
X118654285Y-70518571D01*
X118825714Y-70347142D01*
X118825714Y-70532857D01*
X118525714Y-70632857D02*
X118525714Y-70818571D01*
X118640000Y-70718571D01*
X118640000Y-70761428D01*
X118654285Y-70790000D01*
X118668571Y-70804285D01*
X118697142Y-70818571D01*
X118768571Y-70818571D01*
X118797142Y-70804285D01*
X118811428Y-70790000D01*
X118825714Y-70761428D01*
X118825714Y-70675714D01*
X118811428Y-70647142D01*
X118797142Y-70632857D01*
%TO.C,U13*%
X116701428Y-65725714D02*
X116701428Y-65968571D01*
X116687142Y-65997142D01*
X116672857Y-66011428D01*
X116644285Y-66025714D01*
X116587142Y-66025714D01*
X116558571Y-66011428D01*
X116544285Y-65997142D01*
X116530000Y-65968571D01*
X116530000Y-65725714D01*
X116230000Y-66025714D02*
X116401428Y-66025714D01*
X116315714Y-66025714D02*
X116315714Y-65725714D01*
X116344285Y-65768571D01*
X116372857Y-65797142D01*
X116401428Y-65811428D01*
X116130000Y-65725714D02*
X115944285Y-65725714D01*
X116044285Y-65840000D01*
X116001428Y-65840000D01*
X115972857Y-65854285D01*
X115958571Y-65868571D01*
X115944285Y-65897142D01*
X115944285Y-65968571D01*
X115958571Y-65997142D01*
X115972857Y-66011428D01*
X116001428Y-66025714D01*
X116087142Y-66025714D01*
X116115714Y-66011428D01*
X116130000Y-65997142D01*
%TO.C,C30*%
X116146359Y-67949409D02*
X116151588Y-67929894D01*
X116142532Y-67885636D01*
X116128246Y-67860892D01*
X116094445Y-67830920D01*
X116055416Y-67820462D01*
X116023530Y-67822376D01*
X115966900Y-67838576D01*
X115929784Y-67860004D01*
X115887440Y-67900947D01*
X115869839Y-67927605D01*
X115859381Y-67966634D01*
X115868438Y-68010892D01*
X115882724Y-68035636D01*
X115916524Y-68065609D01*
X115936039Y-68070837D01*
X115961295Y-68171726D02*
X116054152Y-68332559D01*
X116103127Y-68188814D01*
X116124555Y-68225929D01*
X116151213Y-68243530D01*
X116170728Y-68248759D01*
X116202614Y-68246845D01*
X116264473Y-68211130D01*
X116282074Y-68184473D01*
X116287303Y-68164958D01*
X116285389Y-68133072D01*
X116242532Y-68058841D01*
X116215874Y-68041240D01*
X116196359Y-68036011D01*
X116147010Y-68493392D02*
X116161295Y-68518136D01*
X116187953Y-68535737D01*
X116207467Y-68540966D01*
X116239354Y-68539052D01*
X116295984Y-68522852D01*
X116357843Y-68487138D01*
X116400187Y-68446194D01*
X116417788Y-68419537D01*
X116423017Y-68400022D01*
X116421103Y-68368136D01*
X116406817Y-68343392D01*
X116380160Y-68325792D01*
X116360645Y-68320563D01*
X116328759Y-68322477D01*
X116272129Y-68338676D01*
X116210270Y-68374390D01*
X116167925Y-68415334D01*
X116150325Y-68441991D01*
X116145096Y-68461506D01*
X116147010Y-68493392D01*
%TO.C,L15*%
X121136433Y-54335714D02*
X121279290Y-54335714D01*
X121279290Y-54035714D01*
X120879290Y-54335714D02*
X121050718Y-54335714D01*
X120965004Y-54335714D02*
X120965004Y-54035714D01*
X120993576Y-54078571D01*
X121022147Y-54107142D01*
X121050718Y-54121428D01*
X120607861Y-54035714D02*
X120750718Y-54035714D01*
X120765004Y-54178571D01*
X120750718Y-54164285D01*
X120722147Y-54150000D01*
X120650718Y-54150000D01*
X120622147Y-54164285D01*
X120607861Y-54178571D01*
X120593576Y-54207142D01*
X120593576Y-54278571D01*
X120607861Y-54307142D01*
X120622147Y-54321428D01*
X120650718Y-54335714D01*
X120722147Y-54335714D01*
X120750718Y-54321428D01*
X120765004Y-54307142D01*
%TO.C,U6*%
X130748571Y-58785714D02*
X130748571Y-59028571D01*
X130734285Y-59057142D01*
X130720000Y-59071428D01*
X130691428Y-59085714D01*
X130634285Y-59085714D01*
X130605714Y-59071428D01*
X130591428Y-59057142D01*
X130577142Y-59028571D01*
X130577142Y-58785714D01*
X130305714Y-58785714D02*
X130362857Y-58785714D01*
X130391428Y-58800000D01*
X130405714Y-58814285D01*
X130434285Y-58857142D01*
X130448571Y-58914285D01*
X130448571Y-59028571D01*
X130434285Y-59057142D01*
X130420000Y-59071428D01*
X130391428Y-59085714D01*
X130334285Y-59085714D01*
X130305714Y-59071428D01*
X130291428Y-59057142D01*
X130277142Y-59028571D01*
X130277142Y-58957142D01*
X130291428Y-58928571D01*
X130305714Y-58914285D01*
X130334285Y-58900000D01*
X130391428Y-58900000D01*
X130420000Y-58914285D01*
X130434285Y-58928571D01*
X130448571Y-58957142D01*
%TO.C,C53*%
X124402857Y-59387142D02*
X124417142Y-59401428D01*
X124460000Y-59415714D01*
X124488571Y-59415714D01*
X124531428Y-59401428D01*
X124560000Y-59372857D01*
X124574285Y-59344285D01*
X124588571Y-59287142D01*
X124588571Y-59244285D01*
X124574285Y-59187142D01*
X124560000Y-59158571D01*
X124531428Y-59130000D01*
X124488571Y-59115714D01*
X124460000Y-59115714D01*
X124417142Y-59130000D01*
X124402857Y-59144285D01*
X124131428Y-59115714D02*
X124274285Y-59115714D01*
X124288571Y-59258571D01*
X124274285Y-59244285D01*
X124245714Y-59230000D01*
X124174285Y-59230000D01*
X124145714Y-59244285D01*
X124131428Y-59258571D01*
X124117142Y-59287142D01*
X124117142Y-59358571D01*
X124131428Y-59387142D01*
X124145714Y-59401428D01*
X124174285Y-59415714D01*
X124245714Y-59415714D01*
X124274285Y-59401428D01*
X124288571Y-59387142D01*
X124017142Y-59115714D02*
X123831428Y-59115714D01*
X123931428Y-59230000D01*
X123888571Y-59230000D01*
X123860000Y-59244285D01*
X123845714Y-59258571D01*
X123831428Y-59287142D01*
X123831428Y-59358571D01*
X123845714Y-59387142D01*
X123860000Y-59401428D01*
X123888571Y-59415714D01*
X123974285Y-59415714D01*
X124002857Y-59401428D01*
X124017142Y-59387142D01*
%TO.C,R26*%
X130302857Y-57125714D02*
X130402857Y-56982857D01*
X130474285Y-57125714D02*
X130474285Y-56825714D01*
X130360000Y-56825714D01*
X130331428Y-56840000D01*
X130317142Y-56854285D01*
X130302857Y-56882857D01*
X130302857Y-56925714D01*
X130317142Y-56954285D01*
X130331428Y-56968571D01*
X130360000Y-56982857D01*
X130474285Y-56982857D01*
X130188571Y-56854285D02*
X130174285Y-56840000D01*
X130145714Y-56825714D01*
X130074285Y-56825714D01*
X130045714Y-56840000D01*
X130031428Y-56854285D01*
X130017142Y-56882857D01*
X130017142Y-56911428D01*
X130031428Y-56954285D01*
X130202857Y-57125714D01*
X130017142Y-57125714D01*
X129760000Y-56825714D02*
X129817142Y-56825714D01*
X129845714Y-56840000D01*
X129860000Y-56854285D01*
X129888571Y-56897142D01*
X129902857Y-56954285D01*
X129902857Y-57068571D01*
X129888571Y-57097142D01*
X129874285Y-57111428D01*
X129845714Y-57125714D01*
X129788571Y-57125714D01*
X129760000Y-57111428D01*
X129745714Y-57097142D01*
X129731428Y-57068571D01*
X129731428Y-56997142D01*
X129745714Y-56968571D01*
X129760000Y-56954285D01*
X129788571Y-56940000D01*
X129845714Y-56940000D01*
X129874285Y-56954285D01*
X129888571Y-56968571D01*
X129902857Y-56997142D01*
%TO.C,C50*%
X125357142Y-57587142D02*
X125371428Y-57572857D01*
X125385714Y-57530000D01*
X125385714Y-57501428D01*
X125371428Y-57458571D01*
X125342857Y-57430000D01*
X125314285Y-57415714D01*
X125257142Y-57401428D01*
X125214285Y-57401428D01*
X125157142Y-57415714D01*
X125128571Y-57430000D01*
X125100000Y-57458571D01*
X125085714Y-57501428D01*
X125085714Y-57530000D01*
X125100000Y-57572857D01*
X125114285Y-57587142D01*
X125085714Y-57858571D02*
X125085714Y-57715714D01*
X125228571Y-57701428D01*
X125214285Y-57715714D01*
X125200000Y-57744285D01*
X125200000Y-57815714D01*
X125214285Y-57844285D01*
X125228571Y-57858571D01*
X125257142Y-57872857D01*
X125328571Y-57872857D01*
X125357142Y-57858571D01*
X125371428Y-57844285D01*
X125385714Y-57815714D01*
X125385714Y-57744285D01*
X125371428Y-57715714D01*
X125357142Y-57701428D01*
X125085714Y-58058571D02*
X125085714Y-58087142D01*
X125100000Y-58115714D01*
X125114285Y-58130000D01*
X125142857Y-58144285D01*
X125200000Y-58158571D01*
X125271428Y-58158571D01*
X125328571Y-58144285D01*
X125357142Y-58130000D01*
X125371428Y-58115714D01*
X125385714Y-58087142D01*
X125385714Y-58058571D01*
X125371428Y-58030000D01*
X125357142Y-58015714D01*
X125328571Y-58001428D01*
X125271428Y-57987142D01*
X125200000Y-57987142D01*
X125142857Y-58001428D01*
X125114285Y-58015714D01*
X125100000Y-58030000D01*
X125085714Y-58058571D01*
%TO.C,J2*%
X123650000Y-61845714D02*
X123650000Y-62060000D01*
X123664285Y-62102857D01*
X123692857Y-62131428D01*
X123735714Y-62145714D01*
X123764285Y-62145714D01*
X123521428Y-61874285D02*
X123507142Y-61860000D01*
X123478571Y-61845714D01*
X123407142Y-61845714D01*
X123378571Y-61860000D01*
X123364285Y-61874285D01*
X123350000Y-61902857D01*
X123350000Y-61931428D01*
X123364285Y-61974285D01*
X123535714Y-62145714D01*
X123350000Y-62145714D01*
%TO.C,U12*%
X119811428Y-56725714D02*
X119811428Y-56968571D01*
X119797142Y-56997142D01*
X119782857Y-57011428D01*
X119754285Y-57025714D01*
X119697142Y-57025714D01*
X119668571Y-57011428D01*
X119654285Y-56997142D01*
X119640000Y-56968571D01*
X119640000Y-56725714D01*
X119340000Y-57025714D02*
X119511428Y-57025714D01*
X119425714Y-57025714D02*
X119425714Y-56725714D01*
X119454285Y-56768571D01*
X119482857Y-56797142D01*
X119511428Y-56811428D01*
X119225714Y-56754285D02*
X119211428Y-56740000D01*
X119182857Y-56725714D01*
X119111428Y-56725714D01*
X119082857Y-56740000D01*
X119068571Y-56754285D01*
X119054285Y-56782857D01*
X119054285Y-56811428D01*
X119068571Y-56854285D01*
X119240000Y-57025714D01*
X119054285Y-57025714D01*
%TO.C,C68*%
X115202857Y-64017142D02*
X115217142Y-64031428D01*
X115260000Y-64045714D01*
X115288571Y-64045714D01*
X115331428Y-64031428D01*
X115360000Y-64002857D01*
X115374285Y-63974285D01*
X115388571Y-63917142D01*
X115388571Y-63874285D01*
X115374285Y-63817142D01*
X115360000Y-63788571D01*
X115331428Y-63760000D01*
X115288571Y-63745714D01*
X115260000Y-63745714D01*
X115217142Y-63760000D01*
X115202857Y-63774285D01*
X114945714Y-63745714D02*
X115002857Y-63745714D01*
X115031428Y-63760000D01*
X115045714Y-63774285D01*
X115074285Y-63817142D01*
X115088571Y-63874285D01*
X115088571Y-63988571D01*
X115074285Y-64017142D01*
X115060000Y-64031428D01*
X115031428Y-64045714D01*
X114974285Y-64045714D01*
X114945714Y-64031428D01*
X114931428Y-64017142D01*
X114917142Y-63988571D01*
X114917142Y-63917142D01*
X114931428Y-63888571D01*
X114945714Y-63874285D01*
X114974285Y-63860000D01*
X115031428Y-63860000D01*
X115060000Y-63874285D01*
X115074285Y-63888571D01*
X115088571Y-63917142D01*
X114745714Y-63874285D02*
X114774285Y-63860000D01*
X114788571Y-63845714D01*
X114802857Y-63817142D01*
X114802857Y-63802857D01*
X114788571Y-63774285D01*
X114774285Y-63760000D01*
X114745714Y-63745714D01*
X114688571Y-63745714D01*
X114660000Y-63760000D01*
X114645714Y-63774285D01*
X114631428Y-63802857D01*
X114631428Y-63817142D01*
X114645714Y-63845714D01*
X114660000Y-63860000D01*
X114688571Y-63874285D01*
X114745714Y-63874285D01*
X114774285Y-63888571D01*
X114788571Y-63902857D01*
X114802857Y-63931428D01*
X114802857Y-63988571D01*
X114788571Y-64017142D01*
X114774285Y-64031428D01*
X114745714Y-64045714D01*
X114688571Y-64045714D01*
X114660000Y-64031428D01*
X114645714Y-64017142D01*
X114631428Y-63988571D01*
X114631428Y-63931428D01*
X114645714Y-63902857D01*
X114660000Y-63888571D01*
X114688571Y-63874285D01*
%TO.C,L14*%
X126272857Y-56245714D02*
X126415714Y-56245714D01*
X126415714Y-55945714D01*
X126015714Y-56245714D02*
X126187142Y-56245714D01*
X126101428Y-56245714D02*
X126101428Y-55945714D01*
X126130000Y-55988571D01*
X126158571Y-56017142D01*
X126187142Y-56031428D01*
X125758571Y-56045714D02*
X125758571Y-56245714D01*
X125830000Y-55931428D02*
X125901428Y-56145714D01*
X125715714Y-56145714D01*
%TO.C,C31*%
X114757142Y-62907142D02*
X114771428Y-62892857D01*
X114785714Y-62850000D01*
X114785714Y-62821428D01*
X114771428Y-62778571D01*
X114742857Y-62750000D01*
X114714285Y-62735714D01*
X114657142Y-62721428D01*
X114614285Y-62721428D01*
X114557142Y-62735714D01*
X114528571Y-62750000D01*
X114500000Y-62778571D01*
X114485714Y-62821428D01*
X114485714Y-62850000D01*
X114500000Y-62892857D01*
X114514285Y-62907142D01*
X114485714Y-63007142D02*
X114485714Y-63192857D01*
X114600000Y-63092857D01*
X114600000Y-63135714D01*
X114614285Y-63164285D01*
X114628571Y-63178571D01*
X114657142Y-63192857D01*
X114728571Y-63192857D01*
X114757142Y-63178571D01*
X114771428Y-63164285D01*
X114785714Y-63135714D01*
X114785714Y-63050000D01*
X114771428Y-63021428D01*
X114757142Y-63007142D01*
X114785714Y-63478571D02*
X114785714Y-63307142D01*
X114785714Y-63392857D02*
X114485714Y-63392857D01*
X114528571Y-63364285D01*
X114557142Y-63335714D01*
X114571428Y-63307142D01*
%TO.C,U9*%
X115871428Y-64135714D02*
X115871428Y-64378571D01*
X115885714Y-64407142D01*
X115900000Y-64421428D01*
X115928571Y-64435714D01*
X115985714Y-64435714D01*
X116014285Y-64421428D01*
X116028571Y-64407142D01*
X116042857Y-64378571D01*
X116042857Y-64135714D01*
X116200000Y-64435714D02*
X116257142Y-64435714D01*
X116285714Y-64421428D01*
X116300000Y-64407142D01*
X116328571Y-64364285D01*
X116342857Y-64307142D01*
X116342857Y-64192857D01*
X116328571Y-64164285D01*
X116314285Y-64150000D01*
X116285714Y-64135714D01*
X116228571Y-64135714D01*
X116200000Y-64150000D01*
X116185714Y-64164285D01*
X116171428Y-64192857D01*
X116171428Y-64264285D01*
X116185714Y-64292857D01*
X116200000Y-64307142D01*
X116228571Y-64321428D01*
X116285714Y-64321428D01*
X116314285Y-64307142D01*
X116328571Y-64292857D01*
X116342857Y-64264285D01*
%TO.C,R21*%
X126572857Y-57065714D02*
X126672857Y-56922857D01*
X126744285Y-57065714D02*
X126744285Y-56765714D01*
X126630000Y-56765714D01*
X126601428Y-56780000D01*
X126587142Y-56794285D01*
X126572857Y-56822857D01*
X126572857Y-56865714D01*
X126587142Y-56894285D01*
X126601428Y-56908571D01*
X126630000Y-56922857D01*
X126744285Y-56922857D01*
X126458571Y-56794285D02*
X126444285Y-56780000D01*
X126415714Y-56765714D01*
X126344285Y-56765714D01*
X126315714Y-56780000D01*
X126301428Y-56794285D01*
X126287142Y-56822857D01*
X126287142Y-56851428D01*
X126301428Y-56894285D01*
X126472857Y-57065714D01*
X126287142Y-57065714D01*
X126001428Y-57065714D02*
X126172857Y-57065714D01*
X126087142Y-57065714D02*
X126087142Y-56765714D01*
X126115714Y-56808571D01*
X126144285Y-56837142D01*
X126172857Y-56851428D01*
%TO.C,C46*%
X123077142Y-59357142D02*
X123091428Y-59342857D01*
X123105714Y-59300000D01*
X123105714Y-59271428D01*
X123091428Y-59228571D01*
X123062857Y-59200000D01*
X123034285Y-59185714D01*
X122977142Y-59171428D01*
X122934285Y-59171428D01*
X122877142Y-59185714D01*
X122848571Y-59200000D01*
X122820000Y-59228571D01*
X122805714Y-59271428D01*
X122805714Y-59300000D01*
X122820000Y-59342857D01*
X122834285Y-59357142D01*
X122905714Y-59614285D02*
X123105714Y-59614285D01*
X122791428Y-59542857D02*
X123005714Y-59471428D01*
X123005714Y-59657142D01*
X122805714Y-59900000D02*
X122805714Y-59842857D01*
X122820000Y-59814285D01*
X122834285Y-59800000D01*
X122877142Y-59771428D01*
X122934285Y-59757142D01*
X123048571Y-59757142D01*
X123077142Y-59771428D01*
X123091428Y-59785714D01*
X123105714Y-59814285D01*
X123105714Y-59871428D01*
X123091428Y-59900000D01*
X123077142Y-59914285D01*
X123048571Y-59928571D01*
X122977142Y-59928571D01*
X122948571Y-59914285D01*
X122934285Y-59900000D01*
X122920000Y-59871428D01*
X122920000Y-59814285D01*
X122934285Y-59785714D01*
X122948571Y-59771428D01*
X122977142Y-59757142D01*
D11*
%TO.C,C24*%
X115760000Y-59230000D02*
X115760000Y-58630000D01*
X115760000Y-58630000D02*
X115460000Y-58630000D01*
X115460000Y-58630000D02*
X115460000Y-59230000D01*
X115460000Y-59230000D02*
X115760000Y-59230000D01*
%TO.C,C27*%
X118400000Y-65200000D02*
X119000000Y-65200000D01*
X119000000Y-65200000D02*
X119000000Y-64900000D01*
X119000000Y-64900000D02*
X118400000Y-64900000D01*
X118400000Y-64900000D02*
X118400000Y-65200000D01*
%TO.C,R13*%
X129200000Y-69790000D02*
X128600000Y-69790000D01*
X128600000Y-70090000D02*
X129200000Y-70090000D01*
X128600000Y-69790000D02*
X128600000Y-70090000D01*
X129200000Y-70090000D02*
X129200000Y-69790000D01*
%TO.C,R16*%
X117440000Y-56300000D02*
X117440000Y-56600000D01*
X117440000Y-56600000D02*
X118040000Y-56600000D01*
X118040000Y-56300000D02*
X117440000Y-56300000D01*
X118040000Y-56600000D02*
X118040000Y-56300000D01*
%TO.C,C65*%
X118720000Y-68560000D02*
X119020000Y-68560000D01*
X119020000Y-67960000D02*
X118720000Y-67960000D01*
X118720000Y-67960000D02*
X118720000Y-68560000D01*
X119020000Y-68560000D02*
X119020000Y-67960000D01*
%TO.C,JP1*%
X126663576Y-58933576D02*
X126363576Y-58933576D01*
X126363576Y-59533576D02*
X126663576Y-59533576D01*
%TO.C,C43*%
X123793576Y-57423576D02*
X123793576Y-56823576D01*
X123493576Y-56823576D02*
X123493576Y-57423576D01*
X123793576Y-56823576D02*
X123493576Y-56823576D01*
X123493576Y-57423576D02*
X123793576Y-57423576D01*
%TO.C,C28*%
X118400000Y-64200000D02*
X118400000Y-64500000D01*
X118400000Y-64500000D02*
X119000000Y-64500000D01*
X119000000Y-64500000D02*
X119000000Y-64200000D01*
X119000000Y-64200000D02*
X118400000Y-64200000D01*
%TO.C,C52*%
X123088576Y-54583576D02*
X122588576Y-54583576D01*
X123088576Y-55583576D02*
X123088576Y-54583576D01*
X122588576Y-55583576D02*
X123088576Y-55583576D01*
X122588576Y-54583576D02*
X122588576Y-55583576D01*
%TO.C,C54*%
X122110000Y-59740000D02*
X122110000Y-59240000D01*
X121110000Y-59740000D02*
X122110000Y-59740000D01*
X121110000Y-59240000D02*
X121110000Y-59740000D01*
X122110000Y-59240000D02*
X121110000Y-59240000D01*
%TO.C,U2*%
X117963576Y-58100000D02*
X117963576Y-59800000D01*
X116263576Y-58950000D02*
X117113576Y-58100000D01*
X116263576Y-59800000D02*
X116263576Y-58950000D01*
X117963576Y-59800000D02*
X116263576Y-59800000D01*
X117113576Y-58100000D02*
X117963576Y-58100000D01*
%TO.C,U11*%
X127263576Y-59533576D02*
X128513576Y-59533576D01*
X127263576Y-56533576D02*
X127263576Y-59533576D01*
X129263576Y-56533576D02*
X127263576Y-56533576D01*
X128513576Y-59533576D02*
X129263576Y-58783576D01*
X129263576Y-58783576D02*
X129263576Y-56533576D01*
%TO.C,R2*%
X124338576Y-54233576D02*
X123738576Y-54233576D01*
X124338576Y-54533576D02*
X124338576Y-54233576D01*
X123738576Y-54233576D02*
X123738576Y-54533576D01*
X123738576Y-54533576D02*
X124338576Y-54533576D01*
%TO.C,C55*%
X124493576Y-55283576D02*
X124493576Y-55783576D01*
X125493576Y-55283576D02*
X124493576Y-55283576D01*
X124493576Y-55783576D02*
X125493576Y-55783576D01*
X125493576Y-55783576D02*
X125493576Y-55283576D01*
%TO.C,L10*%
X119963576Y-58383576D02*
X119963576Y-58983576D01*
X119963576Y-58983576D02*
X120263576Y-58983576D01*
X120263576Y-58383576D02*
X119963576Y-58383576D01*
X120263576Y-58983576D02*
X120263576Y-58383576D01*
%TO.C,L13*%
X119338576Y-59683576D02*
X119338576Y-59383576D01*
X118738576Y-59383576D02*
X118738576Y-59683576D01*
X119338576Y-59383576D02*
X118738576Y-59383576D01*
X118738576Y-59683576D02*
X119338576Y-59683576D01*
%TO.C,R22*%
X126713576Y-57883576D02*
X126113576Y-57883576D01*
X126113576Y-57883576D02*
X126113576Y-58183576D01*
X126113576Y-58183576D02*
X126713576Y-58183576D01*
X126713576Y-58183576D02*
X126713576Y-57883576D01*
%TO.C,C45*%
X124313576Y-58583576D02*
X124313576Y-58283576D01*
X123713576Y-58283576D02*
X123713576Y-58583576D01*
X124313576Y-58283576D02*
X123713576Y-58283576D01*
X123713576Y-58583576D02*
X124313576Y-58583576D01*
%TO.C,L16*%
X119463576Y-55233576D02*
X119463576Y-55533576D01*
X120063576Y-55233576D02*
X119463576Y-55233576D01*
X119463576Y-55533576D02*
X120063576Y-55533576D01*
X120063576Y-55533576D02*
X120063576Y-55233576D01*
%TO.C,C66*%
X118300000Y-66560000D02*
X118900000Y-66560000D01*
X118900000Y-66260000D02*
X118300000Y-66260000D01*
X118900000Y-66560000D02*
X118900000Y-66260000D01*
X118300000Y-66260000D02*
X118300000Y-66560000D01*
%TO.C,C23*%
X117680000Y-57570000D02*
X117680000Y-57070000D01*
X117680000Y-57070000D02*
X116680000Y-57070000D01*
X116680000Y-57070000D02*
X116680000Y-57570000D01*
X116680000Y-57570000D02*
X117680000Y-57570000D01*
%TO.C,C57*%
X120663576Y-57540000D02*
X120663576Y-58540000D01*
X120663576Y-58540000D02*
X121163576Y-58540000D01*
X121163576Y-58540000D02*
X121163576Y-57540000D01*
X121163576Y-57540000D02*
X120663576Y-57540000D01*
%TO.C,C49*%
X120938576Y-56783576D02*
X121538576Y-56783576D01*
X121538576Y-56783576D02*
X121538576Y-56483576D01*
X120938576Y-56483576D02*
X120938576Y-56783576D01*
X121538576Y-56483576D02*
X120938576Y-56483576D01*
%TO.C,C37*%
X117080000Y-68800000D02*
X117580000Y-68800000D01*
X117080000Y-67800000D02*
X117080000Y-68800000D01*
X117580000Y-68800000D02*
X117580000Y-67800000D01*
X117580000Y-67800000D02*
X117080000Y-67800000D01*
%TO.C,C47*%
X125013576Y-56583576D02*
X125013576Y-56283576D01*
X125013576Y-56283576D02*
X124413576Y-56283576D01*
X124413576Y-56583576D02*
X125013576Y-56583576D01*
X124413576Y-56283576D02*
X124413576Y-56583576D01*
%TO.C,C51*%
X121613576Y-57530000D02*
X121613576Y-58530000D01*
X122113576Y-58530000D02*
X122113576Y-57530000D01*
X121613576Y-58530000D02*
X122113576Y-58530000D01*
X122113576Y-57530000D02*
X121613576Y-57530000D01*
%TO.C,C56*%
X120963576Y-55583576D02*
X120963576Y-56083576D01*
X121963576Y-56083576D02*
X121963576Y-55583576D01*
X120963576Y-56083576D02*
X121963576Y-56083576D01*
X121963576Y-55583576D02*
X120963576Y-55583576D01*
%TO.C,C44*%
X123813576Y-55933576D02*
X123813576Y-55333576D01*
X123513576Y-55933576D02*
X123813576Y-55933576D01*
X123813576Y-55333576D02*
X123513576Y-55333576D01*
X123513576Y-55333576D02*
X123513576Y-55933576D01*
%TO.C,C48*%
X122793576Y-56483576D02*
X122793576Y-57083576D01*
X122793576Y-57083576D02*
X123093576Y-57083576D01*
X123093576Y-57083576D02*
X123093576Y-56483576D01*
X123093576Y-56483576D02*
X122793576Y-56483576D01*
D10*
%TO.C,U10*%
X118144069Y-66977500D02*
G75*
G03*
X118144069Y-66977500I-56569J0D01*
G01*
X117942500Y-66832500D02*
X118582500Y-66832500D01*
X118582500Y-66832500D02*
X118582500Y-67472500D01*
X118582500Y-67472500D02*
X117942500Y-67472500D01*
X117942500Y-67472500D02*
X117942500Y-66832500D01*
D12*
%TO.C,U1*%
X120000000Y-64700000D02*
X127000000Y-64700000D01*
X127000000Y-64700000D02*
X127000000Y-70700000D01*
X126000000Y-71700000D02*
X120000000Y-71700000D01*
X120000000Y-71700000D02*
X120000000Y-64700000D01*
X127000000Y-70700000D02*
X126000000Y-71700000D01*
D11*
%TO.C,R1*%
X125750000Y-54233576D02*
X125150000Y-54233576D01*
X125150000Y-54233576D02*
X125150000Y-54533576D01*
X125150000Y-54533576D02*
X125750000Y-54533576D01*
X125750000Y-54533576D02*
X125750000Y-54233576D01*
D10*
%TO.C,U5*%
X118690000Y-66830000D02*
X119330000Y-66830000D01*
X119330000Y-66830000D02*
X119330000Y-67470000D01*
X119330000Y-67470000D02*
X118690000Y-67470000D01*
X118690000Y-67470000D02*
X118690000Y-66830000D01*
X118891569Y-66975000D02*
G75*
G03*
X118891569Y-66975000I-56569J0D01*
G01*
D11*
%TO.C,L12*%
X125463576Y-59083576D02*
X125463576Y-59683576D01*
X125763576Y-59083576D02*
X125463576Y-59083576D01*
X125763576Y-59683576D02*
X125763576Y-59083576D01*
X125463576Y-59683576D02*
X125763576Y-59683576D01*
%TO.C,C22*%
X127790000Y-64600000D02*
X127790000Y-65200000D01*
X128090000Y-65200000D02*
X128090000Y-64600000D01*
X128090000Y-64600000D02*
X127790000Y-64600000D01*
X127790000Y-65200000D02*
X128090000Y-65200000D01*
%TO.C,C69*%
X118020000Y-67960000D02*
X118020000Y-68560000D01*
X118020000Y-68560000D02*
X118320000Y-68560000D01*
X118320000Y-67960000D02*
X118020000Y-67960000D01*
X118320000Y-68560000D02*
X118320000Y-67960000D01*
%TO.C,C67*%
X116900000Y-64450000D02*
X117500000Y-64450000D01*
X117500000Y-64450000D02*
X117500000Y-64150000D01*
X116900000Y-64150000D02*
X116900000Y-64450000D01*
X117500000Y-64150000D02*
X116900000Y-64150000D01*
%TO.C,C42*%
X127800000Y-55910000D02*
X128400000Y-55910000D01*
X128400000Y-55610000D02*
X127800000Y-55610000D01*
X127800000Y-55610000D02*
X127800000Y-55910000D01*
X128400000Y-55910000D02*
X128400000Y-55610000D01*
%TO.C,C32*%
X114890000Y-61740000D02*
X114890000Y-60740000D01*
X114390000Y-61740000D02*
X114890000Y-61740000D01*
X114890000Y-60740000D02*
X114390000Y-60740000D01*
X114390000Y-60740000D02*
X114390000Y-61740000D01*
%TO.C,C58*%
X118688576Y-58233576D02*
X118688576Y-58533576D01*
X119288576Y-58533576D02*
X119288576Y-58233576D01*
X118688576Y-58533576D02*
X119288576Y-58533576D01*
X119288576Y-58233576D02*
X118688576Y-58233576D01*
%TO.C,L11*%
X122138576Y-54308576D02*
X121838576Y-54308576D01*
X122138576Y-54908576D02*
X122138576Y-54308576D01*
X121838576Y-54308576D02*
X121838576Y-54908576D01*
X121838576Y-54908576D02*
X122138576Y-54908576D01*
%TO.C,R23*%
X118950000Y-70730000D02*
X119250000Y-70730000D01*
X118950000Y-70130000D02*
X118950000Y-70730000D01*
X119250000Y-70130000D02*
X118950000Y-70130000D01*
X119250000Y-70730000D02*
X119250000Y-70130000D01*
%TO.C,U13*%
X117774998Y-64775001D02*
X114825002Y-64775001D01*
X117774998Y-67124999D02*
X114825002Y-67124999D01*
X114825002Y-67124999D02*
X114825002Y-64775001D01*
X117774998Y-67124999D02*
X117774998Y-64775001D01*
X117500001Y-65149999D02*
G75*
G03*
X117500001Y-65149999I-200000J0D01*
G01*
X117500001Y-65149999D02*
G75*
G03*
X117500001Y-65149999I-200000J0D01*
G01*
%TO.C,C30*%
X116606506Y-68488013D02*
X116106506Y-67621987D01*
X115673494Y-67871987D02*
X116173494Y-68738013D01*
X116106506Y-67621987D02*
X115673494Y-67871987D01*
X116173494Y-68738013D02*
X116606506Y-68488013D01*
%TO.C,L15*%
X120643576Y-54493576D02*
X120643576Y-54793576D01*
X120643576Y-54793576D02*
X121243576Y-54793576D01*
X121243576Y-54793576D02*
X121243576Y-54493576D01*
X121243576Y-54493576D02*
X120643576Y-54493576D01*
%TO.C,U6*%
X131360000Y-59733576D02*
X130510000Y-59733576D01*
X129660000Y-58033576D02*
X131360000Y-58033576D01*
X129660000Y-58883576D02*
X129660000Y-58033576D01*
X130510000Y-59733576D02*
X129660000Y-58883576D01*
X131360000Y-58033576D02*
X131360000Y-59733576D01*
%TO.C,C53*%
X124713576Y-59033576D02*
X123713576Y-59033576D01*
X124713576Y-59533576D02*
X124713576Y-59033576D01*
X123713576Y-59533576D02*
X124713576Y-59533576D01*
X123713576Y-59033576D02*
X123713576Y-59533576D01*
%TO.C,R26*%
X130380000Y-57270000D02*
X129780000Y-57270000D01*
X130380000Y-57570000D02*
X130380000Y-57270000D01*
X129780000Y-57570000D02*
X130380000Y-57570000D01*
X129780000Y-57270000D02*
X129780000Y-57570000D01*
%TO.C,C50*%
X125453576Y-58293576D02*
X125453576Y-57293576D01*
X125453576Y-57293576D02*
X124953576Y-57293576D01*
X124953576Y-57293576D02*
X124953576Y-58293576D01*
X124953576Y-58293576D02*
X125453576Y-58293576D01*
D13*
%TO.C,J2*%
X131260000Y-62925000D02*
X131260000Y-61075000D01*
X115740000Y-61075000D02*
X115740000Y-62925000D01*
X115740000Y-62925000D02*
X131260000Y-62925000D01*
X131260000Y-61075000D02*
X115740000Y-61075000D01*
D12*
X130375000Y-63400000D02*
G75*
G03*
X130375000Y-63400000I-75000J0D01*
G01*
D11*
%TO.C,U12*%
X120238576Y-55883576D02*
X118638576Y-55883576D01*
X118638576Y-57883576D02*
X120238576Y-57883576D01*
X120238576Y-57883576D02*
X120238576Y-55883576D01*
X118638576Y-55883576D02*
X118638576Y-57883576D01*
X119079997Y-57583576D02*
G75*
G03*
X119079997Y-57583576I-141421J0D01*
G01*
%TO.C,C68*%
X114700000Y-64450000D02*
X115300000Y-64450000D01*
X115300000Y-64150000D02*
X114700000Y-64150000D01*
X115300000Y-64450000D02*
X115300000Y-64150000D01*
X114700000Y-64150000D02*
X114700000Y-64450000D01*
%TO.C,L14*%
X125813576Y-56683576D02*
X126413576Y-56683576D01*
X126413576Y-56383576D02*
X125813576Y-56383576D01*
X125813576Y-56383576D02*
X125813576Y-56683576D01*
X126413576Y-56683576D02*
X126413576Y-56383576D01*
%TO.C,C31*%
X114390000Y-62550000D02*
X114390000Y-63550000D01*
X114390000Y-63550000D02*
X114890000Y-63550000D01*
X114890000Y-62550000D02*
X114390000Y-62550000D01*
X114890000Y-63550000D02*
X114890000Y-62550000D01*
D10*
%TO.C,U9*%
X115981569Y-64475000D02*
G75*
G03*
X115981569Y-64475000I-56569J0D01*
G01*
X115780000Y-64620000D02*
X116420000Y-64620000D01*
X116420000Y-64620000D02*
X116420000Y-63980000D01*
X116420000Y-63980000D02*
X115780000Y-63980000D01*
X115780000Y-63980000D02*
X115780000Y-64620000D01*
D11*
%TO.C,R21*%
X126713576Y-57483576D02*
X126713576Y-57183576D01*
X126113576Y-57183576D02*
X126113576Y-57483576D01*
X126113576Y-57483576D02*
X126713576Y-57483576D01*
X126713576Y-57183576D02*
X126113576Y-57183576D01*
%TO.C,C46*%
X123063576Y-59023576D02*
X123063576Y-58423576D01*
X122763576Y-59023576D02*
X123063576Y-59023576D01*
X123063576Y-58423576D02*
X122763576Y-58423576D01*
X122763576Y-58423576D02*
X122763576Y-59023576D01*
%TD*%
M02*
