%TF.GenerationSoftware,KiCad,Pcbnew,8.0.3*%
%TF.CreationDate,2024-10-01T18:17:42-04:00*%
%TF.ProjectId,headstage-16stim,68656164-7374-4616-9765-2d3136737469,B*%
%TF.SameCoordinates,Original*%
%TF.FileFunction,AssemblyDrawing,Bot*%
%FSLAX46Y46*%
G04 Gerber Fmt 4.6, Leading zero omitted, Abs format (unit mm)*
G04 Created by KiCad (PCBNEW 8.0.3) date 2024-10-01 18:17:42*
%MOMM*%
%LPD*%
G01*
G04 APERTURE LIST*
%ADD10C,0.050000*%
%ADD11C,0.100000*%
%ADD12C,0.150000*%
%ADD13C,0.200000*%
G04 APERTURE END LIST*
D10*
X115727614Y-57897143D02*
X115741900Y-57882857D01*
X115741900Y-57882857D02*
X115756185Y-57840000D01*
X115756185Y-57840000D02*
X115756185Y-57811428D01*
X115756185Y-57811428D02*
X115741900Y-57768571D01*
X115741900Y-57768571D02*
X115713328Y-57740000D01*
X115713328Y-57740000D02*
X115684757Y-57725714D01*
X115684757Y-57725714D02*
X115627614Y-57711428D01*
X115627614Y-57711428D02*
X115584757Y-57711428D01*
X115584757Y-57711428D02*
X115527614Y-57725714D01*
X115527614Y-57725714D02*
X115499042Y-57740000D01*
X115499042Y-57740000D02*
X115470471Y-57768571D01*
X115470471Y-57768571D02*
X115456185Y-57811428D01*
X115456185Y-57811428D02*
X115456185Y-57840000D01*
X115456185Y-57840000D02*
X115470471Y-57882857D01*
X115470471Y-57882857D02*
X115484757Y-57897143D01*
X115484757Y-58011428D02*
X115470471Y-58025714D01*
X115470471Y-58025714D02*
X115456185Y-58054286D01*
X115456185Y-58054286D02*
X115456185Y-58125714D01*
X115456185Y-58125714D02*
X115470471Y-58154286D01*
X115470471Y-58154286D02*
X115484757Y-58168571D01*
X115484757Y-58168571D02*
X115513328Y-58182857D01*
X115513328Y-58182857D02*
X115541900Y-58182857D01*
X115541900Y-58182857D02*
X115584757Y-58168571D01*
X115584757Y-58168571D02*
X115756185Y-57997143D01*
X115756185Y-57997143D02*
X115756185Y-58182857D01*
X115556185Y-58440000D02*
X115756185Y-58440000D01*
X115441900Y-58368571D02*
X115656185Y-58297142D01*
X115656185Y-58297142D02*
X115656185Y-58482857D01*
X120208570Y-54536185D02*
X120037142Y-54536185D01*
X120122856Y-54836185D02*
X120122856Y-54536185D01*
X119937142Y-54836185D02*
X119937142Y-54536185D01*
X119937142Y-54536185D02*
X119822856Y-54536185D01*
X119822856Y-54536185D02*
X119794285Y-54550471D01*
X119794285Y-54550471D02*
X119779999Y-54564757D01*
X119779999Y-54564757D02*
X119765713Y-54593328D01*
X119765713Y-54593328D02*
X119765713Y-54636185D01*
X119765713Y-54636185D02*
X119779999Y-54664757D01*
X119779999Y-54664757D02*
X119794285Y-54679042D01*
X119794285Y-54679042D02*
X119822856Y-54693328D01*
X119822856Y-54693328D02*
X119937142Y-54693328D01*
X119665713Y-54536185D02*
X119479999Y-54536185D01*
X119479999Y-54536185D02*
X119579999Y-54650471D01*
X119579999Y-54650471D02*
X119537142Y-54650471D01*
X119537142Y-54650471D02*
X119508571Y-54664757D01*
X119508571Y-54664757D02*
X119494285Y-54679042D01*
X119494285Y-54679042D02*
X119479999Y-54707614D01*
X119479999Y-54707614D02*
X119479999Y-54779042D01*
X119479999Y-54779042D02*
X119494285Y-54807614D01*
X119494285Y-54807614D02*
X119508571Y-54821900D01*
X119508571Y-54821900D02*
X119537142Y-54836185D01*
X119537142Y-54836185D02*
X119622856Y-54836185D01*
X119622856Y-54836185D02*
X119651428Y-54821900D01*
X119651428Y-54821900D02*
X119665713Y-54807614D01*
X118902856Y-65577614D02*
X118917142Y-65591900D01*
X118917142Y-65591900D02*
X118959999Y-65606185D01*
X118959999Y-65606185D02*
X118988571Y-65606185D01*
X118988571Y-65606185D02*
X119031428Y-65591900D01*
X119031428Y-65591900D02*
X119059999Y-65563328D01*
X119059999Y-65563328D02*
X119074285Y-65534757D01*
X119074285Y-65534757D02*
X119088571Y-65477614D01*
X119088571Y-65477614D02*
X119088571Y-65434757D01*
X119088571Y-65434757D02*
X119074285Y-65377614D01*
X119074285Y-65377614D02*
X119059999Y-65349042D01*
X119059999Y-65349042D02*
X119031428Y-65320471D01*
X119031428Y-65320471D02*
X118988571Y-65306185D01*
X118988571Y-65306185D02*
X118959999Y-65306185D01*
X118959999Y-65306185D02*
X118917142Y-65320471D01*
X118917142Y-65320471D02*
X118902856Y-65334757D01*
X118788571Y-65334757D02*
X118774285Y-65320471D01*
X118774285Y-65320471D02*
X118745714Y-65306185D01*
X118745714Y-65306185D02*
X118674285Y-65306185D01*
X118674285Y-65306185D02*
X118645714Y-65320471D01*
X118645714Y-65320471D02*
X118631428Y-65334757D01*
X118631428Y-65334757D02*
X118617142Y-65363328D01*
X118617142Y-65363328D02*
X118617142Y-65391900D01*
X118617142Y-65391900D02*
X118631428Y-65434757D01*
X118631428Y-65434757D02*
X118802856Y-65606185D01*
X118802856Y-65606185D02*
X118617142Y-65606185D01*
X118517142Y-65306185D02*
X118317142Y-65306185D01*
X118317142Y-65306185D02*
X118445714Y-65606185D01*
X129102856Y-70556185D02*
X129202856Y-70413328D01*
X129274285Y-70556185D02*
X129274285Y-70256185D01*
X129274285Y-70256185D02*
X129159999Y-70256185D01*
X129159999Y-70256185D02*
X129131428Y-70270471D01*
X129131428Y-70270471D02*
X129117142Y-70284757D01*
X129117142Y-70284757D02*
X129102856Y-70313328D01*
X129102856Y-70313328D02*
X129102856Y-70356185D01*
X129102856Y-70356185D02*
X129117142Y-70384757D01*
X129117142Y-70384757D02*
X129131428Y-70399042D01*
X129131428Y-70399042D02*
X129159999Y-70413328D01*
X129159999Y-70413328D02*
X129274285Y-70413328D01*
X128817142Y-70556185D02*
X128988571Y-70556185D01*
X128902856Y-70556185D02*
X128902856Y-70256185D01*
X128902856Y-70256185D02*
X128931428Y-70299042D01*
X128931428Y-70299042D02*
X128959999Y-70327614D01*
X128959999Y-70327614D02*
X128988571Y-70341900D01*
X128717142Y-70256185D02*
X128531428Y-70256185D01*
X128531428Y-70256185D02*
X128631428Y-70370471D01*
X128631428Y-70370471D02*
X128588571Y-70370471D01*
X128588571Y-70370471D02*
X128560000Y-70384757D01*
X128560000Y-70384757D02*
X128545714Y-70399042D01*
X128545714Y-70399042D02*
X128531428Y-70427614D01*
X128531428Y-70427614D02*
X128531428Y-70499042D01*
X128531428Y-70499042D02*
X128545714Y-70527614D01*
X128545714Y-70527614D02*
X128560000Y-70541900D01*
X128560000Y-70541900D02*
X128588571Y-70556185D01*
X128588571Y-70556185D02*
X128674285Y-70556185D01*
X128674285Y-70556185D02*
X128702857Y-70541900D01*
X128702857Y-70541900D02*
X128717142Y-70527614D01*
X117912856Y-56176185D02*
X118012856Y-56033328D01*
X118084285Y-56176185D02*
X118084285Y-55876185D01*
X118084285Y-55876185D02*
X117969999Y-55876185D01*
X117969999Y-55876185D02*
X117941428Y-55890471D01*
X117941428Y-55890471D02*
X117927142Y-55904757D01*
X117927142Y-55904757D02*
X117912856Y-55933328D01*
X117912856Y-55933328D02*
X117912856Y-55976185D01*
X117912856Y-55976185D02*
X117927142Y-56004757D01*
X117927142Y-56004757D02*
X117941428Y-56019042D01*
X117941428Y-56019042D02*
X117969999Y-56033328D01*
X117969999Y-56033328D02*
X118084285Y-56033328D01*
X117627142Y-56176185D02*
X117798571Y-56176185D01*
X117712856Y-56176185D02*
X117712856Y-55876185D01*
X117712856Y-55876185D02*
X117741428Y-55919042D01*
X117741428Y-55919042D02*
X117769999Y-55947614D01*
X117769999Y-55947614D02*
X117798571Y-55961900D01*
X117370000Y-55876185D02*
X117427142Y-55876185D01*
X117427142Y-55876185D02*
X117455714Y-55890471D01*
X117455714Y-55890471D02*
X117470000Y-55904757D01*
X117470000Y-55904757D02*
X117498571Y-55947614D01*
X117498571Y-55947614D02*
X117512857Y-56004757D01*
X117512857Y-56004757D02*
X117512857Y-56119042D01*
X117512857Y-56119042D02*
X117498571Y-56147614D01*
X117498571Y-56147614D02*
X117484285Y-56161900D01*
X117484285Y-56161900D02*
X117455714Y-56176185D01*
X117455714Y-56176185D02*
X117398571Y-56176185D01*
X117398571Y-56176185D02*
X117370000Y-56161900D01*
X117370000Y-56161900D02*
X117355714Y-56147614D01*
X117355714Y-56147614D02*
X117341428Y-56119042D01*
X117341428Y-56119042D02*
X117341428Y-56047614D01*
X117341428Y-56047614D02*
X117355714Y-56019042D01*
X117355714Y-56019042D02*
X117370000Y-56004757D01*
X117370000Y-56004757D02*
X117398571Y-55990471D01*
X117398571Y-55990471D02*
X117455714Y-55990471D01*
X117455714Y-55990471D02*
X117484285Y-56004757D01*
X117484285Y-56004757D02*
X117498571Y-56019042D01*
X117498571Y-56019042D02*
X117512857Y-56047614D01*
X118977614Y-68857143D02*
X118991900Y-68842857D01*
X118991900Y-68842857D02*
X119006185Y-68800000D01*
X119006185Y-68800000D02*
X119006185Y-68771428D01*
X119006185Y-68771428D02*
X118991900Y-68728571D01*
X118991900Y-68728571D02*
X118963328Y-68700000D01*
X118963328Y-68700000D02*
X118934757Y-68685714D01*
X118934757Y-68685714D02*
X118877614Y-68671428D01*
X118877614Y-68671428D02*
X118834757Y-68671428D01*
X118834757Y-68671428D02*
X118777614Y-68685714D01*
X118777614Y-68685714D02*
X118749042Y-68700000D01*
X118749042Y-68700000D02*
X118720471Y-68728571D01*
X118720471Y-68728571D02*
X118706185Y-68771428D01*
X118706185Y-68771428D02*
X118706185Y-68800000D01*
X118706185Y-68800000D02*
X118720471Y-68842857D01*
X118720471Y-68842857D02*
X118734757Y-68857143D01*
X118706185Y-69114286D02*
X118706185Y-69057143D01*
X118706185Y-69057143D02*
X118720471Y-69028571D01*
X118720471Y-69028571D02*
X118734757Y-69014286D01*
X118734757Y-69014286D02*
X118777614Y-68985714D01*
X118777614Y-68985714D02*
X118834757Y-68971428D01*
X118834757Y-68971428D02*
X118949042Y-68971428D01*
X118949042Y-68971428D02*
X118977614Y-68985714D01*
X118977614Y-68985714D02*
X118991900Y-69000000D01*
X118991900Y-69000000D02*
X119006185Y-69028571D01*
X119006185Y-69028571D02*
X119006185Y-69085714D01*
X119006185Y-69085714D02*
X118991900Y-69114286D01*
X118991900Y-69114286D02*
X118977614Y-69128571D01*
X118977614Y-69128571D02*
X118949042Y-69142857D01*
X118949042Y-69142857D02*
X118877614Y-69142857D01*
X118877614Y-69142857D02*
X118849042Y-69128571D01*
X118849042Y-69128571D02*
X118834757Y-69114286D01*
X118834757Y-69114286D02*
X118820471Y-69085714D01*
X118820471Y-69085714D02*
X118820471Y-69028571D01*
X118820471Y-69028571D02*
X118834757Y-69000000D01*
X118834757Y-69000000D02*
X118849042Y-68985714D01*
X118849042Y-68985714D02*
X118877614Y-68971428D01*
X118706185Y-69414285D02*
X118706185Y-69271428D01*
X118706185Y-69271428D02*
X118849042Y-69257142D01*
X118849042Y-69257142D02*
X118834757Y-69271428D01*
X118834757Y-69271428D02*
X118820471Y-69300000D01*
X118820471Y-69300000D02*
X118820471Y-69371428D01*
X118820471Y-69371428D02*
X118834757Y-69400000D01*
X118834757Y-69400000D02*
X118849042Y-69414285D01*
X118849042Y-69414285D02*
X118877614Y-69428571D01*
X118877614Y-69428571D02*
X118949042Y-69428571D01*
X118949042Y-69428571D02*
X118977614Y-69414285D01*
X118977614Y-69414285D02*
X118991900Y-69400000D01*
X118991900Y-69400000D02*
X119006185Y-69371428D01*
X119006185Y-69371428D02*
X119006185Y-69300000D01*
X119006185Y-69300000D02*
X118991900Y-69271428D01*
X118991900Y-69271428D02*
X118977614Y-69257142D01*
X125966185Y-59020000D02*
X126180471Y-59020000D01*
X126180471Y-59020000D02*
X126223328Y-59005715D01*
X126223328Y-59005715D02*
X126251900Y-58977143D01*
X126251900Y-58977143D02*
X126266185Y-58934286D01*
X126266185Y-58934286D02*
X126266185Y-58905715D01*
X126266185Y-59162857D02*
X125966185Y-59162857D01*
X125966185Y-59162857D02*
X125966185Y-59277143D01*
X125966185Y-59277143D02*
X125980471Y-59305714D01*
X125980471Y-59305714D02*
X125994757Y-59320000D01*
X125994757Y-59320000D02*
X126023328Y-59334286D01*
X126023328Y-59334286D02*
X126066185Y-59334286D01*
X126066185Y-59334286D02*
X126094757Y-59320000D01*
X126094757Y-59320000D02*
X126109042Y-59305714D01*
X126109042Y-59305714D02*
X126123328Y-59277143D01*
X126123328Y-59277143D02*
X126123328Y-59162857D01*
X126266185Y-59620000D02*
X126266185Y-59448571D01*
X126266185Y-59534286D02*
X125966185Y-59534286D01*
X125966185Y-59534286D02*
X126009042Y-59505714D01*
X126009042Y-59505714D02*
X126037614Y-59477143D01*
X126037614Y-59477143D02*
X126051900Y-59448571D01*
X124207614Y-56967143D02*
X124221900Y-56952857D01*
X124221900Y-56952857D02*
X124236185Y-56910000D01*
X124236185Y-56910000D02*
X124236185Y-56881428D01*
X124236185Y-56881428D02*
X124221900Y-56838571D01*
X124221900Y-56838571D02*
X124193328Y-56810000D01*
X124193328Y-56810000D02*
X124164757Y-56795714D01*
X124164757Y-56795714D02*
X124107614Y-56781428D01*
X124107614Y-56781428D02*
X124064757Y-56781428D01*
X124064757Y-56781428D02*
X124007614Y-56795714D01*
X124007614Y-56795714D02*
X123979042Y-56810000D01*
X123979042Y-56810000D02*
X123950471Y-56838571D01*
X123950471Y-56838571D02*
X123936185Y-56881428D01*
X123936185Y-56881428D02*
X123936185Y-56910000D01*
X123936185Y-56910000D02*
X123950471Y-56952857D01*
X123950471Y-56952857D02*
X123964757Y-56967143D01*
X124036185Y-57224286D02*
X124236185Y-57224286D01*
X123921900Y-57152857D02*
X124136185Y-57081428D01*
X124136185Y-57081428D02*
X124136185Y-57267143D01*
X123936185Y-57352857D02*
X123936185Y-57538571D01*
X123936185Y-57538571D02*
X124050471Y-57438571D01*
X124050471Y-57438571D02*
X124050471Y-57481428D01*
X124050471Y-57481428D02*
X124064757Y-57510000D01*
X124064757Y-57510000D02*
X124079042Y-57524285D01*
X124079042Y-57524285D02*
X124107614Y-57538571D01*
X124107614Y-57538571D02*
X124179042Y-57538571D01*
X124179042Y-57538571D02*
X124207614Y-57524285D01*
X124207614Y-57524285D02*
X124221900Y-57510000D01*
X124221900Y-57510000D02*
X124236185Y-57481428D01*
X124236185Y-57481428D02*
X124236185Y-57395714D01*
X124236185Y-57395714D02*
X124221900Y-57367142D01*
X124221900Y-57367142D02*
X124207614Y-57352857D01*
X118892856Y-64067614D02*
X118907142Y-64081900D01*
X118907142Y-64081900D02*
X118949999Y-64096185D01*
X118949999Y-64096185D02*
X118978571Y-64096185D01*
X118978571Y-64096185D02*
X119021428Y-64081900D01*
X119021428Y-64081900D02*
X119049999Y-64053328D01*
X119049999Y-64053328D02*
X119064285Y-64024757D01*
X119064285Y-64024757D02*
X119078571Y-63967614D01*
X119078571Y-63967614D02*
X119078571Y-63924757D01*
X119078571Y-63924757D02*
X119064285Y-63867614D01*
X119064285Y-63867614D02*
X119049999Y-63839042D01*
X119049999Y-63839042D02*
X119021428Y-63810471D01*
X119021428Y-63810471D02*
X118978571Y-63796185D01*
X118978571Y-63796185D02*
X118949999Y-63796185D01*
X118949999Y-63796185D02*
X118907142Y-63810471D01*
X118907142Y-63810471D02*
X118892856Y-63824757D01*
X118778571Y-63824757D02*
X118764285Y-63810471D01*
X118764285Y-63810471D02*
X118735714Y-63796185D01*
X118735714Y-63796185D02*
X118664285Y-63796185D01*
X118664285Y-63796185D02*
X118635714Y-63810471D01*
X118635714Y-63810471D02*
X118621428Y-63824757D01*
X118621428Y-63824757D02*
X118607142Y-63853328D01*
X118607142Y-63853328D02*
X118607142Y-63881900D01*
X118607142Y-63881900D02*
X118621428Y-63924757D01*
X118621428Y-63924757D02*
X118792856Y-64096185D01*
X118792856Y-64096185D02*
X118607142Y-64096185D01*
X118435714Y-63924757D02*
X118464285Y-63910471D01*
X118464285Y-63910471D02*
X118478571Y-63896185D01*
X118478571Y-63896185D02*
X118492857Y-63867614D01*
X118492857Y-63867614D02*
X118492857Y-63853328D01*
X118492857Y-63853328D02*
X118478571Y-63824757D01*
X118478571Y-63824757D02*
X118464285Y-63810471D01*
X118464285Y-63810471D02*
X118435714Y-63796185D01*
X118435714Y-63796185D02*
X118378571Y-63796185D01*
X118378571Y-63796185D02*
X118350000Y-63810471D01*
X118350000Y-63810471D02*
X118335714Y-63824757D01*
X118335714Y-63824757D02*
X118321428Y-63853328D01*
X118321428Y-63853328D02*
X118321428Y-63867614D01*
X118321428Y-63867614D02*
X118335714Y-63896185D01*
X118335714Y-63896185D02*
X118350000Y-63910471D01*
X118350000Y-63910471D02*
X118378571Y-63924757D01*
X118378571Y-63924757D02*
X118435714Y-63924757D01*
X118435714Y-63924757D02*
X118464285Y-63939042D01*
X118464285Y-63939042D02*
X118478571Y-63953328D01*
X118478571Y-63953328D02*
X118492857Y-63981900D01*
X118492857Y-63981900D02*
X118492857Y-64039042D01*
X118492857Y-64039042D02*
X118478571Y-64067614D01*
X118478571Y-64067614D02*
X118464285Y-64081900D01*
X118464285Y-64081900D02*
X118435714Y-64096185D01*
X118435714Y-64096185D02*
X118378571Y-64096185D01*
X118378571Y-64096185D02*
X118350000Y-64081900D01*
X118350000Y-64081900D02*
X118335714Y-64067614D01*
X118335714Y-64067614D02*
X118321428Y-64039042D01*
X118321428Y-64039042D02*
X118321428Y-63981900D01*
X118321428Y-63981900D02*
X118335714Y-63953328D01*
X118335714Y-63953328D02*
X118350000Y-63939042D01*
X118350000Y-63939042D02*
X118378571Y-63924757D01*
X122947614Y-54887143D02*
X122961900Y-54872857D01*
X122961900Y-54872857D02*
X122976185Y-54830000D01*
X122976185Y-54830000D02*
X122976185Y-54801428D01*
X122976185Y-54801428D02*
X122961900Y-54758571D01*
X122961900Y-54758571D02*
X122933328Y-54730000D01*
X122933328Y-54730000D02*
X122904757Y-54715714D01*
X122904757Y-54715714D02*
X122847614Y-54701428D01*
X122847614Y-54701428D02*
X122804757Y-54701428D01*
X122804757Y-54701428D02*
X122747614Y-54715714D01*
X122747614Y-54715714D02*
X122719042Y-54730000D01*
X122719042Y-54730000D02*
X122690471Y-54758571D01*
X122690471Y-54758571D02*
X122676185Y-54801428D01*
X122676185Y-54801428D02*
X122676185Y-54830000D01*
X122676185Y-54830000D02*
X122690471Y-54872857D01*
X122690471Y-54872857D02*
X122704757Y-54887143D01*
X122676185Y-55158571D02*
X122676185Y-55015714D01*
X122676185Y-55015714D02*
X122819042Y-55001428D01*
X122819042Y-55001428D02*
X122804757Y-55015714D01*
X122804757Y-55015714D02*
X122790471Y-55044286D01*
X122790471Y-55044286D02*
X122790471Y-55115714D01*
X122790471Y-55115714D02*
X122804757Y-55144286D01*
X122804757Y-55144286D02*
X122819042Y-55158571D01*
X122819042Y-55158571D02*
X122847614Y-55172857D01*
X122847614Y-55172857D02*
X122919042Y-55172857D01*
X122919042Y-55172857D02*
X122947614Y-55158571D01*
X122947614Y-55158571D02*
X122961900Y-55144286D01*
X122961900Y-55144286D02*
X122976185Y-55115714D01*
X122976185Y-55115714D02*
X122976185Y-55044286D01*
X122976185Y-55044286D02*
X122961900Y-55015714D01*
X122961900Y-55015714D02*
X122947614Y-55001428D01*
X122704757Y-55287142D02*
X122690471Y-55301428D01*
X122690471Y-55301428D02*
X122676185Y-55330000D01*
X122676185Y-55330000D02*
X122676185Y-55401428D01*
X122676185Y-55401428D02*
X122690471Y-55430000D01*
X122690471Y-55430000D02*
X122704757Y-55444285D01*
X122704757Y-55444285D02*
X122733328Y-55458571D01*
X122733328Y-55458571D02*
X122761900Y-55458571D01*
X122761900Y-55458571D02*
X122804757Y-55444285D01*
X122804757Y-55444285D02*
X122976185Y-55272857D01*
X122976185Y-55272857D02*
X122976185Y-55458571D01*
X121812856Y-59607614D02*
X121827142Y-59621900D01*
X121827142Y-59621900D02*
X121869999Y-59636185D01*
X121869999Y-59636185D02*
X121898571Y-59636185D01*
X121898571Y-59636185D02*
X121941428Y-59621900D01*
X121941428Y-59621900D02*
X121969999Y-59593328D01*
X121969999Y-59593328D02*
X121984285Y-59564757D01*
X121984285Y-59564757D02*
X121998571Y-59507614D01*
X121998571Y-59507614D02*
X121998571Y-59464757D01*
X121998571Y-59464757D02*
X121984285Y-59407614D01*
X121984285Y-59407614D02*
X121969999Y-59379042D01*
X121969999Y-59379042D02*
X121941428Y-59350471D01*
X121941428Y-59350471D02*
X121898571Y-59336185D01*
X121898571Y-59336185D02*
X121869999Y-59336185D01*
X121869999Y-59336185D02*
X121827142Y-59350471D01*
X121827142Y-59350471D02*
X121812856Y-59364757D01*
X121541428Y-59336185D02*
X121684285Y-59336185D01*
X121684285Y-59336185D02*
X121698571Y-59479042D01*
X121698571Y-59479042D02*
X121684285Y-59464757D01*
X121684285Y-59464757D02*
X121655714Y-59450471D01*
X121655714Y-59450471D02*
X121584285Y-59450471D01*
X121584285Y-59450471D02*
X121555714Y-59464757D01*
X121555714Y-59464757D02*
X121541428Y-59479042D01*
X121541428Y-59479042D02*
X121527142Y-59507614D01*
X121527142Y-59507614D02*
X121527142Y-59579042D01*
X121527142Y-59579042D02*
X121541428Y-59607614D01*
X121541428Y-59607614D02*
X121555714Y-59621900D01*
X121555714Y-59621900D02*
X121584285Y-59636185D01*
X121584285Y-59636185D02*
X121655714Y-59636185D01*
X121655714Y-59636185D02*
X121684285Y-59621900D01*
X121684285Y-59621900D02*
X121698571Y-59607614D01*
X121270000Y-59436185D02*
X121270000Y-59636185D01*
X121341428Y-59321900D02*
X121412857Y-59536185D01*
X121412857Y-59536185D02*
X121227142Y-59536185D01*
X117318571Y-58786185D02*
X117318571Y-59029042D01*
X117318571Y-59029042D02*
X117304285Y-59057614D01*
X117304285Y-59057614D02*
X117290000Y-59071900D01*
X117290000Y-59071900D02*
X117261428Y-59086185D01*
X117261428Y-59086185D02*
X117204285Y-59086185D01*
X117204285Y-59086185D02*
X117175714Y-59071900D01*
X117175714Y-59071900D02*
X117161428Y-59057614D01*
X117161428Y-59057614D02*
X117147142Y-59029042D01*
X117147142Y-59029042D02*
X117147142Y-58786185D01*
X117018571Y-58814757D02*
X117004285Y-58800471D01*
X117004285Y-58800471D02*
X116975714Y-58786185D01*
X116975714Y-58786185D02*
X116904285Y-58786185D01*
X116904285Y-58786185D02*
X116875714Y-58800471D01*
X116875714Y-58800471D02*
X116861428Y-58814757D01*
X116861428Y-58814757D02*
X116847142Y-58843328D01*
X116847142Y-58843328D02*
X116847142Y-58871900D01*
X116847142Y-58871900D02*
X116861428Y-58914757D01*
X116861428Y-58914757D02*
X117032856Y-59086185D01*
X117032856Y-59086185D02*
X116847142Y-59086185D01*
X128631428Y-57886185D02*
X128631428Y-58129042D01*
X128631428Y-58129042D02*
X128617142Y-58157614D01*
X128617142Y-58157614D02*
X128602857Y-58171900D01*
X128602857Y-58171900D02*
X128574285Y-58186185D01*
X128574285Y-58186185D02*
X128517142Y-58186185D01*
X128517142Y-58186185D02*
X128488571Y-58171900D01*
X128488571Y-58171900D02*
X128474285Y-58157614D01*
X128474285Y-58157614D02*
X128459999Y-58129042D01*
X128459999Y-58129042D02*
X128459999Y-57886185D01*
X128159999Y-58186185D02*
X128331428Y-58186185D01*
X128245713Y-58186185D02*
X128245713Y-57886185D01*
X128245713Y-57886185D02*
X128274285Y-57929042D01*
X128274285Y-57929042D02*
X128302856Y-57957614D01*
X128302856Y-57957614D02*
X128331428Y-57971900D01*
X127874285Y-58186185D02*
X128045714Y-58186185D01*
X127959999Y-58186185D02*
X127959999Y-57886185D01*
X127959999Y-57886185D02*
X127988571Y-57929042D01*
X127988571Y-57929042D02*
X128017142Y-57957614D01*
X128017142Y-57957614D02*
X128045714Y-57971900D01*
X124029999Y-54066185D02*
X124129999Y-53923328D01*
X124201428Y-54066185D02*
X124201428Y-53766185D01*
X124201428Y-53766185D02*
X124087142Y-53766185D01*
X124087142Y-53766185D02*
X124058571Y-53780471D01*
X124058571Y-53780471D02*
X124044285Y-53794757D01*
X124044285Y-53794757D02*
X124029999Y-53823328D01*
X124029999Y-53823328D02*
X124029999Y-53866185D01*
X124029999Y-53866185D02*
X124044285Y-53894757D01*
X124044285Y-53894757D02*
X124058571Y-53909042D01*
X124058571Y-53909042D02*
X124087142Y-53923328D01*
X124087142Y-53923328D02*
X124201428Y-53923328D01*
X123915714Y-53794757D02*
X123901428Y-53780471D01*
X123901428Y-53780471D02*
X123872857Y-53766185D01*
X123872857Y-53766185D02*
X123801428Y-53766185D01*
X123801428Y-53766185D02*
X123772857Y-53780471D01*
X123772857Y-53780471D02*
X123758571Y-53794757D01*
X123758571Y-53794757D02*
X123744285Y-53823328D01*
X123744285Y-53823328D02*
X123744285Y-53851900D01*
X123744285Y-53851900D02*
X123758571Y-53894757D01*
X123758571Y-53894757D02*
X123929999Y-54066185D01*
X123929999Y-54066185D02*
X123744285Y-54066185D01*
X125242856Y-55617614D02*
X125257142Y-55631900D01*
X125257142Y-55631900D02*
X125299999Y-55646185D01*
X125299999Y-55646185D02*
X125328571Y-55646185D01*
X125328571Y-55646185D02*
X125371428Y-55631900D01*
X125371428Y-55631900D02*
X125399999Y-55603328D01*
X125399999Y-55603328D02*
X125414285Y-55574757D01*
X125414285Y-55574757D02*
X125428571Y-55517614D01*
X125428571Y-55517614D02*
X125428571Y-55474757D01*
X125428571Y-55474757D02*
X125414285Y-55417614D01*
X125414285Y-55417614D02*
X125399999Y-55389042D01*
X125399999Y-55389042D02*
X125371428Y-55360471D01*
X125371428Y-55360471D02*
X125328571Y-55346185D01*
X125328571Y-55346185D02*
X125299999Y-55346185D01*
X125299999Y-55346185D02*
X125257142Y-55360471D01*
X125257142Y-55360471D02*
X125242856Y-55374757D01*
X124971428Y-55346185D02*
X125114285Y-55346185D01*
X125114285Y-55346185D02*
X125128571Y-55489042D01*
X125128571Y-55489042D02*
X125114285Y-55474757D01*
X125114285Y-55474757D02*
X125085714Y-55460471D01*
X125085714Y-55460471D02*
X125014285Y-55460471D01*
X125014285Y-55460471D02*
X124985714Y-55474757D01*
X124985714Y-55474757D02*
X124971428Y-55489042D01*
X124971428Y-55489042D02*
X124957142Y-55517614D01*
X124957142Y-55517614D02*
X124957142Y-55589042D01*
X124957142Y-55589042D02*
X124971428Y-55617614D01*
X124971428Y-55617614D02*
X124985714Y-55631900D01*
X124985714Y-55631900D02*
X125014285Y-55646185D01*
X125014285Y-55646185D02*
X125085714Y-55646185D01*
X125085714Y-55646185D02*
X125114285Y-55631900D01*
X125114285Y-55631900D02*
X125128571Y-55617614D01*
X124685714Y-55346185D02*
X124828571Y-55346185D01*
X124828571Y-55346185D02*
X124842857Y-55489042D01*
X124842857Y-55489042D02*
X124828571Y-55474757D01*
X124828571Y-55474757D02*
X124800000Y-55460471D01*
X124800000Y-55460471D02*
X124728571Y-55460471D01*
X124728571Y-55460471D02*
X124700000Y-55474757D01*
X124700000Y-55474757D02*
X124685714Y-55489042D01*
X124685714Y-55489042D02*
X124671428Y-55517614D01*
X124671428Y-55517614D02*
X124671428Y-55589042D01*
X124671428Y-55589042D02*
X124685714Y-55617614D01*
X124685714Y-55617614D02*
X124700000Y-55631900D01*
X124700000Y-55631900D02*
X124728571Y-55646185D01*
X124728571Y-55646185D02*
X124800000Y-55646185D01*
X124800000Y-55646185D02*
X124828571Y-55631900D01*
X124828571Y-55631900D02*
X124842857Y-55617614D01*
X120296185Y-59267143D02*
X120296185Y-59124286D01*
X120296185Y-59124286D02*
X119996185Y-59124286D01*
X120296185Y-59524286D02*
X120296185Y-59352857D01*
X120296185Y-59438572D02*
X119996185Y-59438572D01*
X119996185Y-59438572D02*
X120039042Y-59410000D01*
X120039042Y-59410000D02*
X120067614Y-59381429D01*
X120067614Y-59381429D02*
X120081900Y-59352857D01*
X119996185Y-59710000D02*
X119996185Y-59738571D01*
X119996185Y-59738571D02*
X120010471Y-59767143D01*
X120010471Y-59767143D02*
X120024757Y-59781429D01*
X120024757Y-59781429D02*
X120053328Y-59795714D01*
X120053328Y-59795714D02*
X120110471Y-59810000D01*
X120110471Y-59810000D02*
X120181900Y-59810000D01*
X120181900Y-59810000D02*
X120239042Y-59795714D01*
X120239042Y-59795714D02*
X120267614Y-59781429D01*
X120267614Y-59781429D02*
X120281900Y-59767143D01*
X120281900Y-59767143D02*
X120296185Y-59738571D01*
X120296185Y-59738571D02*
X120296185Y-59710000D01*
X120296185Y-59710000D02*
X120281900Y-59681429D01*
X120281900Y-59681429D02*
X120267614Y-59667143D01*
X120267614Y-59667143D02*
X120239042Y-59652857D01*
X120239042Y-59652857D02*
X120181900Y-59638571D01*
X120181900Y-59638571D02*
X120110471Y-59638571D01*
X120110471Y-59638571D02*
X120053328Y-59652857D01*
X120053328Y-59652857D02*
X120024757Y-59667143D01*
X120024757Y-59667143D02*
X120010471Y-59681429D01*
X120010471Y-59681429D02*
X119996185Y-59710000D01*
X119262856Y-60116185D02*
X119405713Y-60116185D01*
X119405713Y-60116185D02*
X119405713Y-59816185D01*
X119005713Y-60116185D02*
X119177142Y-60116185D01*
X119091427Y-60116185D02*
X119091427Y-59816185D01*
X119091427Y-59816185D02*
X119119999Y-59859042D01*
X119119999Y-59859042D02*
X119148570Y-59887614D01*
X119148570Y-59887614D02*
X119177142Y-59901900D01*
X118905713Y-59816185D02*
X118719999Y-59816185D01*
X118719999Y-59816185D02*
X118819999Y-59930471D01*
X118819999Y-59930471D02*
X118777142Y-59930471D01*
X118777142Y-59930471D02*
X118748571Y-59944757D01*
X118748571Y-59944757D02*
X118734285Y-59959042D01*
X118734285Y-59959042D02*
X118719999Y-59987614D01*
X118719999Y-59987614D02*
X118719999Y-60059042D01*
X118719999Y-60059042D02*
X118734285Y-60087614D01*
X118734285Y-60087614D02*
X118748571Y-60101900D01*
X118748571Y-60101900D02*
X118777142Y-60116185D01*
X118777142Y-60116185D02*
X118862856Y-60116185D01*
X118862856Y-60116185D02*
X118891428Y-60101900D01*
X118891428Y-60101900D02*
X118905713Y-60087614D01*
X126622856Y-58566185D02*
X126722856Y-58423328D01*
X126794285Y-58566185D02*
X126794285Y-58266185D01*
X126794285Y-58266185D02*
X126679999Y-58266185D01*
X126679999Y-58266185D02*
X126651428Y-58280471D01*
X126651428Y-58280471D02*
X126637142Y-58294757D01*
X126637142Y-58294757D02*
X126622856Y-58323328D01*
X126622856Y-58323328D02*
X126622856Y-58366185D01*
X126622856Y-58366185D02*
X126637142Y-58394757D01*
X126637142Y-58394757D02*
X126651428Y-58409042D01*
X126651428Y-58409042D02*
X126679999Y-58423328D01*
X126679999Y-58423328D02*
X126794285Y-58423328D01*
X126508571Y-58294757D02*
X126494285Y-58280471D01*
X126494285Y-58280471D02*
X126465714Y-58266185D01*
X126465714Y-58266185D02*
X126394285Y-58266185D01*
X126394285Y-58266185D02*
X126365714Y-58280471D01*
X126365714Y-58280471D02*
X126351428Y-58294757D01*
X126351428Y-58294757D02*
X126337142Y-58323328D01*
X126337142Y-58323328D02*
X126337142Y-58351900D01*
X126337142Y-58351900D02*
X126351428Y-58394757D01*
X126351428Y-58394757D02*
X126522856Y-58566185D01*
X126522856Y-58566185D02*
X126337142Y-58566185D01*
X126222857Y-58294757D02*
X126208571Y-58280471D01*
X126208571Y-58280471D02*
X126180000Y-58266185D01*
X126180000Y-58266185D02*
X126108571Y-58266185D01*
X126108571Y-58266185D02*
X126080000Y-58280471D01*
X126080000Y-58280471D02*
X126065714Y-58294757D01*
X126065714Y-58294757D02*
X126051428Y-58323328D01*
X126051428Y-58323328D02*
X126051428Y-58351900D01*
X126051428Y-58351900D02*
X126065714Y-58394757D01*
X126065714Y-58394757D02*
X126237142Y-58566185D01*
X126237142Y-58566185D02*
X126051428Y-58566185D01*
X124206432Y-58137614D02*
X124220718Y-58151900D01*
X124220718Y-58151900D02*
X124263575Y-58166185D01*
X124263575Y-58166185D02*
X124292147Y-58166185D01*
X124292147Y-58166185D02*
X124335004Y-58151900D01*
X124335004Y-58151900D02*
X124363575Y-58123328D01*
X124363575Y-58123328D02*
X124377861Y-58094757D01*
X124377861Y-58094757D02*
X124392147Y-58037614D01*
X124392147Y-58037614D02*
X124392147Y-57994757D01*
X124392147Y-57994757D02*
X124377861Y-57937614D01*
X124377861Y-57937614D02*
X124363575Y-57909042D01*
X124363575Y-57909042D02*
X124335004Y-57880471D01*
X124335004Y-57880471D02*
X124292147Y-57866185D01*
X124292147Y-57866185D02*
X124263575Y-57866185D01*
X124263575Y-57866185D02*
X124220718Y-57880471D01*
X124220718Y-57880471D02*
X124206432Y-57894757D01*
X123949290Y-57966185D02*
X123949290Y-58166185D01*
X124020718Y-57851900D02*
X124092147Y-58066185D01*
X124092147Y-58066185D02*
X123906432Y-58066185D01*
X123649290Y-57866185D02*
X123792147Y-57866185D01*
X123792147Y-57866185D02*
X123806433Y-58009042D01*
X123806433Y-58009042D02*
X123792147Y-57994757D01*
X123792147Y-57994757D02*
X123763576Y-57980471D01*
X123763576Y-57980471D02*
X123692147Y-57980471D01*
X123692147Y-57980471D02*
X123663576Y-57994757D01*
X123663576Y-57994757D02*
X123649290Y-58009042D01*
X123649290Y-58009042D02*
X123635004Y-58037614D01*
X123635004Y-58037614D02*
X123635004Y-58109042D01*
X123635004Y-58109042D02*
X123649290Y-58137614D01*
X123649290Y-58137614D02*
X123663576Y-58151900D01*
X123663576Y-58151900D02*
X123692147Y-58166185D01*
X123692147Y-58166185D02*
X123763576Y-58166185D01*
X123763576Y-58166185D02*
X123792147Y-58151900D01*
X123792147Y-58151900D02*
X123806433Y-58137614D01*
X119182856Y-55506185D02*
X119325713Y-55506185D01*
X119325713Y-55506185D02*
X119325713Y-55206185D01*
X118925713Y-55506185D02*
X119097142Y-55506185D01*
X119011427Y-55506185D02*
X119011427Y-55206185D01*
X119011427Y-55206185D02*
X119039999Y-55249042D01*
X119039999Y-55249042D02*
X119068570Y-55277614D01*
X119068570Y-55277614D02*
X119097142Y-55291900D01*
X118668571Y-55206185D02*
X118725713Y-55206185D01*
X118725713Y-55206185D02*
X118754285Y-55220471D01*
X118754285Y-55220471D02*
X118768571Y-55234757D01*
X118768571Y-55234757D02*
X118797142Y-55277614D01*
X118797142Y-55277614D02*
X118811428Y-55334757D01*
X118811428Y-55334757D02*
X118811428Y-55449042D01*
X118811428Y-55449042D02*
X118797142Y-55477614D01*
X118797142Y-55477614D02*
X118782856Y-55491900D01*
X118782856Y-55491900D02*
X118754285Y-55506185D01*
X118754285Y-55506185D02*
X118697142Y-55506185D01*
X118697142Y-55506185D02*
X118668571Y-55491900D01*
X118668571Y-55491900D02*
X118654285Y-55477614D01*
X118654285Y-55477614D02*
X118639999Y-55449042D01*
X118639999Y-55449042D02*
X118639999Y-55377614D01*
X118639999Y-55377614D02*
X118654285Y-55349042D01*
X118654285Y-55349042D02*
X118668571Y-55334757D01*
X118668571Y-55334757D02*
X118697142Y-55320471D01*
X118697142Y-55320471D02*
X118754285Y-55320471D01*
X118754285Y-55320471D02*
X118782856Y-55334757D01*
X118782856Y-55334757D02*
X118797142Y-55349042D01*
X118797142Y-55349042D02*
X118811428Y-55377614D01*
X118762856Y-66127614D02*
X118777142Y-66141900D01*
X118777142Y-66141900D02*
X118819999Y-66156185D01*
X118819999Y-66156185D02*
X118848571Y-66156185D01*
X118848571Y-66156185D02*
X118891428Y-66141900D01*
X118891428Y-66141900D02*
X118919999Y-66113328D01*
X118919999Y-66113328D02*
X118934285Y-66084757D01*
X118934285Y-66084757D02*
X118948571Y-66027614D01*
X118948571Y-66027614D02*
X118948571Y-65984757D01*
X118948571Y-65984757D02*
X118934285Y-65927614D01*
X118934285Y-65927614D02*
X118919999Y-65899042D01*
X118919999Y-65899042D02*
X118891428Y-65870471D01*
X118891428Y-65870471D02*
X118848571Y-65856185D01*
X118848571Y-65856185D02*
X118819999Y-65856185D01*
X118819999Y-65856185D02*
X118777142Y-65870471D01*
X118777142Y-65870471D02*
X118762856Y-65884757D01*
X118505714Y-65856185D02*
X118562856Y-65856185D01*
X118562856Y-65856185D02*
X118591428Y-65870471D01*
X118591428Y-65870471D02*
X118605714Y-65884757D01*
X118605714Y-65884757D02*
X118634285Y-65927614D01*
X118634285Y-65927614D02*
X118648571Y-65984757D01*
X118648571Y-65984757D02*
X118648571Y-66099042D01*
X118648571Y-66099042D02*
X118634285Y-66127614D01*
X118634285Y-66127614D02*
X118619999Y-66141900D01*
X118619999Y-66141900D02*
X118591428Y-66156185D01*
X118591428Y-66156185D02*
X118534285Y-66156185D01*
X118534285Y-66156185D02*
X118505714Y-66141900D01*
X118505714Y-66141900D02*
X118491428Y-66127614D01*
X118491428Y-66127614D02*
X118477142Y-66099042D01*
X118477142Y-66099042D02*
X118477142Y-66027614D01*
X118477142Y-66027614D02*
X118491428Y-65999042D01*
X118491428Y-65999042D02*
X118505714Y-65984757D01*
X118505714Y-65984757D02*
X118534285Y-65970471D01*
X118534285Y-65970471D02*
X118591428Y-65970471D01*
X118591428Y-65970471D02*
X118619999Y-65984757D01*
X118619999Y-65984757D02*
X118634285Y-65999042D01*
X118634285Y-65999042D02*
X118648571Y-66027614D01*
X118220000Y-65856185D02*
X118277142Y-65856185D01*
X118277142Y-65856185D02*
X118305714Y-65870471D01*
X118305714Y-65870471D02*
X118320000Y-65884757D01*
X118320000Y-65884757D02*
X118348571Y-65927614D01*
X118348571Y-65927614D02*
X118362857Y-65984757D01*
X118362857Y-65984757D02*
X118362857Y-66099042D01*
X118362857Y-66099042D02*
X118348571Y-66127614D01*
X118348571Y-66127614D02*
X118334285Y-66141900D01*
X118334285Y-66141900D02*
X118305714Y-66156185D01*
X118305714Y-66156185D02*
X118248571Y-66156185D01*
X118248571Y-66156185D02*
X118220000Y-66141900D01*
X118220000Y-66141900D02*
X118205714Y-66127614D01*
X118205714Y-66127614D02*
X118191428Y-66099042D01*
X118191428Y-66099042D02*
X118191428Y-66027614D01*
X118191428Y-66027614D02*
X118205714Y-65999042D01*
X118205714Y-65999042D02*
X118220000Y-65984757D01*
X118220000Y-65984757D02*
X118248571Y-65970471D01*
X118248571Y-65970471D02*
X118305714Y-65970471D01*
X118305714Y-65970471D02*
X118334285Y-65984757D01*
X118334285Y-65984757D02*
X118348571Y-65999042D01*
X118348571Y-65999042D02*
X118362857Y-66027614D01*
X117392856Y-57447614D02*
X117407142Y-57461900D01*
X117407142Y-57461900D02*
X117449999Y-57476185D01*
X117449999Y-57476185D02*
X117478571Y-57476185D01*
X117478571Y-57476185D02*
X117521428Y-57461900D01*
X117521428Y-57461900D02*
X117549999Y-57433328D01*
X117549999Y-57433328D02*
X117564285Y-57404757D01*
X117564285Y-57404757D02*
X117578571Y-57347614D01*
X117578571Y-57347614D02*
X117578571Y-57304757D01*
X117578571Y-57304757D02*
X117564285Y-57247614D01*
X117564285Y-57247614D02*
X117549999Y-57219042D01*
X117549999Y-57219042D02*
X117521428Y-57190471D01*
X117521428Y-57190471D02*
X117478571Y-57176185D01*
X117478571Y-57176185D02*
X117449999Y-57176185D01*
X117449999Y-57176185D02*
X117407142Y-57190471D01*
X117407142Y-57190471D02*
X117392856Y-57204757D01*
X117278571Y-57204757D02*
X117264285Y-57190471D01*
X117264285Y-57190471D02*
X117235714Y-57176185D01*
X117235714Y-57176185D02*
X117164285Y-57176185D01*
X117164285Y-57176185D02*
X117135714Y-57190471D01*
X117135714Y-57190471D02*
X117121428Y-57204757D01*
X117121428Y-57204757D02*
X117107142Y-57233328D01*
X117107142Y-57233328D02*
X117107142Y-57261900D01*
X117107142Y-57261900D02*
X117121428Y-57304757D01*
X117121428Y-57304757D02*
X117292856Y-57476185D01*
X117292856Y-57476185D02*
X117107142Y-57476185D01*
X117007142Y-57176185D02*
X116821428Y-57176185D01*
X116821428Y-57176185D02*
X116921428Y-57290471D01*
X116921428Y-57290471D02*
X116878571Y-57290471D01*
X116878571Y-57290471D02*
X116850000Y-57304757D01*
X116850000Y-57304757D02*
X116835714Y-57319042D01*
X116835714Y-57319042D02*
X116821428Y-57347614D01*
X116821428Y-57347614D02*
X116821428Y-57419042D01*
X116821428Y-57419042D02*
X116835714Y-57447614D01*
X116835714Y-57447614D02*
X116850000Y-57461900D01*
X116850000Y-57461900D02*
X116878571Y-57476185D01*
X116878571Y-57476185D02*
X116964285Y-57476185D01*
X116964285Y-57476185D02*
X116992857Y-57461900D01*
X116992857Y-57461900D02*
X117007142Y-57447614D01*
X121027614Y-57837143D02*
X121041900Y-57822857D01*
X121041900Y-57822857D02*
X121056185Y-57780000D01*
X121056185Y-57780000D02*
X121056185Y-57751428D01*
X121056185Y-57751428D02*
X121041900Y-57708571D01*
X121041900Y-57708571D02*
X121013328Y-57680000D01*
X121013328Y-57680000D02*
X120984757Y-57665714D01*
X120984757Y-57665714D02*
X120927614Y-57651428D01*
X120927614Y-57651428D02*
X120884757Y-57651428D01*
X120884757Y-57651428D02*
X120827614Y-57665714D01*
X120827614Y-57665714D02*
X120799042Y-57680000D01*
X120799042Y-57680000D02*
X120770471Y-57708571D01*
X120770471Y-57708571D02*
X120756185Y-57751428D01*
X120756185Y-57751428D02*
X120756185Y-57780000D01*
X120756185Y-57780000D02*
X120770471Y-57822857D01*
X120770471Y-57822857D02*
X120784757Y-57837143D01*
X120756185Y-58108571D02*
X120756185Y-57965714D01*
X120756185Y-57965714D02*
X120899042Y-57951428D01*
X120899042Y-57951428D02*
X120884757Y-57965714D01*
X120884757Y-57965714D02*
X120870471Y-57994286D01*
X120870471Y-57994286D02*
X120870471Y-58065714D01*
X120870471Y-58065714D02*
X120884757Y-58094286D01*
X120884757Y-58094286D02*
X120899042Y-58108571D01*
X120899042Y-58108571D02*
X120927614Y-58122857D01*
X120927614Y-58122857D02*
X120999042Y-58122857D01*
X120999042Y-58122857D02*
X121027614Y-58108571D01*
X121027614Y-58108571D02*
X121041900Y-58094286D01*
X121041900Y-58094286D02*
X121056185Y-58065714D01*
X121056185Y-58065714D02*
X121056185Y-57994286D01*
X121056185Y-57994286D02*
X121041900Y-57965714D01*
X121041900Y-57965714D02*
X121027614Y-57951428D01*
X120756185Y-58222857D02*
X120756185Y-58422857D01*
X120756185Y-58422857D02*
X121056185Y-58294285D01*
X121422856Y-57157614D02*
X121437142Y-57171900D01*
X121437142Y-57171900D02*
X121479999Y-57186185D01*
X121479999Y-57186185D02*
X121508571Y-57186185D01*
X121508571Y-57186185D02*
X121551428Y-57171900D01*
X121551428Y-57171900D02*
X121579999Y-57143328D01*
X121579999Y-57143328D02*
X121594285Y-57114757D01*
X121594285Y-57114757D02*
X121608571Y-57057614D01*
X121608571Y-57057614D02*
X121608571Y-57014757D01*
X121608571Y-57014757D02*
X121594285Y-56957614D01*
X121594285Y-56957614D02*
X121579999Y-56929042D01*
X121579999Y-56929042D02*
X121551428Y-56900471D01*
X121551428Y-56900471D02*
X121508571Y-56886185D01*
X121508571Y-56886185D02*
X121479999Y-56886185D01*
X121479999Y-56886185D02*
X121437142Y-56900471D01*
X121437142Y-56900471D02*
X121422856Y-56914757D01*
X121165714Y-56986185D02*
X121165714Y-57186185D01*
X121237142Y-56871900D02*
X121308571Y-57086185D01*
X121308571Y-57086185D02*
X121122856Y-57086185D01*
X120994285Y-57186185D02*
X120937142Y-57186185D01*
X120937142Y-57186185D02*
X120908571Y-57171900D01*
X120908571Y-57171900D02*
X120894285Y-57157614D01*
X120894285Y-57157614D02*
X120865714Y-57114757D01*
X120865714Y-57114757D02*
X120851428Y-57057614D01*
X120851428Y-57057614D02*
X120851428Y-56943328D01*
X120851428Y-56943328D02*
X120865714Y-56914757D01*
X120865714Y-56914757D02*
X120880000Y-56900471D01*
X120880000Y-56900471D02*
X120908571Y-56886185D01*
X120908571Y-56886185D02*
X120965714Y-56886185D01*
X120965714Y-56886185D02*
X120994285Y-56900471D01*
X120994285Y-56900471D02*
X121008571Y-56914757D01*
X121008571Y-56914757D02*
X121022857Y-56943328D01*
X121022857Y-56943328D02*
X121022857Y-57014757D01*
X121022857Y-57014757D02*
X121008571Y-57043328D01*
X121008571Y-57043328D02*
X120994285Y-57057614D01*
X120994285Y-57057614D02*
X120965714Y-57071900D01*
X120965714Y-57071900D02*
X120908571Y-57071900D01*
X120908571Y-57071900D02*
X120880000Y-57057614D01*
X120880000Y-57057614D02*
X120865714Y-57043328D01*
X120865714Y-57043328D02*
X120851428Y-57014757D01*
X117467614Y-68107143D02*
X117481900Y-68092857D01*
X117481900Y-68092857D02*
X117496185Y-68050000D01*
X117496185Y-68050000D02*
X117496185Y-68021428D01*
X117496185Y-68021428D02*
X117481900Y-67978571D01*
X117481900Y-67978571D02*
X117453328Y-67950000D01*
X117453328Y-67950000D02*
X117424757Y-67935714D01*
X117424757Y-67935714D02*
X117367614Y-67921428D01*
X117367614Y-67921428D02*
X117324757Y-67921428D01*
X117324757Y-67921428D02*
X117267614Y-67935714D01*
X117267614Y-67935714D02*
X117239042Y-67950000D01*
X117239042Y-67950000D02*
X117210471Y-67978571D01*
X117210471Y-67978571D02*
X117196185Y-68021428D01*
X117196185Y-68021428D02*
X117196185Y-68050000D01*
X117196185Y-68050000D02*
X117210471Y-68092857D01*
X117210471Y-68092857D02*
X117224757Y-68107143D01*
X117196185Y-68207143D02*
X117196185Y-68392857D01*
X117196185Y-68392857D02*
X117310471Y-68292857D01*
X117310471Y-68292857D02*
X117310471Y-68335714D01*
X117310471Y-68335714D02*
X117324757Y-68364286D01*
X117324757Y-68364286D02*
X117339042Y-68378571D01*
X117339042Y-68378571D02*
X117367614Y-68392857D01*
X117367614Y-68392857D02*
X117439042Y-68392857D01*
X117439042Y-68392857D02*
X117467614Y-68378571D01*
X117467614Y-68378571D02*
X117481900Y-68364286D01*
X117481900Y-68364286D02*
X117496185Y-68335714D01*
X117496185Y-68335714D02*
X117496185Y-68250000D01*
X117496185Y-68250000D02*
X117481900Y-68221428D01*
X117481900Y-68221428D02*
X117467614Y-68207143D01*
X117196185Y-68492857D02*
X117196185Y-68692857D01*
X117196185Y-68692857D02*
X117496185Y-68564285D01*
X124102856Y-56547614D02*
X124117142Y-56561900D01*
X124117142Y-56561900D02*
X124159999Y-56576185D01*
X124159999Y-56576185D02*
X124188571Y-56576185D01*
X124188571Y-56576185D02*
X124231428Y-56561900D01*
X124231428Y-56561900D02*
X124259999Y-56533328D01*
X124259999Y-56533328D02*
X124274285Y-56504757D01*
X124274285Y-56504757D02*
X124288571Y-56447614D01*
X124288571Y-56447614D02*
X124288571Y-56404757D01*
X124288571Y-56404757D02*
X124274285Y-56347614D01*
X124274285Y-56347614D02*
X124259999Y-56319042D01*
X124259999Y-56319042D02*
X124231428Y-56290471D01*
X124231428Y-56290471D02*
X124188571Y-56276185D01*
X124188571Y-56276185D02*
X124159999Y-56276185D01*
X124159999Y-56276185D02*
X124117142Y-56290471D01*
X124117142Y-56290471D02*
X124102856Y-56304757D01*
X123845714Y-56376185D02*
X123845714Y-56576185D01*
X123917142Y-56261900D02*
X123988571Y-56476185D01*
X123988571Y-56476185D02*
X123802856Y-56476185D01*
X123717142Y-56276185D02*
X123517142Y-56276185D01*
X123517142Y-56276185D02*
X123645714Y-56576185D01*
X121977614Y-57857143D02*
X121991900Y-57842857D01*
X121991900Y-57842857D02*
X122006185Y-57800000D01*
X122006185Y-57800000D02*
X122006185Y-57771428D01*
X122006185Y-57771428D02*
X121991900Y-57728571D01*
X121991900Y-57728571D02*
X121963328Y-57700000D01*
X121963328Y-57700000D02*
X121934757Y-57685714D01*
X121934757Y-57685714D02*
X121877614Y-57671428D01*
X121877614Y-57671428D02*
X121834757Y-57671428D01*
X121834757Y-57671428D02*
X121777614Y-57685714D01*
X121777614Y-57685714D02*
X121749042Y-57700000D01*
X121749042Y-57700000D02*
X121720471Y-57728571D01*
X121720471Y-57728571D02*
X121706185Y-57771428D01*
X121706185Y-57771428D02*
X121706185Y-57800000D01*
X121706185Y-57800000D02*
X121720471Y-57842857D01*
X121720471Y-57842857D02*
X121734757Y-57857143D01*
X121706185Y-58128571D02*
X121706185Y-57985714D01*
X121706185Y-57985714D02*
X121849042Y-57971428D01*
X121849042Y-57971428D02*
X121834757Y-57985714D01*
X121834757Y-57985714D02*
X121820471Y-58014286D01*
X121820471Y-58014286D02*
X121820471Y-58085714D01*
X121820471Y-58085714D02*
X121834757Y-58114286D01*
X121834757Y-58114286D02*
X121849042Y-58128571D01*
X121849042Y-58128571D02*
X121877614Y-58142857D01*
X121877614Y-58142857D02*
X121949042Y-58142857D01*
X121949042Y-58142857D02*
X121977614Y-58128571D01*
X121977614Y-58128571D02*
X121991900Y-58114286D01*
X121991900Y-58114286D02*
X122006185Y-58085714D01*
X122006185Y-58085714D02*
X122006185Y-58014286D01*
X122006185Y-58014286D02*
X121991900Y-57985714D01*
X121991900Y-57985714D02*
X121977614Y-57971428D01*
X122006185Y-58428571D02*
X122006185Y-58257142D01*
X122006185Y-58342857D02*
X121706185Y-58342857D01*
X121706185Y-58342857D02*
X121749042Y-58314285D01*
X121749042Y-58314285D02*
X121777614Y-58285714D01*
X121777614Y-58285714D02*
X121791900Y-58257142D01*
X121692856Y-55967614D02*
X121707142Y-55981900D01*
X121707142Y-55981900D02*
X121749999Y-55996185D01*
X121749999Y-55996185D02*
X121778571Y-55996185D01*
X121778571Y-55996185D02*
X121821428Y-55981900D01*
X121821428Y-55981900D02*
X121849999Y-55953328D01*
X121849999Y-55953328D02*
X121864285Y-55924757D01*
X121864285Y-55924757D02*
X121878571Y-55867614D01*
X121878571Y-55867614D02*
X121878571Y-55824757D01*
X121878571Y-55824757D02*
X121864285Y-55767614D01*
X121864285Y-55767614D02*
X121849999Y-55739042D01*
X121849999Y-55739042D02*
X121821428Y-55710471D01*
X121821428Y-55710471D02*
X121778571Y-55696185D01*
X121778571Y-55696185D02*
X121749999Y-55696185D01*
X121749999Y-55696185D02*
X121707142Y-55710471D01*
X121707142Y-55710471D02*
X121692856Y-55724757D01*
X121421428Y-55696185D02*
X121564285Y-55696185D01*
X121564285Y-55696185D02*
X121578571Y-55839042D01*
X121578571Y-55839042D02*
X121564285Y-55824757D01*
X121564285Y-55824757D02*
X121535714Y-55810471D01*
X121535714Y-55810471D02*
X121464285Y-55810471D01*
X121464285Y-55810471D02*
X121435714Y-55824757D01*
X121435714Y-55824757D02*
X121421428Y-55839042D01*
X121421428Y-55839042D02*
X121407142Y-55867614D01*
X121407142Y-55867614D02*
X121407142Y-55939042D01*
X121407142Y-55939042D02*
X121421428Y-55967614D01*
X121421428Y-55967614D02*
X121435714Y-55981900D01*
X121435714Y-55981900D02*
X121464285Y-55996185D01*
X121464285Y-55996185D02*
X121535714Y-55996185D01*
X121535714Y-55996185D02*
X121564285Y-55981900D01*
X121564285Y-55981900D02*
X121578571Y-55967614D01*
X121150000Y-55696185D02*
X121207142Y-55696185D01*
X121207142Y-55696185D02*
X121235714Y-55710471D01*
X121235714Y-55710471D02*
X121250000Y-55724757D01*
X121250000Y-55724757D02*
X121278571Y-55767614D01*
X121278571Y-55767614D02*
X121292857Y-55824757D01*
X121292857Y-55824757D02*
X121292857Y-55939042D01*
X121292857Y-55939042D02*
X121278571Y-55967614D01*
X121278571Y-55967614D02*
X121264285Y-55981900D01*
X121264285Y-55981900D02*
X121235714Y-55996185D01*
X121235714Y-55996185D02*
X121178571Y-55996185D01*
X121178571Y-55996185D02*
X121150000Y-55981900D01*
X121150000Y-55981900D02*
X121135714Y-55967614D01*
X121135714Y-55967614D02*
X121121428Y-55939042D01*
X121121428Y-55939042D02*
X121121428Y-55867614D01*
X121121428Y-55867614D02*
X121135714Y-55839042D01*
X121135714Y-55839042D02*
X121150000Y-55824757D01*
X121150000Y-55824757D02*
X121178571Y-55810471D01*
X121178571Y-55810471D02*
X121235714Y-55810471D01*
X121235714Y-55810471D02*
X121264285Y-55824757D01*
X121264285Y-55824757D02*
X121278571Y-55839042D01*
X121278571Y-55839042D02*
X121292857Y-55867614D01*
X124197614Y-55397143D02*
X124211900Y-55382857D01*
X124211900Y-55382857D02*
X124226185Y-55340000D01*
X124226185Y-55340000D02*
X124226185Y-55311428D01*
X124226185Y-55311428D02*
X124211900Y-55268571D01*
X124211900Y-55268571D02*
X124183328Y-55240000D01*
X124183328Y-55240000D02*
X124154757Y-55225714D01*
X124154757Y-55225714D02*
X124097614Y-55211428D01*
X124097614Y-55211428D02*
X124054757Y-55211428D01*
X124054757Y-55211428D02*
X123997614Y-55225714D01*
X123997614Y-55225714D02*
X123969042Y-55240000D01*
X123969042Y-55240000D02*
X123940471Y-55268571D01*
X123940471Y-55268571D02*
X123926185Y-55311428D01*
X123926185Y-55311428D02*
X123926185Y-55340000D01*
X123926185Y-55340000D02*
X123940471Y-55382857D01*
X123940471Y-55382857D02*
X123954757Y-55397143D01*
X124026185Y-55654286D02*
X124226185Y-55654286D01*
X123911900Y-55582857D02*
X124126185Y-55511428D01*
X124126185Y-55511428D02*
X124126185Y-55697143D01*
X124026185Y-55940000D02*
X124226185Y-55940000D01*
X123911900Y-55868571D02*
X124126185Y-55797142D01*
X124126185Y-55797142D02*
X124126185Y-55982857D01*
X122687614Y-56637143D02*
X122701900Y-56622857D01*
X122701900Y-56622857D02*
X122716185Y-56580000D01*
X122716185Y-56580000D02*
X122716185Y-56551428D01*
X122716185Y-56551428D02*
X122701900Y-56508571D01*
X122701900Y-56508571D02*
X122673328Y-56480000D01*
X122673328Y-56480000D02*
X122644757Y-56465714D01*
X122644757Y-56465714D02*
X122587614Y-56451428D01*
X122587614Y-56451428D02*
X122544757Y-56451428D01*
X122544757Y-56451428D02*
X122487614Y-56465714D01*
X122487614Y-56465714D02*
X122459042Y-56480000D01*
X122459042Y-56480000D02*
X122430471Y-56508571D01*
X122430471Y-56508571D02*
X122416185Y-56551428D01*
X122416185Y-56551428D02*
X122416185Y-56580000D01*
X122416185Y-56580000D02*
X122430471Y-56622857D01*
X122430471Y-56622857D02*
X122444757Y-56637143D01*
X122516185Y-56894286D02*
X122716185Y-56894286D01*
X122401900Y-56822857D02*
X122616185Y-56751428D01*
X122616185Y-56751428D02*
X122616185Y-56937143D01*
X122544757Y-57094285D02*
X122530471Y-57065714D01*
X122530471Y-57065714D02*
X122516185Y-57051428D01*
X122516185Y-57051428D02*
X122487614Y-57037142D01*
X122487614Y-57037142D02*
X122473328Y-57037142D01*
X122473328Y-57037142D02*
X122444757Y-57051428D01*
X122444757Y-57051428D02*
X122430471Y-57065714D01*
X122430471Y-57065714D02*
X122416185Y-57094285D01*
X122416185Y-57094285D02*
X122416185Y-57151428D01*
X122416185Y-57151428D02*
X122430471Y-57180000D01*
X122430471Y-57180000D02*
X122444757Y-57194285D01*
X122444757Y-57194285D02*
X122473328Y-57208571D01*
X122473328Y-57208571D02*
X122487614Y-57208571D01*
X122487614Y-57208571D02*
X122516185Y-57194285D01*
X122516185Y-57194285D02*
X122530471Y-57180000D01*
X122530471Y-57180000D02*
X122544757Y-57151428D01*
X122544757Y-57151428D02*
X122544757Y-57094285D01*
X122544757Y-57094285D02*
X122559042Y-57065714D01*
X122559042Y-57065714D02*
X122573328Y-57051428D01*
X122573328Y-57051428D02*
X122601900Y-57037142D01*
X122601900Y-57037142D02*
X122659042Y-57037142D01*
X122659042Y-57037142D02*
X122687614Y-57051428D01*
X122687614Y-57051428D02*
X122701900Y-57065714D01*
X122701900Y-57065714D02*
X122716185Y-57094285D01*
X122716185Y-57094285D02*
X122716185Y-57151428D01*
X122716185Y-57151428D02*
X122701900Y-57180000D01*
X122701900Y-57180000D02*
X122687614Y-57194285D01*
X122687614Y-57194285D02*
X122659042Y-57208571D01*
X122659042Y-57208571D02*
X122601900Y-57208571D01*
X122601900Y-57208571D02*
X122573328Y-57194285D01*
X122573328Y-57194285D02*
X122559042Y-57180000D01*
X122559042Y-57180000D02*
X122544757Y-57151428D01*
X118601428Y-67546185D02*
X118601428Y-67789042D01*
X118601428Y-67789042D02*
X118587142Y-67817614D01*
X118587142Y-67817614D02*
X118572857Y-67831900D01*
X118572857Y-67831900D02*
X118544285Y-67846185D01*
X118544285Y-67846185D02*
X118487142Y-67846185D01*
X118487142Y-67846185D02*
X118458571Y-67831900D01*
X118458571Y-67831900D02*
X118444285Y-67817614D01*
X118444285Y-67817614D02*
X118429999Y-67789042D01*
X118429999Y-67789042D02*
X118429999Y-67546185D01*
X118129999Y-67846185D02*
X118301428Y-67846185D01*
X118215713Y-67846185D02*
X118215713Y-67546185D01*
X118215713Y-67546185D02*
X118244285Y-67589042D01*
X118244285Y-67589042D02*
X118272856Y-67617614D01*
X118272856Y-67617614D02*
X118301428Y-67631900D01*
X117944285Y-67546185D02*
X117915714Y-67546185D01*
X117915714Y-67546185D02*
X117887142Y-67560471D01*
X117887142Y-67560471D02*
X117872857Y-67574757D01*
X117872857Y-67574757D02*
X117858571Y-67603328D01*
X117858571Y-67603328D02*
X117844285Y-67660471D01*
X117844285Y-67660471D02*
X117844285Y-67731900D01*
X117844285Y-67731900D02*
X117858571Y-67789042D01*
X117858571Y-67789042D02*
X117872857Y-67817614D01*
X117872857Y-67817614D02*
X117887142Y-67831900D01*
X117887142Y-67831900D02*
X117915714Y-67846185D01*
X117915714Y-67846185D02*
X117944285Y-67846185D01*
X117944285Y-67846185D02*
X117972857Y-67831900D01*
X117972857Y-67831900D02*
X117987142Y-67817614D01*
X117987142Y-67817614D02*
X118001428Y-67789042D01*
X118001428Y-67789042D02*
X118015714Y-67731900D01*
X118015714Y-67731900D02*
X118015714Y-67660471D01*
X118015714Y-67660471D02*
X118001428Y-67603328D01*
X118001428Y-67603328D02*
X117987142Y-67574757D01*
X117987142Y-67574757D02*
X117972857Y-67560471D01*
X117972857Y-67560471D02*
X117944285Y-67546185D01*
X123728571Y-68056185D02*
X123728571Y-68299042D01*
X123728571Y-68299042D02*
X123714285Y-68327614D01*
X123714285Y-68327614D02*
X123700000Y-68341900D01*
X123700000Y-68341900D02*
X123671428Y-68356185D01*
X123671428Y-68356185D02*
X123614285Y-68356185D01*
X123614285Y-68356185D02*
X123585714Y-68341900D01*
X123585714Y-68341900D02*
X123571428Y-68327614D01*
X123571428Y-68327614D02*
X123557142Y-68299042D01*
X123557142Y-68299042D02*
X123557142Y-68056185D01*
X123257142Y-68356185D02*
X123428571Y-68356185D01*
X123342856Y-68356185D02*
X123342856Y-68056185D01*
X123342856Y-68056185D02*
X123371428Y-68099042D01*
X123371428Y-68099042D02*
X123399999Y-68127614D01*
X123399999Y-68127614D02*
X123428571Y-68141900D01*
X125449999Y-54066185D02*
X125549999Y-53923328D01*
X125621428Y-54066185D02*
X125621428Y-53766185D01*
X125621428Y-53766185D02*
X125507142Y-53766185D01*
X125507142Y-53766185D02*
X125478571Y-53780471D01*
X125478571Y-53780471D02*
X125464285Y-53794757D01*
X125464285Y-53794757D02*
X125449999Y-53823328D01*
X125449999Y-53823328D02*
X125449999Y-53866185D01*
X125449999Y-53866185D02*
X125464285Y-53894757D01*
X125464285Y-53894757D02*
X125478571Y-53909042D01*
X125478571Y-53909042D02*
X125507142Y-53923328D01*
X125507142Y-53923328D02*
X125621428Y-53923328D01*
X125164285Y-54066185D02*
X125335714Y-54066185D01*
X125249999Y-54066185D02*
X125249999Y-53766185D01*
X125249999Y-53766185D02*
X125278571Y-53809042D01*
X125278571Y-53809042D02*
X125307142Y-53837614D01*
X125307142Y-53837614D02*
X125335714Y-53851900D01*
X119628571Y-67536185D02*
X119628571Y-67779042D01*
X119628571Y-67779042D02*
X119614285Y-67807614D01*
X119614285Y-67807614D02*
X119600000Y-67821900D01*
X119600000Y-67821900D02*
X119571428Y-67836185D01*
X119571428Y-67836185D02*
X119514285Y-67836185D01*
X119514285Y-67836185D02*
X119485714Y-67821900D01*
X119485714Y-67821900D02*
X119471428Y-67807614D01*
X119471428Y-67807614D02*
X119457142Y-67779042D01*
X119457142Y-67779042D02*
X119457142Y-67536185D01*
X119171428Y-67536185D02*
X119314285Y-67536185D01*
X119314285Y-67536185D02*
X119328571Y-67679042D01*
X119328571Y-67679042D02*
X119314285Y-67664757D01*
X119314285Y-67664757D02*
X119285714Y-67650471D01*
X119285714Y-67650471D02*
X119214285Y-67650471D01*
X119214285Y-67650471D02*
X119185714Y-67664757D01*
X119185714Y-67664757D02*
X119171428Y-67679042D01*
X119171428Y-67679042D02*
X119157142Y-67707614D01*
X119157142Y-67707614D02*
X119157142Y-67779042D01*
X119157142Y-67779042D02*
X119171428Y-67807614D01*
X119171428Y-67807614D02*
X119185714Y-67821900D01*
X119185714Y-67821900D02*
X119214285Y-67836185D01*
X119214285Y-67836185D02*
X119285714Y-67836185D01*
X119285714Y-67836185D02*
X119314285Y-67821900D01*
X119314285Y-67821900D02*
X119328571Y-67807614D01*
X125346185Y-59197143D02*
X125346185Y-59054286D01*
X125346185Y-59054286D02*
X125046185Y-59054286D01*
X125346185Y-59454286D02*
X125346185Y-59282857D01*
X125346185Y-59368572D02*
X125046185Y-59368572D01*
X125046185Y-59368572D02*
X125089042Y-59340000D01*
X125089042Y-59340000D02*
X125117614Y-59311429D01*
X125117614Y-59311429D02*
X125131900Y-59282857D01*
X125074757Y-59568571D02*
X125060471Y-59582857D01*
X125060471Y-59582857D02*
X125046185Y-59611429D01*
X125046185Y-59611429D02*
X125046185Y-59682857D01*
X125046185Y-59682857D02*
X125060471Y-59711429D01*
X125060471Y-59711429D02*
X125074757Y-59725714D01*
X125074757Y-59725714D02*
X125103328Y-59740000D01*
X125103328Y-59740000D02*
X125131900Y-59740000D01*
X125131900Y-59740000D02*
X125174757Y-59725714D01*
X125174757Y-59725714D02*
X125346185Y-59554286D01*
X125346185Y-59554286D02*
X125346185Y-59740000D01*
X128497614Y-64727143D02*
X128511900Y-64712857D01*
X128511900Y-64712857D02*
X128526185Y-64670000D01*
X128526185Y-64670000D02*
X128526185Y-64641428D01*
X128526185Y-64641428D02*
X128511900Y-64598571D01*
X128511900Y-64598571D02*
X128483328Y-64570000D01*
X128483328Y-64570000D02*
X128454757Y-64555714D01*
X128454757Y-64555714D02*
X128397614Y-64541428D01*
X128397614Y-64541428D02*
X128354757Y-64541428D01*
X128354757Y-64541428D02*
X128297614Y-64555714D01*
X128297614Y-64555714D02*
X128269042Y-64570000D01*
X128269042Y-64570000D02*
X128240471Y-64598571D01*
X128240471Y-64598571D02*
X128226185Y-64641428D01*
X128226185Y-64641428D02*
X128226185Y-64670000D01*
X128226185Y-64670000D02*
X128240471Y-64712857D01*
X128240471Y-64712857D02*
X128254757Y-64727143D01*
X128254757Y-64841428D02*
X128240471Y-64855714D01*
X128240471Y-64855714D02*
X128226185Y-64884286D01*
X128226185Y-64884286D02*
X128226185Y-64955714D01*
X128226185Y-64955714D02*
X128240471Y-64984286D01*
X128240471Y-64984286D02*
X128254757Y-64998571D01*
X128254757Y-64998571D02*
X128283328Y-65012857D01*
X128283328Y-65012857D02*
X128311900Y-65012857D01*
X128311900Y-65012857D02*
X128354757Y-64998571D01*
X128354757Y-64998571D02*
X128526185Y-64827143D01*
X128526185Y-64827143D02*
X128526185Y-65012857D01*
X128254757Y-65127142D02*
X128240471Y-65141428D01*
X128240471Y-65141428D02*
X128226185Y-65170000D01*
X128226185Y-65170000D02*
X128226185Y-65241428D01*
X128226185Y-65241428D02*
X128240471Y-65270000D01*
X128240471Y-65270000D02*
X128254757Y-65284285D01*
X128254757Y-65284285D02*
X128283328Y-65298571D01*
X128283328Y-65298571D02*
X128311900Y-65298571D01*
X128311900Y-65298571D02*
X128354757Y-65284285D01*
X128354757Y-65284285D02*
X128526185Y-65112857D01*
X128526185Y-65112857D02*
X128526185Y-65298571D01*
X118297614Y-68877143D02*
X118311900Y-68862857D01*
X118311900Y-68862857D02*
X118326185Y-68820000D01*
X118326185Y-68820000D02*
X118326185Y-68791428D01*
X118326185Y-68791428D02*
X118311900Y-68748571D01*
X118311900Y-68748571D02*
X118283328Y-68720000D01*
X118283328Y-68720000D02*
X118254757Y-68705714D01*
X118254757Y-68705714D02*
X118197614Y-68691428D01*
X118197614Y-68691428D02*
X118154757Y-68691428D01*
X118154757Y-68691428D02*
X118097614Y-68705714D01*
X118097614Y-68705714D02*
X118069042Y-68720000D01*
X118069042Y-68720000D02*
X118040471Y-68748571D01*
X118040471Y-68748571D02*
X118026185Y-68791428D01*
X118026185Y-68791428D02*
X118026185Y-68820000D01*
X118026185Y-68820000D02*
X118040471Y-68862857D01*
X118040471Y-68862857D02*
X118054757Y-68877143D01*
X118026185Y-69134286D02*
X118026185Y-69077143D01*
X118026185Y-69077143D02*
X118040471Y-69048571D01*
X118040471Y-69048571D02*
X118054757Y-69034286D01*
X118054757Y-69034286D02*
X118097614Y-69005714D01*
X118097614Y-69005714D02*
X118154757Y-68991428D01*
X118154757Y-68991428D02*
X118269042Y-68991428D01*
X118269042Y-68991428D02*
X118297614Y-69005714D01*
X118297614Y-69005714D02*
X118311900Y-69020000D01*
X118311900Y-69020000D02*
X118326185Y-69048571D01*
X118326185Y-69048571D02*
X118326185Y-69105714D01*
X118326185Y-69105714D02*
X118311900Y-69134286D01*
X118311900Y-69134286D02*
X118297614Y-69148571D01*
X118297614Y-69148571D02*
X118269042Y-69162857D01*
X118269042Y-69162857D02*
X118197614Y-69162857D01*
X118197614Y-69162857D02*
X118169042Y-69148571D01*
X118169042Y-69148571D02*
X118154757Y-69134286D01*
X118154757Y-69134286D02*
X118140471Y-69105714D01*
X118140471Y-69105714D02*
X118140471Y-69048571D01*
X118140471Y-69048571D02*
X118154757Y-69020000D01*
X118154757Y-69020000D02*
X118169042Y-69005714D01*
X118169042Y-69005714D02*
X118197614Y-68991428D01*
X118326185Y-69305714D02*
X118326185Y-69362857D01*
X118326185Y-69362857D02*
X118311900Y-69391428D01*
X118311900Y-69391428D02*
X118297614Y-69405714D01*
X118297614Y-69405714D02*
X118254757Y-69434285D01*
X118254757Y-69434285D02*
X118197614Y-69448571D01*
X118197614Y-69448571D02*
X118083328Y-69448571D01*
X118083328Y-69448571D02*
X118054757Y-69434285D01*
X118054757Y-69434285D02*
X118040471Y-69420000D01*
X118040471Y-69420000D02*
X118026185Y-69391428D01*
X118026185Y-69391428D02*
X118026185Y-69334285D01*
X118026185Y-69334285D02*
X118040471Y-69305714D01*
X118040471Y-69305714D02*
X118054757Y-69291428D01*
X118054757Y-69291428D02*
X118083328Y-69277142D01*
X118083328Y-69277142D02*
X118154757Y-69277142D01*
X118154757Y-69277142D02*
X118183328Y-69291428D01*
X118183328Y-69291428D02*
X118197614Y-69305714D01*
X118197614Y-69305714D02*
X118211900Y-69334285D01*
X118211900Y-69334285D02*
X118211900Y-69391428D01*
X118211900Y-69391428D02*
X118197614Y-69420000D01*
X118197614Y-69420000D02*
X118183328Y-69434285D01*
X118183328Y-69434285D02*
X118154757Y-69448571D01*
X117342856Y-64027614D02*
X117357142Y-64041900D01*
X117357142Y-64041900D02*
X117399999Y-64056185D01*
X117399999Y-64056185D02*
X117428571Y-64056185D01*
X117428571Y-64056185D02*
X117471428Y-64041900D01*
X117471428Y-64041900D02*
X117499999Y-64013328D01*
X117499999Y-64013328D02*
X117514285Y-63984757D01*
X117514285Y-63984757D02*
X117528571Y-63927614D01*
X117528571Y-63927614D02*
X117528571Y-63884757D01*
X117528571Y-63884757D02*
X117514285Y-63827614D01*
X117514285Y-63827614D02*
X117499999Y-63799042D01*
X117499999Y-63799042D02*
X117471428Y-63770471D01*
X117471428Y-63770471D02*
X117428571Y-63756185D01*
X117428571Y-63756185D02*
X117399999Y-63756185D01*
X117399999Y-63756185D02*
X117357142Y-63770471D01*
X117357142Y-63770471D02*
X117342856Y-63784757D01*
X117085714Y-63756185D02*
X117142856Y-63756185D01*
X117142856Y-63756185D02*
X117171428Y-63770471D01*
X117171428Y-63770471D02*
X117185714Y-63784757D01*
X117185714Y-63784757D02*
X117214285Y-63827614D01*
X117214285Y-63827614D02*
X117228571Y-63884757D01*
X117228571Y-63884757D02*
X117228571Y-63999042D01*
X117228571Y-63999042D02*
X117214285Y-64027614D01*
X117214285Y-64027614D02*
X117199999Y-64041900D01*
X117199999Y-64041900D02*
X117171428Y-64056185D01*
X117171428Y-64056185D02*
X117114285Y-64056185D01*
X117114285Y-64056185D02*
X117085714Y-64041900D01*
X117085714Y-64041900D02*
X117071428Y-64027614D01*
X117071428Y-64027614D02*
X117057142Y-63999042D01*
X117057142Y-63999042D02*
X117057142Y-63927614D01*
X117057142Y-63927614D02*
X117071428Y-63899042D01*
X117071428Y-63899042D02*
X117085714Y-63884757D01*
X117085714Y-63884757D02*
X117114285Y-63870471D01*
X117114285Y-63870471D02*
X117171428Y-63870471D01*
X117171428Y-63870471D02*
X117199999Y-63884757D01*
X117199999Y-63884757D02*
X117214285Y-63899042D01*
X117214285Y-63899042D02*
X117228571Y-63927614D01*
X116957142Y-63756185D02*
X116757142Y-63756185D01*
X116757142Y-63756185D02*
X116885714Y-64056185D01*
X128312856Y-55467614D02*
X128327142Y-55481900D01*
X128327142Y-55481900D02*
X128369999Y-55496185D01*
X128369999Y-55496185D02*
X128398571Y-55496185D01*
X128398571Y-55496185D02*
X128441428Y-55481900D01*
X128441428Y-55481900D02*
X128469999Y-55453328D01*
X128469999Y-55453328D02*
X128484285Y-55424757D01*
X128484285Y-55424757D02*
X128498571Y-55367614D01*
X128498571Y-55367614D02*
X128498571Y-55324757D01*
X128498571Y-55324757D02*
X128484285Y-55267614D01*
X128484285Y-55267614D02*
X128469999Y-55239042D01*
X128469999Y-55239042D02*
X128441428Y-55210471D01*
X128441428Y-55210471D02*
X128398571Y-55196185D01*
X128398571Y-55196185D02*
X128369999Y-55196185D01*
X128369999Y-55196185D02*
X128327142Y-55210471D01*
X128327142Y-55210471D02*
X128312856Y-55224757D01*
X128055714Y-55296185D02*
X128055714Y-55496185D01*
X128127142Y-55181900D02*
X128198571Y-55396185D01*
X128198571Y-55396185D02*
X128012856Y-55396185D01*
X127912857Y-55224757D02*
X127898571Y-55210471D01*
X127898571Y-55210471D02*
X127870000Y-55196185D01*
X127870000Y-55196185D02*
X127798571Y-55196185D01*
X127798571Y-55196185D02*
X127770000Y-55210471D01*
X127770000Y-55210471D02*
X127755714Y-55224757D01*
X127755714Y-55224757D02*
X127741428Y-55253328D01*
X127741428Y-55253328D02*
X127741428Y-55281900D01*
X127741428Y-55281900D02*
X127755714Y-55324757D01*
X127755714Y-55324757D02*
X127927142Y-55496185D01*
X127927142Y-55496185D02*
X127741428Y-55496185D01*
X114767614Y-61037143D02*
X114781900Y-61022857D01*
X114781900Y-61022857D02*
X114796185Y-60980000D01*
X114796185Y-60980000D02*
X114796185Y-60951428D01*
X114796185Y-60951428D02*
X114781900Y-60908571D01*
X114781900Y-60908571D02*
X114753328Y-60880000D01*
X114753328Y-60880000D02*
X114724757Y-60865714D01*
X114724757Y-60865714D02*
X114667614Y-60851428D01*
X114667614Y-60851428D02*
X114624757Y-60851428D01*
X114624757Y-60851428D02*
X114567614Y-60865714D01*
X114567614Y-60865714D02*
X114539042Y-60880000D01*
X114539042Y-60880000D02*
X114510471Y-60908571D01*
X114510471Y-60908571D02*
X114496185Y-60951428D01*
X114496185Y-60951428D02*
X114496185Y-60980000D01*
X114496185Y-60980000D02*
X114510471Y-61022857D01*
X114510471Y-61022857D02*
X114524757Y-61037143D01*
X114496185Y-61137143D02*
X114496185Y-61322857D01*
X114496185Y-61322857D02*
X114610471Y-61222857D01*
X114610471Y-61222857D02*
X114610471Y-61265714D01*
X114610471Y-61265714D02*
X114624757Y-61294286D01*
X114624757Y-61294286D02*
X114639042Y-61308571D01*
X114639042Y-61308571D02*
X114667614Y-61322857D01*
X114667614Y-61322857D02*
X114739042Y-61322857D01*
X114739042Y-61322857D02*
X114767614Y-61308571D01*
X114767614Y-61308571D02*
X114781900Y-61294286D01*
X114781900Y-61294286D02*
X114796185Y-61265714D01*
X114796185Y-61265714D02*
X114796185Y-61180000D01*
X114796185Y-61180000D02*
X114781900Y-61151428D01*
X114781900Y-61151428D02*
X114767614Y-61137143D01*
X114524757Y-61437142D02*
X114510471Y-61451428D01*
X114510471Y-61451428D02*
X114496185Y-61480000D01*
X114496185Y-61480000D02*
X114496185Y-61551428D01*
X114496185Y-61551428D02*
X114510471Y-61580000D01*
X114510471Y-61580000D02*
X114524757Y-61594285D01*
X114524757Y-61594285D02*
X114553328Y-61608571D01*
X114553328Y-61608571D02*
X114581900Y-61608571D01*
X114581900Y-61608571D02*
X114624757Y-61594285D01*
X114624757Y-61594285D02*
X114796185Y-61422857D01*
X114796185Y-61422857D02*
X114796185Y-61608571D01*
X119192856Y-58927614D02*
X119207142Y-58941900D01*
X119207142Y-58941900D02*
X119249999Y-58956185D01*
X119249999Y-58956185D02*
X119278571Y-58956185D01*
X119278571Y-58956185D02*
X119321428Y-58941900D01*
X119321428Y-58941900D02*
X119349999Y-58913328D01*
X119349999Y-58913328D02*
X119364285Y-58884757D01*
X119364285Y-58884757D02*
X119378571Y-58827614D01*
X119378571Y-58827614D02*
X119378571Y-58784757D01*
X119378571Y-58784757D02*
X119364285Y-58727614D01*
X119364285Y-58727614D02*
X119349999Y-58699042D01*
X119349999Y-58699042D02*
X119321428Y-58670471D01*
X119321428Y-58670471D02*
X119278571Y-58656185D01*
X119278571Y-58656185D02*
X119249999Y-58656185D01*
X119249999Y-58656185D02*
X119207142Y-58670471D01*
X119207142Y-58670471D02*
X119192856Y-58684757D01*
X118921428Y-58656185D02*
X119064285Y-58656185D01*
X119064285Y-58656185D02*
X119078571Y-58799042D01*
X119078571Y-58799042D02*
X119064285Y-58784757D01*
X119064285Y-58784757D02*
X119035714Y-58770471D01*
X119035714Y-58770471D02*
X118964285Y-58770471D01*
X118964285Y-58770471D02*
X118935714Y-58784757D01*
X118935714Y-58784757D02*
X118921428Y-58799042D01*
X118921428Y-58799042D02*
X118907142Y-58827614D01*
X118907142Y-58827614D02*
X118907142Y-58899042D01*
X118907142Y-58899042D02*
X118921428Y-58927614D01*
X118921428Y-58927614D02*
X118935714Y-58941900D01*
X118935714Y-58941900D02*
X118964285Y-58956185D01*
X118964285Y-58956185D02*
X119035714Y-58956185D01*
X119035714Y-58956185D02*
X119064285Y-58941900D01*
X119064285Y-58941900D02*
X119078571Y-58927614D01*
X118735714Y-58784757D02*
X118764285Y-58770471D01*
X118764285Y-58770471D02*
X118778571Y-58756185D01*
X118778571Y-58756185D02*
X118792857Y-58727614D01*
X118792857Y-58727614D02*
X118792857Y-58713328D01*
X118792857Y-58713328D02*
X118778571Y-58684757D01*
X118778571Y-58684757D02*
X118764285Y-58670471D01*
X118764285Y-58670471D02*
X118735714Y-58656185D01*
X118735714Y-58656185D02*
X118678571Y-58656185D01*
X118678571Y-58656185D02*
X118650000Y-58670471D01*
X118650000Y-58670471D02*
X118635714Y-58684757D01*
X118635714Y-58684757D02*
X118621428Y-58713328D01*
X118621428Y-58713328D02*
X118621428Y-58727614D01*
X118621428Y-58727614D02*
X118635714Y-58756185D01*
X118635714Y-58756185D02*
X118650000Y-58770471D01*
X118650000Y-58770471D02*
X118678571Y-58784757D01*
X118678571Y-58784757D02*
X118735714Y-58784757D01*
X118735714Y-58784757D02*
X118764285Y-58799042D01*
X118764285Y-58799042D02*
X118778571Y-58813328D01*
X118778571Y-58813328D02*
X118792857Y-58841900D01*
X118792857Y-58841900D02*
X118792857Y-58899042D01*
X118792857Y-58899042D02*
X118778571Y-58927614D01*
X118778571Y-58927614D02*
X118764285Y-58941900D01*
X118764285Y-58941900D02*
X118735714Y-58956185D01*
X118735714Y-58956185D02*
X118678571Y-58956185D01*
X118678571Y-58956185D02*
X118650000Y-58941900D01*
X118650000Y-58941900D02*
X118635714Y-58927614D01*
X118635714Y-58927614D02*
X118621428Y-58899042D01*
X118621428Y-58899042D02*
X118621428Y-58841900D01*
X118621428Y-58841900D02*
X118635714Y-58813328D01*
X118635714Y-58813328D02*
X118650000Y-58799042D01*
X118650000Y-58799042D02*
X118678571Y-58784757D01*
X122162856Y-54176185D02*
X122305713Y-54176185D01*
X122305713Y-54176185D02*
X122305713Y-53876185D01*
X121905713Y-54176185D02*
X122077142Y-54176185D01*
X121991427Y-54176185D02*
X121991427Y-53876185D01*
X121991427Y-53876185D02*
X122019999Y-53919042D01*
X122019999Y-53919042D02*
X122048570Y-53947614D01*
X122048570Y-53947614D02*
X122077142Y-53961900D01*
X121619999Y-54176185D02*
X121791428Y-54176185D01*
X121705713Y-54176185D02*
X121705713Y-53876185D01*
X121705713Y-53876185D02*
X121734285Y-53919042D01*
X121734285Y-53919042D02*
X121762856Y-53947614D01*
X121762856Y-53947614D02*
X121791428Y-53961900D01*
X118826185Y-70247143D02*
X118683328Y-70147143D01*
X118826185Y-70075714D02*
X118526185Y-70075714D01*
X118526185Y-70075714D02*
X118526185Y-70190000D01*
X118526185Y-70190000D02*
X118540471Y-70218571D01*
X118540471Y-70218571D02*
X118554757Y-70232857D01*
X118554757Y-70232857D02*
X118583328Y-70247143D01*
X118583328Y-70247143D02*
X118626185Y-70247143D01*
X118626185Y-70247143D02*
X118654757Y-70232857D01*
X118654757Y-70232857D02*
X118669042Y-70218571D01*
X118669042Y-70218571D02*
X118683328Y-70190000D01*
X118683328Y-70190000D02*
X118683328Y-70075714D01*
X118554757Y-70361428D02*
X118540471Y-70375714D01*
X118540471Y-70375714D02*
X118526185Y-70404286D01*
X118526185Y-70404286D02*
X118526185Y-70475714D01*
X118526185Y-70475714D02*
X118540471Y-70504286D01*
X118540471Y-70504286D02*
X118554757Y-70518571D01*
X118554757Y-70518571D02*
X118583328Y-70532857D01*
X118583328Y-70532857D02*
X118611900Y-70532857D01*
X118611900Y-70532857D02*
X118654757Y-70518571D01*
X118654757Y-70518571D02*
X118826185Y-70347143D01*
X118826185Y-70347143D02*
X118826185Y-70532857D01*
X118526185Y-70632857D02*
X118526185Y-70818571D01*
X118526185Y-70818571D02*
X118640471Y-70718571D01*
X118640471Y-70718571D02*
X118640471Y-70761428D01*
X118640471Y-70761428D02*
X118654757Y-70790000D01*
X118654757Y-70790000D02*
X118669042Y-70804285D01*
X118669042Y-70804285D02*
X118697614Y-70818571D01*
X118697614Y-70818571D02*
X118769042Y-70818571D01*
X118769042Y-70818571D02*
X118797614Y-70804285D01*
X118797614Y-70804285D02*
X118811900Y-70790000D01*
X118811900Y-70790000D02*
X118826185Y-70761428D01*
X118826185Y-70761428D02*
X118826185Y-70675714D01*
X118826185Y-70675714D02*
X118811900Y-70647142D01*
X118811900Y-70647142D02*
X118797614Y-70632857D01*
X116701428Y-65726185D02*
X116701428Y-65969042D01*
X116701428Y-65969042D02*
X116687142Y-65997614D01*
X116687142Y-65997614D02*
X116672857Y-66011900D01*
X116672857Y-66011900D02*
X116644285Y-66026185D01*
X116644285Y-66026185D02*
X116587142Y-66026185D01*
X116587142Y-66026185D02*
X116558571Y-66011900D01*
X116558571Y-66011900D02*
X116544285Y-65997614D01*
X116544285Y-65997614D02*
X116529999Y-65969042D01*
X116529999Y-65969042D02*
X116529999Y-65726185D01*
X116229999Y-66026185D02*
X116401428Y-66026185D01*
X116315713Y-66026185D02*
X116315713Y-65726185D01*
X116315713Y-65726185D02*
X116344285Y-65769042D01*
X116344285Y-65769042D02*
X116372856Y-65797614D01*
X116372856Y-65797614D02*
X116401428Y-65811900D01*
X116129999Y-65726185D02*
X115944285Y-65726185D01*
X115944285Y-65726185D02*
X116044285Y-65840471D01*
X116044285Y-65840471D02*
X116001428Y-65840471D01*
X116001428Y-65840471D02*
X115972857Y-65854757D01*
X115972857Y-65854757D02*
X115958571Y-65869042D01*
X115958571Y-65869042D02*
X115944285Y-65897614D01*
X115944285Y-65897614D02*
X115944285Y-65969042D01*
X115944285Y-65969042D02*
X115958571Y-65997614D01*
X115958571Y-65997614D02*
X115972857Y-66011900D01*
X115972857Y-66011900D02*
X116001428Y-66026185D01*
X116001428Y-66026185D02*
X116087142Y-66026185D01*
X116087142Y-66026185D02*
X116115714Y-66011900D01*
X116115714Y-66011900D02*
X116129999Y-65997614D01*
X116153231Y-68390826D02*
X116148002Y-68410340D01*
X116148002Y-68410340D02*
X116157059Y-68454598D01*
X116157059Y-68454598D02*
X116171345Y-68479342D01*
X116171345Y-68479342D02*
X116205145Y-68509315D01*
X116205145Y-68509315D02*
X116244174Y-68519772D01*
X116244174Y-68519772D02*
X116276061Y-68517859D01*
X116276061Y-68517859D02*
X116332691Y-68501659D01*
X116332691Y-68501659D02*
X116369806Y-68480230D01*
X116369806Y-68480230D02*
X116412151Y-68439287D01*
X116412151Y-68439287D02*
X116429751Y-68412630D01*
X116429751Y-68412630D02*
X116440209Y-68373600D01*
X116440209Y-68373600D02*
X116431152Y-68329342D01*
X116431152Y-68329342D02*
X116416867Y-68304598D01*
X116416867Y-68304598D02*
X116383066Y-68274626D01*
X116383066Y-68274626D02*
X116363552Y-68269397D01*
X116338295Y-68168509D02*
X116245438Y-68007675D01*
X116245438Y-68007675D02*
X116196464Y-68151421D01*
X116196464Y-68151421D02*
X116175035Y-68114305D01*
X116175035Y-68114305D02*
X116148378Y-68096705D01*
X116148378Y-68096705D02*
X116128863Y-68091476D01*
X116128863Y-68091476D02*
X116096977Y-68093390D01*
X116096977Y-68093390D02*
X116035118Y-68129104D01*
X116035118Y-68129104D02*
X116017517Y-68155762D01*
X116017517Y-68155762D02*
X116012288Y-68175276D01*
X116012288Y-68175276D02*
X116014202Y-68207163D01*
X116014202Y-68207163D02*
X116057059Y-68281393D01*
X116057059Y-68281393D02*
X116083717Y-68298994D01*
X116083717Y-68298994D02*
X116103231Y-68304223D01*
X116152581Y-67846842D02*
X116138295Y-67822099D01*
X116138295Y-67822099D02*
X116111638Y-67804498D01*
X116111638Y-67804498D02*
X116092123Y-67799269D01*
X116092123Y-67799269D02*
X116060237Y-67801183D01*
X116060237Y-67801183D02*
X116003607Y-67817383D01*
X116003607Y-67817383D02*
X115941748Y-67853097D01*
X115941748Y-67853097D02*
X115899404Y-67894040D01*
X115899404Y-67894040D02*
X115881803Y-67920698D01*
X115881803Y-67920698D02*
X115876574Y-67940212D01*
X115876574Y-67940212D02*
X115878488Y-67972099D01*
X115878488Y-67972099D02*
X115892773Y-67996842D01*
X115892773Y-67996842D02*
X115919431Y-68014443D01*
X115919431Y-68014443D02*
X115938946Y-68019672D01*
X115938946Y-68019672D02*
X115970832Y-68017758D01*
X115970832Y-68017758D02*
X116027462Y-68001559D01*
X116027462Y-68001559D02*
X116089321Y-67965844D01*
X116089321Y-67965844D02*
X116131665Y-67924901D01*
X116131665Y-67924901D02*
X116149266Y-67898244D01*
X116149266Y-67898244D02*
X116154495Y-67878729D01*
X116154495Y-67878729D02*
X116152581Y-67846842D01*
X121136432Y-54336185D02*
X121279289Y-54336185D01*
X121279289Y-54336185D02*
X121279289Y-54036185D01*
X120879289Y-54336185D02*
X121050718Y-54336185D01*
X120965003Y-54336185D02*
X120965003Y-54036185D01*
X120965003Y-54036185D02*
X120993575Y-54079042D01*
X120993575Y-54079042D02*
X121022146Y-54107614D01*
X121022146Y-54107614D02*
X121050718Y-54121900D01*
X120607861Y-54036185D02*
X120750718Y-54036185D01*
X120750718Y-54036185D02*
X120765004Y-54179042D01*
X120765004Y-54179042D02*
X120750718Y-54164757D01*
X120750718Y-54164757D02*
X120722147Y-54150471D01*
X120722147Y-54150471D02*
X120650718Y-54150471D01*
X120650718Y-54150471D02*
X120622147Y-54164757D01*
X120622147Y-54164757D02*
X120607861Y-54179042D01*
X120607861Y-54179042D02*
X120593575Y-54207614D01*
X120593575Y-54207614D02*
X120593575Y-54279042D01*
X120593575Y-54279042D02*
X120607861Y-54307614D01*
X120607861Y-54307614D02*
X120622147Y-54321900D01*
X120622147Y-54321900D02*
X120650718Y-54336185D01*
X120650718Y-54336185D02*
X120722147Y-54336185D01*
X120722147Y-54336185D02*
X120750718Y-54321900D01*
X120750718Y-54321900D02*
X120765004Y-54307614D01*
X130748571Y-58786185D02*
X130748571Y-59029042D01*
X130748571Y-59029042D02*
X130734285Y-59057614D01*
X130734285Y-59057614D02*
X130720000Y-59071900D01*
X130720000Y-59071900D02*
X130691428Y-59086185D01*
X130691428Y-59086185D02*
X130634285Y-59086185D01*
X130634285Y-59086185D02*
X130605714Y-59071900D01*
X130605714Y-59071900D02*
X130591428Y-59057614D01*
X130591428Y-59057614D02*
X130577142Y-59029042D01*
X130577142Y-59029042D02*
X130577142Y-58786185D01*
X130305714Y-58786185D02*
X130362856Y-58786185D01*
X130362856Y-58786185D02*
X130391428Y-58800471D01*
X130391428Y-58800471D02*
X130405714Y-58814757D01*
X130405714Y-58814757D02*
X130434285Y-58857614D01*
X130434285Y-58857614D02*
X130448571Y-58914757D01*
X130448571Y-58914757D02*
X130448571Y-59029042D01*
X130448571Y-59029042D02*
X130434285Y-59057614D01*
X130434285Y-59057614D02*
X130419999Y-59071900D01*
X130419999Y-59071900D02*
X130391428Y-59086185D01*
X130391428Y-59086185D02*
X130334285Y-59086185D01*
X130334285Y-59086185D02*
X130305714Y-59071900D01*
X130305714Y-59071900D02*
X130291428Y-59057614D01*
X130291428Y-59057614D02*
X130277142Y-59029042D01*
X130277142Y-59029042D02*
X130277142Y-58957614D01*
X130277142Y-58957614D02*
X130291428Y-58929042D01*
X130291428Y-58929042D02*
X130305714Y-58914757D01*
X130305714Y-58914757D02*
X130334285Y-58900471D01*
X130334285Y-58900471D02*
X130391428Y-58900471D01*
X130391428Y-58900471D02*
X130419999Y-58914757D01*
X130419999Y-58914757D02*
X130434285Y-58929042D01*
X130434285Y-58929042D02*
X130448571Y-58957614D01*
X124402856Y-59387614D02*
X124417142Y-59401900D01*
X124417142Y-59401900D02*
X124459999Y-59416185D01*
X124459999Y-59416185D02*
X124488571Y-59416185D01*
X124488571Y-59416185D02*
X124531428Y-59401900D01*
X124531428Y-59401900D02*
X124559999Y-59373328D01*
X124559999Y-59373328D02*
X124574285Y-59344757D01*
X124574285Y-59344757D02*
X124588571Y-59287614D01*
X124588571Y-59287614D02*
X124588571Y-59244757D01*
X124588571Y-59244757D02*
X124574285Y-59187614D01*
X124574285Y-59187614D02*
X124559999Y-59159042D01*
X124559999Y-59159042D02*
X124531428Y-59130471D01*
X124531428Y-59130471D02*
X124488571Y-59116185D01*
X124488571Y-59116185D02*
X124459999Y-59116185D01*
X124459999Y-59116185D02*
X124417142Y-59130471D01*
X124417142Y-59130471D02*
X124402856Y-59144757D01*
X124131428Y-59116185D02*
X124274285Y-59116185D01*
X124274285Y-59116185D02*
X124288571Y-59259042D01*
X124288571Y-59259042D02*
X124274285Y-59244757D01*
X124274285Y-59244757D02*
X124245714Y-59230471D01*
X124245714Y-59230471D02*
X124174285Y-59230471D01*
X124174285Y-59230471D02*
X124145714Y-59244757D01*
X124145714Y-59244757D02*
X124131428Y-59259042D01*
X124131428Y-59259042D02*
X124117142Y-59287614D01*
X124117142Y-59287614D02*
X124117142Y-59359042D01*
X124117142Y-59359042D02*
X124131428Y-59387614D01*
X124131428Y-59387614D02*
X124145714Y-59401900D01*
X124145714Y-59401900D02*
X124174285Y-59416185D01*
X124174285Y-59416185D02*
X124245714Y-59416185D01*
X124245714Y-59416185D02*
X124274285Y-59401900D01*
X124274285Y-59401900D02*
X124288571Y-59387614D01*
X124017142Y-59116185D02*
X123831428Y-59116185D01*
X123831428Y-59116185D02*
X123931428Y-59230471D01*
X123931428Y-59230471D02*
X123888571Y-59230471D01*
X123888571Y-59230471D02*
X123860000Y-59244757D01*
X123860000Y-59244757D02*
X123845714Y-59259042D01*
X123845714Y-59259042D02*
X123831428Y-59287614D01*
X123831428Y-59287614D02*
X123831428Y-59359042D01*
X123831428Y-59359042D02*
X123845714Y-59387614D01*
X123845714Y-59387614D02*
X123860000Y-59401900D01*
X123860000Y-59401900D02*
X123888571Y-59416185D01*
X123888571Y-59416185D02*
X123974285Y-59416185D01*
X123974285Y-59416185D02*
X124002857Y-59401900D01*
X124002857Y-59401900D02*
X124017142Y-59387614D01*
X130302856Y-57126185D02*
X130402856Y-56983328D01*
X130474285Y-57126185D02*
X130474285Y-56826185D01*
X130474285Y-56826185D02*
X130359999Y-56826185D01*
X130359999Y-56826185D02*
X130331428Y-56840471D01*
X130331428Y-56840471D02*
X130317142Y-56854757D01*
X130317142Y-56854757D02*
X130302856Y-56883328D01*
X130302856Y-56883328D02*
X130302856Y-56926185D01*
X130302856Y-56926185D02*
X130317142Y-56954757D01*
X130317142Y-56954757D02*
X130331428Y-56969042D01*
X130331428Y-56969042D02*
X130359999Y-56983328D01*
X130359999Y-56983328D02*
X130474285Y-56983328D01*
X130188571Y-56854757D02*
X130174285Y-56840471D01*
X130174285Y-56840471D02*
X130145714Y-56826185D01*
X130145714Y-56826185D02*
X130074285Y-56826185D01*
X130074285Y-56826185D02*
X130045714Y-56840471D01*
X130045714Y-56840471D02*
X130031428Y-56854757D01*
X130031428Y-56854757D02*
X130017142Y-56883328D01*
X130017142Y-56883328D02*
X130017142Y-56911900D01*
X130017142Y-56911900D02*
X130031428Y-56954757D01*
X130031428Y-56954757D02*
X130202856Y-57126185D01*
X130202856Y-57126185D02*
X130017142Y-57126185D01*
X129760000Y-56826185D02*
X129817142Y-56826185D01*
X129817142Y-56826185D02*
X129845714Y-56840471D01*
X129845714Y-56840471D02*
X129860000Y-56854757D01*
X129860000Y-56854757D02*
X129888571Y-56897614D01*
X129888571Y-56897614D02*
X129902857Y-56954757D01*
X129902857Y-56954757D02*
X129902857Y-57069042D01*
X129902857Y-57069042D02*
X129888571Y-57097614D01*
X129888571Y-57097614D02*
X129874285Y-57111900D01*
X129874285Y-57111900D02*
X129845714Y-57126185D01*
X129845714Y-57126185D02*
X129788571Y-57126185D01*
X129788571Y-57126185D02*
X129760000Y-57111900D01*
X129760000Y-57111900D02*
X129745714Y-57097614D01*
X129745714Y-57097614D02*
X129731428Y-57069042D01*
X129731428Y-57069042D02*
X129731428Y-56997614D01*
X129731428Y-56997614D02*
X129745714Y-56969042D01*
X129745714Y-56969042D02*
X129760000Y-56954757D01*
X129760000Y-56954757D02*
X129788571Y-56940471D01*
X129788571Y-56940471D02*
X129845714Y-56940471D01*
X129845714Y-56940471D02*
X129874285Y-56954757D01*
X129874285Y-56954757D02*
X129888571Y-56969042D01*
X129888571Y-56969042D02*
X129902857Y-56997614D01*
X125357614Y-57587143D02*
X125371900Y-57572857D01*
X125371900Y-57572857D02*
X125386185Y-57530000D01*
X125386185Y-57530000D02*
X125386185Y-57501428D01*
X125386185Y-57501428D02*
X125371900Y-57458571D01*
X125371900Y-57458571D02*
X125343328Y-57430000D01*
X125343328Y-57430000D02*
X125314757Y-57415714D01*
X125314757Y-57415714D02*
X125257614Y-57401428D01*
X125257614Y-57401428D02*
X125214757Y-57401428D01*
X125214757Y-57401428D02*
X125157614Y-57415714D01*
X125157614Y-57415714D02*
X125129042Y-57430000D01*
X125129042Y-57430000D02*
X125100471Y-57458571D01*
X125100471Y-57458571D02*
X125086185Y-57501428D01*
X125086185Y-57501428D02*
X125086185Y-57530000D01*
X125086185Y-57530000D02*
X125100471Y-57572857D01*
X125100471Y-57572857D02*
X125114757Y-57587143D01*
X125086185Y-57858571D02*
X125086185Y-57715714D01*
X125086185Y-57715714D02*
X125229042Y-57701428D01*
X125229042Y-57701428D02*
X125214757Y-57715714D01*
X125214757Y-57715714D02*
X125200471Y-57744286D01*
X125200471Y-57744286D02*
X125200471Y-57815714D01*
X125200471Y-57815714D02*
X125214757Y-57844286D01*
X125214757Y-57844286D02*
X125229042Y-57858571D01*
X125229042Y-57858571D02*
X125257614Y-57872857D01*
X125257614Y-57872857D02*
X125329042Y-57872857D01*
X125329042Y-57872857D02*
X125357614Y-57858571D01*
X125357614Y-57858571D02*
X125371900Y-57844286D01*
X125371900Y-57844286D02*
X125386185Y-57815714D01*
X125386185Y-57815714D02*
X125386185Y-57744286D01*
X125386185Y-57744286D02*
X125371900Y-57715714D01*
X125371900Y-57715714D02*
X125357614Y-57701428D01*
X125086185Y-58058571D02*
X125086185Y-58087142D01*
X125086185Y-58087142D02*
X125100471Y-58115714D01*
X125100471Y-58115714D02*
X125114757Y-58130000D01*
X125114757Y-58130000D02*
X125143328Y-58144285D01*
X125143328Y-58144285D02*
X125200471Y-58158571D01*
X125200471Y-58158571D02*
X125271900Y-58158571D01*
X125271900Y-58158571D02*
X125329042Y-58144285D01*
X125329042Y-58144285D02*
X125357614Y-58130000D01*
X125357614Y-58130000D02*
X125371900Y-58115714D01*
X125371900Y-58115714D02*
X125386185Y-58087142D01*
X125386185Y-58087142D02*
X125386185Y-58058571D01*
X125386185Y-58058571D02*
X125371900Y-58030000D01*
X125371900Y-58030000D02*
X125357614Y-58015714D01*
X125357614Y-58015714D02*
X125329042Y-58001428D01*
X125329042Y-58001428D02*
X125271900Y-57987142D01*
X125271900Y-57987142D02*
X125200471Y-57987142D01*
X125200471Y-57987142D02*
X125143328Y-58001428D01*
X125143328Y-58001428D02*
X125114757Y-58015714D01*
X125114757Y-58015714D02*
X125100471Y-58030000D01*
X125100471Y-58030000D02*
X125086185Y-58058571D01*
X123649999Y-61846185D02*
X123649999Y-62060471D01*
X123649999Y-62060471D02*
X123664284Y-62103328D01*
X123664284Y-62103328D02*
X123692856Y-62131900D01*
X123692856Y-62131900D02*
X123735713Y-62146185D01*
X123735713Y-62146185D02*
X123764284Y-62146185D01*
X123521428Y-61874757D02*
X123507142Y-61860471D01*
X123507142Y-61860471D02*
X123478571Y-61846185D01*
X123478571Y-61846185D02*
X123407142Y-61846185D01*
X123407142Y-61846185D02*
X123378571Y-61860471D01*
X123378571Y-61860471D02*
X123364285Y-61874757D01*
X123364285Y-61874757D02*
X123349999Y-61903328D01*
X123349999Y-61903328D02*
X123349999Y-61931900D01*
X123349999Y-61931900D02*
X123364285Y-61974757D01*
X123364285Y-61974757D02*
X123535713Y-62146185D01*
X123535713Y-62146185D02*
X123349999Y-62146185D01*
X119811428Y-56726185D02*
X119811428Y-56969042D01*
X119811428Y-56969042D02*
X119797142Y-56997614D01*
X119797142Y-56997614D02*
X119782857Y-57011900D01*
X119782857Y-57011900D02*
X119754285Y-57026185D01*
X119754285Y-57026185D02*
X119697142Y-57026185D01*
X119697142Y-57026185D02*
X119668571Y-57011900D01*
X119668571Y-57011900D02*
X119654285Y-56997614D01*
X119654285Y-56997614D02*
X119639999Y-56969042D01*
X119639999Y-56969042D02*
X119639999Y-56726185D01*
X119339999Y-57026185D02*
X119511428Y-57026185D01*
X119425713Y-57026185D02*
X119425713Y-56726185D01*
X119425713Y-56726185D02*
X119454285Y-56769042D01*
X119454285Y-56769042D02*
X119482856Y-56797614D01*
X119482856Y-56797614D02*
X119511428Y-56811900D01*
X119225714Y-56754757D02*
X119211428Y-56740471D01*
X119211428Y-56740471D02*
X119182857Y-56726185D01*
X119182857Y-56726185D02*
X119111428Y-56726185D01*
X119111428Y-56726185D02*
X119082857Y-56740471D01*
X119082857Y-56740471D02*
X119068571Y-56754757D01*
X119068571Y-56754757D02*
X119054285Y-56783328D01*
X119054285Y-56783328D02*
X119054285Y-56811900D01*
X119054285Y-56811900D02*
X119068571Y-56854757D01*
X119068571Y-56854757D02*
X119239999Y-57026185D01*
X119239999Y-57026185D02*
X119054285Y-57026185D01*
X115202856Y-64017614D02*
X115217142Y-64031900D01*
X115217142Y-64031900D02*
X115259999Y-64046185D01*
X115259999Y-64046185D02*
X115288571Y-64046185D01*
X115288571Y-64046185D02*
X115331428Y-64031900D01*
X115331428Y-64031900D02*
X115359999Y-64003328D01*
X115359999Y-64003328D02*
X115374285Y-63974757D01*
X115374285Y-63974757D02*
X115388571Y-63917614D01*
X115388571Y-63917614D02*
X115388571Y-63874757D01*
X115388571Y-63874757D02*
X115374285Y-63817614D01*
X115374285Y-63817614D02*
X115359999Y-63789042D01*
X115359999Y-63789042D02*
X115331428Y-63760471D01*
X115331428Y-63760471D02*
X115288571Y-63746185D01*
X115288571Y-63746185D02*
X115259999Y-63746185D01*
X115259999Y-63746185D02*
X115217142Y-63760471D01*
X115217142Y-63760471D02*
X115202856Y-63774757D01*
X114945714Y-63746185D02*
X115002856Y-63746185D01*
X115002856Y-63746185D02*
X115031428Y-63760471D01*
X115031428Y-63760471D02*
X115045714Y-63774757D01*
X115045714Y-63774757D02*
X115074285Y-63817614D01*
X115074285Y-63817614D02*
X115088571Y-63874757D01*
X115088571Y-63874757D02*
X115088571Y-63989042D01*
X115088571Y-63989042D02*
X115074285Y-64017614D01*
X115074285Y-64017614D02*
X115059999Y-64031900D01*
X115059999Y-64031900D02*
X115031428Y-64046185D01*
X115031428Y-64046185D02*
X114974285Y-64046185D01*
X114974285Y-64046185D02*
X114945714Y-64031900D01*
X114945714Y-64031900D02*
X114931428Y-64017614D01*
X114931428Y-64017614D02*
X114917142Y-63989042D01*
X114917142Y-63989042D02*
X114917142Y-63917614D01*
X114917142Y-63917614D02*
X114931428Y-63889042D01*
X114931428Y-63889042D02*
X114945714Y-63874757D01*
X114945714Y-63874757D02*
X114974285Y-63860471D01*
X114974285Y-63860471D02*
X115031428Y-63860471D01*
X115031428Y-63860471D02*
X115059999Y-63874757D01*
X115059999Y-63874757D02*
X115074285Y-63889042D01*
X115074285Y-63889042D02*
X115088571Y-63917614D01*
X114745714Y-63874757D02*
X114774285Y-63860471D01*
X114774285Y-63860471D02*
X114788571Y-63846185D01*
X114788571Y-63846185D02*
X114802857Y-63817614D01*
X114802857Y-63817614D02*
X114802857Y-63803328D01*
X114802857Y-63803328D02*
X114788571Y-63774757D01*
X114788571Y-63774757D02*
X114774285Y-63760471D01*
X114774285Y-63760471D02*
X114745714Y-63746185D01*
X114745714Y-63746185D02*
X114688571Y-63746185D01*
X114688571Y-63746185D02*
X114660000Y-63760471D01*
X114660000Y-63760471D02*
X114645714Y-63774757D01*
X114645714Y-63774757D02*
X114631428Y-63803328D01*
X114631428Y-63803328D02*
X114631428Y-63817614D01*
X114631428Y-63817614D02*
X114645714Y-63846185D01*
X114645714Y-63846185D02*
X114660000Y-63860471D01*
X114660000Y-63860471D02*
X114688571Y-63874757D01*
X114688571Y-63874757D02*
X114745714Y-63874757D01*
X114745714Y-63874757D02*
X114774285Y-63889042D01*
X114774285Y-63889042D02*
X114788571Y-63903328D01*
X114788571Y-63903328D02*
X114802857Y-63931900D01*
X114802857Y-63931900D02*
X114802857Y-63989042D01*
X114802857Y-63989042D02*
X114788571Y-64017614D01*
X114788571Y-64017614D02*
X114774285Y-64031900D01*
X114774285Y-64031900D02*
X114745714Y-64046185D01*
X114745714Y-64046185D02*
X114688571Y-64046185D01*
X114688571Y-64046185D02*
X114660000Y-64031900D01*
X114660000Y-64031900D02*
X114645714Y-64017614D01*
X114645714Y-64017614D02*
X114631428Y-63989042D01*
X114631428Y-63989042D02*
X114631428Y-63931900D01*
X114631428Y-63931900D02*
X114645714Y-63903328D01*
X114645714Y-63903328D02*
X114660000Y-63889042D01*
X114660000Y-63889042D02*
X114688571Y-63874757D01*
X126272856Y-56246185D02*
X126415713Y-56246185D01*
X126415713Y-56246185D02*
X126415713Y-55946185D01*
X126015713Y-56246185D02*
X126187142Y-56246185D01*
X126101427Y-56246185D02*
X126101427Y-55946185D01*
X126101427Y-55946185D02*
X126129999Y-55989042D01*
X126129999Y-55989042D02*
X126158570Y-56017614D01*
X126158570Y-56017614D02*
X126187142Y-56031900D01*
X125758571Y-56046185D02*
X125758571Y-56246185D01*
X125829999Y-55931900D02*
X125901428Y-56146185D01*
X125901428Y-56146185D02*
X125715713Y-56146185D01*
X114757614Y-62907143D02*
X114771900Y-62892857D01*
X114771900Y-62892857D02*
X114786185Y-62850000D01*
X114786185Y-62850000D02*
X114786185Y-62821428D01*
X114786185Y-62821428D02*
X114771900Y-62778571D01*
X114771900Y-62778571D02*
X114743328Y-62750000D01*
X114743328Y-62750000D02*
X114714757Y-62735714D01*
X114714757Y-62735714D02*
X114657614Y-62721428D01*
X114657614Y-62721428D02*
X114614757Y-62721428D01*
X114614757Y-62721428D02*
X114557614Y-62735714D01*
X114557614Y-62735714D02*
X114529042Y-62750000D01*
X114529042Y-62750000D02*
X114500471Y-62778571D01*
X114500471Y-62778571D02*
X114486185Y-62821428D01*
X114486185Y-62821428D02*
X114486185Y-62850000D01*
X114486185Y-62850000D02*
X114500471Y-62892857D01*
X114500471Y-62892857D02*
X114514757Y-62907143D01*
X114486185Y-63007143D02*
X114486185Y-63192857D01*
X114486185Y-63192857D02*
X114600471Y-63092857D01*
X114600471Y-63092857D02*
X114600471Y-63135714D01*
X114600471Y-63135714D02*
X114614757Y-63164286D01*
X114614757Y-63164286D02*
X114629042Y-63178571D01*
X114629042Y-63178571D02*
X114657614Y-63192857D01*
X114657614Y-63192857D02*
X114729042Y-63192857D01*
X114729042Y-63192857D02*
X114757614Y-63178571D01*
X114757614Y-63178571D02*
X114771900Y-63164286D01*
X114771900Y-63164286D02*
X114786185Y-63135714D01*
X114786185Y-63135714D02*
X114786185Y-63050000D01*
X114786185Y-63050000D02*
X114771900Y-63021428D01*
X114771900Y-63021428D02*
X114757614Y-63007143D01*
X114786185Y-63478571D02*
X114786185Y-63307142D01*
X114786185Y-63392857D02*
X114486185Y-63392857D01*
X114486185Y-63392857D02*
X114529042Y-63364285D01*
X114529042Y-63364285D02*
X114557614Y-63335714D01*
X114557614Y-63335714D02*
X114571900Y-63307142D01*
X115871428Y-64136185D02*
X115871428Y-64379042D01*
X115871428Y-64379042D02*
X115885714Y-64407614D01*
X115885714Y-64407614D02*
X115900000Y-64421900D01*
X115900000Y-64421900D02*
X115928571Y-64436185D01*
X115928571Y-64436185D02*
X115985714Y-64436185D01*
X115985714Y-64436185D02*
X116014285Y-64421900D01*
X116014285Y-64421900D02*
X116028571Y-64407614D01*
X116028571Y-64407614D02*
X116042857Y-64379042D01*
X116042857Y-64379042D02*
X116042857Y-64136185D01*
X116200000Y-64436185D02*
X116257143Y-64436185D01*
X116257143Y-64436185D02*
X116285714Y-64421900D01*
X116285714Y-64421900D02*
X116300000Y-64407614D01*
X116300000Y-64407614D02*
X116328571Y-64364757D01*
X116328571Y-64364757D02*
X116342857Y-64307614D01*
X116342857Y-64307614D02*
X116342857Y-64193328D01*
X116342857Y-64193328D02*
X116328571Y-64164757D01*
X116328571Y-64164757D02*
X116314286Y-64150471D01*
X116314286Y-64150471D02*
X116285714Y-64136185D01*
X116285714Y-64136185D02*
X116228571Y-64136185D01*
X116228571Y-64136185D02*
X116200000Y-64150471D01*
X116200000Y-64150471D02*
X116185714Y-64164757D01*
X116185714Y-64164757D02*
X116171428Y-64193328D01*
X116171428Y-64193328D02*
X116171428Y-64264757D01*
X116171428Y-64264757D02*
X116185714Y-64293328D01*
X116185714Y-64293328D02*
X116200000Y-64307614D01*
X116200000Y-64307614D02*
X116228571Y-64321900D01*
X116228571Y-64321900D02*
X116285714Y-64321900D01*
X116285714Y-64321900D02*
X116314286Y-64307614D01*
X116314286Y-64307614D02*
X116328571Y-64293328D01*
X116328571Y-64293328D02*
X116342857Y-64264757D01*
X126572856Y-57066185D02*
X126672856Y-56923328D01*
X126744285Y-57066185D02*
X126744285Y-56766185D01*
X126744285Y-56766185D02*
X126629999Y-56766185D01*
X126629999Y-56766185D02*
X126601428Y-56780471D01*
X126601428Y-56780471D02*
X126587142Y-56794757D01*
X126587142Y-56794757D02*
X126572856Y-56823328D01*
X126572856Y-56823328D02*
X126572856Y-56866185D01*
X126572856Y-56866185D02*
X126587142Y-56894757D01*
X126587142Y-56894757D02*
X126601428Y-56909042D01*
X126601428Y-56909042D02*
X126629999Y-56923328D01*
X126629999Y-56923328D02*
X126744285Y-56923328D01*
X126458571Y-56794757D02*
X126444285Y-56780471D01*
X126444285Y-56780471D02*
X126415714Y-56766185D01*
X126415714Y-56766185D02*
X126344285Y-56766185D01*
X126344285Y-56766185D02*
X126315714Y-56780471D01*
X126315714Y-56780471D02*
X126301428Y-56794757D01*
X126301428Y-56794757D02*
X126287142Y-56823328D01*
X126287142Y-56823328D02*
X126287142Y-56851900D01*
X126287142Y-56851900D02*
X126301428Y-56894757D01*
X126301428Y-56894757D02*
X126472856Y-57066185D01*
X126472856Y-57066185D02*
X126287142Y-57066185D01*
X126001428Y-57066185D02*
X126172857Y-57066185D01*
X126087142Y-57066185D02*
X126087142Y-56766185D01*
X126087142Y-56766185D02*
X126115714Y-56809042D01*
X126115714Y-56809042D02*
X126144285Y-56837614D01*
X126144285Y-56837614D02*
X126172857Y-56851900D01*
X123077614Y-59357143D02*
X123091900Y-59342857D01*
X123091900Y-59342857D02*
X123106185Y-59300000D01*
X123106185Y-59300000D02*
X123106185Y-59271428D01*
X123106185Y-59271428D02*
X123091900Y-59228571D01*
X123091900Y-59228571D02*
X123063328Y-59200000D01*
X123063328Y-59200000D02*
X123034757Y-59185714D01*
X123034757Y-59185714D02*
X122977614Y-59171428D01*
X122977614Y-59171428D02*
X122934757Y-59171428D01*
X122934757Y-59171428D02*
X122877614Y-59185714D01*
X122877614Y-59185714D02*
X122849042Y-59200000D01*
X122849042Y-59200000D02*
X122820471Y-59228571D01*
X122820471Y-59228571D02*
X122806185Y-59271428D01*
X122806185Y-59271428D02*
X122806185Y-59300000D01*
X122806185Y-59300000D02*
X122820471Y-59342857D01*
X122820471Y-59342857D02*
X122834757Y-59357143D01*
X122906185Y-59614286D02*
X123106185Y-59614286D01*
X122791900Y-59542857D02*
X123006185Y-59471428D01*
X123006185Y-59471428D02*
X123006185Y-59657143D01*
X122806185Y-59900000D02*
X122806185Y-59842857D01*
X122806185Y-59842857D02*
X122820471Y-59814285D01*
X122820471Y-59814285D02*
X122834757Y-59800000D01*
X122834757Y-59800000D02*
X122877614Y-59771428D01*
X122877614Y-59771428D02*
X122934757Y-59757142D01*
X122934757Y-59757142D02*
X123049042Y-59757142D01*
X123049042Y-59757142D02*
X123077614Y-59771428D01*
X123077614Y-59771428D02*
X123091900Y-59785714D01*
X123091900Y-59785714D02*
X123106185Y-59814285D01*
X123106185Y-59814285D02*
X123106185Y-59871428D01*
X123106185Y-59871428D02*
X123091900Y-59900000D01*
X123091900Y-59900000D02*
X123077614Y-59914285D01*
X123077614Y-59914285D02*
X123049042Y-59928571D01*
X123049042Y-59928571D02*
X122977614Y-59928571D01*
X122977614Y-59928571D02*
X122949042Y-59914285D01*
X122949042Y-59914285D02*
X122934757Y-59900000D01*
X122934757Y-59900000D02*
X122920471Y-59871428D01*
X122920471Y-59871428D02*
X122920471Y-59814285D01*
X122920471Y-59814285D02*
X122934757Y-59785714D01*
X122934757Y-59785714D02*
X122949042Y-59771428D01*
X122949042Y-59771428D02*
X122977614Y-59757142D01*
D11*
%TO.C,C24*%
X115760000Y-58630000D02*
X115760000Y-59230000D01*
X115760000Y-59230000D02*
X115460000Y-59230000D01*
X115460000Y-58630000D02*
X115760000Y-58630000D01*
X115460000Y-59230000D02*
X115460000Y-58630000D01*
%TO.C,C27*%
X119000000Y-65200000D02*
X118400000Y-65200000D01*
X118400000Y-65200000D02*
X118400000Y-64900000D01*
X119000000Y-64900000D02*
X119000000Y-65200000D01*
X118400000Y-64900000D02*
X119000000Y-64900000D01*
%TO.C,R13*%
X128600000Y-69790000D02*
X129200000Y-69790000D01*
X129200000Y-69790000D02*
X129200000Y-70090000D01*
X128600000Y-70090000D02*
X128600000Y-69790000D01*
X129200000Y-70090000D02*
X128600000Y-70090000D01*
%TO.C,R16*%
X117440000Y-56300000D02*
X118040000Y-56300000D01*
X118040000Y-56300000D02*
X118040000Y-56600000D01*
X117440000Y-56600000D02*
X117440000Y-56300000D01*
X118040000Y-56600000D02*
X117440000Y-56600000D01*
%TO.C,C65*%
X119020000Y-67960000D02*
X119020000Y-68560000D01*
X119020000Y-68560000D02*
X118720000Y-68560000D01*
X118720000Y-67960000D02*
X119020000Y-67960000D01*
X118720000Y-68560000D02*
X118720000Y-67960000D01*
%TO.C,JP1*%
X126363576Y-58933576D02*
X126663576Y-58933576D01*
X126663576Y-59533576D02*
X126363576Y-59533576D01*
%TO.C,C43*%
X123793576Y-56823576D02*
X123793576Y-57423576D01*
X123793576Y-57423576D02*
X123493576Y-57423576D01*
X123493576Y-56823576D02*
X123793576Y-56823576D01*
X123493576Y-57423576D02*
X123493576Y-56823576D01*
%TO.C,C28*%
X119000000Y-64500000D02*
X118400000Y-64500000D01*
X118400000Y-64500000D02*
X118400000Y-64200000D01*
X119000000Y-64200000D02*
X119000000Y-64500000D01*
X118400000Y-64200000D02*
X119000000Y-64200000D01*
%TO.C,C52*%
X122588576Y-55583576D02*
X122588576Y-54583576D01*
X122588576Y-54583576D02*
X123088576Y-54583576D01*
X123088576Y-55583576D02*
X122588576Y-55583576D01*
X123088576Y-54583576D02*
X123088576Y-55583576D01*
%TO.C,C54*%
X122110000Y-59740000D02*
X121110000Y-59740000D01*
X121110000Y-59740000D02*
X121110000Y-59240000D01*
X122110000Y-59240000D02*
X122110000Y-59740000D01*
X121110000Y-59240000D02*
X122110000Y-59240000D01*
%TO.C,U2*%
X116263576Y-59800000D02*
X117963576Y-59800000D01*
X116263576Y-58950000D02*
X116263576Y-59800000D01*
X117113576Y-58100000D02*
X116263576Y-58950000D01*
X117963576Y-59800000D02*
X117963576Y-58100000D01*
X117963576Y-58100000D02*
X117113576Y-58100000D01*
%TO.C,U11*%
X127263576Y-59533576D02*
X127263576Y-56533576D01*
X127263576Y-56533576D02*
X129263576Y-56533576D01*
X129263576Y-56533576D02*
X129263576Y-58783576D01*
X128513576Y-59533576D02*
X127263576Y-59533576D01*
X129263576Y-58783576D02*
X128513576Y-59533576D01*
%TO.C,R2*%
X124338576Y-54533576D02*
X123738576Y-54533576D01*
X123738576Y-54533576D02*
X123738576Y-54233576D01*
X124338576Y-54233576D02*
X124338576Y-54533576D01*
X123738576Y-54233576D02*
X124338576Y-54233576D01*
%TO.C,C55*%
X124493576Y-55283576D02*
X125493576Y-55283576D01*
X125493576Y-55283576D02*
X125493576Y-55783576D01*
X124493576Y-55783576D02*
X124493576Y-55283576D01*
X125493576Y-55783576D02*
X124493576Y-55783576D01*
%TO.C,L10*%
X120263576Y-58383576D02*
X120263576Y-58983576D01*
X120263576Y-58983576D02*
X119963576Y-58983576D01*
X119963576Y-58383576D02*
X120263576Y-58383576D01*
X119963576Y-58983576D02*
X119963576Y-58383576D01*
%TO.C,L13*%
X119338576Y-59683576D02*
X118738576Y-59683576D01*
X118738576Y-59683576D02*
X118738576Y-59383576D01*
X119338576Y-59383576D02*
X119338576Y-59683576D01*
X118738576Y-59383576D02*
X119338576Y-59383576D01*
%TO.C,R22*%
X126113576Y-57883576D02*
X126713576Y-57883576D01*
X126713576Y-57883576D02*
X126713576Y-58183576D01*
X126113576Y-58183576D02*
X126113576Y-57883576D01*
X126713576Y-58183576D02*
X126113576Y-58183576D01*
%TO.C,C45*%
X123713576Y-58283576D02*
X124313576Y-58283576D01*
X124313576Y-58283576D02*
X124313576Y-58583576D01*
X123713576Y-58583576D02*
X123713576Y-58283576D01*
X124313576Y-58583576D02*
X123713576Y-58583576D01*
%TO.C,L16*%
X120063576Y-55533576D02*
X119463576Y-55533576D01*
X119463576Y-55533576D02*
X119463576Y-55233576D01*
X120063576Y-55233576D02*
X120063576Y-55533576D01*
X119463576Y-55233576D02*
X120063576Y-55233576D01*
%TO.C,C66*%
X118900000Y-66560000D02*
X118300000Y-66560000D01*
X118300000Y-66560000D02*
X118300000Y-66260000D01*
X118900000Y-66260000D02*
X118900000Y-66560000D01*
X118300000Y-66260000D02*
X118900000Y-66260000D01*
%TO.C,C23*%
X117680000Y-57570000D02*
X116680000Y-57570000D01*
X116680000Y-57570000D02*
X116680000Y-57070000D01*
X117680000Y-57070000D02*
X117680000Y-57570000D01*
X116680000Y-57070000D02*
X117680000Y-57070000D01*
%TO.C,C57*%
X121163576Y-57540000D02*
X121163576Y-58540000D01*
X121163576Y-58540000D02*
X120663576Y-58540000D01*
X120663576Y-57540000D02*
X121163576Y-57540000D01*
X120663576Y-58540000D02*
X120663576Y-57540000D01*
%TO.C,C49*%
X121538576Y-56783576D02*
X120938576Y-56783576D01*
X120938576Y-56783576D02*
X120938576Y-56483576D01*
X121538576Y-56483576D02*
X121538576Y-56783576D01*
X120938576Y-56483576D02*
X121538576Y-56483576D01*
%TO.C,C37*%
X117580000Y-67800000D02*
X117580000Y-68800000D01*
X117580000Y-68800000D02*
X117080000Y-68800000D01*
X117080000Y-67800000D02*
X117580000Y-67800000D01*
X117080000Y-68800000D02*
X117080000Y-67800000D01*
%TO.C,C47*%
X124413576Y-56283576D02*
X125013576Y-56283576D01*
X125013576Y-56283576D02*
X125013576Y-56583576D01*
X124413576Y-56583576D02*
X124413576Y-56283576D01*
X125013576Y-56583576D02*
X124413576Y-56583576D01*
%TO.C,C51*%
X122113576Y-57530000D02*
X122113576Y-58530000D01*
X122113576Y-58530000D02*
X121613576Y-58530000D01*
X121613576Y-57530000D02*
X122113576Y-57530000D01*
X121613576Y-58530000D02*
X121613576Y-57530000D01*
%TO.C,C56*%
X121963576Y-56083576D02*
X120963576Y-56083576D01*
X120963576Y-56083576D02*
X120963576Y-55583576D01*
X121963576Y-55583576D02*
X121963576Y-56083576D01*
X120963576Y-55583576D02*
X121963576Y-55583576D01*
%TO.C,C44*%
X123513576Y-55933576D02*
X123513576Y-55333576D01*
X123513576Y-55333576D02*
X123813576Y-55333576D01*
X123813576Y-55933576D02*
X123513576Y-55933576D01*
X123813576Y-55333576D02*
X123813576Y-55933576D01*
%TO.C,C48*%
X123093576Y-56483576D02*
X123093576Y-57083576D01*
X123093576Y-57083576D02*
X122793576Y-57083576D01*
X122793576Y-56483576D02*
X123093576Y-56483576D01*
X122793576Y-57083576D02*
X122793576Y-56483576D01*
%TO.C,U10*%
X118582500Y-67472500D02*
X117942500Y-67472500D01*
X117942500Y-67102500D01*
X118212500Y-66832500D01*
X118582500Y-66832500D01*
X118582500Y-67472500D01*
D12*
%TO.C,U1*%
X127000000Y-70700000D02*
X127000000Y-64700000D01*
X120000000Y-71700000D02*
X126000000Y-71700000D01*
X126000000Y-71700000D02*
X127000000Y-70700000D01*
X120000000Y-64700000D02*
X120000000Y-71700000D01*
X127000000Y-64700000D02*
X120000000Y-64700000D01*
D11*
%TO.C,R1*%
X125750000Y-54533576D02*
X125150000Y-54533576D01*
X125150000Y-54533576D02*
X125150000Y-54233576D01*
X125750000Y-54233576D02*
X125750000Y-54533576D01*
X125150000Y-54233576D02*
X125750000Y-54233576D01*
%TO.C,U5*%
X119330000Y-67470000D02*
X118690000Y-67470000D01*
X118690000Y-67100000D01*
X118960000Y-66830000D01*
X119330000Y-66830000D01*
X119330000Y-67470000D01*
%TO.C,L12*%
X125463576Y-59683576D02*
X125463576Y-59083576D01*
X125463576Y-59083576D02*
X125763576Y-59083576D01*
X125763576Y-59683576D02*
X125463576Y-59683576D01*
X125763576Y-59083576D02*
X125763576Y-59683576D01*
%TO.C,C22*%
X128090000Y-64600000D02*
X128090000Y-65200000D01*
X128090000Y-65200000D02*
X127790000Y-65200000D01*
X127790000Y-64600000D02*
X128090000Y-64600000D01*
X127790000Y-65200000D02*
X127790000Y-64600000D01*
%TO.C,C69*%
X118320000Y-67960000D02*
X118320000Y-68560000D01*
X118320000Y-68560000D02*
X118020000Y-68560000D01*
X118020000Y-67960000D02*
X118320000Y-67960000D01*
X118020000Y-68560000D02*
X118020000Y-67960000D01*
%TO.C,C67*%
X116900000Y-64150000D02*
X117500000Y-64150000D01*
X117500000Y-64150000D02*
X117500000Y-64450000D01*
X116900000Y-64450000D02*
X116900000Y-64150000D01*
X117500000Y-64450000D02*
X116900000Y-64450000D01*
%TO.C,C42*%
X128400000Y-55910000D02*
X127800000Y-55910000D01*
X127800000Y-55910000D02*
X127800000Y-55610000D01*
X128400000Y-55610000D02*
X128400000Y-55910000D01*
X127800000Y-55610000D02*
X128400000Y-55610000D01*
%TO.C,C32*%
X114890000Y-60740000D02*
X114890000Y-61740000D01*
X114890000Y-61740000D02*
X114390000Y-61740000D01*
X114390000Y-60740000D02*
X114890000Y-60740000D01*
X114390000Y-61740000D02*
X114390000Y-60740000D01*
%TO.C,C58*%
X119288576Y-58533576D02*
X118688576Y-58533576D01*
X118688576Y-58533576D02*
X118688576Y-58233576D01*
X119288576Y-58233576D02*
X119288576Y-58533576D01*
X118688576Y-58233576D02*
X119288576Y-58233576D01*
%TO.C,L11*%
X121838576Y-54908576D02*
X121838576Y-54308576D01*
X121838576Y-54308576D02*
X122138576Y-54308576D01*
X122138576Y-54908576D02*
X121838576Y-54908576D01*
X122138576Y-54308576D02*
X122138576Y-54908576D01*
%TO.C,R23*%
X119250000Y-70130000D02*
X119250000Y-70730000D01*
X119250000Y-70730000D02*
X118950000Y-70730000D01*
X118950000Y-70130000D02*
X119250000Y-70130000D01*
X118950000Y-70730000D02*
X118950000Y-70130000D01*
%TO.C,U13*%
X117500001Y-65149999D02*
G75*
G02*
X117100001Y-65149999I-200000J0D01*
G01*
X117100001Y-65149999D02*
G75*
G02*
X117500001Y-65149999I200000J0D01*
G01*
X117500001Y-65149999D02*
G75*
G02*
X117100001Y-65149999I-200000J0D01*
G01*
X117100001Y-65149999D02*
G75*
G02*
X117500001Y-65149999I200000J0D01*
G01*
X114825002Y-64775001D02*
X114825002Y-67124999D01*
X114825002Y-67124999D02*
X117774998Y-67124999D01*
X117774998Y-64775001D02*
X117774998Y-67124999D01*
X114825002Y-64775001D02*
X117774998Y-64775001D01*
%TO.C,C30*%
X116106506Y-67621987D02*
X116606506Y-68488013D01*
X116606506Y-68488013D02*
X116173494Y-68738013D01*
X115673494Y-67871987D02*
X116106506Y-67621987D01*
X116173494Y-68738013D02*
X115673494Y-67871987D01*
%TO.C,L15*%
X121243576Y-54793576D02*
X120643576Y-54793576D01*
X120643576Y-54793576D02*
X120643576Y-54493576D01*
X121243576Y-54493576D02*
X121243576Y-54793576D01*
X120643576Y-54493576D02*
X121243576Y-54493576D01*
%TO.C,U6*%
X131360000Y-59733576D02*
X131360000Y-58033576D01*
X130510000Y-59733576D02*
X131360000Y-59733576D01*
X129660000Y-58883576D02*
X130510000Y-59733576D01*
X131360000Y-58033576D02*
X129660000Y-58033576D01*
X129660000Y-58033576D02*
X129660000Y-58883576D01*
%TO.C,C53*%
X123713576Y-59033576D02*
X124713576Y-59033576D01*
X124713576Y-59033576D02*
X124713576Y-59533576D01*
X123713576Y-59533576D02*
X123713576Y-59033576D01*
X124713576Y-59533576D02*
X123713576Y-59533576D01*
%TO.C,R26*%
X130380000Y-57570000D02*
X129780000Y-57570000D01*
X129780000Y-57570000D02*
X129780000Y-57270000D01*
X130380000Y-57270000D02*
X130380000Y-57570000D01*
X129780000Y-57270000D02*
X130380000Y-57270000D01*
%TO.C,C50*%
X125453576Y-57293576D02*
X125453576Y-58293576D01*
X125453576Y-58293576D02*
X124953576Y-58293576D01*
X124953576Y-57293576D02*
X125453576Y-57293576D01*
X124953576Y-58293576D02*
X124953576Y-57293576D01*
D13*
%TO.C,J2*%
X115740000Y-62925000D02*
X115740000Y-61075000D01*
X131260000Y-62925000D02*
X115740000Y-62925000D01*
X115740000Y-61075000D02*
X131260000Y-61075000D01*
X131260000Y-61075000D02*
X131260000Y-62925000D01*
D12*
X130375000Y-63400000D02*
G75*
G02*
X130225000Y-63400000I-75000J0D01*
G01*
X130225000Y-63400000D02*
G75*
G02*
X130375000Y-63400000I75000J0D01*
G01*
D11*
%TO.C,U12*%
X118638576Y-55883576D02*
X120238576Y-55883576D01*
X120238576Y-55883576D02*
X120238576Y-57883576D01*
X120238576Y-57883576D02*
X119163576Y-57883576D01*
X118638576Y-57358576D02*
X119163576Y-57883576D01*
X118638576Y-57358576D02*
X118638576Y-55883576D01*
%TO.C,C68*%
X115300000Y-64450000D02*
X114700000Y-64450000D01*
X114700000Y-64450000D02*
X114700000Y-64150000D01*
X115300000Y-64150000D02*
X115300000Y-64450000D01*
X114700000Y-64150000D02*
X115300000Y-64150000D01*
%TO.C,L14*%
X125813576Y-56383576D02*
X126413576Y-56383576D01*
X126413576Y-56383576D02*
X126413576Y-56683576D01*
X125813576Y-56683576D02*
X125813576Y-56383576D01*
X126413576Y-56683576D02*
X125813576Y-56683576D01*
%TO.C,C31*%
X114890000Y-62550000D02*
X114890000Y-63550000D01*
X114890000Y-63550000D02*
X114390000Y-63550000D01*
X114390000Y-62550000D02*
X114890000Y-62550000D01*
X114390000Y-63550000D02*
X114390000Y-62550000D01*
%TO.C,U9*%
X116420000Y-64620000D02*
X116050000Y-64620000D01*
X115780000Y-64350000D01*
X115780000Y-63980000D01*
X116420000Y-63980000D01*
X116420000Y-64620000D01*
%TO.C,R21*%
X126113576Y-57183576D02*
X126713576Y-57183576D01*
X126713576Y-57183576D02*
X126713576Y-57483576D01*
X126113576Y-57483576D02*
X126113576Y-57183576D01*
X126713576Y-57483576D02*
X126113576Y-57483576D01*
%TO.C,C46*%
X123063576Y-58423576D02*
X123063576Y-59023576D01*
X123063576Y-59023576D02*
X122763576Y-59023576D01*
X122763576Y-58423576D02*
X123063576Y-58423576D01*
X122763576Y-59023576D02*
X122763576Y-58423576D01*
%TD*%
M02*
