%TF.GenerationSoftware,KiCad,Pcbnew,8.0.3*%
%TF.CreationDate,2024-10-01T18:17:42-04:00*%
%TF.ProjectId,headstage-16stim,68656164-7374-4616-9765-2d3136737469,B*%
%TF.SameCoordinates,Original*%
%TF.FileFunction,Paste,Top*%
%TF.FilePolarity,Positive*%
%FSLAX46Y46*%
G04 Gerber Fmt 4.6, Leading zero omitted, Abs format (unit mm)*
G04 Created by KiCad (PCBNEW 8.0.3) date 2024-10-01 18:17:42*
%MOMM*%
%LPD*%
G01*
G04 APERTURE LIST*
G04 Aperture macros list*
%AMRoundRect*
0 Rectangle with rounded corners*
0 $1 Rounding radius*
0 $2 $3 $4 $5 $6 $7 $8 $9 X,Y pos of 4 corners*
0 Add a 4 corners polygon primitive as box body*
4,1,4,$2,$3,$4,$5,$6,$7,$8,$9,$2,$3,0*
0 Add four circle primitives for the rounded corners*
1,1,$1+$1,$2,$3*
1,1,$1+$1,$4,$5*
1,1,$1+$1,$6,$7*
1,1,$1+$1,$8,$9*
0 Add four rect primitives between the rounded corners*
20,1,$1+$1,$2,$3,$4,$5,0*
20,1,$1+$1,$4,$5,$6,$7,0*
20,1,$1+$1,$6,$7,$8,$9,0*
20,1,$1+$1,$8,$9,$2,$3,0*%
%AMFreePoly0*
4,1,18,-0.825000,1.870000,-0.495000,2.200000,0.577500,2.200000,0.672214,2.181160,0.752509,2.127509,0.806160,2.047214,0.825000,1.952500,0.825000,-1.952500,0.806160,-2.047214,0.752509,-2.127509,0.672214,-2.181160,0.577500,-2.200000,-0.577500,-2.200000,-0.672214,-2.181160,-0.752509,-2.127509,-0.806160,-2.047214,-0.825000,-1.952500,-0.825000,1.870000,-0.825000,1.870000,$1*%
G04 Aperture macros list end*
%ADD10RoundRect,0.079500X-0.100500X0.079500X-0.100500X-0.079500X0.100500X-0.079500X0.100500X0.079500X0*%
%ADD11RoundRect,0.147500X0.172500X-0.147500X0.172500X0.147500X-0.172500X0.147500X-0.172500X-0.147500X0*%
%ADD12RoundRect,0.147500X0.147500X0.172500X-0.147500X0.172500X-0.147500X-0.172500X0.147500X-0.172500X0*%
%ADD13RoundRect,0.079500X-0.079500X-0.100500X0.079500X-0.100500X0.079500X0.100500X-0.079500X0.100500X0*%
%ADD14C,0.170000*%
%ADD15RoundRect,0.079500X0.100500X-0.079500X0.100500X0.079500X-0.100500X0.079500X-0.100500X-0.079500X0*%
%ADD16RoundRect,0.050000X-0.250000X0.200000X-0.250000X-0.200000X0.250000X-0.200000X0.250000X0.200000X0*%
%ADD17RoundRect,0.050000X-0.250000X0.075000X-0.250000X-0.075000X0.250000X-0.075000X0.250000X0.075000X0*%
%ADD18RoundRect,0.050000X0.075000X0.250000X-0.075000X0.250000X-0.075000X-0.250000X0.075000X-0.250000X0*%
%ADD19RoundRect,0.140000X-0.140000X-0.170000X0.140000X-0.170000X0.140000X0.170000X-0.140000X0.170000X0*%
%ADD20RoundRect,0.140000X-0.170000X0.140000X-0.170000X-0.140000X0.170000X-0.140000X0.170000X0.140000X0*%
%ADD21RoundRect,0.100000X-0.450000X-0.400000X0.450000X-0.400000X0.450000X0.400000X-0.450000X0.400000X0*%
%ADD22RoundRect,0.075000X-0.300000X-0.425000X0.300000X-0.425000X0.300000X0.425000X-0.300000X0.425000X0*%
%ADD23RoundRect,0.079500X0.079500X0.100500X-0.079500X0.100500X-0.079500X-0.100500X0.079500X-0.100500X0*%
%ADD24RoundRect,0.140000X0.170000X-0.140000X0.170000X0.140000X-0.170000X0.140000X-0.170000X-0.140000X0*%
%ADD25RoundRect,0.140000X0.140000X0.170000X-0.140000X0.170000X-0.140000X-0.170000X0.140000X-0.170000X0*%
%ADD26R,0.250000X0.650000*%
%ADD27FreePoly0,90.000000*%
%ADD28R,0.675000X0.254000*%
%ADD29R,0.254000X0.675000*%
%ADD30RoundRect,0.218750X-0.381250X0.218750X-0.381250X-0.218750X0.381250X-0.218750X0.381250X0.218750X0*%
%ADD31RoundRect,0.250000X-0.375000X-1.075000X0.375000X-1.075000X0.375000X1.075000X-0.375000X1.075000X0*%
%ADD32RoundRect,0.150000X0.150000X0.200000X-0.150000X0.200000X-0.150000X-0.200000X0.150000X-0.200000X0*%
G04 APERTURE END LIST*
%TO.C,U7*%
G36*
X129490000Y-68890000D02*
G01*
X128430000Y-68890000D01*
X128430000Y-67830000D01*
X129490000Y-67830000D01*
X129490000Y-68890000D01*
G37*
G36*
X129490000Y-67630000D02*
G01*
X128430000Y-67630000D01*
X128430000Y-66570000D01*
X129490000Y-66570000D01*
X129490000Y-67630000D01*
G37*
G36*
X129490000Y-66370000D02*
G01*
X128430000Y-66370000D01*
X128430000Y-65310000D01*
X129490000Y-65310000D01*
X129490000Y-66370000D01*
G37*
G36*
X128230000Y-68890000D02*
G01*
X127170000Y-68890000D01*
X127170000Y-67830000D01*
X128230000Y-67830000D01*
X128230000Y-68890000D01*
G37*
G36*
X128230000Y-67630000D02*
G01*
X127170000Y-67630000D01*
X127170000Y-66570000D01*
X128230000Y-66570000D01*
X128230000Y-67630000D01*
G37*
G36*
X128230000Y-66370000D02*
G01*
X127170000Y-66370000D01*
X127170000Y-65310000D01*
X128230000Y-65310000D01*
X128230000Y-66370000D01*
G37*
G36*
X126970000Y-68890000D02*
G01*
X125910000Y-68890000D01*
X125910000Y-67830000D01*
X126970000Y-67830000D01*
X126970000Y-68890000D01*
G37*
G36*
X126970000Y-67630000D02*
G01*
X125910000Y-67630000D01*
X125910000Y-66570000D01*
X126970000Y-66570000D01*
X126970000Y-67630000D01*
G37*
G36*
X126970000Y-66370000D02*
G01*
X125910000Y-66370000D01*
X125910000Y-65310000D01*
X126970000Y-65310000D01*
X126970000Y-66370000D01*
G37*
%TD*%
D10*
%TO.C,R6*%
X131300000Y-65555000D03*
X131300000Y-66245000D03*
%TD*%
%TO.C,R5*%
X131300000Y-66955000D03*
X131300000Y-67645000D03*
%TD*%
D11*
%TO.C,L7*%
X127150000Y-61710000D03*
X127150000Y-60740000D03*
%TD*%
%TO.C,L2*%
X123450000Y-66135000D03*
X123450000Y-65165000D03*
%TD*%
D12*
%TO.C,L1*%
X125355000Y-71700000D03*
X124385000Y-71700000D03*
%TD*%
D13*
%TO.C,C41*%
X118705000Y-70680000D03*
X119395000Y-70680000D03*
%TD*%
D10*
%TO.C,C36*%
X118800000Y-65455000D03*
X118800000Y-66145000D03*
%TD*%
D14*
%TO.C,U8*%
X124712953Y-58632359D03*
X124312953Y-58632359D03*
X123912953Y-58632359D03*
X123512953Y-58632359D03*
X123112953Y-58632359D03*
X122712953Y-58632359D03*
X122312953Y-58632359D03*
X121912953Y-58632359D03*
X124712953Y-58232359D03*
X124312953Y-58232359D03*
X123912953Y-58232359D03*
X123512953Y-58232359D03*
X123112953Y-58232359D03*
X122712953Y-58232359D03*
X122312953Y-58232359D03*
X121912953Y-58232359D03*
X124712953Y-57832359D03*
X124312953Y-57832359D03*
X123912953Y-57832359D03*
X123512953Y-57832359D03*
X123112953Y-57832359D03*
X122712953Y-57832359D03*
X122312953Y-57832359D03*
X121912953Y-57832359D03*
X124712953Y-57432359D03*
X124312953Y-57432359D03*
X123912953Y-57432359D03*
X123512953Y-57432359D03*
X123112953Y-57432359D03*
X122712953Y-57432359D03*
X122312953Y-57432359D03*
X121912953Y-57432359D03*
X124712953Y-57032359D03*
X124312953Y-57032359D03*
X123912953Y-57032359D03*
X123512953Y-57032359D03*
X123112953Y-57032359D03*
X122712953Y-57032359D03*
X122312953Y-57032359D03*
X121912953Y-57032359D03*
X124712953Y-56632359D03*
X124312953Y-56632359D03*
X123912953Y-56632359D03*
X123512953Y-56632359D03*
X123112953Y-56632359D03*
X122712953Y-56632359D03*
X122312953Y-56632359D03*
X121912953Y-56632359D03*
X124712953Y-56232359D03*
X124312953Y-56232359D03*
X123912953Y-56232359D03*
X123512953Y-56232359D03*
X123112953Y-56232359D03*
X122712953Y-56232359D03*
X122312953Y-56232359D03*
X121912953Y-56232359D03*
X124712953Y-55832359D03*
X124312953Y-55832359D03*
X123912953Y-55832359D03*
X123512953Y-55832359D03*
X123112953Y-55832359D03*
X122712953Y-55832359D03*
X122312953Y-55832359D03*
X121912953Y-55832359D03*
%TD*%
D15*
%TO.C,R15*%
X126070000Y-61795000D03*
X126070000Y-61105000D03*
%TD*%
D16*
%TO.C,D2*%
X126212953Y-57682359D03*
X126212953Y-58582359D03*
%TD*%
D17*
%TO.C,U7*%
X130100000Y-68849999D03*
X130100000Y-68350000D03*
X130100000Y-67850001D03*
X130100000Y-67350000D03*
X130100000Y-66850000D03*
X130100000Y-66350002D03*
X130100000Y-65850000D03*
X130100000Y-65350001D03*
D18*
X129449999Y-64700000D03*
X128950000Y-64700000D03*
X128450001Y-64700000D03*
X127950000Y-64700000D03*
X127450000Y-64700000D03*
X126950002Y-64700000D03*
X126450000Y-64700000D03*
X125950001Y-64700000D03*
D17*
X125300000Y-65350001D03*
X125300000Y-65850000D03*
X125300000Y-66350002D03*
X125300000Y-66850000D03*
X125300000Y-67350000D03*
X125300000Y-67850001D03*
X125300000Y-68350000D03*
X125300000Y-68849999D03*
D18*
X125950001Y-69500000D03*
X126450000Y-69500000D03*
X126950002Y-69500000D03*
X127450000Y-69500000D03*
X127950000Y-69500000D03*
X128450001Y-69500000D03*
X128950000Y-69500000D03*
X129449999Y-69500000D03*
%TD*%
D19*
%TO.C,C29*%
X115090000Y-66350000D03*
X116050000Y-66350000D03*
%TD*%
D15*
%TO.C,C40*%
X119470000Y-66165000D03*
X119470000Y-65475000D03*
%TD*%
%TO.C,R14*%
X120930000Y-66125000D03*
X120930000Y-65435000D03*
%TD*%
D10*
%TO.C,C20*%
X120000000Y-54955000D03*
X120000000Y-55645000D03*
%TD*%
D15*
%TO.C,R25*%
X125712953Y-56677359D03*
X125712953Y-55987359D03*
%TD*%
D20*
%TO.C,C34*%
X124400000Y-66220000D03*
X124400000Y-67180000D03*
%TD*%
D13*
%TO.C,R7*%
X120785000Y-54570000D03*
X121475000Y-54570000D03*
%TD*%
D21*
%TO.C,D3*%
X131700000Y-60050000D03*
D22*
X131050000Y-64200000D03*
X132350000Y-64200000D03*
%TD*%
D10*
%TO.C,R8*%
X120160000Y-65455000D03*
X120160000Y-66145000D03*
%TD*%
%TO.C,R20*%
X126512953Y-55987359D03*
X126512953Y-56677359D03*
%TD*%
D15*
%TO.C,C8*%
X124300000Y-63945000D03*
X124300000Y-63255000D03*
%TD*%
D23*
%TO.C,C14*%
X124555000Y-69480000D03*
X123865000Y-69480000D03*
%TD*%
D10*
%TO.C,R11*%
X121490000Y-60565000D03*
X121490000Y-61255000D03*
%TD*%
D24*
%TO.C,C12*%
X125830000Y-63600000D03*
X125830000Y-62640000D03*
%TD*%
D15*
%TO.C,C16*%
X128275000Y-63845000D03*
X128275000Y-63155000D03*
%TD*%
D25*
%TO.C,C17*%
X125240000Y-70320000D03*
X124280000Y-70320000D03*
%TD*%
D24*
%TO.C,C63*%
X121800000Y-71830000D03*
X121800000Y-70870000D03*
%TD*%
D13*
%TO.C,C4*%
X127445000Y-70320000D03*
X128135000Y-70320000D03*
%TD*%
D23*
%TO.C,C7*%
X126695000Y-70275000D03*
X126005000Y-70275000D03*
%TD*%
D13*
%TO.C,C26*%
X130735000Y-58270000D03*
X131425000Y-58270000D03*
%TD*%
D10*
%TO.C,C19*%
X122590000Y-71325000D03*
X122590000Y-72015000D03*
%TD*%
D24*
%TO.C,C2*%
X123450000Y-64280000D03*
X123450000Y-63320000D03*
%TD*%
D25*
%TO.C,C1*%
X127200000Y-71130000D03*
X126240000Y-71130000D03*
%TD*%
D26*
%TO.C,U4*%
X117400000Y-69825000D03*
X117900000Y-69825000D03*
X118400000Y-69825000D03*
X118900000Y-69825000D03*
X119400000Y-69825000D03*
X119900000Y-69825000D03*
X120400000Y-69825000D03*
X120900000Y-69825000D03*
X121400000Y-69825000D03*
X121399857Y-66975000D03*
X120900000Y-66975000D03*
X120400000Y-66975000D03*
X119900000Y-66975000D03*
X119400000Y-66975000D03*
X118900000Y-66975000D03*
X118400000Y-66975000D03*
X117900000Y-66975000D03*
X117400000Y-66975000D03*
D27*
X119400000Y-68400000D03*
%TD*%
D10*
%TO.C,C18*%
X123300000Y-71325000D03*
X123300000Y-72015000D03*
%TD*%
D15*
%TO.C,R24*%
X120950000Y-71400000D03*
X120950000Y-70710000D03*
%TD*%
%TO.C,R19*%
X116300000Y-68600000D03*
X116300000Y-67910000D03*
%TD*%
D28*
%TO.C,U3*%
X120562500Y-56737500D03*
D29*
X119650000Y-56600000D03*
X119150000Y-56600000D03*
X118650000Y-56600000D03*
X118150000Y-56600000D03*
D28*
X117237500Y-56737500D03*
X117237500Y-57237500D03*
X117237500Y-57737500D03*
X117237500Y-58237500D03*
X117237500Y-58737500D03*
X117237500Y-59237500D03*
X117237500Y-59737500D03*
X117237500Y-60237500D03*
X117237500Y-60737500D03*
X117237500Y-61237500D03*
D29*
X118150000Y-61375000D03*
X118650000Y-61375000D03*
X119150000Y-61375000D03*
X119650000Y-61375000D03*
D28*
X120562500Y-61237500D03*
X120562500Y-60737500D03*
X120562500Y-60237500D03*
X120562500Y-59737500D03*
X120562500Y-59237500D03*
X120562500Y-58737500D03*
X120562500Y-58237500D03*
X120562500Y-57737500D03*
X120562500Y-57237500D03*
%TD*%
D30*
%TO.C,L9*%
X122100000Y-63737500D03*
X122100000Y-65862500D03*
%TD*%
D15*
%TO.C,R12*%
X121510000Y-62695000D03*
X121510000Y-62005000D03*
%TD*%
D10*
%TO.C,C21*%
X116250000Y-57605000D03*
X116250000Y-58295000D03*
%TD*%
D23*
%TO.C,C9*%
X129720000Y-62975000D03*
X129030000Y-62975000D03*
%TD*%
D15*
%TO.C,C6*%
X129975000Y-62195000D03*
X129975000Y-61505000D03*
%TD*%
%TO.C,C15*%
X124300000Y-65385000D03*
X124300000Y-64695000D03*
%TD*%
D31*
%TO.C,L8*%
X117500000Y-63460000D03*
X120300000Y-63460000D03*
%TD*%
D15*
%TO.C,R4*%
X123510000Y-67685000D03*
X123510000Y-66995000D03*
%TD*%
%TO.C,C5*%
X125000000Y-63945000D03*
X125000000Y-63255000D03*
%TD*%
D24*
%TO.C,C25*%
X129950000Y-58780000D03*
X129950000Y-57820000D03*
%TD*%
%TO.C,C35*%
X128125000Y-62280000D03*
X128125000Y-61320000D03*
%TD*%
D13*
%TO.C,R3*%
X123785000Y-68370000D03*
X124475000Y-68370000D03*
%TD*%
D23*
%TO.C,R17*%
X131485000Y-58970000D03*
X130795000Y-58970000D03*
%TD*%
D15*
%TO.C,C60*%
X120200000Y-71345000D03*
X120200000Y-70655000D03*
%TD*%
D24*
%TO.C,C13*%
X126750000Y-63600000D03*
X126750000Y-62640000D03*
%TD*%
D13*
%TO.C,R10*%
X118355000Y-55600000D03*
X119045000Y-55600000D03*
%TD*%
D23*
%TO.C,R18*%
X116300000Y-67200000D03*
X115610000Y-67200000D03*
%TD*%
D15*
%TO.C,C11*%
X127575000Y-63845000D03*
X127575000Y-63155000D03*
%TD*%
D24*
%TO.C,C3*%
X129100000Y-62130000D03*
X129100000Y-61170000D03*
%TD*%
D13*
%TO.C,R9*%
X115565000Y-59000000D03*
X116255000Y-59000000D03*
%TD*%
D19*
%TO.C,C10*%
X129020000Y-63750000D03*
X129980000Y-63750000D03*
%TD*%
D20*
%TO.C,C64*%
X122600000Y-68890000D03*
X122600000Y-69850000D03*
%TD*%
D19*
%TO.C,C33*%
X114940000Y-65400000D03*
X115900000Y-65400000D03*
%TD*%
D32*
%TO.C,F1*%
X117950000Y-65600000D03*
X116950000Y-65600000D03*
%TD*%
D21*
%TO.C,D1*%
X115300000Y-60050000D03*
D22*
X114650000Y-64200000D03*
X115950000Y-64200000D03*
%TD*%
D24*
%TO.C,C59*%
X122600000Y-68030000D03*
X122600000Y-67070000D03*
%TD*%
M02*
