%TF.GenerationSoftware,KiCad,Pcbnew,8.0.3*%
%TF.CreationDate,2024-10-01T18:17:42-04:00*%
%TF.ProjectId,headstage-16stim,68656164-7374-4616-9765-2d3136737469,B*%
%TF.SameCoordinates,Original*%
%TF.FileFunction,Legend,Top*%
%TF.FilePolarity,Positive*%
%FSLAX46Y46*%
G04 Gerber Fmt 4.6, Leading zero omitted, Abs format (unit mm)*
G04 Created by KiCad (PCBNEW 8.0.3) date 2024-10-01 18:17:42*
%MOMM*%
%LPD*%
G01*
G04 APERTURE LIST*
%ADD10C,0.200000*%
%ADD11C,0.300000*%
%ADD12C,0.125000*%
%ADD13C,0.120000*%
%ADD14C,0.150000*%
%ADD15C,0.100000*%
G04 APERTURE END LIST*
D10*
X106612530Y-82791004D02*
X106612530Y-83719576D01*
X106612530Y-83719576D02*
X106550625Y-83905290D01*
X106550625Y-83905290D02*
X106426816Y-84029100D01*
X106426816Y-84029100D02*
X106241101Y-84091004D01*
X106241101Y-84091004D02*
X106117292Y-84091004D01*
X107231577Y-84091004D02*
X107231577Y-82791004D01*
X107231577Y-82791004D02*
X107726815Y-82791004D01*
X107726815Y-82791004D02*
X107850625Y-82852909D01*
X107850625Y-82852909D02*
X107912530Y-82914814D01*
X107912530Y-82914814D02*
X107974434Y-83038623D01*
X107974434Y-83038623D02*
X107974434Y-83224338D01*
X107974434Y-83224338D02*
X107912530Y-83348147D01*
X107912530Y-83348147D02*
X107850625Y-83410052D01*
X107850625Y-83410052D02*
X107726815Y-83471957D01*
X107726815Y-83471957D02*
X107231577Y-83471957D01*
X108531577Y-84091004D02*
X108531577Y-82791004D01*
X108531577Y-82791004D02*
X109274434Y-84091004D01*
X109274434Y-84091004D02*
X109274434Y-82791004D01*
X109955387Y-84029100D02*
X109955387Y-84091004D01*
X109955387Y-84091004D02*
X109893482Y-84214814D01*
X109893482Y-84214814D02*
X109831578Y-84276719D01*
X111750625Y-82791004D02*
X111998244Y-82791004D01*
X111998244Y-82791004D02*
X112122054Y-82852909D01*
X112122054Y-82852909D02*
X112245863Y-82976719D01*
X112245863Y-82976719D02*
X112307768Y-83224338D01*
X112307768Y-83224338D02*
X112307768Y-83657671D01*
X112307768Y-83657671D02*
X112245863Y-83905290D01*
X112245863Y-83905290D02*
X112122054Y-84029100D01*
X112122054Y-84029100D02*
X111998244Y-84091004D01*
X111998244Y-84091004D02*
X111750625Y-84091004D01*
X111750625Y-84091004D02*
X111626816Y-84029100D01*
X111626816Y-84029100D02*
X111503006Y-83905290D01*
X111503006Y-83905290D02*
X111441102Y-83657671D01*
X111441102Y-83657671D02*
X111441102Y-83224338D01*
X111441102Y-83224338D02*
X111503006Y-82976719D01*
X111503006Y-82976719D02*
X111626816Y-82852909D01*
X111626816Y-82852909D02*
X111750625Y-82791004D01*
X112864911Y-83224338D02*
X112864911Y-84524338D01*
X112864911Y-83286242D02*
X112988721Y-83224338D01*
X112988721Y-83224338D02*
X113236340Y-83224338D01*
X113236340Y-83224338D02*
X113360149Y-83286242D01*
X113360149Y-83286242D02*
X113422054Y-83348147D01*
X113422054Y-83348147D02*
X113483959Y-83471957D01*
X113483959Y-83471957D02*
X113483959Y-83843385D01*
X113483959Y-83843385D02*
X113422054Y-83967195D01*
X113422054Y-83967195D02*
X113360149Y-84029100D01*
X113360149Y-84029100D02*
X113236340Y-84091004D01*
X113236340Y-84091004D02*
X112988721Y-84091004D01*
X112988721Y-84091004D02*
X112864911Y-84029100D01*
X114536339Y-84029100D02*
X114412530Y-84091004D01*
X114412530Y-84091004D02*
X114164911Y-84091004D01*
X114164911Y-84091004D02*
X114041101Y-84029100D01*
X114041101Y-84029100D02*
X113979197Y-83905290D01*
X113979197Y-83905290D02*
X113979197Y-83410052D01*
X113979197Y-83410052D02*
X114041101Y-83286242D01*
X114041101Y-83286242D02*
X114164911Y-83224338D01*
X114164911Y-83224338D02*
X114412530Y-83224338D01*
X114412530Y-83224338D02*
X114536339Y-83286242D01*
X114536339Y-83286242D02*
X114598244Y-83410052D01*
X114598244Y-83410052D02*
X114598244Y-83533861D01*
X114598244Y-83533861D02*
X113979197Y-83657671D01*
X115155387Y-83224338D02*
X115155387Y-84091004D01*
X115155387Y-83348147D02*
X115217292Y-83286242D01*
X115217292Y-83286242D02*
X115341102Y-83224338D01*
X115341102Y-83224338D02*
X115526816Y-83224338D01*
X115526816Y-83224338D02*
X115650625Y-83286242D01*
X115650625Y-83286242D02*
X115712530Y-83410052D01*
X115712530Y-83410052D02*
X115712530Y-84091004D01*
X117322053Y-83410052D02*
X117755387Y-83410052D01*
X117941101Y-84091004D02*
X117322053Y-84091004D01*
X117322053Y-84091004D02*
X117322053Y-82791004D01*
X117322053Y-82791004D02*
X117941101Y-82791004D01*
X118498243Y-83224338D02*
X118498243Y-84524338D01*
X118498243Y-83286242D02*
X118622053Y-83224338D01*
X118622053Y-83224338D02*
X118869672Y-83224338D01*
X118869672Y-83224338D02*
X118993481Y-83286242D01*
X118993481Y-83286242D02*
X119055386Y-83348147D01*
X119055386Y-83348147D02*
X119117291Y-83471957D01*
X119117291Y-83471957D02*
X119117291Y-83843385D01*
X119117291Y-83843385D02*
X119055386Y-83967195D01*
X119055386Y-83967195D02*
X118993481Y-84029100D01*
X118993481Y-84029100D02*
X118869672Y-84091004D01*
X118869672Y-84091004D02*
X118622053Y-84091004D01*
X118622053Y-84091004D02*
X118498243Y-84029100D01*
X119674433Y-84091004D02*
X119674433Y-82791004D01*
X120231576Y-84091004D02*
X120231576Y-83410052D01*
X120231576Y-83410052D02*
X120169671Y-83286242D01*
X120169671Y-83286242D02*
X120045862Y-83224338D01*
X120045862Y-83224338D02*
X119860148Y-83224338D01*
X119860148Y-83224338D02*
X119736338Y-83286242D01*
X119736338Y-83286242D02*
X119674433Y-83348147D01*
X120726814Y-83224338D02*
X121036338Y-84091004D01*
X121345861Y-83224338D02*
X121036338Y-84091004D01*
X121036338Y-84091004D02*
X120912528Y-84400528D01*
X120912528Y-84400528D02*
X120850623Y-84462433D01*
X120850623Y-84462433D02*
X120726814Y-84524338D01*
X121779195Y-84029100D02*
X121903004Y-84091004D01*
X121903004Y-84091004D02*
X122150623Y-84091004D01*
X122150623Y-84091004D02*
X122274433Y-84029100D01*
X122274433Y-84029100D02*
X122336337Y-83905290D01*
X122336337Y-83905290D02*
X122336337Y-83843385D01*
X122336337Y-83843385D02*
X122274433Y-83719576D01*
X122274433Y-83719576D02*
X122150623Y-83657671D01*
X122150623Y-83657671D02*
X121964909Y-83657671D01*
X121964909Y-83657671D02*
X121841099Y-83595766D01*
X121841099Y-83595766D02*
X121779195Y-83471957D01*
X121779195Y-83471957D02*
X121779195Y-83410052D01*
X121779195Y-83410052D02*
X121841099Y-83286242D01*
X121841099Y-83286242D02*
X121964909Y-83224338D01*
X121964909Y-83224338D02*
X122150623Y-83224338D01*
X122150623Y-83224338D02*
X122274433Y-83286242D01*
X123883956Y-84091004D02*
X123883956Y-82791004D01*
X124503004Y-83224338D02*
X124503004Y-84091004D01*
X124503004Y-83348147D02*
X124564909Y-83286242D01*
X124564909Y-83286242D02*
X124688719Y-83224338D01*
X124688719Y-83224338D02*
X124874433Y-83224338D01*
X124874433Y-83224338D02*
X124998242Y-83286242D01*
X124998242Y-83286242D02*
X125060147Y-83410052D01*
X125060147Y-83410052D02*
X125060147Y-84091004D01*
X126236337Y-84029100D02*
X126112528Y-84091004D01*
X126112528Y-84091004D02*
X125864909Y-84091004D01*
X125864909Y-84091004D02*
X125741099Y-84029100D01*
X125741099Y-84029100D02*
X125679194Y-83967195D01*
X125679194Y-83967195D02*
X125617290Y-83843385D01*
X125617290Y-83843385D02*
X125617290Y-83471957D01*
X125617290Y-83471957D02*
X125679194Y-83348147D01*
X125679194Y-83348147D02*
X125741099Y-83286242D01*
X125741099Y-83286242D02*
X125864909Y-83224338D01*
X125864909Y-83224338D02*
X126112528Y-83224338D01*
X126112528Y-83224338D02*
X126236337Y-83286242D01*
X126793480Y-83967195D02*
X126855385Y-84029100D01*
X126855385Y-84029100D02*
X126793480Y-84091004D01*
X126793480Y-84091004D02*
X126731576Y-84029100D01*
X126731576Y-84029100D02*
X126793480Y-83967195D01*
X126793480Y-83967195D02*
X126793480Y-84091004D01*
X128464909Y-82791004D02*
X128341100Y-83038623D01*
X128960148Y-82914814D02*
X129022052Y-82852909D01*
X129022052Y-82852909D02*
X129145862Y-82791004D01*
X129145862Y-82791004D02*
X129455386Y-82791004D01*
X129455386Y-82791004D02*
X129579195Y-82852909D01*
X129579195Y-82852909D02*
X129641100Y-82914814D01*
X129641100Y-82914814D02*
X129703005Y-83038623D01*
X129703005Y-83038623D02*
X129703005Y-83162433D01*
X129703005Y-83162433D02*
X129641100Y-83348147D01*
X129641100Y-83348147D02*
X128898243Y-84091004D01*
X128898243Y-84091004D02*
X129703005Y-84091004D01*
X130817290Y-83224338D02*
X130817290Y-84091004D01*
X130507766Y-82729100D02*
X130198243Y-83657671D01*
X130198243Y-83657671D02*
X131003004Y-83657671D01*
D11*
X106525939Y-76902401D02*
X106849748Y-76902401D01*
X106849748Y-76902401D02*
X107011653Y-76983353D01*
X107011653Y-76983353D02*
X107173558Y-77145258D01*
X107173558Y-77145258D02*
X107254510Y-77469068D01*
X107254510Y-77469068D02*
X107254510Y-78035734D01*
X107254510Y-78035734D02*
X107173558Y-78359544D01*
X107173558Y-78359544D02*
X107011653Y-78521449D01*
X107011653Y-78521449D02*
X106849748Y-78602401D01*
X106849748Y-78602401D02*
X106525939Y-78602401D01*
X106525939Y-78602401D02*
X106364034Y-78521449D01*
X106364034Y-78521449D02*
X106202129Y-78359544D01*
X106202129Y-78359544D02*
X106121177Y-78035734D01*
X106121177Y-78035734D02*
X106121177Y-77469068D01*
X106121177Y-77469068D02*
X106202129Y-77145258D01*
X106202129Y-77145258D02*
X106364034Y-76983353D01*
X106364034Y-76983353D02*
X106525939Y-76902401D01*
X107983081Y-78602401D02*
X107983081Y-76902401D01*
X107983081Y-76902401D02*
X108954510Y-78602401D01*
X108954510Y-78602401D02*
X108954510Y-76902401D01*
X109764033Y-78602401D02*
X109764033Y-76902401D01*
X110411653Y-76902401D02*
X111544986Y-78602401D01*
X111544986Y-76902401D02*
X110411653Y-78602401D01*
X113487843Y-78602401D02*
X113487843Y-76902401D01*
X113487843Y-77711925D02*
X114459272Y-77711925D01*
X114459272Y-78602401D02*
X114459272Y-76902401D01*
X115916414Y-78521449D02*
X115754510Y-78602401D01*
X115754510Y-78602401D02*
X115430700Y-78602401D01*
X115430700Y-78602401D02*
X115268795Y-78521449D01*
X115268795Y-78521449D02*
X115187843Y-78359544D01*
X115187843Y-78359544D02*
X115187843Y-77711925D01*
X115187843Y-77711925D02*
X115268795Y-77550020D01*
X115268795Y-77550020D02*
X115430700Y-77469068D01*
X115430700Y-77469068D02*
X115754510Y-77469068D01*
X115754510Y-77469068D02*
X115916414Y-77550020D01*
X115916414Y-77550020D02*
X115997367Y-77711925D01*
X115997367Y-77711925D02*
X115997367Y-77873829D01*
X115997367Y-77873829D02*
X115187843Y-78035734D01*
X117454510Y-78602401D02*
X117454510Y-77711925D01*
X117454510Y-77711925D02*
X117373557Y-77550020D01*
X117373557Y-77550020D02*
X117211653Y-77469068D01*
X117211653Y-77469068D02*
X116887843Y-77469068D01*
X116887843Y-77469068D02*
X116725938Y-77550020D01*
X117454510Y-78521449D02*
X117292605Y-78602401D01*
X117292605Y-78602401D02*
X116887843Y-78602401D01*
X116887843Y-78602401D02*
X116725938Y-78521449D01*
X116725938Y-78521449D02*
X116644986Y-78359544D01*
X116644986Y-78359544D02*
X116644986Y-78197639D01*
X116644986Y-78197639D02*
X116725938Y-78035734D01*
X116725938Y-78035734D02*
X116887843Y-77954782D01*
X116887843Y-77954782D02*
X117292605Y-77954782D01*
X117292605Y-77954782D02*
X117454510Y-77873829D01*
X118992605Y-78602401D02*
X118992605Y-76902401D01*
X118992605Y-78521449D02*
X118830700Y-78602401D01*
X118830700Y-78602401D02*
X118506891Y-78602401D01*
X118506891Y-78602401D02*
X118344986Y-78521449D01*
X118344986Y-78521449D02*
X118264033Y-78440496D01*
X118264033Y-78440496D02*
X118183081Y-78278591D01*
X118183081Y-78278591D02*
X118183081Y-77792877D01*
X118183081Y-77792877D02*
X118264033Y-77630972D01*
X118264033Y-77630972D02*
X118344986Y-77550020D01*
X118344986Y-77550020D02*
X118506891Y-77469068D01*
X118506891Y-77469068D02*
X118830700Y-77469068D01*
X118830700Y-77469068D02*
X118992605Y-77550020D01*
X119721176Y-78521449D02*
X119883081Y-78602401D01*
X119883081Y-78602401D02*
X120206890Y-78602401D01*
X120206890Y-78602401D02*
X120368795Y-78521449D01*
X120368795Y-78521449D02*
X120449747Y-78359544D01*
X120449747Y-78359544D02*
X120449747Y-78278591D01*
X120449747Y-78278591D02*
X120368795Y-78116687D01*
X120368795Y-78116687D02*
X120206890Y-78035734D01*
X120206890Y-78035734D02*
X119964033Y-78035734D01*
X119964033Y-78035734D02*
X119802128Y-77954782D01*
X119802128Y-77954782D02*
X119721176Y-77792877D01*
X119721176Y-77792877D02*
X119721176Y-77711925D01*
X119721176Y-77711925D02*
X119802128Y-77550020D01*
X119802128Y-77550020D02*
X119964033Y-77469068D01*
X119964033Y-77469068D02*
X120206890Y-77469068D01*
X120206890Y-77469068D02*
X120368795Y-77550020D01*
X120935461Y-77469068D02*
X121583080Y-77469068D01*
X121178318Y-76902401D02*
X121178318Y-78359544D01*
X121178318Y-78359544D02*
X121259271Y-78521449D01*
X121259271Y-78521449D02*
X121421176Y-78602401D01*
X121421176Y-78602401D02*
X121583080Y-78602401D01*
X122878319Y-78602401D02*
X122878319Y-77711925D01*
X122878319Y-77711925D02*
X122797366Y-77550020D01*
X122797366Y-77550020D02*
X122635462Y-77469068D01*
X122635462Y-77469068D02*
X122311652Y-77469068D01*
X122311652Y-77469068D02*
X122149747Y-77550020D01*
X122878319Y-78521449D02*
X122716414Y-78602401D01*
X122716414Y-78602401D02*
X122311652Y-78602401D01*
X122311652Y-78602401D02*
X122149747Y-78521449D01*
X122149747Y-78521449D02*
X122068795Y-78359544D01*
X122068795Y-78359544D02*
X122068795Y-78197639D01*
X122068795Y-78197639D02*
X122149747Y-78035734D01*
X122149747Y-78035734D02*
X122311652Y-77954782D01*
X122311652Y-77954782D02*
X122716414Y-77954782D01*
X122716414Y-77954782D02*
X122878319Y-77873829D01*
X124416414Y-77469068D02*
X124416414Y-78845258D01*
X124416414Y-78845258D02*
X124335461Y-79007163D01*
X124335461Y-79007163D02*
X124254509Y-79088115D01*
X124254509Y-79088115D02*
X124092604Y-79169068D01*
X124092604Y-79169068D02*
X123849747Y-79169068D01*
X123849747Y-79169068D02*
X123687842Y-79088115D01*
X124416414Y-78521449D02*
X124254509Y-78602401D01*
X124254509Y-78602401D02*
X123930700Y-78602401D01*
X123930700Y-78602401D02*
X123768795Y-78521449D01*
X123768795Y-78521449D02*
X123687842Y-78440496D01*
X123687842Y-78440496D02*
X123606890Y-78278591D01*
X123606890Y-78278591D02*
X123606890Y-77792877D01*
X123606890Y-77792877D02*
X123687842Y-77630972D01*
X123687842Y-77630972D02*
X123768795Y-77550020D01*
X123768795Y-77550020D02*
X123930700Y-77469068D01*
X123930700Y-77469068D02*
X124254509Y-77469068D01*
X124254509Y-77469068D02*
X124416414Y-77550020D01*
X125873556Y-78521449D02*
X125711652Y-78602401D01*
X125711652Y-78602401D02*
X125387842Y-78602401D01*
X125387842Y-78602401D02*
X125225937Y-78521449D01*
X125225937Y-78521449D02*
X125144985Y-78359544D01*
X125144985Y-78359544D02*
X125144985Y-77711925D01*
X125144985Y-77711925D02*
X125225937Y-77550020D01*
X125225937Y-77550020D02*
X125387842Y-77469068D01*
X125387842Y-77469068D02*
X125711652Y-77469068D01*
X125711652Y-77469068D02*
X125873556Y-77550020D01*
X125873556Y-77550020D02*
X125954509Y-77711925D01*
X125954509Y-77711925D02*
X125954509Y-77873829D01*
X125954509Y-77873829D02*
X125144985Y-78035734D01*
X126683080Y-77954782D02*
X127978319Y-77954782D01*
X129678319Y-78602401D02*
X128706890Y-78602401D01*
X129192604Y-78602401D02*
X129192604Y-76902401D01*
X129192604Y-76902401D02*
X129030700Y-77145258D01*
X129030700Y-77145258D02*
X128868795Y-77307163D01*
X128868795Y-77307163D02*
X128706890Y-77388115D01*
X131135462Y-76902401D02*
X130811652Y-76902401D01*
X130811652Y-76902401D02*
X130649748Y-76983353D01*
X130649748Y-76983353D02*
X130568795Y-77064306D01*
X130568795Y-77064306D02*
X130406890Y-77307163D01*
X130406890Y-77307163D02*
X130325938Y-77630972D01*
X130325938Y-77630972D02*
X130325938Y-78278591D01*
X130325938Y-78278591D02*
X130406890Y-78440496D01*
X130406890Y-78440496D02*
X130487843Y-78521449D01*
X130487843Y-78521449D02*
X130649748Y-78602401D01*
X130649748Y-78602401D02*
X130973557Y-78602401D01*
X130973557Y-78602401D02*
X131135462Y-78521449D01*
X131135462Y-78521449D02*
X131216414Y-78440496D01*
X131216414Y-78440496D02*
X131297367Y-78278591D01*
X131297367Y-78278591D02*
X131297367Y-77873829D01*
X131297367Y-77873829D02*
X131216414Y-77711925D01*
X131216414Y-77711925D02*
X131135462Y-77630972D01*
X131135462Y-77630972D02*
X130973557Y-77550020D01*
X130973557Y-77550020D02*
X130649748Y-77550020D01*
X130649748Y-77550020D02*
X130487843Y-77630972D01*
X130487843Y-77630972D02*
X130406890Y-77711925D01*
X130406890Y-77711925D02*
X130325938Y-77873829D01*
X131944986Y-78521449D02*
X132187843Y-78602401D01*
X132187843Y-78602401D02*
X132592605Y-78602401D01*
X132592605Y-78602401D02*
X132754510Y-78521449D01*
X132754510Y-78521449D02*
X132835462Y-78440496D01*
X132835462Y-78440496D02*
X132916415Y-78278591D01*
X132916415Y-78278591D02*
X132916415Y-78116687D01*
X132916415Y-78116687D02*
X132835462Y-77954782D01*
X132835462Y-77954782D02*
X132754510Y-77873829D01*
X132754510Y-77873829D02*
X132592605Y-77792877D01*
X132592605Y-77792877D02*
X132268796Y-77711925D01*
X132268796Y-77711925D02*
X132106891Y-77630972D01*
X132106891Y-77630972D02*
X132025938Y-77550020D01*
X132025938Y-77550020D02*
X131944986Y-77388115D01*
X131944986Y-77388115D02*
X131944986Y-77226210D01*
X131944986Y-77226210D02*
X132025938Y-77064306D01*
X132025938Y-77064306D02*
X132106891Y-76983353D01*
X132106891Y-76983353D02*
X132268796Y-76902401D01*
X132268796Y-76902401D02*
X132673557Y-76902401D01*
X132673557Y-76902401D02*
X132916415Y-76983353D01*
X133402129Y-77469068D02*
X134049748Y-77469068D01*
X133644986Y-76902401D02*
X133644986Y-78359544D01*
X133644986Y-78359544D02*
X133725939Y-78521449D01*
X133725939Y-78521449D02*
X133887844Y-78602401D01*
X133887844Y-78602401D02*
X134049748Y-78602401D01*
X134616415Y-78602401D02*
X134616415Y-77469068D01*
X134616415Y-76902401D02*
X134535463Y-76983353D01*
X134535463Y-76983353D02*
X134616415Y-77064306D01*
X134616415Y-77064306D02*
X134697368Y-76983353D01*
X134697368Y-76983353D02*
X134616415Y-76902401D01*
X134616415Y-76902401D02*
X134616415Y-77064306D01*
X135425939Y-78602401D02*
X135425939Y-77469068D01*
X135425939Y-77630972D02*
X135506892Y-77550020D01*
X135506892Y-77550020D02*
X135668797Y-77469068D01*
X135668797Y-77469068D02*
X135911654Y-77469068D01*
X135911654Y-77469068D02*
X136073558Y-77550020D01*
X136073558Y-77550020D02*
X136154511Y-77711925D01*
X136154511Y-77711925D02*
X136154511Y-78602401D01*
X136154511Y-77711925D02*
X136235463Y-77550020D01*
X136235463Y-77550020D02*
X136397368Y-77469068D01*
X136397368Y-77469068D02*
X136640225Y-77469068D01*
X136640225Y-77469068D02*
X136802130Y-77550020D01*
X136802130Y-77550020D02*
X136883082Y-77711925D01*
X136883082Y-77711925D02*
X136883082Y-78602401D01*
X106768796Y-80448830D02*
X107011653Y-80529782D01*
X107011653Y-80529782D02*
X107092606Y-80610734D01*
X107092606Y-80610734D02*
X107173558Y-80772639D01*
X107173558Y-80772639D02*
X107173558Y-81015496D01*
X107173558Y-81015496D02*
X107092606Y-81177401D01*
X107092606Y-81177401D02*
X107011653Y-81258354D01*
X107011653Y-81258354D02*
X106849748Y-81339306D01*
X106849748Y-81339306D02*
X106202129Y-81339306D01*
X106202129Y-81339306D02*
X106202129Y-79639306D01*
X106202129Y-79639306D02*
X106768796Y-79639306D01*
X106768796Y-79639306D02*
X106930701Y-79720258D01*
X106930701Y-79720258D02*
X107011653Y-79801211D01*
X107011653Y-79801211D02*
X107092606Y-79963115D01*
X107092606Y-79963115D02*
X107092606Y-80125020D01*
X107092606Y-80125020D02*
X107011653Y-80286925D01*
X107011653Y-80286925D02*
X106930701Y-80367877D01*
X106930701Y-80367877D02*
X106768796Y-80448830D01*
X106768796Y-80448830D02*
X106202129Y-80448830D01*
X108144987Y-81339306D02*
X107983082Y-81258354D01*
X107983082Y-81258354D02*
X107902129Y-81177401D01*
X107902129Y-81177401D02*
X107821177Y-81015496D01*
X107821177Y-81015496D02*
X107821177Y-80529782D01*
X107821177Y-80529782D02*
X107902129Y-80367877D01*
X107902129Y-80367877D02*
X107983082Y-80286925D01*
X107983082Y-80286925D02*
X108144987Y-80205973D01*
X108144987Y-80205973D02*
X108387844Y-80205973D01*
X108387844Y-80205973D02*
X108549748Y-80286925D01*
X108549748Y-80286925D02*
X108630701Y-80367877D01*
X108630701Y-80367877D02*
X108711653Y-80529782D01*
X108711653Y-80529782D02*
X108711653Y-81015496D01*
X108711653Y-81015496D02*
X108630701Y-81177401D01*
X108630701Y-81177401D02*
X108549748Y-81258354D01*
X108549748Y-81258354D02*
X108387844Y-81339306D01*
X108387844Y-81339306D02*
X108144987Y-81339306D01*
X110168796Y-81339306D02*
X110168796Y-80448830D01*
X110168796Y-80448830D02*
X110087843Y-80286925D01*
X110087843Y-80286925D02*
X109925939Y-80205973D01*
X109925939Y-80205973D02*
X109602129Y-80205973D01*
X109602129Y-80205973D02*
X109440224Y-80286925D01*
X110168796Y-81258354D02*
X110006891Y-81339306D01*
X110006891Y-81339306D02*
X109602129Y-81339306D01*
X109602129Y-81339306D02*
X109440224Y-81258354D01*
X109440224Y-81258354D02*
X109359272Y-81096449D01*
X109359272Y-81096449D02*
X109359272Y-80934544D01*
X109359272Y-80934544D02*
X109440224Y-80772639D01*
X109440224Y-80772639D02*
X109602129Y-80691687D01*
X109602129Y-80691687D02*
X110006891Y-80691687D01*
X110006891Y-80691687D02*
X110168796Y-80610734D01*
X110978319Y-81339306D02*
X110978319Y-80205973D01*
X110978319Y-80529782D02*
X111059272Y-80367877D01*
X111059272Y-80367877D02*
X111140224Y-80286925D01*
X111140224Y-80286925D02*
X111302129Y-80205973D01*
X111302129Y-80205973D02*
X111464034Y-80205973D01*
X112759272Y-81339306D02*
X112759272Y-79639306D01*
X112759272Y-81258354D02*
X112597367Y-81339306D01*
X112597367Y-81339306D02*
X112273558Y-81339306D01*
X112273558Y-81339306D02*
X112111653Y-81258354D01*
X112111653Y-81258354D02*
X112030700Y-81177401D01*
X112030700Y-81177401D02*
X111949748Y-81015496D01*
X111949748Y-81015496D02*
X111949748Y-80529782D01*
X111949748Y-80529782D02*
X112030700Y-80367877D01*
X112030700Y-80367877D02*
X112111653Y-80286925D01*
X112111653Y-80286925D02*
X112273558Y-80205973D01*
X112273558Y-80205973D02*
X112597367Y-80205973D01*
X112597367Y-80205973D02*
X112759272Y-80286925D01*
X115835462Y-81339306D02*
X115268795Y-80529782D01*
X114864033Y-81339306D02*
X114864033Y-79639306D01*
X114864033Y-79639306D02*
X115511652Y-79639306D01*
X115511652Y-79639306D02*
X115673557Y-79720258D01*
X115673557Y-79720258D02*
X115754510Y-79801211D01*
X115754510Y-79801211D02*
X115835462Y-79963115D01*
X115835462Y-79963115D02*
X115835462Y-80205973D01*
X115835462Y-80205973D02*
X115754510Y-80367877D01*
X115754510Y-80367877D02*
X115673557Y-80448830D01*
X115673557Y-80448830D02*
X115511652Y-80529782D01*
X115511652Y-80529782D02*
X114864033Y-80529782D01*
X117211652Y-81258354D02*
X117049748Y-81339306D01*
X117049748Y-81339306D02*
X116725938Y-81339306D01*
X116725938Y-81339306D02*
X116564033Y-81258354D01*
X116564033Y-81258354D02*
X116483081Y-81096449D01*
X116483081Y-81096449D02*
X116483081Y-80448830D01*
X116483081Y-80448830D02*
X116564033Y-80286925D01*
X116564033Y-80286925D02*
X116725938Y-80205973D01*
X116725938Y-80205973D02*
X117049748Y-80205973D01*
X117049748Y-80205973D02*
X117211652Y-80286925D01*
X117211652Y-80286925D02*
X117292605Y-80448830D01*
X117292605Y-80448830D02*
X117292605Y-80610734D01*
X117292605Y-80610734D02*
X116483081Y-80772639D01*
X117859272Y-80205973D02*
X118264034Y-81339306D01*
X118264034Y-81339306D02*
X118668795Y-80205973D01*
X119316414Y-81177401D02*
X119397367Y-81258354D01*
X119397367Y-81258354D02*
X119316414Y-81339306D01*
X119316414Y-81339306D02*
X119235462Y-81258354D01*
X119235462Y-81258354D02*
X119316414Y-81177401D01*
X119316414Y-81177401D02*
X119316414Y-81339306D01*
X121987843Y-80448830D02*
X122230700Y-80529782D01*
X122230700Y-80529782D02*
X122311653Y-80610734D01*
X122311653Y-80610734D02*
X122392605Y-80772639D01*
X122392605Y-80772639D02*
X122392605Y-81015496D01*
X122392605Y-81015496D02*
X122311653Y-81177401D01*
X122311653Y-81177401D02*
X122230700Y-81258354D01*
X122230700Y-81258354D02*
X122068795Y-81339306D01*
X122068795Y-81339306D02*
X121421176Y-81339306D01*
X121421176Y-81339306D02*
X121421176Y-79639306D01*
X121421176Y-79639306D02*
X121987843Y-79639306D01*
X121987843Y-79639306D02*
X122149748Y-79720258D01*
X122149748Y-79720258D02*
X122230700Y-79801211D01*
X122230700Y-79801211D02*
X122311653Y-79963115D01*
X122311653Y-79963115D02*
X122311653Y-80125020D01*
X122311653Y-80125020D02*
X122230700Y-80286925D01*
X122230700Y-80286925D02*
X122149748Y-80367877D01*
X122149748Y-80367877D02*
X121987843Y-80448830D01*
X121987843Y-80448830D02*
X121421176Y-80448830D01*
D12*
X122401283Y-54424809D02*
X122401283Y-53924809D01*
X122734616Y-53924809D02*
X122829854Y-53924809D01*
X122829854Y-53924809D02*
X122877473Y-53948619D01*
X122877473Y-53948619D02*
X122925092Y-53996238D01*
X122925092Y-53996238D02*
X122948902Y-54091476D01*
X122948902Y-54091476D02*
X122948902Y-54258142D01*
X122948902Y-54258142D02*
X122925092Y-54353380D01*
X122925092Y-54353380D02*
X122877473Y-54401000D01*
X122877473Y-54401000D02*
X122829854Y-54424809D01*
X122829854Y-54424809D02*
X122734616Y-54424809D01*
X122734616Y-54424809D02*
X122686997Y-54401000D01*
X122686997Y-54401000D02*
X122639378Y-54353380D01*
X122639378Y-54353380D02*
X122615569Y-54258142D01*
X122615569Y-54258142D02*
X122615569Y-54091476D01*
X122615569Y-54091476D02*
X122639378Y-53996238D01*
X122639378Y-53996238D02*
X122686997Y-53948619D01*
X122686997Y-53948619D02*
X122734616Y-53924809D01*
X123120331Y-54118142D02*
X123139379Y-54099095D01*
X123139379Y-54099095D02*
X123177474Y-54080047D01*
X123177474Y-54080047D02*
X123272712Y-54080047D01*
X123272712Y-54080047D02*
X123310807Y-54099095D01*
X123310807Y-54099095D02*
X123329855Y-54118142D01*
X123329855Y-54118142D02*
X123348902Y-54156238D01*
X123348902Y-54156238D02*
X123348902Y-54194333D01*
X123348902Y-54194333D02*
X123329855Y-54251476D01*
X123329855Y-54251476D02*
X123101283Y-54480047D01*
X123101283Y-54480047D02*
X123348902Y-54480047D01*
D13*
X129890000Y-59230000D02*
X129890000Y-60230000D01*
X124740000Y-59690000D02*
G75*
G02*
X123940000Y-59690000I-400000J0D01*
G01*
X123940000Y-59690000D02*
G75*
G02*
X124740000Y-59690000I400000J0D01*
G01*
X121310000Y-60230000D02*
X121310000Y-59230000D01*
X121310000Y-60230000D02*
X129890000Y-60230000D01*
D14*
X125270000Y-60180000D02*
X124870000Y-59950000D01*
D13*
X122200000Y-59700000D02*
G75*
G02*
X121400000Y-59700000I-400000J0D01*
G01*
X121400000Y-59700000D02*
G75*
G02*
X122200000Y-59700000I400000J0D01*
G01*
X125510000Y-59230000D02*
X129890000Y-59230000D01*
D10*
X128226814Y-46952219D02*
X127655386Y-46952219D01*
X127941100Y-46952219D02*
X127941100Y-45952219D01*
X127941100Y-45952219D02*
X127845862Y-46095076D01*
X127845862Y-46095076D02*
X127750624Y-46190314D01*
X127750624Y-46190314D02*
X127655386Y-46237933D01*
X128655386Y-46856980D02*
X128703005Y-46904600D01*
X128703005Y-46904600D02*
X128655386Y-46952219D01*
X128655386Y-46952219D02*
X128607767Y-46904600D01*
X128607767Y-46904600D02*
X128655386Y-46856980D01*
X128655386Y-46856980D02*
X128655386Y-46952219D01*
X129274433Y-46380790D02*
X129179195Y-46333171D01*
X129179195Y-46333171D02*
X129131576Y-46285552D01*
X129131576Y-46285552D02*
X129083957Y-46190314D01*
X129083957Y-46190314D02*
X129083957Y-46142695D01*
X129083957Y-46142695D02*
X129131576Y-46047457D01*
X129131576Y-46047457D02*
X129179195Y-45999838D01*
X129179195Y-45999838D02*
X129274433Y-45952219D01*
X129274433Y-45952219D02*
X129464909Y-45952219D01*
X129464909Y-45952219D02*
X129560147Y-45999838D01*
X129560147Y-45999838D02*
X129607766Y-46047457D01*
X129607766Y-46047457D02*
X129655385Y-46142695D01*
X129655385Y-46142695D02*
X129655385Y-46190314D01*
X129655385Y-46190314D02*
X129607766Y-46285552D01*
X129607766Y-46285552D02*
X129560147Y-46333171D01*
X129560147Y-46333171D02*
X129464909Y-46380790D01*
X129464909Y-46380790D02*
X129274433Y-46380790D01*
X129274433Y-46380790D02*
X129179195Y-46428409D01*
X129179195Y-46428409D02*
X129131576Y-46476028D01*
X129131576Y-46476028D02*
X129083957Y-46571266D01*
X129083957Y-46571266D02*
X129083957Y-46761742D01*
X129083957Y-46761742D02*
X129131576Y-46856980D01*
X129131576Y-46856980D02*
X129179195Y-46904600D01*
X129179195Y-46904600D02*
X129274433Y-46952219D01*
X129274433Y-46952219D02*
X129464909Y-46952219D01*
X129464909Y-46952219D02*
X129560147Y-46904600D01*
X129560147Y-46904600D02*
X129607766Y-46856980D01*
X129607766Y-46856980D02*
X129655385Y-46761742D01*
X129655385Y-46761742D02*
X129655385Y-46571266D01*
X129655385Y-46571266D02*
X129607766Y-46476028D01*
X129607766Y-46476028D02*
X129560147Y-46428409D01*
X129560147Y-46428409D02*
X129464909Y-46380790D01*
X129941100Y-45952219D02*
X130274433Y-46952219D01*
X130274433Y-46952219D02*
X130607766Y-45952219D01*
X116241101Y-46856980D02*
X116193482Y-46904600D01*
X116193482Y-46904600D02*
X116050625Y-46952219D01*
X116050625Y-46952219D02*
X115955387Y-46952219D01*
X115955387Y-46952219D02*
X115812530Y-46904600D01*
X115812530Y-46904600D02*
X115717292Y-46809361D01*
X115717292Y-46809361D02*
X115669673Y-46714123D01*
X115669673Y-46714123D02*
X115622054Y-46523647D01*
X115622054Y-46523647D02*
X115622054Y-46380790D01*
X115622054Y-46380790D02*
X115669673Y-46190314D01*
X115669673Y-46190314D02*
X115717292Y-46095076D01*
X115717292Y-46095076D02*
X115812530Y-45999838D01*
X115812530Y-45999838D02*
X115955387Y-45952219D01*
X115955387Y-45952219D02*
X116050625Y-45952219D01*
X116050625Y-45952219D02*
X116193482Y-45999838D01*
X116193482Y-45999838D02*
X116241101Y-46047457D01*
X117241101Y-46952219D02*
X116907768Y-46476028D01*
X116669673Y-46952219D02*
X116669673Y-45952219D01*
X116669673Y-45952219D02*
X117050625Y-45952219D01*
X117050625Y-45952219D02*
X117145863Y-45999838D01*
X117145863Y-45999838D02*
X117193482Y-46047457D01*
X117193482Y-46047457D02*
X117241101Y-46142695D01*
X117241101Y-46142695D02*
X117241101Y-46285552D01*
X117241101Y-46285552D02*
X117193482Y-46380790D01*
X117193482Y-46380790D02*
X117145863Y-46428409D01*
X117145863Y-46428409D02*
X117050625Y-46476028D01*
X117050625Y-46476028D02*
X116669673Y-46476028D01*
X117622054Y-46904600D02*
X117764911Y-46952219D01*
X117764911Y-46952219D02*
X118003006Y-46952219D01*
X118003006Y-46952219D02*
X118098244Y-46904600D01*
X118098244Y-46904600D02*
X118145863Y-46856980D01*
X118145863Y-46856980D02*
X118193482Y-46761742D01*
X118193482Y-46761742D02*
X118193482Y-46666504D01*
X118193482Y-46666504D02*
X118145863Y-46571266D01*
X118145863Y-46571266D02*
X118098244Y-46523647D01*
X118098244Y-46523647D02*
X118003006Y-46476028D01*
X118003006Y-46476028D02*
X117812530Y-46428409D01*
X117812530Y-46428409D02*
X117717292Y-46380790D01*
X117717292Y-46380790D02*
X117669673Y-46333171D01*
X117669673Y-46333171D02*
X117622054Y-46237933D01*
X117622054Y-46237933D02*
X117622054Y-46142695D01*
X117622054Y-46142695D02*
X117669673Y-46047457D01*
X117669673Y-46047457D02*
X117717292Y-45999838D01*
X117717292Y-45999838D02*
X117812530Y-45952219D01*
X117812530Y-45952219D02*
X118050625Y-45952219D01*
X118050625Y-45952219D02*
X118193482Y-45999838D01*
X118479197Y-45952219D02*
X119050625Y-45952219D01*
X118764911Y-46952219D02*
X118764911Y-45952219D01*
X119603006Y-46643647D02*
X119717292Y-46681742D01*
X119717292Y-46681742D02*
X119755387Y-46719838D01*
X119755387Y-46719838D02*
X119793483Y-46796028D01*
X119793483Y-46796028D02*
X119793483Y-46910314D01*
X119793483Y-46910314D02*
X119755387Y-46986504D01*
X119755387Y-46986504D02*
X119717292Y-47024600D01*
X119717292Y-47024600D02*
X119641102Y-47062695D01*
X119641102Y-47062695D02*
X119336340Y-47062695D01*
X119336340Y-47062695D02*
X119336340Y-46262695D01*
X119336340Y-46262695D02*
X119603006Y-46262695D01*
X119603006Y-46262695D02*
X119679197Y-46300790D01*
X119679197Y-46300790D02*
X119717292Y-46338885D01*
X119717292Y-46338885D02*
X119755387Y-46415076D01*
X119755387Y-46415076D02*
X119755387Y-46491266D01*
X119755387Y-46491266D02*
X119717292Y-46567457D01*
X119717292Y-46567457D02*
X119679197Y-46605552D01*
X119679197Y-46605552D02*
X119603006Y-46643647D01*
X119603006Y-46643647D02*
X119336340Y-46643647D01*
X122893481Y-46996980D02*
X122845862Y-47044600D01*
X122845862Y-47044600D02*
X122703005Y-47092219D01*
X122703005Y-47092219D02*
X122607767Y-47092219D01*
X122607767Y-47092219D02*
X122464910Y-47044600D01*
X122464910Y-47044600D02*
X122369672Y-46949361D01*
X122369672Y-46949361D02*
X122322053Y-46854123D01*
X122322053Y-46854123D02*
X122274434Y-46663647D01*
X122274434Y-46663647D02*
X122274434Y-46520790D01*
X122274434Y-46520790D02*
X122322053Y-46330314D01*
X122322053Y-46330314D02*
X122369672Y-46235076D01*
X122369672Y-46235076D02*
X122464910Y-46139838D01*
X122464910Y-46139838D02*
X122607767Y-46092219D01*
X122607767Y-46092219D02*
X122703005Y-46092219D01*
X122703005Y-46092219D02*
X122845862Y-46139838D01*
X122845862Y-46139838D02*
X122893481Y-46187457D01*
X123274434Y-47044600D02*
X123417291Y-47092219D01*
X123417291Y-47092219D02*
X123655386Y-47092219D01*
X123655386Y-47092219D02*
X123750624Y-47044600D01*
X123750624Y-47044600D02*
X123798243Y-46996980D01*
X123798243Y-46996980D02*
X123845862Y-46901742D01*
X123845862Y-46901742D02*
X123845862Y-46806504D01*
X123845862Y-46806504D02*
X123798243Y-46711266D01*
X123798243Y-46711266D02*
X123750624Y-46663647D01*
X123750624Y-46663647D02*
X123655386Y-46616028D01*
X123655386Y-46616028D02*
X123464910Y-46568409D01*
X123464910Y-46568409D02*
X123369672Y-46520790D01*
X123369672Y-46520790D02*
X123322053Y-46473171D01*
X123322053Y-46473171D02*
X123274434Y-46377933D01*
X123274434Y-46377933D02*
X123274434Y-46282695D01*
X123274434Y-46282695D02*
X123322053Y-46187457D01*
X123322053Y-46187457D02*
X123369672Y-46139838D01*
X123369672Y-46139838D02*
X123464910Y-46092219D01*
X123464910Y-46092219D02*
X123703005Y-46092219D01*
X123703005Y-46092219D02*
X123845862Y-46139838D01*
X122183958Y-45814600D02*
X123936339Y-45814600D01*
X134893482Y-45999838D02*
X134798244Y-45952219D01*
X134798244Y-45952219D02*
X134655387Y-45952219D01*
X134655387Y-45952219D02*
X134512530Y-45999838D01*
X134512530Y-45999838D02*
X134417292Y-46095076D01*
X134417292Y-46095076D02*
X134369673Y-46190314D01*
X134369673Y-46190314D02*
X134322054Y-46380790D01*
X134322054Y-46380790D02*
X134322054Y-46523647D01*
X134322054Y-46523647D02*
X134369673Y-46714123D01*
X134369673Y-46714123D02*
X134417292Y-46809361D01*
X134417292Y-46809361D02*
X134512530Y-46904600D01*
X134512530Y-46904600D02*
X134655387Y-46952219D01*
X134655387Y-46952219D02*
X134750625Y-46952219D01*
X134750625Y-46952219D02*
X134893482Y-46904600D01*
X134893482Y-46904600D02*
X134941101Y-46856980D01*
X134941101Y-46856980D02*
X134941101Y-46523647D01*
X134941101Y-46523647D02*
X134750625Y-46523647D01*
X135369673Y-46952219D02*
X135369673Y-45952219D01*
X135369673Y-45952219D02*
X135941101Y-46952219D01*
X135941101Y-46952219D02*
X135941101Y-45952219D01*
X136417292Y-46952219D02*
X136417292Y-45952219D01*
X136417292Y-45952219D02*
X136655387Y-45952219D01*
X136655387Y-45952219D02*
X136798244Y-45999838D01*
X136798244Y-45999838D02*
X136893482Y-46095076D01*
X136893482Y-46095076D02*
X136941101Y-46190314D01*
X136941101Y-46190314D02*
X136988720Y-46380790D01*
X136988720Y-46380790D02*
X136988720Y-46523647D01*
X136988720Y-46523647D02*
X136941101Y-46714123D01*
X136941101Y-46714123D02*
X136893482Y-46809361D01*
X136893482Y-46809361D02*
X136798244Y-46904600D01*
X136798244Y-46904600D02*
X136655387Y-46952219D01*
X136655387Y-46952219D02*
X136417292Y-46952219D01*
X135011279Y-31647247D02*
X135011279Y-30647247D01*
X135011279Y-30647247D02*
X135249374Y-30647247D01*
X135249374Y-30647247D02*
X135392231Y-30694866D01*
X135392231Y-30694866D02*
X135487469Y-30790104D01*
X135487469Y-30790104D02*
X135535088Y-30885342D01*
X135535088Y-30885342D02*
X135582707Y-31075818D01*
X135582707Y-31075818D02*
X135582707Y-31218675D01*
X135582707Y-31218675D02*
X135535088Y-31409151D01*
X135535088Y-31409151D02*
X135487469Y-31504389D01*
X135487469Y-31504389D02*
X135392231Y-31599628D01*
X135392231Y-31599628D02*
X135249374Y-31647247D01*
X135249374Y-31647247D02*
X135011279Y-31647247D01*
X136201755Y-30647247D02*
X136392231Y-30647247D01*
X136392231Y-30647247D02*
X136487469Y-30694866D01*
X136487469Y-30694866D02*
X136582707Y-30790104D01*
X136582707Y-30790104D02*
X136630326Y-30980580D01*
X136630326Y-30980580D02*
X136630326Y-31313913D01*
X136630326Y-31313913D02*
X136582707Y-31504389D01*
X136582707Y-31504389D02*
X136487469Y-31599628D01*
X136487469Y-31599628D02*
X136392231Y-31647247D01*
X136392231Y-31647247D02*
X136201755Y-31647247D01*
X136201755Y-31647247D02*
X136106517Y-31599628D01*
X136106517Y-31599628D02*
X136011279Y-31504389D01*
X136011279Y-31504389D02*
X135963660Y-31313913D01*
X135963660Y-31313913D02*
X135963660Y-30980580D01*
X135963660Y-30980580D02*
X136011279Y-30790104D01*
X136011279Y-30790104D02*
X136106517Y-30694866D01*
X136106517Y-30694866D02*
X136201755Y-30647247D01*
X137773183Y-30599628D02*
X136916041Y-31885342D01*
X134392231Y-32257191D02*
X134963659Y-32257191D01*
X134677945Y-33257191D02*
X134677945Y-32257191D01*
X135868421Y-33161952D02*
X135820802Y-33209572D01*
X135820802Y-33209572D02*
X135677945Y-33257191D01*
X135677945Y-33257191D02*
X135582707Y-33257191D01*
X135582707Y-33257191D02*
X135439850Y-33209572D01*
X135439850Y-33209572D02*
X135344612Y-33114333D01*
X135344612Y-33114333D02*
X135296993Y-33019095D01*
X135296993Y-33019095D02*
X135249374Y-32828619D01*
X135249374Y-32828619D02*
X135249374Y-32685762D01*
X135249374Y-32685762D02*
X135296993Y-32495286D01*
X135296993Y-32495286D02*
X135344612Y-32400048D01*
X135344612Y-32400048D02*
X135439850Y-32304810D01*
X135439850Y-32304810D02*
X135582707Y-32257191D01*
X135582707Y-32257191D02*
X135677945Y-32257191D01*
X135677945Y-32257191D02*
X135820802Y-32304810D01*
X135820802Y-32304810D02*
X135868421Y-32352429D01*
X136773183Y-33257191D02*
X136296993Y-33257191D01*
X136296993Y-33257191D02*
X136296993Y-32257191D01*
X137106517Y-33257191D02*
X137106517Y-32257191D01*
X137677945Y-33257191D02*
X137249374Y-32685762D01*
X137677945Y-32257191D02*
X137106517Y-32828619D01*
X108647247Y-40666666D02*
X109361532Y-40666666D01*
X109361532Y-40666666D02*
X109504389Y-40714285D01*
X109504389Y-40714285D02*
X109599628Y-40809523D01*
X109599628Y-40809523D02*
X109647247Y-40952380D01*
X109647247Y-40952380D02*
X109647247Y-41047618D01*
X108647247Y-40333332D02*
X108647247Y-39761904D01*
X109647247Y-40047618D02*
X108647247Y-40047618D01*
X109361532Y-39476189D02*
X109361532Y-38999999D01*
X109647247Y-39571427D02*
X108647247Y-39238094D01*
X108647247Y-39238094D02*
X109647247Y-38904761D01*
X108694866Y-38047618D02*
X108647247Y-38142856D01*
X108647247Y-38142856D02*
X108647247Y-38285713D01*
X108647247Y-38285713D02*
X108694866Y-38428570D01*
X108694866Y-38428570D02*
X108790104Y-38523808D01*
X108790104Y-38523808D02*
X108885342Y-38571427D01*
X108885342Y-38571427D02*
X109075818Y-38619046D01*
X109075818Y-38619046D02*
X109218675Y-38619046D01*
X109218675Y-38619046D02*
X109409151Y-38571427D01*
X109409151Y-38571427D02*
X109504389Y-38523808D01*
X109504389Y-38523808D02*
X109599628Y-38428570D01*
X109599628Y-38428570D02*
X109647247Y-38285713D01*
X109647247Y-38285713D02*
X109647247Y-38190475D01*
X109647247Y-38190475D02*
X109599628Y-38047618D01*
X109599628Y-38047618D02*
X109552008Y-37999999D01*
X109552008Y-37999999D02*
X109218675Y-37999999D01*
X109218675Y-37999999D02*
X109218675Y-38190475D01*
X111257191Y-40666665D02*
X111257191Y-40714285D01*
X111257191Y-40714285D02*
X111209572Y-40809523D01*
X111209572Y-40809523D02*
X111066714Y-40952380D01*
X111066714Y-40952380D02*
X110781000Y-41190475D01*
X110781000Y-41190475D02*
X110638143Y-41285713D01*
X110638143Y-41285713D02*
X110495286Y-41333332D01*
X110495286Y-41333332D02*
X110400048Y-41333332D01*
X110400048Y-41333332D02*
X110304810Y-41285713D01*
X110304810Y-41285713D02*
X110257191Y-41190475D01*
X110257191Y-41190475D02*
X110257191Y-41142856D01*
X110257191Y-41142856D02*
X110304810Y-41047618D01*
X110304810Y-41047618D02*
X110400048Y-40999999D01*
X110400048Y-40999999D02*
X110447667Y-40999999D01*
X110447667Y-40999999D02*
X110542905Y-41047618D01*
X110542905Y-41047618D02*
X110590524Y-41095237D01*
X110590524Y-41095237D02*
X110781000Y-41380951D01*
X110781000Y-41380951D02*
X110828619Y-41428570D01*
X110828619Y-41428570D02*
X110923857Y-41476189D01*
X110923857Y-41476189D02*
X111066714Y-41476189D01*
X111066714Y-41476189D02*
X111161952Y-41428570D01*
X111161952Y-41428570D02*
X111209572Y-41380951D01*
X111209572Y-41380951D02*
X111257191Y-41285713D01*
X111257191Y-41285713D02*
X111257191Y-41142856D01*
X111257191Y-41142856D02*
X111209572Y-41047618D01*
X111209572Y-41047618D02*
X111161952Y-40999999D01*
X111161952Y-40999999D02*
X110971476Y-40857142D01*
X110971476Y-40857142D02*
X110828619Y-40809523D01*
X110828619Y-40809523D02*
X110733381Y-40809523D01*
X111209572Y-39523808D02*
X111257191Y-39380951D01*
X111257191Y-39380951D02*
X111257191Y-39142856D01*
X111257191Y-39142856D02*
X111209572Y-39047618D01*
X111209572Y-39047618D02*
X111161952Y-38999999D01*
X111161952Y-38999999D02*
X111066714Y-38952380D01*
X111066714Y-38952380D02*
X110971476Y-38952380D01*
X110971476Y-38952380D02*
X110876238Y-38999999D01*
X110876238Y-38999999D02*
X110828619Y-39047618D01*
X110828619Y-39047618D02*
X110781000Y-39142856D01*
X110781000Y-39142856D02*
X110733381Y-39333332D01*
X110733381Y-39333332D02*
X110685762Y-39428570D01*
X110685762Y-39428570D02*
X110638143Y-39476189D01*
X110638143Y-39476189D02*
X110542905Y-39523808D01*
X110542905Y-39523808D02*
X110447667Y-39523808D01*
X110447667Y-39523808D02*
X110352429Y-39476189D01*
X110352429Y-39476189D02*
X110304810Y-39428570D01*
X110304810Y-39428570D02*
X110257191Y-39333332D01*
X110257191Y-39333332D02*
X110257191Y-39095237D01*
X110257191Y-39095237D02*
X110304810Y-38952380D01*
X111257191Y-38523808D02*
X110257191Y-38523808D01*
X110257191Y-38523808D02*
X110257191Y-38142856D01*
X110257191Y-38142856D02*
X110304810Y-38047618D01*
X110304810Y-38047618D02*
X110352429Y-37999999D01*
X110352429Y-37999999D02*
X110447667Y-37952380D01*
X110447667Y-37952380D02*
X110590524Y-37952380D01*
X110590524Y-37952380D02*
X110685762Y-37999999D01*
X110685762Y-37999999D02*
X110733381Y-38047618D01*
X110733381Y-38047618D02*
X110781000Y-38142856D01*
X110781000Y-38142856D02*
X110781000Y-38523808D01*
X111257191Y-37523808D02*
X110257191Y-37523808D01*
D12*
X125803188Y-60734809D02*
X125517474Y-60734809D01*
X125660331Y-60734809D02*
X125660331Y-60234809D01*
X125660331Y-60234809D02*
X125612712Y-60306238D01*
X125612712Y-60306238D02*
X125565093Y-60353857D01*
X125565093Y-60353857D02*
X125517474Y-60377666D01*
X125969854Y-60401476D02*
X126088902Y-60734809D01*
X126088902Y-60734809D02*
X126207949Y-60401476D01*
X126469854Y-60449095D02*
X126422235Y-60425285D01*
X126422235Y-60425285D02*
X126398425Y-60401476D01*
X126398425Y-60401476D02*
X126374616Y-60353857D01*
X126374616Y-60353857D02*
X126374616Y-60330047D01*
X126374616Y-60330047D02*
X126398425Y-60282428D01*
X126398425Y-60282428D02*
X126422235Y-60258619D01*
X126422235Y-60258619D02*
X126469854Y-60234809D01*
X126469854Y-60234809D02*
X126565092Y-60234809D01*
X126565092Y-60234809D02*
X126612711Y-60258619D01*
X126612711Y-60258619D02*
X126636520Y-60282428D01*
X126636520Y-60282428D02*
X126660330Y-60330047D01*
X126660330Y-60330047D02*
X126660330Y-60353857D01*
X126660330Y-60353857D02*
X126636520Y-60401476D01*
X126636520Y-60401476D02*
X126612711Y-60425285D01*
X126612711Y-60425285D02*
X126565092Y-60449095D01*
X126565092Y-60449095D02*
X126469854Y-60449095D01*
X126469854Y-60449095D02*
X126422235Y-60472904D01*
X126422235Y-60472904D02*
X126398425Y-60496714D01*
X126398425Y-60496714D02*
X126374616Y-60544333D01*
X126374616Y-60544333D02*
X126374616Y-60639571D01*
X126374616Y-60639571D02*
X126398425Y-60687190D01*
X126398425Y-60687190D02*
X126422235Y-60711000D01*
X126422235Y-60711000D02*
X126469854Y-60734809D01*
X126469854Y-60734809D02*
X126565092Y-60734809D01*
X126565092Y-60734809D02*
X126612711Y-60711000D01*
X126612711Y-60711000D02*
X126636520Y-60687190D01*
X126636520Y-60687190D02*
X126660330Y-60639571D01*
X126660330Y-60639571D02*
X126660330Y-60544333D01*
X126660330Y-60544333D02*
X126636520Y-60496714D01*
X126636520Y-60496714D02*
X126612711Y-60472904D01*
X126612711Y-60472904D02*
X126565092Y-60449095D01*
D10*
X116105326Y-32452219D02*
X116105326Y-31452219D01*
X116105326Y-31452219D02*
X116676754Y-32452219D01*
X116676754Y-32452219D02*
X116676754Y-31452219D01*
X117724373Y-32356980D02*
X117676754Y-32404600D01*
X117676754Y-32404600D02*
X117533897Y-32452219D01*
X117533897Y-32452219D02*
X117438659Y-32452219D01*
X117438659Y-32452219D02*
X117295802Y-32404600D01*
X117295802Y-32404600D02*
X117200564Y-32309361D01*
X117200564Y-32309361D02*
X117152945Y-32214123D01*
X117152945Y-32214123D02*
X117105326Y-32023647D01*
X117105326Y-32023647D02*
X117105326Y-31880790D01*
X117105326Y-31880790D02*
X117152945Y-31690314D01*
X117152945Y-31690314D02*
X117200564Y-31595076D01*
X117200564Y-31595076D02*
X117295802Y-31499838D01*
X117295802Y-31499838D02*
X117438659Y-31452219D01*
X117438659Y-31452219D02*
X117533897Y-31452219D01*
X117533897Y-31452219D02*
X117676754Y-31499838D01*
X117676754Y-31499838D02*
X117724373Y-31547457D01*
X110893482Y-45999838D02*
X110798244Y-45952219D01*
X110798244Y-45952219D02*
X110655387Y-45952219D01*
X110655387Y-45952219D02*
X110512530Y-45999838D01*
X110512530Y-45999838D02*
X110417292Y-46095076D01*
X110417292Y-46095076D02*
X110369673Y-46190314D01*
X110369673Y-46190314D02*
X110322054Y-46380790D01*
X110322054Y-46380790D02*
X110322054Y-46523647D01*
X110322054Y-46523647D02*
X110369673Y-46714123D01*
X110369673Y-46714123D02*
X110417292Y-46809361D01*
X110417292Y-46809361D02*
X110512530Y-46904600D01*
X110512530Y-46904600D02*
X110655387Y-46952219D01*
X110655387Y-46952219D02*
X110750625Y-46952219D01*
X110750625Y-46952219D02*
X110893482Y-46904600D01*
X110893482Y-46904600D02*
X110941101Y-46856980D01*
X110941101Y-46856980D02*
X110941101Y-46523647D01*
X110941101Y-46523647D02*
X110750625Y-46523647D01*
X111369673Y-46952219D02*
X111369673Y-45952219D01*
X111369673Y-45952219D02*
X111941101Y-46952219D01*
X111941101Y-46952219D02*
X111941101Y-45952219D01*
X112417292Y-46952219D02*
X112417292Y-45952219D01*
X112417292Y-45952219D02*
X112655387Y-45952219D01*
X112655387Y-45952219D02*
X112798244Y-45999838D01*
X112798244Y-45999838D02*
X112893482Y-46095076D01*
X112893482Y-46095076D02*
X112941101Y-46190314D01*
X112941101Y-46190314D02*
X112988720Y-46380790D01*
X112988720Y-46380790D02*
X112988720Y-46523647D01*
X112988720Y-46523647D02*
X112941101Y-46714123D01*
X112941101Y-46714123D02*
X112893482Y-46809361D01*
X112893482Y-46809361D02*
X112798244Y-46904600D01*
X112798244Y-46904600D02*
X112655387Y-46952219D01*
X112655387Y-46952219D02*
X112417292Y-46952219D01*
X121823183Y-31647247D02*
X121823183Y-30647247D01*
X121823183Y-30647247D02*
X122061278Y-30647247D01*
X122061278Y-30647247D02*
X122204135Y-30694866D01*
X122204135Y-30694866D02*
X122299373Y-30790104D01*
X122299373Y-30790104D02*
X122346992Y-30885342D01*
X122346992Y-30885342D02*
X122394611Y-31075818D01*
X122394611Y-31075818D02*
X122394611Y-31218675D01*
X122394611Y-31218675D02*
X122346992Y-31409151D01*
X122346992Y-31409151D02*
X122299373Y-31504389D01*
X122299373Y-31504389D02*
X122204135Y-31599628D01*
X122204135Y-31599628D02*
X122061278Y-31647247D01*
X122061278Y-31647247D02*
X121823183Y-31647247D01*
X122823183Y-31647247D02*
X122823183Y-30647247D01*
X124013658Y-30599628D02*
X123156516Y-31885342D01*
X121346992Y-32257191D02*
X121918420Y-32257191D01*
X121632706Y-33257191D02*
X121632706Y-32257191D01*
X122251754Y-33257191D02*
X122251754Y-32257191D01*
X122251754Y-32257191D02*
X122585087Y-32971476D01*
X122585087Y-32971476D02*
X122918420Y-32257191D01*
X122918420Y-32257191D02*
X122918420Y-33257191D01*
X123346992Y-33209572D02*
X123489849Y-33257191D01*
X123489849Y-33257191D02*
X123727944Y-33257191D01*
X123727944Y-33257191D02*
X123823182Y-33209572D01*
X123823182Y-33209572D02*
X123870801Y-33161952D01*
X123870801Y-33161952D02*
X123918420Y-33066714D01*
X123918420Y-33066714D02*
X123918420Y-32971476D01*
X123918420Y-32971476D02*
X123870801Y-32876238D01*
X123870801Y-32876238D02*
X123823182Y-32828619D01*
X123823182Y-32828619D02*
X123727944Y-32781000D01*
X123727944Y-32781000D02*
X123537468Y-32733381D01*
X123537468Y-32733381D02*
X123442230Y-32685762D01*
X123442230Y-32685762D02*
X123394611Y-32638143D01*
X123394611Y-32638143D02*
X123346992Y-32542905D01*
X123346992Y-32542905D02*
X123346992Y-32447667D01*
X123346992Y-32447667D02*
X123394611Y-32352429D01*
X123394611Y-32352429D02*
X123442230Y-32304810D01*
X123442230Y-32304810D02*
X123537468Y-32257191D01*
X123537468Y-32257191D02*
X123775563Y-32257191D01*
X123775563Y-32257191D02*
X123918420Y-32304810D01*
X127531515Y-31599628D02*
X127674372Y-31647247D01*
X127674372Y-31647247D02*
X127912467Y-31647247D01*
X127912467Y-31647247D02*
X128007705Y-31599628D01*
X128007705Y-31599628D02*
X128055324Y-31552008D01*
X128055324Y-31552008D02*
X128102943Y-31456770D01*
X128102943Y-31456770D02*
X128102943Y-31361532D01*
X128102943Y-31361532D02*
X128055324Y-31266294D01*
X128055324Y-31266294D02*
X128007705Y-31218675D01*
X128007705Y-31218675D02*
X127912467Y-31171056D01*
X127912467Y-31171056D02*
X127721991Y-31123437D01*
X127721991Y-31123437D02*
X127626753Y-31075818D01*
X127626753Y-31075818D02*
X127579134Y-31028199D01*
X127579134Y-31028199D02*
X127531515Y-30932961D01*
X127531515Y-30932961D02*
X127531515Y-30837723D01*
X127531515Y-30837723D02*
X127579134Y-30742485D01*
X127579134Y-30742485D02*
X127626753Y-30694866D01*
X127626753Y-30694866D02*
X127721991Y-30647247D01*
X127721991Y-30647247D02*
X127960086Y-30647247D01*
X127960086Y-30647247D02*
X128102943Y-30694866D01*
X129102943Y-31552008D02*
X129055324Y-31599628D01*
X129055324Y-31599628D02*
X128912467Y-31647247D01*
X128912467Y-31647247D02*
X128817229Y-31647247D01*
X128817229Y-31647247D02*
X128674372Y-31599628D01*
X128674372Y-31599628D02*
X128579134Y-31504389D01*
X128579134Y-31504389D02*
X128531515Y-31409151D01*
X128531515Y-31409151D02*
X128483896Y-31218675D01*
X128483896Y-31218675D02*
X128483896Y-31075818D01*
X128483896Y-31075818D02*
X128531515Y-30885342D01*
X128531515Y-30885342D02*
X128579134Y-30790104D01*
X128579134Y-30790104D02*
X128674372Y-30694866D01*
X128674372Y-30694866D02*
X128817229Y-30647247D01*
X128817229Y-30647247D02*
X128912467Y-30647247D01*
X128912467Y-30647247D02*
X129055324Y-30694866D01*
X129055324Y-30694866D02*
X129102943Y-30742485D01*
X130007705Y-31647247D02*
X129531515Y-31647247D01*
X129531515Y-31647247D02*
X129531515Y-30647247D01*
X130341039Y-31647247D02*
X130341039Y-30647247D01*
X130912467Y-31647247D02*
X130483896Y-31075818D01*
X130912467Y-30647247D02*
X130341039Y-31218675D01*
X128198181Y-32209572D02*
X127341039Y-33495286D01*
X128388658Y-32257191D02*
X128960086Y-32257191D01*
X128674372Y-33257191D02*
X128674372Y-32257191D01*
X129293420Y-33257191D02*
X129293420Y-32257191D01*
X129293420Y-32257191D02*
X129531515Y-32257191D01*
X129531515Y-32257191D02*
X129674372Y-32304810D01*
X129674372Y-32304810D02*
X129769610Y-32400048D01*
X129769610Y-32400048D02*
X129817229Y-32495286D01*
X129817229Y-32495286D02*
X129864848Y-32685762D01*
X129864848Y-32685762D02*
X129864848Y-32828619D01*
X129864848Y-32828619D02*
X129817229Y-33019095D01*
X129817229Y-33019095D02*
X129769610Y-33114333D01*
X129769610Y-33114333D02*
X129674372Y-33209572D01*
X129674372Y-33209572D02*
X129531515Y-33257191D01*
X129531515Y-33257191D02*
X129293420Y-33257191D01*
X130483896Y-32257191D02*
X130674372Y-32257191D01*
X130674372Y-32257191D02*
X130769610Y-32304810D01*
X130769610Y-32304810D02*
X130864848Y-32400048D01*
X130864848Y-32400048D02*
X130912467Y-32590524D01*
X130912467Y-32590524D02*
X130912467Y-32923857D01*
X130912467Y-32923857D02*
X130864848Y-33114333D01*
X130864848Y-33114333D02*
X130769610Y-33209572D01*
X130769610Y-33209572D02*
X130674372Y-33257191D01*
X130674372Y-33257191D02*
X130483896Y-33257191D01*
X130483896Y-33257191D02*
X130388658Y-33209572D01*
X130388658Y-33209572D02*
X130293420Y-33114333D01*
X130293420Y-33114333D02*
X130245801Y-32923857D01*
X130245801Y-32923857D02*
X130245801Y-32590524D01*
X130245801Y-32590524D02*
X130293420Y-32400048D01*
X130293420Y-32400048D02*
X130388658Y-32304810D01*
X130388658Y-32304810D02*
X130483896Y-32257191D01*
X110225565Y-31452219D02*
X110796993Y-31452219D01*
X110511279Y-32452219D02*
X110511279Y-31452219D01*
X111130327Y-32452219D02*
X111130327Y-31452219D01*
X111130327Y-31452219D02*
X111368422Y-31452219D01*
X111368422Y-31452219D02*
X111511279Y-31499838D01*
X111511279Y-31499838D02*
X111606517Y-31595076D01*
X111606517Y-31595076D02*
X111654136Y-31690314D01*
X111654136Y-31690314D02*
X111701755Y-31880790D01*
X111701755Y-31880790D02*
X111701755Y-32023647D01*
X111701755Y-32023647D02*
X111654136Y-32214123D01*
X111654136Y-32214123D02*
X111606517Y-32309361D01*
X111606517Y-32309361D02*
X111511279Y-32404600D01*
X111511279Y-32404600D02*
X111368422Y-32452219D01*
X111368422Y-32452219D02*
X111130327Y-32452219D01*
X112130327Y-32452219D02*
X112130327Y-31452219D01*
D12*
X124701283Y-54624809D02*
X124701283Y-54124809D01*
X125034616Y-54124809D02*
X125129854Y-54124809D01*
X125129854Y-54124809D02*
X125177473Y-54148619D01*
X125177473Y-54148619D02*
X125225092Y-54196238D01*
X125225092Y-54196238D02*
X125248902Y-54291476D01*
X125248902Y-54291476D02*
X125248902Y-54458142D01*
X125248902Y-54458142D02*
X125225092Y-54553380D01*
X125225092Y-54553380D02*
X125177473Y-54601000D01*
X125177473Y-54601000D02*
X125129854Y-54624809D01*
X125129854Y-54624809D02*
X125034616Y-54624809D01*
X125034616Y-54624809D02*
X124986997Y-54601000D01*
X124986997Y-54601000D02*
X124939378Y-54553380D01*
X124939378Y-54553380D02*
X124915569Y-54458142D01*
X124915569Y-54458142D02*
X124915569Y-54291476D01*
X124915569Y-54291476D02*
X124939378Y-54196238D01*
X124939378Y-54196238D02*
X124986997Y-54148619D01*
X124986997Y-54148619D02*
X125034616Y-54124809D01*
X125401283Y-54280047D02*
X125648902Y-54280047D01*
X125648902Y-54280047D02*
X125515569Y-54432428D01*
X125515569Y-54432428D02*
X125572712Y-54432428D01*
X125572712Y-54432428D02*
X125610807Y-54451476D01*
X125610807Y-54451476D02*
X125629855Y-54470523D01*
X125629855Y-54470523D02*
X125648902Y-54508619D01*
X125648902Y-54508619D02*
X125648902Y-54603857D01*
X125648902Y-54603857D02*
X125629855Y-54641952D01*
X125629855Y-54641952D02*
X125610807Y-54661000D01*
X125610807Y-54661000D02*
X125572712Y-54680047D01*
X125572712Y-54680047D02*
X125458426Y-54680047D01*
X125458426Y-54680047D02*
X125420331Y-54661000D01*
X125420331Y-54661000D02*
X125401283Y-54641952D01*
D15*
X128765312Y-60359847D02*
X128765312Y-60645561D01*
X128765312Y-60645561D02*
X128746265Y-60702704D01*
X128746265Y-60702704D02*
X128708169Y-60740800D01*
X128708169Y-60740800D02*
X128651027Y-60759847D01*
X128651027Y-60759847D02*
X128612931Y-60759847D01*
X128898646Y-60359847D02*
X129127217Y-60359847D01*
X129012931Y-60759847D02*
X129012931Y-60359847D01*
X129241503Y-60645561D02*
X129431979Y-60645561D01*
X129203408Y-60759847D02*
X129336741Y-60359847D01*
X129336741Y-60359847D02*
X129470074Y-60759847D01*
X129812931Y-60378895D02*
X129774836Y-60359847D01*
X129774836Y-60359847D02*
X129717693Y-60359847D01*
X129717693Y-60359847D02*
X129660550Y-60378895D01*
X129660550Y-60378895D02*
X129622455Y-60416990D01*
X129622455Y-60416990D02*
X129603408Y-60455085D01*
X129603408Y-60455085D02*
X129584360Y-60531276D01*
X129584360Y-60531276D02*
X129584360Y-60588419D01*
X129584360Y-60588419D02*
X129603408Y-60664609D01*
X129603408Y-60664609D02*
X129622455Y-60702704D01*
X129622455Y-60702704D02*
X129660550Y-60740800D01*
X129660550Y-60740800D02*
X129717693Y-60759847D01*
X129717693Y-60759847D02*
X129755789Y-60759847D01*
X129755789Y-60759847D02*
X129812931Y-60740800D01*
X129812931Y-60740800D02*
X129831979Y-60721752D01*
X129831979Y-60721752D02*
X129831979Y-60588419D01*
X129831979Y-60588419D02*
X129755789Y-60588419D01*
X129333333Y-56641752D02*
X129314285Y-56660800D01*
X129314285Y-56660800D02*
X129257143Y-56679847D01*
X129257143Y-56679847D02*
X129219047Y-56679847D01*
X129219047Y-56679847D02*
X129161904Y-56660800D01*
X129161904Y-56660800D02*
X129123809Y-56622704D01*
X129123809Y-56622704D02*
X129104762Y-56584609D01*
X129104762Y-56584609D02*
X129085714Y-56508419D01*
X129085714Y-56508419D02*
X129085714Y-56451276D01*
X129085714Y-56451276D02*
X129104762Y-56375085D01*
X129104762Y-56375085D02*
X129123809Y-56336990D01*
X129123809Y-56336990D02*
X129161904Y-56298895D01*
X129161904Y-56298895D02*
X129219047Y-56279847D01*
X129219047Y-56279847D02*
X129257143Y-56279847D01*
X129257143Y-56279847D02*
X129314285Y-56298895D01*
X129314285Y-56298895D02*
X129333333Y-56317942D01*
X129485714Y-56660800D02*
X129542857Y-56679847D01*
X129542857Y-56679847D02*
X129638095Y-56679847D01*
X129638095Y-56679847D02*
X129676190Y-56660800D01*
X129676190Y-56660800D02*
X129695238Y-56641752D01*
X129695238Y-56641752D02*
X129714285Y-56603657D01*
X129714285Y-56603657D02*
X129714285Y-56565561D01*
X129714285Y-56565561D02*
X129695238Y-56527466D01*
X129695238Y-56527466D02*
X129676190Y-56508419D01*
X129676190Y-56508419D02*
X129638095Y-56489371D01*
X129638095Y-56489371D02*
X129561904Y-56470323D01*
X129561904Y-56470323D02*
X129523809Y-56451276D01*
X129523809Y-56451276D02*
X129504762Y-56432228D01*
X129504762Y-56432228D02*
X129485714Y-56394133D01*
X129485714Y-56394133D02*
X129485714Y-56356038D01*
X129485714Y-56356038D02*
X129504762Y-56317942D01*
X129504762Y-56317942D02*
X129523809Y-56298895D01*
X129523809Y-56298895D02*
X129561904Y-56279847D01*
X129561904Y-56279847D02*
X129657143Y-56279847D01*
X129657143Y-56279847D02*
X129714285Y-56298895D01*
X129049524Y-56168800D02*
X129750476Y-56168800D01*
D13*
%TO.C,TP5*%
X124440000Y-54190000D02*
G75*
G02*
X123640000Y-54190000I-400000J0D01*
G01*
X123640000Y-54190000D02*
G75*
G02*
X124440000Y-54190000I400000J0D01*
G01*
%TO.C,U8*%
X125162953Y-59082359D02*
X123812953Y-59082359D01*
X125162953Y-57782359D02*
X125162953Y-59082359D01*
X125162953Y-55382359D02*
X125162953Y-55732359D01*
X124812953Y-55382359D02*
X125162953Y-55382359D01*
X121812953Y-59082359D02*
X121462953Y-59082359D01*
X121462953Y-59082359D02*
X121462953Y-58732359D01*
X121462953Y-55732359D02*
X121462953Y-55382359D01*
X121462953Y-55382359D02*
X121812953Y-55382359D01*
%TO.C,D2*%
X126612953Y-57232359D02*
X125812953Y-57232359D01*
%TO.C,U7*%
X130400000Y-69800000D02*
X129825000Y-69800000D01*
X130400000Y-69250001D02*
X130400000Y-69800000D01*
X130400000Y-64400000D02*
X130400000Y-64600000D01*
X130400000Y-64400000D02*
X130200000Y-64400000D01*
X125200000Y-69800000D02*
X125000000Y-69800000D01*
X125200000Y-64400000D02*
X125000000Y-64400000D01*
X125000000Y-69600000D02*
X125000000Y-69800000D01*
X125000000Y-64400000D02*
X125000000Y-64600000D01*
%TO.C,J3*%
X129080000Y-33567500D02*
X128080000Y-33567500D01*
X128080000Y-33567500D02*
X128580000Y-34567500D01*
X128580000Y-34567500D02*
X129080000Y-33567500D01*
X133790000Y-34957500D02*
X133790000Y-44077500D01*
X125550000Y-34957500D02*
X125550000Y-36267500D01*
X113210000Y-34957500D02*
X133790000Y-34957500D01*
X132490000Y-36267500D02*
X132490000Y-42767500D01*
X125550000Y-36267500D02*
X132490000Y-36267500D01*
X121450000Y-36267500D02*
X121450000Y-34957500D01*
X121450000Y-36267500D02*
X121450000Y-36267500D01*
X114510000Y-36267500D02*
X121450000Y-36267500D01*
X132490000Y-42767500D02*
X114510000Y-42767500D01*
X114510000Y-42767500D02*
X114510000Y-36267500D01*
X133790000Y-44077500D02*
X113210000Y-44077500D01*
X113210000Y-44077500D02*
X113210000Y-34957500D01*
%TO.C,C29*%
X115462164Y-65990000D02*
X115677836Y-65990000D01*
X115462164Y-66710000D02*
X115677836Y-66710000D01*
%TO.C,C34*%
X124760000Y-66592164D02*
X124760000Y-66807836D01*
X124040000Y-66592164D02*
X124040000Y-66807836D01*
%TO.C,D3*%
X130600000Y-60700000D02*
X130600000Y-63100000D01*
X130900000Y-60700000D02*
X130600000Y-60700000D01*
X132500000Y-60700000D02*
X132800000Y-60700000D01*
X132800000Y-60700000D02*
X132800000Y-63100000D01*
%TO.C,C12*%
X125470000Y-63227836D02*
X125470000Y-63012164D01*
X126190000Y-63227836D02*
X126190000Y-63012164D01*
%TO.C,C17*%
X124867836Y-70680000D02*
X124652164Y-70680000D01*
X124867836Y-69960000D02*
X124652164Y-69960000D01*
%TO.C,C63*%
X121440000Y-71457836D02*
X121440000Y-71242164D01*
X122160000Y-71457836D02*
X122160000Y-71242164D01*
%TO.C,C2*%
X123090000Y-63907836D02*
X123090000Y-63692164D01*
X123810000Y-63907836D02*
X123810000Y-63692164D01*
%TO.C,C1*%
X126827836Y-71490000D02*
X126612164Y-71490000D01*
X126827836Y-70770000D02*
X126612164Y-70770000D01*
%TO.C,U4*%
X122000000Y-66900000D02*
X122000000Y-69900000D01*
X116800000Y-66900000D02*
X116800000Y-69400000D01*
%TO.C,U3*%
X116890000Y-56277500D02*
X117150000Y-56277500D01*
X116890000Y-56277500D02*
X116890000Y-56537500D01*
X120910000Y-61697500D02*
X120910000Y-61437500D01*
X120910000Y-61697500D02*
X120650000Y-61697500D01*
X116890000Y-61697500D02*
X116890000Y-61437500D01*
X116890000Y-61697500D02*
X117150000Y-61697500D01*
D15*
X121270000Y-56277500D02*
X120910000Y-56277500D01*
X120910000Y-55917500D01*
X121270000Y-56277500D01*
G36*
X121270000Y-56277500D02*
G01*
X120910000Y-56277500D01*
X120910000Y-55917500D01*
X121270000Y-56277500D01*
G37*
D13*
%TO.C,L9*%
X122660000Y-64400378D02*
X122660000Y-65199622D01*
X121540000Y-64400378D02*
X121540000Y-65199622D01*
%TO.C,L8*%
X118297936Y-62100000D02*
X119502064Y-62100000D01*
X118297936Y-64820000D02*
X119502064Y-64820000D01*
%TO.C,C25*%
X129590000Y-58407836D02*
X129590000Y-58192164D01*
X130310000Y-58407836D02*
X130310000Y-58192164D01*
%TO.C,C35*%
X127765000Y-61907836D02*
X127765000Y-61692164D01*
X128485000Y-61907836D02*
X128485000Y-61692164D01*
%TO.C,TP9*%
X130520000Y-56970000D02*
G75*
G02*
X129720000Y-56970000I-400000J0D01*
G01*
X129720000Y-56970000D02*
G75*
G02*
X130520000Y-56970000I400000J0D01*
G01*
%TO.C,C13*%
X126390000Y-63227836D02*
X126390000Y-63012164D01*
X127110000Y-63227836D02*
X127110000Y-63012164D01*
%TO.C,TP2*%
X126700000Y-54600000D02*
G75*
G02*
X125900000Y-54600000I-400000J0D01*
G01*
X125900000Y-54600000D02*
G75*
G02*
X126700000Y-54600000I400000J0D01*
G01*
%TO.C,C3*%
X128740000Y-61757836D02*
X128740000Y-61542164D01*
X129460000Y-61757836D02*
X129460000Y-61542164D01*
%TO.C,C10*%
X129392164Y-63390000D02*
X129607836Y-63390000D01*
X129392164Y-64110000D02*
X129607836Y-64110000D01*
%TO.C,C64*%
X122960000Y-69262164D02*
X122960000Y-69477836D01*
X122240000Y-69262164D02*
X122240000Y-69477836D01*
%TO.C,C33*%
X115312164Y-65040000D02*
X115527836Y-65040000D01*
X115312164Y-65760000D02*
X115527836Y-65760000D01*
%TO.C,D1*%
X114200000Y-60700000D02*
X114200000Y-63100000D01*
X114500000Y-60700000D02*
X114200000Y-60700000D01*
X116100000Y-60700000D02*
X116400000Y-60700000D01*
X116400000Y-60700000D02*
X116400000Y-63100000D01*
%TO.C,C59*%
X122240000Y-67657836D02*
X122240000Y-67442164D01*
X122960000Y-67657836D02*
X122960000Y-67442164D01*
%TD*%
M02*
