M48
; DRILL file {KiCad (6.0.0)} date Mon Dec  5 09:44:35 2022
; FORMAT={-:-/ absolute / inch / decimal}
; #@! TF.CreationDate,2022-12-05T09:44:35-05:00
; #@! TF.GenerationSoftware,Kicad,Pcbnew,(6.0.0)
; #@! TF.FileFunction,Plated,1,6,PTH
FMAT,2
INCH
; #@! TA.AperFunction,Plated,PTH,ViaDrill
T1C0.0039
; #@! TA.AperFunction,Plated,PTH,ViaDrill
T2C0.0079
; #@! TA.AperFunction,Plated,PTH,ComponentDrill
T3C0.0394
%
G90
G05
T1
X4.5059Y-2.3947
X4.5252Y-2.5815
X4.5256Y-2.4098
X4.5256Y-2.6071
X4.5386Y-2.5933
X4.5526Y-2.6457
X4.5531Y-2.2937
X4.5539Y-2.3965
X4.5541Y-2.4724
X4.5556Y-2.4395
X4.5571Y-2.2772
X4.5636Y-2.5764
X4.5709Y-2.6398
X4.5748Y-2.3981
X4.5748Y-2.4861
X4.578Y-2.3504
X4.5909Y-2.3405
X4.5913Y-2.2358
X4.5927Y-2.6565
X4.593Y-2.5718
X4.6008Y-2.7303
X4.6063Y-2.6961
X4.611Y-2.6646
X4.6135Y-2.4303
X4.6161Y-2.411
X4.6161Y-2.7274
X4.6173Y-2.6142
X4.6188Y-2.5641
X4.6213Y-2.6772
X4.6236Y-2.2071
X4.624Y-2.5776
X4.6319Y-2.6102
X4.635Y-2.1953
X4.6351Y-2.7362
X4.6378Y-2.3457
X4.6394Y-2.4317
X4.6417Y-2.2945
X4.6417Y-2.3307
X4.6437Y-2.3146
X4.6437Y-2.7697
X4.6512Y-2.4165
X4.6547Y-2.7358
X4.658Y-2.7726
X4.6673Y-2.7173
X4.6711Y-2.5992
X4.6725Y-2.5773
X4.6728Y-2.5472
X4.6744Y-2.7701
X4.6768Y-2.7043
X4.6791Y-2.1634
X4.6822Y-2.2065
X4.6835Y-2.439
X4.6885Y-2.4681
X4.6902Y-2.5906
X4.6919Y-2.8031
X4.6941Y-2.6504
X4.6976Y-2.6697
X4.6996Y-2.5472
X4.7016Y-2.3246
X4.7031Y-2.1724
X4.7033Y-2.576
X4.7067Y-2.25
X4.7077Y-2.8012
X4.7114Y-2.4156
X4.7132Y-2.2898
X4.7169Y-2.566
X4.7212Y-2.3264
X4.7248Y-2.2169
X4.7405Y-2.824
X4.7728Y-2.4579
X4.7782Y-2.1961
X4.7787Y-2.2516
X4.7815Y-2.1248
X4.7824Y-2.1836
X4.7833Y-2.2067
X4.7843Y-2.322
X4.787Y-2.7984
X4.7887Y-2.2448
X4.7937Y-2.5657
X4.7976Y-2.3224
X4.8066Y-2.2216
X4.8095Y-2.8446
X4.8106Y-2.2327
X4.8122Y-2.5669
X4.8153Y-2.1815
X4.8201Y-2.2514
X4.8221Y-2.2375
X4.8232Y-2.7992
X4.8232Y-2.826
X4.8233Y-2.3015
X4.8239Y-2.207
X4.8244Y-2.2823
X4.8244Y-2.3143
X4.8273Y-2.1588
X4.8335Y-2.5701
X4.8378Y-2.1193
X4.8379Y-2.2683
X4.8381Y-2.206
X4.8418Y-2.5427
X4.8469Y-2.2466
X4.8528Y-2.2707
X4.8543Y-2.2854
X4.8558Y-2.2227
X4.856Y-2.2385
X4.8567Y-2.5708
X4.8568Y-2.1519
X4.8575Y-2.1232
X4.8601Y-2.2611
X4.8602Y-2.2081
X4.8676Y-2.1597
X4.8709Y-2.8
X4.8732Y-2.8457
X4.8744Y-2.1193
X4.876Y-2.8224
X4.8832Y-2.1903
X4.8844Y-2.2237
X4.8863Y-2.1647
X4.8863Y-2.2678
X4.8863Y-2.2857
X4.8918Y-2.3206
X4.8925Y-2.8465
X4.8957Y-2.352
X4.9008Y-2.2375
X4.9008Y-2.1647
X4.9011Y-2.2523
X4.9011Y-2.268
X4.906Y-2.3674
X4.9082Y-2.7994
X4.9134Y-2.5709
X4.9208Y-2.7992
X4.921Y-2.1922
X4.9228Y-2.1725
X4.9281Y-2.2737
X4.9293Y-2.3135
X4.9293Y-2.3312
X4.9331Y-2.5709
X4.9354Y-2.1654
X4.9415Y-2.2763
X4.9547Y-2.1252
X4.9592Y-2.3241
X4.965Y-2.8268
X4.9656Y-2.1765
X4.9661Y-2.208
X4.9831Y-2.8248
X4.9848Y-2.3221
X4.9917Y-2.1745
X4.9966Y-2.205
X4.998Y-2.1427
X4.9985Y-2.3064
X4.9992Y-2.2425
X5.0084Y-2.2572
X5.0094Y-2.2327
X5.0123Y-2.33
X5.0228Y-2.7347
X5.028Y-2.2572
X5.0296Y-2.3641
X5.0383Y-2.1798
X5.0392Y-2.2854
X5.0425Y-2.1669
X5.0445Y-2.7984
X5.0472Y-2.5304
X5.0645Y-2.7873
X5.0689Y-2.3661
X5.0709Y-2.2598
X5.0787Y-2.774
X5.0803Y-2.3632
X5.093Y-2.3084
X5.1046Y-2.3321
X5.1063Y-2.2559
X5.1114Y-2.7469
X5.1157Y-2.3594
X5.1201Y-2.2953
X5.122Y-2.6122
X5.122Y-2.6713
X5.122Y-2.6319
X5.122Y-2.6516
X5.1228Y-2.2819
X5.1243Y-2.3676
X5.1283Y-2.3264
X5.1366Y-2.2795
X5.1425Y-2.3559
X5.1449Y-2.6776
X5.1492Y-2.3949
X5.1496Y-2.6598
X5.1503Y-2.4852
X5.1841Y-2.6201
X5.1866Y-2.3359
X5.187Y-2.3217
X5.187Y-2.5955
X5.2079Y-2.3988
X5.2106Y-2.5709
X5.2161Y-2.4134
T2
X4.1535Y-1.2598
X4.1535Y-1.5354
X4.1535Y-1.9685
X4.1535Y-2.3622
X4.1535Y-2.7559
X4.1535Y-3.1102
X4.3705Y-2.9752
X4.3898Y-2.8346
X4.4213Y-2.0866
X4.5311Y-2.328
X4.5551Y-2.4205
X4.5909Y-2.5307
X4.6035Y-2.6453
X4.6568Y-2.2001
X4.661Y-2.3429
X4.6654Y-3.1102
X4.6693Y-1.9291
X4.6783Y-2.3181
X4.7047Y-1.2598
X4.7461Y-2.1705
X4.7689Y-2.1724
X4.8165Y-2.136
X4.9626Y-2.3642
X4.9803Y-1.2598
X4.9816Y-2.5709
X4.9817Y-1.9218
X5.0358Y-2.5827
X5.0591Y-3.1102
X5.0906Y-2.687
X5.0921Y-2.639
X5.1272Y-1.8622
X5.1565Y-2.2766
X5.195Y-2.1442
X5.378Y-2.7756
X5.3981Y-2.206
X5.5709Y-1.2598
X5.5709Y-1.6142
X5.5709Y-2.0472
X5.5709Y-2.5197
X5.5709Y-2.9921
T3
X4.6622Y-1.5058
X4.6622Y-1.6058
X4.7622Y-1.5058
X4.7622Y-1.6058
X4.8622Y-1.5058
X4.8622Y-1.6058
X4.9622Y-1.5058
X4.9622Y-1.6058
X5.0622Y-1.5058
X5.0622Y-1.6058
T0
M30
