G04  This is an RS-274-X Gerber File.  *G04  Beginning of Image Parameters  *%FSLAX26Y26*%%MOIN*%%IPPOS*%%ASAXBY*%%SFA1B1*%%MIA0B0*%%IOA0B0*%%IR0*%%OFA0B0*%G04  End of Image Parameters  *G04  Beginning of Aperture Definitions  *%ADD10C,0.040000*%%ADD11R,0.059060X0.059060*%%ADD12C,0.011800*%%ADD13C,0.009840*%%ADD14C,0.007860*%%ADD15R,0.011020X0.011020*%%ADD16C,0.011020*%%ADD17R,0.009840X0.009840*%%ADD18R,0.011600X0.011600*%%ADD19C,0.011600*%%ADD20R,0.006260X0.006260*%%ADD21C,0.006260*%%ADD22C,0.001000*%%ADD23C,0.002000*%%ADD24C,0.008000*%%ADD25R,0.019680X0.019680*%%ADD26R,0.014760X0.014760*%%ADD27R,0.015740X0.015740*%%ADD28R,0.007480X0.007480*%%ADD29C,0.007480*%%ADD30R,0.009060X0.009060*%%ADD31R,0.013780X0.013780*%%ADD32C,0.004920*%%ADD33C,0.004720*%%ADD34C,0.007000*%%ADD35C,0.006000*%%ADD36C,0.003940*%%ADD37C,0.005900*%%ADD38C,0.126000*%%ADD39C,0.006680*%%ADD40R,0.019480X0.019480*%%ADD41C,0.002160*%%ADD42R,0.017720X0.017720*%%ADD43C,0.017720*%%ADD44R,0.005900X0.005900*%%ADD45C,0.019680*%%ADD46C,0.015740*%%ADD47R,0.029520X0.029520*%%ADD48R,0.017220X0.017220*%%ADD49C,0.017220*%%ADD50R,0.023620X0.023620*%%ADD51R,0.011800X0.011800*%%ADD52R,0.026760X0.026760*%%ADD53C,0.002760*%%ADD54R,0.034640X0.034640*%%ADD55R,0.010000X0.010000*%%ADD56C,0.005000*%G04  End of Aperture Definitions  *%LPD*%G75*G01*D02*D38*X250000Y250000D03*D02*D38*Y9037400D03*D02*D38*X2584650Y250000D03*D02*D38*Y9037400D03*D02*D38*X3202750Y8624020D03*D02*D38*Y250000D03*D02*D38*X5710620Y8624020D03*D02*D38*Y250000D03*D02*D38*X6328720Y8624020D03*D02*D38*Y250000D03*D02*D38*X8836590Y8624020D03*D02*D38*Y250000D03*D02*%SRX1Y1I0J0*%*%LPC*%G75*G01*%LPD*%G75*G01*D02*D22*X500000Y2157480D02*X2334650D01*Y500000*X500000*Y2157480*D02*D22*X1488190Y1801180D02*X1487700Y1807390D01*X1486230Y1813440*X1483830Y1819190*X1480550Y1824480*X1476480Y1829190*X1471720Y1833210*X1466390Y1836420*X1460610Y1838750*X1454540Y1840130*X1448820Y1840550*D02*D22*X1488190Y773620D02*Y816930D01*D02*D22*X732280Y773620D02*X732780Y767420D01*X734240Y761360*X736640Y755620*X739920Y750320*X743990Y745610*X748750Y741600*X754090Y738390*X759860Y736060*X765930Y734670*X771650Y734250*D02*D22*X732280Y1490160D02*Y1801180D01*D02*D22*X1375990Y734250D02*X1448820D01*D02*D22*X771650Y1840550D02*X1448820D01*D02*D22*Y734250D02*X1455030Y734750D01*X1461080Y736210*X1466830Y738610*X1472120Y741890*X1476830Y745960*X1480840Y750720*X1484050Y756060*X1486380Y761830*X1487770Y767900*X1488190Y773620*D02*D22*X1053150Y734250D02*X1218500D01*D02*D22*X1017720D02*X771650D01*D02*D22*X1488190Y816930D02*Y1377950D01*D02*D22*Y1539370D02*Y1722440D01*D02*D22*Y1801180D02*Y1722440D01*D02*D22*X1375990Y812930D02*X1369780Y812440D01*X1363730Y810970*X1357990Y808570*X1352700Y805290*X1347990Y801220*X1343980Y796460*X1340770Y791130*X1338450Y785350*X1337060Y779290*X1336650Y773070*X1337220Y766880*X1338770Y760850*X1341240Y755140*X1344590Y749890*X1348720Y745230*X1353540Y741290*X1358910Y738150*X1364720Y735900*X1370800Y734600*X1375990Y734250*D02*D22*X732280Y1490160D02*X732780Y1483950D01*X734240Y1477900*X736640Y1472160*X739920Y1466870*X743990Y1462160*X748750Y1458150*X754090Y1454940*X759860Y1452620*X765930Y1451230*X772140Y1450820*X778340Y1451400*X784370Y1452940*X790080Y1455420*X795330Y1458760*X799980Y1462900*X803930Y1467710*X807060Y1473090*X809310Y1478890*X810620Y1484980*X810960Y1490160*D02*D22*X1409510Y1539370D02*X1410010Y1533170D01*X1411470Y1527120*X1413870Y1521370*X1417150Y1516080*X1421220Y1511370*X1425980Y1507360*X1431320Y1504160*X1437090Y1501830*X1443160Y1500450*X1449370Y1500040*X1455570Y1500610*X1461600Y1502150*X1467310Y1504630*X1472560Y1507980*X1477210Y1512110*X1481160Y1516920*X1484290Y1522300*X1486540Y1528100*X1487850Y1534190*X1488190Y1539370*D02*D22*X771650Y1840550D02*X765450Y1840060D01*X759390Y1838590*X753650Y1836190*X748350Y1832920*X743640Y1828850*X739630Y1824080*X736420Y1818750*X734090Y1812970*X732700Y1806900*X732280Y1801180*D02*D22*X1218500Y734250D02*X1224710Y734750D01*X1230760Y736210*X1236500Y738610*X1241790Y741890*X1246500Y745960*X1250510Y750720*X1253720Y756060*X1256040Y761830*X1257430Y767900*X1257840Y774110*X1257270Y780310*X1255720Y786340*X1253250Y792050*X1249900Y797300*X1245770Y801950*X1240950Y805900*X1235580Y809030*X1229770Y811280*X1223690Y812590*X1218500Y812930*D02*D22*X1488190Y1377950D02*X1487700Y1384160D01*X1486230Y1390210*X1483830Y1395950*X1480550Y1401240*X1476480Y1405950*X1471720Y1409960*X1466390Y1413170*X1460610Y1415490*X1454540Y1416880*X1448330Y1417290*X1442140Y1416710*X1436110Y1415170*X1430400Y1412690*X1425150Y1409350*X1420490Y1405220*X1416550Y1400400*X1413410Y1395030*X1411160Y1389220*X1409860Y1383130*X1409510Y1377950*D02*D22*X810960Y1332680D02*X810470Y1338880D01*X809000Y1344930*X806600Y1350680*X803330Y1355970*X799260Y1360680*X794490Y1364690*X789160Y1367890*X783390Y1370220*X777320Y1371600*X771110Y1372010*X764910Y1371440*X758880Y1369890*X753170Y1367420*X747920Y1364070*X743260Y1359940*X739320Y1355130*X736180Y1349750*X733930Y1343950*X732630Y1337860*X732280Y1332680*Y773620*D02*D22*X810960Y812930D02*X1009840D01*D02*D22*X1409510D02*Y1377950D01*D02*D22*Y1565410D02*X1373280Y1726440D01*X851210*X810960Y1565450*Y1490160*D02*D22*X1061020Y812930D02*X1218500D01*D02*D22*X1051180Y799210D02*Y803090D01*D02*D22*X1027560Y748030D02*X1027070Y751100D01*X1025650Y753860*X1024680Y754990*D02*D22*X1043310Y748030D02*X1043800Y744280D01*X1045240Y740790*X1047530Y737780*X1050520Y735460*X1053150Y734250*D02*D22*X1017720D02*X1021100Y735930D01*X1023950Y738430*X1026050Y741570*X1027270Y745150*X1027560Y748030*D02*D22*X1046190Y754990D02*X1061020Y779530D01*D02*D22*X1046190Y754990D02*X1044370Y752480D01*X1043420Y749520*X1043310Y748030*D02*D22*X1019690Y803090D02*X1019200Y806150D01*X1017780Y808910*X1015570Y811090*X1012790Y812480*X1009840Y812930*D02*D22*X1061020D02*X1057960Y812440D01*X1055200Y811020*X1053020Y808810*X1051630Y806040*X1051180Y803090*D02*D22*X1019690D02*Y799210D01*D02*D22*X1009840Y789370D02*X1012910Y789860D01*X1015670Y791280*X1017850Y793490*X1019230Y796270*X1019690Y799210*D02*D22*X1009840Y789370D02*Y779530D01*X1024680Y754990*D02*D22*X1051180Y799210D02*X1051670Y796150D01*X1053090Y793390*X1055300Y791210*X1058080Y789820*X1061020Y789370*D02*D22*Y779530D02*Y789370D01*D02*D22*X1375990Y812930D02*X1409510D01*D02*D22*Y1539370D02*Y1565410D01*D02*D22*X810960Y1332680D02*Y812930D01*D02*D22*X500000Y3814960D02*X2334650D01*Y2157480*X500000*Y3814960*D02*D22*X1488190Y3458660D02*X1487700Y3464870D01*X1486230Y3470920*X1483830Y3476670*X1480550Y3481960*X1476480Y3486670*X1471720Y3490690*X1466390Y3493900*X1460610Y3496230*X1454540Y3497610*X1448820Y3498030*D02*D22*X1488190Y2431100D02*Y2474410D01*D02*D22*X732280Y2431100D02*X732780Y2424900D01*X734240Y2418840*X736640Y2413100*X739920Y2407800*X743990Y2403090*X748750Y2399080*X754090Y2395870*X759860Y2393540*X765930Y2392150*X771650Y2391730*D02*D22*X732280Y3147640D02*Y3458660D01*D02*D22*X1375990Y2391730D02*X1448820D01*D02*D22*X771650Y3498030D02*X1448820D01*D02*D22*Y2391730D02*X1455030Y2392230D01*X1461080Y2393690*X1466830Y2396090*X1472120Y2399370*X1476830Y2403440*X1480840Y2408200*X1484050Y2413540*X1486380Y2419310*X1487770Y2425380*X1488190Y2431100*D02*D22*X1053150Y2391730D02*X1218500D01*D02*D22*X1017720D02*X771650D01*D02*D22*X1488190Y2474410D02*Y3035430D01*D02*D22*Y3196850D02*Y3379920D01*D02*D22*Y3458660D02*Y3379920D01*D02*D22*X1375990Y2470410D02*X1369780Y2469920D01*X1363730Y2468450*X1357990Y2466050*X1352700Y2462780*X1347990Y2458700*X1343980Y2453940*X1340770Y2448610*X1338450Y2442830*X1337060Y2436770*X1336650Y2430550*X1337220Y2424360*X1338770Y2418330*X1341240Y2412620*X1344590Y2407370*X1348720Y2402710*X1353540Y2398770*X1358910Y2395630*X1364720Y2393380*X1370800Y2392080*X1375990Y2391730*D02*D22*X732280Y3147640D02*X732780Y3141430D01*X734240Y3135380*X736640Y3129640*X739920Y3124350*X743990Y3119640*X748750Y3115630*X754090Y3112420*X759860Y3110100*X765930Y3108710*X772140Y3108300*X778340Y3108880*X784370Y3110420*X790080Y3112900*X795330Y3116240*X799980Y3120380*X803930Y3125190*X807060Y3130570*X809310Y3136370*X810620Y3142460*X810960Y3147640*D02*D22*X1409510Y3196850D02*X1410010Y3190650D01*X1411470Y3184600*X1413870Y3178850*X1417150Y3173560*X1421220Y3168850*X1425980Y3164840*X1431320Y3161640*X1437090Y3159310*X1443160Y3157930*X1449370Y3157520*X1455570Y3158090*X1461600Y3159630*X1467310Y3162110*X1472560Y3165460*X1477210Y3169590*X1481160Y3174400*X1484290Y3179780*X1486540Y3185580*X1487850Y3191670*X1488190Y3196850*D02*D22*X771650Y3498030D02*X765450Y3497540D01*X759390Y3496070*X753650Y3493670*X748350Y3490400*X743640Y3486330*X739630Y3481560*X736420Y3476230*X734090Y3470450*X732700Y3464380*X732280Y3458660*D02*D22*X1218500Y2391730D02*X1224710Y2392230D01*X1230760Y2393690*X1236500Y2396090*X1241790Y2399370*X1246500Y2403440*X1250510Y2408200*X1253720Y2413540*X1256040Y2419310*X1257430Y2425380*X1257840Y2431590*X1257270Y2437790*X1255720Y2443820*X1253250Y2449530*X1249900Y2454780*X1245770Y2459430*X1240950Y2463380*X1235580Y2466510*X1229770Y2468760*X1223690Y2470070*X1218500Y2470410*D02*D22*X1488190Y3035430D02*X1487700Y3041640D01*X1486230Y3047690*X1483830Y3053430*X1480550Y3058720*X1476480Y3063430*X1471720Y3067440*X1466390Y3070650*X1460610Y3072970*X1454540Y3074360*X1448330Y3074770*X1442140Y3074200*X1436110Y3072650*X1430400Y3070170*X1425150Y3066830*X1420490Y3062700*X1416550Y3057880*X1413410Y3052510*X1411160Y3046700*X1409860Y3040620*X1409510Y3035430*D02*D22*X810960Y2990160D02*X810470Y2996360D01*X809000Y3002410*X806600Y3008160*X803330Y3013450*X799260Y3018160*X794490Y3022170*X789160Y3025370*X783390Y3027700*X777320Y3029080*X771110Y3029490*X764910Y3028920*X758880Y3027380*X753170Y3024900*X747920Y3021550*X743260Y3017420*X739320Y3012610*X736180Y3007230*X733930Y3001430*X732630Y2995340*X732280Y2990160*Y2431100*D02*D22*X810960Y2470410D02*X1009840D01*D02*D22*X1409510D02*Y3035430D01*D02*D22*Y3222890D02*X1373280Y3383920D01*X851210*X810960Y3222930*Y3147640*D02*D22*X1061020Y2470410D02*X1218500D01*D02*D22*X1051180Y2456690D02*Y2460570D01*D02*D22*X1027560Y2405510D02*X1027070Y2408580D01*X1025650Y2411340*X1024680Y2412470*D02*D22*X1043310Y2405510D02*X1043800Y2401760D01*X1045240Y2398270*X1047530Y2395260*X1050520Y2392940*X1053150Y2391730*D02*D22*X1017720D02*X1021100Y2393410D01*X1023950Y2395910*X1026050Y2399050*X1027270Y2402630*X1027560Y2405510*D02*D22*X1046190Y2412470D02*X1061020Y2437010D01*D02*D22*X1046190Y2412470D02*X1044370Y2409960D01*X1043420Y2407000*X1043310Y2405510*D02*D22*X1019690Y2460570D02*X1019200Y2463630D01*X1017780Y2466390*X1015570Y2468570*X1012790Y2469960*X1009840Y2470410*D02*D22*X1061020D02*X1057960Y2469920D01*X1055200Y2468500*X1053020Y2466290*X1051630Y2463520*X1051180Y2460570*D02*D22*X1019690D02*Y2456690D01*D02*D22*X1009840Y2446850D02*X1012910Y2447340D01*X1015670Y2448760*X1017850Y2450970*X1019230Y2453750*X1019690Y2456690*D02*D22*X1009840Y2446850D02*Y2437010D01*X1024680Y2412470*D02*D22*X1051180Y2456690D02*X1051670Y2453630D01*X1053090Y2450870*X1055300Y2448690*X1058080Y2447300*X1061020Y2446850*D02*D22*Y2437010D02*Y2446850D01*D02*D22*X1375990Y2470410D02*X1409510D01*D02*D22*Y3196850D02*Y3222890D01*D02*D22*X810960Y2990160D02*Y2470410D01*D02*D22*X500000Y5472440D02*X2334650D01*Y3814960*X500000*Y5472440*D02*D22*X1488190Y5116140D02*X1487700Y5122350D01*X1486230Y5128400*X1483830Y5134150*X1480550Y5139440*X1476480Y5144160*X1471720Y5148170*X1466390Y5151380*X1460610Y5153710*X1454540Y5155090*X1448820Y5155510*D02*D22*X1488190Y4088580D02*Y4131890D01*D02*D22*X732280Y4088580D02*X732780Y4082380D01*X734240Y4076320*X736640Y4070580*X739920Y4065280*X743990Y4060570*X748750Y4056560*X754090Y4053350*X759860Y4051020*X765930Y4049630*X771650Y4049210*D02*D22*X732280Y4805120D02*Y5116140D01*D02*D22*X1375990Y4049210D02*X1448820D01*D02*D22*X771650Y5155510D02*X1448820D01*D02*D22*Y4049210D02*X1455030Y4049710D01*X1461080Y4051170*X1466830Y4053570*X1472120Y4056850*X1476830Y4060920*X1480840Y4065680*X1484050Y4071020*X1486380Y4076790*X1487770Y4082860*X1488190Y4088580*D02*D22*X1053150Y4049210D02*X1218500D01*D02*D22*X1017720D02*X771650D01*D02*D22*X1488190Y4131890D02*Y4692910D01*D02*D22*Y4854330D02*Y5037400D01*D02*D22*Y5116140D02*Y5037400D01*D02*D22*X1375990Y4127890D02*X1369780Y4127400D01*X1363730Y4125930*X1357990Y4123530*X1352700Y4120260*X1347990Y4116190*X1343980Y4111420*X1340770Y4106090*X1338450Y4100310*X1337060Y4094250*X1336650Y4088030*X1337220Y4081840*X1338770Y4075810*X1341240Y4070100*X1344590Y4064850*X1348720Y4060190*X1353540Y4056250*X1358910Y4053110*X1364720Y4050860*X1370800Y4049560*X1375990Y4049210*D02*D22*X732280Y4805120D02*X732780Y4798910D01*X734240Y4792860*X736640Y4787120*X739920Y4781830*X743990Y4777120*X748750Y4773110*X754090Y4769910*X759860Y4767580*X765930Y4766190*X772140Y4765780*X778340Y4766360*X784370Y4767900*X790080Y4770380*X795330Y4773720*X799980Y4777860*X803930Y4782670*X807060Y4788050*X809310Y4793850*X810620Y4799940*X810960Y4805120*D02*D22*X1409510Y4854330D02*X1410010Y4848130D01*X1411470Y4842080*X1413870Y4836330*X1417150Y4831040*X1421220Y4826330*X1425980Y4822320*X1431320Y4819120*X1437090Y4816790*X1443160Y4815410*X1449370Y4815000*X1455570Y4815570*X1461600Y4817110*X1467310Y4819590*X1472560Y4822940*X1477210Y4827070*X1481160Y4831880*X1484290Y4837260*X1486540Y4843060*X1487850Y4849150*X1488190Y4854330*D02*D22*X771650Y5155510D02*X765450Y5155020D01*X759390Y5153560*X753650Y5151150*X748350Y5147880*X743640Y5143810*X739630Y5139040*X736420Y5133710*X734090Y5127930*X732700Y5121860*X732280Y5116140*D02*D22*X1218500Y4049210D02*X1224710Y4049710D01*X1230760Y4051170*X1236500Y4053570*X1241790Y4056850*X1246500Y4060920*X1250510Y4065680*X1253720Y4071020*X1256040Y4076790*X1257430Y4082860*X1257840Y4089070*X1257270Y4095270*X1255720Y4101300*X1253250Y4107010*X1249900Y4112260*X1245770Y4116910*X1240950Y4120860*X1235580Y4123990*X1229770Y4126240*X1223690Y4127550*X1218500Y4127890*D02*D22*X1488190Y4692910D02*X1487700Y4699120D01*X1486230Y4705170*X1483830Y4710910*X1480550Y4716200*X1476480Y4720910*X1471720Y4724920*X1466390Y4728130*X1460610Y4730450*X1454540Y4731840*X1448330Y4732250*X1442140Y4731680*X1436110Y4730130*X1430400Y4727650*X1425150Y4724310*X1420490Y4720180*X1416550Y4715360*X1413410Y4709990*X1411160Y4704180*X1409860Y4698100*X1409510Y4692910*D02*D22*X810960Y4647640D02*X810470Y4653840D01*X809000Y4659890*X806600Y4665640*X803330Y4670930*X799260Y4675640*X794490Y4679650*X789160Y4682850*X783390Y4685180*X777320Y4686560*X771110Y4686970*X764910Y4686400*X758880Y4684860*X753170Y4682380*X747920Y4679030*X743260Y4674900*X739320Y4670090*X736180Y4664710*X733930Y4658910*X732630Y4652820*X732280Y4647640*Y4088580*D02*D22*X810960Y4127890D02*X1009840D01*D02*D22*X1409510D02*Y4692910D01*D02*D22*Y4880370D02*X1373280Y5041400D01*X851210*X810960Y4880410*Y4805120*D02*D22*X1061020Y4127890D02*X1218500D01*D02*D22*X1051180Y4114170D02*Y4118050D01*D02*D22*X1027560Y4062990D02*X1027070Y4066060D01*X1025650Y4068820*X1024680Y4069950*D02*D22*X1043310Y4062990D02*X1043800Y4059240D01*X1045240Y4055750*X1047530Y4052740*X1050520Y4050420*X1053150Y4049210*D02*D22*X1017720D02*X1021100Y4050890D01*X1023950Y4053390*X1026050Y4056530*X1027270Y4060110*X1027560Y4062990*D02*D22*X1046190Y4069950D02*X1061020Y4094490D01*D02*D22*X1046190Y4069950D02*X1044370Y4067440D01*X1043420Y4064480*X1043310Y4062990*D02*D22*X1019690Y4118050D02*X1019200Y4121110D01*X1017780Y4123870*X1015570Y4126050*X1012790Y4127440*X1009840Y4127890*D02*D22*X1061020D02*X1057960Y4127400D01*X1055200Y4125980*X1053020Y4123770*X1051630Y4121000*X1051180Y4118050*D02*D22*X1019690D02*Y4114170D01*D02*D22*X1009840Y4104330D02*X1012910Y4104820D01*X1015670Y4106240*X1017850Y4108450*X1019230Y4111230*X1019690Y4114170*D02*D22*X1009840Y4104330D02*Y4094490D01*X1024680Y4069950*D02*D22*X1051180Y4114170D02*X1051670Y4111110D01*X1053090Y4108350*X1055300Y4106170*X1058080Y4104780*X1061020Y4104330*D02*D22*Y4094490D02*Y4104330D01*D02*D22*X1375990Y4127890D02*X1409510D01*D02*D22*Y4854330D02*Y4880370D01*D02*D22*X810960Y4647640D02*Y4127890D01*D02*D22*X500000Y7129920D02*X2334650D01*Y5472440*X500000*Y7129920*D02*D22*X1488190Y6773620D02*X1487700Y6779830D01*X1486230Y6785880*X1483830Y6791630*X1480550Y6796920*X1476480Y6801640*X1471720Y6805650*X1466390Y6808860*X1460610Y6811190*X1454540Y6812580*X1448820Y6812990*D02*D22*X1488190Y5746060D02*Y5789370D01*D02*D22*X732280Y5746060D02*X732780Y5739860D01*X734240Y5733800*X736640Y5728060*X739920Y5722760*X743990Y5718050*X748750Y5714040*X754090Y5710830*X759860Y5708500*X765930Y5707110*X771650Y5706690*D02*D22*X732280Y6462600D02*Y6773620D01*D02*D22*X1375990Y5706690D02*X1448820D01*D02*D22*X771650Y6812990D02*X1448820D01*D02*D22*Y5706690D02*X1455030Y5707190D01*X1461080Y5708650*X1466830Y5711050*X1472120Y5714330*X1476830Y5718400*X1480840Y5723160*X1484050Y5728500*X1486380Y5734270*X1487770Y5740340*X1488190Y5746060*D02*D22*X1053150Y5706690D02*X1218500D01*D02*D22*X1017720D02*X771650D01*D02*D22*X1488190Y5789370D02*Y6350390D01*D02*D22*Y6511810D02*Y6694880D01*D02*D22*Y6773620D02*Y6694880D01*D02*D22*X1375990Y5785370D02*X1369780Y5784880D01*X1363730Y5783410*X1357990Y5781010*X1352700Y5777740*X1347990Y5773670*X1343980Y5768900*X1340770Y5763570*X1338450Y5757790*X1337060Y5751730*X1336650Y5745520*X1337220Y5739320*X1338770Y5733290*X1341240Y5727580*X1344590Y5722330*X1348720Y5717670*X1353540Y5713730*X1358910Y5710590*X1364720Y5708340*X1370800Y5707040*X1375990Y5706690*D02*D22*X732280Y6462600D02*X732780Y6456390D01*X734240Y6450340*X736640Y6444600*X739920Y6439310*X743990Y6434600*X748750Y6430590*X754090Y6427390*X759860Y6425060*X765930Y6423670*X772140Y6423260*X778340Y6423840*X784370Y6425380*X790080Y6427860*X795330Y6431200*X799980Y6435340*X803930Y6440150*X807060Y6445530*X809310Y6451330*X810620Y6457420*X810960Y6462600*D02*D22*X1409510Y6511810D02*X1410010Y6505610D01*X1411470Y6499560*X1413870Y6493810*X1417150Y6488520*X1421220Y6483810*X1425980Y6479800*X1431320Y6476600*X1437090Y6474270*X1443160Y6472890*X1449370Y6472480*X1455570Y6473050*X1461600Y6474600*X1467310Y6477070*X1472560Y6480420*X1477210Y6484550*X1481160Y6489360*X1484290Y6494740*X1486540Y6500540*X1487850Y6506630*X1488190Y6511810*D02*D22*X771650Y6812990D02*X765450Y6812500D01*X759390Y6811040*X753650Y6808630*X748350Y6805360*X743640Y6801290*X739630Y6796520*X736420Y6791190*X734090Y6785410*X732700Y6779340*X732280Y6773620*D02*D22*X1218500Y5706690D02*X1224710Y5707190D01*X1230760Y5708650*X1236500Y5711050*X1241790Y5714330*X1246500Y5718400*X1250510Y5723160*X1253720Y5728500*X1256040Y5734270*X1257430Y5740340*X1257840Y5746550*X1257270Y5752750*X1255720Y5758780*X1253250Y5764490*X1249900Y5769740*X1245770Y5774390*X1240950Y5778340*X1235580Y5781470*X1229770Y5783720*X1223690Y5785030*X1218500Y5785370*D02*D22*X1488190Y6350390D02*X1487700Y6356600D01*X1486230Y6362650*X1483830Y6368390*X1480550Y6373680*X1476480Y6378390*X1471720Y6382400*X1466390Y6385610*X1460610Y6387930*X1454540Y6389320*X1448330Y6389730*X1442140Y6389160*X1436110Y6387610*X1430400Y6385140*X1425150Y6381790*X1420490Y6377660*X1416550Y6372840*X1413410Y6367470*X1411160Y6361660*X1409860Y6355580*X1409510Y6350390*D02*D22*X810960Y6305120D02*X810470Y6311320D01*X809000Y6317370*X806600Y6323120*X803330Y6328410*X799260Y6333120*X794490Y6337130*X789160Y6340330*X783390Y6342660*X777320Y6344040*X771110Y6344450*X764910Y6343880*X758880Y6342340*X753170Y6339860*X747920Y6336510*X743260Y6332380*X739320Y6327570*X736180Y6322190*X733930Y6316390*X732630Y6310300*X732280Y6305120*Y5746060*D02*D22*X810960Y5785370D02*X1009840D01*D02*D22*X1409510D02*Y6350390D01*D02*D22*Y6537850D02*X1373280Y6698880D01*X851210*X810960Y6537900*Y6462600*D02*D22*X1061020Y5785370D02*X1218500D01*D02*D22*X1051180Y5771650D02*Y5775530D01*D02*D22*X1027560Y5720470D02*X1027070Y5723540D01*X1025650Y5726300*X1024680Y5727430*D02*D22*X1043310Y5720470D02*X1043800Y5716720D01*X1045240Y5713230*X1047530Y5710220*X1050520Y5707900*X1053150Y5706690*D02*D22*X1017720D02*X1021100Y5708370D01*X1023950Y5710870*X1026050Y5714010*X1027270Y5717590*X1027560Y5720470*D02*D22*X1046190Y5727430D02*X1061020Y5751970D01*D02*D22*X1046190Y5727430D02*X1044370Y5724920D01*X1043420Y5721960*X1043310Y5720470*D02*D22*X1019690Y5775530D02*X1019200Y5778590D01*X1017780Y5781350*X1015570Y5783530*X1012790Y5784920*X1009840Y5785370*D02*D22*X1061020D02*X1057960Y5784880D01*X1055200Y5783460*X1053020Y5781250*X1051630Y5778480*X1051180Y5775530*D02*D22*X1019690D02*Y5771650D01*D02*D22*X1009840Y5761810D02*X1012910Y5762300D01*X1015670Y5763720*X1017850Y5765930*X1019230Y5768710*X1019690Y5771650*D02*D22*X1009840Y5761810D02*Y5751970D01*X1024680Y5727430*D02*D22*X1051180Y5771650D02*X1051670Y5768590D01*X1053090Y5765830*X1055300Y5763650*X1058080Y5762260*X1061020Y5761810*D02*D22*Y5751970D02*Y5761810D01*D02*D22*X1375990Y5785370D02*X1409510D01*D02*D22*Y6511810D02*Y6537850D01*D02*D22*X810960Y6305120D02*Y5785370D01*D02*D22*X500000Y8787400D02*X2334650D01*Y7129920*X500000*Y8787400*D02*D22*X1488190Y8431100D02*X1487700Y8437310D01*X1486230Y8443360*X1483830Y8449110*X1480550Y8454400*X1476480Y8459120*X1471720Y8463130*X1466390Y8466340*X1460610Y8468670*X1454540Y8470060*X1448820Y8470470*D02*D22*X1488190Y7403540D02*Y7446850D01*D02*D22*X732280Y7403540D02*X732780Y7397340D01*X734240Y7391280*X736640Y7385540*X739920Y7380240*X743990Y7375530*X748750Y7371520*X754090Y7368310*X759860Y7365980*X765930Y7364590*X771650Y7364170*D02*D22*X732280Y8120080D02*Y8431100D01*D02*D22*X1375990Y7364170D02*X1448820D01*D02*D22*X771650Y8470470D02*X1448820D01*D02*D22*Y7364170D02*X1455030Y7364670D01*X1461080Y7366130*X1466830Y7368530*X1472120Y7371810*X1476830Y7375880*X1480840Y7380640*X1484050Y7385980*X1486380Y7391750*X1487770Y7397820*X1488190Y7403540*D02*D22*X1053150Y7364170D02*X1218500D01*D02*D22*X1017720D02*X771650D01*D02*D22*X1488190Y7446850D02*Y8007870D01*D02*D22*Y8169290D02*Y8352360D01*D02*D22*Y8431100D02*Y8352360D01*D02*D22*X1375990Y7442850D02*X1369780Y7442360D01*X1363730Y7440890*X1357990Y7438490*X1352700Y7435220*X1347990Y7431150*X1343980Y7426380*X1340770Y7421050*X1338450Y7415270*X1337060Y7409210*X1336650Y7403000*X1337220Y7396800*X1338770Y7390770*X1341240Y7385060*X1344590Y7379810*X1348720Y7375150*X1353540Y7371210*X1358910Y7368070*X1364720Y7365820*X1370800Y7364520*X1375990Y7364170*D02*D22*X732280Y8120080D02*X732780Y8113870D01*X734240Y8107830*X736640Y8102080*X739920Y8096790*X743990Y8092080*X748750Y8088070*X754090Y8084870*X759860Y8082540*X765930Y8081160*X772140Y8080740*X778340Y8081320*X784370Y8082860*X790080Y8085340*X795330Y8088690*X799980Y8092820*X803930Y8097630*X807060Y8103010*X809310Y8108810*X810620Y8114900*X810960Y8120080*D02*D22*X1409510Y8169290D02*X1410010Y8163090D01*X1411470Y8157040*X1413870Y8151290*X1417150Y8146000*X1421220Y8141290*X1425980Y8137290*X1431320Y8134080*X1437090Y8131750*X1443160Y8130370*X1449370Y8129960*X1455570Y8130530*X1461600Y8132080*X1467310Y8134550*X1472560Y8137900*X1477210Y8142030*X1481160Y8146840*X1484290Y8152220*X1486540Y8158020*X1487850Y8164110*X1488190Y8169290*D02*D22*X771650Y8470470D02*X765450Y8469980D01*X759390Y8468520*X753650Y8466110*X748350Y8462840*X743640Y8458770*X739630Y8454000*X736420Y8448670*X734090Y8442890*X732700Y8436820*X732280Y8431100*D02*D22*X1218500Y7364170D02*X1224710Y7364670D01*X1230760Y7366130*X1236500Y7368530*X1241790Y7371810*X1246500Y7375880*X1250510Y7380640*X1253720Y7385980*X1256040Y7391750*X1257430Y7397820*X1257840Y7404030*X1257270Y7410230*X1255720Y7416260*X1253250Y7421970*X1249900Y7427220*X1245770Y7431870*X1240950Y7435820*X1235580Y7438950*X1229770Y7441200*X1223690Y7442510*X1218500Y7442850*D02*D22*X1488190Y8007870D02*X1487700Y8014080D01*X1486230Y8020130*X1483830Y8025870*X1480550Y8031160*X1476480Y8035870*X1471720Y8039880*X1466390Y8043090*X1460610Y8045410*X1454540Y8046800*X1448330Y8047210*X1442140Y8046640*X1436110Y8045090*X1430400Y8042620*X1425150Y8039270*X1420490Y8035140*X1416550Y8030320*X1413410Y8024950*X1411160Y8019140*X1409860Y8013060*X1409510Y8007870*D02*D22*X810960Y7962600D02*X810470Y7968800D01*X809000Y7974850*X806600Y7980600*X803330Y7985890*X799260Y7990600*X794490Y7994610*X789160Y7997810*X783390Y8000140*X777320Y8001520*X771110Y8001930*X764910Y8001360*X758880Y7999820*X753170Y7997340*X747920Y7993990*X743260Y7989860*X739320Y7985050*X736180Y7979670*X733930Y7973870*X732630Y7967780*X732280Y7962600*Y7403540*D02*D22*X810960Y7442850D02*X1009840D01*D02*D22*X1409510D02*Y8007880D01*D02*D22*Y8195330D02*X1373280Y8356360D01*X851210*X810960Y8195380*Y8120080*D02*D22*X1061020Y7442850D02*X1218500D01*D02*D22*X1051180Y7429130D02*Y7433010D01*D02*D22*X1027560Y7377950D02*X1027070Y7381020D01*X1025650Y7383780*X1024680Y7384910*D02*D22*X1043310Y7377950D02*X1043800Y7374200D01*X1045240Y7370710*X1047530Y7367700*X1050520Y7365380*X1053150Y7364170*D02*D22*X1017720D02*X1021100Y7365850D01*X1023950Y7368350*X1026050Y7371490*X1027270Y7375070*X1027560Y7377950*D02*D22*X1046190Y7384910D02*X1061020Y7409450D01*D02*D22*X1046190Y7384910D02*X1044370Y7382400D01*X1043420Y7379440*X1043310Y7377950*D02*D22*X1019690Y7433010D02*X1019200Y7436070D01*X1017780Y7438830*X1015570Y7441010*X1012790Y7442400*X1009840Y7442850*D02*D22*X1061020D02*X1057960Y7442360D01*X1055200Y7440940*X1053020Y7438730*X1051630Y7435960*X1051180Y7433010*D02*D22*X1019690D02*Y7429130D01*D02*D22*X1009840Y7419290D02*X1012910Y7419780D01*X1015670Y7421200*X1017850Y7423410*X1019230Y7426190*X1019690Y7429130*D02*D22*X1009840Y7419290D02*Y7409450D01*X1024680Y7384910*D02*D22*X1051180Y7429130D02*X1051670Y7426070D01*X1053090Y7423310*X1055300Y7421130*X1058080Y7419740*X1061020Y7419290*D02*D22*Y7409450D02*Y7419290D01*D02*D22*X1375990Y7442850D02*X1409510D01*D02*D22*Y8169290D02*Y8195330D01*D02*D22*X810960Y7962600D02*Y7442850D01*D02*D22*X0Y9287400D02*X2834650D01*Y0*X0*Y9287400*D02*D22*X2334650D02*Y0D01*D02*D22*X500000Y9287400D02*Y0D01*D02*D22*X2834650Y2157480D02*X0D01*D02*D22*Y500000D02*X2834650D01*D02*D22*Y3814960D02*X0D01*D02*D22*X2834650Y5472440D02*X0D01*D02*D22*X2834650Y7129920D02*X0D01*D02*D22*Y8787400D02*X2834650D01*D02*D22*X5460620Y2074800D02*Y500000D01*X3452750*Y2074800*X5460620*D02*D22*X5078200Y1096320D02*X5074930Y1090380D01*X5072560Y1084030*X5071140Y1077400*X5070690Y1070640*X5071230Y1063880*X5072740Y1057280*X5075190Y1050960*X5078530Y1045060*X5082690Y1039710*X5087580Y1035020*X5093110Y1031090*X5099140Y1028000*X5105560Y1025820*X5112220Y1024590*X5118990Y1024340*X5125730Y1025080*X5132290Y1026780*X5138540Y1029420*X5144330Y1032940*X5149560Y1037250*X5154100Y1042280*X5157480Y1047240*X5168040Y1066040*X5177730Y1085310*X5186540Y1104990*X5194430Y1125060*X5201400Y1145470*X5207420Y1166180*X5212500Y1187140*X5216600Y1208310*X5219740Y1229640*X5221890Y1251100*X5223070Y1272630*X5223250Y1294190*X5222450Y1315740*X5220670Y1337240*X5217900Y1358620*X5214160Y1379860*X5209450Y1400900*X5203780Y1421710*X5197160Y1442240*X5189620Y1462440*X5181160Y1482270*X5171800Y1501700*X5161560Y1520680*X5150460Y1539170*X5138530Y1557130*X5125790Y1574530*X5112260Y1591330*X5097990Y1607490*X5082980Y1622980*X5067290Y1637770*X5050930Y1651820*X5033950Y1665120*X5016380Y1677620*X4998260Y1689300*X4979620Y1700150*X4960500Y1710130*X4940950Y1719220*X4921000Y1727410*X4900690Y1734680*X4880080Y1741010*X4859200Y1746390*X4838090Y1750820*X4816800Y1754270*X4795380Y1756740*X4773870Y1758230*X4752310Y1758740*X4730750Y1758260*X4709240Y1756790*X4687810Y1754340*X4666520Y1750920*X4645410Y1746520*X4624520Y1741160*X4603900Y1734850*X4583590Y1727610*X4563630Y1719440*X4544060Y1710370*X4524940Y1700410*X4511810Y1692910*D02*D22*X4425730Y1478480D02*X4428990Y1484420D01*X4431360Y1490770*X4432790Y1497400*X4433240Y1504160*X4432700Y1510920*X4431190Y1517530*X4428740Y1523850*X4425400Y1529740*X4421230Y1535090*X4416340Y1539780*X4410820Y1543710*X4404790Y1546800*X4398370Y1548980*X4391700Y1550210*X4384930Y1550460*X4378190Y1549720*X4371630Y1548020*X4365390Y1545380*X4359590Y1541870*X4354370Y1537550*X4349830Y1532520*X4346450Y1527560*X4335900Y1508770*X4326210Y1489520*X4317420Y1469850*X4309540Y1449800*X4302580Y1429400*X4296560Y1408710*X4291500Y1387760*X4287400Y1366610*X4284280Y1345290*X4282130Y1323850*X4280970Y1302330*X4280790Y1280780*X4281610Y1259250*X4283400Y1237770*X4286180Y1216410*X4289930Y1195190*X4294650Y1174160*X4300330Y1153370*X4306950Y1132870*X4314510Y1112690*X4322980Y1092870*X4332350Y1073470*X4342600Y1054510*X4353700Y1036050*X4365640Y1018110*X4378390Y1000730*X4391920Y983960*X4406200Y967830*X4421210Y952360*X4436910Y937600*X4453270Y923580*X4470250Y910320*X4487820Y897840*X4505950Y886190*X4524590Y875380*X4543710Y865430*X4563260Y856370*X4583200Y848210*X4603500Y840980*X4624110Y834680*X4644980Y829330*X4666080Y824950*X4687350Y821530*X4708760Y819090*X4730260Y817630*X4751810Y817160*X4773350Y817680*X4794850Y819180*X4816250Y821670*X4837520Y825130*X4858610Y829560*X4879470Y834960*X4900060Y841300*X4920350Y848580*X4940270Y856780*X4959810Y865880*X4978900Y875870*X4996060Y885830*D02*D22*X4511810Y1692910D02*X4506330Y1688920D01*X4501490Y1684170*X4497400Y1678770*X4494120Y1672840*X4491750Y1666490*X4490320Y1659870*X4489860Y1653110*X4490390Y1646350*X4491890Y1639740*X4494340Y1633420*X4497670Y1627520*X4501830Y1622170*X4506720Y1617480*X4512230Y1613540*X4518260Y1610450*X4524680Y1608260*X4531340Y1607020*X4538110Y1606770*X4544850Y1607500*X4551410Y1609200*X4557660Y1611830*X4560880Y1613640*D02*D22*X4996060Y885830D02*X5001010Y890400D01*X5005240Y895650*X5008660Y901460*X5011200Y907710*X5012800Y914260*X5013430Y920970*X5013070Y927700*X5011740Y934310*X5009460Y940660*X5006270Y946600*X5002260Y952020*X4997500Y956790*X4992090Y960820*X4986160Y964020*X4979820Y966320*X4973210Y967670*X4966480Y968040*X4959770Y967430*X4953210Y965850*X4946960Y963320*X4943240Y961280*D02*D22*X4427660Y1481740D02*X4418160Y1464930D01*X4409530Y1447650*X4401790Y1429950*X4394970Y1411880*X4389070Y1393490*X4384130Y1374810*X4380150Y1355920*X4377130Y1336840*X4375100Y1317630*X4374040Y1298340*X4373980Y1279030*X4374900Y1259740*X4376800Y1240510*X4379690Y1221420*X4383540Y1202490*X4388360Y1183790*X4394130Y1165350*X4400830Y1147240*X4408440Y1129490*X4416960Y1112150*X4426340Y1095270*X4436580Y1078890*X4447640Y1063050*X4459500Y1047810*X4472120Y1033180*X4485460Y1019220*X4499510Y1005960*X4514210Y993440*X4529530Y981680*X4545440Y970720*X4561880Y960580*X4578820Y951300*X4596210Y942900*X4614010Y935390*X4632160Y928810*X4650630Y923160*X4669370Y918460*X4688320Y914720*X4707440Y911960*X4726670Y910170*X4745970Y909370*X4765280Y909560*X4784560Y910730*X4803750Y912890*X4822810Y916020*X4841690Y920120*X4860330Y925190*X4878680Y931190*X4896710Y938130*X4914360Y945980*X4931580Y954720*X4944520Y962030*D02*D22*X5076270Y1093060D02*X5085770Y1109880D01*X5094400Y1127150*X5102140Y1144850*X5108960Y1162920*X5114850Y1181320*X5119800Y1199990*X5123780Y1218890*X5126800Y1237970*X5128830Y1257170*X5129880Y1276460*X5129950Y1295770*X5129030Y1315070*X5127120Y1334290*X5124240Y1353390*X5120380Y1372310*X5115570Y1391020*X5109800Y1409450*X5103100Y1427570*X5095480Y1445320*X5086970Y1462650*X5077580Y1479530*X5067350Y1495910*X5056290Y1511750*X5044430Y1527000*X5031810Y1541620*X5018460Y1555580*X5004420Y1568840*X4989720Y1581370*X4974390Y1593130*X4958490Y1604090*X4942050Y1614220*X4925110Y1623500*X4907720Y1631910*X4889920Y1639410*X4871760Y1646000*X4853290Y1651650*X4834560Y1656350*X4815610Y1660080*X4796490Y1662850*X4777260Y1664630*X4757960Y1665430*X4738650Y1665250*X4719370Y1664070*X4700170Y1661920*X4681120Y1658780*X4662240Y1654680*X4643600Y1649620*X4625240Y1643610*X4607220Y1636670*X4589570Y1628830*X4572340Y1620090*X4559370Y1612750*D02*D22*X5460620Y3649610D02*Y2074800D01*X3452750*Y3649610*X5460620*D02*D22*X5078200Y2671120D02*X5074930Y2665180D01*X5072560Y2658830*X5071140Y2652210*X5070690Y2645440*X5071230Y2638690*X5072740Y2632080*X5075190Y2625760*X5078530Y2619860*X5082690Y2614520*X5087580Y2609830*X5093110Y2605890*X5099140Y2602810*X5105560Y2600620*X5112220Y2599390*X5118990Y2599150*X5125730Y2599880*X5132290Y2601590*X5138540Y2604220*X5144330Y2607740*X5149560Y2612060*X5154100Y2617090*X5157480Y2622050*X5168040Y2640850*X5177730Y2660110*X5186540Y2679800*X5194430Y2699860*X5201400Y2720270*X5207420Y2740980*X5212500Y2761940*X5216600Y2783110*X5219740Y2804440*X5221890Y2825900*X5223070Y2847430*X5223250Y2869000*X5222450Y2890550*X5220670Y2912040*X5217900Y2933420*X5214160Y2954660*X5209450Y2975710*X5203780Y2996510*X5197160Y3017040*X5189620Y3037240*X5181160Y3057080*X5171800Y3076500*X5161560Y3095480*X5150460Y3113970*X5138530Y3131930*X5125790Y3149330*X5112260Y3166130*X5097990Y3182290*X5082980Y3197780*X5067290Y3212570*X5050930Y3226630*X5033950Y3239920*X5016380Y3252420*X4998260Y3264110*X4979620Y3274950*X4960500Y3284930*X4940950Y3294020*X4921000Y3302210*X4900690Y3309480*X4880080Y3315810*X4859200Y3321200*X4838090Y3325620*X4816800Y3329070*X4795380Y3331540*X4773870Y3333040*X4752310Y3333540*X4730750Y3333060*X4709240Y3331590*X4687810Y3329150*X4666520Y3325720*X4645410Y3321320*X4624520Y3315960*X4603900Y3309650*X4583590Y3302410*X4563630Y3294240*X4544060Y3285170*X4524940Y3275210*X4511810Y3267720*D02*D22*X4425730Y3053290D02*X4428990Y3059230D01*X4431360Y3065580*X4432790Y3072200*X4433240Y3078970*X4432700Y3085720*X4431190Y3092330*X4428740Y3098650*X4425400Y3104550*X4421230Y3109890*X4416340Y3114580*X4410820Y3118520*X4404790Y3121600*X4398370Y3123790*X4391700Y3125010*X4384930Y3125260*X4378190Y3124530*X4371630Y3122820*X4365390Y3120190*X4359590Y3116670*X4354370Y3112350*X4349830Y3107320*X4346450Y3102360*X4335900Y3083580*X4326210Y3064330*X4317420Y3044650*X4309540Y3024600*X4302580Y3004200*X4296560Y2983510*X4291500Y2962570*X4287400Y2941410*X4284280Y2920090*X4282130Y2898650*X4280970Y2877130*X4280790Y2855580*X4281610Y2834050*X4283400Y2812580*X4286180Y2791210*X4289930Y2769990*X4294650Y2748960*X4300330Y2728180*X4306950Y2707670*X4314510Y2687490*X4322980Y2667680*X4332350Y2648270*X4342600Y2629320*X4353700Y2610850*X4365640Y2592910*X4378390Y2575540*X4391920Y2558770*X4406200Y2542630*X4421210Y2527170*X4436910Y2512410*X4453270Y2498380*X4470250Y2485120*X4487820Y2472650*X4505950Y2460990*X4524590Y2450180*X4543710Y2440240*X4563260Y2431170*X4583200Y2423020*X4603500Y2415780*X4624110Y2409480*X4644980Y2404140*X4666080Y2399750*X4687350Y2396330*X4708760Y2393890*X4730260Y2392440*X4751810Y2391970*X4773350Y2392480*X4794850Y2393990*X4816250Y2396470*X4837520Y2399930*X4858610Y2404370*X4879470Y2409760*X4900060Y2416100*X4920350Y2423380*X4940270Y2431580*X4959810Y2440680*X4978900Y2450670*X4996060Y2460630*D02*D22*X4511810Y3267720D02*X4506330Y3263720D01*X4501490Y3258980*X4497400Y3253580*X4494120Y3247640*X4491750Y3241300*X4490320Y3234670*X4489860Y3227910*X4490390Y3221150*X4491890Y3214550*X4494340Y3208230*X4497670Y3202330*X4501830Y3196970*X4506720Y3192280*X4512230Y3188340*X4518260Y3185250*X4524680Y3183060*X4531340Y3181830*X4538110Y3181570*X4544850Y3182300*X4551410Y3184000*X4557660Y3186630*X4560880Y3188440*D02*D22*X4996060Y2460630D02*X5001010Y2465210D01*X5005240Y2470460*X5008660Y2476270*X5011200Y2482510*X5012800Y2489060*X5013430Y2495770*X5013070Y2502510*X5011740Y2509120*X5009460Y2515460*X5006270Y2521400*X5002260Y2526820*X4997500Y2531590*X4992090Y2535620*X4986160Y2538820*X4979820Y2541120*X4973210Y2542470*X4966480Y2542840*X4959770Y2542230*X4953210Y2540650*X4946960Y2538130*X4943240Y2536080*D02*D22*X4427660Y3056550D02*X4418160Y3039730D01*X4409530Y3022450*X4401790Y3004750*X4394970Y2986680*X4389070Y2968290*X4384130Y2949620*X4380150Y2930720*X4377130Y2911640*X4375100Y2892430*X4374040Y2873150*X4373980Y2853830*X4374900Y2834540*X4376800Y2815320*X4379690Y2796220*X4383540Y2777290*X4388360Y2758590*X4394130Y2740150*X4400830Y2722040*X4408440Y2704290*X4416960Y2686950*X4426340Y2670070*X4436580Y2653690*X4447640Y2637860*X4459500Y2622610*X4472120Y2607990*X4485460Y2594020*X4499510Y2580760*X4514210Y2568240*X4529530Y2556480*X4545440Y2545520*X4561880Y2535390*X4578820Y2526100*X4596210Y2517700*X4614010Y2510200*X4632160Y2503610*X4650630Y2497960*X4669370Y2493260*X4688320Y2489520*X4707440Y2486760*X4726670Y2484970*X4745970Y2484170*X4765280Y2484360*X4784560Y2485540*X4803750Y2487690*X4822810Y2490820*X4841690Y2494930*X4860330Y2499990*X4878680Y2506000*X4896710Y2512930*X4914360Y2520780*X4931580Y2529520*X4944520Y2536830*D02*D22*X5076270Y2667860D02*X5085770Y2684680D01*X5094400Y2701960*X5102140Y2719660*X5108960Y2737730*X5114850Y2756120*X5119800Y2774790*X5123780Y2793690*X5126800Y2812770*X5128830Y2831980*X5129880Y2851260*X5129950Y2870580*X5129030Y2889870*X5127120Y2909090*X5124240Y2928190*X5120380Y2947120*X5115570Y2965820*X5109800Y2984250*X5103100Y3002370*X5095480Y3020120*X5086970Y3037460*X5077580Y3054340*X5067350Y3070720*X5056290Y3086550*X5044430Y3101800*X5031810Y3116420*X5018460Y3130380*X5004420Y3143640*X4989720Y3156170*X4974390Y3167930*X4958490Y3178890*X4942050Y3189020*X4925110Y3198310*X4907720Y3206710*X4889920Y3214210*X4871760Y3220800*X4853290Y3226450*X4834560Y3231150*X4815610Y3234890*X4796490Y3237650*X4777260Y3239440*X4757960Y3240240*X4738650Y3240050*X4719370Y3238880*X4700170Y3236720*X4681120Y3233590*X4662240Y3229480*X4643600Y3224420*X4625240Y3218410*X4607220Y3211480*X4589570Y3203630*X4572340Y3194890*X4559370Y3187550*D02*D22*X5460620Y5224410D02*Y3649610D01*X3452750*Y5224410*X5460620*D02*D22*X5078200Y4245930D02*X5074930Y4239990D01*X5072560Y4233640*X5071140Y4227010*X5070690Y4220250*X5071230Y4213490*X5072740Y4206880*X5075190Y4200560*X5078530Y4194670*X5082690Y4189320*X5087580Y4184630*X5093110Y4180700*X5099140Y4177610*X5105560Y4175430*X5112220Y4174200*X5118990Y4173950*X5125730Y4174680*X5132290Y4176390*X5138540Y4179030*X5144330Y4182540*X5149560Y4186860*X5154100Y4191890*X5157480Y4196850*X5168040Y4215650*X5177730Y4234910*X5186540Y4254600*X5194430Y4274670*X5201400Y4295080*X5207420Y4315780*X5212500Y4336740*X5216600Y4357910*X5219740Y4379250*X5221890Y4400700*X5223070Y4422240*X5223250Y4443800*X5222450Y4465350*X5220670Y4486840*X5217900Y4508230*X5214160Y4529470*X5209450Y4550510*X5203780Y4571320*X5197160Y4591840*X5189620Y4612040*X5181160Y4631880*X5171800Y4651310*X5161560Y4670280*X5150460Y4688770*X5138530Y4706740*X5125790Y4724140*X5112260Y4740930*X5097990Y4757100*X5082980Y4772590*X5067290Y4787380*X5050930Y4801430*X5033950Y4814720*X5016380Y4827220*X4998260Y4838910*X4979620Y4849750*X4960500Y4859730*X4940950Y4868830*X4921000Y4877020*X4900690Y4884280*X4880080Y4890620*X4859200Y4896000*X4838090Y4900420*X4816800Y4903870*X4795380Y4906350*X4773870Y4907840*X4752310Y4908350*X4730750Y4907860*X4709240Y4906400*X4687810Y4903950*X4666520Y4900520*X4645410Y4896120*X4624520Y4890770*X4603900Y4884460*X4583590Y4877210*X4563630Y4869050*X4544060Y4859970*X4524940Y4850020*X4511810Y4842520*D02*D22*X4425730Y4628090D02*X4428990Y4634030D01*X4431360Y4640380*X4432790Y4647010*X4433240Y4653770*X4432700Y4660530*X4431190Y4667130*X4428740Y4673450*X4425400Y4679350*X4421230Y4684700*X4416340Y4689390*X4410820Y4693320*X4404790Y4696410*X4398370Y4698590*X4391700Y4699820*X4384930Y4700070*X4378190Y4699330*X4371630Y4697630*X4365390Y4694990*X4359590Y4691470*X4354370Y4687160*X4349830Y4682130*X4346450Y4677170*X4335900Y4658380*X4326210Y4639130*X4317420Y4619460*X4309540Y4599400*X4302580Y4579010*X4296560Y4558320*X4291500Y4537370*X4287400Y4516210*X4284280Y4494890*X4282130Y4473450*X4280970Y4451940*X4280790Y4430390*X4281610Y4408850*X4283400Y4387380*X4286180Y4366010*X4289930Y4344790*X4294650Y4323770*X4300330Y4302980*X4306950Y4282470*X4314510Y4262290*X4322980Y4242480*X4332350Y4223080*X4342600Y4204120*X4353700Y4185650*X4365640Y4167710*X4378390Y4150340*X4391920Y4133570*X4406200Y4117430*X4421210Y4101970*X4436910Y4087210*X4453270Y4073180*X4470250Y4059920*X4487820Y4047450*X4505950Y4035800*X4524590Y4024990*X4543710Y4015040*X4563260Y4005980*X4583200Y3997820*X4603500Y3990590*X4624110Y3984290*X4644980Y3978940*X4666080Y3974550*X4687350Y3971140*X4708760Y3968700*X4730260Y3967240*X4751810Y3966770*X4773350Y3967290*X4794850Y3968790*X4816250Y3971270*X4837520Y3974740*X4858610Y3979170*X4879470Y3984560*X4900060Y3990900*X4920350Y3998180*X4940270Y4006380*X4959810Y4015490*X4978900Y4025470*X4996060Y4035430*D02*D22*X4511810Y4842520D02*X4506330Y4838530D01*X4501490Y4833780*X4497400Y4828380*X4494120Y4822450*X4491750Y4816100*X4490320Y4809480*X4489860Y4802710*X4490390Y4795960*X4491890Y4789350*X4494340Y4783030*X4497670Y4777130*X4501830Y4771780*X4506720Y4767080*X4512230Y4763150*X4518260Y4760050*X4524680Y4757860*X4531340Y4756630*X4538110Y4756380*X4544850Y4757100*X4551410Y4758800*X4557660Y4761440*X4560880Y4763240*D02*D22*X4996060Y4035430D02*X5001010Y4040010D01*X5005240Y4045260*X5008660Y4051070*X5011200Y4057320*X5012800Y4063860*X5013430Y4070580*X5013070Y4077310*X5011740Y4083920*X5009460Y4090260*X5006270Y4096210*X5002260Y4101620*X4997500Y4106400*X4992090Y4110430*X4986160Y4113620*X4979820Y4115920*X4973210Y4117270*X4966480Y4117650*X4959770Y4117040*X4953210Y4115450*X4946960Y4112930*X4943240Y4110890*D02*D22*X4427660Y4631350D02*X4418160Y4614530D01*X4409530Y4597250*X4401790Y4579560*X4394970Y4561490*X4389070Y4543090*X4384130Y4524420*X4380150Y4505520*X4377130Y4486440*X4375100Y4467240*X4374040Y4447950*X4373980Y4428630*X4374900Y4409340*X4376800Y4390120*X4379690Y4371020*X4383540Y4352100*X4388360Y4333390*X4394130Y4314960*X4400830Y4296840*X4408440Y4279090*X4416960Y4261750*X4426340Y4244870*X4436580Y4228500*X4447640Y4212660*X4459500Y4197410*X4472120Y4182790*X4485460Y4168830*X4499510Y4155570*X4514210Y4143040*X4529530Y4131280*X4545440Y4120320*X4561880Y4110190*X4578820Y4100910*X4596210Y4092500*X4614010Y4085000*X4632160Y4078410*X4650630Y4072760*X4669370Y4068060*X4688320Y4064330*X4707440Y4061560*X4726670Y4059780*X4745970Y4058980*X4765280Y4059170*X4784560Y4060340*X4803750Y4062490*X4822810Y4065630*X4841690Y4069730*X4860330Y4074790*X4878680Y4080800*X4896710Y4087740*X4914360Y4095580*X4931580Y4104320*X4944520Y4111640*D02*D22*X5076270Y4242670D02*X5085770Y4259480D01*X5094400Y4276760*X5102140Y4294460*X5108960Y4312530*X5114850Y4330920*X5119800Y4349590*X5123780Y4368490*X5126800Y4387570*X5128830Y4406780*X5129880Y4426070*X5129950Y4445380*X5129030Y4464670*X5127120Y4483890*X5124240Y4502990*X5120380Y4521920*X5115570Y4540620*X5109800Y4559060*X5103100Y4577170*X5095480Y4594920*X5086970Y4612260*X5077580Y4629140*X5067350Y4645520*X5056290Y4661350*X5044430Y4676600*X5031810Y4691230*X5018460Y4705190*X5004420Y4718450*X4989720Y4730970*X4974390Y4742730*X4958490Y4753690*X4942050Y4763830*X4925110Y4773110*X4907720Y4781510*X4889920Y4789020*X4871760Y4795600*X4853290Y4801250*X4834560Y4805950*X4815610Y4809690*X4796490Y4812450*X4777260Y4814240*X4757960Y4815040*X4738650Y4814850*X4719370Y4813680*X4700170Y4811520*X4681120Y4808390*X4662240Y4804290*X4643600Y4799220*X4625240Y4793220*X4607220Y4786280*X4589570Y4778430*X4572340Y4769690*X4559370Y4762360*D02*D22*X5460620Y6799210D02*Y5224410D01*X3452750*Y6799210*X5460620*D02*D22*X5078200Y5820730D02*X5074930Y5814790D01*X5072560Y5808440*X5071140Y5801810*X5070690Y5795050*X5071230Y5788290*X5072740Y5781690*X5075190Y5775370*X5078530Y5769470*X5082690Y5764120*X5087580Y5759430*X5093110Y5755500*X5099140Y5752410*X5105560Y5750230*X5112220Y5749000*X5118990Y5748750*X5125730Y5749490*X5132290Y5751190*X5138540Y5753830*X5144330Y5757340*X5149560Y5761660*X5154100Y5766690*X5157480Y5771650*X5168040Y5790450*X5177730Y5809720*X5186540Y5829400*X5194430Y5849470*X5201400Y5869880*X5207420Y5890590*X5212500Y5911540*X5216600Y5932710*X5219740Y5954050*X5221890Y5975510*X5223070Y5997040*X5223250Y6018600*X5222450Y6040150*X5220670Y6061640*X5217900Y6083030*X5214160Y6104270*X5209450Y6125310*X5203780Y6146120*X5197160Y6166640*X5189620Y6186850*X5181160Y6206680*X5171800Y6226110*X5161560Y6245090*X5150460Y6263580*X5138530Y6281540*X5125790Y6298940*X5112260Y6315740*X5097990Y6331900*X5082980Y6347390*X5067290Y6362180*X5050930Y6376230*X5033950Y6389530*X5016380Y6402030*X4998260Y6413710*X4979620Y6424560*X4960500Y6434530*X4940950Y6443630*X4921000Y6451820*X4900690Y6459090*X4880080Y6465420*X4859200Y6470800*X4838090Y6475230*X4816800Y6478680*X4795380Y6481150*X4773870Y6482640*X4752310Y6483150*X4730750Y6482670*X4709240Y6481200*X4687810Y6478750*X4666520Y6475330*X4645410Y6470930*X4624520Y6465570*X4603900Y6459260*X4583590Y6452020*X4563630Y6443850*X4544060Y6434780*X4524940Y6424820*X4511810Y6417320*D02*D22*X4425730Y6202890D02*X4428990Y6208830D01*X4431360Y6215180*X4432790Y6221810*X4433240Y6228570*X4432700Y6235330*X4431190Y6241940*X4428740Y6248260*X4425400Y6254150*X4421230Y6259500*X4416340Y6264190*X4410820Y6268120*X4404790Y6271210*X4398370Y6273390*X4391700Y6274620*X4384930Y6274870*X4378190Y6274130*X4371630Y6272430*X4365390Y6269790*X4359590Y6266280*X4354370Y6261960*X4349830Y6256930*X4346450Y6251970*X4335900Y6233180*X4326210Y6213930*X4317420Y6194260*X4309540Y6174210*X4302580Y6153810*X4296560Y6133120*X4291500Y6112170*X4287400Y6091020*X4284280Y6069700*X4282130Y6048260*X4280970Y6026740*X4280790Y6005190*X4281610Y5983660*X4283400Y5962180*X4286180Y5940810*X4289930Y5919600*X4294650Y5898570*X4300330Y5877780*X4306950Y5857280*X4314510Y5837100*X4322980Y5817280*X4332350Y5797880*X4342600Y5778920*X4353700Y5760460*X4365640Y5742520*X4378390Y5725140*X4391920Y5708370*X4406200Y5692240*X4421210Y5676770*X4436910Y5662010*X4453270Y5647990*X4470250Y5634720*X4487820Y5622250*X4505950Y5610600*X4524590Y5599790*X4543710Y5589840*X4563260Y5580780*X4583200Y5572620*X4603500Y5565390*X4624110Y5559090*X4644980Y5553740*X4666080Y5549360*X4687350Y5545940*X4708760Y5543500*X4730260Y5542040*X4751810Y5541570*X4773350Y5542090*X4794850Y5543590*X4816250Y5546080*X4837520Y5549540*X4858610Y5553970*X4879470Y5559360*X4900060Y5565710*X4920350Y5572990*X4940270Y5581190*X4959810Y5590290*X4978900Y5600280*X4996060Y5610240*D02*D22*X4511810Y6417320D02*X4506330Y6413330D01*X4501490Y6408580*X4497400Y6403180*X4494120Y6397250*X4491750Y6390900*X4490320Y6384280*X4489860Y6377520*X4490390Y6370760*X4491890Y6364150*X4494340Y6357830*X4497670Y6351930*X4501830Y6346580*X4506720Y6341880*X4512230Y6337950*X4518260Y6334850*X4524680Y6332670*X4531340Y6331430*X4538110Y6331180*X4544850Y6331910*X4551410Y6333610*X4557660Y6336240*X4560880Y6338050*D02*D22*X4996060Y5610240D02*X5001010Y5614810D01*X5005240Y5620060*X5008660Y5625870*X5011200Y5632120*X5012800Y5638670*X5013430Y5645380*X5013070Y5652110*X5011740Y5658720*X5009460Y5665070*X5006270Y5671010*X5002260Y5676430*X4997500Y5681200*X4992090Y5685230*X4986160Y5688430*X4979820Y5690730*X4973210Y5692080*X4966480Y5692450*X4959770Y5691840*X4953210Y5690250*X4946960Y5687730*X4943240Y5685690*D02*D22*X4427660Y6206150D02*X4418160Y6189340D01*X4409530Y6172060*X4401790Y6154360*X4394970Y6136290*X4389070Y6117900*X4384130Y6099220*X4380150Y6080320*X4377130Y6061250*X4375100Y6042040*X4374040Y6022750*X4373980Y6003440*X4374900Y5984140*X4376800Y5964920*X4379690Y5945830*X4383540Y5926900*X4388360Y5908200*X4394130Y5889760*X4400830Y5871650*X4408440Y5853900*X4416960Y5836560*X4426340Y5819680*X4436580Y5803300*X4447640Y5787460*X4459500Y5772220*X4472120Y5757590*X4485460Y5743630*X4499510Y5730370*X4514210Y5717850*X4529530Y5706090*X4545440Y5695130*X4561880Y5684990*X4578820Y5675710*X4596210Y5667310*X4614010Y5659800*X4632160Y5653220*X4650630Y5647570*X4669370Y5642870*X4688320Y5639130*X4707440Y5636360*X4726670Y5634580*X4745970Y5633780*X4765280Y5633970*X4784560Y5635140*X4803750Y5637300*X4822810Y5640430*X4841690Y5644530*X4860330Y5649600*X4878680Y5655600*X4896710Y5662540*X4914360Y5670390*X4931580Y5679130*X4944520Y5686440*D02*D22*X5076270Y5817470D02*X5085770Y5834280D01*X5094400Y5851560*X5102140Y5869260*X5108960Y5887330*X5114850Y5905730*X5119800Y5924400*X5123780Y5943300*X5126800Y5962380*X5128830Y5981580*X5129880Y6000870*X5129950Y6020180*X5129030Y6039480*X5127120Y6058700*X5124240Y6077800*X5120380Y6096720*X5115570Y6115430*X5109800Y6133860*X5103100Y6151980*X5095480Y6169730*X5086970Y6187060*X5077580Y6203940*X5067350Y6220320*X5056290Y6236160*X5044430Y6251410*X5031810Y6266030*X5018460Y6279990*X5004420Y6293250*X4989720Y6305780*X4974390Y6317540*X4958490Y6328500*X4942050Y6338630*X4925110Y6347910*X4907720Y6356320*X4889920Y6363820*X4871760Y6370410*X4853290Y6376060*X4834560Y6380760*X4815610Y6384490*X4796490Y6387260*X4777260Y6389040*X4757960Y6389840*X4738650Y6389650*X4719370Y6388480*X4700170Y6386330*X4681120Y6383190*X4662240Y6379090*X4643600Y6374030*X4625240Y6368020*X4607220Y6361080*X4589570Y6353240*X4572340Y6344500*X4559370Y6337160*D02*D22*X5460620Y8374020D02*Y6799210D01*X3452750*Y8374020*X5460620*D02*D22*X5078200Y7395530D02*X5074930Y7389590D01*X5072560Y7383240*X5071140Y7376620*X5070690Y7369850*X5071230Y7363100*X5072740Y7356490*X5075190Y7350170*X5078530Y7344270*X5082690Y7338920*X5087580Y7334230*X5093110Y7330300*X5099140Y7327210*X5105560Y7325030*X5112220Y7323800*X5118990Y7323560*X5125730Y7324290*X5132290Y7326000*X5138540Y7328630*X5144330Y7332150*X5149560Y7336470*X5154100Y7341500*X5157480Y7346460*X5168040Y7365260*X5177730Y7384520*X5186540Y7404210*X5194430Y7424270*X5201400Y7444680*X5207420Y7465390*X5212500Y7486350*X5216600Y7507520*X5219740Y7528850*X5221890Y7550310*X5223070Y7571840*X5223250Y7593410*X5222450Y7614960*X5220670Y7636450*X5217900Y7657830*X5214160Y7679070*X5209450Y7700120*X5203780Y7720920*X5197160Y7741450*X5189620Y7761650*X5181160Y7781480*X5171800Y7800910*X5161560Y7819890*X5150460Y7838380*X5138530Y7856340*X5125790Y7873740*X5112260Y7890540*X5097990Y7906700*X5082980Y7922190*X5067290Y7936980*X5050930Y7951040*X5033950Y7964330*X5016380Y7976830*X4998260Y7988520*X4979620Y7999360*X4960500Y8009340*X4940950Y8018430*X4921000Y8026620*X4900690Y8033890*X4880080Y8040220*X4859200Y8045610*X4838090Y8050030*X4816800Y8053480*X4795380Y8055950*X4773870Y8057450*X4752310Y8057950*X4730750Y8057470*X4709240Y8056000*X4687810Y8053560*X4666520Y8050130*X4645410Y8045730*X4624520Y8040370*X4603900Y8034060*X4583590Y8026820*X4563630Y8018650*X4544060Y8009580*X4524940Y7999620*X4511810Y7992130*D02*D22*X4425730Y7777700D02*X4428990Y7783640D01*X4431360Y7789990*X4432790Y7796610*X4433240Y7803380*X4432700Y7810130*X4431190Y7816740*X4428740Y7823060*X4425400Y7828950*X4421230Y7834300*X4416340Y7838990*X4410820Y7842930*X4404790Y7846010*X4398370Y7848200*X4391700Y7849420*X4384930Y7849670*X4378190Y7848940*X4371630Y7847230*X4365390Y7844590*X4359590Y7841080*X4354370Y7836760*X4349830Y7831730*X4346450Y7826770*X4335900Y7807990*X4326210Y7788740*X4317420Y7769060*X4309540Y7749010*X4302580Y7728610*X4296560Y7707920*X4291500Y7686980*X4287400Y7665820*X4284280Y7644500*X4282130Y7623060*X4280970Y7601540*X4280790Y7579990*X4281610Y7558460*X4283400Y7536990*X4286180Y7515620*X4289930Y7494400*X4294650Y7473370*X4300330Y7452590*X4306950Y7432080*X4314510Y7411900*X4322980Y7392090*X4332350Y7372680*X4342600Y7353730*X4353700Y7335260*X4365640Y7317320*X4378390Y7299950*X4391920Y7283180*X4406200Y7267040*X4421210Y7251580*X4436910Y7236820*X4453270Y7222790*X4470250Y7209530*X4487820Y7197060*X4505950Y7185400*X4524590Y7174590*X4543710Y7164640*X4563260Y7155580*X4583200Y7147430*X4603500Y7140190*X4624110Y7133890*X4644980Y7128550*X4666080Y7124160*X4687350Y7120740*X4708760Y7118300*X4730260Y7116850*X4751810Y7116380*X4773350Y7116890*X4794850Y7118400*X4816250Y7120880*X4837520Y7124340*X4858610Y7128770*X4879470Y7134170*X4900060Y7140510*X4920350Y7147790*X4940270Y7155990*X4959810Y7165090*X4978900Y7175080*X4996060Y7185040*D02*D22*X4511810Y7992130D02*X4506330Y7988130D01*X4501490Y7983380*X4497400Y7977990*X4494120Y7972050*X4491750Y7965710*X4490320Y7959080*X4489860Y7952320*X4490390Y7945560*X4491890Y7938960*X4494340Y7932630*X4497670Y7926740*X4501830Y7921380*X4506720Y7916690*X4512230Y7912750*X4518260Y7909660*X4524680Y7907470*X4531340Y7906240*X4538110Y7905980*X4544850Y7906710*X4551410Y7908410*X4557660Y7911040*X4560880Y7912850*D02*D22*X4996060Y7185040D02*X5001010Y7189620D01*X5005240Y7194870*X5008660Y7200680*X5011200Y7206920*X5012800Y7213470*X5013430Y7220180*X5013070Y7226920*X5011740Y7233530*X5009460Y7239870*X5006270Y7245810*X5002260Y7251230*X4997500Y7256000*X4992090Y7260030*X4986160Y7263230*X4979820Y7265530*X4973210Y7266880*X4966480Y7267250*X4959770Y7266640*X4953210Y7265060*X4946960Y7262540*X4943240Y7260490*D02*D22*X4427660Y7780960D02*X4418160Y7764140D01*X4409530Y7746860*X4401790Y7729160*X4394970Y7711090*X4389070Y7692700*X4384130Y7674030*X4380150Y7655130*X4377130Y7636050*X4375100Y7616840*X4374040Y7597560*X4373980Y7578240*X4374900Y7558950*X4376800Y7539730*X4379690Y7520630*X4383540Y7501700*X4388360Y7483000*X4394130Y7464560*X4400830Y7446450*X4408440Y7428700*X4416960Y7411360*X4426340Y7394480*X4436580Y7378100*X4447640Y7362270*X4459500Y7347020*X4472120Y7332390*X4485460Y7318430*X4499510Y7305170*X4514210Y7292650*X4529530Y7280890*X4545440Y7269930*X4561880Y7259790*X4578820Y7250510*X4596210Y7242110*X4614010Y7234600*X4632160Y7228020*X4650630Y7222370*X4669370Y7217670*X4688320Y7213930*X4707440Y7211170*X4726670Y7209380*X4745970Y7208580*X4765280Y7208770*X4784560Y7209940*X4803750Y7212100*X4822810Y7215230*X4841690Y7219340*X4860330Y7224400*X4878680Y7230410*X4896710Y7237340*X4914360Y7245190*X4931580Y7253930*X4944520Y7261240*D02*D22*X5076270Y7392270D02*X5085770Y7409090D01*X5094400Y7426370*X5102140Y7444070*X5108960Y7462130*X5114850Y7480530*X5119800Y7499200*X5123780Y7518100*X5126800Y7537180*X5128830Y7556390*X5129880Y7575670*X5129950Y7594990*X5129030Y7614280*X5127120Y7633500*X5124240Y7652600*X5120380Y7671530*X5115570Y7690230*X5109800Y7708660*X5103100Y7726780*X5095480Y7744530*X5086970Y7761870*X5077580Y7778750*X5067350Y7795130*X5056290Y7810960*X5044430Y7826210*X5031810Y7840830*X5018460Y7854790*X5004420Y7868050*X4989720Y7880580*X4974390Y7892340*X4958490Y7903300*X4942050Y7913430*X4925110Y7922710*X4907720Y7931120*X4889920Y7938620*X4871760Y7945210*X4853290Y7950860*X4834560Y7955560*X4815610Y7959300*X4796490Y7962060*X4777260Y7963850*X4757960Y7964640*X4738650Y7964460*X4719370Y7963280*X4700170Y7961130*X4681120Y7957990*X4662240Y7953890*X4643600Y7948830*X4625240Y7942820*X4607220Y7935890*X4589570Y7928040*X4572340Y7919300*X4559370Y7911960*D02*D22*X2952750Y8874020D02*X5960620D01*Y0*X2952750*Y8874020*D02*D22*X5460620D02*Y0D01*D02*D22*X3452750Y8874020D02*Y0D01*D02*D22*X5960620Y500000D02*X2952750D01*D02*D22*Y2074800D02*X5960620D01*D02*D22*X2952750Y3649610D02*X5960620D01*D02*D22*X2952750Y5224410D02*X5960620D01*D02*D22*X2952750Y6799210D02*X5960620D01*D02*D22*X2952750Y8374020D02*X5960620D01*D02*D22*X8586590Y2074800D02*Y500000D01*X6578720*Y2074800*X8586590*D02*D22*X8204170Y1096320D02*X8200900Y1090380D01*X8198530Y1084030*X8197110Y1077400*X8196660Y1070640*X8197200Y1063880*X8198710Y1057280*X8201160Y1050960*X8204500Y1045060*X8208660Y1039710*X8213550Y1035020*X8219080Y1031090*X8225110Y1028000*X8231530Y1025820*X8238190Y1024590*X8244960Y1024340*X8251700Y1025080*X8258260Y1026780*X8264510Y1029420*X8270300Y1032940*X8275530Y1037250*X8280070Y1042280*X8283450Y1047240*X8294010Y1066040*X8303700Y1085310*X8312510Y1104990*X8320400Y1125060*X8327370Y1145470*X8333390Y1166180*X8338470Y1187140*X8342570Y1208310*X8345710Y1229640*X8347860Y1251100*X8349040Y1272630*X8349220Y1294190*X8348420Y1315740*X8346640Y1337240*X8343870Y1358620*X8340130Y1379860*X8335420Y1400900*X8329750Y1421710*X8323130Y1442240*X8315590Y1462440*X8307130Y1482270*X8297770Y1501700*X8287530Y1520680*X8276430Y1539170*X8264500Y1557130*X8251760Y1574530*X8238230Y1591330*X8223960Y1607490*X8208950Y1622980*X8193260Y1637770*X8176900Y1651820*X8159920Y1665120*X8142350Y1677620*X8124230Y1689300*X8105590Y1700150*X8086470Y1710130*X8066920Y1719220*X8046970Y1727410*X8026660Y1734680*X8006050Y1741010*X7985170Y1746390*X7964060Y1750820*X7942770Y1754270*X7921350Y1756740*X7899840Y1758230*X7878280Y1758740*X7856720Y1758260*X7835210Y1756790*X7813780Y1754340*X7792490Y1750920*X7771380Y1746520*X7750490Y1741160*X7729870Y1734850*X7709560Y1727610*X7689600Y1719440*X7670030Y1710370*X7650910Y1700410*X7637780Y1692910*D02*D22*X7551700Y1478480D02*X7554960Y1484420D01*X7557330Y1490770*X7558760Y1497400*X7559210Y1504160*X7558670Y1510920*X7557160Y1517530*X7554710Y1523850*X7551370Y1529740*X7547200Y1535090*X7542310Y1539780*X7536790Y1543710*X7530760Y1546800*X7524340Y1548980*X7517670Y1550210*X7510900Y1550460*X7504160Y1549720*X7497600Y1548020*X7491360Y1545380*X7485560Y1541870*X7480340Y1537550*X7475800Y1532520*X7472420Y1527560*X7461870Y1508770*X7452180Y1489520*X7443390Y1469850*X7435510Y1449800*X7428550Y1429400*X7422530Y1408710*X7417470Y1387760*X7413370Y1366610*X7410250Y1345290*X7408100Y1323850*X7406940Y1302330*X7406760Y1280780*X7407580Y1259250*X7409370Y1237770*X7412150Y1216410*X7415900Y1195190*X7420620Y1174160*X7426300Y1153370*X7432920Y1132870*X7440480Y1112690*X7448950Y1092870*X7458320Y1073470*X7468570Y1054510*X7479670Y1036050*X7491610Y1018110*X7504360Y1000730*X7517890Y983960*X7532170Y967830*X7547180Y952360*X7562880Y937600*X7579240Y923580*X7596220Y910320*X7613790Y897840*X7631920Y886190*X7650560Y875380*X7669680Y865430*X7689230Y856370*X7709170Y848210*X7729470Y840980*X7750080Y834680*X7770950Y829330*X7792050Y824950*X7813320Y821530*X7834730Y819090*X7856230Y817630*X7877780Y817160*X7899320Y817680*X7920820Y819180*X7942220Y821670*X7963490Y825130*X7984580Y829560*X8005440Y834960*X8026030Y841300*X8046320Y848580*X8066240Y856780*X8085780Y865880*X8104870Y875870*X8122030Y885830*D02*D22*X7637780Y1692910D02*X7632300Y1688920D01*X7627460Y1684170*X7623370Y1678770*X7620090Y1672840*X7617720Y1666490*X7616290Y1659870*X7615830Y1653110*X7616360Y1646350*X7617860Y1639740*X7620310Y1633420*X7623640Y1627520*X7627800Y1622170*X7632690Y1617480*X7638200Y1613540*X7644230Y1610450*X7650650Y1608260*X7657310Y1607020*X7664080Y1606770*X7670820Y1607500*X7677380Y1609200*X7683630Y1611830*X7686850Y1613640*D02*D22*X8122030Y885830D02*X8126980Y890400D01*X8131210Y895650*X8134630Y901460*X8137170Y907710*X8138770Y914260*X8139400Y920970*X8139040Y927700*X8137710Y934310*X8135430Y940660*X8132240Y946600*X8128230Y952020*X8123470Y956790*X8118060Y960820*X8112130Y964020*X8105790Y966320*X8099180Y967670*X8092450Y968040*X8085740Y967430*X8079180Y965850*X8072930Y963320*X8069210Y961280*D02*D22*X7553630Y1481740D02*X7544130Y1464930D01*X7535500Y1447650*X7527760Y1429950*X7520940Y1411880*X7515040Y1393490*X7510100Y1374810*X7506120Y1355920*X7503100Y1336840*X7501070Y1317630*X7500010Y1298340*X7499950Y1279030*X7500870Y1259740*X7502770Y1240510*X7505660Y1221420*X7509510Y1202490*X7514330Y1183790*X7520100Y1165350*X7526800Y1147240*X7534410Y1129490*X7542930Y1112150*X7552310Y1095270*X7562550Y1078890*X7573610Y1063050*X7585470Y1047810*X7598090Y1033180*X7611430Y1019220*X7625480Y1005960*X7640180Y993440*X7655500Y981680*X7671410Y970720*X7687850Y960580*X7704790Y951300*X7722180Y942900*X7739980Y935390*X7758130Y928810*X7776600Y923160*X7795340Y918460*X7814290Y914720*X7833410Y911960*X7852640Y910170*X7871940Y909370*X7891250Y909560*X7910530Y910730*X7929720Y912890*X7948780Y916020*X7967660Y920120*X7986300Y925190*X8004650Y931190*X8022680Y938130*X8040330Y945980*X8057550Y954720*X8070490Y962030*D02*D22*X8202240Y1093060D02*X8211740Y1109880D01*X8220370Y1127150*X8228110Y1144850*X8234930Y1162920*X8240820Y1181320*X8245770Y1199990*X8249750Y1218890*X8252770Y1237970*X8254800Y1257170*X8255850Y1276460*X8255920Y1295770*X8255000Y1315070*X8253090Y1334290*X8250210Y1353390*X8246350Y1372310*X8241540Y1391020*X8235770Y1409450*X8229070Y1427570*X8221450Y1445320*X8212940Y1462650*X8203550Y1479530*X8193320Y1495910*X8182260Y1511750*X8170400Y1527000*X8157780Y1541620*X8144430Y1555580*X8130390Y1568840*X8115690Y1581370*X8100360Y1593130*X8084460Y1604090*X8068020Y1614220*X8051080Y1623500*X8033690Y1631910*X8015890Y1639410*X7997730Y1646000*X7979260Y1651650*X7960530Y1656350*X7941580Y1660080*X7922460Y1662850*X7903230Y1664630*X7883930Y1665430*X7864620Y1665250*X7845340Y1664070*X7826140Y1661920*X7807090Y1658780*X7788210Y1654680*X7769570Y1649620*X7751210Y1643610*X7733190Y1636680*X7715540Y1628830*X7698310Y1620090*X7685340Y1612750*D02*D22*X8586590Y3649610D02*Y2074800D01*X6578720*Y3649610*X8586590*D02*D22*X8204170Y2671120D02*X8200900Y2665180D01*X8198530Y2658830*X8197110Y2652210*X8196660Y2645440*X8197200Y2638690*X8198710Y2632080*X8201160Y2625760*X8204500Y2619870*X8208660Y2614520*X8213550Y2609830*X8219080Y2605890*X8225110Y2602810*X8231530Y2600620*X8238190Y2599400*X8244960Y2599150*X8251700Y2599880*X8258260Y2601590*X8264510Y2604220*X8270300Y2607740*X8275530Y2612060*X8280070Y2617090*X8283450Y2622050*X8294010Y2640850*X8303700Y2660110*X8312510Y2679800*X8320400Y2699860*X8327370Y2720270*X8333390Y2740980*X8338470Y2761940*X8342570Y2783110*X8345710Y2804440*X8347860Y2825900*X8349040Y2847430*X8349220Y2869000*X8348420Y2890550*X8346640Y2912040*X8343870Y2933430*X8340130Y2954660*X8335420Y2975710*X8329750Y2996510*X8323130Y3017040*X8315590Y3037240*X8307130Y3057080*X8297770Y3076500*X8287530Y3095480*X8276430Y3113970*X8264500Y3131930*X8251760Y3149330*X8238230Y3166130*X8223960Y3182290*X8208950Y3197780*X8193260Y3212570*X8176900Y3226630*X8159920Y3239920*X8142350Y3252420*X8124230Y3264110*X8105590Y3274950*X8086470Y3284930*X8066920Y3294020*X8046970Y3302210*X8026660Y3309480*X8006050Y3315810*X7985170Y3321200*X7964060Y3325620*X7942770Y3329070*X7921350Y3331540*X7899840Y3333040*X7878280Y3333540*X7856720Y3333060*X7835210Y3331600*X7813780Y3329150*X7792490Y3325720*X7771380Y3321320*X7750490Y3315960*X7729870Y3309650*X7709560Y3302410*X7689600Y3294240*X7670030Y3285170*X7650910Y3275210*X7637780Y3267720*D02*D22*X7551700Y3053290D02*X7554960Y3059230D01*X7557330Y3065580*X7558760Y3072200*X7559210Y3078970*X7558670Y3085720*X7557160Y3092330*X7554710Y3098650*X7551370Y3104550*X7547200Y3109900*X7542310Y3114580*X7536790Y3118520*X7530760Y3121600*X7524340Y3123790*X7517670Y3125010*X7510900Y3125260*X7504160Y3124530*X7497600Y3122820*X7491360Y3120190*X7485560Y3116670*X7480340Y3112350*X7475800Y3107320*X7472420Y3102360*X7461870Y3083580*X7452180Y3064330*X7443390Y3044650*X7435510Y3024600*X7428550Y3004200*X7422530Y2983510*X7417470Y2962570*X7413370Y2941410*X7410250Y2920090*X7408100Y2898650*X7406940Y2877130*X7406760Y2855580*X7407580Y2834050*X7409370Y2812580*X7412150Y2791210*X7415900Y2769990*X7420620Y2748960*X7426300Y2728180*X7432920Y2707670*X7440480Y2687490*X7448950Y2667680*X7458320Y2648270*X7468570Y2629320*X7479670Y2610850*X7491610Y2592910*X7504360Y2575540*X7517890Y2558770*X7532170Y2542630*X7547180Y2527170*X7562880Y2512410*X7579240Y2498380*X7596220Y2485120*X7613790Y2472650*X7631920Y2460990*X7650560Y2450180*X7669680Y2440240*X7689230Y2431170*X7709170Y2423020*X7729470Y2415780*X7750080Y2409480*X7770950Y2404140*X7792050Y2399750*X7813320Y2396330*X7834730Y2393890*X7856230Y2392440*X7877780Y2391970*X7899320Y2392480*X7920820Y2393990*X7942220Y2396470*X7963490Y2399930*X7984580Y2404370*X8005440Y2409760*X8026030Y2416100*X8046320Y2423380*X8066240Y2431580*X8085780Y2440680*X8104870Y2450670*X8122030Y2460630*D02*D22*X7637780Y3267720D02*X7632300Y3263720D01*X7627460Y3258980*X7623370Y3253580*X7620090Y3247640*X7617720Y3241300*X7616290Y3234670*X7615830Y3227910*X7616360Y3221150*X7617860Y3214550*X7620310Y3208230*X7623640Y3202330*X7627800Y3196970*X7632690Y3192280*X7638200Y3188340*X7644230Y3185250*X7650650Y3183060*X7657310Y3181830*X7664080Y3181570*X7670820Y3182300*X7677380Y3184000*X7683630Y3186630*X7686850Y3188440*D02*D22*X8122030Y2460630D02*X8126980Y2465210D01*X8131210Y2470460*X8134630Y2476270*X8137170Y2482510*X8138770Y2489060*X8139400Y2495770*X8139040Y2502510*X8137710Y2509120*X8135430Y2515460*X8132240Y2521400*X8128230Y2526820*X8123470Y2531590*X8118060Y2535620*X8112130Y2538820*X8105790Y2541120*X8099180Y2542470*X8092450Y2542840*X8085740Y2542230*X8079180Y2540650*X8072930Y2538130*X8069210Y2536080*D02*D22*X7553630Y3056550D02*X7544130Y3039730D01*X7535500Y3022450*X7527760Y3004750*X7520940Y2986680*X7515040Y2968290*X7510100Y2949620*X7506120Y2930720*X7503100Y2911640*X7501070Y2892430*X7500010Y2873150*X7499950Y2853830*X7500870Y2834540*X7502770Y2815320*X7505660Y2796220*X7509510Y2777290*X7514330Y2758590*X7520100Y2740150*X7526800Y2722040*X7534410Y2704290*X7542930Y2686950*X7552310Y2670070*X7562550Y2653690*X7573610Y2637860*X7585470Y2622610*X7598090Y2607990*X7611430Y2594030*X7625480Y2580760*X7640180Y2568240*X7655500Y2556480*X7671410Y2545520*X7687850Y2535390*X7704790Y2526100*X7722180Y2517700*X7739980Y2510200*X7758130Y2503610*X7776600Y2497960*X7795340Y2493260*X7814290Y2489520*X7833410Y2486760*X7852640Y2484970*X7871940Y2484180*X7891250Y2484360*X7910530Y2485540*X7929720Y2487690*X7948780Y2490830*X7967660Y2494930*X7986300Y2499990*X8004650Y2506000*X8022680Y2512930*X8040330Y2520780*X8057550Y2529520*X8070490Y2536830*D02*D22*X8202240Y2667860D02*X8211740Y2684680D01*X8220370Y2701960*X8228110Y2719660*X8234930Y2737730*X8240820Y2756120*X8245770Y2774790*X8249750Y2793690*X8252770Y2812770*X8254800Y2831980*X8255850Y2851260*X8255920Y2870580*X8255000Y2889870*X8253090Y2909090*X8250210Y2928190*X8246350Y2947120*X8241540Y2965820*X8235770Y2984250*X8229070Y3002370*X8221450Y3020120*X8212940Y3037460*X8203550Y3054340*X8193320Y3070720*X8182260Y3086550*X8170400Y3101800*X8157780Y3116420*X8144430Y3130380*X8130390Y3143640*X8115690Y3156170*X8100360Y3167930*X8084460Y3178890*X8068020Y3189020*X8051080Y3198310*X8033690Y3206710*X8015890Y3214210*X7997730Y3220800*X7979260Y3226450*X7960530Y3231150*X7941580Y3234890*X7922460Y3237650*X7903230Y3239440*X7883930Y3240240*X7864620Y3240050*X7845340Y3238880*X7826140Y3236720*X7807090Y3233590*X7788210Y3229480*X7769570Y3224420*X7751210Y3218410*X7733190Y3211480*X7715540Y3203630*X7698310Y3194890*X7685340Y3187550*D02*D22*X8586590Y5224410D02*Y3649610D01*X6578720*Y5224410*X8586590*D02*D22*X8204170Y4245930D02*X8200900Y4239990D01*X8198530Y4233640*X8197110Y4227010*X8196660Y4220250*X8197200Y4213490*X8198710Y4206880*X8201160Y4200560*X8204500Y4194670*X8208660Y4189320*X8213550Y4184630*X8219080Y4180700*X8225110Y4177610*X8231530Y4175430*X8238190Y4174200*X8244960Y4173950*X8251700Y4174680*X8258260Y4176390*X8264510Y4179030*X8270300Y4182540*X8275530Y4186860*X8280070Y4191890*X8283450Y4196850*X8294010Y4215650*X8303700Y4234910*X8312510Y4254600*X8320400Y4274670*X8327370Y4295080*X8333390Y4315780*X8338470Y4336740*X8342570Y4357910*X8345710Y4379250*X8347860Y4400700*X8349040Y4422240*X8349220Y4443800*X8348420Y4465350*X8346640Y4486840*X8343870Y4508230*X8340130Y4529470*X8335420Y4550510*X8329750Y4571320*X8323130Y4591840*X8315590Y4612040*X8307130Y4631880*X8297770Y4651310*X8287530Y4670280*X8276430Y4688770*X8264500Y4706740*X8251760Y4724140*X8238230Y4740930*X8223960Y4757100*X8208950Y4772590*X8193260Y4787380*X8176900Y4801430*X8159920Y4814720*X8142350Y4827220*X8124230Y4838910*X8105590Y4849750*X8086470Y4859730*X8066920Y4868830*X8046970Y4877020*X8026660Y4884280*X8006050Y4890620*X7985170Y4896000*X7964060Y4900420*X7942770Y4903870*X7921350Y4906350*X7899840Y4907840*X7878280Y4908350*X7856720Y4907860*X7835210Y4906400*X7813780Y4903950*X7792490Y4900520*X7771380Y4896120*X7750490Y4890770*X7729870Y4884460*X7709560Y4877210*X7689600Y4869050*X7670030Y4859970*X7650910Y4850020*X7637780Y4842520*D02*D22*X7551700Y4628090D02*X7554960Y4634030D01*X7557330Y4640380*X7558760Y4647010*X7559210Y4653770*X7558670Y4660530*X7557160Y4667130*X7554710Y4673450*X7551370Y4679350*X7547200Y4684700*X7542310Y4689390*X7536790Y4693320*X7530760Y4696410*X7524340Y4698590*X7517670Y4699820*X7510900Y4700070*X7504160Y4699330*X7497600Y4697630*X7491360Y4694990*X7485560Y4691470*X7480340Y4687160*X7475800Y4682130*X7472420Y4677170*X7461870Y4658380*X7452180Y4639130*X7443390Y4619460*X7435510Y4599400*X7428550Y4579010*X7422530Y4558320*X7417470Y4537370*X7413370Y4516210*X7410250Y4494890*X7408100Y4473450*X7406940Y4451940*X7406760Y4430390*X7407580Y4408850*X7409370Y4387380*X7412150Y4366010*X7415900Y4344790*X7420620Y4323770*X7426300Y4302980*X7432920Y4282470*X7440480Y4262290*X7448950Y4242480*X7458320Y4223080*X7468570Y4204120*X7479670Y4185650*X7491610Y4167710*X7504360Y4150340*X7517890Y4133570*X7532170Y4117430*X7547180Y4101970*X7562880Y4087210*X7579240Y4073180*X7596220Y4059920*X7613790Y4047450*X7631920Y4035800*X7650560Y4024990*X7669680Y4015040*X7689230Y4005980*X7709170Y3997820*X7729470Y3990590*X7750080Y3984290*X7770950Y3978940*X7792050Y3974550*X7813320Y3971140*X7834730Y3968700*X7856230Y3967240*X7877780Y3966770*X7899320Y3967290*X7920820Y3968790*X7942220Y3971270*X7963490Y3974740*X7984580Y3979170*X8005440Y3984560*X8026030Y3990900*X8046320Y3998180*X8066240Y4006380*X8085780Y4015490*X8104870Y4025470*X8122030Y4035430*D02*D22*X7637780Y4842520D02*X7632300Y4838530D01*X7627460Y4833780*X7623370Y4828380*X7620090Y4822450*X7617720Y4816100*X7616290Y4809480*X7615830Y4802710*X7616360Y4795960*X7617860Y4789350*X7620310Y4783030*X7623640Y4777130*X7627800Y4771780*X7632690Y4767080*X7638200Y4763150*X7644230Y4760050*X7650650Y4757860*X7657310Y4756630*X7664080Y4756380*X7670820Y4757110*X7677380Y4758800*X7683630Y4761440*X7686850Y4763250*D02*D22*X8122030Y4035430D02*X8126980Y4040010D01*X8131210Y4045260*X8134630Y4051070*X8137170Y4057320*X8138770Y4063860*X8139400Y4070580*X8139040Y4077310*X8137710Y4083920*X8135430Y4090260*X8132240Y4096210*X8128230Y4101620*X8123470Y4106400*X8118060Y4110430*X8112130Y4113620*X8105790Y4115920*X8099180Y4117270*X8092450Y4117650*X8085740Y4117040*X8079180Y4115450*X8072930Y4112930*X8069210Y4110890*D02*D22*X7553630Y4631350D02*X7544130Y4614530D01*X7535500Y4597250*X7527760Y4579560*X7520940Y4561490*X7515040Y4543090*X7510100Y4524420*X7506120Y4505520*X7503100Y4486440*X7501070Y4467240*X7500010Y4447950*X7499950Y4428630*X7500870Y4409340*X7502770Y4390120*X7505660Y4371020*X7509510Y4352100*X7514330Y4333390*X7520100Y4314960*X7526800Y4296840*X7534410Y4279090*X7542930Y4261750*X7552310Y4244870*X7562550Y4228500*X7573610Y4212660*X7585470Y4197410*X7598090Y4182790*X7611430Y4168830*X7625480Y4155570*X7640180Y4143040*X7655500Y4131280*X7671410Y4120320*X7687850Y4110190*X7704790Y4100910*X7722180Y4092500*X7739980Y4085000*X7758130Y4078410*X7776600Y4072760*X7795340Y4068060*X7814290Y4064330*X7833410Y4061560*X7852640Y4059780*X7871940Y4058980*X7891250Y4059170*X7910530Y4060340*X7929720Y4062490*X7948780Y4065630*X7967660Y4069730*X7986300Y4074790*X8004650Y4080800*X8022680Y4087740*X8040330Y4095580*X8057550Y4104320*X8070490Y4111640*D02*D22*X8202240Y4242670D02*X8211740Y4259480D01*X8220370Y4276760*X8228110Y4294460*X8234930Y4312530*X8240820Y4330920*X8245770Y4349590*X8249750Y4368490*X8252770Y4387570*X8254800Y4406780*X8255850Y4426070*X8255920Y4445380*X8255000Y4464670*X8253090Y4483890*X8250210Y4502990*X8246350Y4521920*X8241540Y4540620*X8235770Y4559060*X8229070Y4577170*X8221450Y4594920*X8212940Y4612260*X8203550Y4629140*X8193320Y4645520*X8182260Y4661350*X8170400Y4676600*X8157780Y4691230*X8144430Y4705190*X8130390Y4718450*X8115690Y4730970*X8100360Y4742730*X8084460Y4753690*X8068020Y4763830*X8051080Y4773110*X8033690Y4781510*X8015890Y4789020*X7997730Y4795600*X7979260Y4801250*X7960530Y4805950*X7941580Y4809690*X7922460Y4812450*X7903230Y4814240*X7883930Y4815040*X7864620Y4814850*X7845340Y4813680*X7826140Y4811520*X7807090Y4808390*X7788210Y4804290*X7769570Y4799220*X7751210Y4793220*X7733190Y4786280*X7715540Y4778430*X7698310Y4769690*X7685340Y4762360*D02*D22*X8586590Y6799210D02*Y5224410D01*X6578720*Y6799210*X8586590*D02*D22*X8204170Y5820730D02*X8200900Y5814790D01*X8198530Y5808440*X8197110Y5801810*X8196660Y5795050*X8197200Y5788290*X8198710Y5781690*X8201160Y5775370*X8204500Y5769470*X8208660Y5764120*X8213550Y5759430*X8219080Y5755500*X8225110Y5752410*X8231530Y5750230*X8238190Y5749000*X8244960Y5748750*X8251700Y5749490*X8258260Y5751190*X8264510Y5753830*X8270300Y5757340*X8275530Y5761660*X8280070Y5766690*X8283450Y5771650*X8294010Y5790450*X8303700Y5809720*X8312510Y5829400*X8320400Y5849470*X8327370Y5869880*X8333390Y5890590*X8338470Y5911540*X8342570Y5932710*X8345710Y5954050*X8347860Y5975510*X8349040Y5997040*X8349220Y6018600*X8348420Y6040150*X8346640Y6061640*X8343870Y6083030*X8340130Y6104270*X8335420Y6125310*X8329750Y6146120*X8323130Y6166640*X8315590Y6186850*X8307130Y6206680*X8297770Y6226110*X8287530Y6245090*X8276430Y6263580*X8264500Y6281540*X8251760Y6298940*X8238230Y6315740*X8223960Y6331900*X8208950Y6347390*X8193260Y6362180*X8176900Y6376230*X8159920Y6389530*X8142350Y6402030*X8124230Y6413710*X8105590Y6424560*X8086470Y6434530*X8066920Y6443630*X8046970Y6451820*X8026660Y6459090*X8006050Y6465420*X7985170Y6470800*X7964060Y6475230*X7942770Y6478680*X7921350Y6481150*X7899840Y6482640*X7878280Y6483150*X7856720Y6482670*X7835210Y6481200*X7813780Y6478750*X7792490Y6475330*X7771380Y6470930*X7750490Y6465570*X7729870Y6459260*X7709560Y6452020*X7689600Y6443850*X7670030Y6434780*X7650910Y6424820*X7637780Y6417320*D02*D22*X7551700Y6202890D02*X7554960Y6208830D01*X7557330Y6215180*X7558760Y6221810*X7559210Y6228570*X7558670Y6235330*X7557160Y6241940*X7554710Y6248260*X7551370Y6254150*X7547200Y6259500*X7542310Y6264190*X7536790Y6268120*X7530760Y6271210*X7524340Y6273390*X7517670Y6274620*X7510900Y6274870*X7504160Y6274130*X7497600Y6272430*X7491360Y6269790*X7485560Y6266280*X7480340Y6261960*X7475800Y6256930*X7472420Y6251970*X7461870Y6233180*X7452180Y6213930*X7443390Y6194260*X7435510Y6174210*X7428550Y6153810*X7422530Y6133120*X7417470Y6112170*X7413370Y6091020*X7410250Y6069700*X7408100Y6048260*X7406940Y6026740*X7406760Y6005190*X7407580Y5983660*X7409370Y5962180*X7412150Y5940810*X7415900Y5919600*X7420620Y5898570*X7426300Y5877780*X7432920Y5857280*X7440480Y5837100*X7448950Y5817280*X7458320Y5797880*X7468570Y5778920*X7479670Y5760460*X7491610Y5742520*X7504360Y5725140*X7517890Y5708370*X7532170Y5692240*X7547180Y5676770*X7562880Y5662010*X7579240Y5647990*X7596220Y5634720*X7613790Y5622250*X7631920Y5610600*X7650560Y5599790*X7669680Y5589840*X7689230Y5580780*X7709170Y5572620*X7729470Y5565390*X7750080Y5559090*X7770950Y5553740*X7792050Y5549360*X7813320Y5545940*X7834730Y5543500*X7856230Y5542040*X7877780Y5541570*X7899320Y5542090*X7920820Y5543590*X7942220Y5546080*X7963490Y5549540*X7984580Y5553970*X8005440Y5559360*X8026030Y5565710*X8046320Y5572990*X8066240Y5581190*X8085780Y5590290*X8104870Y5600280*X8122030Y5610240*D02*D22*X7637780Y6417320D02*X7632300Y6413330D01*X7627460Y6408580*X7623370Y6403180*X7620090Y6397250*X7617720Y6390900*X7616290Y6384280*X7615830Y6377520*X7616360Y6370760*X7617860Y6364150*X7620310Y6357830*X7623640Y6351930*X7627800Y6346580*X7632690Y6341890*X7638200Y6337950*X7644230Y6334860*X7650650Y6332670*X7657310Y6331430*X7664080Y6331180*X7670820Y6331910*X7677380Y6333610*X7683630Y6336240*X7686850Y6338050*D02*D22*X8122030Y5610240D02*X8126980Y5614810D01*X8131210Y5620060*X8134630Y5625870*X8137170Y5632120*X8138770Y5638670*X8139400Y5645380*X8139040Y5652110*X8137710Y5658720*X8135430Y5665070*X8132240Y5671010*X8128230Y5676430*X8123470Y5681200*X8118060Y5685230*X8112130Y5688430*X8105790Y5690730*X8099180Y5692080*X8092450Y5692450*X8085740Y5691840*X8079180Y5690260*X8072930Y5687730*X8069210Y5685690*D02*D22*X7553630Y6206150D02*X7544130Y6189340D01*X7535500Y6172060*X7527760Y6154360*X7520940Y6136290*X7515040Y6117900*X7510100Y6099220*X7506120Y6080320*X7503100Y6061250*X7501070Y6042040*X7500010Y6022750*X7499950Y6003440*X7500870Y5984150*X7502770Y5964920*X7505660Y5945830*X7509510Y5926900*X7514330Y5908200*X7520100Y5889760*X7526800Y5871650*X7534410Y5853900*X7542930Y5836560*X7552310Y5819680*X7562550Y5803300*X7573610Y5787460*X7585470Y5772220*X7598090Y5757590*X7611430Y5743630*X7625480Y5730370*X7640180Y5717850*X7655500Y5706090*X7671410Y5695130*X7687850Y5684990*X7704790Y5675710*X7722180Y5667310*X7739980Y5659800*X7758130Y5653220*X7776600Y5647570*X7795340Y5642870*X7814290Y5639130*X7833410Y5636370*X7852640Y5634580*X7871940Y5633780*X7891250Y5633970*X7910530Y5635140*X7929720Y5637300*X7948780Y5640430*X7967660Y5644530*X7986300Y5649600*X8004650Y5655600*X8022680Y5662540*X8040330Y5670390*X8057550Y5679130*X8070490Y5686440*D02*D22*X8202240Y5817470D02*X8211740Y5834290D01*X8220370Y5851560*X8228110Y5869260*X8234930Y5887330*X8240820Y5905730*X8245770Y5924400*X8249750Y5943300*X8252770Y5962380*X8254800Y5981580*X8255850Y6000870*X8255920Y6020180*X8255000Y6039480*X8253090Y6058700*X8250210Y6077800*X8246350Y6096720*X8241540Y6115430*X8235770Y6133860*X8229070Y6151980*X8221450Y6169730*X8212940Y6187060*X8203550Y6203940*X8193320Y6220320*X8182260Y6236160*X8170400Y6251410*X8157780Y6266030*X8144430Y6279990*X8130390Y6293250*X8115690Y6305780*X8100360Y6317540*X8084460Y6328500*X8068020Y6338630*X8051080Y6347910*X8033690Y6356320*X8015890Y6363820*X7997730Y6370410*X7979260Y6376060*X7960530Y6380760*X7941580Y6384490*X7922460Y6387260*X7903230Y6389040*X7883930Y6389840*X7864620Y6389650*X7845340Y6388480*X7826140Y6386330*X7807090Y6383190*X7788210Y6379090*X7769570Y6374030*X7751210Y6368020*X7733190Y6361080*X7715540Y6353240*X7698310Y6344500*X7685340Y6337160*D02*D22*X8586590Y8374020D02*Y6799210D01*X6578720*Y8374020*X8586590*D02*D22*X8204170Y7395530D02*X8200900Y7389590D01*X8198530Y7383240*X8197110Y7376620*X8196660Y7369850*X8197200Y7363100*X8198710Y7356490*X8201160Y7350170*X8204500Y7344270*X8208660Y7338920*X8213550Y7334230*X8219080Y7330300*X8225110Y7327210*X8231530Y7325030*X8238190Y7323800*X8244960Y7323560*X8251700Y7324290*X8258260Y7326000*X8264510Y7328630*X8270300Y7332150*X8275530Y7336470*X8280070Y7341500*X8283450Y7346460*X8294010Y7365260*X8303700Y7384520*X8312510Y7404210*X8320400Y7424270*X8327370Y7444680*X8333390Y7465390*X8338470Y7486350*X8342570Y7507520*X8345710Y7528850*X8347860Y7550310*X8349040Y7571840*X8349220Y7593410*X8348420Y7614960*X8346640Y7636450*X8343870Y7657830*X8340130Y7679070*X8335420Y7700120*X8329750Y7720920*X8323130Y7741450*X8315590Y7761650*X8307130Y7781480*X8297770Y7800910*X8287530Y7819890*X8276430Y7838380*X8264500Y7856340*X8251760Y7873740*X8238230Y7890540*X8223960Y7906700*X8208950Y7922190*X8193260Y7936980*X8176900Y7951040*X8159920Y7964330*X8142350Y7976830*X8124230Y7988520*X8105590Y7999360*X8086470Y8009340*X8066920Y8018430*X8046970Y8026620*X8026660Y8033890*X8006050Y8040220*X7985170Y8045610*X7964060Y8050030*X7942770Y8053480*X7921350Y8055950*X7899840Y8057450*X7878280Y8057950*X7856720Y8057470*X7835210Y8056000*X7813780Y8053560*X7792490Y8050130*X7771380Y8045730*X7750490Y8040370*X7729870Y8034060*X7709560Y8026820*X7689600Y8018650*X7670030Y8009580*X7650910Y7999620*X7637780Y7992130*D02*D22*X7551700Y7777700D02*X7554960Y7783640D01*X7557330Y7789990*X7558760Y7796610*X7559210Y7803380*X7558670Y7810130*X7557160Y7816740*X7554710Y7823060*X7551370Y7828950*X7547200Y7834300*X7542310Y7838990*X7536790Y7842930*X7530760Y7846010*X7524340Y7848200*X7517670Y7849420*X7510900Y7849670*X7504160Y7848940*X7497600Y7847230*X7491360Y7844590*X7485560Y7841080*X7480340Y7836760*X7475800Y7831730*X7472420Y7826770*X7461870Y7807990*X7452180Y7788740*X7443390Y7769060*X7435510Y7749010*X7428550Y7728610*X7422530Y7707920*X7417470Y7686980*X7413370Y7665820*X7410250Y7644500*X7408100Y7623060*X7406940Y7601540*X7406760Y7579990*X7407580Y7558460*X7409370Y7536990*X7412150Y7515620*X7415900Y7494400*X7420620Y7473370*X7426300Y7452590*X7432920Y7432080*X7440480Y7411900*X7448950Y7392090*X7458320Y7372680*X7468570Y7353730*X7479670Y7335260*X7491610Y7317320*X7504360Y7299950*X7517890Y7283180*X7532170Y7267040*X7547180Y7251580*X7562880Y7236820*X7579240Y7222790*X7596220Y7209530*X7613790Y7197060*X7631920Y7185400*X7650560Y7174590*X7669680Y7164640*X7689230Y7155580*X7709170Y7147430*X7729470Y7140190*X7750080Y7133890*X7770950Y7128550*X7792050Y7124160*X7813320Y7120740*X7834730Y7118300*X7856230Y7116850*X7877780Y7116380*X7899320Y7116890*X7920820Y7118400*X7942220Y7120880*X7963490Y7124340*X7984580Y7128770*X8005440Y7134170*X8026030Y7140510*X8046320Y7147790*X8066240Y7155990*X8085780Y7165090*X8104870Y7175080*X8122030Y7185040*D02*D22*X7637780Y7992130D02*X7632300Y7988130D01*X7627460Y7983390*X7623370Y7977990*X7620090Y7972050*X7617720Y7965710*X7616290Y7959080*X7615830Y7952320*X7616360Y7945560*X7617860Y7938960*X7620310Y7932630*X7623640Y7926740*X7627800Y7921380*X7632690Y7916690*X7638200Y7912750*X7644230Y7909660*X7650650Y7907470*X7657310Y7906240*X7664080Y7905980*X7670820Y7906710*X7677380Y7908410*X7683630Y7911040*X7686850Y7912850*D02*D22*X8122030Y7185040D02*X8126980Y7189620D01*X8131210Y7194870*X8134630Y7200680*X8137170Y7206920*X8138770Y7213470*X8139400Y7220180*X8139040Y7226920*X8137710Y7233530*X8135430Y7239870*X8132240Y7245810*X8128230Y7251230*X8123470Y7256000*X8118060Y7260030*X8112130Y7263230*X8105790Y7265530*X8099180Y7266880*X8092450Y7267250*X8085740Y7266640*X8079180Y7265060*X8072930Y7262540*X8069210Y7260490*D02*D22*X7553630Y7780960D02*X7544130Y7764140D01*X7535500Y7746860*X7527760Y7729160*X7520940Y7711090*X7515040Y7692700*X7510100Y7674030*X7506120Y7655130*X7503100Y7636050*X7501070Y7616840*X7500010Y7597560*X7499950Y7578240*X7500870Y7558950*X7502770Y7539730*X7505660Y7520630*X7509510Y7501700*X7514330Y7483000*X7520100Y7464560*X7526800Y7446450*X7534410Y7428700*X7542930Y7411360*X7552310Y7394480*X7562550Y7378100*X7573610Y7362270*X7585470Y7347020*X7598090Y7332390*X7611430Y7318430*X7625480Y7305170*X7640180Y7292650*X7655500Y7280890*X7671410Y7269930*X7687850Y7259790*X7704790Y7250510*X7722180Y7242110*X7739980Y7234600*X7758130Y7228020*X7776600Y7222370*X7795340Y7217670*X7814290Y7213930*X7833410Y7211170*X7852640Y7209380*X7871940Y7208580*X7891250Y7208770*X7910530Y7209940*X7929720Y7212100*X7948780Y7215230*X7967660Y7219340*X7986300Y7224400*X8004650Y7230410*X8022680Y7237340*X8040330Y7245190*X8057550Y7253930*X8070490Y7261240*D02*D22*X8202240Y7392270D02*X8211740Y7409090D01*X8220370Y7426370*X8228110Y7444070*X8234930Y7462130*X8240820Y7480530*X8245770Y7499200*X8249750Y7518100*X8252770Y7537180*X8254800Y7556390*X8255850Y7575670*X8255920Y7594990*X8255000Y7614280*X8253090Y7633500*X8250210Y7652600*X8246350Y7671530*X8241540Y7690230*X8235770Y7708660*X8229070Y7726780*X8221450Y7744530*X8212940Y7761870*X8203550Y7778750*X8193320Y7795130*X8182260Y7810960*X8170400Y7826210*X8157780Y7840830*X8144430Y7854790*X8130390Y7868050*X8115690Y7880580*X8100360Y7892340*X8084460Y7903300*X8068020Y7913430*X8051080Y7922710*X8033690Y7931120*X8015890Y7938620*X7997730Y7945210*X7979260Y7950860*X7960530Y7955560*X7941580Y7959300*X7922460Y7962060*X7903230Y7963850*X7883930Y7964640*X7864620Y7964460*X7845340Y7963280*X7826140Y7961130*X7807090Y7958000*X7788210Y7953890*X7769570Y7948830*X7751210Y7942820*X7733190Y7935890*X7715540Y7928040*X7698310Y7919300*X7685340Y7911960*D02*D22*X6078720Y8874020D02*X9086590D01*Y0*X6078720*Y8874020*D02*D22*X8586590D02*Y0D01*D02*D22*X6578720Y8874020D02*Y0D01*D02*D22*X9086590Y500000D02*X6078720D01*D02*D22*Y2074800D02*X9086590D01*D02*D22*X6078720Y3649610D02*X9086590D01*D02*D22*X6078720Y5224410D02*X9086590D01*D02*D22*X6078720Y6799210D02*X9086590D01*D02*D22*X6078720Y8374020D02*X9086590D01*D02*%SRX1Y1I0J0*%*M02*